<svg width="719" height="396" viewBox="0 0 719 396" fill="none" xmlns="http://www.w3.org/2000/svg">
<g filter="url(#filter0_d_563_10239)">
<rect width="314" height="85" fill="#242424"/>
<path d="M71.742 56.5V29.444H79.342V56.5H71.742ZM77.898 56.5V50.192H92.414V56.5H77.898ZM77.898 45.784V39.628H91.008V45.784H77.898ZM77.898 35.752V29.444H92.186V35.752H77.898ZM107.45 56.5V46.012C107.45 45.2773 107.234 44.72 106.804 44.34C106.398 43.9347 105.879 43.732 105.246 43.732C104.815 43.732 104.422 43.8207 104.068 43.998C103.738 44.1753 103.472 44.4413 103.27 44.796C103.092 45.1253 103.004 45.5307 103.004 46.012L100.116 44.72C100.116 43.2 100.445 41.8953 101.104 40.806C101.788 39.7167 102.712 38.8807 103.878 38.298C105.068 37.7153 106.411 37.424 107.906 37.424C109.248 37.424 110.439 37.728 111.478 38.336C112.542 38.9187 113.378 39.7293 113.986 40.768C114.594 41.7813 114.898 42.9593 114.898 44.302V56.5H107.45ZM95.5555 56.5V37.804H103.004V56.5H95.5555ZM127.809 56.956C125.63 56.956 123.718 56.5507 122.071 55.74C120.424 54.904 119.132 53.7513 118.195 52.282C117.283 50.7873 116.827 49.0773 116.827 47.152C116.827 45.252 117.27 43.5673 118.157 42.098C119.069 40.6287 120.31 39.476 121.881 38.64C123.452 37.7787 125.225 37.348 127.201 37.348C129.152 37.348 130.874 37.7533 132.369 38.564C133.864 39.3493 135.029 40.4513 135.865 41.87C136.726 43.2887 137.157 44.91 137.157 46.734C137.157 47.114 137.132 47.5193 137.081 47.95C137.056 48.3553 136.98 48.8367 136.853 49.394L119.981 49.508V44.948L134.079 44.834L130.621 46.848C130.621 45.8347 130.494 45.0113 130.241 44.378C130.013 43.7193 129.658 43.2253 129.177 42.896C128.696 42.5667 128.088 42.402 127.353 42.402C126.593 42.402 125.934 42.592 125.377 42.972C124.82 43.352 124.389 43.8967 124.085 44.606C123.806 45.3153 123.667 46.1767 123.667 47.19C123.667 48.2287 123.819 49.1027 124.123 49.812C124.452 50.496 124.921 51.0153 125.529 51.37C126.137 51.7247 126.897 51.902 127.809 51.902C128.696 51.902 129.468 51.7627 130.127 51.484C130.811 51.18 131.432 50.7113 131.989 50.078L135.713 53.764C134.776 54.828 133.648 55.626 132.331 56.158C131.014 56.69 129.506 56.956 127.809 56.956ZM139.382 56.5V37.804H146.83V56.5H139.382ZM146.83 46.392L143.372 43.314C144.334 41.2873 145.449 39.8053 146.716 38.868C148.008 37.9053 149.616 37.424 151.542 37.424C152.403 37.424 153.138 37.5253 153.746 37.728C154.379 37.9307 154.886 38.222 155.266 38.602L151.086 44.53C150.908 44.3273 150.642 44.1627 150.288 44.036C149.958 43.884 149.566 43.808 149.11 43.808C148.35 43.808 147.78 44.036 147.4 44.492C147.02 44.9227 146.83 45.556 146.83 46.392ZM163.802 65.088C161.699 65.088 159.837 64.7333 158.216 64.024C156.595 63.34 155.341 62.3647 154.454 61.098L158.862 56.728C159.445 57.3613 160.091 57.8553 160.8 58.21C161.509 58.59 162.371 58.78 163.384 58.78C164.6 58.78 165.55 58.4887 166.234 57.906C166.943 57.3233 167.298 56.4747 167.298 55.36V50.42L168.514 46.392L167.488 42.402V37.804H174.746V55.056C174.746 57.108 174.265 58.8813 173.302 60.376C172.339 61.8707 171.035 63.0233 169.388 63.834C167.741 64.67 165.879 65.088 163.802 65.088ZM163.46 55.74C161.712 55.74 160.167 55.3347 158.824 54.524C157.481 53.7133 156.43 52.6113 155.67 51.218C154.91 49.8247 154.53 48.2793 154.53 46.582C154.53 44.8593 154.91 43.314 155.67 41.946C156.43 40.5527 157.481 39.4507 158.824 38.64C160.167 37.8293 161.712 37.424 163.46 37.424C164.549 37.424 165.55 37.614 166.462 37.994C167.399 38.3487 168.172 38.8553 168.78 39.514C169.413 40.1727 169.819 40.9327 169.996 41.794V51.37C169.819 52.2313 169.413 52.9913 168.78 53.65C168.172 54.3087 167.399 54.828 166.462 55.208C165.55 55.5627 164.549 55.74 163.46 55.74ZM164.828 49.394C165.436 49.394 165.955 49.2547 166.386 48.976C166.817 48.6973 167.146 48.3427 167.374 47.912C167.602 47.4813 167.716 47.0253 167.716 46.544C167.716 46.0627 167.602 45.6067 167.374 45.176C167.146 44.7453 166.817 44.3907 166.386 44.112C165.981 43.8333 165.474 43.694 164.866 43.694C164.283 43.694 163.777 43.8333 163.346 44.112C162.915 44.3907 162.586 44.758 162.358 45.214C162.13 45.6447 162.016 46.088 162.016 46.544C162.016 46.9747 162.13 47.418 162.358 47.874C162.586 48.3047 162.903 48.672 163.308 48.976C163.739 49.2547 164.245 49.394 164.828 49.394ZM188 56.956C185.822 56.956 183.909 56.5507 182.262 55.74C180.616 54.904 179.324 53.7513 178.386 52.282C177.474 50.7873 177.018 49.0773 177.018 47.152C177.018 45.252 177.462 43.5673 178.348 42.098C179.26 40.6287 180.502 39.476 182.072 38.64C183.643 37.7787 185.416 37.348 187.392 37.348C189.343 37.348 191.066 37.7533 192.56 38.564C194.055 39.3493 195.22 40.4513 196.056 41.87C196.918 43.2887 197.348 44.91 197.348 46.734C197.348 47.114 197.323 47.5193 197.272 47.95C197.247 48.3553 197.171 48.8367 197.044 49.394L180.172 49.508V44.948L194.27 44.834L190.812 46.848C190.812 45.8347 190.686 45.0113 190.432 44.378C190.204 43.7193 189.85 43.2253 189.368 42.896C188.887 42.5667 188.279 42.402 187.544 42.402C186.784 42.402 186.126 42.592 185.568 42.972C185.011 43.352 184.58 43.8967 184.276 44.606C183.998 45.3153 183.858 46.1767 183.858 47.19C183.858 48.2287 184.01 49.1027 184.314 49.812C184.644 50.496 185.112 51.0153 185.72 51.37C186.328 51.7247 187.088 51.902 188 51.902C188.887 51.902 189.66 51.7627 190.318 51.484C191.002 51.18 191.623 50.7113 192.18 50.078L195.904 53.764C194.967 54.828 193.84 55.626 192.522 56.158C191.205 56.69 189.698 56.956 188 56.956ZM201.709 56.5V30.128H209.157V56.5H201.709ZM197.719 43.884V37.804H213.147V43.884H197.719ZM215.158 56.5V37.804H222.606V56.5H215.158ZM218.882 36.056C217.793 36.056 216.881 35.6887 216.146 34.954C215.437 34.194 215.082 33.2693 215.082 32.18C215.082 31.0907 215.437 30.1787 216.146 29.444C216.881 28.684 217.793 28.304 218.882 28.304C219.997 28.304 220.909 28.684 221.618 29.444C222.327 30.1787 222.682 31.0907 222.682 32.18C222.682 33.2693 222.327 34.194 221.618 34.954C220.909 35.6887 219.997 36.056 218.882 36.056ZM235.605 56.956C233.579 56.956 231.755 56.538 230.133 55.702C228.512 54.866 227.233 53.7133 226.295 52.244C225.358 50.7493 224.889 49.0647 224.889 47.19C224.889 45.29 225.358 43.6053 226.295 42.136C227.258 40.6413 228.55 39.476 230.171 38.64C231.818 37.7787 233.667 37.348 235.719 37.348C237.189 37.348 238.506 37.576 239.671 38.032C240.862 38.488 241.964 39.1847 242.977 40.122L238.303 44.796C237.974 44.492 237.607 44.264 237.201 44.112C236.796 43.96 236.302 43.884 235.719 43.884C235.111 43.884 234.554 44.0233 234.047 44.302C233.566 44.5553 233.173 44.9227 232.869 45.404C232.565 45.8853 232.413 46.4553 232.413 47.114C232.413 47.7727 232.565 48.3553 232.869 48.862C233.173 49.3433 233.579 49.7233 234.085 50.002C234.592 50.2807 235.137 50.42 235.719 50.42C236.378 50.42 236.923 50.3187 237.353 50.116C237.784 49.9133 238.164 49.6347 238.493 49.28L243.167 53.954C242.078 54.9673 240.938 55.7273 239.747 56.234C238.557 56.7153 237.176 56.956 235.605 56.956Z" fill="#FEFAE0"/>
</g>
<g filter="url(#filter1_d_563_10239)">
<rect width="314" height="85" transform="translate(371 143)" fill="#242424"/>
<path d="M421.118 200.032C418.99 200.032 417.027 199.677 415.228 198.968C413.455 198.259 411.897 197.271 410.554 196.004C409.237 194.737 408.211 193.243 407.476 191.52C406.741 189.797 406.374 187.935 406.374 185.934C406.374 183.907 406.729 182.045 407.438 180.348C408.173 178.651 409.199 177.169 410.516 175.902C411.833 174.635 413.379 173.66 415.152 172.976C416.951 172.267 418.914 171.912 421.042 171.912C423.17 171.912 425.121 172.267 426.894 172.976C428.693 173.66 430.251 174.635 431.568 175.902C432.885 177.169 433.899 178.663 434.608 180.386C435.343 182.083 435.71 183.945 435.71 185.972C435.71 187.973 435.343 189.835 434.608 191.558C433.899 193.255 432.885 194.75 431.568 196.042C430.251 197.309 428.705 198.297 426.932 199.006C425.159 199.69 423.221 200.032 421.118 200.032ZM421.042 193.344C422.461 193.344 423.689 193.04 424.728 192.432C425.767 191.824 426.565 190.963 427.122 189.848C427.679 188.733 427.958 187.429 427.958 185.934C427.958 184.819 427.793 183.819 427.464 182.932C427.16 182.02 426.704 181.247 426.096 180.614C425.488 179.955 424.753 179.461 423.892 179.132C423.056 178.777 422.106 178.6 421.042 178.6C419.623 178.6 418.395 178.904 417.356 179.512C416.317 180.095 415.519 180.943 414.962 182.058C414.405 183.147 414.126 184.439 414.126 185.934C414.126 187.074 414.278 188.1 414.582 189.012C414.911 189.924 415.38 190.709 415.988 191.368C416.596 192.001 417.318 192.495 418.154 192.85C419.015 193.179 419.978 193.344 421.042 193.344ZM432.86 201.97L419.75 188.86L423.854 184.756L436.964 197.866L432.86 201.97ZM447.276 199.956C445.452 199.956 443.83 199.601 442.412 198.892C441.018 198.183 439.916 197.195 439.106 195.928C438.295 194.661 437.89 193.217 437.89 191.596V180.804H445.338V191.672C445.338 192.052 445.414 192.394 445.566 192.698C445.743 193.002 445.971 193.243 446.25 193.42C446.554 193.572 446.896 193.648 447.276 193.648C447.808 193.648 448.251 193.471 448.606 193.116C448.986 192.736 449.176 192.255 449.176 191.672V180.804H456.624V191.596C456.624 193.243 456.218 194.699 455.408 195.966C454.622 197.207 453.52 198.183 452.102 198.892C450.708 199.601 449.1 199.956 447.276 199.956ZM459.646 199.5V180.804H467.094V199.5H459.646ZM463.37 179.056C462.281 179.056 461.369 178.689 460.634 177.954C459.925 177.194 459.57 176.269 459.57 175.18C459.57 174.091 459.925 173.179 460.634 172.444C461.369 171.684 462.281 171.304 463.37 171.304C464.485 171.304 465.397 171.684 466.106 172.444C466.816 173.179 467.17 174.091 467.17 175.18C467.17 176.269 466.816 177.194 466.106 177.954C465.397 178.689 464.485 179.056 463.37 179.056ZM480.094 199.956C478.067 199.956 476.243 199.538 474.622 198.702C473 197.866 471.721 196.713 470.784 195.244C469.846 193.749 469.378 192.065 469.378 190.19C469.378 188.29 469.846 186.605 470.784 185.136C471.746 183.641 473.038 182.476 474.66 181.64C476.306 180.779 478.156 180.348 480.208 180.348C481.677 180.348 482.994 180.576 484.16 181.032C485.35 181.488 486.452 182.185 487.466 183.122L482.792 187.796C482.462 187.492 482.095 187.264 481.69 187.112C481.284 186.96 480.79 186.884 480.208 186.884C479.6 186.884 479.042 187.023 478.536 187.302C478.054 187.555 477.662 187.923 477.358 188.404C477.054 188.885 476.902 189.455 476.902 190.114C476.902 190.773 477.054 191.355 477.358 191.862C477.662 192.343 478.067 192.723 478.574 193.002C479.08 193.281 479.625 193.42 480.208 193.42C480.866 193.42 481.411 193.319 481.842 193.116C482.272 192.913 482.652 192.635 482.982 192.28L487.656 196.954C486.566 197.967 485.426 198.727 484.236 199.234C483.045 199.715 481.664 199.956 480.094 199.956ZM501.863 199.5L496.657 189.658L501.825 180.804H509.843L503.155 190.798L503.345 188.366L510.223 199.5H501.863ZM489.817 199.5V171.684H497.265V199.5H489.817ZM518.688 199.5V171.684H526.136V199.5H518.688ZM539.438 199.956C537.259 199.956 535.346 199.551 533.7 198.74C532.053 197.904 530.761 196.751 529.824 195.282C528.912 193.787 528.456 192.077 528.456 190.152C528.456 188.252 528.899 186.567 529.786 185.098C530.698 183.629 531.939 182.476 533.51 181.64C535.08 180.779 536.854 180.348 538.83 180.348C540.78 180.348 542.503 180.753 543.998 181.564C545.492 182.349 546.658 183.451 547.494 184.87C548.355 186.289 548.786 187.91 548.786 189.734C548.786 190.114 548.76 190.519 548.71 190.95C548.684 191.355 548.608 191.837 548.482 192.394L531.61 192.508V187.948L545.708 187.834L542.25 189.848C542.25 188.835 542.123 188.011 541.87 187.378C541.642 186.719 541.287 186.225 540.806 185.896C540.324 185.567 539.716 185.402 538.982 185.402C538.222 185.402 537.563 185.592 537.006 185.972C536.448 186.352 536.018 186.897 535.714 187.606C535.435 188.315 535.296 189.177 535.296 190.19C535.296 191.229 535.448 192.103 535.752 192.812C536.081 193.496 536.55 194.015 537.158 194.37C537.766 194.725 538.526 194.902 539.438 194.902C540.324 194.902 541.097 194.763 541.756 194.484C542.44 194.18 543.06 193.711 543.618 193.078L547.342 196.764C546.404 197.828 545.277 198.626 543.96 199.158C542.642 199.69 541.135 199.956 539.438 199.956ZM558.801 199.88C557.053 199.88 555.507 199.462 554.165 198.626C552.822 197.79 551.771 196.65 551.011 195.206C550.251 193.737 549.871 192.052 549.871 190.152C549.871 188.252 550.251 186.567 551.011 185.098C551.771 183.629 552.822 182.489 554.165 181.678C555.507 180.842 557.053 180.424 558.801 180.424C559.89 180.424 560.891 180.614 561.803 180.994C562.74 181.349 563.513 181.855 564.121 182.514C564.754 183.173 565.159 183.933 565.337 184.794V195.51C565.159 196.371 564.754 197.131 564.121 197.79C563.513 198.449 562.74 198.968 561.803 199.348C560.891 199.703 559.89 199.88 558.801 199.88ZM560.473 193.344C561.41 193.344 562.157 193.053 562.715 192.47C563.297 191.862 563.589 191.089 563.589 190.152C563.589 189.519 563.462 188.974 563.209 188.518C562.955 188.037 562.588 187.657 562.107 187.378C561.651 187.099 561.119 186.96 560.511 186.96C559.903 186.96 559.358 187.099 558.877 187.378C558.421 187.657 558.053 188.037 557.775 188.518C557.496 188.999 557.357 189.544 557.357 190.152C557.357 190.76 557.483 191.305 557.737 191.786C558.015 192.267 558.395 192.647 558.877 192.926C559.358 193.205 559.89 193.344 560.473 193.344ZM563.361 199.5V194.484L564.387 189.924L563.361 185.402V180.804H570.619V199.5H563.361ZM574.204 199.5V180.804H581.652V199.5H574.204ZM581.652 189.392L578.194 186.314C579.157 184.287 580.271 182.805 581.538 181.868C582.83 180.905 584.439 180.424 586.364 180.424C587.225 180.424 587.96 180.525 588.568 180.728C589.201 180.931 589.708 181.222 590.088 181.602L585.908 187.53C585.731 187.327 585.465 187.163 585.11 187.036C584.781 186.884 584.388 186.808 583.932 186.808C583.172 186.808 582.602 187.036 582.222 187.492C581.842 187.923 581.652 188.556 581.652 189.392ZM602.76 199.5V189.012C602.76 188.277 602.545 187.72 602.114 187.34C601.709 186.935 601.189 186.732 600.556 186.732C600.125 186.732 599.733 186.821 599.378 186.998C599.049 187.175 598.783 187.441 598.58 187.796C598.403 188.125 598.314 188.531 598.314 189.012L595.426 187.72C595.426 186.2 595.755 184.895 596.414 183.806C597.098 182.717 598.023 181.881 599.188 181.298C600.379 180.715 601.721 180.424 603.216 180.424C604.559 180.424 605.749 180.728 606.788 181.336C607.852 181.919 608.688 182.729 609.296 183.768C609.904 184.781 610.208 185.959 610.208 187.302V199.5H602.76ZM590.866 199.5V180.804H598.314V199.5H590.866ZM623.119 199.956C620.941 199.956 619.028 199.551 617.381 198.74C615.735 197.904 614.443 196.751 613.505 195.282C612.593 193.787 612.137 192.077 612.137 190.152C612.137 188.252 612.581 186.567 613.467 185.098C614.379 183.629 615.621 182.476 617.191 181.64C618.762 180.779 620.535 180.348 622.511 180.348C624.462 180.348 626.185 180.753 627.679 181.564C629.174 182.349 630.339 183.451 631.175 184.87C632.037 186.289 632.467 187.91 632.467 189.734C632.467 190.114 632.442 190.519 632.391 190.95C632.366 191.355 632.29 191.837 632.163 192.394L615.291 192.508V187.948L629.389 187.834L625.931 189.848C625.931 188.835 625.805 188.011 625.551 187.378C625.323 186.719 624.969 186.225 624.487 185.896C624.006 185.567 623.398 185.402 622.663 185.402C621.903 185.402 621.245 185.592 620.687 185.972C620.13 186.352 619.699 186.897 619.395 187.606C619.117 188.315 618.977 189.177 618.977 190.19C618.977 191.229 619.129 192.103 619.433 192.812C619.763 193.496 620.231 194.015 620.839 194.37C621.447 194.725 622.207 194.902 623.119 194.902C624.006 194.902 624.779 194.763 625.437 194.484C626.121 194.18 626.742 193.711 627.299 193.078L631.023 196.764C630.086 197.828 628.959 198.626 627.641 199.158C626.324 199.69 624.817 199.956 623.119 199.956ZM634.692 199.5V180.804H642.14V199.5H634.692ZM642.14 189.392L638.682 186.314C639.645 184.287 640.76 182.805 642.026 181.868C643.318 180.905 644.927 180.424 646.852 180.424C647.714 180.424 648.448 180.525 649.056 180.728C649.69 180.931 650.196 181.222 650.576 181.602L646.396 187.53C646.219 187.327 645.953 187.163 645.598 187.036C645.269 186.884 644.876 186.808 644.42 186.808C643.66 186.808 643.09 187.036 642.71 187.492C642.33 187.923 642.14 188.556 642.14 189.392Z" fill="#FEFAE0"/>
</g>
<g filter="url(#filter2_d_563_10239)">
<rect width="314" height="85" transform="translate(0 143)" fill="#242424"/>
<path d="M80.728 199.5L91.026 172.444H98.778L108.962 199.5H101.058L93.496 176.51H96.232L88.48 199.5H80.728ZM87.416 194.94V189.012H102.54V194.94H87.416ZM122.866 199.5V189.012C122.866 188.277 122.65 187.72 122.22 187.34C121.814 186.935 121.295 186.732 120.662 186.732C120.231 186.732 119.838 186.821 119.484 186.998C119.154 187.175 118.888 187.441 118.686 187.796C118.508 188.125 118.42 188.531 118.42 189.012L115.532 187.72C115.532 186.2 115.861 184.895 116.52 183.806C117.204 182.717 118.128 181.881 119.294 181.298C120.484 180.715 121.827 180.424 123.322 180.424C124.664 180.424 125.855 180.728 126.894 181.336C127.958 181.919 128.794 182.729 129.402 183.768C130.01 184.781 130.314 185.959 130.314 187.302V199.5H122.866ZM110.972 199.5V180.804H118.42V199.5H110.972ZM141.287 199.88C139.539 199.88 137.994 199.462 136.651 198.626C135.308 197.79 134.257 196.65 133.497 195.206C132.737 193.737 132.357 192.052 132.357 190.152C132.357 188.252 132.737 186.567 133.497 185.098C134.257 183.629 135.308 182.489 136.651 181.678C137.994 180.842 139.539 180.424 141.287 180.424C142.376 180.424 143.377 180.614 144.289 180.994C145.226 181.349 145.999 181.855 146.607 182.514C147.24 183.173 147.646 183.933 147.823 184.794V195.51C147.646 196.371 147.24 197.131 146.607 197.79C145.999 198.449 145.226 198.968 144.289 199.348C143.377 199.703 142.376 199.88 141.287 199.88ZM142.959 193.344C143.896 193.344 144.644 193.053 145.201 192.47C145.784 191.862 146.075 191.089 146.075 190.152C146.075 189.519 145.948 188.974 145.695 188.518C145.442 188.037 145.074 187.657 144.593 187.378C144.137 187.099 143.605 186.96 142.997 186.96C142.389 186.96 141.844 187.099 141.363 187.378C140.907 187.657 140.54 188.037 140.261 188.518C139.982 188.999 139.843 189.544 139.843 190.152C139.843 190.76 139.97 191.305 140.223 191.786C140.502 192.267 140.882 192.647 141.363 192.926C141.844 193.205 142.376 193.344 142.959 193.344ZM145.847 199.5V194.484L146.873 189.924L145.847 185.402V180.804H153.105V199.5H145.847ZM156.69 199.5V171.684H164.138V199.5H156.69ZM173.184 199.5L165.812 180.804H173.716L178.048 196.726H174.78L179.036 180.804H186.902L179.568 199.462L173.184 199.5ZM169.118 207.48L174.552 195.206L179.568 199.462L176.414 207.48H169.118ZM190.74 199.5V173.128H198.188V199.5H190.74ZM186.75 186.884V180.804H202.178V186.884H186.75ZM204.189 199.5V180.804H211.637V199.5H204.189ZM207.913 179.056C206.824 179.056 205.912 178.689 205.177 177.954C204.468 177.194 204.113 176.269 204.113 175.18C204.113 174.091 204.468 173.179 205.177 172.444C205.912 171.684 206.824 171.304 207.913 171.304C209.028 171.304 209.94 171.684 210.649 172.444C211.359 173.179 211.713 174.091 211.713 175.18C211.713 176.269 211.359 177.194 210.649 177.954C209.94 178.689 209.028 179.056 207.913 179.056ZM224.637 199.956C222.61 199.956 220.786 199.538 219.165 198.702C217.543 197.866 216.264 196.713 215.327 195.244C214.389 193.749 213.921 192.065 213.921 190.19C213.921 188.29 214.389 186.605 215.327 185.136C216.289 183.641 217.581 182.476 219.203 181.64C220.849 180.779 222.699 180.348 224.751 180.348C226.22 180.348 227.537 180.576 228.703 181.032C229.893 181.488 230.995 182.185 232.009 183.122L227.335 187.796C227.005 187.492 226.638 187.264 226.233 187.112C225.827 186.96 225.333 186.884 224.751 186.884C224.143 186.884 223.585 187.023 223.079 187.302C222.597 187.555 222.205 187.923 221.901 188.404C221.597 188.885 221.445 189.455 221.445 190.114C221.445 190.773 221.597 191.355 221.901 191.862C222.205 192.343 222.61 192.723 223.117 193.002C223.623 193.281 224.168 193.42 224.751 193.42C225.409 193.42 225.954 193.319 226.385 193.116C226.815 192.913 227.195 192.635 227.525 192.28L232.199 196.954C231.109 197.967 229.969 198.727 228.779 199.234C227.588 199.715 226.207 199.956 224.637 199.956Z" fill="#FEFAE0"/>
</g>
<g filter="url(#filter3_d_563_10239)">
<rect width="314" height="85" transform="translate(371)" fill="#242424"/>
<path d="M448.118 57.032C445.99 57.032 444.027 56.6773 442.228 55.968C440.455 55.2587 438.897 54.2707 437.554 53.004C436.237 51.7373 435.211 50.2427 434.476 48.52C433.741 46.7973 433.374 44.9353 433.374 42.934C433.374 40.9073 433.729 39.0453 434.438 37.348C435.173 35.6507 436.199 34.1687 437.516 32.902C438.833 31.6353 440.379 30.66 442.152 29.976C443.951 29.2667 445.914 28.912 448.042 28.912C450.17 28.912 452.121 29.2667 453.894 29.976C455.693 30.66 457.251 31.6353 458.568 32.902C459.885 34.1687 460.899 35.6633 461.608 37.386C462.343 39.0833 462.71 40.9453 462.71 42.972C462.71 44.9733 462.343 46.8353 461.608 48.558C460.899 50.2553 459.885 51.75 458.568 53.042C457.251 54.3087 455.705 55.2967 453.932 56.006C452.159 56.69 450.221 57.032 448.118 57.032ZM448.042 50.344C449.461 50.344 450.689 50.04 451.728 49.432C452.767 48.824 453.565 47.9627 454.122 46.848C454.679 45.7333 454.958 44.4287 454.958 42.934C454.958 41.8193 454.793 40.8187 454.464 39.932C454.16 39.02 453.704 38.2473 453.096 37.614C452.488 36.9553 451.753 36.4613 450.892 36.132C450.056 35.7773 449.106 35.6 448.042 35.6C446.623 35.6 445.395 35.904 444.356 36.512C443.317 37.0947 442.519 37.9433 441.962 39.058C441.405 40.1473 441.126 41.4393 441.126 42.934C441.126 44.074 441.278 45.1 441.582 46.012C441.911 46.924 442.38 47.7093 442.988 48.368C443.596 49.0013 444.318 49.4953 445.154 49.85C446.015 50.1793 446.978 50.344 448.042 50.344ZM476.898 56.88C475.783 56.88 474.732 56.7027 473.744 56.348C472.756 55.968 471.92 55.4487 471.236 54.79C470.552 54.1313 470.108 53.3713 469.906 52.51V42.174C470.108 41.3127 470.552 40.5273 471.236 39.818C471.92 39.0833 472.756 38.5007 473.744 38.07C474.732 37.6393 475.783 37.424 476.898 37.424C478.747 37.424 480.356 37.842 481.724 38.678C483.117 39.4887 484.194 40.6287 484.954 42.098C485.739 43.5673 486.132 45.252 486.132 47.152C486.132 49.052 485.739 50.7367 484.954 52.206C484.194 53.65 483.117 54.79 481.724 55.626C480.356 56.462 478.747 56.88 476.898 56.88ZM475.492 50.344C476.1 50.344 476.644 50.2047 477.126 49.926C477.607 49.6473 477.974 49.2673 478.228 48.786C478.506 48.3047 478.646 47.76 478.646 47.152C478.646 46.5187 478.506 45.974 478.228 45.518C477.974 45.0367 477.607 44.6567 477.126 44.378C476.67 44.0993 476.138 43.96 475.53 43.96C474.922 43.96 474.377 44.0993 473.896 44.378C473.44 44.6313 473.072 44.9987 472.794 45.48C472.54 45.9613 472.414 46.5187 472.414 47.152C472.414 47.76 472.54 48.3047 472.794 48.786C473.047 49.2673 473.402 49.6473 473.858 49.926C474.339 50.2047 474.884 50.344 475.492 50.344ZM465.384 64.48V37.804H472.832V42.402L471.616 46.924L472.642 51.484V64.48H465.384ZM490.824 56.5V30.128H498.272V56.5H490.824ZM486.834 43.884V37.804H502.262V43.884H486.834ZM504.273 56.5V37.804H511.721V56.5H504.273ZM507.997 36.056C506.908 36.056 505.996 35.6887 505.261 34.954C504.552 34.194 504.197 33.2693 504.197 32.18C504.197 31.0907 504.552 30.1787 505.261 29.444C505.996 28.684 506.908 28.304 507.997 28.304C509.112 28.304 510.024 28.684 510.733 29.444C511.443 30.1787 511.797 31.0907 511.797 32.18C511.797 33.2693 511.443 34.194 510.733 34.954C510.024 35.6887 509.112 36.056 507.997 36.056ZM515.259 56.5V37.804H522.707V56.5H515.259ZM526.773 56.5V45.784C526.773 45.1507 526.583 44.6567 526.203 44.302C525.823 43.922 525.341 43.732 524.759 43.732C524.353 43.732 523.986 43.8207 523.657 43.998C523.353 44.15 523.112 44.378 522.935 44.682C522.783 44.986 522.707 45.3533 522.707 45.784L519.819 44.72C519.819 43.2 520.148 41.8953 520.807 40.806C521.491 39.7167 522.403 38.8807 523.543 38.298C524.683 37.7153 525.975 37.424 527.419 37.424C528.685 37.424 529.825 37.728 530.839 38.336C531.877 38.944 532.701 39.7927 533.309 40.882C533.917 41.946 534.221 43.2127 534.221 44.682V56.5H526.773ZM538.287 56.5V45.784C538.287 45.1507 538.097 44.6567 537.717 44.302C537.337 43.922 536.855 43.732 536.273 43.732C535.867 43.732 535.5 43.8207 535.171 43.998C534.867 44.15 534.626 44.378 534.449 44.682C534.297 44.986 534.221 45.3533 534.221 45.784L529.851 45.822C529.851 44.074 530.193 42.5793 530.877 41.338C531.586 40.0713 532.561 39.1087 533.803 38.45C535.044 37.766 536.463 37.424 538.059 37.424C539.553 37.424 540.871 37.7407 542.011 38.374C543.176 39.0073 544.088 39.9193 544.747 41.11C545.405 42.3007 545.735 43.732 545.735 45.404V56.5H538.287ZM548.842 56.5V37.804H556.29V56.5H548.842ZM552.566 36.056C551.476 36.056 550.564 35.6887 549.83 34.954C549.12 34.194 548.766 33.2693 548.766 32.18C548.766 31.0907 549.12 30.1787 549.83 29.444C550.564 28.684 551.476 28.304 552.566 28.304C553.68 28.304 554.592 28.684 555.302 29.444C556.011 30.1787 556.366 31.0907 556.366 32.18C556.366 33.2693 556.011 34.194 555.302 34.954C554.592 35.6887 553.68 36.056 552.566 36.056ZM567.275 57.07C566.11 57.07 564.944 56.918 563.779 56.614C562.614 56.31 561.524 55.892 560.511 55.36C559.523 54.828 558.687 54.22 558.003 53.536L561.917 49.508C562.525 50.116 563.247 50.5973 564.083 50.952C564.944 51.3067 565.844 51.484 566.781 51.484C567.212 51.484 567.541 51.4333 567.769 51.332C568.022 51.2053 568.149 51.0407 568.149 50.838C568.149 50.4833 567.934 50.2173 567.503 50.04C567.098 49.8627 566.566 49.698 565.907 49.546C565.274 49.394 564.59 49.204 563.855 48.976C563.146 48.7227 562.462 48.3933 561.803 47.988C561.144 47.5573 560.612 46.9747 560.207 46.24C559.802 45.48 559.599 44.5173 559.599 43.352C559.599 42.1613 559.928 41.11 560.587 40.198C561.271 39.2607 562.221 38.526 563.437 37.994C564.678 37.4367 566.11 37.158 567.731 37.158C569.378 37.158 570.974 37.4367 572.519 37.994C574.064 38.5513 575.293 39.3873 576.205 40.502L572.253 44.53C571.62 43.8207 570.923 43.352 570.163 43.124C569.403 42.8707 568.77 42.744 568.263 42.744C567.782 42.744 567.44 42.82 567.237 42.972C567.06 43.0987 566.971 43.2633 566.971 43.466C566.971 43.7447 567.174 43.9727 567.579 44.15C567.984 44.3273 568.504 44.492 569.137 44.644C569.796 44.796 570.48 44.9987 571.189 45.252C571.898 45.5053 572.57 45.86 573.203 46.316C573.862 46.772 574.394 47.38 574.799 48.14C575.204 48.8747 575.407 49.8373 575.407 51.028C575.407 52.8773 574.672 54.3467 573.203 55.436C571.734 56.5253 569.758 57.07 567.275 57.07ZM580.74 56.5V30.128H588.188V56.5H580.74ZM576.75 43.884V37.804H592.178V43.884H576.75ZM594.189 56.5V37.804H601.637V56.5H594.189ZM597.913 36.056C596.824 36.056 595.912 35.6887 595.177 34.954C594.468 34.194 594.113 33.2693 594.113 32.18C594.113 31.0907 594.468 30.1787 595.177 29.444C595.912 28.684 596.824 28.304 597.913 28.304C599.028 28.304 599.94 28.684 600.649 29.444C601.359 30.1787 601.713 31.0907 601.713 32.18C601.713 33.2693 601.359 34.194 600.649 34.954C599.94 35.6887 599.028 36.056 597.913 36.056ZM614.637 56.956C612.61 56.956 610.786 56.538 609.165 55.702C607.543 54.866 606.264 53.7133 605.327 52.244C604.389 50.7493 603.921 49.0647 603.921 47.19C603.921 45.29 604.389 43.6053 605.327 42.136C606.289 40.6413 607.581 39.476 609.203 38.64C610.849 37.7787 612.699 37.348 614.751 37.348C616.22 37.348 617.537 37.576 618.703 38.032C619.893 38.488 620.995 39.1847 622.009 40.122L617.335 44.796C617.005 44.492 616.638 44.264 616.233 44.112C615.827 43.96 615.333 43.884 614.751 43.884C614.143 43.884 613.585 44.0233 613.079 44.302C612.597 44.5553 612.205 44.9227 611.901 45.404C611.597 45.8853 611.445 46.4553 611.445 47.114C611.445 47.7727 611.597 48.3553 611.901 48.862C612.205 49.3433 612.61 49.7233 613.117 50.002C613.623 50.2807 614.168 50.42 614.751 50.42C615.409 50.42 615.954 50.3187 616.385 50.116C616.815 49.9133 617.195 49.6347 617.525 49.28L622.199 53.954C621.109 54.9673 619.969 55.7273 618.779 56.234C617.588 56.7153 616.207 56.956 614.637 56.956Z" fill="#FEFAE0"/>
</g>
<g filter="url(#filter4_d_563_10239)">
<rect width="314" height="85" transform="translate(0 286)" fill="#242424"/>
<path d="M94.118 342.956C92.0407 342.956 90.1027 342.614 88.304 341.93C86.5307 341.221 84.9727 340.233 83.63 338.966C82.2873 337.699 81.236 336.217 80.476 334.52C79.7413 332.797 79.374 330.935 79.374 328.934C79.374 326.907 79.7413 325.045 80.476 323.348C81.236 321.651 82.2747 320.181 83.592 318.94C84.9347 317.699 86.4927 316.736 88.266 316.052C90.0393 315.343 91.9647 314.988 94.042 314.988C96.1447 314.988 98.07 315.317 99.818 315.976C101.566 316.635 103.086 317.547 104.378 318.712L99.324 323.804C98.716 323.145 97.9687 322.626 97.082 322.246C96.2207 321.866 95.2073 321.676 94.042 321.676C93.0287 321.676 92.0913 321.841 91.23 322.17C90.394 322.499 89.672 322.981 89.064 323.614C88.456 324.247 87.9747 325.02 87.62 325.932C87.2907 326.819 87.126 327.819 87.126 328.934C87.126 330.074 87.2907 331.1 87.62 332.012C87.9747 332.899 88.456 333.659 89.064 334.292C89.672 334.925 90.394 335.419 91.23 335.774C92.0913 336.103 93.0287 336.268 94.042 336.268C95.182 336.268 96.1953 336.091 97.082 335.736C97.994 335.381 98.7793 334.862 99.438 334.178L104.53 339.27C103.187 340.435 101.68 341.347 100.008 342.006C98.336 342.639 96.3727 342.956 94.118 342.956ZM106.708 342.5V323.804H114.156V342.5H106.708ZM114.156 332.392L110.698 329.314C111.661 327.287 112.775 325.805 114.042 324.868C115.334 323.905 116.943 323.424 118.868 323.424C119.729 323.424 120.464 323.525 121.072 323.728C121.705 323.931 122.212 324.222 122.592 324.602L118.412 330.53C118.235 330.327 117.969 330.163 117.614 330.036C117.285 329.884 116.892 329.808 116.436 329.808C115.676 329.808 115.106 330.036 114.726 330.492C114.346 330.923 114.156 331.556 114.156 332.392ZM132.838 342.956C130.66 342.956 128.747 342.551 127.1 341.74C125.454 340.904 124.162 339.751 123.224 338.282C122.312 336.787 121.856 335.077 121.856 333.152C121.856 331.252 122.3 329.567 123.186 328.098C124.098 326.629 125.34 325.476 126.91 324.64C128.481 323.779 130.254 323.348 132.23 323.348C134.181 323.348 135.904 323.753 137.398 324.564C138.893 325.349 140.058 326.451 140.894 327.87C141.756 329.289 142.186 330.91 142.186 332.734C142.186 333.114 142.161 333.519 142.11 333.95C142.085 334.355 142.009 334.837 141.882 335.394L125.01 335.508V330.948L139.108 330.834L135.65 332.848C135.65 331.835 135.524 331.011 135.27 330.378C135.042 329.719 134.688 329.225 134.206 328.896C133.725 328.567 133.117 328.402 132.382 328.402C131.622 328.402 130.964 328.592 130.406 328.972C129.849 329.352 129.418 329.897 129.114 330.606C128.836 331.315 128.696 332.177 128.696 333.19C128.696 334.229 128.848 335.103 129.152 335.812C129.482 336.496 129.95 337.015 130.558 337.37C131.166 337.725 131.926 337.902 132.838 337.902C133.725 337.902 134.498 337.763 135.156 337.484C135.84 337.18 136.461 336.711 137.018 336.078L140.742 339.764C139.805 340.828 138.678 341.626 137.36 342.158C136.043 342.69 134.536 342.956 132.838 342.956ZM152.201 342.88C150.453 342.88 148.908 342.462 147.565 341.626C146.222 340.79 145.171 339.65 144.411 338.206C143.651 336.737 143.271 335.052 143.271 333.152C143.271 331.252 143.651 329.567 144.411 328.098C145.171 326.629 146.222 325.489 147.565 324.678C148.908 323.842 150.453 323.424 152.201 323.424C153.29 323.424 154.291 323.614 155.203 323.994C156.14 324.349 156.913 324.855 157.521 325.514C158.154 326.173 158.56 326.933 158.737 327.794V338.51C158.56 339.371 158.154 340.131 157.521 340.79C156.913 341.449 156.14 341.968 155.203 342.348C154.291 342.703 153.29 342.88 152.201 342.88ZM153.873 336.344C154.81 336.344 155.558 336.053 156.115 335.47C156.698 334.862 156.989 334.089 156.989 333.152C156.989 332.519 156.862 331.974 156.609 331.518C156.356 331.037 155.988 330.657 155.507 330.378C155.051 330.099 154.519 329.96 153.911 329.96C153.303 329.96 152.758 330.099 152.277 330.378C151.821 330.657 151.454 331.037 151.175 331.518C150.896 331.999 150.757 332.544 150.757 333.152C150.757 333.76 150.884 334.305 151.137 334.786C151.416 335.267 151.796 335.647 152.277 335.926C152.758 336.205 153.29 336.344 153.873 336.344ZM156.761 342.5V337.484L157.787 332.924L156.761 328.402V323.804H164.019V342.5H156.761ZM170.074 342.5V316.128H177.522V342.5H170.074ZM166.084 329.884V323.804H181.512V329.884H166.084ZM183.523 342.5V323.804H190.971V342.5H183.523ZM187.247 322.056C186.158 322.056 185.246 321.689 184.511 320.954C183.802 320.194 183.447 319.269 183.447 318.18C183.447 317.091 183.802 316.179 184.511 315.444C185.246 314.684 186.158 314.304 187.247 314.304C188.362 314.304 189.274 314.684 189.983 315.444C190.693 316.179 191.047 317.091 191.047 318.18C191.047 319.269 190.693 320.194 189.983 320.954C189.274 321.689 188.362 322.056 187.247 322.056ZM199.943 342.5L192.609 323.804H200.513L204.807 339.726H202.109L206.365 323.804H214.231L206.897 342.462L199.943 342.5ZM225.241 342.956C223.062 342.956 221.149 342.551 219.503 341.74C217.856 340.904 216.564 339.751 215.627 338.282C214.715 336.787 214.259 335.077 214.259 333.152C214.259 331.252 214.702 329.567 215.589 328.098C216.501 326.629 217.742 325.476 219.313 324.64C220.883 323.779 222.657 323.348 224.633 323.348C226.583 323.348 228.306 323.753 229.801 324.564C231.295 325.349 232.461 326.451 233.297 327.87C234.158 329.289 234.589 330.91 234.589 332.734C234.589 333.114 234.563 333.519 234.513 333.95C234.487 334.355 234.411 334.837 234.285 335.394L217.413 335.508V330.948L231.511 330.834L228.053 332.848C228.053 331.835 227.926 331.011 227.673 330.378C227.445 329.719 227.09 329.225 226.609 328.896C226.127 328.567 225.519 328.402 224.785 328.402C224.025 328.402 223.366 328.592 222.809 328.972C222.251 329.352 221.821 329.897 221.517 330.606C221.238 331.315 221.099 332.177 221.099 333.19C221.099 334.229 221.251 335.103 221.555 335.812C221.884 336.496 222.353 337.015 222.961 337.37C223.569 337.725 224.329 337.902 225.241 337.902C226.127 337.902 226.9 337.763 227.559 337.484C228.243 337.18 228.863 336.711 229.421 336.078L233.145 339.764C232.207 340.828 231.08 341.626 229.763 342.158C228.445 342.69 226.938 342.956 225.241 342.956Z" fill="#FEFAE0"/>
</g>
<g filter="url(#filter5_d_563_10239)">
<rect width="314" height="85" transform="translate(371 286)" fill="#242424"/>
<path d="M399.334 342.5V336.04H405.642C407.061 336.04 408.289 335.787 409.328 335.28C410.367 334.748 411.165 333.95 411.722 332.886C412.279 331.822 412.558 330.505 412.558 328.934C412.558 327.363 412.267 326.059 411.684 325.02C411.127 323.981 410.329 323.209 409.29 322.702C408.277 322.17 407.061 321.904 405.642 321.904H398.954V315.444H405.642C407.77 315.444 409.721 315.761 411.494 316.394C413.293 317.027 414.851 317.939 416.168 319.13C417.485 320.321 418.499 321.752 419.208 323.424C419.943 325.071 420.31 326.92 420.31 328.972C420.31 331.024 419.943 332.886 419.208 334.558C418.499 336.205 417.485 337.623 416.168 338.814C414.851 340.005 413.305 340.917 411.532 341.55C409.759 342.183 407.821 342.5 405.718 342.5H399.334ZM394.242 342.5V315.444H401.842V342.5H394.242ZM432.682 342.956C430.503 342.956 428.591 342.551 426.944 341.74C425.297 340.904 424.005 339.751 423.068 338.282C422.156 336.787 421.7 335.077 421.7 333.152C421.7 331.252 422.143 329.567 423.03 328.098C423.942 326.629 425.183 325.476 426.754 324.64C428.325 323.779 430.098 323.348 432.074 323.348C434.025 323.348 435.747 323.753 437.242 324.564C438.737 325.349 439.902 326.451 440.738 327.87C441.599 329.289 442.03 330.91 442.03 332.734C442.03 333.114 442.005 333.519 441.954 333.95C441.929 334.355 441.853 334.837 441.726 335.394L424.854 335.508V330.948L438.952 330.834L435.494 332.848C435.494 331.835 435.367 331.011 435.114 330.378C434.886 329.719 434.531 329.225 434.05 328.896C433.569 328.567 432.961 328.402 432.226 328.402C431.466 328.402 430.807 328.592 430.25 328.972C429.693 329.352 429.262 329.897 428.958 330.606C428.679 331.315 428.54 332.177 428.54 333.19C428.54 334.229 428.692 335.103 428.996 335.812C429.325 336.496 429.794 337.015 430.402 337.37C431.01 337.725 431.77 337.902 432.682 337.902C433.569 337.902 434.341 337.763 435 337.484C435.684 337.18 436.305 336.711 436.862 336.078L440.586 339.764C439.649 340.828 438.521 341.626 437.204 342.158C435.887 342.69 434.379 342.956 432.682 342.956ZM446.391 342.5V316.128H453.839V342.5H446.391ZM442.401 329.884V323.804H457.829V329.884H442.401ZM467.445 342.88C465.697 342.88 464.152 342.462 462.809 341.626C461.466 340.79 460.415 339.65 459.655 338.206C458.895 336.737 458.515 335.052 458.515 333.152C458.515 331.252 458.895 329.567 459.655 328.098C460.415 326.629 461.466 325.489 462.809 324.678C464.152 323.842 465.697 323.424 467.445 323.424C468.534 323.424 469.535 323.614 470.447 323.994C471.384 324.349 472.157 324.855 472.765 325.514C473.398 326.173 473.804 326.933 473.981 327.794V338.51C473.804 339.371 473.398 340.131 472.765 340.79C472.157 341.449 471.384 341.968 470.447 342.348C469.535 342.703 468.534 342.88 467.445 342.88ZM469.117 336.344C470.054 336.344 470.802 336.053 471.359 335.47C471.942 334.862 472.233 334.089 472.233 333.152C472.233 332.519 472.106 331.974 471.853 331.518C471.6 331.037 471.232 330.657 470.751 330.378C470.295 330.099 469.763 329.96 469.155 329.96C468.547 329.96 468.002 330.099 467.521 330.378C467.065 330.657 466.698 331.037 466.419 331.518C466.14 331.999 466.001 332.544 466.001 333.152C466.001 333.76 466.128 334.305 466.381 334.786C466.66 335.267 467.04 335.647 467.521 335.926C468.002 336.205 468.534 336.344 469.117 336.344ZM472.005 342.5V337.484L473.031 332.924L472.005 328.402V323.804H479.263V342.5H472.005ZM482.811 342.5V323.804H490.259V342.5H482.811ZM486.535 322.056C485.445 322.056 484.533 321.689 483.799 320.954C483.089 320.194 482.735 319.269 482.735 318.18C482.735 317.091 483.089 316.179 483.799 315.444C484.533 314.684 485.445 314.304 486.535 314.304C487.649 314.304 488.561 314.684 489.271 315.444C489.98 316.179 490.335 317.091 490.335 318.18C490.335 319.269 489.98 320.194 489.271 320.954C488.561 321.689 487.649 322.056 486.535 322.056ZM493.796 342.5V314.684H501.244V342.5H493.796ZM521.069 342.956C519.017 342.956 517.181 342.538 515.559 341.702C513.963 340.841 512.697 339.663 511.759 338.168C510.847 336.673 510.391 334.989 510.391 333.114C510.391 331.239 510.847 329.567 511.759 328.098C512.671 326.629 513.925 325.476 515.521 324.64C517.143 323.779 518.979 323.348 521.031 323.348C523.083 323.348 524.907 323.779 526.503 324.64C528.099 325.476 529.353 326.629 530.265 328.098C531.203 329.567 531.671 331.239 531.671 333.114C531.671 334.989 531.215 336.673 530.303 338.168C529.391 339.663 528.137 340.841 526.541 341.702C524.945 342.538 523.121 342.956 521.069 342.956ZM521.031 336.42C521.665 336.42 522.209 336.293 522.665 336.04C523.147 335.761 523.514 335.381 523.767 334.9C524.021 334.393 524.147 333.811 524.147 333.152C524.147 332.493 524.008 331.923 523.729 331.442C523.476 330.935 523.121 330.555 522.665 330.302C522.209 330.023 521.665 329.884 521.031 329.884C520.423 329.884 519.879 330.023 519.397 330.302C518.941 330.581 518.574 330.973 518.295 331.48C518.042 331.961 517.915 332.531 517.915 333.19C517.915 333.823 518.042 334.393 518.295 334.9C518.574 335.381 518.941 335.761 519.397 336.04C519.879 336.293 520.423 336.42 521.031 336.42ZM533.985 342.5V323.804H541.433V342.5H533.985ZM541.433 332.392L537.975 329.314C538.938 327.287 540.053 325.805 541.319 324.868C542.611 323.905 544.22 323.424 546.145 323.424C547.007 323.424 547.741 323.525 548.349 323.728C548.983 323.931 549.489 324.222 549.869 324.602L545.689 330.53C545.512 330.327 545.246 330.163 544.891 330.036C544.562 329.884 544.169 329.808 543.713 329.808C542.953 329.808 542.383 330.036 542.003 330.492C541.623 330.923 541.433 331.556 541.433 332.392ZM550.832 342.5V323.804H558.28V342.5H550.832ZM554.556 322.056C553.467 322.056 552.555 321.689 551.82 320.954C551.111 320.194 550.756 319.269 550.756 318.18C550.756 317.091 551.111 316.179 551.82 315.444C552.555 314.684 553.467 314.304 554.556 314.304C555.671 314.304 556.583 314.684 557.292 315.444C558.001 316.179 558.356 317.091 558.356 318.18C558.356 319.269 558.001 320.194 557.292 320.954C556.583 321.689 555.671 322.056 554.556 322.056ZM571.545 342.956C569.367 342.956 567.454 342.551 565.807 341.74C564.161 340.904 562.869 339.751 561.931 338.282C561.019 336.787 560.563 335.077 560.563 333.152C560.563 331.252 561.007 329.567 561.893 328.098C562.805 326.629 564.047 325.476 565.617 324.64C567.188 323.779 568.961 323.348 570.937 323.348C572.888 323.348 574.611 323.753 576.105 324.564C577.6 325.349 578.765 326.451 579.601 327.87C580.463 329.289 580.893 330.91 580.893 332.734C580.893 333.114 580.868 333.519 580.817 333.95C580.792 334.355 580.716 334.837 580.589 335.394L563.717 335.508V330.948L577.815 330.834L574.357 332.848C574.357 331.835 574.231 331.011 573.977 330.378C573.749 329.719 573.395 329.225 572.913 328.896C572.432 328.567 571.824 328.402 571.089 328.402C570.329 328.402 569.671 328.592 569.113 328.972C568.556 329.352 568.125 329.897 567.821 330.606C567.543 331.315 567.403 332.177 567.403 333.19C567.403 334.229 567.555 335.103 567.859 335.812C568.189 336.496 568.657 337.015 569.265 337.37C569.873 337.725 570.633 337.902 571.545 337.902C572.432 337.902 573.205 337.763 573.863 337.484C574.547 337.18 575.168 336.711 575.725 336.078L579.449 339.764C578.512 340.828 577.385 341.626 576.067 342.158C574.75 342.69 573.243 342.956 571.545 342.956ZM595.012 342.5V332.012C595.012 331.277 594.797 330.72 594.366 330.34C593.961 329.935 593.441 329.732 592.808 329.732C592.377 329.732 591.985 329.821 591.63 329.998C591.301 330.175 591.035 330.441 590.832 330.796C590.655 331.125 590.566 331.531 590.566 332.012L587.678 330.72C587.678 329.2 588.007 327.895 588.666 326.806C589.35 325.717 590.275 324.881 591.44 324.298C592.631 323.715 593.973 323.424 595.468 323.424C596.811 323.424 598.001 323.728 599.04 324.336C600.104 324.919 600.94 325.729 601.548 326.768C602.156 327.781 602.46 328.959 602.46 330.302V342.5H595.012ZM583.118 342.5V323.804H590.566V342.5H583.118ZM607.891 342.5V316.128H615.339V342.5H607.891ZM603.901 329.884V323.804H619.329V329.884H603.901ZM630.883 342.956C628.704 342.956 626.792 342.551 625.145 341.74C623.498 340.904 622.206 339.751 621.269 338.282C620.357 336.787 619.901 335.077 619.901 333.152C619.901 331.252 620.344 329.567 621.231 328.098C622.143 326.629 623.384 325.476 624.955 324.64C626.526 323.779 628.299 323.348 630.275 323.348C632.226 323.348 633.948 323.753 635.443 324.564C636.938 325.349 638.103 326.451 638.939 327.87C639.8 329.289 640.231 330.91 640.231 332.734C640.231 333.114 640.206 333.519 640.155 333.95C640.13 334.355 640.054 334.837 639.927 335.394L623.055 335.508V330.948L637.153 330.834L633.695 332.848C633.695 331.835 633.568 331.011 633.315 330.378C633.087 329.719 632.732 329.225 632.251 328.896C631.77 328.567 631.162 328.402 630.427 328.402C629.667 328.402 629.008 328.592 628.451 328.972C627.894 329.352 627.463 329.897 627.159 330.606C626.88 331.315 626.741 332.177 626.741 333.19C626.741 334.229 626.893 335.103 627.197 335.812C627.526 336.496 627.995 337.015 628.603 337.37C629.211 337.725 629.971 337.902 630.883 337.902C631.77 337.902 632.542 337.763 633.201 337.484C633.885 337.18 634.506 336.711 635.063 336.078L638.787 339.764C637.85 340.828 636.722 341.626 635.405 342.158C634.088 342.69 632.58 342.956 630.883 342.956ZM650.55 342.88C648.701 342.88 647.079 342.462 645.686 341.626C644.318 340.79 643.241 339.65 642.456 338.206C641.696 336.737 641.316 335.052 641.316 333.152C641.316 331.252 641.696 329.567 642.456 328.098C643.241 326.629 644.318 325.489 645.686 324.678C647.079 323.842 648.701 323.424 650.55 323.424C651.665 323.424 652.716 323.614 653.704 323.994C654.692 324.349 655.528 324.855 656.212 325.514C656.921 326.173 657.365 326.933 657.542 327.794V338.13C657.365 338.991 656.921 339.789 656.212 340.524C655.528 341.233 654.692 341.803 653.704 342.234C652.716 342.665 651.665 342.88 650.55 342.88ZM651.918 336.344C652.551 336.344 653.096 336.217 653.552 335.964C654.008 335.685 654.363 335.305 654.616 334.824C654.895 334.343 655.034 333.785 655.034 333.152C655.034 332.519 654.907 331.974 654.654 331.518C654.401 331.037 654.033 330.657 653.552 330.378C653.096 330.099 652.564 329.96 651.956 329.96C651.348 329.96 650.803 330.099 650.322 330.378C649.866 330.657 649.499 331.037 649.22 331.518C648.941 331.999 648.802 332.544 648.802 333.152C648.802 333.76 648.929 334.305 649.182 334.786C649.461 335.267 649.841 335.647 650.322 335.926C650.803 336.205 651.335 336.344 651.918 336.344ZM662.064 342.5H654.806V337.484L655.832 332.924L654.616 328.402V314.684H662.064V342.5Z" fill="#FEFAE0"/>
</g>
<defs>
<filter id="filter0_d_563_10239" x="0" y="0" width="348" height="110" filterUnits="userSpaceOnUse" color-interpolation-filters="sRGB">
<feFlood flood-opacity="0" result="BackgroundImageFix"/>
<feColorMatrix in="SourceAlpha" type="matrix" values="0 0 0 0 0 0 0 0 0 0 0 0 0 0 0 0 0 0 127 0" result="hardAlpha"/>
<feOffset dx="30" dy="21"/>
<feGaussianBlur stdDeviation="2"/>
<feComposite in2="hardAlpha" operator="out"/>
<feColorMatrix type="matrix" values="0 0 0 0 0 0 0 0 0 0 0 0 0 0 0 0 0 0 0.25 0"/>
<feBlend mode="normal" in2="BackgroundImageFix" result="effect1_dropShadow_563_10239"/>
<feBlend mode="normal" in="SourceGraphic" in2="effect1_dropShadow_563_10239" result="shape"/>
</filter>
<filter id="filter1_d_563_10239" x="371" y="143" width="348" height="110" filterUnits="userSpaceOnUse" color-interpolation-filters="sRGB">
<feFlood flood-opacity="0" result="BackgroundImageFix"/>
<feColorMatrix in="SourceAlpha" type="matrix" values="0 0 0 0 0 0 0 0 0 0 0 0 0 0 0 0 0 0 127 0" result="hardAlpha"/>
<feOffset dx="30" dy="21"/>
<feGaussianBlur stdDeviation="2"/>
<feComposite in2="hardAlpha" operator="out"/>
<feColorMatrix type="matrix" values="0 0 0 0 0 0 0 0 0 0 0 0 0 0 0 0 0 0 0.25 0"/>
<feBlend mode="normal" in2="BackgroundImageFix" result="effect1_dropShadow_563_10239"/>
<feBlend mode="normal" in="SourceGraphic" in2="effect1_dropShadow_563_10239" result="shape"/>
</filter>
<filter id="filter2_d_563_10239" x="0" y="143" width="348" height="110" filterUnits="userSpaceOnUse" color-interpolation-filters="sRGB">
<feFlood flood-opacity="0" result="BackgroundImageFix"/>
<feColorMatrix in="SourceAlpha" type="matrix" values="0 0 0 0 0 0 0 0 0 0 0 0 0 0 0 0 0 0 127 0" result="hardAlpha"/>
<feOffset dx="30" dy="21"/>
<feGaussianBlur stdDeviation="2"/>
<feComposite in2="hardAlpha" operator="out"/>
<feColorMatrix type="matrix" values="0 0 0 0 0 0 0 0 0 0 0 0 0 0 0 0 0 0 0.25 0"/>
<feBlend mode="normal" in2="BackgroundImageFix" result="effect1_dropShadow_563_10239"/>
<feBlend mode="normal" in="SourceGraphic" in2="effect1_dropShadow_563_10239" result="shape"/>
</filter>
<filter id="filter3_d_563_10239" x="371" y="0" width="348" height="110" filterUnits="userSpaceOnUse" color-interpolation-filters="sRGB">
<feFlood flood-opacity="0" result="BackgroundImageFix"/>
<feColorMatrix in="SourceAlpha" type="matrix" values="0 0 0 0 0 0 0 0 0 0 0 0 0 0 0 0 0 0 127 0" result="hardAlpha"/>
<feOffset dx="30" dy="21"/>
<feGaussianBlur stdDeviation="2"/>
<feComposite in2="hardAlpha" operator="out"/>
<feColorMatrix type="matrix" values="0 0 0 0 0 0 0 0 0 0 0 0 0 0 0 0 0 0 0.25 0"/>
<feBlend mode="normal" in2="BackgroundImageFix" result="effect1_dropShadow_563_10239"/>
<feBlend mode="normal" in="SourceGraphic" in2="effect1_dropShadow_563_10239" result="shape"/>
</filter>
<filter id="filter4_d_563_10239" x="0" y="286" width="348" height="110" filterUnits="userSpaceOnUse" color-interpolation-filters="sRGB">
<feFlood flood-opacity="0" result="BackgroundImageFix"/>
<feColorMatrix in="SourceAlpha" type="matrix" values="0 0 0 0 0 0 0 0 0 0 0 0 0 0 0 0 0 0 127 0" result="hardAlpha"/>
<feOffset dx="30" dy="21"/>
<feGaussianBlur stdDeviation="2"/>
<feComposite in2="hardAlpha" operator="out"/>
<feColorMatrix type="matrix" values="0 0 0 0 0 0 0 0 0 0 0 0 0 0 0 0 0 0 0.25 0"/>
<feBlend mode="normal" in2="BackgroundImageFix" result="effect1_dropShadow_563_10239"/>
<feBlend mode="normal" in="SourceGraphic" in2="effect1_dropShadow_563_10239" result="shape"/>
</filter>
<filter id="filter5_d_563_10239" x="371" y="286" width="348" height="110" filterUnits="userSpaceOnUse" color-interpolation-filters="sRGB">
<feFlood flood-opacity="0" result="BackgroundImageFix"/>
<feColorMatrix in="SourceAlpha" type="matrix" values="0 0 0 0 0 0 0 0 0 0 0 0 0 0 0 0 0 0 127 0" result="hardAlpha"/>
<feOffset dx="30" dy="21"/>
<feGaussianBlur stdDeviation="2"/>
<feComposite in2="hardAlpha" operator="out"/>
<feColorMatrix type="matrix" values="0 0 0 0 0 0 0 0 0 0 0 0 0 0 0 0 0 0 0.25 0"/>
<feBlend mode="normal" in2="BackgroundImageFix" result="effect1_dropShadow_563_10239"/>
<feBlend mode="normal" in="SourceGraphic" in2="effect1_dropShadow_563_10239" result="shape"/>
</filter>
</defs>
</svg>
