<svg width="68" height="58" viewBox="0 0 68 58" fill="none" xmlns="http://www.w3.org/2000/svg">
<rect x="7" width="54" height="58" fill="#357677"/>
<path fill-rule="evenodd" clip-rule="evenodd" d="M61.7615 4C63.799 4 65.6084 4.93199 66.7469 6.37355L33.6815 32.8338L0.910706 6.85405C2.00641 5.14245 3.98264 4 6.23853 4H61.7615ZM0 48.0476V11.5493L23.5139 30.1905L0.048472 48.7932C0.0164873 48.549 0 48.3001 0 48.0476ZM2.15049 52.544C3.24536 53.451 4.67475 54 6.23853 54H61.7615C63.1055 54 64.3504 53.5944 65.3688 52.9046L40.3825 32.9096L35.8892 36.5052C34.6185 37.5222 32.7672 37.5262 31.4915 36.5149L26.9306 32.8991L2.15049 52.544ZM43.7803 30.1905L67.8295 49.4356C67.941 48.9902 68 48.5255 68 48.0476V10.8089L43.7803 30.1905Z" fill="#FEFAE0"/>
</svg>
