<svg width="1920" height="836" viewBox="0 0 1920 836" fill="none" xmlns="http://www.w3.org/2000/svg">
<rect y="-1" width="1920" height="837" fill="#982509"/>
<path d="M773.329 401.989C770.492 402.338 768.047 402.6 765.559 402.905C765.035 402.949 764.468 403.036 763.944 403.036C761.63 403.08 760.932 402.425 761.936 400.287C763.202 397.669 764.73 395.094 766.563 392.825C768.396 390.512 770.753 388.68 772.761 386.498C774.333 384.796 775.861 383.094 777.17 381.174C779.091 378.294 781.404 376.025 784.897 375.415C786.424 375.153 788.083 375.415 789.655 375.24C791.401 375.065 793.19 374.935 794.849 374.411C803.798 371.618 812.877 369.393 822.306 369.262C825.711 369.262 829.16 369.96 832.521 370.571C833.918 370.833 835.271 371.575 836.449 372.36C840.684 375.109 840.727 380.869 836.58 383.836C833.961 385.713 830.906 386.193 827.85 386.629C818.421 387.982 809.211 390.12 800.349 393.654C799.214 394.134 798.647 394.745 798.647 395.923C798.647 396.534 798.603 397.101 798.603 397.712C798.603 398.323 798.603 398.978 798.603 399.85C800.873 399.414 803.056 398.978 805.195 398.541C812.266 397.058 819.382 396.403 826.584 396.36C829.421 396.36 832.302 396.447 835.14 396.796C836.362 396.927 837.672 397.625 838.632 398.411C840.771 400.2 840.465 402.905 837.934 404.083C835.664 405.13 833.175 405.872 830.775 406.527C820.778 409.145 810.738 411.632 800.699 414.163C799.258 414.512 798.603 415.385 798.647 416.781C798.734 419.443 798.909 422.148 799.04 424.81C799.083 425.77 799.782 425.683 800.437 425.639C804.627 425.246 808.861 424.766 813.052 424.505C819.6 424.068 826.104 423.588 832.652 423.414C834.965 423.326 837.41 423.676 839.636 424.33C845.398 426.075 846.795 432.403 842.473 436.635C840.727 438.337 838.632 439.515 836.318 440.257C825.973 443.53 815.671 446.802 805.326 450.031C803.361 450.642 801.353 450.991 799.433 451.646C798.734 451.908 797.949 452.562 797.599 453.26C795.941 456.882 792.841 458.235 789.349 456.359C786.817 455.006 784.416 454.788 781.623 455.311C776.428 456.271 771.234 456.184 766.17 454.351C765.908 454.264 765.646 454.177 765.428 454.046C760.102 451.864 758.706 448.199 761.194 443.006C762.809 439.646 765.341 437.072 768.527 435.152C770.186 434.148 771.932 433.232 773.591 432.184C774.027 431.923 774.377 431.181 774.377 430.701C774.158 427.908 773.809 425.116 773.547 422.279C773.46 421.319 773.067 421.014 772.194 421.014C770.186 421.014 768.178 420.883 766.214 420.839C764.991 420.839 764.86 420.316 765.384 419.268C766.432 417.174 767.872 415.297 769.88 414.076C772.5 412.461 773.504 410.148 773.46 407.225C773.46 405.567 773.46 403.865 773.46 401.989H773.329Z" fill="white"/>
<path d="M1012.19 411.108C1012.02 403.166 1014.68 396.097 1018.91 389.596C1023.93 381.785 1031.35 378.512 1040.48 378.73C1045.5 378.861 1049.99 380.301 1053.96 383.487C1055.23 384.49 1056.89 385.188 1058.46 385.581C1067.37 387.806 1072.56 393.697 1074.87 402.25C1076.79 409.319 1075.7 416.344 1073.08 423.064C1069.59 432.009 1064.35 439.733 1055.71 444.533C1049.69 447.893 1043.23 449.507 1036.29 447.98C1030.17 446.627 1025.37 443.006 1021.66 438.118C1015.59 430.177 1012.5 421.1 1012.28 411.064L1012.19 411.108ZM1043.05 394.221C1037.55 394.439 1034.1 396.49 1032.23 400.897C1030.31 405.304 1029.43 409.755 1030.39 414.555C1031.35 419.486 1033.1 424.068 1036.29 427.995C1039.25 431.66 1041.87 432.14 1046.11 430.046C1046.24 430.002 1046.37 429.915 1046.46 429.871C1053 426.293 1056.58 420.577 1058.24 413.508C1059.07 409.973 1059.16 406.57 1057.06 403.384C1054.71 399.763 1051.52 397.014 1047.5 395.355C1045.85 394.657 1044.01 394.439 1043.01 394.221H1043.05Z" fill="white"/>
<path d="M864.383 430.743C864.689 426.249 864.995 421.798 865.344 417.304C866.042 408.053 866.653 398.802 867.57 389.595C868.094 384.533 869.229 379.559 871.848 375.064C872.634 373.755 873.55 372.49 874.598 371.355C876.868 368.955 879.574 368.868 882.106 370.963C885.074 373.45 886.384 376.853 887.388 380.432C889.09 386.366 888.959 392.388 888.436 398.409C887.912 404.737 887.388 411.107 886.209 417.347C884.594 425.856 882.717 434.365 878.396 442.001C876.912 444.663 875.165 447.325 873.114 449.55C868.574 454.438 861.808 454.568 856.744 450.205C853.994 447.849 852.205 444.794 850.851 441.478C848.363 435.369 846.748 428.998 845.57 422.54C844.26 415.122 842.732 407.747 841.466 400.329C840.681 395.748 840.375 391.122 841.597 386.541C842.994 381.173 847.752 378.206 852.728 379.515C856.57 380.562 858.709 383.355 859.233 387.108C859.669 390.293 859.494 393.522 859.407 396.751C859.189 406.613 859.844 416.344 862.463 425.9C862.899 427.514 863.379 429.129 863.86 430.743C864.034 430.743 864.165 430.7 864.34 430.656L864.383 430.743Z" fill="white"/>
<path d="M929.996 403.343C938.333 403.604 946.627 404.303 954.572 406.921C957.322 407.837 960.116 409.146 962.429 410.848C968.89 415.648 970.636 423.24 967.536 430.964C964.568 438.338 959.548 443.793 952.389 447.196C944.357 451.036 935.976 453 927.028 450.993C922.706 450.033 918.69 448.462 915.329 445.495C910.876 441.524 909.611 435.24 912.273 430.397C913.539 428.084 915.416 426.557 918.079 426.077C919.607 425.815 919.738 425.859 920 427.473C920.131 428.215 920.305 429 920.393 429.742C920.742 432.273 922.313 433.669 924.539 434.673C931.48 437.815 938.377 437.422 945.274 434.498C948.941 432.971 952.04 430.746 954.135 427.342C956.536 423.459 956.012 421.931 951.865 420.142C946.54 417.786 940.865 417.044 935.147 416.695C930.214 416.39 925.238 416.259 920.305 415.866C913.583 415.299 909.174 410.499 908.738 403.779C907.952 392.128 912.142 382.703 921.353 375.59C929.341 369.438 938.639 371.227 944.619 376.245C950.425 381.132 951.211 389.903 946.496 395.139C945.798 395.881 944.925 396.579 944.008 397.015C941.258 398.325 938.857 397.059 938.333 394.092C937.897 391.605 936.893 389.554 934.317 388.768C933.488 388.507 932.31 388.55 931.655 388.987C927.421 391.605 924.059 395.096 921.833 399.677C920.829 401.728 922.008 403.692 924.234 403.43C926.155 403.212 928.119 403.386 930.083 403.386L929.996 403.343Z" fill="white"/>
<path d="M1157.42 416.65C1156.46 416.65 1155.85 416.606 1155.24 416.65C1148.47 417.305 1141.66 418.003 1134.9 418.701C1128.35 419.399 1121.93 419.268 1115.82 416.388C1108.57 412.941 1105.43 405.785 1108.09 398.236C1111.24 389.291 1117.04 382.789 1126.21 379.822C1131.4 378.163 1136.38 378.949 1140.83 382.222C1143.63 384.272 1144.85 387.152 1144.67 390.643C1144.54 393.218 1142.71 394.352 1140.44 393.174C1135.38 390.469 1131.53 391.08 1127.39 395.007C1125.95 396.36 1124.64 397.93 1123.5 399.545C1122.02 401.639 1122.46 402.599 1124.99 402.73C1128.04 402.861 1131.14 402.818 1134.24 402.643C1140.48 402.25 1146.73 401.552 1152.97 401.247C1156.72 401.072 1160.52 401.683 1163.97 403.341C1168.46 405.523 1170.87 409.014 1171 414.207C1171.13 420.577 1168.6 425.77 1164.67 430.395C1156.9 439.559 1146.94 444.926 1135.11 446.584C1128.87 447.457 1122.89 446.322 1117.52 442.788C1115.12 441.173 1113.33 439.035 1112.72 436.112C1112.2 433.624 1113.24 431.617 1115.6 430.613C1118.66 429.304 1121.84 428.912 1125.07 429.348C1134.11 430.526 1142.49 428.432 1150.31 423.937C1153.19 422.279 1155.33 419.835 1157.38 416.694L1157.42 416.65Z" fill="white"/>
<path d="M974.475 412.59C974.126 404.431 973.777 396.271 973.515 388.111C973.427 386.06 973.515 383.922 973.951 381.915C974.65 378.686 977.443 376.635 980.674 376.547C983.86 376.46 986.96 378.38 987.789 381.435C988.618 384.664 989.011 388.024 989.491 391.34C990.059 395.573 990.495 399.805 990.976 404.038C991.106 405.129 991.412 406.089 992.809 406.089C994.162 406.089 994.861 405.521 995.035 404.125C995.69 399.151 996.345 394.133 997.174 389.158C997.785 385.449 998.484 381.74 999.4 378.118C999.662 376.984 1000.54 375.762 1001.5 375.064C1003.46 373.667 1006.17 374.627 1006.91 376.984C1007.56 378.991 1007.87 381.129 1008 383.224C1008.44 390.511 1008.7 397.842 1009.09 405.129C1009.18 406.351 1009.66 407.572 1010.09 408.75C1010.44 409.754 1010.62 410.67 1010.18 411.761C1009.83 412.678 1009.61 413.681 1009.61 414.685C1009.7 422.321 1009.79 429.957 1010.05 437.594C1010.31 444.619 1010.05 451.601 1009 458.495C1008.79 459.935 1008.17 461.375 1007.52 462.684C1006.38 464.866 1004.16 465.171 1002.54 463.295C1001.45 462.03 1000.54 460.59 999.837 459.106C996.738 452.473 995.21 445.404 994.686 438.205C994.206 431.703 994.293 425.157 994.118 418.612C994.118 418.176 993.987 417.565 993.682 417.303C993.027 416.779 992.198 417.303 992.154 418.263C991.979 421.056 991.805 423.892 991.674 426.685C991.499 430.176 991.281 433.666 990.015 436.983C989.055 439.426 987.614 441.434 985.475 442.961C983.686 444.226 981.765 444.139 980.063 442.786C978.404 441.434 977.138 439.688 976.701 437.637C975.828 433.841 974.999 430.001 974.606 426.161C974.17 421.667 974.257 417.085 974.082 412.547C974.213 412.547 974.301 412.547 974.431 412.547L974.475 412.59Z" fill="white"/>
<path d="M1098.27 383.094C1098.97 389.203 1099.71 395.181 1100.32 401.116C1100.98 407.705 1101.41 414.337 1102.2 420.926C1103.33 430.832 1103.16 440.781 1102.99 450.73C1102.99 452.257 1102.77 453.828 1102.42 455.311C1102.2 456.184 1101.68 457.1 1101.11 457.798C1099.84 459.282 1098.01 459.326 1096.48 458.06C1093.82 455.922 1092.16 453.042 1090.76 450.031C1087.66 443.355 1085.87 436.286 1084.74 429.043C1082.78 416.388 1082.82 403.603 1082.86 390.818C1082.86 388.68 1083.17 386.498 1083.34 384.272C1081.25 384.142 1079.24 384.185 1077.27 383.923C1075.09 383.662 1072.87 383.269 1070.73 382.702C1068.28 382.047 1067.72 380.52 1068.76 378.207C1070.03 375.414 1072.08 373.364 1074.79 371.924C1078.98 369.655 1083.56 369.044 1088.23 369C1090.85 369 1093.51 369 1096.13 369C1098.93 369 1101.68 369.393 1104.21 370.658C1106.26 371.662 1107.74 373.233 1108.4 375.458C1109.53 379.167 1106.83 382.92 1102.85 383.094C1101.33 383.182 1099.8 383.094 1098.32 383.094H1098.27Z" fill="white"/>
</svg>
