<svg width="678" height="678" viewBox="0 0 678 678" fill="none" xmlns="http://www.w3.org/2000/svg">
<rect x="0.5" y="0.5" width="677" height="677" fill="#982509"/>
<path d="M180.941 327.078C178.612 327.364 176.605 327.579 174.563 327.83C174.133 327.866 173.667 327.937 173.237 327.937C171.338 327.973 170.765 327.436 171.589 325.681C172.628 323.532 173.882 321.419 175.387 319.556C176.892 317.658 178.827 316.154 180.475 314.363C181.765 312.966 183.019 311.569 184.094 309.993C185.67 307.629 187.569 305.767 190.436 305.265C191.69 305.05 193.052 305.265 194.341 305.122C195.775 304.979 197.244 304.871 198.605 304.441C205.951 302.149 213.403 300.322 221.143 300.215C223.937 300.215 226.768 300.788 229.527 301.289C230.674 301.504 231.784 302.113 232.752 302.758C236.227 305.014 236.263 309.742 232.859 312.178C230.709 313.718 228.201 314.112 225.693 314.47C217.954 315.58 210.394 317.336 203.12 320.237C202.188 320.631 201.723 321.132 201.723 322.099C201.723 322.601 201.687 323.066 201.687 323.568C201.687 324.069 201.687 324.606 201.687 325.323C203.55 324.965 205.341 324.606 207.097 324.248C212.902 323.031 218.742 322.493 224.654 322.457C226.983 322.457 229.348 322.529 231.677 322.816C232.68 322.923 233.755 323.496 234.543 324.141C236.299 325.609 236.048 327.83 233.97 328.797C232.107 329.657 230.065 330.266 228.094 330.803C219.889 332.952 211.648 334.994 203.407 337.071C202.224 337.357 201.687 338.074 201.723 339.22C201.794 341.405 201.937 343.625 202.045 345.81C202.081 346.598 202.654 346.527 203.192 346.491C206.631 346.169 210.107 345.775 213.547 345.56C218.921 345.201 224.26 344.807 229.635 344.664C231.534 344.593 233.54 344.879 235.367 345.416C240.097 346.849 241.244 352.043 237.696 355.517C236.263 356.914 234.543 357.881 232.644 358.49C224.152 361.176 215.696 363.862 207.205 366.513C205.592 367.014 203.944 367.301 202.367 367.838C201.794 368.053 201.149 368.59 200.863 369.163C199.501 372.136 196.957 373.246 194.091 371.706C192.012 370.596 190.042 370.417 187.749 370.847C183.485 371.635 179.221 371.563 175.065 370.059C174.85 369.987 174.635 369.915 174.455 369.808C170.084 368.017 168.937 365.008 170.98 360.746C172.306 357.988 174.384 355.875 176.999 354.299C178.361 353.475 179.794 352.723 181.156 351.863C181.514 351.649 181.801 351.04 181.801 350.646C181.622 348.353 181.335 346.061 181.12 343.733C181.048 342.945 180.726 342.694 180.009 342.694C178.361 342.694 176.713 342.587 175.1 342.551C174.097 342.551 173.99 342.121 174.42 341.262C175.28 339.542 176.462 338.002 178.11 336.999C180.26 335.674 181.084 333.776 181.048 331.376C181.048 330.015 181.048 328.618 181.048 327.078H180.941Z" fill="white"/>
<path d="M377.005 334.563C376.861 328.045 379.047 322.242 382.523 316.905C386.643 310.494 392.734 307.808 400.223 307.987C404.343 308.094 408.034 309.276 411.295 311.891C412.334 312.715 413.695 313.288 414.985 313.61C422.295 315.437 426.558 320.272 428.457 327.292C430.034 333.095 429.138 338.861 426.988 344.377C424.122 351.72 419.822 358.06 412.728 361.999C407.783 364.757 402.48 366.083 396.783 364.829C391.767 363.719 387.826 360.746 384.78 356.734C379.799 350.216 377.256 342.766 377.076 334.528L377.005 334.563ZM402.337 320.702C397.822 320.881 394.992 322.565 393.451 326.182C391.874 329.8 391.158 333.453 391.946 337.393C392.734 341.44 394.168 345.201 396.783 348.425C399.22 351.433 401.369 351.827 404.845 350.108C404.953 350.072 405.06 350.001 405.132 349.965C410.506 347.028 413.444 342.336 414.806 336.533C415.487 333.632 415.558 330.838 413.839 328.224C411.904 325.251 409.288 322.994 405.992 321.633C404.63 321.06 403.125 320.881 402.301 320.702H402.337Z" fill="white"/>
<path d="M255.685 350.681C255.936 346.992 256.187 343.338 256.473 339.649C257.047 332.056 257.548 324.462 258.301 316.905C258.731 312.75 259.662 308.667 261.812 304.978C262.457 303.903 263.21 302.865 264.07 301.933C265.933 299.963 268.154 299.892 270.232 301.611C272.669 303.653 273.744 306.446 274.568 309.383C275.965 314.255 275.858 319.197 275.428 324.14C274.998 329.334 274.568 334.563 273.6 339.685C272.275 346.669 270.734 353.654 267.187 359.922C265.969 362.107 264.535 364.291 262.851 366.118C259.125 370.13 253.571 370.237 249.415 366.655C247.157 364.721 245.688 362.214 244.578 359.492C242.535 354.477 241.21 349.248 240.242 343.947C239.167 337.858 237.913 331.805 236.874 325.716C236.229 321.955 235.978 318.159 236.982 314.398C238.128 309.992 242.034 307.557 246.118 308.631C249.271 309.491 251.027 311.783 251.457 314.863C251.815 317.478 251.672 320.129 251.6 322.779C251.421 330.874 251.959 338.861 254.109 346.705C254.467 348.03 254.861 349.356 255.255 350.681C255.399 350.681 255.506 350.645 255.649 350.609L255.685 350.681Z" fill="white"/>
<path d="M309.538 328.188C316.381 328.403 323.189 328.976 329.71 331.125C331.968 331.878 334.261 332.952 336.16 334.349C341.463 338.289 342.896 344.521 340.352 350.861C337.915 356.914 333.795 361.391 327.919 364.185C321.326 367.337 314.446 368.949 307.101 367.301C303.554 366.513 300.257 365.224 297.498 362.788C293.844 359.529 292.805 354.371 294.99 350.395C296.029 348.497 297.57 347.243 299.756 346.849C301.01 346.634 301.117 346.67 301.332 347.995C301.44 348.604 301.583 349.249 301.655 349.858C301.941 351.935 303.231 353.082 305.059 353.905C310.756 356.484 316.417 356.162 322.078 353.762C325.088 352.508 327.632 350.682 329.352 347.888C331.323 344.7 330.893 343.447 327.489 341.978C323.117 340.044 318.459 339.435 313.766 339.149C309.717 338.898 305.632 338.79 301.583 338.468C296.065 338.002 292.446 334.062 292.088 328.547C291.443 318.983 294.883 311.247 302.443 305.409C309 300.358 316.632 301.827 321.541 305.946C326.306 309.957 326.951 317.157 323.082 321.455C322.508 322.064 321.792 322.637 321.039 322.995C318.782 324.069 316.811 323.031 316.381 320.595C316.023 318.554 315.199 316.87 313.085 316.225C312.404 316.011 311.437 316.046 310.899 316.405C307.424 318.554 304.665 321.419 302.837 325.18C302.013 326.863 302.981 328.475 304.808 328.26C306.384 328.081 307.997 328.224 309.609 328.224L309.538 328.188Z" fill="white"/>
<path d="M496.213 339.113C495.425 339.113 494.923 339.077 494.422 339.113C488.868 339.65 483.278 340.223 477.725 340.796C472.35 341.369 467.083 341.262 462.067 338.898C456.119 336.068 453.539 330.194 455.725 323.998C458.304 316.655 463.07 311.318 470.594 308.883C474.858 307.522 478.943 308.166 482.598 310.853C484.891 312.536 485.894 314.9 485.751 317.765C485.643 319.879 484.138 320.81 482.275 319.843C478.119 317.622 474.966 318.124 471.562 321.347C470.379 322.457 469.304 323.747 468.373 325.072C467.155 326.791 467.513 327.579 469.591 327.687C472.099 327.794 474.643 327.758 477.187 327.615C482.311 327.293 487.435 326.72 492.559 326.469C495.64 326.326 498.757 326.827 501.588 328.188C505.278 329.979 507.249 332.845 507.357 337.107C507.464 342.336 505.386 346.598 502.161 350.395C495.783 357.917 487.614 362.322 477.904 363.683C472.78 364.4 467.871 363.468 463.464 360.567C461.493 359.242 460.024 357.487 459.523 355.087C459.093 353.046 459.953 351.398 461.888 350.574C464.396 349.5 467.011 349.177 469.663 349.535C477.08 350.502 483.959 348.783 490.373 345.094C492.738 343.733 494.493 341.727 496.177 339.148L496.213 339.113Z" fill="white"/>
<path d="M346.048 335.781C345.761 329.083 345.474 322.386 345.259 315.688C345.188 314.004 345.259 312.249 345.618 310.602C346.191 307.951 348.484 306.268 351.136 306.196C353.751 306.124 356.295 307.7 356.976 310.208C357.657 312.858 357.979 315.616 358.373 318.338C358.839 321.812 359.197 325.287 359.592 328.761C359.699 329.656 359.95 330.444 361.096 330.444C362.207 330.444 362.781 329.979 362.924 328.833C363.461 324.749 363.999 320.63 364.68 316.547C365.181 313.503 365.754 310.458 366.507 307.486C366.722 306.554 367.438 305.551 368.227 304.978C369.839 303.832 372.061 304.62 372.67 306.554C373.207 308.202 373.458 309.957 373.566 311.676C373.924 317.658 374.139 323.675 374.461 329.656C374.533 330.659 374.927 331.662 375.285 332.629C375.572 333.453 375.715 334.205 375.357 335.101C375.07 335.853 374.891 336.677 374.891 337.5C374.963 343.769 375.035 350.037 375.25 356.305C375.465 362.071 375.25 367.802 374.39 373.461C374.21 374.643 373.709 375.825 373.171 376.9C372.24 378.69 370.412 378.941 369.087 377.401C368.191 376.362 367.438 375.18 366.865 373.963C364.321 368.518 363.067 362.716 362.637 356.806C362.243 351.469 362.315 346.097 362.171 340.724C362.171 340.366 362.064 339.864 361.813 339.65C361.276 339.22 360.595 339.65 360.559 340.438C360.416 342.73 360.272 345.058 360.165 347.35C360.022 350.216 359.842 353.081 358.803 355.803C358.015 357.809 356.833 359.457 355.077 360.71C353.608 361.749 352.031 361.677 350.634 360.567C349.272 359.457 348.233 358.024 347.875 356.34C347.158 353.224 346.478 350.072 346.155 346.92C345.797 343.231 345.868 339.47 345.725 335.745C345.833 335.745 345.904 335.745 346.012 335.745L346.048 335.781Z" fill="white"/>
<path d="M447.662 311.569C448.235 316.583 448.845 321.49 449.346 326.362C449.884 331.77 450.242 337.214 450.887 342.623C451.818 350.753 451.675 358.92 451.532 367.086C451.532 368.34 451.353 369.629 451.066 370.847C450.887 371.563 450.457 372.315 449.991 372.888C448.952 374.106 447.447 374.142 446.193 373.103C444.007 371.348 442.646 368.984 441.499 366.513C438.955 361.033 437.486 355.23 436.555 349.285C434.942 338.898 434.978 328.403 435.014 317.909C435.014 316.154 435.265 314.363 435.408 312.536C433.688 312.429 432.04 312.464 430.428 312.25C428.636 312.035 426.809 311.712 425.053 311.247C423.046 310.709 422.581 309.456 423.441 307.557C424.48 305.265 426.164 303.582 428.385 302.4C431.825 300.537 435.587 300.036 439.421 300C441.571 300 443.757 300 445.906 300C448.2 300 450.457 300.322 452.535 301.361C454.219 302.185 455.437 303.474 455.975 305.301C456.906 308.345 454.685 311.426 451.424 311.569C450.17 311.641 448.916 311.569 447.698 311.569H447.662Z" fill="white"/>
</svg>
