<svg width="333" height="33" viewBox="0 0 333 33" fill="none" xmlns="http://www.w3.org/2000/svg">
<mask id="mask0_219_3052" style="mask-type:alpha" maskUnits="userSpaceOnUse" x="0" y="0" width="32" height="33">
<path d="M22.4584 32.2422C22.9573 32.4381 23.5261 32.4255 24.0296 32.1813L30.5501 29.0191C31.2353 28.6868 31.671 27.9878 31.671 27.2211V5.77895C31.671 5.01221 31.2353 4.31332 30.5501 3.98102L24.0296 0.818662C23.3689 0.498218 22.5955 0.576707 22.0157 1.00163C21.9328 1.06233 21.8539 1.1301 21.7799 1.20479L9.29704 12.6827L3.8598 8.52293C3.35365 8.13569 2.64568 8.16742 2.17559 8.5984L0.431685 10.1972C-0.143328 10.7244 -0.143987 11.6361 0.430261 12.1642L5.14562 16.4999L0.430261 20.8358C-0.143987 21.3638 -0.143328 22.2755 0.431685 22.8027L2.17559 24.4015C2.64568 24.8325 3.35365 24.8642 3.8598 24.477L9.29704 20.3172L21.7799 31.7952C21.9773 31.9943 22.2092 32.1443 22.4584 32.2422ZM23.7581 9.25368L14.2865 16.4999L23.7581 23.7462V9.25368Z" fill="white"/>
</mask>
<g mask="url(#mask0_219_3052)">
<path d="M30.5695 3.98666L24.0439 0.819946C23.2886 0.4534 22.3859 0.608017 21.793 1.20548L0.430522 20.8365C-0.144075 21.3645 -0.143414 22.2762 0.431947 22.8034L2.1769 24.4022C2.64729 24.8332 3.3557 24.8649 3.86215 24.4778L29.5875 4.80819C30.4506 4.14831 31.6902 4.76871 31.6902 5.86054V5.78418C31.6902 5.01778 31.2546 4.31913 30.5695 3.98666Z" fill="#FEFAE0" fill-opacity="0.3"/>
<path d="M30.5695 29.0144L24.0439 32.1811C23.2886 32.5476 22.3859 32.393 21.793 31.7956L0.430522 12.1646C-0.144075 11.6366 -0.143414 10.7248 0.431947 10.1976L2.1769 8.59882C2.64729 8.16783 3.3557 8.1361 3.86215 8.52335L29.5875 28.1928C30.4506 28.8527 31.6902 28.2324 31.6902 27.1405V27.2169C31.6902 27.9832 31.2546 28.6819 30.5695 29.0144Z" fill="#626159"/>
<path d="M24.0246 32.1832C23.269 32.5494 22.3663 32.3947 21.7734 31.7972C22.5038 32.5333 23.7529 32.0119 23.7529 30.9707V2.03311C23.7529 0.991949 22.5038 0.470532 21.7734 1.20674C22.3663 0.609228 23.269 0.454393 24.0246 0.820615L30.549 3.98298C31.2347 4.31527 31.6706 5.01417 31.6706 5.78091V27.2231C31.6706 27.9898 31.2347 28.6887 30.549 29.021L24.0246 32.1832Z" fill="#626159"/>
</g>
<path fill-rule="evenodd" clip-rule="evenodd" d="M77.172 0C68.6126 0 61.6719 7.57415 61.6719 16.9177C61.6719 24.3924 66.1131 30.7339 72.2718 32.9709C73.0465 33.1275 73.3309 32.6039 73.3309 32.1571C73.3309 31.7537 73.3165 30.421 73.3098 29.0074C68.9977 30.0307 68.0877 27.0113 68.0877 27.0113C67.3827 25.0558 66.3667 24.5359 66.3667 24.5359C64.9604 23.4859 66.4727 23.5074 66.4727 23.5074C68.0292 23.6268 68.8488 25.2508 68.8488 25.2508C70.2312 27.8372 72.4748 27.0894 73.3593 26.6572C73.4985 25.5637 73.9002 24.8174 74.3434 24.395C70.9006 23.9672 67.2815 22.5165 67.2815 16.0341C67.2815 14.1871 67.887 12.6779 68.8786 11.4932C68.7176 11.0671 68.1871 9.34638 69.0287 7.01609C69.0287 7.01609 70.3303 6.56141 73.2924 8.75022C74.5288 8.37538 75.8547 8.1874 77.172 8.18096C78.4893 8.1874 79.8163 8.37538 81.055 8.75022C84.0134 6.56141 85.3132 7.01609 85.3132 7.01609C86.1569 9.34638 85.6261 11.0671 85.4652 11.4932C86.459 12.6779 87.0604 14.1871 87.0604 16.0341C87.0604 22.532 83.4344 23.9627 79.9829 24.3815C80.5388 24.9065 81.0342 25.9361 81.0342 27.5144C81.0342 29.778 81.0162 31.5999 81.0162 32.1571C81.0162 32.6073 81.2952 33.1348 82.0809 32.9687C88.2363 30.7292 92.6719 24.3899 92.6719 16.9177C92.6719 7.57415 85.7321 0 77.172 0ZM67.4772 24.0997C67.443 24.1837 67.3219 24.2089 67.2115 24.1512C67.0991 24.096 67.036 23.9814 67.0724 23.8971C67.1058 23.8106 67.2272 23.7865 67.3393 23.8445C67.452 23.8996 67.5162 24.0153 67.4772 24.0997ZM68.2396 24.8422C68.1657 24.917 68.0212 24.8823 67.9231 24.764C67.8217 24.6461 67.8027 24.4884 67.8777 24.4124C67.9539 24.3376 68.0941 24.3727 68.1957 24.4906C68.2971 24.61 68.3169 24.7666 68.2396 24.8422ZM68.7627 25.7922C68.6677 25.8642 68.5124 25.7967 68.4164 25.6463C68.3214 25.4958 68.3214 25.3154 68.4185 25.2431C68.5147 25.1709 68.6677 25.2359 68.765 25.3852C68.8597 25.5381 68.8597 25.7186 68.7627 25.7922ZM69.6473 26.8925C69.5623 26.9948 69.3814 26.9673 69.2489 26.8278C69.1134 26.6914 69.0757 26.4978 69.1609 26.3955C69.2469 26.293 69.4288 26.3219 69.5623 26.4602C69.6968 26.5964 69.7379 26.7914 69.6473 26.8925ZM70.7905 27.264C70.7531 27.3965 70.5788 27.4567 70.4032 27.4004C70.2279 27.3424 70.1132 27.1872 70.1486 27.0533C70.185 26.9199 70.3601 26.8572 70.5369 26.9174C70.712 26.9751 70.827 27.1292 70.7905 27.264ZM72.0916 27.4215C72.096 27.561 71.9471 27.6767 71.7628 27.6793C71.5775 27.6837 71.4276 27.5708 71.4255 27.4336C71.4255 27.2927 71.5711 27.1781 71.7564 27.1747C71.9407 27.1708 72.0916 27.2828 72.0916 27.4215ZM73.3698 27.368C73.3919 27.5042 73.2638 27.644 73.0808 27.6813C72.9008 27.7171 72.7343 27.6331 72.7114 27.498C72.6891 27.3585 72.8195 27.2187 72.9992 27.1826C73.1824 27.1478 73.3464 27.2296 73.3698 27.368Z" fill="#FEFAE0" fill-opacity="0.3"/>
<path fill-rule="evenodd" clip-rule="evenodd" d="M125.223 29.2192L122.672 0.601562H150.708L148.154 29.2147L136.673 32.3976L125.223 29.2192Z" fill="#FEFAE0" fill-opacity="0.3"/>
<path d="M132.043 13.5552H136.688V17.065H128.833L127.887 6.45117H136.688V9.96104H131.723L132.043 13.5552Z" fill="#242424"/>
<path d="M136.672 22.6747L136.688 22.6706V26.3223L136.672 26.3268L129.482 24.3309L128.99 18.8199H132.514L132.763 21.6192L136.672 22.6747Z" fill="#242424"/>
<path d="M136.68 6.45117H145.472L145.158 9.96104H136.68V6.45117Z" fill="#242424"/>
<path d="M136.68 17.0649V13.5552H144.838L144.753 14.4976L143.875 24.3309L136.68 26.325V22.6735L140.594 21.6169L141.002 17.0649H136.68Z" fill="#242424"/>
<path fill-rule="evenodd" clip-rule="evenodd" d="M183.284 29.3473L180.707 0.442383H209.026L206.446 29.3425L194.849 32.5578L183.284 29.3473Z" fill="#FEFAE0" fill-opacity="0.3"/>
<path fill-rule="evenodd" clip-rule="evenodd" d="M186.605 13.4694L186.916 17.0093L194.89 13.4694V9.92383L186.605 13.4694Z" fill="#242424"/>
<path fill-rule="evenodd" clip-rule="evenodd" d="M203.722 6.13867L194.891 9.92342V13.469L203.417 9.67854L203.722 6.13867Z" fill="#242424"/>
<path fill-rule="evenodd" clip-rule="evenodd" d="M194.891 22.731L194.863 22.7351L190.909 21.6731L190.651 18.8496H187.092L187.588 24.4122L194.863 26.4263L194.891 26.4196V22.731Z" fill="#242424"/>
<path fill-rule="evenodd" clip-rule="evenodd" d="M194.891 13.4688V17.0086H199.22L198.827 21.6367L194.891 22.7338V26.4221L202.141 24.408L203.095 13.4688H194.891Z" fill="#242424"/>
<path fill-rule="evenodd" clip-rule="evenodd" d="M194.89 13.4688H186.605L186.916 17.0086H194.89V13.4688Z" fill="#242424"/>
<path fill-rule="evenodd" clip-rule="evenodd" d="M194.888 9.67854V6.13867H194.852H185.975L186.289 9.67854H194.888Z" fill="#242424"/>
<path fill-rule="evenodd" clip-rule="evenodd" d="M194.891 6.13867V9.63415V9.67854H203.417L203.722 6.13867H194.891Z" fill="#242424"/>
<g clip-path="url(#clip0_219_3052)">
<path fill-rule="evenodd" clip-rule="evenodd" d="M239.025 0H270.025V33H239.025V0ZM247.176 27.5772C247.863 29.1276 249.216 30.4123 251.546 30.4123C254.127 30.4123 255.895 28.9503 255.895 25.7383V15.1502H252.982V25.6945C252.982 27.245 252.379 27.6436 251.421 27.6436C250.423 27.6436 250.006 26.9127 249.549 26.0489L247.176 27.5772ZM259.85 25.7829L257.478 27.2449C258.331 29.0393 260.079 30.4126 262.784 30.4126C265.552 30.4126 267.612 28.8843 267.612 26.093C267.612 23.5013 266.217 22.3496 263.741 21.2198L263.013 20.8875C261.764 20.3116 261.223 19.9349 261.223 19.0045C261.223 18.2515 261.764 17.6755 262.618 17.6755C263.45 17.6755 263.991 18.052 264.49 19.0045L266.758 17.454C265.801 15.6597 264.47 14.9729 262.618 14.9729C260.016 14.9729 258.352 16.7451 258.352 19.071C258.352 21.5964 259.746 22.7925 261.848 23.7449L262.576 24.0774C263.908 24.6974 264.698 25.074 264.698 26.1373C264.698 27.0234 263.929 27.6658 262.722 27.6658C261.286 27.6658 260.474 26.8684 259.85 25.7829Z" fill="#FEFAE0" fill-opacity="0.3"/>
</g>
<path d="M302.308 16.4997C302.308 21.952 305.476 26.6638 310.071 28.8966L303.5 10.8939C302.736 12.607 302.308 14.5028 302.308 16.4997ZM325.381 15.8046C325.381 14.1023 324.77 12.9233 324.245 12.0057C323.547 10.8711 322.892 9.91022 322.892 8.77558C322.892 7.50937 323.853 6.33069 325.206 6.33069C325.267 6.33069 325.325 6.3383 325.384 6.3417C322.933 4.09654 319.668 2.72574 316.082 2.72574C311.27 2.72574 307.036 5.19474 304.573 8.93442C304.897 8.94411 305.201 8.95093 305.46 8.95093C306.901 8.95093 309.131 8.77611 309.131 8.77611C309.873 8.73233 309.961 9.82294 309.219 9.91075C309.219 9.91075 308.473 9.99855 307.643 10.0421L312.659 24.9622L315.673 15.9215L313.527 10.0415C312.785 9.99803 312.083 9.91022 312.083 9.91022C311.34 9.86671 311.427 8.73181 312.17 8.77558C312.17 8.77558 314.444 8.9504 315.798 8.9504C317.238 8.9504 319.469 8.77558 319.469 8.77558C320.212 8.73181 320.299 9.82242 319.557 9.91022C319.557 9.91022 318.809 9.99803 317.981 10.0415L322.959 24.8487L324.332 20.2575C324.928 18.3523 325.381 16.9838 325.381 15.8046ZM316.324 17.7046L312.191 29.7139C313.425 30.0766 314.73 30.275 316.082 30.275C317.686 30.275 319.225 29.9977 320.656 29.4942C320.62 29.4352 320.586 29.3726 320.558 29.3045L316.324 17.7046ZM328.169 9.89109C328.228 10.3298 328.262 10.8008 328.262 11.3075C328.262 12.7053 328.001 14.2766 327.214 16.2413L323.007 28.4062C327.102 26.0182 329.856 21.5816 329.856 16.5C329.857 14.1052 329.245 11.8532 328.169 9.89109ZM316.082 0.443359C307.229 0.443359 300.025 7.64618 300.025 16.4997C300.025 25.3543 307.229 32.5569 316.082 32.5569C324.936 32.5569 332.14 25.3543 332.14 16.4997C332.14 7.64618 324.936 0.443359 316.082 0.443359ZM316.082 31.8209C307.635 31.8209 300.762 24.9478 300.762 16.4997C300.762 8.05218 307.634 1.1796 316.082 1.1796C324.53 1.1796 331.402 8.05218 331.402 16.4997C331.402 24.9478 324.53 31.8209 316.082 31.8209Z" fill="#FEFAE0" fill-opacity="0.3"/>
<defs>
<clipPath id="clip0_219_3052">
<rect width="31" height="33" fill="white" transform="translate(239.025)"/>
</clipPath>
</defs>
</svg>
