<svg width="157" height="33" viewBox="0 0 157 33" fill="none" xmlns="http://www.w3.org/2000/svg">
<path d="M9.9587 16.9591V12.3642C10.8697 12.2264 12.0468 12.2481 12.8908 12.6104C13.664 12.9209 14.1182 13.7465 14.092 14.607C14.092 15.6167 13.5755 16.4595 12.6324 16.7403C11.7782 17.0336 10.8478 17.0263 9.9587 16.9591Z" fill="#FEFAE0" fill-opacity="0.3"/>
<path fill-rule="evenodd" clip-rule="evenodd" d="M1.26425 4.45207C0.5 6.00038 0.5 8.02724 0.5 12.081V20.919C0.5 24.9728 0.5 26.9996 1.26425 28.5479C1.93651 29.9099 3.00919 31.0172 4.32857 31.7111C5.82849 32.5 7.79199 32.5 11.719 32.5H20.281C24.208 32.5 26.1715 32.5 27.6714 31.7111C28.9908 31.0172 30.0635 29.9099 30.7358 28.5479C31.5 26.9996 31.5 24.9728 31.5 20.9191V12.081C31.5 8.02728 31.5 6.00037 30.7358 4.45207C30.0635 3.09013 28.9908 1.98285 27.6714 1.28891C26.1715 0.5 24.208 0.5 20.281 0.5H11.719C7.79201 0.5 5.8285 0.5 4.32857 1.28891C3.00919 1.98285 1.93651 3.09013 1.26425 4.45207ZM7.14286 9.87534V23.9471C7.14286 24.0702 7.19453 24.1249 7.29786 24.1249H9.75203C9.85602 24.1249 9.96331 24.0634 9.94578 23.9335V19.5437L10.0472 19.5437C12.2631 19.5442 14.7113 19.5448 16.1329 17.4377C16.6495 16.6719 16.9079 15.701 16.9079 14.5249C16.9079 13.9095 16.8045 13.3215 16.6108 12.7471C15.7885 10.4075 13.4427 9.64286 11.2762 9.64286C10.6086 9.64286 9.94121 9.66337 9.27389 9.68388L9.27379 9.68389C8.60657 9.7044 7.93935 9.72491 7.27203 9.72491C7.18161 9.72491 7.14286 9.77961 7.14286 9.87534ZM23.7268 15.5889C24.1571 15.6831 24.5733 15.8387 24.9642 16.0513C25.0647 16.1042 25.2132 16.0572 25.2055 15.9192V13.6954C25.206 13.5776 25.181 13.446 25.06 13.4092C24.2185 13.0303 23.2478 12.9612 22.3439 12.9689C20.4103 12.9694 18.2632 14.0196 18.2679 16.3595C18.2543 17.3911 18.7526 18.3287 19.5468 18.9135C20.1151 19.3303 20.7343 19.6636 21.3872 19.9042C21.4402 19.925 21.5025 19.9476 21.5712 19.9726C22.0876 20.1606 22.9678 20.4809 22.9678 21.0932C22.9749 21.8161 22.0303 21.8638 21.5536 21.8638C20.4739 21.8487 19.3676 21.5658 18.4342 20.9831C18.3567 20.9145 18.2576 20.9978 18.2679 21.0932V23.471C18.264 23.5793 18.3225 23.6855 18.4134 23.7352C19.366 24.1964 20.4504 24.3629 21.4912 24.3517C23.4906 24.3515 25.8231 23.3581 25.7752 20.873C25.81 18.8768 24.0362 17.8838 22.4686 17.3283C22.4194 17.3076 22.3634 17.2853 22.3026 17.261C21.8114 17.0655 21.0094 16.7461 20.9922 16.1614C20.993 14.9842 23.1739 15.4546 23.7268 15.5889Z" fill="#FEFAE0" fill-opacity="0.3"/>
<path d="M76.6723 17.8776H73.1745C73.4157 17.0533 73.6672 16.2198 73.9204 15.3804C74.2583 14.2605 74.5993 13.13 74.9234 11.997C75.2512 13.2312 75.6268 14.4493 76.0025 15.6678L76.0025 15.6679C76.2292 16.4032 76.456 17.1386 76.6723 17.8776Z" fill="#FEFAE0" fill-opacity="0.3"/>
<path fill-rule="evenodd" clip-rule="evenodd" d="M62.3136 4.07557C61.5 5.67227 61.5 7.76246 61.5 11.9429V21.0571C61.5 25.2375 61.5 27.3277 62.3136 28.9244C63.0292 30.3289 64.1711 31.4708 65.5756 32.1864C67.1723 33 69.2624 33 73.4428 33H82.5571C86.7375 33 88.8277 33 90.4244 32.1864C91.8289 31.4708 92.9708 30.3289 93.6864 28.9244C94.5 27.3277 94.5 25.2376 94.5 21.0572V11.9429C94.5 7.76251 94.5 5.67226 93.6864 4.07557C92.9708 2.67108 91.8289 1.52918 90.4244 0.813558C88.8277 0 86.7375 0 82.5571 0H73.4429C69.2625 0 67.1723 0 65.5756 0.813558C64.1711 1.52918 63.0292 2.67108 62.3136 4.07557ZM84.18 11.6761C84.3898 11.7622 84.6149 11.8019 84.8407 11.7926C85.075 11.804 85.3091 11.7655 85.5282 11.6795C85.7472 11.5935 85.9466 11.462 86.1136 11.2931C86.2734 11.1211 86.3979 10.9179 86.4797 10.6955C86.5615 10.4732 86.5988 10.2363 86.5896 9.99887C86.5984 9.76854 86.5629 9.53868 86.485 9.32245C86.4072 9.10621 86.2885 8.90786 86.1358 8.73873C85.8332 8.4133 85.4163 8.25058 84.885 8.25058C84.6589 8.24461 84.4339 8.28468 84.223 8.36847C84.0121 8.45226 83.8195 8.5781 83.6563 8.73873C83.4916 8.90104 83.3621 9.09717 83.2762 9.31431C83.1904 9.53145 83.1502 9.76471 83.1582 9.99887C83.1488 10.2354 83.185 10.4715 83.2648 10.6936C83.3446 10.9157 83.4664 11.1194 83.6232 11.2931C83.7804 11.4595 83.9702 11.59 84.18 11.6761ZM83.3132 13.1776V24.0306C83.3132 24.182 83.3797 24.2577 83.5125 24.2577H86.2133C86.3313 24.2578 86.3904 24.1821 86.3904 24.0306V13.1776C86.3903 13.0413 86.3312 12.9732 86.2133 12.9732H83.4903C83.372 12.9732 83.3132 13.0414 83.3132 13.1776ZM72.3776 20.7384H77.4913L78.6203 24.0988C78.6444 24.2 78.7408 24.2692 78.8417 24.2578H81.7196C81.8524 24.2579 81.8967 24.1822 81.8525 24.0307L76.8272 9.49944C76.8123 9.42374 76.7532 9.38589 76.6501 9.38589H73.1303C73.0428 9.3731 72.9626 9.45366 72.9753 9.54485C72.9743 9.85355 72.9447 10.1614 72.8868 10.4644C72.8425 10.6385 72.7982 10.7936 72.7539 10.9298L68.3264 24.008C68.282 24.1745 68.3337 24.2578 68.4814 24.2578H71.0715C71.1948 24.2638 71.3082 24.1766 71.3371 24.0534L72.3776 20.7384Z" fill="#FEFAE0" fill-opacity="0.3"/>
<path fill-rule="evenodd" clip-rule="evenodd" d="M125.289 4.07557C124.5 5.67227 124.5 7.76246 124.5 11.9429V21.0571C124.5 25.2375 124.5 27.3277 125.289 28.9244C125.983 30.3289 127.09 31.4708 128.452 32.1864C130 33 132.027 33 136.081 33H144.919C148.973 33 151 33 152.548 32.1864C153.91 31.4708 155.017 30.3289 155.711 28.9244C156.5 27.3277 156.5 25.2376 156.5 21.0572V11.9429C156.5 7.7625 156.5 5.67226 155.711 4.07557C155.017 2.67108 153.91 1.52918 152.548 0.813558C151 0 148.973 0 144.919 0H136.081C132.027 0 130 0 128.452 0.813558C127.09 1.52918 125.983 2.67108 125.289 4.07557ZM132.847 24.3022H141.305C141.418 24.301 141.517 24.2214 141.52 24.0979L141.906 21.6458C141.935 21.5095 141.885 21.4414 141.756 21.4414H135.595V9.58932C135.607 9.49952 135.531 9.4175 135.445 9.43036H132.826C132.715 9.41359 132.617 9.51741 132.633 9.6347V24.0525C132.633 24.219 132.704 24.3022 132.847 24.3022ZM145.794 13.0019H143.454C143.366 12.978 143.281 13.0661 143.304 13.1609C143.437 14.0769 143.435 15.0253 143.433 15.9554V15.9563C143.433 16.0713 143.433 16.186 143.433 16.3004V24.0569C143.415 24.1853 143.524 24.3027 143.647 24.2839H146.158C146.272 24.284 146.33 24.2158 146.33 24.0796V16.9361C147.049 16.1123 148.591 15.8648 149.582 15.9371C149.724 15.9371 149.796 15.8843 149.796 15.7782V13.0309C149.812 12.9136 149.714 12.8097 149.603 12.8265C148.935 12.8128 148.275 12.9893 147.694 13.3374C147.151 13.6461 146.668 14.0579 146.266 14.5521C146.266 14.1173 146.245 13.6317 146.073 13.229C146.039 13.0974 145.923 13.0031 145.794 13.0019Z" fill="#FEFAE0" fill-opacity="0.3"/>
</svg>
