<svg width="87" height="34" viewBox="0 0 87 34" fill="none" xmlns="http://www.w3.org/2000/svg">
<path d="M25.7221 16.0338V22.4201C23.525 23.0792 21.5671 21.51 21.6166 19.2387C21.6163 17.0418 23.6389 15.455 25.7221 16.0338Z" fill="#FEFAE0" fill-opacity="0.3"/>
<path fill-rule="evenodd" clip-rule="evenodd" d="M0.838212 4.19907C0 5.84416 0 7.99769 0 12.3048V21.6952C0 26.0023 0 28.1558 0.838212 29.8009C1.57552 31.248 2.75202 32.4245 4.19907 33.1618C5.84415 34 7.99767 34 12.3047 34H21.6952C26.0023 34 28.1559 34 29.8009 33.1618C31.248 32.4245 32.4245 31.248 33.1618 29.8009C34 28.1559 34 26.0023 34 21.6953V12.3048C34 7.99773 34 5.84415 33.1618 4.19907C32.4245 2.75202 31.248 1.57552 29.8009 0.838212C28.1558 0 26.0023 0 21.6952 0H12.3048C7.99769 0 5.84416 0 4.19907 0.838212C2.75202 1.57552 1.57552 2.75202 0.838212 4.19907ZM19.1533 22.6892C20.2124 24.5241 22.3193 25.3523 24.3308 25.3209C25.8677 25.3139 27.4041 25.016 28.824 24.4086C28.9103 24.3679 28.9665 24.2718 28.9609 24.1746C28.9513 24.0164 28.9399 23.8583 28.9286 23.7001V23.7C28.8991 23.2894 28.8697 22.8787 28.8697 22.4669V8.64156C28.8809 8.561 28.8113 8.48971 28.7328 8.50123H25.859C25.7678 8.50123 25.7221 8.55604 25.7221 8.66498V13.2734C23.1715 13.0392 20.4862 13.9319 19.1533 16.3145C18.6368 17.2484 18.3693 18.3054 18.3778 19.379C18.3777 20.7049 18.6362 21.8083 19.1533 22.6892ZM13.5426 17.1799L17.785 9.99819C17.8322 9.91997 17.785 9.76425 17.671 9.76425H14.6831C14.5464 9.75035 14.4498 9.81796 14.4094 9.95141C14.1052 10.5598 13.7897 11.1719 13.4628 11.7878C13.1357 12.4038 12.8164 13.0159 12.5049 13.6242C12.193 14.2325 11.8851 14.8563 11.5812 15.4956C11.2923 14.8718 10.9539 14.2557 10.6118 13.6475C10.2694 13.0394 9.93111 12.4234 9.5968 11.7995C9.2623 11.1757 8.95819 10.5519 8.68447 9.92803C8.60466 9.80893 8.48159 9.75637 8.34234 9.76425H5.12641C5.00149 9.75553 4.93445 9.86865 5.01234 9.97478L9.30032 17.4138L4.89835 24.8295C4.82917 24.9388 4.84399 25.0311 4.96676 25.0311H8.09145C8.24328 25.0311 8.34988 25.0166 8.41082 24.8763C8.74534 24.2683 9.07225 23.6562 9.39156 23.0399C9.71065 22.424 10.0338 21.8041 10.3609 21.1801C10.4439 21.0216 10.5277 20.8632 10.6114 20.7046L10.6115 20.7045C10.8574 20.2393 11.1033 19.774 11.3303 19.3087C11.6648 19.9483 12.0031 20.58 12.3453 21.2035C12.6871 21.8276 13.0102 22.4397 13.3146 23.0399C13.6184 23.6403 13.9225 24.2447 14.2269 24.8528C14.3181 25.0089 14.4778 25.0172 14.7059 25.0172H17.9447C18.0815 25.0172 18.1759 24.979 18.0815 24.8061L13.5426 17.1799Z" fill="#FEFAE0" fill-opacity="0.3"/>
<path fill-rule="evenodd" clip-rule="evenodd" d="M69.75 0C66.576 0 64 2.53867 64 5.66667C64 8.79467 66.576 11.3333 69.75 11.3333C66.576 11.3333 64 13.872 64 17C64 20.128 66.576 22.6667 69.75 22.6667C66.576 22.6667 64 25.2053 64 28.3333C64 31.4613 66.576 34 69.75 34C72.924 34 75.5 31.4613 75.5 28.3333L75.5 17C75.5 20.128 78.076 22.6667 81.25 22.6667C84.424 22.6667 87 20.128 87 17C87 13.872 84.424 11.3333 81.25 11.3333C84.424 11.3333 87 8.79467 87 5.66667C87 2.53867 84.424 0 81.25 0H69.75ZM81.25 11.3333H75.5L75.5 17C75.5 13.872 78.076 11.3333 81.25 11.3333Z" fill="#FEFAE0" fill-opacity="0.3"/>
</svg>
