<svg width="678" height="678" viewBox="0 0 678 678" fill="none" xmlns="http://www.w3.org/2000/svg">
<rect x="0.5" y="0.5" width="677" height="677" fill="#126363"/>
<path d="M436.882 384.817C436.315 384.789 435.977 384.739 435.645 384.764C434.677 384.836 433.706 384.899 432.747 385.037C428.441 385.644 424.137 386.293 419.827 386.897C418.433 387.091 417.033 387.254 415.621 386.997C414.412 386.778 413.478 386.199 412.786 385.178C412.053 384.1 411.593 382.913 411.236 381.673C410.428 378.866 409.964 376 409.566 373.109C408.799 367.515 408.229 361.909 408.454 356.261C408.558 353.671 408.933 351.09 409.184 348.506C409.2 348.331 409.215 348.152 409.237 347.895C408.611 348.155 408.075 348.4 407.521 348.6C407.17 348.725 406.797 348.816 406.428 348.866C405.178 349.035 404.696 348.556 404.805 347.278C404.896 346.213 405.451 345.399 406.224 344.713C407.32 343.736 408.611 343.1 409.995 342.665C410.634 342.464 411.085 342.138 411.433 341.565C411.69 341.146 412.034 340.754 412.416 340.441C413.557 339.507 414.875 339.673 415.799 340.817C415.915 340.961 416.025 341.111 416.169 341.302C416.905 341.221 417.647 341.139 418.389 341.058C424.657 340.378 430.937 339.937 437.23 340.604C439.084 340.801 440.919 341.255 442.739 341.697C443.384 341.853 443.998 342.257 444.54 342.665C444.894 342.928 445.188 343.366 445.336 343.786C445.649 344.669 445.116 345.199 444.186 345.142C437.972 344.751 431.764 344.077 425.525 344.666C422.843 344.92 420.165 345.192 417.487 345.462C417.184 345.493 416.886 345.565 416.56 345.625C416.037 351.002 416.366 356.293 416.635 361.602C416.858 361.602 416.955 361.624 417.043 361.599C422.092 360.173 427.269 359.798 432.478 359.826C435.234 359.841 437.984 360.076 440.628 360.978C441.561 361.298 442.445 361.714 443.08 362.482C443.45 362.927 443.773 363.462 443.935 364.013C444.289 365.194 443.71 366.331 442.542 366.729C441.875 366.955 441.135 367.07 440.427 367.061C438.016 367.033 435.607 366.923 433.198 366.848C428.829 366.71 424.507 367.168 420.209 367.91C419.26 368.076 418.302 368.195 417.253 368.352C417.685 371.803 418.111 375.202 418.54 378.628C418.79 378.653 418.947 378.71 419.085 378.678C422.151 377.98 425.274 377.761 428.394 377.476C432.384 377.112 436.368 376.555 440.387 376.736C444.982 376.943 449.58 377.181 454.168 377.51C456.348 377.667 458.519 378.024 460.68 378.381C461.723 378.553 462.76 378.863 463.746 379.252C464.457 379.533 465.153 379.959 465.717 380.476C466.587 381.272 466.879 382.33 466.49 383.483C466.105 384.623 465.15 385.052 464.066 385.093C462.534 385.146 461 385.084 459.465 385.037C454.801 384.896 450.14 384.73 445.48 384.592C444.349 384.557 444.352 384.676 443.967 385.701C443.143 387.899 442.294 390.089 441.355 392.237C440.074 395.163 438.708 398.051 437.364 400.948C436.265 403.319 434.909 405.512 433.161 407.479C430.314 410.686 427.589 414 424.72 417.188C421.641 420.612 418.277 423.747 414.853 426.835C411.684 429.695 407.991 431.759 404.545 434.196C398.106 438.753 391.158 442.446 383.995 445.694C380.584 447.242 376.957 448.306 373.415 449.556C368.159 451.41 362.684 452.284 357.203 453.111C354.449 453.528 351.706 454.063 348.937 454.323C339.525 455.207 330.106 455.445 320.76 453.672C317.349 453.027 313.96 452.197 310.63 451.219C306.095 449.891 301.569 448.494 297.143 446.844C292.21 445.002 287.593 442.446 283.052 439.778C281.244 438.716 279.365 437.77 277.58 436.677C275.578 435.452 273.639 434.13 271.685 432.834C270.642 432.141 269.583 431.462 268.603 430.682C266.179 428.755 263.761 426.817 261.408 424.806C257.202 421.207 253.543 417.079 250.226 412.669C248.028 409.743 246.036 406.661 243.925 403.67C242.847 402.145 241.926 400.506 240.592 399.156C239.984 398.543 239.568 397.744 239.067 397.023C238.083 395.614 237.106 394.198 236.11 392.798C235.602 392.084 235.032 391.414 234.544 390.687C233.895 389.716 233.563 388.604 233.839 387.467C234.03 386.681 234.512 385.967 234.894 385.165C234.797 385.153 234.575 385.09 234.356 385.093C232.567 385.124 230.807 384.94 229.028 384.73C227.02 384.492 224.969 384.651 222.936 384.633C220.371 384.611 217.802 384.601 215.237 384.542C214.717 384.529 214.175 384.385 213.693 384.182C211.776 383.364 211.419 380.918 212.972 379.53C214.385 378.268 216.004 377.623 217.918 377.588C224.493 377.469 231.064 377.238 237.641 377.178C243.214 377.128 248.789 377.244 254.364 377.306C260.29 377.372 266.197 377.09 272.092 376.501C274.322 376.279 276.48 375.794 278.485 374.757C278.789 374.6 279.105 374.45 279.381 374.249C280.251 373.62 280.483 372.99 280.148 371.979C279.462 369.893 278.09 368.305 276.048 367.612C273 366.579 269.887 365.708 266.752 364.981C264.29 364.411 261.765 364.154 259.206 364.161C257.149 364.164 255.091 363.822 253.033 363.653C251.661 363.541 250.286 363.378 248.914 363.393C244.551 363.447 240.213 363.118 235.894 362.57C233.375 362.25 230.907 361.646 228.68 360.321C228.282 360.086 227.819 359.96 227.38 359.798C226.911 359.625 226.422 359.5 225.965 359.3C222.278 357.687 220.8 353.671 222.544 350.035C223.149 348.779 223.941 347.648 225.003 346.746C225.836 346.038 226.682 345.302 227.637 344.791C230.779 343.116 233.967 341.597 237.494 340.77C242.318 339.636 247.173 339.432 252.052 339.849C254.815 340.084 257.559 340.629 260.052 342.035C261.568 342.893 262.605 344.002 262.783 345.809C262.84 346.361 263.09 346.89 263.228 347.432C263.723 349.371 262.909 350.921 261.098 351.397C260.66 351.513 260.133 351.566 259.714 351.438C258.492 351.062 257.236 350.705 256.112 350.116C253.174 348.566 250.057 347.745 246.762 347.573C242.907 347.369 239.057 347.444 235.267 348.293C233.601 348.666 232.05 349.311 230.726 350.429C230.055 350.996 229.786 351.767 229.717 352.584C229.617 353.718 230.155 354.435 231.314 354.658C232.354 354.858 233.422 354.949 234.481 355.034C237.291 355.256 240.097 355.507 242.913 355.644C246.352 355.813 249.794 355.932 253.236 355.983C257.243 356.045 261.249 355.954 265.255 356.033C269.248 356.111 273.179 356.653 276.956 358.05C280.872 359.5 284.483 361.445 287.477 364.421C290.105 367.033 290.895 370.187 290.14 373.736C289.764 375.502 288.705 376.918 287.321 378.071C285.153 379.878 282.622 380.908 279.888 381.497C278.388 381.82 276.887 382.139 275.397 382.493C271.572 383.402 267.679 383.774 263.77 384.044C259.958 384.307 256.149 384.633 252.334 384.802C249.083 384.946 245.823 384.914 242.568 384.943C242.133 384.946 241.701 384.83 241.265 384.792C240.617 384.739 239.959 384.626 239.289 385.046C239.427 385.206 239.514 385.375 239.655 385.456C241.187 386.318 242.318 387.624 243.486 388.889C244.25 389.719 245.061 390.512 245.754 391.395C247.119 393.143 248.573 394.85 249.719 396.738C253.08 402.267 256.754 407.551 261.092 412.359C263.989 415.572 267.068 418.61 270.385 421.382C272.28 422.967 274.344 424.345 276.342 425.805C282.074 429.996 288.301 433.382 294.6 436.595C299.962 439.33 305.675 441.259 311.451 442.979C316.321 444.429 321.267 445.528 326.272 446.39C332.546 447.467 338.836 447.724 345.169 446.931C349.269 446.418 353.391 446.076 357.494 445.607C360.554 445.259 363.536 444.52 366.455 443.561C370.947 442.089 375.463 440.686 379.879 439.016C382.623 437.98 385.179 436.467 387.854 435.239C392.02 433.325 395.922 430.948 399.844 428.599C402.018 427.296 404.323 426.212 406.24 424.508C407.574 423.324 408.946 422.181 410.277 420.994C412.379 419.118 414.575 417.326 416.52 415.3C419.661 412.027 422.646 408.6 425.669 405.214C427.864 402.755 429.737 400.055 431.482 397.261C431.795 396.757 432.093 396.234 432.331 395.692C433.709 392.57 435.071 389.44 436.425 386.308C436.603 385.889 436.694 385.438 436.882 384.817Z" fill="#FEFAE0"/>
<path d="M436.536 323.602C436.411 325.209 435.424 325.626 433.899 325.622C432.282 325.622 430.666 325.936 429.047 326.089C428.455 326.146 427.86 326.133 427.265 326.164C424.515 326.302 421.768 326.456 419.018 326.578C418.335 326.609 417.646 326.546 416.963 326.499C413.768 326.28 410.586 326.499 407.4 326.697C403.964 326.913 400.522 327.051 397.083 327.242C395.52 327.329 393.963 327.499 392.4 327.574C389.697 327.699 387.019 327.536 384.407 326.75C384.11 326.659 383.809 326.562 383.524 326.437C383.082 326.243 382.854 325.892 382.838 325.403C382.822 324.946 383.139 324.733 383.483 324.57C384.924 323.894 386.368 323.217 387.821 322.565C389.76 321.695 391.743 320.909 393.65 319.975C396.009 318.819 398.295 317.523 400.638 316.336C402.73 315.277 404.857 314.284 406.968 313.26C407.241 313.128 407.504 312.975 407.895 312.765C407.228 311.941 406.661 311.158 406.013 310.453C397.926 301.611 388.247 295.193 376.881 291.335C365.818 287.579 354.439 286.013 342.784 286.207C328.025 286.452 313.915 289.609 300.462 295.657C291.748 299.575 283.98 304.884 277.243 311.681C276.983 311.941 276.739 312.217 276.429 312.546C277.66 313.247 278.922 313.601 280.197 313.849C283.686 314.528 287.031 315.656 290.301 317.025C290.674 317.181 291.065 317.303 291.46 317.401C293.039 317.789 294.617 318.171 296.199 318.534C296.531 318.61 296.882 318.641 297.223 318.638C300.127 318.628 302.83 319.552 305.539 320.426C306.097 320.605 306.673 320.874 307.105 321.256C307.547 321.648 307.879 322.199 308.142 322.741C308.23 322.923 308.026 323.339 307.838 323.543C307.669 323.728 307.35 323.828 307.083 323.872C305.079 324.204 303.08 324.579 301.063 324.814C297.768 325.196 294.464 325.507 291.162 325.804C289.261 325.973 287.351 326.039 285.446 326.186C284.861 326.233 284.287 326.415 283.705 326.515C282.659 326.694 281.609 326.866 280.563 327.029C279.082 327.261 277.585 327.405 276.122 327.721C274.064 328.166 272.009 328.535 269.898 328.529C266.472 328.513 263.098 328.996 259.728 329.556C258.215 329.81 256.702 330.111 255.177 330.217C253.977 330.302 252.753 330.167 251.547 330.042C250.319 329.917 249.796 328.933 249.395 327.947C249.154 327.351 249.091 326.678 248.972 326.036C248.913 325.707 248.906 325.369 248.859 324.874C247.628 325.074 246.473 325.175 245.367 325.463C241.471 326.474 237.53 326.738 233.534 326.349C230.824 326.086 228.118 325.817 225.412 325.525C224.262 325.4 223.401 324.817 223.013 323.696C222.64 322.616 222.909 321.663 223.711 320.855C223.799 320.768 223.88 320.674 224.002 320.542C223.602 319.49 223.789 318.409 223.93 317.325C224.172 315.496 224.551 313.667 224.604 311.832C224.648 310.316 224.801 308.837 225.127 307.371C225.888 303.948 226.8 300.568 227.974 297.254C229.239 293.681 230.646 290.173 232.284 286.752C234.996 281.086 238.301 275.78 242.041 270.737C246.31 264.977 251.19 259.778 256.505 254.992C261.52 250.475 266.988 246.57 272.755 243.058C281.813 237.546 291.375 233.167 301.502 230.016C309.93 227.394 318.535 225.687 327.311 224.763C333.866 224.071 340.432 223.88 347.009 224.068C351.673 224.2 356.324 224.591 360.95 225.227C371.321 226.655 381.397 229.242 391.163 232.998C398.605 235.861 405.681 239.456 412.431 243.716C418.52 247.559 424.164 251.954 429.423 256.856C434.754 261.826 439.521 267.289 443.715 273.256C444.811 274.816 446.064 276.275 447.072 277.888C449.901 282.405 452.356 287.112 454.345 292.074C455.955 296.092 457.352 300.17 458.458 304.349C459.705 309.05 460.51 313.827 460.845 318.682C460.873 319.086 460.867 319.499 460.81 319.9C460.585 321.457 459.313 322.509 457.75 322.537C457.139 322.547 456.513 322.638 455.924 322.807C453.287 323.565 450.599 323.962 447.859 323.909C444.141 323.837 440.42 323.712 436.536 323.602ZM454.524 318.143C454.515 317.924 454.521 317.798 454.502 317.676C454.035 314.835 453.622 311.985 453.08 309.16C452.115 304.136 450.628 299.246 448.67 294.529C446.715 289.816 444.351 285.296 441.738 280.895C440.06 278.064 438.343 275.273 436.323 272.673C432.082 267.214 427.302 262.271 422.068 257.758C415.3 251.919 407.889 247.027 399.94 242.974C396.403 241.17 392.729 239.632 389.087 238.044C384.226 235.923 379.161 234.395 374.04 233.054C369.645 231.902 365.188 231.062 360.694 230.405C355.92 229.706 351.125 229.264 346.298 229.076C340.118 228.835 333.957 229.07 327.821 229.759C320.188 230.617 312.684 232.155 305.307 234.348C298.085 236.493 291.103 239.222 284.366 242.598C274.86 247.365 266.346 253.542 258.541 260.721C253.545 265.316 249.157 270.449 245.188 275.953C243.206 278.699 241.367 281.537 239.801 284.538C238.138 287.726 236.396 290.893 235.021 294.21C233.671 297.467 232.603 300.86 231.667 304.261C230.674 307.872 229.609 311.478 228.989 315.183C228.763 316.527 228.688 317.899 228.541 319.308C228.82 319.333 228.97 319.361 229.117 319.358C234.545 319.195 239.945 319.449 245.323 320.226C246.739 320.429 248.177 320.461 249.63 320.573C249.871 319.931 250.078 319.38 250.285 318.826C251.296 316.138 252.599 313.629 254.66 311.565C255.121 311.105 255.553 310.594 255.904 310.046C256.417 309.241 256.646 309.119 257.564 309.21C259.023 309.354 260.489 309.454 261.955 309.561C263.233 309.652 264.533 309.614 265.786 309.836C267.724 310.181 269.638 310.676 271.549 311.155C272.109 311.296 272.463 311.196 272.852 310.757C276.545 306.579 280.745 302.98 285.355 299.86C293.64 294.257 302.598 290.044 312.179 287.203C325.892 283.138 339.893 281.659 354.16 282.843C361.079 283.42 367.869 284.647 374.522 286.655C382.525 289.073 390.033 292.509 396.886 297.333C398.778 298.664 400.716 299.929 402.649 301.204C404.049 302.128 405.249 303.246 406.257 304.593C406.777 305.288 407.372 305.952 408.036 306.51C409.483 307.728 410.811 309.041 411.814 310.657C411.939 310.861 412.121 311.03 412.283 311.227C412.688 311.092 413.048 310.992 413.392 310.851C415.475 309.99 417.549 309.107 419.638 308.261C421.348 307.569 423.08 306.93 424.79 306.234C425.388 305.99 425.984 305.699 426.513 305.329C427.493 304.64 428.013 304.668 428.731 305.617C429.67 306.867 430.585 308.136 431.524 309.382C432.906 311.218 434.14 313.125 434.76 315.374C434.885 315.825 435.139 316.238 435.261 316.69C435.455 317.41 435.878 317.651 436.62 317.667C440.094 317.739 443.568 317.861 447.041 317.971C448.541 318.018 450.045 318.099 451.545 318.14C452.51 318.165 453.475 318.143 454.524 318.143Z" fill="#FEFAE0"/>
<path d="M335.621 437.751C331.314 437.758 327.079 437.078 322.848 436.364C321.091 436.066 319.286 436.029 317.539 435.697C314.407 435.102 311.209 434.788 308.177 433.733C306.758 433.241 305.389 432.599 303.961 432.148C301.749 431.449 299.851 430.2 297.9 429.009C295.551 427.578 293.064 426.369 290.715 424.935C289.443 424.158 288.325 423.13 287.166 422.181C286.27 421.448 285.45 420.625 284.541 419.911C282.477 418.297 280.723 416.39 279.138 414.32C278.13 413.001 277.162 411.654 276.144 410.342C274.255 407.908 273.053 405.127 272.022 402.261C271.847 401.769 271.806 401.221 271.762 400.695C271.668 399.567 272.232 398.706 273.341 398.477C275.204 398.089 277.068 397.772 279.007 397.869C280.495 397.945 281.998 397.691 283.495 397.591C285.838 397.434 288.181 397.287 290.524 397.133C292.115 397.027 293.715 396.758 295.3 396.83C302.094 397.127 308.878 396.488 315.666 396.72C317.57 396.786 319.481 396.842 321.373 397.049C324.599 397.403 327.815 397.133 331.038 397.08C332.031 397.064 333.03 397.218 334.023 397.293C334.396 397.321 334.769 397.381 335.142 397.368C339.492 397.227 343.84 397.043 348.19 396.939C353.292 396.817 358.398 396.717 363.503 396.698C367.979 396.685 372.458 396.786 376.934 396.867C378.566 396.898 380.173 396.873 381.795 396.592C385.165 396.009 388.589 395.99 392 395.89C394.249 395.824 396.494 395.627 398.743 395.552C400.651 395.489 402.561 395.508 404.472 395.511C405.158 395.511 405.847 395.539 406.533 395.599C408.253 395.746 409.029 397.043 408.412 398.659C407.178 401.885 405.506 404.889 403.88 407.924C402.186 411.093 399.883 413.831 397.816 416.738C397.725 416.866 397.625 416.991 397.512 417.095C394.587 419.779 392.041 422.877 388.761 425.176C387.994 425.711 387.192 426.209 386.359 426.632C384.27 427.697 382.193 428.806 380.035 429.717C377.213 430.908 374.322 431.944 371.45 433.016C369.075 433.899 366.689 434.748 364.299 435.587C362.338 436.276 360.309 436.664 358.235 436.774C355.92 436.896 353.606 436.987 351.291 437.1C346.821 437.316 342.349 437.542 337.879 437.748C337.127 437.783 336.372 437.751 335.621 437.751ZM319.869 401.193C319.888 401.453 319.894 401.669 319.919 401.882C320.464 406.649 320.58 411.429 320.345 416.218C320.289 417.386 320.329 417.505 321.488 417.445C324.11 417.308 326.741 417.211 329.35 416.913C334.042 416.377 338.712 415.66 343.442 415.497C343.708 415.488 343.974 415.397 344.344 415.325C344.344 414.865 344.347 414.467 344.344 414.066C344.313 411.72 344.24 409.374 344.256 407.028C344.269 405.139 344.2 403.238 344.795 401.368C343.774 401.368 342.84 401.365 341.91 401.368C339.47 401.374 337.027 401.484 334.597 401.368C331.599 401.227 328.617 400.807 325.62 400.688C323.822 400.616 322.008 400.895 320.201 401.02C320.113 401.027 320.035 401.105 319.869 401.193ZM365.524 400.845C365.254 400.814 365.047 400.764 364.844 400.767C359.654 400.892 354.461 401.017 349.271 401.155C348.983 401.161 348.698 401.243 348.416 401.29C348.575 401.995 348.782 402.565 348.826 403.144C349.086 406.824 349.305 410.505 349.543 414.188C349.565 414.545 349.625 414.902 349.684 415.419C355.162 415.009 360.543 414.648 365.868 415.41C365.536 412.894 365.17 410.517 364.919 408.13C364.662 405.697 364.778 403.269 365.524 400.845Z" fill="#FEFAE0"/>
<path d="M322.758 358.053C322.607 358.842 322.516 359.647 322.294 360.418C321.824 362.037 321.339 363.653 320.756 365.235C320.405 366.181 319.741 366.958 318.905 367.559C316.857 369.031 314.294 368.893 312.321 367.202C311.093 366.15 310.122 364.875 309.317 363.494C308.027 361.276 306.809 359.015 305.565 356.772C305.343 356.368 305.136 355.954 304.744 355.569C304.663 356.327 304.547 357.082 304.51 357.84C304.218 363.625 303.93 369.41 303.67 375.195C303.614 376.476 303.727 377.767 303.645 379.045C303.589 379.906 303.435 380.796 303.128 381.598C302.696 382.728 301.813 383.427 300.535 383.424C299.273 383.42 298.336 382.75 297.898 381.635C297.503 380.633 297.284 379.53 297.161 378.453C296.56 373.144 296.723 367.825 297.005 362.504C297.321 356.499 297.572 350.495 297.857 344.488C297.951 342.486 297.992 340.478 298.189 338.486C298.402 336.353 300.125 334.956 302.195 335.107C303.551 335.204 304.55 335.909 305.23 337.055C305.515 337.537 305.715 338.07 305.922 338.593C308.202 344.328 310.683 349.969 313.662 355.381C313.768 355.572 313.884 355.757 314.006 355.939C314.038 355.986 314.107 356.008 314.285 356.124C314.392 355.394 314.486 354.727 314.583 354.056C315.137 350.276 315.71 346.495 317.035 342.887C317.42 341.835 317.903 340.807 318.454 339.833C319.096 338.699 320.133 337.988 321.379 337.612C323.155 337.077 324.718 337.472 326.053 338.762C327.083 339.758 327.609 341.03 327.919 342.386C328.414 344.553 328.85 346.733 329.326 348.904C330.196 352.863 331.628 356.644 333.106 360.402C334.619 364.248 336.254 368.045 337.801 371.875C338.528 373.673 339.236 375.487 339.844 377.328C340.263 378.6 340.611 379.919 340.777 381.24C340.887 382.108 340.777 383.076 340.498 383.909C339.624 386.521 336.671 387.286 334.556 385.522C333.567 384.695 332.956 383.602 332.492 382.428C331.54 380.01 330.622 377.579 329.667 375.164C327.813 370.478 325.93 365.802 324.076 361.116C323.675 360.105 323.337 359.065 322.971 358.037C322.902 358.047 322.83 358.05 322.758 358.053Z" fill="#FEFAE0"/>
<path d="M375.495 372.828C377.447 372.373 379.254 371.847 381.099 371.54C386.038 370.723 390.984 369.949 395.942 369.276C397.38 369.082 398.88 369.197 400.336 369.345C401.148 369.426 401.993 369.742 402.704 370.159C404.126 370.989 404.781 372.326 404.562 373.971C404.343 375.615 403.353 376.696 401.771 377.175C401.179 377.354 400.543 377.435 399.923 377.482C396.916 377.698 393.978 378.306 391.028 378.876C388.387 379.386 385.725 379.794 383.078 380.27C379.949 380.83 376.92 381.685 374.177 383.367C372.911 384.141 371.549 384.548 370.052 384.21C368.163 383.787 366.951 382.628 366.487 380.755C366.324 380.094 366.268 379.39 366.287 378.707C366.434 373.138 366.587 367.569 366.782 362C366.876 359.34 366.995 356.681 367.223 354.031C367.684 348.744 368.579 343.542 370.559 338.58C370.769 338.057 370.972 337.528 371.245 337.036C371.978 335.702 373.234 335.072 374.502 335.357C375.749 335.639 376.72 336.779 376.798 338.236C376.858 339.357 376.817 340.491 376.717 341.609C376.325 346.004 375.736 350.386 375.517 354.786C375.301 359.128 375.439 363.484 375.429 367.835C375.426 369.213 375.445 370.588 375.458 371.966C375.458 372.242 375.48 372.518 375.495 372.828Z" fill="#FEFAE0"/>
<path d="M357.915 376.856C357.814 378.723 357.846 380.577 357.26 382.359C357.056 382.976 356.797 383.6 356.433 384.135C355.531 385.466 354.15 385.767 352.725 385.015C351.563 384.401 350.833 383.39 350.307 382.231C349.461 380.373 348.759 378.46 348.418 376.446C347.926 373.545 347.535 370.629 347.059 367.729C346.276 362.968 345.727 358.185 345.521 353.362C345.364 349.75 345.54 346.164 346.351 342.631C346.46 342.145 346.617 341.66 346.827 341.212C347.591 339.568 349.113 338.7 350.845 338.878C352.502 339.051 353.918 340.304 354.222 342.067C354.444 343.357 354.535 344.679 354.566 345.989C354.745 353.327 355.681 360.584 356.781 367.829C357.235 370.827 357.539 373.846 357.915 376.856Z" fill="#FEFAE0"/>
<path d="M338.06 319.749C340.033 319.464 341.906 319.195 343.914 318.906C343.885 318.33 343.87 317.685 343.82 317.043C343.672 315.069 343.676 313.096 344.098 311.157C344.236 310.531 344.518 309.914 344.85 309.36C345.17 308.827 345.718 308.526 346.375 308.664C347.058 308.808 347.328 309.353 347.418 309.967C347.503 310.522 347.509 311.088 347.534 311.649C347.722 315.555 347.907 319.461 348.095 323.367C348.142 324.334 348.22 325.299 348.223 326.267C348.227 326.696 348.126 327.141 347.992 327.551C347.716 328.409 347.155 328.829 346.432 328.785C345.668 328.741 345.069 328.221 344.819 327.435C344.377 326.051 344.195 324.632 344.149 323.188C344.139 322.881 344.098 322.574 344.061 322.17C342.235 322.252 340.568 322.865 338.746 323.179C338.93 323.977 339.099 324.67 339.253 325.365C339.397 326.004 339.591 326.643 339.638 327.291C339.676 327.805 339.626 328.369 339.447 328.851C338.955 330.188 337.59 330.473 336.609 329.446C336.255 329.073 335.952 328.588 335.801 328.096C334.818 324.895 333.985 321.663 333.747 318.292C333.606 316.322 333.44 314.374 333.706 312.401C333.878 311.12 334.479 310.096 335.353 309.215C336.002 308.561 336.54 308.752 336.898 309.591C337.646 311.345 337.477 313.215 337.659 315.041C337.784 316.316 337.825 317.6 337.915 318.881C337.95 319.216 338.025 319.542 338.06 319.749Z" fill="#FEFAE0"/>
<path d="M322.856 313.603C322.506 313.582 322.23 313.553 321.954 313.55C319.417 313.538 316.88 313.528 314.346 313.519C314.158 313.519 313.97 313.525 313.782 313.506C312.812 313.406 312.094 312.73 312.016 311.849C311.941 310.985 312.558 310.193 313.535 309.989C314.208 309.848 314.894 309.77 315.58 309.698C317.945 309.441 320.307 309.15 322.678 308.968C324.235 308.849 325.807 308.918 327.37 308.858C328.585 308.811 329.804 308.739 331.013 308.601C332.2 308.464 332.876 308.933 333.02 310.127C333.045 310.343 333.074 310.562 333.08 310.781C333.117 311.784 332.485 312.611 331.489 312.799C330.142 313.052 328.786 313.265 327.373 313.506C327.348 313.738 327.301 313.976 327.301 314.217C327.273 316.911 327.285 319.605 327.21 322.295C327.16 324.074 327.01 325.853 326.862 327.632C326.787 328.55 325.945 329.39 325.115 329.477C324.235 329.571 323.405 328.964 323.148 327.943C322.988 327.31 322.913 326.646 322.878 325.994C322.778 324.153 322.659 322.311 322.662 320.466C322.662 318.405 322.787 316.344 322.86 314.283C322.863 314.092 322.856 313.907 322.856 313.603Z" fill="#FEFAE0"/>
<path d="M356.005 322.183C355.792 322.935 355.62 323.63 355.394 324.307C355.156 325.018 354.89 325.719 354.583 326.402C354.445 326.706 354.22 326.997 353.966 327.217C353.308 327.793 352.519 327.555 352.312 326.697C352.206 326.252 352.203 325.76 352.25 325.3C352.566 322.277 353.051 319.286 353.932 316.367C354.257 315.289 354.589 314.212 354.865 313.122C355.369 311.124 356.321 309.329 357.358 307.578C357.878 306.698 358.495 306.591 359.325 307.183C359.673 307.431 360.03 307.756 360.212 308.129C360.963 309.67 361.624 311.239 362.078 312.918C362.689 315.177 363.557 317.366 364.265 319.602C364.772 321.212 365.22 322.841 365.655 324.47C365.918 325.45 365.781 326.402 365.176 327.245C364.609 328.034 363.848 328.172 363.059 327.614C362.32 327.091 361.8 326.396 361.562 325.516C361.298 324.551 361.026 323.586 360.813 322.609C360.681 322.005 360.368 321.754 359.767 321.817C358.552 321.936 357.336 322.052 356.005 322.183ZM359.917 319.064C359.463 317.617 359.043 316.27 358.62 314.92C358.555 314.923 358.492 314.929 358.426 314.932C357.953 316.204 357.48 317.472 356.992 318.782C358.01 318.882 358.893 318.966 359.917 319.064Z" fill="#FEFAE0"/>
<path d="M374.559 312.245C374.43 313.679 374.371 315.086 374.164 316.467C373.713 319.468 373.187 322.456 372.679 325.447C372.629 325.751 372.517 326.055 372.376 326.33C372.056 326.938 371.542 327.257 370.841 327.198C370.189 327.141 369.632 326.647 369.497 325.939C369.409 325.481 369.413 325.005 369.413 324.536C369.416 320.981 369.86 317.482 370.691 314.027C370.813 313.52 370.872 313 370.972 312.402C370.409 312.402 369.933 312.329 369.488 312.417C368.698 312.571 368 312.304 367.295 312.069C366.663 311.86 366.212 311.427 366.118 310.735C366.02 310.012 366.321 309.398 366.929 309.059C367.489 308.746 368.135 308.574 368.761 308.395C369.115 308.295 369.513 308.233 369.876 308.28C372.802 308.662 375.755 308.305 378.684 308.602C380.178 308.753 381.675 308.881 383.169 309.028C383.448 309.056 383.73 309.106 384.002 309.172C384.889 309.388 385.434 310.037 385.399 310.81C385.362 311.637 384.745 312.257 383.78 312.333C383.128 312.383 382.467 312.339 381.81 312.323C379.589 312.276 377.365 312.223 375.144 312.176C374.957 312.176 374.775 312.22 374.559 312.245Z" fill="#FEFAE0"/>
<path d="M402.379 285.042C402.204 285.371 402.091 285.628 401.944 285.86C401.255 286.947 400.115 287.103 399.15 286.242C398.486 285.65 398.188 284.861 398.022 284.021C397.665 282.198 397.599 280.356 397.719 278.505C397.734 278.258 397.747 278.014 397.765 277.647C397.424 277.666 397.127 277.669 396.832 277.704C394.226 277.995 391.651 277.913 389.099 277.237C386.881 276.648 385.13 275.43 383.846 273.541C381.857 270.619 382.734 266.321 385.791 264.226C386.555 263.703 387.423 263.327 388.244 262.885C387.573 261.592 387.135 261.419 385.804 261.639C382.493 262.187 380.676 264.398 379.405 267.251C379.189 267.737 379.01 268.248 378.728 268.689C378.067 269.726 376.886 270.121 375.881 269.707C374.872 269.291 374.349 268.179 374.641 266.96C374.757 266.478 374.919 265.989 375.154 265.554C375.956 264.079 376.36 262.478 376.821 260.884C377.356 259.023 378.048 257.207 378.697 255.381C378.819 255.033 379.032 254.704 379.261 254.413C379.734 253.808 380.388 253.605 381.005 253.814C381.597 254.015 382.033 254.607 382.02 255.359C382.014 255.885 381.895 256.411 381.801 256.934C381.732 257.329 381.625 257.714 381.506 258.225C381.823 258.14 382.017 258.09 382.211 258.037C383.417 257.708 384.607 257.304 385.832 257.069C389.146 256.43 391.955 258.657 392.184 262.036C392.193 262.162 392.212 262.284 392.231 262.472C396.002 263.173 399.294 264.702 401.455 268.119C401.48 268.125 401.543 268.166 401.596 268.157C403.475 267.843 404.503 268.592 404.813 270.481C405.079 272.103 404.697 273.547 403.56 274.728C402.959 275.351 402.667 276.053 402.514 276.874C402.163 278.74 402.223 280.607 402.426 282.668C402.605 282.358 402.73 282.204 402.793 282.026C403.717 279.401 404.628 276.77 405.558 274.149C405.778 273.531 406.025 272.914 406.341 272.341C406.579 271.912 406.896 271.496 407.262 271.173C407.983 270.54 408.96 270.493 409.705 270.966C410.451 271.442 410.798 272.332 410.52 273.272C410.294 274.039 409.978 274.778 409.655 275.658C409.934 275.58 410.078 275.552 410.21 275.498C413.548 274.177 416.793 274.647 419.948 276.094C421.423 276.77 422.413 277.935 422.51 279.639C422.538 280.147 422.419 280.71 422.209 281.174C421.874 281.913 421.244 282.057 420.59 281.578C420.088 281.212 419.625 280.773 419.218 280.306C418.613 279.614 417.877 279.157 416.997 278.991C415.957 278.794 414.898 278.631 413.843 278.577C412.377 278.499 411.177 279.094 410.241 280.25C409.038 281.735 407.801 283.188 406.576 284.654C406.417 284.845 406.247 285.033 406.075 285.211C404.788 286.549 403.67 286.524 402.379 285.042ZM399.1 271.226C398.909 270.954 398.799 270.731 398.633 270.562C396.306 268.191 393.481 267.377 390.248 267.956C389.684 268.056 389.118 268.335 388.638 268.658C387.937 269.134 387.871 269.695 388.444 270.312C388.836 270.734 389.327 271.107 389.844 271.367C391.119 272.009 392.522 272.191 393.929 272.291C395.692 272.413 397.408 272.244 399.1 271.226Z" fill="#FEFAE0"/>
<path d="M259.805 283.958C261.196 281.474 263.827 280.118 266.496 280.575C269.412 281.076 272.143 282.088 274.232 284.296C276.274 286.454 277.132 289.023 276.453 291.986C275.923 294.294 274.075 295.917 271.73 296.224C270.361 296.402 269.048 296.158 267.755 295.735C267.373 295.61 266.991 295.487 266.571 295.353C266.339 295.779 266.132 296.161 265.926 296.543C264.767 298.673 263.028 300.111 260.764 300.963C258.675 301.749 256.833 301.351 255.173 299.919C254.302 299.171 253.651 298.247 253.218 297.195C252.335 295.049 251.543 292.869 251.179 290.57C251.063 289.834 251.057 289.07 251.095 288.324C251.142 287.419 251.68 286.815 252.401 286.708C253.106 286.602 253.842 287.037 254.124 287.873C254.362 288.578 254.518 289.323 254.606 290.066C254.822 291.848 255.542 293.361 256.842 294.598C257.362 295.093 257.835 295.647 258.38 296.114C259.27 296.875 260.075 296.891 260.867 296.036C261.519 295.334 262.026 294.491 262.549 293.683C262.859 293.207 262.762 292.791 262.292 292.374C261.525 291.688 260.826 290.921 260.131 290.16C259.818 289.815 259.539 289.427 259.304 289.023C258.772 288.105 258.866 287.118 259.508 286.407C260.156 285.69 261.133 285.465 262.086 285.947C263.58 286.702 264.948 287.66 265.891 289.076C266.925 290.633 268.444 290.971 270.135 290.896C270.881 290.861 271.047 290.589 270.968 289.843C270.89 289.095 270.561 288.475 269.997 287.97C268.854 286.943 267.507 286.307 266.041 285.9C264.745 285.543 263.442 285.198 262.154 284.81C261.384 284.566 260.632 284.256 259.805 283.958Z" fill="#FEFAE0"/>
<path d="M300.69 266.478C300.599 266.807 300.527 267.035 300.47 267.267C300.148 268.58 299.741 269.861 298.973 270.991C297.451 273.228 294.535 273.914 292.167 272.595C291.021 271.956 290.021 271.104 289.461 269.929C288.696 268.329 288.048 266.663 287.475 264.981C287.253 264.326 287.306 263.556 287.35 262.845C287.378 262.397 287.56 261.921 287.798 261.538C287.951 261.291 288.349 261.031 288.609 261.056C288.859 261.081 289.176 261.426 289.285 261.704C289.765 262.891 290.15 264.116 290.623 265.306C291.105 266.519 291.901 267.53 292.872 268.388C293.194 268.673 293.57 268.927 293.965 269.099C294.732 269.431 295.396 269.215 295.816 268.492C296.709 266.954 296.884 265.237 296.922 263.509C296.928 263.283 296.693 263.004 296.499 262.832C296.076 262.462 295.597 262.159 295.155 261.811C293.84 260.768 293.548 259.283 294.391 257.993C295.208 256.743 296.918 256.32 298.306 257.047C299.502 257.673 300.207 258.738 300.423 260C300.618 261.131 301.216 261.861 302.065 262.491C304.511 264.298 306.863 266.215 308.805 268.576C309.497 269.419 310.205 270.277 310.728 271.226C312.138 273.773 311.756 275.946 309.582 277.888C307.624 279.639 305.353 280.93 302.917 281.847C301.081 282.536 299.161 283.025 297.25 283.489C295.34 283.952 293.473 283.698 291.685 282.746C292.505 281.233 293.739 280.231 295.337 279.696C296.195 279.407 297.084 279.21 297.965 279C301.056 278.267 303.844 276.889 306.412 275.051C307.443 274.311 307.508 273.967 306.835 272.874C306.572 272.451 306.29 272.025 305.945 271.668C304.445 270.114 302.923 268.586 301.401 267.054C301.216 266.857 300.984 266.71 300.69 266.478Z" fill="#FEFAE0"/>
<path d="M365.769 258.525C365.807 261.356 364.861 263.943 362.637 266.014C361.281 267.276 359.624 267.896 357.848 268.222C355.236 268.698 352.642 268.372 350.146 267.63C346.24 266.468 344.405 263.217 344.947 259.605C345.25 257.579 345.651 255.615 346.688 253.808C347.762 251.941 349.175 250.535 351.311 249.955C351.54 249.892 351.781 249.752 351.934 249.576C353.701 247.568 355.947 247.29 358.371 247.844C362.531 248.796 364.657 251.659 365.512 255.656C365.584 255.991 365.647 256.332 365.675 256.674C365.722 257.234 365.735 257.798 365.769 258.525ZM355.214 262.327C355.89 262.221 356.583 262.161 357.244 261.995C358.55 261.666 359.445 260.883 359.837 259.543C360.2 258.299 360.156 257.081 359.837 255.837C359.477 254.434 358.578 253.563 357.244 253.109C356.861 252.978 356.454 252.915 356.063 252.805C355.098 252.539 354.064 252.404 353.19 251.957C352 251.346 351.155 251.687 350.406 252.57C349.905 253.162 349.397 253.792 349.094 254.49C348.48 255.897 348.389 257.416 349.188 258.75C350.525 260.98 352.489 262.305 355.214 262.327Z" fill="#FEFAE0"/>
<path d="M272.955 274.44C272.93 274.042 272.914 273.742 272.886 273.441C272.733 271.652 272.996 269.945 273.885 268.361C275.235 265.958 277.409 265.134 279.934 266.231C281.274 266.813 282.605 267.512 283.761 268.398C285.794 269.955 287.711 271.668 289.621 273.375C290.119 273.817 290.502 274.44 290.793 275.048C291.219 275.94 290.993 276.911 290.348 277.459C289.609 278.086 288.769 278.095 287.986 277.635C287.347 277.262 286.74 276.789 286.22 276.257C284.181 274.171 281.728 272.667 279.248 271.205C278.931 271.017 278.574 270.894 278.123 270.691C277.979 271.089 277.763 271.421 277.754 271.759C277.732 272.501 277.694 273.281 277.876 273.989C278.411 276.075 279.423 277.867 281.337 279.035C281.948 279.408 282.54 279.837 283.063 280.322C284.059 281.243 284.225 282.518 283.558 283.555C282.906 284.573 281.6 285.061 280.425 284.516C279.473 284.075 278.543 283.489 277.772 282.781C276.003 281.155 273.983 279.934 271.925 278.731C270.202 277.726 268.517 276.62 266.957 275.38C265.949 274.578 265.137 273.494 264.342 272.457C263.784 271.734 264.104 271.223 265.028 271.192C266.061 271.154 266.998 271.508 267.9 271.956C269.328 272.667 270.744 273.403 272.169 274.121C272.391 274.24 272.626 274.312 272.955 274.44Z" fill="#FEFAE0"/>
<path d="M339.636 258.45C338.593 257.576 337.522 256.812 336.188 256.605C335.204 256.455 334.196 256.468 333.196 256.424C331.793 256.361 330.39 256.33 328.987 256.255C328.05 256.205 327.108 256.154 326.18 256.017C325.513 255.916 324.799 255.788 324.223 255.462C322.795 254.657 322.541 252.95 323.559 251.675C324.498 250.501 325.632 249.611 327.076 249.116C329.698 248.218 332.341 247.472 335.157 247.738C335.683 247.788 336.238 247.839 336.711 248.042C337.112 248.218 337.513 248.556 337.744 248.925C338.161 249.602 337.81 250.141 337.018 250.191C334.6 250.347 332.269 250.977 329.923 251.519C329.726 251.566 329.544 251.682 329.347 251.926C329.823 252.026 330.299 252.139 330.775 252.23C333.435 252.731 335.95 253.705 338.459 254.667C339.345 255.005 340.153 255.616 340.917 256.201C342.277 257.244 342.559 258.485 341.797 260.026C341.03 261.579 340.068 263.023 338.684 264.101C336.354 265.914 333.754 267.198 330.838 267.747C329.284 268.038 327.715 267.966 326.177 267.565C323.978 266.992 322.434 265.589 321.41 263.612C320.815 262.466 320.755 261.263 321.441 260.107C322.115 258.973 323.039 258.701 324.126 259.431C324.758 259.857 325.269 260.48 325.792 261.05C326.19 261.489 326.494 262.012 326.891 262.45C327.8 263.456 328.962 263.86 330.287 263.634C331.27 263.465 332.294 263.308 333.187 262.904C334.863 262.143 336.479 261.238 338.083 260.326C338.756 259.947 339.345 259.402 339.636 258.45Z" fill="#FEFAE0"/>
<path d="M413.123 290.169C413.048 290.786 413.308 291.384 413.768 291.854C414.288 292.387 414.849 292.907 415.472 293.314C416.44 293.943 417.499 294.438 418.473 295.058C419.177 295.506 419.92 295.976 420.455 296.599C421.558 297.884 421.035 299.462 419.387 299.857C418.714 300.02 417.928 300.029 417.264 299.851C414.26 299.055 411.648 297.552 409.615 295.168C407.316 292.471 407.375 288.34 409.721 285.681C410.26 285.07 410.833 284.49 411.425 283.933C413.834 281.656 416.853 281.211 419.719 282.868C422.686 284.584 425.05 286.896 426.256 290.222C426.833 291.813 425.849 293.154 424.167 292.882C421.42 292.437 418.673 291.954 415.954 291.366C414.977 291.153 414.078 290.586 413.123 290.169ZM421.614 288.781C420.493 287.623 419.453 286.655 418.213 285.941C417.762 285.681 417.242 285.499 416.731 285.396C415.328 285.104 413.724 286.11 413.342 287.4C415.857 288.894 418.651 288.666 421.614 288.781Z" fill="#FEFAE0"/>
</svg>
