<svg width="60" height="60" viewBox="0 0 60 60" fill="none" xmlns="http://www.w3.org/2000/svg">
<g clip-path="url(#clip0_147_2407)">
<path d="M29.999 5.40234C38.0147 5.40234 38.9639 5.4375 42.1162 5.57812C45.0459 5.70703 46.6279 6.19922 47.6826 6.60938C49.0772 7.14844 50.085 7.80469 51.1279 8.84766C52.1826 9.90234 52.8272 10.8984 53.3662 12.293C53.7764 13.3477 54.2686 14.9414 54.3975 17.8594C54.5381 21.0234 54.5732 21.9727 54.5732 29.9766C54.5732 37.9922 54.5381 38.9414 54.3975 42.0938C54.2686 45.0234 53.7764 46.6055 53.3662 47.6602C52.8272 49.0547 52.1709 50.0625 51.1279 51.1055C50.0732 52.1602 49.0772 52.8047 47.6826 53.3438C46.6279 53.7539 45.0342 54.2461 42.1162 54.375C38.9522 54.5156 38.0029 54.5508 29.999 54.5508C21.9834 54.5508 21.0342 54.5156 17.8818 54.375C14.9522 54.2461 13.3701 53.7539 12.3154 53.3438C10.9209 52.8047 9.91309 52.1484 8.87012 51.1055C7.81543 50.0508 7.1709 49.0547 6.63184 47.6602C6.22168 46.6055 5.72949 45.0117 5.60059 42.0938C5.45996 38.9297 5.42481 37.9805 5.42481 29.9766C5.42481 21.9609 5.45996 21.0117 5.60059 17.8594C5.72949 14.9297 6.22168 13.3477 6.63184 12.293C7.1709 10.8984 7.82715 9.89062 8.87012 8.84766C9.9248 7.79297 10.9209 7.14844 12.3154 6.60938C13.3701 6.19922 14.9639 5.70703 17.8818 5.57812C21.0342 5.4375 21.9834 5.40234 29.999 5.40234ZM29.999 0C21.8545 0 20.835 0.0351562 17.6357 0.175781C14.4482 0.316406 12.2568 0.832031 10.3584 1.57031C8.37793 2.34375 6.70215 3.36328 5.03809 5.03906C3.36231 6.70312 2.34277 8.37891 1.56934 10.3477C0.831055 12.2578 0.31543 14.4375 0.174805 17.625C0.0341797 20.8359 -0.000976562 21.8555 -0.000976562 30C-0.000976562 38.1445 0.0341797 39.1641 0.174805 42.3633C0.31543 45.5508 0.831055 47.7422 1.56934 49.6406C2.34277 51.6211 3.36231 53.2969 5.03809 54.9609C6.70215 56.625 8.37793 57.6562 10.3467 58.418C12.2568 59.1562 14.4365 59.6719 17.624 59.8125C20.8232 59.9531 21.8428 59.9883 29.9873 59.9883C38.1318 59.9883 39.1514 59.9531 42.3506 59.8125C45.5381 59.6719 47.7295 59.1562 49.6279 58.418C51.5967 57.6562 53.2725 56.625 54.9365 54.9609C56.6006 53.2969 57.6318 51.6211 58.3936 49.6523C59.1318 47.7422 59.6475 45.5625 59.7881 42.375C59.9287 39.1758 59.9639 38.1562 59.9639 30.0117C59.9639 21.8672 59.9287 20.8477 59.7881 17.6484C59.6475 14.4609 59.1318 12.2695 58.3936 10.3711C57.6553 8.37891 56.6357 6.70312 54.96 5.03906C53.2959 3.375 51.6201 2.34375 49.6514 1.58203C47.7412 0.84375 45.5615 0.328125 42.374 0.1875C39.1631 0.0351563 38.1436 0 29.999 0Z" fill="#FEFAE0"/>
<path d="M29.999 14.5898C21.4912 14.5898 14.5889 21.4922 14.5889 30C14.5889 38.5078 21.4912 45.4102 29.999 45.4102C38.5068 45.4102 45.4092 38.5078 45.4092 30C45.4092 21.4922 38.5068 14.5898 29.999 14.5898ZM29.999 39.9961C24.4795 39.9961 20.0029 35.5195 20.0029 30C20.0029 24.4805 24.4795 20.0039 29.999 20.0039C35.5186 20.0039 39.9951 24.4805 39.9951 30C39.9951 35.5195 35.5186 39.9961 29.999 39.9961Z" fill="#FEFAE0"/>
<path d="M49.6162 13.9805C49.6162 15.9727 47.999 17.5781 46.0186 17.5781C44.0264 17.5781 42.4209 15.9609 42.4209 13.9805C42.4209 11.9883 44.0381 10.3828 46.0186 10.3828C47.999 10.3828 49.6162 12 49.6162 13.9805Z" fill="#FEFAE0"/>
</g>
<defs>
<clipPath id="clip0_147_2407">
<rect width="60" height="60" fill="white" transform="translate(-0.000976562)"/>
</clipPath>
</defs>
</svg>
