<svg width="58" height="58" viewBox="0 0 58 58" fill="none" xmlns="http://www.w3.org/2000/svg">
<path d="M53.7066 0H4.28203C1.91445 0 0 1.86914 0 4.18008V53.8086C0 56.1195 1.91445 58 4.28203 58H53.7066C56.0742 58 58 56.1195 58 53.8199V4.18008C58 1.86914 56.0742 0 53.7066 0ZM17.2074 49.4246H8.59805V21.7387H17.2074V49.4246ZM12.9027 17.9664C10.1387 17.9664 7.90703 15.7348 7.90703 12.982C7.90703 10.2293 10.1387 7.99766 12.9027 7.99766C15.6555 7.99766 17.8871 10.2293 17.8871 12.982C17.8871 15.7234 15.6555 17.9664 12.9027 17.9664ZM49.4246 49.4246H40.8266V35.9668C40.8266 32.7609 40.7699 28.6262 36.352 28.6262C31.8773 28.6262 31.1977 32.1266 31.1977 35.7402V49.4246H22.6109V21.7387H30.8578V25.5223H30.9711C32.1152 23.3473 34.9246 21.0477 39.1047 21.0477C47.816 21.0477 49.4246 26.7797 49.4246 34.2336V49.4246Z" fill="#FEFAE0"/>
</svg>
