<svg width="73" height="67" viewBox="0 0 73 67" fill="none" xmlns="http://www.w3.org/2000/svg">
<path d="M64.4641 46.0991C64.3016 46.091 64.2046 46.0767 64.1095 46.0838C63.832 46.1045 63.5537 46.1225 63.2789 46.162C62.0444 46.3361 60.8107 46.522 59.5753 46.6953C59.1757 46.751 58.7744 46.7976 58.3694 46.724C58.0229 46.6612 57.7553 46.4951 57.5569 46.2024C57.3468 45.8935 57.2148 45.5532 57.1124 45.1977C56.8808 44.3932 56.7479 43.5716 56.6339 42.7429C56.4139 41.1393 56.2505 39.5322 56.3151 37.9133C56.3448 37.1708 56.4525 36.4309 56.5243 35.6902C56.5288 35.6399 56.5333 35.5888 56.5396 35.5151C56.36 35.5897 56.2065 35.6597 56.0476 35.7171C55.947 35.7531 55.8402 35.7791 55.7342 35.7935C55.376 35.8419 55.2377 35.7046 55.2691 35.3382C55.2952 35.033 55.4541 34.7995 55.6759 34.6029C55.9901 34.3228 56.36 34.1405 56.7569 34.0157C56.94 33.9582 57.0693 33.8649 57.169 33.7006C57.2426 33.5802 57.3414 33.468 57.4509 33.3782C57.7777 33.1107 58.1557 33.1582 58.4206 33.486C58.4538 33.5273 58.4853 33.5704 58.5266 33.6251C58.7376 33.6018 58.9504 33.5784 59.1631 33.5551C60.9598 33.3603 62.76 33.2337 64.5638 33.4249C65.0953 33.4815 65.6215 33.6117 66.1431 33.7383C66.3281 33.7832 66.5041 33.899 66.6594 34.0157C66.7608 34.0911 66.8452 34.2168 66.8874 34.3371C66.9772 34.5903 66.8246 34.7421 66.5579 34.7259C64.7766 34.6137 62.997 34.4206 61.2085 34.5894C60.4399 34.6622 59.6722 34.7403 58.9046 34.8175C58.8175 34.8265 58.7322 34.8471 58.6388 34.8642C58.4889 36.4058 58.5831 37.9223 58.6603 39.4442C58.7241 39.4442 58.7519 39.4504 58.7771 39.4433C60.2244 39.0347 61.7086 38.927 63.2017 38.9351C63.9918 38.9396 64.7802 39.0069 65.538 39.2655C65.8055 39.3571 66.0587 39.4765 66.241 39.6965C66.3469 39.824 66.4394 39.9775 66.4861 40.1355C66.5876 40.474 66.4215 40.7999 66.0866 40.914C65.8953 40.9786 65.6834 41.0118 65.4805 41.0091C64.7891 41.0011 64.0987 40.9696 63.4082 40.9481C62.1557 40.9086 60.9167 41.0397 59.6848 41.2525C59.4127 41.3 59.138 41.3342 58.8372 41.3791C58.9611 42.3685 59.0832 43.3427 59.2062 44.3249C59.2781 44.3321 59.323 44.3483 59.3625 44.3393C60.2415 44.1391 61.1366 44.0762 62.0309 43.9945C63.1748 43.8904 64.3169 43.7306 65.4688 43.7826C66.786 43.8419 68.104 43.9101 69.4194 44.0044C70.0443 44.0493 70.6665 44.1516 71.2861 44.254C71.585 44.3034 71.8822 44.3923 72.1651 44.5036C72.3689 44.5844 72.5682 44.7065 72.7298 44.8547C72.9794 45.0827 73.0629 45.3862 72.9516 45.7166C72.8412 46.0434 72.5673 46.1664 72.2566 46.1781C71.8176 46.1934 71.3776 46.1754 70.9377 46.162C69.6008 46.1216 68.2648 46.074 66.9287 46.0345C66.6046 46.0246 66.6055 46.0587 66.4951 46.3523C66.2589 46.9826 66.0156 47.6102 65.7463 48.2261C65.379 49.0647 64.9876 49.8926 64.6024 50.7231C64.2872 51.4028 63.8985 52.0313 63.3975 52.5951C62.5813 53.5145 61.8002 54.4645 60.9777 55.3785C60.0951 56.3599 59.1308 57.2586 58.1495 58.1439C57.2408 58.9637 56.1823 59.5554 55.1946 60.2539C53.3486 61.5603 51.3571 62.6188 49.3037 63.5499C48.326 63.9935 47.2862 64.2987 46.2708 64.657C44.7642 65.1885 43.1947 65.439 41.6234 65.6761C40.8342 65.7955 40.0477 65.949 39.254 66.0235C36.5559 66.2767 33.856 66.345 31.1768 65.8368C30.1991 65.6518 29.2276 65.4139 28.2731 65.1338C26.973 64.7531 25.6756 64.3526 24.407 63.8794C22.9928 63.3515 21.6694 62.6189 20.3675 61.8539C19.8494 61.5495 19.3107 61.2783 18.7989 60.965C18.2252 60.6139 17.6694 60.235 17.1091 59.8633C16.8102 59.6649 16.5067 59.4701 16.2257 59.2465C15.5307 58.6943 14.8376 58.1385 14.1633 57.5621C12.9574 56.5305 11.9087 55.3471 10.9579 54.0829C10.3276 53.2443 9.75657 52.3608 9.15141 51.5033C8.84255 51.0661 8.57858 50.5965 8.19609 50.2095C8.0219 50.0335 7.90249 49.8046 7.75883 49.5981C7.4769 49.194 7.19677 48.7882 6.91125 48.3869C6.76579 48.1822 6.60238 47.99 6.46232 47.7817C6.27646 47.5034 6.18129 47.1846 6.2603 46.8587C6.31507 46.6333 6.45334 46.4286 6.56288 46.1988C6.53504 46.1952 6.4713 46.1772 6.40845 46.1781C5.89577 46.1871 5.39117 46.1341 4.88118 46.074C4.30566 46.0057 3.71756 46.0515 3.13485 46.0461C2.3995 46.0399 1.66325 46.0372 0.927904 46.0201C0.778859 46.0165 0.623529 45.9752 0.485258 45.9168C-0.0642324 45.6825 -0.166588 44.9813 0.278751 44.5835C0.683686 44.2217 1.14788 44.0367 1.69647 44.0268C3.58108 43.9927 5.46479 43.9263 7.3503 43.9092C8.9476 43.8949 10.5458 43.9281 12.144 43.946C13.8427 43.9649 15.5361 43.8841 17.2259 43.7153C17.8651 43.6515 18.4838 43.5124 19.0584 43.2152C19.1455 43.1703 19.2362 43.1272 19.3152 43.0697C19.5648 42.8893 19.6312 42.7088 19.5352 42.4188C19.3385 41.8208 18.9453 41.3656 18.3599 41.1672C17.4863 40.8709 16.5938 40.6213 15.695 40.413C14.9893 40.2495 14.2656 40.1759 13.5321 40.1777C12.9422 40.1786 12.3523 40.0807 11.7624 40.0323C11.3691 39.9999 10.975 39.9533 10.5817 39.9577C9.33098 39.973 8.08745 39.8787 6.8493 39.7216C6.12742 39.63 5.4199 39.4567 4.78152 39.0769C4.66749 39.0096 4.53461 38.9737 4.40891 38.927C4.27423 38.8776 4.13416 38.8417 4.00308 38.7842C2.94629 38.3218 2.5225 37.1708 3.02261 36.1284C3.1959 35.7683 3.42306 35.4442 3.72743 35.1856C3.96626 34.9827 4.20869 34.7717 4.48253 34.6253C5.38309 34.145 6.29711 33.7095 7.3081 33.4725C8.69081 33.1475 10.0825 33.0891 11.4814 33.2085C12.2733 33.2759 13.0598 33.4321 13.7745 33.8352C14.2091 34.0812 14.5062 34.3991 14.5574 34.9172C14.5736 35.0752 14.6454 35.2269 14.6849 35.3822C14.8268 35.938 14.5933 36.3825 14.0744 36.5189C13.9487 36.5522 13.7978 36.5674 13.6775 36.5306C13.3274 36.4229 12.9673 36.3205 12.645 36.1517C11.8028 35.7073 10.9094 35.472 9.96487 35.4226C8.85961 35.3643 7.75613 35.3858 6.66972 35.6292C6.19206 35.736 5.74762 35.921 5.36783 36.2415C5.17568 36.404 5.09847 36.6249 5.07871 36.8592C5.04998 37.1843 5.20441 37.3899 5.53662 37.4536C5.83471 37.5111 6.14088 37.5371 6.44436 37.5614C7.24974 37.6251 8.05422 37.6969 8.8614 37.7364C9.84725 37.7849 10.834 37.819 11.8207 37.8334C12.9691 37.8514 14.1175 37.8253 15.2658 37.8478C16.4106 37.8702 17.5374 38.0255 18.6202 38.426C19.7426 38.8417 20.7778 39.3993 21.6362 40.2522C22.3895 41.0011 22.6157 41.9052 22.3993 42.9225C22.2916 43.4289 21.9881 43.8347 21.5913 44.1651C20.9699 44.6832 20.2445 44.9786 19.4606 45.1474C19.0306 45.2399 18.6005 45.3314 18.1731 45.4329C17.0768 45.6933 15.9608 45.8001 14.8403 45.8773C13.7476 45.9528 12.6558 46.0461 11.5622 46.0946C10.6302 46.1359 9.69551 46.1269 8.76264 46.135C8.63783 46.1359 8.51393 46.1027 8.38913 46.0919C8.20327 46.0767 8.01472 46.0443 7.82258 46.1647C7.86208 46.2104 7.88722 46.2589 7.92763 46.2823C8.36668 46.5292 8.69081 46.9036 9.02571 47.2663C9.24479 47.5043 9.47733 47.7314 9.67576 47.9846C10.0672 48.4856 10.4838 48.975 10.8125 49.5164C11.7759 51.1011 12.829 52.6158 14.0726 53.994C14.9031 54.9152 15.7857 55.7861 16.7365 56.5807C17.2797 57.0351 17.8714 57.4301 18.4443 57.8485C20.0874 59.0499 21.8723 60.0204 23.6779 60.9416C25.215 61.7255 26.8527 62.2786 28.5084 62.7715C29.9046 63.1872 31.3223 63.5023 32.7571 63.7493C34.5555 64.0581 36.3584 64.1317 38.1739 63.9046C39.3492 63.7573 40.5307 63.6595 41.7069 63.5248C42.5842 63.4251 43.4389 63.2132 44.2757 62.9385C45.5633 62.5165 46.858 62.1143 48.124 61.6357C48.9105 61.3385 49.6431 60.9048 50.4099 60.5529C51.6041 60.0043 52.7228 59.3228 53.8469 58.6494C54.47 58.2759 55.1309 57.9652 55.6803 57.4768C56.0628 57.1374 56.4561 56.8097 56.8377 56.4694C57.4402 55.9316 58.0696 55.418 58.6271 54.8371C59.5277 53.8988 60.3833 52.9166 61.2498 51.946C61.8792 51.2412 62.4161 50.4672 62.9162 49.6663C63.006 49.5218 63.0913 49.3718 63.1595 49.2165C63.5546 48.3213 63.9452 47.4244 64.333 46.5265C64.3842 46.4062 64.4102 46.2769 64.4641 46.0991Z" fill="#FEFAE0"/>
<path d="M64.3657 28.5517C64.3298 29.0123 64.047 29.1318 63.6097 29.1309C63.1464 29.1309 62.6831 29.2206 62.2189 29.2646C62.0492 29.2808 61.8787 29.2772 61.7081 29.2862C60.9197 29.3257 60.1323 29.3697 59.344 29.4047C59.1483 29.4137 58.9507 29.3957 58.755 29.3823C57.8392 29.3194 56.927 29.3823 56.0138 29.4388C55.0289 29.5008 54.0421 29.5403 53.0563 29.5951C52.6082 29.6202 52.162 29.6687 51.714 29.6902C50.9391 29.7261 50.1714 29.6795 49.4226 29.4541C49.3373 29.4281 49.2511 29.4002 49.1694 29.3643C49.0428 29.3086 48.9773 29.2081 48.9728 29.068C48.9683 28.9369 49.059 28.8759 49.1578 28.8292C49.5708 28.6352 49.9847 28.4413 50.4013 28.2546C50.9571 28.0049 51.5254 27.7796 52.0722 27.512C52.7483 27.1807 53.4037 26.809 54.0753 26.4687C54.6751 26.1652 55.2848 25.8806 55.8899 25.587C55.968 25.5493 56.0435 25.5053 56.1557 25.4451C55.9644 25.209 55.8019 24.9845 55.6161 24.7825C53.2978 22.2479 50.5234 20.4081 47.2651 19.302C44.0938 18.2255 40.8319 17.7765 37.491 17.8322C33.2602 17.9022 29.2154 18.8073 25.3591 20.541C22.8612 21.6643 20.6345 23.1861 18.7032 25.1345C18.6287 25.209 18.5587 25.288 18.4698 25.3823C18.8226 25.5834 19.1845 25.6849 19.5499 25.7558C20.5501 25.9506 21.509 26.2739 22.4464 26.6662C22.5533 26.7111 22.6655 26.7461 22.7786 26.774C23.2311 26.8853 23.6837 26.9949 24.1371 27.099C24.2323 27.1206 24.3328 27.1295 24.4307 27.1286C25.263 27.1259 26.0379 27.3908 26.8145 27.6413C26.9743 27.6925 27.1395 27.7697 27.2634 27.8792C27.39 27.9915 27.4852 28.1495 27.5606 28.3048C27.5858 28.3569 27.5274 28.4763 27.4735 28.5347C27.425 28.5877 27.3335 28.6164 27.2571 28.629C26.6825 28.7241 26.1097 28.8319 25.5315 28.8992C24.5869 29.0088 23.6397 29.0976 22.6933 29.1829C22.1483 29.2314 21.6006 29.2503 21.0547 29.2925C20.8868 29.3059 20.7225 29.358 20.5555 29.3868C20.2556 29.4379 19.9548 29.4873 19.655 29.534C19.2303 29.6004 18.8011 29.6417 18.3818 29.7324C17.7919 29.8599 17.2029 29.9659 16.5977 29.9641C15.6155 29.9596 14.6485 30.0979 13.6824 30.2586C13.2487 30.3313 12.8151 30.4175 12.3778 30.448C12.0339 30.4723 11.6829 30.4337 11.3372 30.3977C10.9852 30.3618 10.8353 30.0799 10.7203 29.7971C10.6512 29.6265 10.6333 29.4334 10.5991 29.2494C10.5821 29.1551 10.5803 29.0581 10.5668 28.9163C10.214 28.9737 9.88264 29.0025 9.5657 29.0851C8.44876 29.3751 7.31925 29.4505 6.17358 29.3392C5.39693 29.2637 4.62118 29.1865 3.84543 29.103C3.51591 29.0671 3.269 28.9001 3.15767 28.5787C3.05082 28.2689 3.12804 27.996 3.35789 27.7643C3.38303 27.7392 3.40637 27.7122 3.44139 27.6745C3.32646 27.3729 3.38034 27.0631 3.42074 26.7524C3.48988 26.2281 3.59852 25.7037 3.61378 25.1776C3.62635 24.743 3.67035 24.3192 3.76372 23.899C3.9819 22.9177 4.24318 21.9489 4.57988 20.9989C4.94261 19.9745 5.34575 18.9689 5.81533 17.9884C6.59288 16.3642 7.54013 14.8432 8.61217 13.3977C9.83596 11.7465 11.2348 10.256 12.7585 8.88411C14.196 7.58939 15.7636 6.46976 17.4166 5.46326C20.0132 3.88303 22.7544 2.62782 25.6572 1.72457C28.0733 0.973059 30.5397 0.483725 33.0555 0.218856C34.9348 0.0204288 36.8167 -0.0343408 38.7022 0.0195309C40.0391 0.057241 41.3724 0.169473 42.6986 0.351739C45.6714 0.761163 48.5598 1.5028 51.3593 2.57933C53.4926 3.39998 55.5209 4.43072 57.4558 5.65181C59.2012 6.75348 60.8192 8.01318 62.3267 9.41834C63.8548 10.8432 65.2214 12.4091 66.4236 14.1195C66.7379 14.5667 67.097 14.9851 67.3861 15.4475C68.1969 16.7422 68.9008 18.0917 69.471 19.5139C69.9325 20.6658 70.3329 21.8348 70.6498 23.0326C71.0072 24.3803 71.238 25.7495 71.334 27.1412C71.3421 27.257 71.3403 27.3755 71.3241 27.4905C71.2595 27.9367 70.895 28.2384 70.4469 28.2465C70.2719 28.2492 70.0923 28.2752 69.9235 28.3237C69.1675 28.541 68.3971 28.655 67.6115 28.6397C66.5457 28.6191 65.4791 28.5832 64.3657 28.5517ZM69.5221 26.9868C69.5194 26.9239 69.5212 26.888 69.5159 26.853C69.3821 26.0386 69.2636 25.2216 69.1082 24.4117C68.8317 22.9715 68.4052 21.57 67.844 20.2178C67.2838 18.8665 66.6059 17.5709 65.8571 16.3094C65.3758 15.4978 64.8838 14.6978 64.3047 13.9525C63.089 12.3876 61.7188 10.9707 60.2185 9.67692C58.2782 8.00331 56.1539 6.60085 53.8751 5.43902C52.8614 4.92185 51.8082 4.481 50.764 4.02578C49.3706 3.41793 47.9187 2.97978 46.4507 2.59549C45.191 2.26508 43.9134 2.02445 42.6249 1.8359C41.2566 1.63568 39.882 1.50908 38.4984 1.45521C36.7269 1.38607 34.9608 1.45341 33.2019 1.65094C31.0138 1.89696 28.8625 2.33781 26.7481 2.96631C24.6776 3.58134 22.6763 4.36338 20.745 5.33127C18.02 6.69782 15.5796 8.4684 13.3421 10.5263C11.91 11.8435 10.6521 13.3151 9.51452 14.8926C8.94617 15.68 8.41913 16.4935 7.9702 17.3536C7.49344 18.2677 6.99423 19.1754 6.60006 20.1262C6.21309 21.06 5.90692 22.0324 5.63846 23.0075C5.35383 24.0427 5.04856 25.0761 4.87079 26.1383C4.80614 26.5235 4.78459 26.9167 4.74239 27.3208C4.8223 27.328 4.8654 27.336 4.9076 27.3351C6.46359 27.2885 8.0115 27.3612 9.55313 27.5838C9.95896 27.6422 10.3711 27.6512 10.7877 27.6835C10.8568 27.4995 10.9161 27.3414 10.9753 27.1825C11.2653 26.4121 11.6389 25.693 12.2297 25.1013C12.3616 24.9693 12.4855 24.8229 12.5861 24.6658C12.7334 24.4351 12.7989 24.4 13.062 24.4261C13.4804 24.4674 13.9006 24.4961 14.3208 24.5266C14.6871 24.5527 15.0597 24.5419 15.4189 24.6056C15.9746 24.7044 16.5232 24.8463 17.0709 24.9836C17.2316 25.024 17.3331 24.9953 17.4444 24.8696C18.503 23.6719 19.707 22.6402 21.0287 21.746C23.4035 20.1397 25.9714 18.9321 28.718 18.1177C32.6488 16.9523 36.6622 16.5285 40.752 16.8679C42.7354 17.0331 44.6819 17.3851 46.589 17.9606C48.883 18.6537 51.0352 19.6387 52.9997 21.0214C53.542 21.403 54.0978 21.7657 54.6518 22.1311C55.0531 22.396 55.397 22.7165 55.6861 23.1026C55.8352 23.302 56.0057 23.4923 56.1961 23.6521C56.6109 24.0014 56.9916 24.3776 57.2789 24.8409C57.3148 24.8992 57.3669 24.9477 57.4136 25.0043C57.5294 24.9657 57.6327 24.937 57.7314 24.8966C58.3285 24.6496 58.9229 24.3964 59.5218 24.154C60.012 23.9556 60.5085 23.7724 60.9987 23.5731C61.1702 23.5031 61.3408 23.4196 61.4926 23.3136C61.7736 23.1161 61.9226 23.1242 62.1283 23.3962C62.3976 23.7545 62.6598 24.1181 62.9291 24.4755C63.3251 25.0016 63.6789 25.5484 63.8566 26.1931C63.8926 26.3224 63.9653 26.4409 64.0003 26.5702C64.056 26.7767 64.1772 26.8458 64.39 26.8503C65.3857 26.8709 66.3814 26.906 67.3772 26.9374C67.8072 26.9509 68.2382 26.9742 68.6683 26.9859C68.9448 26.9931 69.2214 26.9868 69.5221 26.9868Z" fill="#FEFAE0"/>
<path d="M35.4384 61.2731C34.2038 61.2749 32.9899 61.08 31.7769 60.8753C31.2732 60.79 30.756 60.7793 30.255 60.6841C29.3572 60.5135 28.4404 60.4237 27.5713 60.1211C27.1646 59.9802 26.7722 59.7961 26.3628 59.6668C25.7289 59.4666 25.1848 59.1083 24.6254 58.7672C23.952 58.3568 23.2391 58.0103 22.5657 57.599C22.2012 57.3764 21.8807 57.0819 21.5485 56.8098C21.2917 56.5997 21.0564 56.3636 20.7961 56.1589C20.2044 55.6965 19.7016 55.1497 19.2472 54.5562C18.9581 54.1782 18.6807 53.7921 18.3889 53.4159C17.8475 52.7183 17.5027 51.921 17.2073 51.0994C17.157 50.9585 17.1454 50.8013 17.1328 50.6505C17.1058 50.3273 17.2675 50.0804 17.5853 50.0148C18.1195 49.9035 18.6538 49.8128 19.2095 49.8406C19.636 49.8622 20.067 49.7894 20.4962 49.7607C21.1678 49.7158 21.8394 49.6736 22.511 49.6296C22.9671 49.5991 23.4259 49.5219 23.8802 49.5425C25.8277 49.6278 27.7724 49.4447 29.7181 49.5111C30.264 49.53 30.8117 49.5461 31.354 49.6054C32.2788 49.7068 33.2009 49.6296 34.1248 49.6144C34.4094 49.6099 34.6958 49.6539 34.9805 49.6754C35.0873 49.6835 35.1941 49.7006 35.301 49.697C36.5481 49.6566 37.7944 49.6036 39.0415 49.574C40.5041 49.5389 41.9676 49.5102 43.4311 49.5048C44.7142 49.5012 45.9981 49.53 47.2812 49.5533C47.7489 49.5623 48.2095 49.5551 48.6746 49.4743C49.6407 49.3073 50.6221 49.3019 51.5999 49.2732C52.2445 49.2543 52.8883 49.1978 53.533 49.1762C54.0798 49.1583 54.6274 49.1636 55.1751 49.1645C55.3718 49.1645 55.5693 49.1726 55.7659 49.1897C56.2589 49.2319 56.4815 49.6036 56.3046 50.0669C55.9509 50.9917 55.4714 51.8527 55.0054 52.7228C54.5197 53.6314 53.8598 54.4161 53.2672 55.2493C53.2411 55.2862 53.2124 55.3221 53.1801 55.3517C52.3415 56.1212 51.6115 57.0091 50.6715 57.6682C50.4515 57.8217 50.2216 57.9645 49.9828 58.0857C49.3839 58.391 48.7887 58.7088 48.17 58.9701C47.3611 59.3113 46.5323 59.6085 45.709 59.9155C45.0284 60.1687 44.3442 60.412 43.6592 60.6527C43.0971 60.8502 42.5153 60.9615 41.9209 60.993C41.2574 61.028 40.5939 61.054 39.9304 61.0863C38.6491 61.1483 37.367 61.2129 36.0857 61.2722C35.8702 61.2821 35.6539 61.2731 35.4384 61.2731ZM30.923 50.7933C30.9284 50.8678 30.9302 50.9297 30.9374 50.9908C31.0936 52.3573 31.1268 53.7275 31.0595 55.1003C31.0433 55.4352 31.055 55.4693 31.3872 55.4523C32.1387 55.4127 32.8929 55.3849 33.6408 55.2996C34.9858 55.1461 36.3246 54.9405 37.6803 54.8938C37.7566 54.8911 37.833 54.8651 37.9389 54.8444C37.9389 54.7124 37.9398 54.5984 37.9389 54.4835C37.9299 53.811 37.9093 53.1385 37.9138 52.466C37.9174 51.9246 37.8976 51.3796 38.0682 50.8435C37.7755 50.8435 37.5079 50.8426 37.2413 50.8435C36.5418 50.8453 35.8415 50.8768 35.1448 50.8435C34.2855 50.8031 33.4307 50.6828 32.5715 50.6487C32.0561 50.628 31.5363 50.708 31.0182 50.7439C30.9931 50.7457 30.9706 50.7681 30.923 50.7933ZM44.0102 50.6936C43.933 50.6846 43.8738 50.6702 43.8154 50.6711C42.3276 50.7071 40.839 50.743 39.3512 50.7825C39.2686 50.7843 39.1869 50.8076 39.1061 50.8211C39.1519 51.0231 39.2112 51.1865 39.2237 51.3526C39.2983 52.4076 39.3611 53.4626 39.4294 54.5185C39.4356 54.6208 39.4527 54.7232 39.4698 54.8713C41.0401 54.7537 42.5826 54.6505 44.109 54.8686C44.0138 54.1477 43.9088 53.4662 43.837 52.782C43.7633 52.0844 43.7966 51.3885 44.0102 50.6936Z" fill="#FEFAE0"/>
<path d="M31.7506 38.4276C31.7075 38.6538 31.6815 38.8846 31.6177 39.1055C31.483 39.5697 31.3439 40.033 31.1769 40.4864C31.0763 40.7575 30.886 40.9802 30.6462 41.1526C30.059 41.5746 29.3246 41.5351 28.7589 41.0502C28.407 40.7485 28.1286 40.3831 27.8979 39.9872C27.528 39.3515 27.1787 38.7032 26.8223 38.0604C26.7585 37.9445 26.6992 37.826 26.587 37.7156C26.5637 37.9329 26.5304 38.1492 26.5197 38.3665C26.4362 40.0249 26.3536 41.6832 26.279 43.3416C26.2629 43.7088 26.2952 44.0787 26.2719 44.445C26.2557 44.6919 26.2117 44.9469 26.1237 45.1768C25.9998 45.5009 25.7466 45.7011 25.3803 45.7002C25.0185 45.6993 24.75 45.5072 24.6243 45.1876C24.5112 44.9003 24.4483 44.5842 24.4133 44.2753C24.2409 42.7535 24.2876 41.2289 24.3684 39.7034C24.4591 37.9822 24.5309 36.261 24.6126 34.5389C24.6396 33.9652 24.6512 33.3897 24.7078 32.8186C24.7688 32.2072 25.2627 31.8068 25.8562 31.8498C26.2449 31.8777 26.5313 32.0797 26.7262 32.4083C26.8079 32.5466 26.8654 32.6992 26.9246 32.8492C27.5783 34.4931 28.2894 36.1102 29.1432 37.6617C29.1738 37.7165 29.207 37.7694 29.242 37.8215C29.251 37.835 29.2707 37.8413 29.3219 37.8745C29.3524 37.6653 29.3794 37.474 29.4072 37.2819C29.5661 36.1982 29.7304 35.1145 30.1102 34.0801C30.2207 33.7785 30.3589 33.484 30.5169 33.2047C30.701 32.8797 30.9982 32.6759 31.3556 32.5681C31.8646 32.4146 32.3127 32.5277 32.6952 32.8977C32.9906 33.1832 33.1414 33.5477 33.2303 33.9365C33.3721 34.5578 33.497 35.1827 33.6334 35.8049C33.883 36.9398 34.2934 38.0235 34.7171 39.101C35.1508 40.2035 35.6195 41.2917 36.063 42.3898C36.2713 42.9052 36.4743 43.4251 36.6484 43.953C36.7688 44.3175 36.8684 44.6955 36.916 45.0744C36.9474 45.3231 36.916 45.6006 36.8361 45.8394C36.5856 46.5882 35.7389 46.8073 35.1329 46.3018C34.8491 46.0648 34.674 45.7514 34.5412 45.4147C34.2682 44.7216 34.0051 44.0248 33.7313 43.3326C33.1998 41.9894 32.6601 40.6489 32.1286 39.3057C32.0137 39.0157 31.9167 38.7176 31.8117 38.4231C31.7919 38.4258 31.7713 38.4267 31.7506 38.4276Z" fill="#FEFAE0"/>
<path d="M46.8673 42.6628C47.4266 42.5326 47.9447 42.3817 48.4735 42.2938C49.8895 42.0594 51.3072 41.8376 52.7285 41.6446C53.1406 41.5889 53.5707 41.6222 53.9882 41.6644C54.2207 41.6877 54.4632 41.7784 54.667 41.8978C55.0746 42.1357 55.2623 42.5191 55.1994 42.9905C55.1366 43.4619 54.8528 43.7716 54.3994 43.909C54.2297 43.9602 54.0475 43.9835 53.8697 43.997C53.0077 44.059 52.1655 44.2331 51.3198 44.3966C50.5629 44.5429 49.7997 44.6596 49.041 44.7961C48.144 44.9568 47.2758 45.2019 46.4893 45.6841C46.1265 45.9059 45.736 46.0226 45.3068 45.9256C44.7654 45.8044 44.4179 45.4722 44.285 44.9353C44.2383 44.7458 44.2222 44.5438 44.2276 44.3481C44.2698 42.7517 44.3138 41.1553 44.3694 39.5589C44.3964 38.7966 44.4305 38.0343 44.496 37.2747C44.628 35.7591 44.8848 34.2678 45.4522 32.8456C45.5124 32.6956 45.5708 32.5439 45.6489 32.4029C45.859 32.0204 46.219 31.84 46.5826 31.9217C46.94 32.0025 47.2183 32.3293 47.2408 32.7468C47.2578 33.0682 47.2462 33.3933 47.2174 33.7138C47.1052 34.9735 46.9364 36.2296 46.8735 37.4911C46.8116 38.7355 46.8511 39.9845 46.8484 41.2316C46.8475 41.6267 46.8529 42.0208 46.8565 42.4159C46.8565 42.4949 46.8628 42.5739 46.8673 42.6628Z" fill="#FEFAE0"/>
<path d="M41.8275 43.817C41.7988 44.3521 41.8077 44.8836 41.6398 45.3945C41.5815 45.5714 41.507 45.7501 41.4028 45.9036C41.1442 46.2852 40.7483 46.3714 40.3397 46.1559C40.0066 45.9799 39.7974 45.6899 39.6466 45.3577C39.4042 44.8253 39.203 44.2767 39.1052 43.6994C38.9642 42.8679 38.852 42.032 38.7155 41.2006C38.491 39.8359 38.3339 38.4648 38.2747 37.0821C38.2298 36.0469 38.28 35.0188 38.5126 34.0061C38.544 33.8669 38.5889 33.7277 38.6491 33.5993C38.8681 33.128 39.3045 32.8792 39.801 32.9304C40.276 32.9798 40.6818 33.339 40.7689 33.8444C40.8327 34.2144 40.8587 34.5933 40.8677 34.9686C40.9189 37.0723 41.1873 39.1526 41.5025 41.2294C41.6327 42.0886 41.7198 42.9541 41.8275 43.817Z" fill="#FEFAE0"/>
<path d="M36.1362 27.4478C36.7019 27.3661 37.2388 27.2889 37.8143 27.2063C37.8062 27.0411 37.8017 26.8561 37.7874 26.6721C37.7452 26.1064 37.7461 25.5408 37.8673 24.985C37.9068 24.8054 37.9876 24.6285 38.0828 24.4696C38.1744 24.317 38.3315 24.2308 38.52 24.2703C38.7158 24.3116 38.793 24.4678 38.819 24.6438C38.8433 24.8027 38.8451 24.9652 38.8522 25.126C38.9061 26.2456 38.9591 27.3652 39.013 28.4849C39.0264 28.7623 39.0489 29.0388 39.0498 29.3163C39.0507 29.4393 39.0219 29.5668 38.9833 29.6844C38.9043 29.9304 38.7436 30.0507 38.5362 30.0382C38.3171 30.0256 38.1456 29.8765 38.0738 29.6512C37.9472 29.2543 37.8951 28.8476 37.8817 28.4337C37.879 28.3457 37.8673 28.2577 37.8565 28.1419C37.3331 28.1652 36.8554 28.3412 36.3328 28.431C36.3858 28.6599 36.4343 28.8584 36.4783 29.0577C36.5196 29.2409 36.5753 29.424 36.5887 29.6099C36.5995 29.7571 36.5851 29.9187 36.534 30.057C36.393 30.4404 36.0015 30.5221 35.7205 30.2276C35.619 30.1208 35.532 29.9816 35.4889 29.8406C35.2069 28.923 34.9681 27.9964 34.8999 27.0303C34.8595 26.4656 34.8119 25.9071 34.8882 25.3414C34.9376 24.9742 35.11 24.6806 35.3605 24.4283C35.5463 24.2407 35.7008 24.2954 35.8031 24.5361C36.0177 25.0389 35.9692 25.5749 36.0213 26.0983C36.0572 26.4638 36.0689 26.8319 36.0949 27.1991C36.1048 27.2952 36.1263 27.3886 36.1362 27.4478Z" fill="#FEFAE0"/>
<path d="M31.7763 25.6857C31.6757 25.6794 31.5967 25.6713 31.5177 25.6704C30.7904 25.6668 30.0631 25.6641 29.3368 25.6614C29.2829 25.6614 29.229 25.6632 29.1752 25.6578C28.8968 25.6291 28.6912 25.4352 28.6688 25.1829C28.6472 24.9351 28.8241 24.7079 29.1042 24.6495C29.2973 24.6091 29.4939 24.5867 29.6905 24.566C30.3684 24.4924 31.0454 24.4089 31.7251 24.3568C32.1713 24.3227 32.622 24.3425 33.0701 24.3254C33.4184 24.3119 33.7677 24.2913 34.1143 24.2518C34.4546 24.2123 34.6485 24.347 34.6898 24.689C34.697 24.751 34.7051 24.8138 34.7069 24.8767C34.7177 25.164 34.5363 25.4011 34.2508 25.4549C33.8647 25.5276 33.4759 25.5887 33.071 25.6578C33.0638 25.7243 33.0503 25.7925 33.0503 25.8617C33.0422 26.6338 33.0458 27.406 33.0243 28.1772C33.0099 28.6872 32.9668 29.1972 32.9246 29.7072C32.9031 29.9703 32.6616 30.2109 32.4236 30.236C32.1713 30.263 31.9334 30.0888 31.8598 29.7961C31.814 29.6147 31.7924 29.4244 31.7825 29.2376C31.7538 28.7097 31.7197 28.1817 31.7206 27.6529C31.7206 27.0621 31.7565 26.4713 31.7772 25.8805C31.7781 25.8257 31.7763 25.7728 31.7763 25.6857Z" fill="#FEFAE0"/>
<path d="M41.2801 28.1454C41.2191 28.3609 41.1697 28.5602 41.1051 28.7541C41.0368 28.958 40.9605 29.1591 40.8725 29.3548C40.833 29.4419 40.7684 29.5254 40.6956 29.5883C40.5071 29.7535 40.2808 29.6852 40.2216 29.4392C40.191 29.3117 40.1901 29.1707 40.2036 29.0388C40.2943 28.1723 40.4335 27.3149 40.6858 26.4781C40.7791 26.1692 40.8743 25.8603 40.9533 25.5479C41.0979 24.975 41.3708 24.4606 41.668 23.9587C41.8171 23.7064 41.9939 23.6758 42.2319 23.8455C42.3315 23.9165 42.4339 24.0098 42.486 24.1167C42.7015 24.5584 42.8909 25.0083 43.0211 25.4895C43.1962 26.1369 43.4449 26.7645 43.6478 27.4056C43.7933 27.8671 43.9216 28.3339 44.0465 28.8008C44.1219 29.0819 44.0824 29.3548 43.9091 29.5963C43.7466 29.8226 43.5284 29.8621 43.3021 29.7023C43.0902 29.5523 42.9412 29.353 42.8729 29.1007C42.7975 28.8242 42.7194 28.5476 42.6584 28.2675C42.6206 28.0942 42.5309 28.0224 42.3585 28.0403C42.0101 28.0745 41.6617 28.1077 41.2801 28.1454ZM42.4016 27.2511C42.2714 26.8363 42.1511 26.4502 42.0299 26.0633C42.011 26.0642 41.993 26.0659 41.9742 26.0668C41.8386 26.4314 41.703 26.795 41.563 27.1703C41.8548 27.199 42.108 27.2233 42.4016 27.2511Z" fill="#FEFAE0"/>
<path d="M46.5987 25.2965C46.5619 25.7077 46.5448 26.1109 46.4856 26.5068C46.3563 27.367 46.2054 28.2235 46.06 29.081C46.0456 29.1681 46.0133 29.2552 45.9729 29.3342C45.8813 29.5084 45.7341 29.6 45.5329 29.5829C45.3462 29.5667 45.1864 29.4249 45.1478 29.222C45.1226 29.0909 45.1235 28.9544 45.1235 28.8197C45.1244 27.8007 45.2519 26.7977 45.4898 25.8074C45.5249 25.662 45.5419 25.5129 45.5707 25.3414C45.409 25.3414 45.2726 25.3208 45.1451 25.3459C44.9188 25.3899 44.7186 25.3136 44.5166 25.2462C44.3352 25.1861 44.2059 25.0622 44.179 24.8638C44.1511 24.6563 44.2373 24.4804 44.4115 24.3834C44.5722 24.2936 44.7572 24.2442 44.9368 24.1931C45.0382 24.1643 45.1523 24.1464 45.2564 24.1598C46.095 24.2694 46.9417 24.167 47.7812 24.2523C48.2095 24.2954 48.6386 24.3322 49.0669 24.3744C49.1468 24.3825 49.2276 24.3969 49.3058 24.4157C49.5598 24.4777 49.7161 24.6635 49.7062 24.8853C49.6954 25.1223 49.5185 25.3001 49.242 25.3217C49.0552 25.336 48.8658 25.3235 48.6773 25.319C48.0407 25.3055 47.4032 25.2902 46.7666 25.2768C46.7127 25.2768 46.6607 25.2893 46.5987 25.2965Z" fill="#FEFAE0"/>
<path d="M54.574 17.4981C54.5238 17.5923 54.4914 17.666 54.4492 17.7324C54.2517 18.044 53.9249 18.0889 53.6483 17.8419C53.458 17.6723 53.3727 17.446 53.3251 17.2054C53.2228 16.6828 53.2039 16.1549 53.238 15.6242C53.2425 15.5533 53.2461 15.4833 53.2515 15.3782C53.1536 15.3836 53.0683 15.3845 52.9839 15.3944C52.2369 15.4779 51.4989 15.4545 50.7671 15.2606C50.1314 15.0918 49.6295 14.7425 49.2614 14.2011C48.6913 13.3634 48.9427 12.1316 49.819 11.5309C50.038 11.3809 50.2867 11.2732 50.522 11.1466C50.3298 10.7758 50.2041 10.7264 49.8226 10.7893C48.8735 10.9464 48.3528 11.5803 47.9882 12.3982C47.9263 12.5374 47.8751 12.6837 47.7943 12.8103C47.6048 13.1075 47.2663 13.2207 46.9781 13.1021C46.689 12.9827 46.5391 12.664 46.6226 12.3147C46.6558 12.1764 46.7025 12.0364 46.7698 11.9116C46.9997 11.4887 47.1155 11.0299 47.2475 10.5729C47.401 10.0395 47.5995 9.51878 47.7853 8.99533C47.8203 8.89566 47.8814 8.80139 47.9469 8.71789C48.0825 8.5446 48.2702 8.48624 48.447 8.5464C48.6167 8.60386 48.7415 8.77356 48.7379 8.98904C48.7361 9.13988 48.702 9.29072 48.6751 9.44067C48.6553 9.5538 48.6248 9.66423 48.5907 9.81059C48.6814 9.78634 48.737 9.77198 48.7927 9.75671C49.1384 9.66244 49.4796 9.54661 49.8306 9.47927C50.7806 9.29611 51.586 9.93449 51.6515 10.9033C51.6542 10.9392 51.6596 10.9742 51.665 11.0281C52.746 11.2292 53.6896 11.6674 54.3092 12.6469C54.3163 12.6487 54.3343 12.6604 54.3496 12.6577C54.8883 12.5679 55.1828 12.7825 55.2717 13.3239C55.348 13.789 55.2385 14.2029 54.9125 14.5414C54.7401 14.7201 54.6566 14.9212 54.6126 15.1564C54.5121 15.6916 54.5291 16.2267 54.5875 16.8175C54.6387 16.7286 54.6746 16.6846 54.6926 16.6334C54.9574 15.881 55.2187 15.1268 55.4854 14.3753C55.5482 14.1984 55.6191 14.0216 55.7098 13.8572C55.7781 13.7342 55.8688 13.6148 55.9738 13.5223C56.1803 13.341 56.4604 13.3275 56.6741 13.4631C56.8878 13.5996 56.9875 13.8546 56.9076 14.1239C56.8429 14.3439 56.7522 14.5558 56.6598 14.8081C56.7397 14.7856 56.781 14.7775 56.8187 14.7623C57.7758 14.3834 58.706 14.5181 59.6101 14.9329C60.033 15.1268 60.3168 15.4608 60.3446 15.9493C60.3527 16.0947 60.3185 16.2563 60.2584 16.3892C60.1623 16.6011 59.9819 16.6424 59.7942 16.505C59.6505 16.4 59.5177 16.2743 59.4009 16.1405C59.2276 15.9421 59.0166 15.811 58.7643 15.7634C58.4663 15.7068 58.1628 15.6601 57.8602 15.6449C57.44 15.6224 57.0961 15.793 56.8277 16.1243C56.4829 16.5499 56.1282 16.9665 55.7772 17.3867C55.7314 17.4415 55.6829 17.4954 55.6335 17.5466C55.2645 17.9299 54.944 17.9228 54.574 17.4981ZM53.634 13.5376C53.5792 13.4595 53.5478 13.3957 53.5002 13.3473C52.8331 12.6676 52.0232 12.4341 51.0966 12.6002C50.935 12.629 50.7725 12.7089 50.6351 12.8014C50.434 12.9378 50.4151 13.0986 50.5795 13.2754C50.6917 13.3966 50.8326 13.5035 50.9808 13.578C51.3462 13.7621 51.7485 13.8141 52.1516 13.8429C52.6571 13.8779 53.1491 13.8294 53.634 13.5376Z" fill="#FEFAE0"/>
<path d="M13.704 17.1873C14.1027 16.4753 14.8569 16.0865 15.6218 16.2176C16.4578 16.3612 17.2407 16.6512 17.8396 17.2842C18.425 17.9029 18.671 18.6391 18.4761 19.4885C18.3244 20.1502 17.7947 20.6153 17.1222 20.7033C16.7298 20.7545 16.3536 20.6844 15.9828 20.5632C15.8732 20.5273 15.7637 20.4923 15.6434 20.4537C15.5769 20.5758 15.5177 20.6853 15.4584 20.7949C15.1262 21.4054 14.6279 21.8175 13.9788 22.0618C13.3799 22.2871 12.8519 22.1731 12.3761 21.7628C12.1265 21.5482 11.9397 21.2833 11.8158 20.9816C11.5626 20.3666 11.3355 19.7417 11.2313 19.0827C11.1981 18.8717 11.1963 18.6526 11.2071 18.4389C11.2205 18.1794 11.375 18.0061 11.5815 17.9756C11.7835 17.9451 11.9945 18.0699 12.0753 18.3096C12.1435 18.5116 12.1884 18.7253 12.2136 18.9381C12.2755 19.449 12.482 19.8827 12.8546 20.2373C13.0037 20.3792 13.1393 20.5381 13.2955 20.6719C13.5505 20.8901 13.7812 20.8945 14.0084 20.6494C14.1951 20.4483 14.3406 20.2068 14.4905 19.9751C14.5794 19.8387 14.5516 19.7192 14.4169 19.5998C14.1969 19.4032 13.9967 19.1832 13.7974 18.965C13.7076 18.8663 13.6277 18.7549 13.5604 18.6391C13.4077 18.376 13.4347 18.0932 13.6187 17.8894C13.8046 17.6838 14.0847 17.6191 14.3577 17.7574C14.7859 17.9738 15.1783 18.2485 15.4486 18.6544C15.7448 19.1006 16.1803 19.1976 16.6652 19.176C16.8788 19.1662 16.9264 19.088 16.904 18.8744C16.8815 18.6598 16.7873 18.482 16.6257 18.3374C16.2979 18.0429 15.9119 17.8607 15.4917 17.7439C15.1199 17.6416 14.7464 17.5428 14.3774 17.4315C14.1565 17.3615 13.941 17.2726 13.704 17.1873Z" fill="#FEFAE0"/>
<path d="M25.4221 12.1764C25.3961 12.2707 25.3754 12.3363 25.3593 12.4027C25.2668 12.7789 25.1501 13.1461 24.9301 13.4703C24.4937 14.1113 23.6578 14.308 22.979 13.93C22.6504 13.7468 22.364 13.5026 22.2033 13.1659C21.9842 12.7071 21.7984 12.2294 21.634 11.7473C21.5703 11.5596 21.5856 11.3387 21.5981 11.1349C21.6062 11.0065 21.6583 10.8701 21.7265 10.7605C21.7705 10.6896 21.8845 10.6151 21.9591 10.6222C22.0309 10.6294 22.1216 10.7282 22.153 10.8081C22.2904 11.1484 22.4008 11.4995 22.5364 11.8406C22.6747 12.1881 22.9027 12.4781 23.1811 12.7241C23.2735 12.8058 23.3813 12.8786 23.4944 12.928C23.7144 13.0231 23.9047 12.9612 24.025 12.7538C24.2809 12.3129 24.3312 11.8209 24.342 11.3253C24.3438 11.2606 24.2764 11.1807 24.2208 11.1313C24.0996 11.0254 23.9622 10.9383 23.8356 10.8386C23.4585 10.5396 23.375 10.1141 23.6165 9.74414C23.8509 9.3859 24.3411 9.26468 24.7388 9.47299C25.0818 9.65256 25.2838 9.95783 25.3458 10.3197C25.4015 10.6438 25.573 10.853 25.8163 11.0335C26.5175 11.5515 27.1918 12.101 27.7485 12.778C27.9469 13.0195 28.1498 13.2656 28.2998 13.5376C28.7038 14.2676 28.5943 14.8907 27.9711 15.4474C27.41 15.9493 26.759 16.3192 26.0605 16.5822C25.5343 16.7798 24.984 16.9198 24.4363 17.0527C23.8886 17.1856 23.3534 17.1129 22.8408 16.8399C23.076 16.4063 23.4298 16.119 23.8877 15.9654C24.1337 15.8828 24.3887 15.8262 24.641 15.7661C25.5272 15.556 26.3263 15.1609 27.0625 14.6339C27.3579 14.422 27.3768 14.3232 27.1837 14.0099C27.1083 13.8887 27.0275 13.7666 26.9287 13.6642C26.4987 13.2189 26.0623 12.7807 25.6259 12.3417C25.573 12.2851 25.5065 12.2429 25.4221 12.1764Z" fill="#FEFAE0"/>
<path d="M44.0796 9.89712C44.0904 10.7088 43.8193 11.4504 43.1818 12.0439C42.793 12.4057 42.318 12.5835 41.809 12.6769C41.0601 12.8134 40.3167 12.72 39.6011 12.5072C38.4815 12.1741 37.9553 11.2421 38.1107 10.2069C38.1978 9.62597 38.3127 9.06301 38.6099 8.54494C38.9178 8.00982 39.3228 7.60668 39.9351 7.44057C40.0007 7.42262 40.0698 7.38221 40.1138 7.33193C40.6202 6.75641 41.264 6.6765 41.9589 6.83542C43.1513 7.10837 43.7609 7.92901 44.006 9.07468C44.0267 9.17075 44.0446 9.26862 44.0527 9.36649C44.0662 9.5272 44.0698 9.68882 44.0796 9.89712ZM41.0539 10.9871C41.2478 10.9566 41.4462 10.9395 41.6357 10.892C42.0101 10.7977 42.2669 10.5732 42.3791 10.1889C42.4832 9.83248 42.4707 9.48321 42.3791 9.12676C42.2758 8.72451 42.0182 8.47491 41.6357 8.34472C41.5261 8.30701 41.4094 8.28905 41.2972 8.25763C41.0206 8.18131 40.7243 8.1427 40.4738 8.01431C40.1327 7.83922 39.8902 7.93709 39.6756 8.19029C39.532 8.35998 39.3865 8.54045 39.2994 8.74068C39.1235 9.14382 39.0974 9.57928 39.3264 9.96177C39.7098 10.601 40.2727 10.9808 41.0539 10.9871Z" fill="#FEFAE0"/>
<path d="M17.4748 14.459C17.4676 14.345 17.4631 14.2588 17.455 14.1726C17.411 13.6599 17.4865 13.1706 17.7415 12.7162C18.1284 12.0276 18.7515 11.7914 19.4752 12.1057C19.8595 12.2727 20.2411 12.4729 20.5724 12.727C21.1551 13.1732 21.7046 13.6644 22.2523 14.1537C22.3951 14.2803 22.5046 14.459 22.5881 14.6332C22.7102 14.8891 22.6456 15.1674 22.4606 15.3245C22.2487 15.5041 22.0081 15.5068 21.7836 15.3748C21.6005 15.268 21.4263 15.1324 21.2772 14.9797C20.6927 14.3818 19.9897 13.9508 19.2786 13.5315C19.1879 13.4776 19.0856 13.4426 18.9563 13.3842C18.915 13.4983 18.853 13.5934 18.8503 13.6904C18.844 13.9032 18.8333 14.1268 18.8853 14.3297C19.0389 14.9277 19.3289 15.4412 19.8775 15.7761C20.0525 15.883 20.2222 16.006 20.3722 16.1452C20.6577 16.4091 20.7053 16.7746 20.514 17.0718C20.3273 17.3636 19.9529 17.5036 19.6162 17.3474C19.3432 17.2208 19.0766 17.0529 18.8557 16.85C18.3484 16.384 17.7693 16.0338 17.1794 15.6891C16.6856 15.4008 16.2025 15.0839 15.7554 14.7283C15.4663 14.4985 15.2337 14.1878 15.0057 13.8906C14.8459 13.6832 14.9374 13.5369 15.2023 13.5279C15.4986 13.5171 15.7671 13.6186 16.0256 13.747C16.4351 13.9508 16.8409 14.1618 17.2494 14.3674C17.3132 14.4015 17.3805 14.4222 17.4748 14.459Z" fill="#FEFAE0"/>
<path d="M36.5884 9.87542C36.2894 9.62492 35.9823 9.40584 35.5998 9.34658C35.3179 9.30349 35.0288 9.30708 34.7424 9.29451C34.3401 9.27655 33.9379 9.26757 33.5356 9.24602C33.2672 9.23166 32.9969 9.21729 32.7311 9.17779C32.5399 9.14905 32.3352 9.11224 32.17 9.01886C31.7606 8.78811 31.6878 8.29878 31.9796 7.93335C32.249 7.59665 32.574 7.34166 32.9879 7.1998C33.7394 6.94211 34.4972 6.72842 35.3044 6.80474C35.4553 6.8191 35.6142 6.83347 35.7498 6.89183C35.8647 6.94211 35.9796 7.03908 36.0461 7.14503C36.1655 7.33897 36.0649 7.4934 35.8377 7.50776C35.1446 7.55266 34.4766 7.73313 33.8041 7.88846C33.7475 7.90193 33.6955 7.93515 33.6389 8.00518C33.7754 8.03391 33.9118 8.06623 34.0483 8.09227C34.8106 8.23593 35.5316 8.51516 36.2508 8.79081C36.5049 8.88778 36.7365 9.06286 36.9556 9.23076C37.3453 9.52975 37.4261 9.8853 37.2079 10.327C36.9879 10.7724 36.7123 11.1863 36.3154 11.4952C35.6474 12.015 34.9022 12.3831 34.0663 12.5403C33.6209 12.6238 33.1711 12.6031 32.7302 12.4882C32.1 12.3239 31.6573 11.9216 31.3637 11.3551C31.1931 11.0265 31.1761 10.6817 31.3727 10.3504C31.5657 10.0254 31.8306 9.94725 32.1422 10.1565C32.3235 10.2786 32.4699 10.4572 32.6198 10.6206C32.7338 10.7463 32.8209 10.8963 32.935 11.022C33.1953 11.3102 33.5284 11.426 33.9082 11.3614C34.1902 11.3129 34.4838 11.268 34.7397 11.1522C35.22 10.934 35.6833 10.6745 36.143 10.4132C36.3361 10.3046 36.5049 10.1484 36.5884 9.87542Z" fill="#FEFAE0"/>
<path d="M57.6539 18.9675C57.6323 19.1444 57.7069 19.3159 57.8388 19.4506C57.9879 19.6032 58.1486 19.7523 58.3273 19.869C58.6047 20.0495 58.9082 20.1913 59.1874 20.3691C59.3895 20.4975 59.6022 20.6322 59.7558 20.8108C60.0718 21.179 59.9219 21.6315 59.4496 21.7446C59.2566 21.7913 59.0312 21.794 58.8409 21.7428C57.9798 21.5148 57.231 21.0838 56.6483 20.4005C55.9893 19.6275 56.0063 18.4432 56.6788 17.6809C56.8332 17.5058 56.9976 17.3397 57.1672 17.1799C57.8577 16.5272 58.7232 16.3997 59.5448 16.8746C60.3951 17.3667 61.0729 18.0293 61.4186 18.9828C61.5838 19.4389 61.3019 19.8232 60.8197 19.7451C60.0323 19.6176 59.2449 19.4793 58.4656 19.3105C58.1854 19.2495 57.9277 19.087 57.6539 18.9675ZM60.088 18.5698C59.7666 18.2376 59.4685 17.9601 59.1129 17.7554C58.9836 17.6809 58.8346 17.6288 58.6882 17.5992C58.286 17.5157 57.8263 17.8039 57.7167 18.1738C58.4377 18.6021 59.2386 18.5366 60.088 18.5698Z" fill="#FEFAE0"/>
</svg>
