<svg width="1557" height="645" viewBox="0 0 1557 645" fill="none" xmlns="http://www.w3.org/2000/svg">
<path d="M26.998 45.209H155.343C201.599 45.209 237.317 58.0264 262.496 83.6611C287.675 109.182 300.265 140.001 300.265 176.117C300.265 199.132 294.511 220.893 283.004 241.4C271.611 261.794 254.863 277.688 232.76 289.081C210.657 300.36 183.94 306 152.608 306H26.998V45.209ZM142.354 145.014V206.195H145.26C159.16 206.195 169.186 203.803 175.338 199.018C181.604 194.118 184.737 186.143 184.737 175.092C184.737 155.04 173.059 145.014 149.703 145.014H142.354ZM545.153 240.546V306H328.624V45.209H545.153V110.663H443.981V142.963H514.391V208.417H443.981V240.546H545.153ZM791.578 58.5391L762.868 140.741C744.069 115.334 722.479 102.631 698.097 102.631C684.539 102.631 677.76 107.758 677.76 118.012C677.76 121.202 679.868 124.449 684.083 127.753C688.413 131.057 699.635 136.241 717.75 143.305C737.689 151.166 753.012 158.344 763.722 164.838C774.546 171.218 782.635 179.421 787.99 189.447C793.344 199.473 796.022 211.151 796.022 224.481C796.022 252.395 785.426 273.7 764.235 288.397C743.043 302.981 711.883 310.272 670.753 310.272C624.611 310.272 584.848 303.721 551.466 290.619L579.664 203.461C587.868 216.221 598.008 226.361 610.084 233.881C622.275 241.4 633.953 245.16 645.119 245.16C650.587 245.16 655.145 243.736 658.79 240.888C662.55 238.039 664.43 234.564 664.43 230.463C664.43 226.589 662.607 222.886 658.961 219.354C655.429 215.823 645.973 210.924 630.592 204.657C616.692 199.075 605.185 193.663 596.071 188.422C586.956 183.067 579.038 175.491 572.316 165.692C565.594 155.894 562.233 143.533 562.233 128.607C562.233 99.6686 572.772 77.8506 593.849 63.1533C614.926 48.4561 646.03 41.1074 687.16 41.1074C724.757 41.1074 759.564 46.918 791.578 58.5391ZM821.134 306V45.209H936.491V306H821.134ZM1244.1 75.9707L1188.39 154.413C1165.14 143.248 1143.67 137.665 1123.96 137.665C1110.85 137.665 1100.32 141.083 1092.34 147.919C1084.48 154.641 1080.55 163.585 1080.55 174.75C1080.55 195.941 1094.45 206.537 1122.25 206.537V165.692H1237.78V306.342C1191.06 308.962 1159.45 310.272 1142.93 310.272C1079.12 310.272 1034.8 296.715 1009.97 269.599C985.13 242.483 972.712 210.867 972.712 174.75C972.712 149.913 978.465 127.126 989.972 106.391C1001.59 85.6549 1018.28 69.5905 1040.05 58.1973C1061.92 46.804 1087.78 41.1074 1117.63 41.1074C1138.6 41.1074 1160.3 44.1836 1182.75 50.3359C1205.19 56.3743 1225.64 64.9193 1244.1 75.9707ZM1530.86 308.051H1443.36L1387.3 225.849V306H1271.95V45.209H1354.49L1415.33 133.393V45.209H1530.86V308.051Z" fill="#FEFAE0" fill-opacity="0.2"/>
<path d="M311.208 364L319.16 344.568H321.064L328.988 364H326.132L319.608 347.564H320.588L314.008 364H311.208ZM314.988 359.604V357.308H325.208V359.604H314.988ZM332.385 364V348.712C332.385 347.723 332.599 346.864 333.029 346.136C333.458 345.389 334.046 344.801 334.793 344.372C335.558 343.943 336.445 343.728 337.453 343.728C338.218 343.728 338.881 343.859 339.441 344.12C340.001 344.381 340.514 344.764 340.981 345.268L339.329 346.892C339.086 346.631 338.815 346.435 338.517 346.304C338.218 346.155 337.854 346.08 337.425 346.08C336.622 346.08 335.997 346.313 335.549 346.78C335.119 347.247 334.905 347.891 334.905 348.712V364H332.385ZM329.109 352.996V350.7H339.133V352.996H329.109ZM342.915 364V345.128H345.435V364H342.915ZM339.639 352.996V350.7H348.711V352.996H339.639ZM356.93 364.28C355.605 364.28 354.41 363.981 353.346 363.384C352.282 362.768 351.442 361.937 350.826 360.892C350.21 359.847 349.902 358.661 349.902 357.336C349.902 356.029 350.201 354.853 350.798 353.808C351.414 352.763 352.235 351.941 353.262 351.344C354.307 350.728 355.474 350.42 356.762 350.42C357.994 350.42 359.077 350.7 360.01 351.26C360.962 351.82 361.699 352.595 362.222 353.584C362.763 354.573 363.034 355.693 363.034 356.944C363.034 357.131 363.025 357.336 363.006 357.56C362.987 357.765 362.95 358.008 362.894 358.288H351.666V356.188H361.55L360.626 357C360.626 356.104 360.467 355.348 360.15 354.732C359.833 354.097 359.385 353.612 358.806 353.276C358.227 352.921 357.527 352.744 356.706 352.744C355.847 352.744 355.091 352.931 354.438 353.304C353.785 353.677 353.281 354.2 352.926 354.872C352.571 355.544 352.394 356.337 352.394 357.252C352.394 358.185 352.581 359.007 352.954 359.716C353.327 360.407 353.859 360.948 354.55 361.34C355.241 361.713 356.034 361.9 356.93 361.9C357.677 361.9 358.358 361.769 358.974 361.508C359.609 361.247 360.15 360.855 360.598 360.332L362.222 361.984C361.587 362.731 360.803 363.3 359.87 363.692C358.955 364.084 357.975 364.28 356.93 364.28ZM365.782 364V350.7H368.302V364H365.782ZM368.302 356.412L367.35 355.992C367.35 354.293 367.742 352.94 368.526 351.932C369.31 350.924 370.439 350.42 371.914 350.42C372.586 350.42 373.192 350.541 373.734 350.784C374.275 351.008 374.779 351.391 375.246 351.932L373.594 353.64C373.314 353.341 373.006 353.127 372.67 352.996C372.334 352.865 371.942 352.8 371.494 352.8C370.56 352.8 369.795 353.099 369.198 353.696C368.6 354.293 368.302 355.199 368.302 356.412ZM390.336 364.28C389.328 364.28 388.414 364.075 387.592 363.664C386.79 363.235 386.146 362.647 385.66 361.9C385.175 361.153 384.904 360.304 384.848 359.352V355.348C384.904 354.377 385.175 353.528 385.66 352.8C386.164 352.053 386.818 351.475 387.62 351.064C388.442 350.635 389.347 350.42 390.336 350.42C391.55 350.42 392.642 350.728 393.612 351.344C394.602 351.96 395.376 352.791 395.936 353.836C396.496 354.881 396.776 356.057 396.776 357.364C396.776 358.671 396.496 359.847 395.936 360.892C395.376 361.937 394.602 362.768 393.612 363.384C392.642 363.981 391.55 364.28 390.336 364.28ZM389.916 361.9C390.756 361.9 391.494 361.704 392.128 361.312C392.763 360.92 393.267 360.388 393.64 359.716C394.014 359.025 394.2 358.232 394.2 357.336C394.2 356.459 394.014 355.675 393.64 354.984C393.267 354.293 392.763 353.761 392.128 353.388C391.494 352.996 390.766 352.8 389.944 352.8C389.104 352.8 388.367 352.996 387.732 353.388C387.098 353.761 386.603 354.293 386.248 354.984C385.894 355.675 385.716 356.468 385.716 357.364C385.716 358.241 385.884 359.025 386.22 359.716C386.575 360.388 387.07 360.92 387.704 361.312C388.358 361.704 389.095 361.9 389.916 361.9ZM383.336 364V344.008H385.856V353.948L385.38 357.168L385.856 360.416V364H383.336ZM405.793 364.28C404.468 364.28 403.273 363.981 402.209 363.384C401.145 362.768 400.305 361.937 399.689 360.892C399.073 359.847 398.765 358.661 398.765 357.336C398.765 356.029 399.064 354.853 399.661 353.808C400.277 352.763 401.098 351.941 402.125 351.344C403.17 350.728 404.337 350.42 405.625 350.42C406.857 350.42 407.94 350.7 408.873 351.26C409.825 351.82 410.562 352.595 411.085 353.584C411.626 354.573 411.897 355.693 411.897 356.944C411.897 357.131 411.888 357.336 411.869 357.56C411.85 357.765 411.813 358.008 411.757 358.288H400.529V356.188H410.413L409.489 357C409.489 356.104 409.33 355.348 409.013 354.732C408.696 354.097 408.248 353.612 407.669 353.276C407.09 352.921 406.39 352.744 405.569 352.744C404.71 352.744 403.954 352.931 403.301 353.304C402.648 353.677 402.144 354.2 401.789 354.872C401.434 355.544 401.257 356.337 401.257 357.252C401.257 358.185 401.444 359.007 401.817 359.716C402.19 360.407 402.722 360.948 403.413 361.34C404.104 361.713 404.897 361.9 405.793 361.9C406.54 361.9 407.221 361.769 407.837 361.508C408.472 361.247 409.013 360.855 409.461 360.332L411.085 361.984C410.45 362.731 409.666 363.3 408.733 363.692C407.818 364.084 406.838 364.28 405.793 364.28ZM414.673 364V350.7H417.193V364H414.673ZM415.933 348.04C415.466 348.04 415.084 347.891 414.785 347.592C414.486 347.275 414.337 346.883 414.337 346.416C414.337 345.968 414.486 345.595 414.785 345.296C415.084 344.979 415.466 344.82 415.933 344.82C416.4 344.82 416.782 344.979 417.081 345.296C417.38 345.595 417.529 345.968 417.529 346.416C417.529 346.883 417.38 347.275 417.081 347.592C416.782 347.891 416.4 348.04 415.933 348.04ZM430.315 364V356.244C430.315 355.236 429.997 354.405 429.363 353.752C428.728 353.099 427.907 352.772 426.899 352.772C426.227 352.772 425.629 352.921 425.107 353.22C424.584 353.519 424.173 353.929 423.875 354.452C423.576 354.975 423.427 355.572 423.427 356.244L422.391 355.656C422.391 354.648 422.615 353.752 423.063 352.968C423.511 352.184 424.136 351.568 424.939 351.12C425.741 350.653 426.647 350.42 427.655 350.42C428.663 350.42 429.549 350.672 430.315 351.176C431.099 351.68 431.715 352.343 432.163 353.164C432.611 353.967 432.835 354.825 432.835 355.74V364H430.315ZM420.907 364V350.7H423.427V364H420.907ZM441.762 369.852C440.4 369.852 439.186 369.6 438.122 369.096C437.077 368.592 436.237 367.883 435.602 366.968L437.226 365.316C437.768 366.007 438.412 366.529 439.158 366.884C439.905 367.257 440.792 367.444 441.818 367.444C443.181 367.444 444.254 367.08 445.038 366.352C445.841 365.643 446.242 364.681 446.242 363.468V360.164L446.69 357.168L446.242 354.2V350.7H448.762V363.468C448.762 364.737 448.464 365.848 447.866 366.8C447.288 367.752 446.466 368.499 445.402 369.04C444.357 369.581 443.144 369.852 441.762 369.852ZM441.762 363.776C440.549 363.776 439.457 363.487 438.486 362.908C437.534 362.329 436.778 361.536 436.218 360.528C435.658 359.501 435.378 358.353 435.378 357.084C435.378 355.815 435.658 354.685 436.218 353.696C436.778 352.688 437.534 351.895 438.486 351.316C439.457 350.719 440.549 350.42 441.762 350.42C442.808 350.42 443.732 350.625 444.534 351.036C445.337 351.447 445.972 352.025 446.438 352.772C446.924 353.5 447.185 354.359 447.222 355.348V358.876C447.166 359.847 446.896 360.705 446.41 361.452C445.944 362.18 445.309 362.749 444.506 363.16C443.704 363.571 442.789 363.776 441.762 363.776ZM442.266 361.396C443.088 361.396 443.806 361.219 444.422 360.864C445.057 360.509 445.542 360.015 445.878 359.38C446.214 358.727 446.382 357.971 446.382 357.112C446.382 356.253 446.205 355.507 445.85 354.872C445.514 354.219 445.038 353.715 444.422 353.36C443.806 352.987 443.078 352.8 442.238 352.8C441.398 352.8 440.661 352.987 440.026 353.36C439.392 353.715 438.888 354.219 438.514 354.872C438.16 355.507 437.982 356.244 437.982 357.084C437.982 357.924 438.16 358.671 438.514 359.324C438.888 359.977 439.392 360.491 440.026 360.864C440.68 361.219 441.426 361.396 442.266 361.396ZM464.362 364.28C463.055 364.28 461.87 363.972 460.806 363.356C459.76 362.74 458.93 361.909 458.314 360.864C457.716 359.8 457.418 358.624 457.418 357.336C457.418 356.029 457.716 354.853 458.314 353.808C458.93 352.763 459.76 351.941 460.806 351.344C461.87 350.728 463.055 350.42 464.362 350.42C465.388 350.42 466.34 350.616 467.218 351.008C468.095 351.381 468.851 351.932 469.486 352.66L467.806 354.34C467.395 353.855 466.891 353.491 466.294 353.248C465.715 352.987 465.071 352.856 464.362 352.856C463.522 352.856 462.775 353.052 462.122 353.444C461.468 353.817 460.955 354.34 460.582 355.012C460.208 355.684 460.022 356.459 460.022 357.336C460.022 358.213 460.208 358.988 460.582 359.66C460.955 360.332 461.468 360.864 462.122 361.256C462.775 361.648 463.522 361.844 464.362 361.844C465.071 361.844 465.715 361.723 466.294 361.48C466.891 361.219 467.404 360.845 467.834 360.36L469.486 362.04C468.87 362.749 468.114 363.3 467.218 363.692C466.34 364.084 465.388 364.28 464.362 364.28ZM471.985 364V344.008H474.505V364H471.985ZM484.352 364.28C483.026 364.28 481.832 363.981 480.768 363.384C479.704 362.768 478.864 361.937 478.248 360.892C477.632 359.847 477.324 358.661 477.324 357.336C477.324 356.029 477.622 354.853 478.22 353.808C478.836 352.763 479.657 351.941 480.684 351.344C481.729 350.728 482.896 350.42 484.184 350.42C485.416 350.42 486.498 350.7 487.432 351.26C488.384 351.82 489.121 352.595 489.644 353.584C490.185 354.573 490.456 355.693 490.456 356.944C490.456 357.131 490.446 357.336 490.428 357.56C490.409 357.765 490.372 358.008 490.316 358.288H479.088V356.188H488.972L488.048 357C488.048 356.104 487.889 355.348 487.572 354.732C487.254 354.097 486.806 353.612 486.228 353.276C485.649 352.921 484.949 352.744 484.128 352.744C483.269 352.744 482.513 352.931 481.86 353.304C481.206 353.677 480.702 354.2 480.348 354.872C479.993 355.544 479.816 356.337 479.816 357.252C479.816 358.185 480.002 359.007 480.376 359.716C480.749 360.407 481.281 360.948 481.972 361.34C482.662 361.713 483.456 361.9 484.352 361.9C485.098 361.9 485.78 361.769 486.396 361.508C487.03 361.247 487.572 360.855 488.02 360.332L489.644 361.984C489.009 362.731 488.225 363.3 487.292 363.692C486.377 364.084 485.397 364.28 484.352 364.28ZM498.859 364.28C497.646 364.28 496.545 363.981 495.555 363.384C494.566 362.768 493.782 361.937 493.203 360.892C492.643 359.847 492.363 358.671 492.363 357.364C492.363 356.057 492.643 354.881 493.203 353.836C493.782 352.791 494.557 351.96 495.527 351.344C496.517 350.728 497.627 350.42 498.859 350.42C499.867 350.42 500.763 350.635 501.547 351.064C502.35 351.475 502.994 352.053 503.479 352.8C503.965 353.528 504.235 354.377 504.291 355.348V359.352C504.235 360.304 503.965 361.153 503.479 361.9C503.013 362.647 502.378 363.235 501.575 363.664C500.791 364.075 499.886 364.28 498.859 364.28ZM499.279 361.9C500.53 361.9 501.538 361.48 502.303 360.64C503.069 359.781 503.451 358.689 503.451 357.364C503.451 356.449 503.274 355.656 502.919 354.984C502.583 354.293 502.098 353.761 501.463 353.388C500.829 352.996 500.091 352.8 499.251 352.8C498.411 352.8 497.665 352.996 497.011 353.388C496.377 353.78 495.873 354.321 495.499 355.012C495.145 355.684 494.967 356.459 494.967 357.336C494.967 358.232 495.145 359.025 495.499 359.716C495.873 360.388 496.386 360.92 497.039 361.312C497.693 361.704 498.439 361.9 499.279 361.9ZM503.283 364V360.416L503.759 357.168L503.283 353.948V350.7H505.831V364H503.283ZM509.5 364V350.7H512.02V364H509.5ZM512.02 356.412L511.068 355.992C511.068 354.293 511.46 352.94 512.244 351.932C513.028 350.924 514.158 350.42 515.632 350.42C516.304 350.42 516.911 350.541 517.452 350.784C517.994 351.008 518.498 351.391 518.964 351.932L517.312 353.64C517.032 353.341 516.724 353.127 516.388 352.996C516.052 352.865 515.66 352.8 515.212 352.8C514.279 352.8 513.514 353.099 512.916 353.696C512.319 354.293 512.02 355.199 512.02 356.412ZM533.131 364.28C531.824 364.28 530.648 363.972 529.603 363.356C528.558 362.74 527.727 361.909 527.111 360.864C526.495 359.8 526.187 358.615 526.187 357.308C526.187 356.02 526.495 354.863 527.111 353.836C527.727 352.791 528.558 351.96 529.603 351.344C530.648 350.728 531.824 350.42 533.131 350.42C534.419 350.42 535.586 350.728 536.631 351.344C537.695 351.941 538.535 352.763 539.151 353.808C539.767 354.853 540.075 356.02 540.075 357.308C540.075 358.615 539.767 359.8 539.151 360.864C538.535 361.909 537.695 362.74 536.631 363.356C535.586 363.972 534.419 364.28 533.131 364.28ZM533.131 361.844C533.971 361.844 534.718 361.648 535.371 361.256C536.024 360.864 536.538 360.332 536.911 359.66C537.284 358.969 537.471 358.185 537.471 357.308C537.471 356.449 537.275 355.684 536.883 355.012C536.51 354.34 535.996 353.817 535.343 353.444C534.708 353.052 533.971 352.856 533.131 352.856C532.291 352.856 531.544 353.052 530.891 353.444C530.238 353.817 529.724 354.34 529.351 355.012C528.978 355.684 528.791 356.449 528.791 357.308C528.791 358.185 528.978 358.969 529.351 359.66C529.724 360.332 530.238 360.864 530.891 361.256C531.544 361.648 532.291 361.844 533.131 361.844ZM552.322 364V356.244C552.322 355.236 552.005 354.405 551.37 353.752C550.736 353.099 549.914 352.772 548.906 352.772C548.234 352.772 547.637 352.921 547.114 353.22C546.592 353.519 546.181 353.929 545.882 354.452C545.584 354.975 545.434 355.572 545.434 356.244L544.398 355.656C544.398 354.648 544.622 353.752 545.07 352.968C545.518 352.184 546.144 351.568 546.946 351.12C547.749 350.653 548.654 350.42 549.662 350.42C550.67 350.42 551.557 350.672 552.322 351.176C553.106 351.68 553.722 352.343 554.17 353.164C554.618 353.967 554.842 354.825 554.842 355.74V364H552.322ZM542.914 364V350.7H545.434V364H542.914ZM566.122 364V345.128H568.642V364H566.122ZM562.846 352.996V350.7H571.918V352.996H562.846ZM583.795 364V356.244C583.795 355.236 583.478 354.405 582.843 353.752C582.208 353.099 581.387 352.772 580.379 352.772C579.707 352.772 579.11 352.921 578.587 353.22C578.064 353.519 577.654 353.929 577.355 354.452C577.056 354.975 576.907 355.572 576.907 356.244L575.871 355.656C575.871 354.648 576.095 353.752 576.543 352.968C576.991 352.184 577.616 351.568 578.419 351.12C579.222 350.653 580.127 350.42 581.135 350.42C582.143 350.42 583.03 350.644 583.795 351.092C584.579 351.54 585.195 352.165 585.643 352.968C586.091 353.771 586.315 354.695 586.315 355.74V364H583.795ZM574.387 364V344.008H576.907V364H574.387ZM595.887 364.28C594.562 364.28 593.367 363.981 592.303 363.384C591.239 362.768 590.399 361.937 589.783 360.892C589.167 359.847 588.859 358.661 588.859 357.336C588.859 356.029 589.158 354.853 589.755 353.808C590.371 352.763 591.192 351.941 592.219 351.344C593.264 350.728 594.431 350.42 595.719 350.42C596.951 350.42 598.034 350.7 598.967 351.26C599.919 351.82 600.656 352.595 601.179 353.584C601.72 354.573 601.991 355.693 601.991 356.944C601.991 357.131 601.982 357.336 601.963 357.56C601.944 357.765 601.907 358.008 601.851 358.288H590.623V356.188H600.507L599.583 357C599.583 356.104 599.424 355.348 599.107 354.732C598.79 354.097 598.342 353.612 597.763 353.276C597.184 352.921 596.484 352.744 595.663 352.744C594.804 352.744 594.048 352.931 593.395 353.304C592.742 353.677 592.238 354.2 591.883 354.872C591.528 355.544 591.351 356.337 591.351 357.252C591.351 358.185 591.538 359.007 591.911 359.716C592.284 360.407 592.816 360.948 593.507 361.34C594.198 361.713 594.991 361.9 595.887 361.9C596.634 361.9 597.315 361.769 597.931 361.508C598.566 361.247 599.107 360.855 599.555 360.332L601.179 361.984C600.544 362.731 599.76 363.3 598.827 363.692C597.912 364.084 596.932 364.28 595.887 364.28ZM616.639 364.28C615.332 364.28 614.147 363.972 613.083 363.356C612.038 362.74 611.207 361.909 610.591 360.864C609.994 359.8 609.695 358.624 609.695 357.336C609.695 356.029 609.994 354.853 610.591 353.808C611.207 352.763 612.038 351.941 613.083 351.344C614.147 350.728 615.332 350.42 616.639 350.42C617.666 350.42 618.618 350.616 619.495 351.008C620.372 351.381 621.128 351.932 621.763 352.66L620.083 354.34C619.672 353.855 619.168 353.491 618.571 353.248C617.992 352.987 617.348 352.856 616.639 352.856C615.799 352.856 615.052 353.052 614.399 353.444C613.746 353.817 613.232 354.34 612.859 355.012C612.486 355.684 612.299 356.459 612.299 357.336C612.299 358.213 612.486 358.988 612.859 359.66C613.232 360.332 613.746 360.864 614.399 361.256C615.052 361.648 615.799 361.844 616.639 361.844C617.348 361.844 617.992 361.723 618.571 361.48C619.168 361.219 619.682 360.845 620.111 360.36L621.763 362.04C621.147 362.749 620.391 363.3 619.495 363.692C618.618 364.084 617.666 364.28 616.639 364.28ZM630.065 364.28C628.758 364.28 627.582 363.972 626.537 363.356C625.491 362.74 624.661 361.909 624.045 360.864C623.429 359.8 623.121 358.615 623.121 357.308C623.121 356.02 623.429 354.863 624.045 353.836C624.661 352.791 625.491 351.96 626.537 351.344C627.582 350.728 628.758 350.42 630.065 350.42C631.353 350.42 632.519 350.728 633.565 351.344C634.629 351.941 635.469 352.763 636.085 353.808C636.701 354.853 637.009 356.02 637.009 357.308C637.009 358.615 636.701 359.8 636.085 360.864C635.469 361.909 634.629 362.74 633.565 363.356C632.519 363.972 631.353 364.28 630.065 364.28ZM630.065 361.844C630.905 361.844 631.651 361.648 632.305 361.256C632.958 360.864 633.471 360.332 633.845 359.66C634.218 358.969 634.405 358.185 634.405 357.308C634.405 356.449 634.209 355.684 633.817 355.012C633.443 354.34 632.93 353.817 632.277 353.444C631.642 353.052 630.905 352.856 630.065 352.856C629.225 352.856 628.478 353.052 627.825 353.444C627.171 353.817 626.658 354.34 626.285 355.012C625.911 355.684 625.725 356.449 625.725 357.308C625.725 358.185 625.911 358.969 626.285 359.66C626.658 360.332 627.171 360.864 627.825 361.256C628.478 361.648 629.225 361.844 630.065 361.844ZM649.256 364V356.244C649.256 355.236 648.939 354.405 648.304 353.752C647.669 353.099 646.848 352.772 645.84 352.772C645.168 352.772 644.571 352.921 644.048 353.22C643.525 353.519 643.115 353.929 642.816 354.452C642.517 354.975 642.368 355.572 642.368 356.244L641.332 355.656C641.332 354.648 641.556 353.752 642.004 352.968C642.452 352.184 643.077 351.568 643.88 351.12C644.683 350.653 645.588 350.42 646.596 350.42C647.604 350.42 648.491 350.672 649.256 351.176C650.04 351.68 650.656 352.343 651.104 353.164C651.552 353.967 651.776 354.825 651.776 355.74V364H649.256ZM639.848 364V350.7H642.368V364H639.848ZM661.264 364.28C659.957 364.28 658.772 363.972 657.708 363.356C656.663 362.74 655.832 361.909 655.216 360.864C654.619 359.8 654.32 358.624 654.32 357.336C654.32 356.029 654.619 354.853 655.216 353.808C655.832 352.763 656.663 351.941 657.708 351.344C658.772 350.728 659.957 350.42 661.264 350.42C662.291 350.42 663.243 350.616 664.12 351.008C664.997 351.381 665.753 351.932 666.388 352.66L664.708 354.34C664.297 353.855 663.793 353.491 663.196 353.248C662.617 352.987 661.973 352.856 661.264 352.856C660.424 352.856 659.677 353.052 659.024 353.444C658.371 353.817 657.857 354.34 657.484 355.012C657.111 355.684 656.924 356.459 656.924 357.336C656.924 358.213 657.111 358.988 657.484 359.66C657.857 360.332 658.371 360.864 659.024 361.256C659.677 361.648 660.424 361.844 661.264 361.844C661.973 361.844 662.617 361.723 663.196 361.48C663.793 361.219 664.307 360.845 664.736 360.36L666.388 362.04C665.772 362.749 665.016 363.3 664.12 363.692C663.243 364.084 662.291 364.28 661.264 364.28ZM674.774 364.28C673.448 364.28 672.254 363.981 671.19 363.384C670.126 362.768 669.286 361.937 668.67 360.892C668.054 359.847 667.746 358.661 667.746 357.336C667.746 356.029 668.044 354.853 668.642 353.808C669.258 352.763 670.079 351.941 671.106 351.344C672.151 350.728 673.318 350.42 674.606 350.42C675.838 350.42 676.92 350.7 677.854 351.26C678.806 351.82 679.543 352.595 680.066 353.584C680.607 354.573 680.878 355.693 680.878 356.944C680.878 357.131 680.868 357.336 680.85 357.56C680.831 357.765 680.794 358.008 680.738 358.288H669.51V356.188H679.394L678.47 357C678.47 356.104 678.311 355.348 677.994 354.732C677.676 354.097 677.228 353.612 676.65 353.276C676.071 352.921 675.371 352.744 674.55 352.744C673.691 352.744 672.935 352.931 672.282 353.304C671.628 353.677 671.124 354.2 670.77 354.872C670.415 355.544 670.238 356.337 670.238 357.252C670.238 358.185 670.424 359.007 670.798 359.716C671.171 360.407 671.703 360.948 672.394 361.34C673.084 361.713 673.878 361.9 674.774 361.9C675.52 361.9 676.202 361.769 676.818 361.508C677.452 361.247 677.994 360.855 678.442 360.332L680.066 361.984C679.431 362.731 678.647 363.3 677.714 363.692C676.799 364.084 675.819 364.28 674.774 364.28ZM690.625 364.28C689.617 364.28 688.703 364.075 687.881 363.664C687.079 363.235 686.435 362.647 685.949 361.9C685.464 361.153 685.193 360.304 685.137 359.352V355.348C685.193 354.377 685.464 353.528 685.949 352.8C686.453 352.053 687.107 351.475 687.909 351.064C688.731 350.635 689.636 350.42 690.625 350.42C691.839 350.42 692.931 350.728 693.901 351.344C694.891 351.96 695.665 352.791 696.225 353.836C696.785 354.881 697.065 356.057 697.065 357.364C697.065 358.671 696.785 359.847 696.225 360.892C695.665 361.937 694.891 362.768 693.901 363.384C692.931 363.981 691.839 364.28 690.625 364.28ZM690.205 361.9C691.045 361.9 691.783 361.704 692.417 361.312C693.052 360.92 693.556 360.388 693.929 359.716C694.303 359.025 694.489 358.232 694.489 357.336C694.489 356.459 694.303 355.675 693.929 354.984C693.556 354.293 693.052 353.761 692.417 353.388C691.783 352.996 691.055 352.8 690.233 352.8C689.393 352.8 688.656 352.996 688.021 353.388C687.387 353.761 686.892 354.293 686.537 354.984C686.183 355.675 686.005 356.468 686.005 357.364C686.005 358.241 686.173 359.025 686.509 359.716C686.864 360.388 687.359 360.92 687.993 361.312C688.647 361.704 689.384 361.9 690.205 361.9ZM683.625 369.572V350.7H686.145V354.2L685.669 357.42L686.145 360.668V369.572H683.625ZM701.556 364V345.128H704.076V364H701.556ZM698.28 352.996V350.7H707.352V352.996H698.28ZM709.004 367.08L710.74 363.748L711.636 363.524C711.542 363.729 711.421 363.897 711.272 364.028C711.141 364.159 710.973 364.224 710.768 364.224C710.376 364.224 710.012 364.065 709.676 363.748C709.358 363.412 709.2 363.001 709.2 362.516C709.2 361.975 709.377 361.527 709.732 361.172C710.086 360.799 710.534 360.612 711.076 360.612C711.561 360.612 711.99 360.799 712.364 361.172C712.737 361.527 712.924 361.975 712.924 362.516C712.924 362.721 712.877 362.973 712.784 363.272C712.709 363.552 712.55 363.916 712.308 364.364L710.46 367.864L709.004 367.08ZM726.207 364L720.943 350.7H723.575L727.383 361.06H726.543L730.323 350.7H731.779L735.559 361.06H734.719L738.527 350.7H741.159L735.923 364H734.439L730.603 353.948H731.527L727.663 364H726.207ZM749.176 364.28C747.851 364.28 746.656 363.981 745.592 363.384C744.528 362.768 743.688 361.937 743.072 360.892C742.456 359.847 742.148 358.661 742.148 357.336C742.148 356.029 742.447 354.853 743.044 353.808C743.66 352.763 744.481 351.941 745.508 351.344C746.553 350.728 747.72 350.42 749.008 350.42C750.24 350.42 751.323 350.7 752.256 351.26C753.208 351.82 753.945 352.595 754.468 353.584C755.009 354.573 755.28 355.693 755.28 356.944C755.28 357.131 755.271 357.336 755.252 357.56C755.233 357.765 755.196 358.008 755.14 358.288H743.912V356.188H753.796L752.872 357C752.872 356.104 752.713 355.348 752.396 354.732C752.079 354.097 751.631 353.612 751.052 353.276C750.473 352.921 749.773 352.744 748.952 352.744C748.093 352.744 747.337 352.931 746.684 353.304C746.031 353.677 745.527 354.2 745.172 354.872C744.817 355.544 744.64 356.337 744.64 357.252C744.64 358.185 744.827 359.007 745.2 359.716C745.573 360.407 746.105 360.948 746.796 361.34C747.487 361.713 748.28 361.9 749.176 361.9C749.923 361.9 750.604 361.769 751.22 361.508C751.855 361.247 752.396 360.855 752.844 360.332L754.468 361.984C753.833 362.731 753.049 363.3 752.116 363.692C751.201 364.084 750.221 364.28 749.176 364.28ZM773.26 364V356.244C773.26 355.236 772.943 354.405 772.308 353.752C771.673 353.099 770.852 352.772 769.844 352.772C769.172 352.772 768.575 352.921 768.052 353.22C767.529 353.519 767.119 353.929 766.82 354.452C766.521 354.975 766.372 355.572 766.372 356.244L765.336 355.656C765.336 354.648 765.56 353.752 766.008 352.968C766.456 352.184 767.081 351.568 767.884 351.12C768.687 350.653 769.592 350.42 770.6 350.42C771.608 350.42 772.495 350.672 773.26 351.176C774.044 351.68 774.66 352.343 775.108 353.164C775.556 353.967 775.78 354.825 775.78 355.74V364H773.26ZM763.852 364V350.7H766.372V364H763.852ZM785.268 364.28C783.961 364.28 782.785 363.972 781.74 363.356C780.694 362.74 779.864 361.909 779.248 360.864C778.632 359.8 778.324 358.615 778.324 357.308C778.324 356.02 778.632 354.863 779.248 353.836C779.864 352.791 780.694 351.96 781.74 351.344C782.785 350.728 783.961 350.42 785.268 350.42C786.556 350.42 787.722 350.728 788.768 351.344C789.832 351.941 790.672 352.763 791.288 353.808C791.904 354.853 792.212 356.02 792.212 357.308C792.212 358.615 791.904 359.8 791.288 360.864C790.672 361.909 789.832 362.74 788.768 363.356C787.722 363.972 786.556 364.28 785.268 364.28ZM785.268 361.844C786.108 361.844 786.854 361.648 787.508 361.256C788.161 360.864 788.674 360.332 789.048 359.66C789.421 358.969 789.608 358.185 789.608 357.308C789.608 356.449 789.412 355.684 789.02 355.012C788.646 354.34 788.133 353.817 787.48 353.444C786.845 353.052 786.108 352.856 785.268 352.856C784.428 352.856 783.681 353.052 783.028 353.444C782.374 353.817 781.861 354.34 781.488 355.012C781.114 355.684 780.928 356.449 780.928 357.308C780.928 358.185 781.114 358.969 781.488 359.66C781.861 360.332 782.374 360.864 783.028 361.256C783.681 361.648 784.428 361.844 785.268 361.844ZM798.476 364L793.212 350.7H795.844L799.652 361.06H798.812L802.592 350.7H804.048L807.828 361.06H806.988L810.796 350.7H813.428L808.192 364H806.708L802.872 353.948H803.796L799.932 364H798.476ZM830.901 364V356.244C830.901 355.236 830.583 354.405 829.949 353.752C829.314 353.099 828.493 352.772 827.485 352.772C826.813 352.772 826.215 352.921 825.693 353.22C825.17 353.519 824.759 353.929 824.461 354.452C824.162 354.975 824.013 355.572 824.013 356.244L822.977 355.656C822.977 354.648 823.201 353.752 823.649 352.968C824.097 352.184 824.722 351.568 825.525 351.12C826.327 350.653 827.233 350.42 828.241 350.42C829.249 350.42 830.135 350.672 830.901 351.176C831.685 351.68 832.301 352.343 832.749 353.164C833.197 353.967 833.421 354.825 833.421 355.74V364H830.901ZM821.493 364V350.7H824.013V364H821.493ZM842.992 364.28C841.667 364.28 840.472 363.981 839.408 363.384C838.344 362.768 837.504 361.937 836.888 360.892C836.272 359.847 835.964 358.661 835.964 357.336C835.964 356.029 836.263 354.853 836.86 353.808C837.476 352.763 838.298 351.941 839.324 351.344C840.37 350.728 841.536 350.42 842.824 350.42C844.056 350.42 845.139 350.7 846.072 351.26C847.024 351.82 847.762 352.595 848.284 353.584C848.826 354.573 849.096 355.693 849.096 356.944C849.096 357.131 849.087 357.336 849.068 357.56C849.05 357.765 849.012 358.008 848.956 358.288H837.728V356.188H847.612L846.688 357C846.688 356.104 846.53 355.348 846.212 354.732C845.895 354.097 845.447 353.612 844.868 353.276C844.29 352.921 843.59 352.744 842.768 352.744C841.91 352.744 841.154 352.931 840.5 353.304C839.847 353.677 839.343 354.2 838.988 354.872C838.634 355.544 838.456 356.337 838.456 357.252C838.456 358.185 838.643 359.007 839.016 359.716C839.39 360.407 839.922 360.948 840.612 361.34C841.303 361.713 842.096 361.9 842.992 361.9C843.739 361.9 844.42 361.769 845.036 361.508C845.671 361.247 846.212 360.855 846.66 360.332L848.284 361.984C847.65 362.731 846.866 363.3 845.932 363.692C845.018 364.084 844.038 364.28 842.992 364.28ZM858.004 364.28C856.679 364.28 855.484 363.981 854.42 363.384C853.356 362.768 852.516 361.937 851.9 360.892C851.284 359.847 850.976 358.661 850.976 357.336C850.976 356.029 851.275 354.853 851.872 353.808C852.488 352.763 853.309 351.941 854.336 351.344C855.381 350.728 856.548 350.42 857.836 350.42C859.068 350.42 860.151 350.7 861.084 351.26C862.036 351.82 862.773 352.595 863.296 353.584C863.837 354.573 864.108 355.693 864.108 356.944C864.108 357.131 864.099 357.336 864.08 357.56C864.061 357.765 864.024 358.008 863.968 358.288H852.74V356.188H862.624L861.7 357C861.7 356.104 861.541 355.348 861.224 354.732C860.907 354.097 860.459 353.612 859.88 353.276C859.301 352.921 858.601 352.744 857.78 352.744C856.921 352.744 856.165 352.931 855.512 353.304C854.859 353.677 854.355 354.2 854 354.872C853.645 355.544 853.468 356.337 853.468 357.252C853.468 358.185 853.655 359.007 854.028 359.716C854.401 360.407 854.933 360.948 855.624 361.34C856.315 361.713 857.108 361.9 858.004 361.9C858.751 361.9 859.432 361.769 860.048 361.508C860.683 361.247 861.224 360.855 861.672 360.332L863.296 361.984C862.661 362.731 861.877 363.3 860.944 363.692C860.029 364.084 859.049 364.28 858.004 364.28ZM872.484 364.28C871.252 364.28 870.15 363.981 869.18 363.384C868.209 362.768 867.434 361.937 866.856 360.892C866.296 359.847 866.016 358.671 866.016 357.364C866.016 356.057 866.296 354.881 866.856 353.836C867.434 352.791 868.209 351.96 869.18 351.344C870.15 350.728 871.252 350.42 872.484 350.42C873.473 350.42 874.369 350.635 875.172 351.064C875.974 351.475 876.618 352.053 877.104 352.8C877.608 353.528 877.888 354.377 877.944 355.348V359.352C877.888 360.304 877.617 361.153 877.132 361.9C876.646 362.647 876.002 363.235 875.2 363.664C874.397 364.075 873.492 364.28 872.484 364.28ZM872.904 361.9C873.744 361.9 874.472 361.704 875.088 361.312C875.722 360.92 876.217 360.388 876.572 359.716C876.926 359.025 877.104 358.241 877.104 357.364C877.104 356.449 876.917 355.656 876.544 354.984C876.189 354.312 875.694 353.78 875.06 353.388C874.444 352.996 873.716 352.8 872.876 352.8C872.036 352.8 871.298 352.996 870.664 353.388C870.029 353.78 869.525 354.321 869.152 355.012C868.797 355.684 868.62 356.459 868.62 357.336C868.62 358.232 868.797 359.025 869.152 359.716C869.525 360.388 870.029 360.92 870.664 361.312C871.317 361.704 872.064 361.9 872.904 361.9ZM879.484 364H876.936V360.416L877.412 357.168L876.936 353.948V344.008H879.484V364ZM891.021 364V345.128H893.541V364H891.021ZM887.745 352.996V350.7H896.817V352.996H887.745ZM904.951 364.28C903.645 364.28 902.469 363.972 901.423 363.356C900.378 362.74 899.547 361.909 898.931 360.864C898.315 359.8 898.007 358.615 898.007 357.308C898.007 356.02 898.315 354.863 898.931 353.836C899.547 352.791 900.378 351.96 901.423 351.344C902.469 350.728 903.645 350.42 904.951 350.42C906.239 350.42 907.406 350.728 908.451 351.344C909.515 351.941 910.355 352.763 910.971 353.808C911.587 354.853 911.895 356.02 911.895 357.308C911.895 358.615 911.587 359.8 910.971 360.864C910.355 361.909 909.515 362.74 908.451 363.356C907.406 363.972 906.239 364.28 904.951 364.28ZM904.951 361.844C905.791 361.844 906.538 361.648 907.191 361.256C907.845 360.864 908.358 360.332 908.731 359.66C909.105 358.969 909.291 358.185 909.291 357.308C909.291 356.449 909.095 355.684 908.703 355.012C908.33 354.34 907.817 353.817 907.163 353.444C906.529 353.052 905.791 352.856 904.951 352.856C904.111 352.856 903.365 353.052 902.711 353.444C902.058 353.817 901.545 354.34 901.171 355.012C900.798 355.684 900.611 356.449 900.611 357.308C900.611 358.185 900.798 358.969 901.171 359.66C901.545 360.332 902.058 360.864 902.711 361.256C903.365 361.648 904.111 361.844 904.951 361.844ZM926.187 364.28C924.955 364.28 923.854 363.981 922.883 363.384C921.912 362.768 921.138 361.937 920.559 360.892C919.999 359.847 919.719 358.671 919.719 357.364C919.719 356.057 919.999 354.881 920.559 353.836C921.138 352.791 921.912 351.96 922.883 351.344C923.854 350.728 924.955 350.42 926.187 350.42C927.176 350.42 928.072 350.635 928.875 351.064C929.678 351.475 930.322 352.053 930.807 352.8C931.311 353.528 931.591 354.377 931.647 355.348V359.352C931.591 360.304 931.32 361.153 930.835 361.9C930.35 362.647 929.706 363.235 928.903 363.664C928.1 364.075 927.195 364.28 926.187 364.28ZM926.607 361.9C927.447 361.9 928.175 361.704 928.791 361.312C929.426 360.92 929.92 360.388 930.275 359.716C930.63 359.025 930.807 358.241 930.807 357.364C930.807 356.449 930.62 355.656 930.247 354.984C929.892 354.312 929.398 353.78 928.763 353.388C928.147 352.996 927.419 352.8 926.579 352.8C925.739 352.8 925.002 352.996 924.367 353.388C923.732 353.78 923.228 354.321 922.855 355.012C922.5 355.684 922.323 356.459 922.323 357.336C922.323 358.232 922.5 359.025 922.855 359.716C923.228 360.388 923.732 360.92 924.367 361.312C925.02 361.704 925.767 361.9 926.607 361.9ZM933.187 364H930.639V360.416L931.115 357.168L930.639 353.948V344.008H933.187V364ZM943.016 364.28C941.69 364.28 940.496 363.981 939.432 363.384C938.368 362.768 937.528 361.937 936.912 360.892C936.296 359.847 935.988 358.661 935.988 357.336C935.988 356.029 936.286 354.853 936.884 353.808C937.5 352.763 938.321 351.941 939.348 351.344C940.393 350.728 941.56 350.42 942.848 350.42C944.08 350.42 945.162 350.7 946.096 351.26C947.048 351.82 947.785 352.595 948.308 353.584C948.849 354.573 949.12 355.693 949.12 356.944C949.12 357.131 949.11 357.336 949.092 357.56C949.073 357.765 949.036 358.008 948.98 358.288H937.752V356.188H947.636L946.712 357C946.712 356.104 946.553 355.348 946.236 354.732C945.918 354.097 945.47 353.612 944.892 353.276C944.313 352.921 943.613 352.744 942.792 352.744C941.933 352.744 941.177 352.931 940.524 353.304C939.87 353.677 939.366 354.2 939.012 354.872C938.657 355.544 938.48 356.337 938.48 357.252C938.48 358.185 938.666 359.007 939.04 359.716C939.413 360.407 939.945 360.948 940.636 361.34C941.326 361.713 942.12 361.9 943.016 361.9C943.762 361.9 944.444 361.769 945.06 361.508C945.694 361.247 946.236 360.855 946.684 360.332L948.308 361.984C947.673 362.731 946.889 363.3 945.956 363.692C945.041 364.084 944.061 364.28 943.016 364.28ZM956.213 364L950.109 350.7H952.909L957.809 361.928H956.185L961.113 350.7H963.801L957.697 364H956.213ZM971.59 364.28C970.265 364.28 969.07 363.981 968.006 363.384C966.942 362.768 966.102 361.937 965.486 360.892C964.87 359.847 964.562 358.661 964.562 357.336C964.562 356.029 964.861 354.853 965.458 353.808C966.074 352.763 966.895 351.941 967.922 351.344C968.967 350.728 970.134 350.42 971.422 350.42C972.654 350.42 973.737 350.7 974.67 351.26C975.622 351.82 976.359 352.595 976.882 353.584C977.423 354.573 977.694 355.693 977.694 356.944C977.694 357.131 977.685 357.336 977.666 357.56C977.647 357.765 977.61 358.008 977.554 358.288H966.326V356.188H976.21L975.286 357C975.286 356.104 975.127 355.348 974.81 354.732C974.493 354.097 974.045 353.612 973.466 353.276C972.887 352.921 972.187 352.744 971.366 352.744C970.507 352.744 969.751 352.931 969.098 353.304C968.445 353.677 967.941 354.2 967.586 354.872C967.231 355.544 967.054 356.337 967.054 357.252C967.054 358.185 967.241 359.007 967.614 359.716C967.987 360.407 968.519 360.948 969.21 361.34C969.901 361.713 970.694 361.9 971.59 361.9C972.337 361.9 973.018 361.769 973.634 361.508C974.269 361.247 974.81 360.855 975.258 360.332L976.882 361.984C976.247 362.731 975.463 363.3 974.53 363.692C973.615 364.084 972.635 364.28 971.59 364.28ZM980.442 364V344.008H982.962V364H980.442ZM992.725 364.28C991.418 364.28 990.242 363.972 989.197 363.356C988.151 362.74 987.321 361.909 986.705 360.864C986.089 359.8 985.781 358.615 985.781 357.308C985.781 356.02 986.089 354.863 986.705 353.836C987.321 352.791 988.151 351.96 989.197 351.344C990.242 350.728 991.418 350.42 992.725 350.42C994.013 350.42 995.179 350.728 996.225 351.344C997.289 351.941 998.129 352.763 998.745 353.808C999.361 354.853 999.669 356.02 999.669 357.308C999.669 358.615 999.361 359.8 998.745 360.864C998.129 361.909 997.289 362.74 996.225 363.356C995.179 363.972 994.013 364.28 992.725 364.28ZM992.725 361.844C993.565 361.844 994.311 361.648 994.965 361.256C995.618 360.864 996.131 360.332 996.505 359.66C996.878 358.969 997.065 358.185 997.065 357.308C997.065 356.449 996.869 355.684 996.477 355.012C996.103 354.34 995.59 353.817 994.937 353.444C994.302 353.052 993.565 352.856 992.725 352.856C991.885 352.856 991.138 353.052 990.485 353.444C989.831 353.817 989.318 354.34 988.945 355.012C988.571 355.684 988.385 356.449 988.385 357.308C988.385 358.185 988.571 358.969 988.945 359.66C989.318 360.332 989.831 360.864 990.485 361.256C991.138 361.648 991.885 361.844 992.725 361.844ZM1009.51 364.28C1008.5 364.28 1007.59 364.075 1006.76 363.664C1005.96 363.235 1005.32 362.647 1004.83 361.9C1004.35 361.153 1004.08 360.304 1004.02 359.352V355.348C1004.08 354.377 1004.35 353.528 1004.83 352.8C1005.34 352.053 1005.99 351.475 1006.79 351.064C1007.61 350.635 1008.52 350.42 1009.51 350.42C1010.72 350.42 1011.81 350.728 1012.78 351.344C1013.77 351.96 1014.55 352.791 1015.11 353.836C1015.67 354.881 1015.95 356.057 1015.95 357.364C1015.95 358.671 1015.67 359.847 1015.11 360.892C1014.55 361.937 1013.77 362.768 1012.78 363.384C1011.81 363.981 1010.72 364.28 1009.51 364.28ZM1009.09 361.9C1009.93 361.9 1010.67 361.704 1011.3 361.312C1011.93 360.92 1012.44 360.388 1012.81 359.716C1013.19 359.025 1013.37 358.232 1013.37 357.336C1013.37 356.459 1013.19 355.675 1012.81 354.984C1012.44 354.293 1011.93 353.761 1011.3 353.388C1010.67 352.996 1009.94 352.8 1009.12 352.8C1008.28 352.8 1007.54 352.996 1006.9 353.388C1006.27 353.761 1005.77 354.293 1005.42 354.984C1005.07 355.675 1004.89 356.468 1004.89 357.364C1004.89 358.241 1005.06 359.025 1005.39 359.716C1005.75 360.388 1006.24 360.92 1006.88 361.312C1007.53 361.704 1008.27 361.9 1009.09 361.9ZM1002.51 369.572V350.7H1005.03V354.2L1004.55 357.42L1005.03 360.668V369.572H1002.51ZM1024.66 364V350.7H1027.18V364H1024.66ZM1025.92 348.04C1025.45 348.04 1025.07 347.891 1024.77 347.592C1024.47 347.275 1024.32 346.883 1024.32 346.416C1024.32 345.968 1024.47 345.595 1024.77 345.296C1025.07 344.979 1025.45 344.82 1025.92 344.82C1026.38 344.82 1026.77 344.979 1027.07 345.296C1027.36 345.595 1027.51 345.968 1027.51 346.416C1027.51 346.883 1027.36 347.275 1027.07 347.592C1026.77 347.891 1026.38 348.04 1025.92 348.04ZM1032.93 364V345.128H1035.45V364H1032.93ZM1029.66 352.996V350.7H1038.73V352.996H1029.66ZM1051.59 364L1045.48 350.7H1048.28L1053.18 361.928H1051.56L1056.49 350.7H1059.18L1053.07 364H1051.59ZM1061.35 364V350.7H1063.87V364H1061.35ZM1062.61 348.04C1062.15 348.04 1061.76 347.891 1061.46 347.592C1061.17 347.275 1061.02 346.883 1061.02 346.416C1061.02 345.968 1061.17 345.595 1061.46 345.296C1061.76 344.979 1062.15 344.82 1062.61 344.82C1063.08 344.82 1063.46 344.979 1063.76 345.296C1064.06 345.595 1064.21 345.968 1064.21 346.416C1064.21 346.883 1064.06 347.275 1063.76 347.592C1063.46 347.891 1063.08 348.04 1062.61 348.04ZM1071.81 364.28C1071.07 364.28 1070.36 364.187 1069.69 364C1069.03 363.795 1068.43 363.515 1067.87 363.16C1067.31 362.787 1066.82 362.348 1066.41 361.844L1068.03 360.22C1068.52 360.817 1069.08 361.265 1069.71 361.564C1070.35 361.844 1071.06 361.984 1071.84 361.984C1072.63 361.984 1073.23 361.853 1073.66 361.592C1074.09 361.312 1074.31 360.929 1074.31 360.444C1074.31 359.959 1074.13 359.585 1073.77 359.324C1073.44 359.044 1073 358.82 1072.46 358.652C1071.92 358.465 1071.34 358.288 1070.72 358.12C1070.12 357.933 1069.56 357.7 1069.01 357.42C1068.47 357.14 1068.02 356.757 1067.67 356.272C1067.33 355.787 1067.17 355.143 1067.17 354.34C1067.17 353.537 1067.36 352.847 1067.75 352.268C1068.15 351.671 1068.69 351.213 1069.38 350.896C1070.09 350.579 1070.94 350.42 1071.93 350.42C1072.97 350.42 1073.9 350.607 1074.7 350.98C1075.52 351.335 1076.19 351.876 1076.71 352.604L1075.09 354.228C1074.72 353.743 1074.25 353.369 1073.69 353.108C1073.15 352.847 1072.53 352.716 1071.84 352.716C1071.11 352.716 1070.55 352.847 1070.16 353.108C1069.79 353.351 1069.6 353.696 1069.6 354.144C1069.6 354.592 1069.77 354.937 1070.11 355.18C1070.44 355.423 1070.88 355.628 1071.42 355.796C1071.98 355.964 1072.56 356.141 1073.16 356.328C1073.76 356.496 1074.32 356.729 1074.87 357.028C1075.41 357.327 1075.85 357.728 1076.18 358.232C1076.54 358.736 1076.71 359.399 1076.71 360.22C1076.71 361.471 1076.27 362.46 1075.37 363.188C1074.49 363.916 1073.31 364.28 1071.81 364.28ZM1084.88 364.28C1083.8 364.28 1082.82 364.037 1081.94 363.552C1081.08 363.048 1080.41 362.357 1079.93 361.48C1079.44 360.603 1079.2 359.585 1079.2 358.428V350.7H1081.72V358.316C1081.72 359.044 1081.84 359.679 1082.08 360.22C1082.34 360.743 1082.72 361.144 1083.2 361.424C1083.69 361.704 1084.26 361.844 1084.91 361.844C1085.9 361.844 1086.68 361.536 1087.24 360.92C1087.8 360.285 1088.08 359.417 1088.08 358.316V350.7H1090.6V358.428C1090.6 359.585 1090.35 360.603 1089.87 361.48C1089.38 362.357 1088.71 363.048 1087.85 363.552C1087.01 364.037 1086.02 364.28 1084.88 364.28ZM1099.63 364.28C1098.42 364.28 1097.31 363.981 1096.33 363.384C1095.34 362.768 1094.55 361.937 1093.97 360.892C1093.41 359.847 1093.13 358.671 1093.13 357.364C1093.13 356.057 1093.41 354.881 1093.97 353.836C1094.55 352.791 1095.33 351.96 1096.3 351.344C1097.29 350.728 1098.4 350.42 1099.63 350.42C1100.64 350.42 1101.53 350.635 1102.32 351.064C1103.12 351.475 1103.76 352.053 1104.25 352.8C1104.73 353.528 1105.01 354.377 1105.06 355.348V359.352C1105.01 360.304 1104.73 361.153 1104.25 361.9C1103.78 362.647 1103.15 363.235 1102.35 363.664C1101.56 364.075 1100.66 364.28 1099.63 364.28ZM1100.05 361.9C1101.3 361.9 1102.31 361.48 1103.07 360.64C1103.84 359.781 1104.22 358.689 1104.22 357.364C1104.22 356.449 1104.04 355.656 1103.69 354.984C1103.35 354.293 1102.87 353.761 1102.23 353.388C1101.6 352.996 1100.86 352.8 1100.02 352.8C1099.18 352.8 1098.43 352.996 1097.78 353.388C1097.15 353.78 1096.64 354.321 1096.27 355.012C1095.91 355.684 1095.74 356.459 1095.74 357.336C1095.74 358.232 1095.91 359.025 1096.27 359.716C1096.64 360.388 1097.16 360.92 1097.81 361.312C1098.46 361.704 1099.21 361.9 1100.05 361.9ZM1104.05 364V360.416L1104.53 357.168L1104.05 353.948V350.7H1106.6V364H1104.05ZM1110.27 364V344.008H1112.79V364H1110.27ZM1116.48 364V344.008H1119V364H1116.48ZM1127.05 364.112L1121.28 350.7H1124.08L1128.37 361.2H1127.47L1131.98 350.7H1134.78L1128.56 364.112H1127.05ZM1123.24 369.572L1127.16 361.536L1128.56 364.112L1126.04 369.572H1123.24ZM1148.55 364.28C1147.33 364.28 1146.23 363.981 1145.24 363.384C1144.25 362.768 1143.47 361.937 1142.89 360.892C1142.33 359.847 1142.05 358.671 1142.05 357.364C1142.05 356.057 1142.33 354.881 1142.89 353.836C1143.47 352.791 1144.24 351.96 1145.21 351.344C1146.2 350.728 1147.31 350.42 1148.55 350.42C1149.55 350.42 1150.45 350.635 1151.23 351.064C1152.04 351.475 1152.68 352.053 1153.17 352.8C1153.65 353.528 1153.92 354.377 1153.98 355.348V359.352C1153.92 360.304 1153.65 361.153 1153.17 361.9C1152.7 362.647 1152.07 363.235 1151.26 363.664C1150.48 364.075 1149.57 364.28 1148.55 364.28ZM1148.97 361.9C1150.22 361.9 1151.23 361.48 1151.99 360.64C1152.76 359.781 1153.14 358.689 1153.14 357.364C1153.14 356.449 1152.96 355.656 1152.61 354.984C1152.27 354.293 1151.79 353.761 1151.15 353.388C1150.52 352.996 1149.78 352.8 1148.94 352.8C1148.1 352.8 1147.35 352.996 1146.7 353.388C1146.06 353.78 1145.56 354.321 1145.19 355.012C1144.83 355.684 1144.65 356.459 1144.65 357.336C1144.65 358.232 1144.83 359.025 1145.19 359.716C1145.56 360.388 1146.07 360.92 1146.73 361.312C1147.38 361.704 1148.13 361.9 1148.97 361.9ZM1152.97 364V360.416L1153.45 357.168L1152.97 353.948V350.7H1155.52V364H1152.97ZM1168.6 364V356.244C1168.6 355.236 1168.28 354.405 1167.64 353.752C1167.01 353.099 1166.19 352.772 1165.18 352.772C1164.51 352.772 1163.91 352.921 1163.39 353.22C1162.87 353.519 1162.45 353.929 1162.16 354.452C1161.86 354.975 1161.71 355.572 1161.71 356.244L1160.67 355.656C1160.67 354.648 1160.9 353.752 1161.34 352.968C1161.79 352.184 1162.42 351.568 1163.22 351.12C1164.02 350.653 1164.93 350.42 1165.94 350.42C1166.94 350.42 1167.83 350.672 1168.6 351.176C1169.38 351.68 1170 352.343 1170.44 353.164C1170.89 353.967 1171.12 354.825 1171.12 355.74V364H1168.6ZM1159.19 364V350.7H1161.71V364H1159.19ZM1180.16 364.28C1178.92 364.28 1177.82 363.981 1176.85 363.384C1175.88 362.768 1175.11 361.937 1174.53 360.892C1173.97 359.847 1173.69 358.671 1173.69 357.364C1173.69 356.057 1173.97 354.881 1174.53 353.836C1175.11 352.791 1175.88 351.96 1176.85 351.344C1177.82 350.728 1178.92 350.42 1180.16 350.42C1181.15 350.42 1182.04 350.635 1182.84 351.064C1183.65 351.475 1184.29 352.053 1184.78 352.8C1185.28 353.528 1185.56 354.377 1185.62 355.348V359.352C1185.56 360.304 1185.29 361.153 1184.8 361.9C1184.32 362.647 1183.67 363.235 1182.87 363.664C1182.07 364.075 1181.16 364.28 1180.16 364.28ZM1180.58 361.9C1181.42 361.9 1182.14 361.704 1182.76 361.312C1183.39 360.92 1183.89 360.388 1184.24 359.716C1184.6 359.025 1184.78 358.241 1184.78 357.364C1184.78 356.449 1184.59 355.656 1184.22 354.984C1183.86 354.312 1183.37 353.78 1182.73 353.388C1182.12 352.996 1181.39 352.8 1180.55 352.8C1179.71 352.8 1178.97 352.996 1178.34 353.388C1177.7 353.78 1177.2 354.321 1176.82 355.012C1176.47 355.684 1176.29 356.459 1176.29 357.336C1176.29 358.232 1176.47 359.025 1176.82 359.716C1177.2 360.388 1177.7 360.92 1178.34 361.312C1178.99 361.704 1179.74 361.9 1180.58 361.9ZM1187.16 364H1184.61V360.416L1185.08 357.168L1184.61 353.948V344.008H1187.16V364ZM1198.55 364V348.292C1198.55 347.415 1198.74 346.64 1199.11 345.968C1199.5 345.277 1200.05 344.736 1200.74 344.344C1201.43 343.933 1202.22 343.728 1203.12 343.728C1203.81 343.728 1204.41 343.849 1204.94 344.092C1205.46 344.316 1205.94 344.633 1206.39 345.044L1204.74 346.696C1204.5 346.491 1204.25 346.341 1203.98 346.248C1203.72 346.136 1203.43 346.08 1203.12 346.08C1202.46 346.08 1201.96 346.285 1201.6 346.696C1201.25 347.088 1201.07 347.62 1201.07 348.292V364H1198.55ZM1195.28 352.996V350.7H1207.9V352.996H1195.28ZM1206.45 364V350.7H1209V364H1206.45ZM1207.71 349.3C1207.26 349.3 1206.89 349.151 1206.59 348.852C1206.29 348.535 1206.14 348.143 1206.14 347.676C1206.14 347.228 1206.29 346.855 1206.59 346.556C1206.89 346.239 1207.26 346.08 1207.71 346.08C1208.19 346.08 1208.58 346.239 1208.86 346.556C1209.16 346.855 1209.3 347.228 1209.3 347.676C1209.3 348.143 1209.16 348.535 1208.86 348.852C1208.58 349.151 1208.19 349.3 1207.71 349.3ZM1212.7 364V344.008H1215.22V364H1212.7ZM1218.91 364V344.008H1221.43V364H1218.91ZM1230.97 364V350.7H1233.49V364H1230.97ZM1232.23 348.04C1231.76 348.04 1231.38 347.891 1231.08 347.592C1230.78 347.275 1230.63 346.883 1230.63 346.416C1230.63 345.968 1230.78 345.595 1231.08 345.296C1231.38 344.979 1231.76 344.82 1232.23 344.82C1232.69 344.82 1233.08 344.979 1233.37 345.296C1233.67 345.595 1233.82 345.968 1233.82 346.416C1233.82 346.883 1233.67 347.275 1233.37 347.592C1233.08 347.891 1232.69 348.04 1232.23 348.04ZM1239.24 364V345.128H1241.76V364H1239.24ZM1235.97 352.996V350.7H1245.04V352.996H1235.97ZM649.07 399L643.806 385.7H646.438L650.246 396.06H649.406L653.186 385.7H654.642L658.422 396.06H657.582L661.39 385.7H664.022L658.786 399H657.302L653.466 388.948H654.39L650.526 399H649.07ZM666.071 399V385.7H668.591V399H666.071ZM667.331 383.04C666.865 383.04 666.482 382.891 666.183 382.592C665.885 382.275 665.735 381.883 665.735 381.416C665.735 380.968 665.885 380.595 666.183 380.296C666.482 379.979 666.865 379.82 667.331 379.82C667.798 379.82 668.181 379.979 668.479 380.296C668.778 380.595 668.927 380.968 668.927 381.416C668.927 381.883 668.778 382.275 668.479 382.592C668.181 382.891 667.798 383.04 667.331 383.04ZM674.349 399V380.128H676.869V399H674.349ZM671.073 387.996V385.7H680.145V387.996H671.073ZM692.022 399V391.244C692.022 390.236 691.704 389.405 691.07 388.752C690.435 388.099 689.614 387.772 688.606 387.772C687.934 387.772 687.336 387.921 686.814 388.22C686.291 388.519 685.88 388.929 685.582 389.452C685.283 389.975 685.134 390.572 685.134 391.244L684.098 390.656C684.098 389.648 684.322 388.752 684.77 387.968C685.218 387.184 685.843 386.568 686.646 386.12C687.448 385.653 688.354 385.42 689.362 385.42C690.37 385.42 691.256 385.644 692.022 386.092C692.806 386.54 693.422 387.165 693.87 387.968C694.318 388.771 694.542 389.695 694.542 390.74V399H692.022ZM682.614 399V379.008H685.134V399H682.614ZM703.778 399V385.7H706.298V399H703.778ZM706.298 391.412L705.346 390.992C705.346 389.293 705.738 387.94 706.522 386.932C707.306 385.924 708.435 385.42 709.91 385.42C710.582 385.42 711.188 385.541 711.73 385.784C712.271 386.008 712.775 386.391 713.242 386.932L711.59 388.64C711.31 388.341 711.002 388.127 710.666 387.996C710.33 387.865 709.938 387.8 709.49 387.8C708.556 387.8 707.791 388.099 707.194 388.696C706.596 389.293 706.298 390.199 706.298 391.412ZM720.738 399.28C719.413 399.28 718.218 398.981 717.154 398.384C716.09 397.768 715.25 396.937 714.634 395.892C714.018 394.847 713.71 393.661 713.71 392.336C713.71 391.029 714.009 389.853 714.606 388.808C715.222 387.763 716.044 386.941 717.07 386.344C718.116 385.728 719.282 385.42 720.57 385.42C721.802 385.42 722.885 385.7 723.818 386.26C724.77 386.82 725.508 387.595 726.03 388.584C726.572 389.573 726.842 390.693 726.842 391.944C726.842 392.131 726.833 392.336 726.814 392.56C726.796 392.765 726.758 393.008 726.702 393.288H715.474V391.188H725.358L724.434 392C724.434 391.104 724.276 390.348 723.958 389.732C723.641 389.097 723.193 388.612 722.614 388.276C722.036 387.921 721.336 387.744 720.514 387.744C719.656 387.744 718.9 387.931 718.246 388.304C717.593 388.677 717.089 389.2 716.734 389.872C716.38 390.544 716.202 391.337 716.202 392.252C716.202 393.185 716.389 394.007 716.762 394.716C717.136 395.407 717.668 395.948 718.358 396.34C719.049 396.713 719.842 396.9 720.738 396.9C721.485 396.9 722.166 396.769 722.782 396.508C723.417 396.247 723.958 395.855 724.406 395.332L726.03 396.984C725.396 397.731 724.612 398.3 723.678 398.692C722.764 399.084 721.784 399.28 720.738 399.28ZM729.59 399V379.008H732.11V399H729.59ZM741.957 399.28C740.632 399.28 739.437 398.981 738.373 398.384C737.309 397.768 736.469 396.937 735.853 395.892C735.237 394.847 734.929 393.661 734.929 392.336C734.929 391.029 735.228 389.853 735.825 388.808C736.441 387.763 737.263 386.941 738.289 386.344C739.335 385.728 740.501 385.42 741.789 385.42C743.021 385.42 744.104 385.7 745.037 386.26C745.989 386.82 746.727 387.595 747.249 388.584C747.791 389.573 748.061 390.693 748.061 391.944C748.061 392.131 748.052 392.336 748.033 392.56C748.015 392.765 747.977 393.008 747.921 393.288H736.693V391.188H746.577L745.653 392C745.653 391.104 745.495 390.348 745.177 389.732C744.86 389.097 744.412 388.612 743.833 388.276C743.255 387.921 742.555 387.744 741.733 387.744C740.875 387.744 740.119 387.931 739.465 388.304C738.812 388.677 738.308 389.2 737.953 389.872C737.599 390.544 737.421 391.337 737.421 392.252C737.421 393.185 737.608 394.007 737.981 394.716C738.355 395.407 738.887 395.948 739.577 396.34C740.268 396.713 741.061 396.9 741.957 396.9C742.704 396.9 743.385 396.769 744.001 396.508C744.636 396.247 745.177 395.855 745.625 395.332L747.249 396.984C746.615 397.731 745.831 398.3 744.897 398.692C743.983 399.084 743.003 399.28 741.957 399.28ZM755.154 399L749.05 385.7H751.85L756.75 396.928H755.126L760.054 385.7H762.742L756.638 399H755.154ZM770.027 399.28C768.814 399.28 767.713 398.981 766.723 398.384C765.734 397.768 764.95 396.937 764.371 395.892C763.811 394.847 763.531 393.671 763.531 392.364C763.531 391.057 763.811 389.881 764.371 388.836C764.95 387.791 765.725 386.96 766.695 386.344C767.685 385.728 768.795 385.42 770.027 385.42C771.035 385.42 771.931 385.635 772.715 386.064C773.518 386.475 774.162 387.053 774.647 387.8C775.133 388.528 775.403 389.377 775.459 390.348V394.352C775.403 395.304 775.133 396.153 774.647 396.9C774.181 397.647 773.546 398.235 772.743 398.664C771.959 399.075 771.054 399.28 770.027 399.28ZM770.447 396.9C771.698 396.9 772.706 396.48 773.471 395.64C774.237 394.781 774.619 393.689 774.619 392.364C774.619 391.449 774.442 390.656 774.087 389.984C773.751 389.293 773.266 388.761 772.631 388.388C771.997 387.996 771.259 387.8 770.419 387.8C769.579 387.8 768.833 387.996 768.179 388.388C767.545 388.78 767.041 389.321 766.667 390.012C766.313 390.684 766.135 391.459 766.135 392.336C766.135 393.232 766.313 394.025 766.667 394.716C767.041 395.388 767.554 395.92 768.207 396.312C768.861 396.704 769.607 396.9 770.447 396.9ZM774.451 399V395.416L774.927 392.168L774.451 388.948V385.7H776.999V399H774.451ZM790.076 399V391.244C790.076 390.236 789.759 389.405 789.124 388.752C788.49 388.099 787.668 387.772 786.66 387.772C785.988 387.772 785.391 387.921 784.868 388.22C784.346 388.519 783.935 388.929 783.636 389.452C783.338 389.975 783.188 390.572 783.188 391.244L782.152 390.656C782.152 389.648 782.376 388.752 782.824 387.968C783.272 387.184 783.898 386.568 784.7 386.12C785.503 385.653 786.408 385.42 787.416 385.42C788.424 385.42 789.311 385.672 790.076 386.176C790.86 386.68 791.476 387.343 791.924 388.164C792.372 388.967 792.596 389.825 792.596 390.74V399H790.076ZM780.668 399V385.7H783.188V399H780.668ZM797.888 399V380.128H800.408V399H797.888ZM794.612 387.996V385.7H803.684V387.996H794.612ZM818.053 399.28C816.746 399.28 815.561 398.972 814.497 398.356C813.452 397.74 812.621 396.909 812.005 395.864C811.408 394.8 811.109 393.624 811.109 392.336C811.109 391.029 811.408 389.853 812.005 388.808C812.621 387.763 813.452 386.941 814.497 386.344C815.561 385.728 816.746 385.42 818.053 385.42C819.08 385.42 820.032 385.616 820.909 386.008C821.786 386.381 822.542 386.932 823.177 387.66L821.497 389.34C821.086 388.855 820.582 388.491 819.985 388.248C819.406 387.987 818.762 387.856 818.053 387.856C817.213 387.856 816.466 388.052 815.813 388.444C815.16 388.817 814.646 389.34 814.273 390.012C813.9 390.684 813.713 391.459 813.713 392.336C813.713 393.213 813.9 393.988 814.273 394.66C814.646 395.332 815.16 395.864 815.813 396.256C816.466 396.648 817.213 396.844 818.053 396.844C818.762 396.844 819.406 396.723 819.985 396.48C820.582 396.219 821.096 395.845 821.525 395.36L823.177 397.04C822.561 397.749 821.805 398.3 820.909 398.692C820.032 399.084 819.08 399.28 818.053 399.28ZM831.479 399.28C830.172 399.28 828.996 398.972 827.951 398.356C826.905 397.74 826.075 396.909 825.459 395.864C824.843 394.8 824.535 393.615 824.535 392.308C824.535 391.02 824.843 389.863 825.459 388.836C826.075 387.791 826.905 386.96 827.951 386.344C828.996 385.728 830.172 385.42 831.479 385.42C832.767 385.42 833.933 385.728 834.979 386.344C836.043 386.941 836.883 387.763 837.499 388.808C838.115 389.853 838.423 391.02 838.423 392.308C838.423 393.615 838.115 394.8 837.499 395.864C836.883 396.909 836.043 397.74 834.979 398.356C833.933 398.972 832.767 399.28 831.479 399.28ZM831.479 396.844C832.319 396.844 833.065 396.648 833.719 396.256C834.372 395.864 834.885 395.332 835.259 394.66C835.632 393.969 835.819 393.185 835.819 392.308C835.819 391.449 835.623 390.684 835.231 390.012C834.857 389.34 834.344 388.817 833.691 388.444C833.056 388.052 832.319 387.856 831.479 387.856C830.639 387.856 829.892 388.052 829.239 388.444C828.585 388.817 828.072 389.34 827.699 390.012C827.325 390.684 827.139 391.449 827.139 392.308C827.139 393.185 827.325 393.969 827.699 394.66C828.072 395.332 828.585 395.864 829.239 396.256C829.892 396.648 830.639 396.844 831.479 396.844ZM850.67 399V391.244C850.67 390.236 850.353 389.405 849.718 388.752C849.083 388.099 848.262 387.772 847.254 387.772C846.582 387.772 845.985 387.921 845.462 388.22C844.939 388.519 844.529 388.929 844.23 389.452C843.931 389.975 843.782 390.572 843.782 391.244L842.746 390.656C842.746 389.648 842.97 388.752 843.418 387.968C843.866 387.184 844.491 386.568 845.294 386.12C846.097 385.653 847.002 385.42 848.01 385.42C849.018 385.42 849.905 385.672 850.67 386.176C851.454 386.68 852.07 387.343 852.518 388.164C852.966 388.967 853.19 389.825 853.19 390.74V399H850.67ZM841.262 399V385.7H843.782V399H841.262ZM858.482 399V380.128H861.002V399H858.482ZM855.206 387.996V385.7H864.278V387.996H855.206ZM872.496 399.28C871.171 399.28 869.976 398.981 868.912 398.384C867.848 397.768 867.008 396.937 866.392 395.892C865.776 394.847 865.468 393.661 865.468 392.336C865.468 391.029 865.767 389.853 866.364 388.808C866.98 387.763 867.802 386.941 868.828 386.344C869.874 385.728 871.04 385.42 872.328 385.42C873.56 385.42 874.643 385.7 875.576 386.26C876.528 386.82 877.266 387.595 877.788 388.584C878.33 389.573 878.6 390.693 878.6 391.944C878.6 392.131 878.591 392.336 878.572 392.56C878.554 392.765 878.516 393.008 878.46 393.288H867.232V391.188H877.116L876.192 392C876.192 391.104 876.034 390.348 875.716 389.732C875.399 389.097 874.951 388.612 874.372 388.276C873.794 387.921 873.094 387.744 872.272 387.744C871.414 387.744 870.658 387.931 870.004 388.304C869.351 388.677 868.847 389.2 868.492 389.872C868.138 390.544 867.96 391.337 867.96 392.252C867.96 393.185 868.147 394.007 868.52 394.716C868.894 395.407 869.426 395.948 870.116 396.34C870.807 396.713 871.6 396.9 872.496 396.9C873.243 396.9 873.924 396.769 874.54 396.508C875.175 396.247 875.716 395.855 876.164 395.332L877.788 396.984C877.154 397.731 876.37 398.3 875.436 398.692C874.522 399.084 873.542 399.28 872.496 399.28ZM890.756 399V391.244C890.756 390.236 890.439 389.405 889.804 388.752C889.169 388.099 888.348 387.772 887.34 387.772C886.668 387.772 886.071 387.921 885.548 388.22C885.025 388.519 884.615 388.929 884.316 389.452C884.017 389.975 883.868 390.572 883.868 391.244L882.832 390.656C882.832 389.648 883.056 388.752 883.504 387.968C883.952 387.184 884.577 386.568 885.38 386.12C886.183 385.653 887.088 385.42 888.096 385.42C889.104 385.42 889.991 385.672 890.756 386.176C891.54 386.68 892.156 387.343 892.604 388.164C893.052 388.967 893.276 389.825 893.276 390.74V399H890.756ZM881.348 399V385.7H883.868V399H881.348ZM898.568 399V380.128H901.088V399H898.568ZM895.292 387.996V385.7H904.364V387.996H895.292ZM908.764 399.28C908.242 399.28 907.803 399.103 907.448 398.748C907.112 398.375 906.944 397.945 906.944 397.46C906.944 396.919 907.112 396.48 907.448 396.144C907.803 395.789 908.242 395.612 908.764 395.612C909.287 395.612 909.716 395.789 910.052 396.144C910.407 396.48 910.584 396.919 910.584 397.46C910.584 397.945 910.407 398.375 910.052 398.748C909.716 399.103 909.287 399.28 908.764 399.28ZM908.764 390.544C908.242 390.544 907.803 390.367 907.448 390.012C907.112 389.657 906.944 389.228 906.944 388.724C906.944 388.183 907.112 387.744 907.448 387.408C907.803 387.053 908.242 386.876 908.764 386.876C909.287 386.876 909.716 387.053 910.052 387.408C910.407 387.744 910.584 388.183 910.584 388.724C910.584 389.228 910.407 389.657 910.052 390.012C909.716 390.367 909.287 390.544 908.764 390.544ZM680.601 469V466.704H686.481C687.601 466.704 688.478 466.377 689.113 465.724C689.748 465.052 690.065 464.249 690.065 463.316C690.065 462.681 689.925 462.112 689.645 461.608C689.365 461.085 688.954 460.675 688.413 460.376C687.89 460.077 687.274 459.928 686.565 459.928H680.601V457.632H686.173C687.106 457.632 687.844 457.389 688.385 456.904C688.945 456.4 689.225 455.681 689.225 454.748C689.225 453.815 688.936 453.105 688.357 452.62C687.778 452.116 687.013 451.864 686.061 451.864H680.601V449.568H686.117C687.386 449.568 688.441 449.801 689.281 450.268C690.14 450.716 690.784 451.313 691.213 452.06C691.661 452.807 691.885 453.628 691.885 454.524C691.885 455.569 691.596 456.484 691.017 457.268C690.457 458.052 689.626 458.668 688.525 459.116L688.749 458.276C690 458.724 690.97 459.405 691.661 460.32C692.37 461.216 692.725 462.28 692.725 463.512C692.725 464.539 692.473 465.463 691.969 466.284C691.465 467.105 690.737 467.768 689.785 468.272C688.852 468.757 687.704 469 686.341 469H680.601ZM678.837 469V449.568H681.469V469H678.837ZM698.046 460.544V458.332H703.31C704.449 458.332 705.326 458.043 705.942 457.464C706.558 456.885 706.866 456.101 706.866 455.112C706.866 454.179 706.558 453.404 705.942 452.788C705.345 452.172 704.477 451.864 703.338 451.864H698.046V449.568H703.422C704.654 449.568 705.728 449.811 706.642 450.296C707.557 450.763 708.257 451.407 708.742 452.228C709.246 453.049 709.498 453.992 709.498 455.056C709.498 456.157 709.246 457.119 708.742 457.94C708.257 458.761 707.557 459.405 706.642 459.872C705.728 460.32 704.654 460.544 703.422 460.544H698.046ZM696.282 469V449.568H698.914V469H696.282ZM707.482 469L700.426 460.292L702.918 459.424L710.814 469H707.482ZM711.479 469L719.431 449.568H721.335L729.259 469H726.403L719.879 452.564H720.859L714.279 469H711.479ZM715.259 464.604V462.308H725.479V464.604H715.259ZM732.185 469V449.568H734.033L734.817 452.62V469H732.185ZM745.625 469L733.697 453.068L734.033 449.568L745.989 465.472L745.625 469ZM745.625 469L744.841 466.116V449.568H747.473V469H745.625ZM753.8 469V466.592H759.204C760.641 466.592 761.901 466.284 762.984 465.668C764.066 465.033 764.906 464.165 765.504 463.064C766.12 461.963 766.428 460.693 766.428 459.256C766.428 457.837 766.12 456.577 765.504 455.476C764.888 454.375 764.038 453.516 762.956 452.9C761.873 452.284 760.622 451.976 759.204 451.976H753.828V449.568H759.26C760.678 449.568 761.985 449.811 763.18 450.296C764.393 450.781 765.438 451.463 766.316 452.34C767.212 453.217 767.902 454.244 768.388 455.42C768.892 456.596 769.144 457.884 769.144 459.284C769.144 460.665 768.892 461.953 768.388 463.148C767.902 464.324 767.221 465.351 766.344 466.228C765.466 467.105 764.421 467.787 763.208 468.272C762.013 468.757 760.716 469 759.316 469H753.8ZM752.064 469V449.568H754.696V469H752.064ZM778.614 469V449.568H781.246V469H778.614ZM785.833 469V449.568H788.465V469H785.833ZM787.625 469V466.592H798.769V469H787.625ZM787.625 460.208V457.912H797.845V460.208H787.625ZM787.625 451.976V449.568H798.629V451.976H787.625ZM802.349 469V449.568H804.197L804.981 452.62V469H802.349ZM815.789 469L803.861 453.068L804.197 449.568L816.153 465.472L815.789 469ZM815.789 469L815.005 466.116V449.568H817.637V469H815.789ZM827.38 469V450.128H830.012V469H827.38ZM820.772 451.976V449.568H836.592V451.976H820.772ZM839.728 469V449.568H842.36V469H839.728ZM852.098 469V450.128H854.73V469H852.098ZM845.49 451.976V449.568H861.31V451.976H845.49ZM869.294 461.104L861.65 449.568H864.702L870.862 459.004H869.49L875.678 449.568H878.674L870.974 461.104H869.294ZM868.846 469V459.368H871.478V469H868.846ZM681.651 504V485.128H684.283V504H681.651ZM675.043 486.976V484.568H690.863V486.976H675.043ZM701.425 504.28C700.044 504.28 698.756 504.028 697.561 503.524C696.367 503.001 695.321 502.283 694.425 501.368C693.529 500.435 692.829 499.361 692.325 498.148C691.84 496.935 691.597 495.637 691.597 494.256C691.597 492.856 691.84 491.559 692.325 490.364C692.829 489.151 693.52 488.087 694.397 487.172C695.293 486.257 696.329 485.548 697.505 485.044C698.7 484.54 699.988 484.288 701.369 484.288C702.751 484.288 704.029 484.54 705.205 485.044C706.4 485.548 707.445 486.257 708.341 487.172C709.237 488.087 709.937 489.151 710.441 490.364C710.945 491.577 711.197 492.884 711.197 494.284C711.197 495.665 710.945 496.963 710.441 498.176C709.937 499.389 709.237 500.453 708.341 501.368C707.464 502.283 706.428 503.001 705.233 503.524C704.057 504.028 702.788 504.28 701.425 504.28ZM701.369 501.76C702.769 501.76 703.992 501.443 705.037 500.808C706.101 500.155 706.941 499.268 707.557 498.148C708.173 497.009 708.481 495.712 708.481 494.256C708.481 493.173 708.304 492.184 707.949 491.288C707.595 490.373 707.1 489.58 706.465 488.908C705.831 488.236 705.084 487.723 704.225 487.368C703.367 486.995 702.415 486.808 701.369 486.808C699.988 486.808 698.765 487.125 697.701 487.76C696.656 488.395 695.825 489.272 695.209 490.392C694.612 491.512 694.313 492.8 694.313 494.256C694.313 495.339 694.481 496.347 694.817 497.28C695.172 498.195 695.657 498.988 696.273 499.66C696.908 500.313 697.655 500.827 698.513 501.2C699.391 501.573 700.343 501.76 701.369 501.76ZM714.808 504V484.568H716.656L717.44 487.62V504H714.808ZM728.248 504L716.32 488.068L716.656 484.568L728.612 500.472L728.248 504ZM728.248 504L727.464 501.116V484.568H730.096V504H728.248ZM734.687 504V484.568H737.319V504H734.687ZM736.479 504V501.592H747.623V504H736.479ZM736.479 495.208V492.912H746.699V495.208H736.479ZM736.479 486.976V484.568H747.483V486.976H736.479ZM765.874 504.28C764.493 504.28 763.205 504.028 762.01 503.524C760.816 503.001 759.77 502.283 758.874 501.368C757.978 500.435 757.278 499.361 756.774 498.148C756.289 496.935 756.046 495.637 756.046 494.256C756.046 492.856 756.289 491.559 756.774 490.364C757.278 489.151 757.969 488.087 758.846 487.172C759.742 486.257 760.778 485.548 761.954 485.044C763.149 484.54 764.437 484.288 765.818 484.288C767.2 484.288 768.478 484.54 769.654 485.044C770.849 485.548 771.894 486.257 772.79 487.172C773.686 488.087 774.386 489.151 774.89 490.364C775.394 491.577 775.646 492.884 775.646 494.284C775.646 495.665 775.394 496.963 774.89 498.176C774.386 499.389 773.686 500.453 772.79 501.368C771.913 502.283 770.877 503.001 769.682 503.524C768.506 504.028 767.237 504.28 765.874 504.28ZM765.818 501.76C767.218 501.76 768.441 501.443 769.486 500.808C770.55 500.155 771.39 499.268 772.006 498.148C772.622 497.009 772.93 495.712 772.93 494.256C772.93 493.173 772.753 492.184 772.398 491.288C772.044 490.373 771.549 489.58 770.914 488.908C770.28 488.236 769.533 487.723 768.674 487.368C767.816 486.995 766.864 486.808 765.818 486.808C764.437 486.808 763.214 487.125 762.15 487.76C761.105 488.395 760.274 489.272 759.658 490.392C759.061 491.512 758.762 492.8 758.762 494.256C758.762 495.339 758.93 496.347 759.266 497.28C759.621 498.195 760.106 498.988 760.722 499.66C761.357 500.313 762.104 500.827 762.962 501.2C763.84 501.573 764.792 501.76 765.818 501.76ZM779.257 504V484.568H781.889V504H779.257ZM781.049 495.46V493.052H791.185V495.46H781.049ZM781.049 486.976V484.568H791.661V486.976H781.049ZM807.023 504L799.239 484.568H802.095L808.507 501.004H807.471L813.939 484.568H816.767L808.927 504H807.023ZM827.699 504.28C826.317 504.28 825.029 504.028 823.835 503.524C822.64 503.001 821.595 502.283 820.699 501.368C819.803 500.435 819.103 499.361 818.599 498.148C818.113 496.935 817.871 495.637 817.871 494.256C817.871 492.856 818.113 491.559 818.599 490.364C819.103 489.151 819.793 488.087 820.671 487.172C821.567 486.257 822.603 485.548 823.779 485.044C824.973 484.54 826.261 484.288 827.643 484.288C829.024 484.288 830.303 484.54 831.479 485.044C832.673 485.548 833.719 486.257 834.615 487.172C835.511 488.087 836.211 489.151 836.715 490.364C837.219 491.577 837.471 492.884 837.471 494.284C837.471 495.665 837.219 496.963 836.715 498.176C836.211 499.389 835.511 500.453 834.615 501.368C833.737 502.283 832.701 503.001 831.507 503.524C830.331 504.028 829.061 504.28 827.699 504.28ZM827.643 501.76C829.043 501.76 830.265 501.443 831.311 500.808C832.375 500.155 833.215 499.268 833.831 498.148C834.447 497.009 834.755 495.712 834.755 494.256C834.755 493.173 834.577 492.184 834.223 491.288C833.868 490.373 833.373 489.58 832.739 488.908C832.104 488.236 831.357 487.723 830.499 487.368C829.64 486.995 828.688 486.808 827.643 486.808C826.261 486.808 825.039 487.125 823.975 487.76C822.929 488.395 822.099 489.272 821.483 490.392C820.885 491.512 820.587 492.8 820.587 494.256C820.587 495.339 820.755 496.347 821.091 497.28C821.445 498.195 821.931 498.988 822.547 499.66C823.181 500.313 823.928 500.827 824.787 501.2C825.664 501.573 826.616 501.76 827.643 501.76ZM841.081 504V484.568H843.713V504H841.081ZM857.12 504.28C855.72 504.28 854.423 504.028 853.228 503.524C852.033 503.001 850.988 502.283 850.092 501.368C849.215 500.453 848.533 499.389 848.048 498.176C847.563 496.963 847.32 495.665 847.32 494.284C847.32 492.884 847.563 491.577 848.048 490.364C848.533 489.151 849.215 488.096 850.092 487.2C850.988 486.285 852.024 485.576 853.2 485.072C854.395 484.549 855.692 484.288 857.092 484.288C858.623 484.288 859.967 484.549 861.124 485.072C862.281 485.595 863.308 486.304 864.204 487.2L862.384 489.02C861.768 488.329 861.012 487.788 860.116 487.396C859.239 487.004 858.231 486.808 857.092 486.808C856.065 486.808 855.123 486.995 854.264 487.368C853.405 487.723 852.659 488.236 852.024 488.908C851.389 489.58 850.895 490.373 850.54 491.288C850.204 492.203 850.036 493.201 850.036 494.284C850.036 495.367 850.204 496.365 850.54 497.28C850.895 498.195 851.389 498.988 852.024 499.66C852.659 500.332 853.405 500.855 854.264 501.228C855.123 501.583 856.065 501.76 857.092 501.76C858.305 501.76 859.36 501.564 860.256 501.172C861.152 500.761 861.908 500.211 862.524 499.52L864.344 501.312C863.448 502.245 862.393 502.973 861.18 503.496C859.985 504.019 858.632 504.28 857.12 504.28ZM867.577 504V484.568H870.209V504H867.577ZM869.369 504V501.592H880.513V504H869.369ZM869.369 495.208V492.912H879.589V495.208H869.369ZM869.369 486.976V484.568H880.373V486.976H869.369ZM714.305 539.28C712.775 539.28 711.468 539 710.385 538.44C709.303 537.88 708.341 537.068 707.501 536.004L709.293 534.212C709.909 535.071 710.619 535.724 711.421 536.172C712.224 536.601 713.213 536.816 714.389 536.816C715.547 536.816 716.471 536.564 717.161 536.06C717.871 535.556 718.225 534.865 718.225 533.988C718.225 533.26 718.057 532.672 717.721 532.224C717.385 531.776 716.928 531.412 716.349 531.132C715.789 530.833 715.173 530.572 714.501 530.348C713.829 530.105 713.157 529.853 712.485 529.592C711.813 529.312 711.197 528.976 710.637 528.584C710.077 528.173 709.62 527.641 709.265 526.988C708.929 526.335 708.761 525.513 708.761 524.524C708.761 523.423 709.023 522.489 709.545 521.724C710.087 520.94 710.815 520.343 711.729 519.932C712.663 519.503 713.708 519.288 714.865 519.288C716.135 519.288 717.273 519.54 718.281 520.044C719.289 520.529 720.111 521.173 720.745 521.976L718.953 523.768C718.375 523.096 717.749 522.592 717.077 522.256C716.424 521.92 715.668 521.752 714.809 521.752C713.764 521.752 712.933 521.985 712.317 522.452C711.701 522.9 711.393 523.535 711.393 524.356C711.393 525.009 711.561 525.541 711.897 525.952C712.252 526.344 712.709 526.68 713.269 526.96C713.829 527.24 714.445 527.501 715.117 527.744C715.808 527.968 716.489 528.22 717.161 528.5C717.833 528.78 718.449 529.135 719.009 529.564C719.569 529.993 720.017 530.553 720.353 531.244C720.708 531.916 720.885 532.765 720.885 533.792C720.885 535.509 720.288 536.853 719.093 537.824C717.917 538.795 716.321 539.28 714.305 539.28ZM728.682 539V520.128H731.314V539H728.682ZM722.074 521.976V519.568H737.894V521.976H722.074ZM745.878 531.104L738.234 519.568H741.286L747.446 529.004H746.074L752.262 519.568H755.258L747.558 531.104H745.878ZM745.43 539V529.368H748.062V539H745.43ZM757.655 539V519.568H760.287V539H757.655ZM759.447 539V536.592H769.863V539H759.447ZM773.105 539V519.568H775.737V539H773.105ZM774.897 539V536.592H786.041V539H774.897ZM774.897 530.208V527.912H785.117V530.208H774.897ZM774.897 521.976V519.568H785.901V521.976H774.897ZM800.159 539V520.128H802.791V539H800.159ZM793.551 521.976V519.568H809.371V521.976H793.551ZM812.507 539V519.568H815.139V539H812.507ZM819.726 539V519.568H822.358V539H819.726ZM821.518 539V536.592H831.934V539H821.518ZM835.175 539V519.568H837.807V539H835.175ZM836.967 539V536.592H848.111V539H836.967ZM836.967 530.208V527.912H847.187V530.208H836.967ZM836.967 521.976V519.568H847.971V521.976H836.967ZM745.898 574V554.568H748.53V574H745.898ZM758.442 574V554.568H761.074V574H758.442ZM747.69 565.152V562.744H759.086V565.152H747.69ZM765.667 574V554.568H768.299V574H765.667ZM772.438 568.064V565.684H781.65V568.064H772.438ZM785.792 574V554.568H788.424V574H785.792ZM787.584 565.46V563.052H797.72V565.46H787.584ZM787.584 556.976V554.568H798.196V556.976H787.584ZM801.651 574V554.568H804.283V574H801.651ZM652.165 609.28C650.765 609.28 649.467 609.028 648.273 608.524C647.078 608.001 646.033 607.283 645.137 606.368C644.259 605.453 643.578 604.389 643.093 603.176C642.607 601.963 642.365 600.665 642.365 599.284C642.365 597.884 642.607 596.577 643.093 595.364C643.578 594.151 644.259 593.096 645.137 592.2C646.033 591.285 647.069 590.576 648.245 590.072C649.439 589.549 650.737 589.288 652.137 589.288C653.667 589.288 655.011 589.549 656.169 590.072C657.326 590.595 658.353 591.304 659.249 592.2L657.429 594.02C656.813 593.329 656.057 592.788 655.161 592.396C654.283 592.004 653.275 591.808 652.137 591.808C651.11 591.808 650.167 591.995 649.309 592.368C648.45 592.723 647.703 593.236 647.069 593.908C646.434 594.58 645.939 595.373 645.585 596.288C645.249 597.203 645.081 598.201 645.081 599.284C645.081 600.367 645.249 601.365 645.585 602.28C645.939 603.195 646.434 603.988 647.069 604.66C647.703 605.332 648.45 605.855 649.309 606.228C650.167 606.583 651.11 606.76 652.137 606.76C653.35 606.76 654.405 606.564 655.301 606.172C656.197 605.761 656.953 605.211 657.569 604.52L659.389 606.312C658.493 607.245 657.438 607.973 656.225 608.496C655.03 609.019 653.677 609.28 652.165 609.28ZM670.677 609.28C669.296 609.28 668.008 609.028 666.813 608.524C665.619 608.001 664.573 607.283 663.677 606.368C662.781 605.435 662.081 604.361 661.577 603.148C661.092 601.935 660.849 600.637 660.849 599.256C660.849 597.856 661.092 596.559 661.577 595.364C662.081 594.151 662.772 593.087 663.649 592.172C664.545 591.257 665.581 590.548 666.757 590.044C667.952 589.54 669.24 589.288 670.621 589.288C672.003 589.288 673.281 589.54 674.457 590.044C675.652 590.548 676.697 591.257 677.593 592.172C678.489 593.087 679.189 594.151 679.693 595.364C680.197 596.577 680.449 597.884 680.449 599.284C680.449 600.665 680.197 601.963 679.693 603.176C679.189 604.389 678.489 605.453 677.593 606.368C676.716 607.283 675.68 608.001 674.485 608.524C673.309 609.028 672.04 609.28 670.677 609.28ZM670.621 606.76C672.021 606.76 673.244 606.443 674.289 605.808C675.353 605.155 676.193 604.268 676.809 603.148C677.425 602.009 677.733 600.712 677.733 599.256C677.733 598.173 677.556 597.184 677.201 596.288C676.847 595.373 676.352 594.58 675.717 593.908C675.083 593.236 674.336 592.723 673.477 592.368C672.619 591.995 671.667 591.808 670.621 591.808C669.24 591.808 668.017 592.125 666.953 592.76C665.908 593.395 665.077 594.272 664.461 595.392C663.864 596.512 663.565 597.8 663.565 599.256C663.565 600.339 663.733 601.347 664.069 602.28C664.424 603.195 664.909 603.988 665.525 604.66C666.16 605.313 666.907 605.827 667.765 606.2C668.643 606.573 669.595 606.76 670.621 606.76ZM684.06 609V589.568H685.908L686.692 592.62V609H684.06ZM697.5 609L685.572 593.068L685.908 589.568L697.864 605.472L697.5 609ZM697.5 609L696.716 606.116V589.568H699.348V609H697.5ZM709.091 609V590.128H711.723V609H709.091ZM702.483 591.976V589.568H718.303V591.976H702.483ZM721.439 609V589.568H724.071V609H721.439ZM723.231 609V606.592H734.375V609H723.231ZM723.231 600.208V597.912H733.451V600.208H723.231ZM723.231 591.976V589.568H734.235V591.976H723.231ZM737.954 609V589.568H739.802L740.586 592.62V609H737.954ZM751.394 609L739.466 593.068L739.802 589.568L751.758 605.472L751.394 609ZM751.394 609L750.61 606.116V589.568H753.242V609H751.394ZM762.985 609V590.128H765.617V609H762.985ZM756.377 591.976V589.568H772.197V591.976H756.377ZM789.54 609.28C788.14 609.28 786.842 609.028 785.648 608.524C784.453 608.001 783.408 607.283 782.512 606.368C781.634 605.453 780.953 604.389 780.468 603.176C779.982 601.963 779.74 600.665 779.74 599.284C779.74 597.884 779.982 596.577 780.468 595.364C780.953 594.151 781.634 593.096 782.512 592.2C783.408 591.285 784.444 590.576 785.62 590.072C786.814 589.549 788.112 589.288 789.512 589.288C791.042 589.288 792.386 589.549 793.544 590.072C794.701 590.595 795.728 591.304 796.624 592.2L794.804 594.02C794.188 593.329 793.432 592.788 792.536 592.396C791.658 592.004 790.65 591.808 789.512 591.808C788.485 591.808 787.542 591.995 786.684 592.368C785.825 592.723 785.078 593.236 784.444 593.908C783.809 594.58 783.314 595.373 782.96 596.288C782.624 597.203 782.456 598.201 782.456 599.284C782.456 600.367 782.624 601.365 782.96 602.28C783.314 603.195 783.809 603.988 784.444 604.66C785.078 605.332 785.825 605.855 786.684 606.228C787.542 606.583 788.485 606.76 789.512 606.76C790.725 606.76 791.78 606.564 792.676 606.172C793.572 605.761 794.328 605.211 794.944 604.52L796.764 606.312C795.868 607.245 794.813 607.973 793.6 608.496C792.405 609.019 791.052 609.28 789.54 609.28ZM801.761 600.544V598.332H807.025C808.164 598.332 809.041 598.043 809.657 597.464C810.273 596.885 810.581 596.101 810.581 595.112C810.581 594.179 810.273 593.404 809.657 592.788C809.06 592.172 808.192 591.864 807.053 591.864H801.761V589.568H807.137C808.369 589.568 809.443 589.811 810.357 590.296C811.272 590.763 811.972 591.407 812.457 592.228C812.961 593.049 813.213 593.992 813.213 595.056C813.213 596.157 812.961 597.119 812.457 597.94C811.972 598.761 811.272 599.405 810.357 599.872C809.443 600.32 808.369 600.544 807.137 600.544H801.761ZM799.997 609V589.568H802.629V609H799.997ZM811.197 609L804.141 600.292L806.633 599.424L814.529 609H811.197ZM817.251 609V589.568H819.883V609H817.251ZM819.043 609V606.592H830.187V609H819.043ZM819.043 600.208V597.912H829.263V600.208H819.043ZM819.043 591.976V589.568H830.047V591.976H819.043ZM832.339 609L840.291 589.568H842.195L850.119 609H847.263L840.739 592.564H841.719L835.139 609H832.339ZM836.119 604.604V602.308H846.339V604.604H836.119ZM855.571 609V590.128H858.203V609H855.571ZM848.963 591.976V589.568H864.783V591.976H848.963ZM867.919 609V589.568H870.551V609H867.919ZM883.986 609.28C882.604 609.28 881.316 609.028 880.122 608.524C878.927 608.001 877.882 607.283 876.986 606.368C876.09 605.435 875.39 604.361 874.886 603.148C874.4 601.935 874.158 600.637 874.158 599.256C874.158 597.856 874.4 596.559 874.886 595.364C875.39 594.151 876.08 593.087 876.958 592.172C877.854 591.257 878.89 590.548 880.066 590.044C881.26 589.54 882.548 589.288 883.93 589.288C885.311 589.288 886.59 589.54 887.766 590.044C888.96 590.548 890.006 591.257 890.902 592.172C891.798 593.087 892.498 594.151 893.002 595.364C893.506 596.577 893.758 597.884 893.758 599.284C893.758 600.665 893.506 601.963 893.002 603.176C892.498 604.389 891.798 605.453 890.902 606.368C890.024 607.283 888.988 608.001 887.794 608.524C886.618 609.028 885.348 609.28 883.986 609.28ZM883.93 606.76C885.33 606.76 886.552 606.443 887.598 605.808C888.662 605.155 889.502 604.268 890.118 603.148C890.734 602.009 891.042 600.712 891.042 599.256C891.042 598.173 890.864 597.184 890.51 596.288C890.155 595.373 889.66 594.58 889.026 593.908C888.391 593.236 887.644 592.723 886.786 592.368C885.927 591.995 884.975 591.808 883.93 591.808C882.548 591.808 881.326 592.125 880.262 592.76C879.216 593.395 878.386 594.272 877.77 595.392C877.172 596.512 876.874 597.8 876.874 599.256C876.874 600.339 877.042 601.347 877.378 602.28C877.732 603.195 878.218 603.988 878.834 604.66C879.468 605.313 880.215 605.827 881.074 606.2C881.951 606.573 882.903 606.76 883.93 606.76ZM897.368 609V589.568H899.216L900 592.62V609H897.368ZM910.808 609L898.88 593.068L899.216 589.568L911.172 605.472L910.808 609ZM910.808 609L910.024 606.116V589.568H912.656V609H910.808Z" fill="#FEFAE0"/>
</svg>
