<svg width="756" height="183" viewBox="0 0 756 183" fill="none" xmlns="http://www.w3.org/2000/svg">
<g filter="url(#filter0_ddd_665_3540)">
<rect width="163" height="163" transform="translate(10 2)" fill="#8BADAF"/>
<path d="M25.9292 33.5684V32.2333H29.3483C29.9996 32.2333 30.5097 32.0433 30.8788 31.6634C31.2478 31.2727 31.4324 30.8059 31.4324 30.2632C31.4324 29.8942 31.3509 29.5631 31.1881 29.27C31.0253 28.9661 30.7865 28.7273 30.4717 28.5536C30.1678 28.38 29.8096 28.2931 29.3972 28.2931H25.9292V26.958H29.1692C29.7119 26.958 30.1407 26.8169 30.4555 26.5347C30.7811 26.2417 30.9439 25.8238 30.9439 25.281C30.9439 24.7383 30.7757 24.3259 30.4392 24.0436C30.1027 23.7506 29.6577 23.604 29.1041 23.604H25.9292V22.269H29.1367C29.8748 22.269 30.488 22.4046 30.9765 22.676C31.4758 22.9365 31.8502 23.2838 32.0999 23.718C32.3604 24.1522 32.4907 24.6298 32.4907 25.1508C32.4907 25.7586 32.3224 26.2905 31.9859 26.7464C31.6603 27.2023 31.1773 27.5605 30.5369 27.821L30.6671 27.3325C31.3944 27.593 31.9588 27.9892 32.3604 28.5211C32.7729 29.0421 32.9791 29.6608 32.9791 30.3772C32.9791 30.9742 32.8326 31.5115 32.5395 31.989C32.2464 32.4666 31.8231 32.852 31.2695 33.145C30.7268 33.4273 30.0593 33.5684 29.2669 33.5684H25.9292ZM24.9034 33.5684V22.269H26.4339V33.5684H24.9034ZM37.7178 33.7312C37.0882 33.7312 36.5184 33.5901 36.0082 33.3079C35.5089 33.0148 35.1182 32.6132 34.836 32.103C34.5537 31.5929 34.4126 31.0013 34.4126 30.3283V25.8346H35.878V30.2632C35.878 30.6865 35.9485 31.0556 36.0896 31.3703C36.2416 31.6743 36.4587 31.9076 36.7409 32.0705C37.0231 32.2333 37.3542 32.3147 37.7341 32.3147C38.3094 32.3147 38.7598 32.1356 39.0855 31.7774C39.4111 31.4083 39.5739 30.9036 39.5739 30.2632V25.8346H41.0392V30.3283C41.0392 31.0013 40.8981 31.5929 40.6159 32.103C40.3337 32.6132 39.9429 33.0148 39.4436 33.3079C38.9552 33.5901 38.3799 33.7312 37.7178 33.7312ZM46.0967 33.7312C45.3803 33.7312 44.7399 33.5575 44.1755 33.2102C43.611 32.852 43.1606 32.369 42.8241 31.7611C42.4985 31.1533 42.3357 30.4694 42.3357 29.7096C42.3357 28.9498 42.4985 28.266 42.8241 27.6582C43.1606 27.0503 43.611 26.5673 44.1755 26.2091C44.7399 25.8509 45.3803 25.6718 46.0967 25.6718C46.672 25.6718 47.193 25.7966 47.6597 26.0463C48.1265 26.2851 48.5009 26.6216 48.7832 27.0557C49.0762 27.4791 49.239 27.9729 49.2716 28.5374V30.8656C49.239 31.4192 49.0816 31.9131 48.7994 32.3472C48.5172 32.7814 48.1427 33.1233 47.676 33.373C47.2093 33.6118 46.6828 33.7312 46.0967 33.7312ZM46.3409 32.3472C46.8294 32.3472 47.2527 32.2333 47.6109 32.0053C47.9799 31.7774 48.2676 31.468 48.4738 31.0773C48.68 30.6757 48.7832 30.2198 48.7832 29.7096C48.7832 29.1778 48.6746 28.7165 48.4575 28.3257C48.2513 27.9349 47.9636 27.6256 47.5946 27.3976C47.2364 27.1697 46.8131 27.0557 46.3246 27.0557C45.8362 27.0557 45.4074 27.1697 45.0384 27.3976C44.6693 27.6256 44.3763 27.9404 44.1592 28.342C43.953 28.7327 43.8498 29.1832 43.8498 29.6933C43.8498 30.2144 43.953 30.6757 44.1592 31.0773C44.3763 31.468 44.6693 31.7774 45.0384 32.0053C45.4183 32.2333 45.8525 32.3472 46.3409 32.3472ZM50.1671 33.5684H48.6855V31.4843L48.9623 29.5957L48.6855 27.7233V21.9433H50.1671V33.5684ZM55.3289 36.9712C54.5365 36.9712 53.8309 36.8247 53.2122 36.5316C52.6044 36.2385 52.116 35.8261 51.7469 35.2942L52.6912 34.3336C53.006 34.7352 53.3805 35.0391 53.8147 35.2454C54.2488 35.4624 54.7644 35.571 55.3614 35.571C56.1538 35.571 56.7779 35.3593 57.2338 34.936C57.7005 34.5235 57.9339 33.9645 57.9339 33.259V31.3378L58.1944 29.5957L57.9339 27.8698V25.8346H59.3992V33.259C59.3992 33.9971 59.2256 34.6429 58.8782 35.1965C58.5417 35.7501 58.0642 36.1843 57.4455 36.499C56.8376 36.8138 56.1321 36.9712 55.3289 36.9712ZM55.3289 33.4381C54.6233 33.4381 53.9883 33.2699 53.4239 32.9334C52.8703 32.5969 52.4307 32.1356 52.1051 31.5494C51.7795 30.9525 51.6167 30.2849 51.6167 29.5468C51.6167 28.8087 51.7795 28.152 52.1051 27.5767C52.4307 26.9906 52.8703 26.5293 53.4239 26.1928C53.9883 25.8455 54.6233 25.6718 55.3289 25.6718C55.9367 25.6718 56.474 25.7912 56.9407 26.03C57.4075 26.2688 57.7765 26.6053 58.0479 27.0395C58.3301 27.4628 58.482 27.9621 58.5038 28.5374V30.5888C58.4712 31.1533 58.3138 31.6526 58.0316 32.0867C57.7602 32.5101 57.3912 32.8411 56.9244 33.0799C56.4577 33.3187 55.9258 33.4381 55.3289 33.4381ZM55.6219 32.0542C56.0995 32.0542 56.5174 31.9511 56.8756 31.7448C57.2446 31.5386 57.5269 31.251 57.7222 30.8819C57.9176 30.502 58.0153 30.0624 58.0153 29.5631C58.0153 29.0638 57.9122 28.6296 57.706 28.2606C57.5106 27.8807 57.2338 27.5876 56.8756 27.3814C56.5174 27.1643 56.0941 27.0557 55.6056 27.0557C55.1172 27.0557 54.6884 27.1643 54.3194 27.3814C53.9503 27.5876 53.6573 27.8807 53.4402 28.2606C53.234 28.6296 53.1308 29.0584 53.1308 29.5468C53.1308 30.0353 53.234 30.4694 53.4402 30.8493C53.6573 31.2292 53.9503 31.5277 54.3194 31.7448C54.6993 31.9511 55.1335 32.0542 55.6219 32.0542ZM64.9529 33.7312C64.1822 33.7312 63.4876 33.5575 62.8689 33.2102C62.2502 32.852 61.7617 32.369 61.4035 31.7611C61.0453 31.1533 60.8662 30.464 60.8662 29.6933C60.8662 28.9335 61.0399 28.2497 61.3872 27.6419C61.7454 27.034 62.223 26.5564 62.82 26.2091C63.4279 25.8509 64.1063 25.6718 64.8552 25.6718C65.5716 25.6718 66.2012 25.8346 66.7439 26.1602C67.2975 26.4859 67.7262 26.9363 68.0301 27.5116C68.3449 28.0869 68.5023 28.7382 68.5023 29.4654C68.5023 29.5739 68.4969 29.6933 68.486 29.8236C68.4752 29.943 68.4534 30.0841 68.4209 30.2469H61.892V29.0258H67.6394L67.1021 29.498C67.1021 28.977 67.0098 28.5374 66.8253 28.1792C66.6408 27.8101 66.3803 27.5279 66.0438 27.3325C65.7073 27.1263 65.3002 27.0232 64.8227 27.0232C64.3234 27.0232 63.8837 27.1317 63.5038 27.3488C63.1239 27.5659 62.8309 27.8698 62.6246 28.2606C62.4184 28.6513 62.3153 29.1126 62.3153 29.6445C62.3153 30.1872 62.4238 30.6648 62.6409 31.0773C62.858 31.4789 63.1674 31.7937 63.569 32.0216C63.9706 32.2387 64.4319 32.3472 64.9529 32.3472C65.3871 32.3472 65.7833 32.2713 66.1415 32.1193C66.5105 31.9673 66.8253 31.7394 67.0858 31.4355L68.0301 32.3961C67.6611 32.8303 67.2052 33.1613 66.6625 33.3893C66.1306 33.6172 65.5608 33.7312 64.9529 33.7312ZM70.871 33.5684V22.5946H72.3363V33.5684H70.871ZM68.9661 27.1697V25.8346H74.2413V27.1697H68.9661ZM75.1796 30.1167V28.7327H80.5363V30.1167H75.1796ZM83.3759 33.5684V22.5946H84.8412V33.5684H83.3759ZM81.4709 27.1697V25.8346H86.7462V27.1697H81.4709ZM88.0025 33.5684V25.8346H89.4678V33.5684H88.0025ZM89.4678 29.1561L88.9143 28.9118C88.9143 27.9241 89.1422 27.1371 89.5981 26.551C90.054 25.9649 90.7107 25.6718 91.5682 25.6718C91.9589 25.6718 92.3117 25.7424 92.6265 25.8835C92.9412 26.0137 93.2343 26.2362 93.5057 26.551L92.5451 27.5442C92.3822 27.3705 92.2032 27.2457 92.0078 27.1697C91.8124 27.0937 91.5845 27.0557 91.3239 27.0557C90.7812 27.0557 90.3362 27.2294 89.9889 27.5767C89.6415 27.9241 89.4678 28.4505 89.4678 29.1561ZM97.3928 33.7312C96.6872 33.7312 96.0468 33.5575 95.4715 33.2102C94.8963 32.852 94.4404 32.369 94.1039 31.7611C93.7783 31.1533 93.6154 30.4694 93.6154 29.7096C93.6154 28.9498 93.7783 28.266 94.1039 27.6582C94.4404 27.0503 94.8908 26.5673 95.4553 26.2091C96.0305 25.8509 96.6764 25.6718 97.3928 25.6718C97.9789 25.6718 98.4999 25.7966 98.9558 26.0463C99.4225 26.2851 99.797 26.6216 100.079 27.0557C100.361 27.4791 100.519 27.9729 100.551 28.5374V30.8656C100.519 31.4192 100.361 31.9131 100.079 32.3472C99.8079 32.7814 99.4388 33.1233 98.9721 33.373C98.5162 33.6118 97.9898 33.7312 97.3928 33.7312ZM97.637 32.3472C98.3642 32.3472 98.9504 32.103 99.3954 31.6146C99.8404 31.1153 100.063 30.4803 100.063 29.7096C100.063 29.1778 99.9598 28.7165 99.7536 28.3257C99.5582 27.9241 99.276 27.6147 98.907 27.3976C98.5379 27.1697 98.1092 27.0557 97.6207 27.0557C97.1323 27.0557 96.6981 27.1697 96.3182 27.3976C95.9491 27.6256 95.6561 27.9404 95.439 28.342C95.2328 28.7327 95.1296 29.1832 95.1296 29.6933C95.1296 30.2144 95.2328 30.6757 95.439 31.0773C95.6561 31.468 95.9546 31.7774 96.3345 32.0053C96.7144 32.2333 97.1485 32.3472 97.637 32.3472ZM99.9653 33.5684V31.4843L100.242 29.5957L99.9653 27.7233V25.8346H101.447V33.5684H99.9653ZM106.934 33.7312C106.174 33.7312 105.485 33.5521 104.867 33.1939C104.259 32.8357 103.776 32.3527 103.417 31.7448C103.07 31.1261 102.896 30.4423 102.896 29.6933C102.896 28.9335 103.07 28.2497 103.417 27.6419C103.776 27.034 104.259 26.5564 104.867 26.2091C105.485 25.8509 106.174 25.6718 106.934 25.6718C107.531 25.6718 108.085 25.7858 108.595 26.0137C109.105 26.2308 109.545 26.551 109.914 26.9743L108.937 27.9512C108.698 27.669 108.405 27.4573 108.058 27.3162C107.721 27.1643 107.347 27.0883 106.934 27.0883C106.446 27.0883 106.012 27.2023 105.632 27.4302C105.252 27.6473 104.953 27.9512 104.736 28.342C104.519 28.7327 104.411 29.1832 104.411 29.6933C104.411 30.2035 104.519 30.654 104.736 31.0447C104.953 31.4355 105.252 31.7448 105.632 31.9728C106.012 32.2007 106.446 32.3147 106.934 32.3147C107.347 32.3147 107.721 32.2441 108.058 32.103C108.405 31.9511 108.704 31.734 108.953 31.4518L109.914 32.4287C109.556 32.8411 109.116 33.1613 108.595 33.3893C108.085 33.6172 107.531 33.7312 106.934 33.7312ZM116.138 33.5684L112.523 29.6119L116.105 25.8346H117.88L113.891 30.0027L113.956 29.1561L118.026 33.5684H116.138ZM111.188 33.5684V21.9433H112.653V33.5684H111.188ZM118.848 33.5684V25.8346H120.313V33.5684H118.848ZM119.581 24.2879C119.309 24.2879 119.087 24.201 118.913 24.0274C118.739 23.8428 118.653 23.6149 118.653 23.3435C118.653 23.083 118.739 22.8659 118.913 22.6923C119.087 22.5078 119.309 22.4155 119.581 22.4155C119.852 22.4155 120.074 22.5078 120.248 22.6923C120.422 22.8659 120.509 23.083 120.509 23.3435C120.509 23.6149 120.422 23.8428 120.248 24.0274C120.074 24.201 119.852 24.2879 119.581 24.2879ZM127.764 33.5684V29.0584C127.764 28.4722 127.58 27.9892 127.211 27.6093C126.842 27.2294 126.364 27.0395 125.778 27.0395C125.387 27.0395 125.04 27.1263 124.736 27.3C124.432 27.4736 124.193 27.7124 124.019 28.0163C123.846 28.3203 123.759 28.6676 123.759 29.0584L123.157 28.7165C123.157 28.1303 123.287 27.6093 123.547 27.1534C123.808 26.6975 124.171 26.3393 124.638 26.0788C125.105 25.8075 125.631 25.6718 126.217 25.6718C126.804 25.6718 127.319 25.8183 127.764 26.1114C128.22 26.4045 128.578 26.7898 128.839 27.2674C129.099 27.7341 129.23 28.2334 129.23 28.7653V33.5684H127.764ZM122.294 33.5684V25.8346H123.759V33.5684H122.294ZM134.242 36.9712C133.45 36.9712 132.744 36.8247 132.125 36.5316C131.517 36.2385 131.029 35.8261 130.66 35.2942L131.604 34.3336C131.919 34.7352 132.294 35.0391 132.728 35.2454C133.162 35.4624 133.677 35.571 134.274 35.571C135.067 35.571 135.691 35.3593 136.147 34.936C136.614 34.5235 136.847 33.9645 136.847 33.259V31.3378L137.107 29.5957L136.847 27.8698V25.8346H138.312V33.259C138.312 33.9971 138.139 34.6429 137.791 35.1965C137.455 35.7501 136.977 36.1843 136.358 36.499C135.751 36.8138 135.045 36.9712 134.242 36.9712ZM134.242 33.4381C133.536 33.4381 132.901 33.2699 132.337 32.9334C131.783 32.5969 131.344 32.1356 131.018 31.5494C130.693 30.9525 130.53 30.2849 130.53 29.5468C130.53 28.8087 130.693 28.152 131.018 27.5767C131.344 26.9906 131.783 26.5293 132.337 26.1928C132.901 25.8455 133.536 25.6718 134.242 25.6718C134.85 25.6718 135.387 25.7912 135.854 26.03C136.321 26.2688 136.69 26.6053 136.961 27.0395C137.243 27.4628 137.395 27.9621 137.417 28.5374V30.5888C137.384 31.1533 137.227 31.6526 136.945 32.0867C136.673 32.5101 136.304 32.8411 135.837 33.0799C135.371 33.3187 134.839 33.4381 134.242 33.4381ZM134.535 32.0542C135.013 32.0542 135.43 31.9511 135.789 31.7448C136.158 31.5386 136.44 31.251 136.635 30.8819C136.831 30.502 136.928 30.0624 136.928 29.5631C136.928 29.0638 136.825 28.6296 136.619 28.2606C136.424 27.8807 136.147 27.5876 135.789 27.3814C135.43 27.1643 135.007 27.0557 134.519 27.0557C134.03 27.0557 133.601 27.1643 133.232 27.3814C132.863 27.5876 132.57 27.8807 132.353 28.2606C132.147 28.6296 132.044 29.0584 132.044 29.5468C132.044 30.0353 132.147 30.4694 132.353 30.8493C132.57 31.2292 132.863 31.5277 133.232 31.7448C133.612 31.9511 134.047 32.0542 134.535 32.0542ZM27.1015 57.7312C26.6673 57.7312 26.2548 57.6769 25.8641 57.5684C25.4842 57.449 25.1314 57.2861 24.8058 57.0799C24.4801 56.8628 24.1979 56.6077 23.9591 56.3147L24.9034 55.3703C25.1857 55.7177 25.5113 55.9782 25.8803 56.1519C26.2494 56.3147 26.6619 56.3961 27.1177 56.3961C27.5736 56.3961 27.9264 56.3201 28.176 56.1681C28.4257 56.0053 28.5505 55.7828 28.5505 55.5006C28.5505 55.2184 28.4474 55.0013 28.2412 54.8493C28.0458 54.6865 27.7907 54.5563 27.4759 54.4586C27.1612 54.35 26.8247 54.2469 26.4665 54.1492C26.1191 54.0407 25.7881 53.905 25.4733 53.7422C25.1585 53.5794 24.898 53.3569 24.6918 53.0746C24.4964 52.7924 24.3987 52.418 24.3987 51.9512C24.3987 51.4845 24.5127 51.0829 24.7406 50.7464C24.9686 50.399 25.2834 50.1331 25.685 49.9486C26.0974 49.7641 26.5913 49.6718 27.1666 49.6718C27.7744 49.6718 28.3117 49.7803 28.7785 49.9974C29.2561 50.2037 29.6468 50.5184 29.9507 50.9418L29.0064 51.8861C28.7893 51.6039 28.518 51.3868 28.1923 51.2348C27.8775 51.0829 27.5194 51.0069 27.1177 51.0069C26.6944 51.0069 26.3688 51.0829 26.1408 51.2348C25.9238 51.3759 25.8152 51.5767 25.8152 51.8372C25.8152 52.0978 25.9129 52.2986 26.1083 52.4397C26.3037 52.5808 26.5587 52.7002 26.8735 52.7979C27.1991 52.8956 27.5356 52.9987 27.883 53.1072C28.2303 53.2049 28.5614 53.3406 28.8761 53.5143C29.1909 53.6879 29.446 53.9213 29.6414 54.2144C29.8476 54.5074 29.9507 54.8928 29.9507 55.3703C29.9507 56.0976 29.6902 56.6729 29.1692 57.0962C28.6591 57.5195 27.9698 57.7312 27.1015 57.7312ZM35.4825 57.7312C34.8964 57.7312 34.3645 57.6118 33.8869 57.373C33.4202 57.1233 33.0457 56.7814 32.7635 56.3472C32.4813 55.9131 32.3239 55.4192 32.2913 54.8656V52.5374C32.3239 51.9729 32.4813 51.4791 32.7635 51.0557C33.0566 50.6216 33.4365 50.2851 33.9032 50.0463C34.3808 49.7966 34.9072 49.6718 35.4825 49.6718C36.1881 49.6718 36.823 49.8509 37.3875 50.2091C37.9627 50.5673 38.4132 51.0503 38.7388 51.6582C39.0645 52.266 39.2273 52.9498 39.2273 53.7096C39.2273 54.4694 39.0645 55.1533 38.7388 55.7611C38.4132 56.369 37.9627 56.852 37.3875 57.2102C36.823 57.5575 36.1881 57.7312 35.4825 57.7312ZM35.2383 56.3472C35.7267 56.3472 36.1555 56.2333 36.5245 56.0053C36.8936 55.7774 37.1867 55.468 37.4037 55.0773C37.6208 54.6757 37.7294 54.2144 37.7294 53.6933C37.7294 53.1832 37.6208 52.7273 37.4037 52.3257C37.1867 51.9241 36.8936 51.6147 36.5245 51.3976C36.1555 51.1697 35.7322 51.0557 35.2546 51.0557C34.7661 51.0557 34.3374 51.1697 33.9683 51.3976C33.5993 51.6147 33.3116 51.9241 33.1054 52.3257C32.8992 52.7273 32.7961 53.1886 32.7961 53.7096C32.7961 54.2198 32.8938 54.6757 33.0891 55.0773C33.2954 55.468 33.583 55.7774 33.9521 56.0053C34.332 56.2333 34.7607 56.3472 35.2383 56.3472ZM31.4121 60.8084V49.8346H32.8775V51.8698L32.6007 53.7422L32.8775 55.6309V60.8084H31.4121ZM43.9983 57.7312C43.2928 57.7312 42.6523 57.5575 42.0771 57.2102C41.5018 56.852 41.0459 56.369 40.7094 55.7611C40.3838 55.1533 40.221 54.4694 40.221 53.7096C40.221 52.9498 40.3838 52.266 40.7094 51.6582C41.0459 51.0503 41.4964 50.5673 42.0608 50.2091C42.6361 49.8509 43.2819 49.6718 43.9983 49.6718C44.5844 49.6718 45.1054 49.7966 45.5613 50.0463C46.0281 50.2851 46.4025 50.6216 46.6847 51.0557C46.967 51.4791 47.1243 51.9729 47.1569 52.5374V54.8656C47.1243 55.4192 46.967 55.9131 46.6847 56.3472C46.4134 56.7814 46.0443 57.1233 45.5776 57.373C45.1217 57.6118 44.5953 57.7312 43.9983 57.7312ZM44.2425 56.3472C44.9698 56.3472 45.5559 56.103 46.0009 55.6146C46.4459 55.1153 46.6685 54.4803 46.6685 53.7096C46.6685 53.1778 46.5653 52.7165 46.3591 52.3257C46.1637 51.9241 45.8815 51.6147 45.5125 51.3976C45.1434 51.1697 44.7147 51.0557 44.2262 51.0557C43.7378 51.0557 43.3036 51.1697 42.9237 51.3976C42.5547 51.6256 42.2616 51.9404 42.0445 52.342C41.8383 52.7327 41.7351 53.1832 41.7351 53.6933C41.7351 54.2144 41.8383 54.6757 42.0445 55.0773C42.2616 55.468 42.5601 55.7774 42.94 56.0053C43.3199 56.2333 43.7541 56.3472 44.2425 56.3472ZM46.5708 57.5684V55.4843L46.8476 53.5957L46.5708 51.7233V49.8346H48.0524V57.5684H46.5708ZM53.5398 57.7312C52.78 57.7312 52.0907 57.5521 51.472 57.1939C50.8642 56.8357 50.3812 56.3527 50.023 55.7448C49.6756 55.1261 49.502 54.4423 49.502 53.6933C49.502 52.9335 49.6756 52.2497 50.023 51.6419C50.3812 51.034 50.8642 50.5564 51.472 50.2091C52.0907 49.8509 52.78 49.6718 53.5398 49.6718C54.1368 49.6718 54.6904 49.7858 55.2005 50.0137C55.7107 50.2308 56.1503 50.551 56.5193 50.9743L55.5424 51.9512C55.3036 51.669 55.0106 51.4573 54.6632 51.3162C54.3267 51.1643 53.9523 51.0883 53.5398 51.0883C53.0513 51.0883 52.6172 51.2023 52.2373 51.4302C51.8574 51.6473 51.5589 51.9512 51.3418 52.342C51.1247 52.7327 51.0161 53.1832 51.0161 53.6933C51.0161 54.2035 51.1247 54.654 51.3418 55.0447C51.5589 55.4355 51.8574 55.7448 52.2373 55.9728C52.6172 56.2007 53.0513 56.3147 53.5398 56.3147C53.9523 56.3147 54.3267 56.2441 54.6632 56.103C55.0106 55.9511 55.3091 55.734 55.5587 55.4518L56.5193 56.4287C56.1611 56.8411 55.7215 57.1613 55.2005 57.3893C54.6904 57.6172 54.1368 57.7312 53.5398 57.7312ZM61.2164 57.7312C60.4458 57.7312 59.7511 57.5575 59.1324 57.2102C58.5137 56.852 58.0252 56.369 57.667 55.7611C57.3088 55.1533 57.1297 54.464 57.1297 53.6933C57.1297 52.9335 57.3034 52.2497 57.6508 51.6419C58.0089 51.034 58.4865 50.5564 59.0835 50.2091C59.6914 49.8509 60.3698 49.6718 61.1187 49.6718C61.8351 49.6718 62.4647 49.8346 63.0074 50.1602C63.561 50.4859 63.9897 50.9363 64.2936 51.5116C64.6084 52.0869 64.7658 52.7382 64.7658 53.4654C64.7658 53.5739 64.7604 53.6933 64.7495 53.8236C64.7387 53.943 64.717 54.0841 64.6844 54.2469H58.1555V53.0258H63.9029L63.3656 53.498C63.3656 52.977 63.2733 52.5374 63.0888 52.1792C62.9043 51.8101 62.6438 51.5279 62.3073 51.3325C61.9708 51.1263 61.5638 51.0232 61.0862 51.0232C60.5869 51.0232 60.1473 51.1317 59.7674 51.3488C59.3875 51.5659 59.0944 51.8698 58.8882 52.2606C58.6819 52.6513 58.5788 53.1126 58.5788 53.6445C58.5788 54.1872 58.6873 54.6648 58.9044 55.0773C59.1215 55.4789 59.4309 55.7937 59.8325 56.0216C60.2341 56.2387 60.6954 56.3472 61.2164 56.3472C61.6506 56.3472 62.0468 56.2713 62.405 56.1193C62.774 55.9673 63.0888 55.7394 63.3493 55.4355L64.2936 56.3961C63.9246 56.8303 63.4687 57.1613 62.926 57.3893C62.3941 57.6172 61.8243 57.7312 61.2164 57.7312Z" fill="#242424"/>
<path d="M24.2188 148.578V142.658H27.9307V143.427H25.1121V145.23H27.737V145.997H25.1121V147.809H27.9654V148.578H24.2188ZM32.6741 144.138L31.0639 148.578H30.1388L28.5257 144.138H29.4537L30.5782 147.555H30.6245L31.7461 144.138H32.6741ZM35.0181 150.336C34.6654 150.336 34.3618 150.29 34.1074 150.197C33.8549 150.105 33.6487 149.982 33.4888 149.83C33.3288 149.678 33.2093 149.511 33.1303 149.33L33.8733 149.023C33.9253 149.108 33.9947 149.198 34.0814 149.292C34.1701 149.389 34.2895 149.47 34.4399 149.538C34.5921 149.605 34.7877 149.639 35.0267 149.639C35.3544 149.639 35.6251 149.559 35.8391 149.399C36.053 149.241 36.16 148.989 36.16 148.642V147.769H36.105C36.053 147.863 35.9778 147.968 35.8795 148.084C35.7832 148.199 35.6502 148.3 35.4806 148.384C35.311 148.469 35.0903 148.512 34.8186 148.512C34.4678 148.512 34.1517 148.43 33.8704 148.266C33.5909 148.1 33.3693 147.856 33.2055 147.535C33.0436 147.211 32.9626 146.813 32.9626 146.341C32.9626 145.868 33.0426 145.464 33.2026 145.126C33.3645 144.789 33.5861 144.531 33.8675 144.352C34.1489 144.17 34.4678 144.08 34.8244 144.08C35.1 144.08 35.3226 144.126 35.4922 144.219C35.6618 144.309 35.7938 144.415 35.8882 144.537C35.9846 144.658 36.0588 144.765 36.1108 144.858H36.1744V144.138H37.0215V148.676C37.0215 149.058 36.9328 149.371 36.7555 149.616C36.5782 149.861 36.3382 150.042 36.0357 150.159C35.735 150.277 35.3958 150.336 35.0181 150.336ZM35.0094 147.795C35.258 147.795 35.4681 147.737 35.6396 147.621C35.8131 147.504 35.9441 147.336 36.0328 147.118C36.1233 146.899 36.1686 146.635 36.1686 146.329C36.1686 146.03 36.1243 145.767 36.0357 145.54C35.947 145.312 35.8169 145.135 35.6454 145.008C35.4739 144.879 35.2619 144.814 35.0094 144.814C34.7492 144.814 34.5324 144.882 34.3589 145.017C34.1855 145.15 34.0544 145.331 33.9658 145.56C33.879 145.789 33.8357 146.046 33.8357 146.329C33.8357 146.62 33.88 146.875 33.9687 147.095C34.0573 147.315 34.1884 147.486 34.3618 147.61C34.5372 147.733 34.7531 147.795 35.0094 147.795ZM39.9154 148.668C39.4779 148.668 39.1011 148.574 38.785 148.387C38.4709 148.198 38.2281 147.933 38.0565 147.592C37.8869 147.249 37.8021 146.847 37.8021 146.387C37.8021 145.932 37.8869 145.531 38.0565 145.184C38.2281 144.837 38.467 144.567 38.7735 144.372C39.0818 144.177 39.4422 144.08 39.8547 144.08C40.1052 144.08 40.3481 144.121 40.5832 144.204C40.8183 144.287 41.0293 144.417 41.2163 144.594C41.4032 144.772 41.5507 145.002 41.6586 145.285C41.7665 145.567 41.8205 145.909 41.8205 146.312V146.618H38.2907V145.971H40.9735C40.9735 145.743 40.9272 145.542 40.8347 145.366C40.7422 145.189 40.6121 145.049 40.4444 144.947C40.2787 144.845 40.084 144.794 39.8605 144.794C39.6176 144.794 39.4056 144.854 39.2245 144.973C39.0452 145.091 38.9065 145.245 38.8082 145.436C38.7118 145.625 38.6636 145.83 38.6636 146.051V146.557C38.6636 146.854 38.7157 147.107 38.8197 147.315C38.9257 147.523 39.0732 147.682 39.262 147.792C39.4509 147.9 39.6716 147.954 39.9241 147.954C40.0879 147.954 40.2372 147.931 40.3721 147.884C40.5071 147.836 40.6237 147.765 40.7219 147.67C40.8202 147.576 40.8954 147.459 40.9474 147.321L41.7656 147.468C41.7 147.709 41.5825 147.92 41.4129 148.101C41.2452 148.28 41.0342 148.42 40.7798 148.52C40.5273 148.619 40.2392 148.668 39.9154 148.668ZM43.4648 145.942V148.578H42.6004V144.138H43.4301V144.86H43.4851C43.5872 144.625 43.7472 144.436 43.965 144.294C44.1847 144.151 44.4612 144.08 44.7946 144.08C45.0972 144.08 45.3622 144.143 45.5896 144.271C45.8171 144.396 45.9934 144.583 46.1187 144.832C46.2439 145.08 46.3066 145.388 46.3066 145.754V148.578H45.4422V145.858C45.4422 145.536 45.3584 145.284 45.1907 145.103C45.023 144.92 44.7927 144.829 44.4998 144.829C44.2993 144.829 44.1211 144.872 43.965 144.959C43.8108 145.045 43.6884 145.173 43.5978 145.34C43.5092 145.506 43.4648 145.706 43.4648 145.942ZM47.2867 148.578V144.138H48.1511V148.578H47.2867ZM47.7233 143.453C47.5729 143.453 47.4438 143.402 47.3359 143.302C47.2299 143.2 47.1769 143.079 47.1769 142.938C47.1769 142.795 47.2299 142.674 47.3359 142.574C47.4438 142.472 47.5729 142.421 47.7233 142.421C47.8736 142.421 48.0018 142.472 48.1078 142.574C48.2157 142.674 48.2696 142.795 48.2696 142.938C48.2696 143.079 48.2157 143.2 48.1078 143.302C48.0018 143.402 47.8736 143.453 47.7233 143.453ZM50.4271 148.676C50.1457 148.676 49.8913 148.624 49.6639 148.52C49.4365 148.414 49.2563 148.261 49.1233 148.061C48.9923 147.86 48.9267 147.614 48.9267 147.323C48.9267 147.073 48.9749 146.867 49.0713 146.705C49.1676 146.543 49.2977 146.415 49.4616 146.32C49.6254 146.226 49.8085 146.155 50.0108 146.106C50.2132 146.058 50.4194 146.022 50.6295 145.997C50.8954 145.966 51.1113 145.941 51.277 145.921C51.4428 145.9 51.5632 145.866 51.6384 145.82C51.7136 145.774 51.7512 145.699 51.7512 145.595V145.574C51.7512 145.322 51.6798 145.126 51.5372 144.988C51.3965 144.849 51.1865 144.779 50.907 144.779C50.616 144.779 50.3866 144.844 50.219 144.973C50.0532 145.1 49.9386 145.242 49.875 145.398L49.0626 145.213C49.159 144.943 49.2997 144.726 49.4847 144.56C49.6716 144.392 49.8865 144.271 50.1294 144.196C50.3722 144.118 50.6276 144.08 50.8954 144.08C51.0728 144.08 51.2607 144.101 51.4592 144.143C51.6596 144.184 51.8466 144.259 52.02 144.369C52.1954 144.479 52.339 144.636 52.4508 144.84C52.5625 145.043 52.6184 145.306 52.6184 145.629V148.578H51.7743V147.971H51.7396C51.6837 148.083 51.5999 148.193 51.4881 148.301C51.3763 148.409 51.2327 148.498 51.0573 148.569C50.882 148.641 50.6719 148.676 50.4271 148.676ZM50.615 147.983C50.854 147.983 51.0583 147.935 51.2279 147.841C51.3994 147.747 51.5295 147.623 51.6182 147.471C51.7088 147.317 51.754 147.152 51.754 146.977V146.404C51.7232 146.435 51.6635 146.464 51.5748 146.491C51.4881 146.516 51.3888 146.538 51.277 146.557C51.1653 146.575 51.0564 146.591 50.9504 146.607C50.8444 146.62 50.7557 146.632 50.6844 146.641C50.5167 146.662 50.3635 146.698 50.2248 146.748C50.0879 146.798 49.9781 146.871 49.8952 146.965C49.8142 147.058 49.7738 147.181 49.7738 147.335C49.7738 147.549 49.8528 147.711 50.0108 147.821C50.1689 147.929 50.3703 147.983 50.615 147.983Z" fill="black" fill-opacity="0.4"/>
</g>
<g filter="url(#filter1_ddd_665_3540)">
<rect width="163" height="163" transform="translate(203 2)" fill="#8BADAF"/>
<path d="M217.073 33.5684L221.697 22.269H222.804L227.412 33.5684H225.751L221.958 24.0111H222.527L218.701 33.5684H217.073ZM219.271 31.0122V29.6771H225.214V31.0122H219.271ZM231.841 33.7312C231.081 33.7312 230.392 33.5521 229.773 33.1939C229.165 32.8357 228.682 32.3527 228.324 31.7448C227.977 31.1261 227.803 30.4423 227.803 29.6933C227.803 28.9335 227.977 28.2497 228.324 27.6419C228.682 27.034 229.165 26.5564 229.773 26.2091C230.392 25.8509 231.081 25.6718 231.841 25.6718C232.438 25.6718 232.991 25.7858 233.501 26.0137C234.012 26.2308 234.451 26.551 234.82 26.9743L233.843 27.9512C233.605 27.669 233.311 27.4573 232.964 27.3162C232.628 27.1643 232.253 27.0883 231.841 27.0883C231.352 27.0883 230.918 27.2023 230.538 27.4302C230.158 27.6473 229.86 27.9512 229.643 28.342C229.426 28.7327 229.317 29.1832 229.317 29.6933C229.317 30.2035 229.426 30.654 229.643 31.0447C229.86 31.4355 230.158 31.7448 230.538 31.9728C230.918 32.2007 231.352 32.3147 231.841 32.3147C232.253 32.3147 232.628 32.2441 232.964 32.103C233.311 31.9511 233.61 31.734 233.86 31.4518L234.82 32.4287C234.462 32.8411 234.022 33.1613 233.501 33.3893C232.991 33.6172 232.438 33.7312 231.841 33.7312ZM239.469 33.7312C238.709 33.7312 238.019 33.5521 237.401 33.1939C236.793 32.8357 236.31 32.3527 235.952 31.7448C235.604 31.1261 235.431 30.4423 235.431 29.6933C235.431 28.9335 235.604 28.2497 235.952 27.6419C236.31 27.034 236.793 26.5564 237.401 26.2091C238.019 25.8509 238.709 25.6718 239.469 25.6718C240.065 25.6718 240.619 25.7858 241.129 26.0137C241.639 26.2308 242.079 26.551 242.448 26.9743L241.471 27.9512C241.232 27.669 240.939 27.4573 240.592 27.3162C240.255 27.1643 239.881 27.0883 239.469 27.0883C238.98 27.0883 238.546 27.2023 238.166 27.4302C237.786 27.6473 237.488 27.9512 237.27 28.342C237.053 28.7327 236.945 29.1832 236.945 29.6933C236.945 30.2035 237.053 30.654 237.27 31.0447C237.488 31.4355 237.786 31.7448 238.166 31.9728C238.546 32.2007 238.98 32.3147 239.469 32.3147C239.881 32.3147 240.255 32.2441 240.592 32.103C240.939 31.9511 241.238 31.734 241.487 31.4518L242.448 32.4287C242.09 32.8411 241.65 33.1613 241.129 33.3893C240.619 33.6172 240.065 33.7312 239.469 33.7312ZM247.096 33.7312C246.336 33.7312 245.653 33.5521 245.045 33.1939C244.437 32.8357 243.954 32.3527 243.596 31.7448C243.238 31.1261 243.058 30.4369 243.058 29.6771C243.058 28.9281 243.238 28.2551 243.596 27.6582C243.954 27.0503 244.437 26.5673 245.045 26.2091C245.653 25.8509 246.336 25.6718 247.096 25.6718C247.845 25.6718 248.524 25.8509 249.131 26.2091C249.75 26.5564 250.239 27.034 250.597 27.6419C250.955 28.2497 251.134 28.9281 251.134 29.6771C251.134 30.4369 250.955 31.1261 250.597 31.7448C250.239 32.3527 249.75 32.8357 249.131 33.1939C248.524 33.5521 247.845 33.7312 247.096 33.7312ZM247.096 32.3147C247.585 32.3147 248.019 32.2007 248.399 31.9728C248.779 31.7448 249.077 31.4355 249.294 31.0447C249.511 30.6431 249.62 30.1872 249.62 29.6771C249.62 29.1778 249.506 28.7327 249.278 28.342C249.061 27.9512 248.762 27.6473 248.383 27.4302C248.013 27.2023 247.585 27.0883 247.096 27.0883C246.608 27.0883 246.174 27.2023 245.794 27.4302C245.414 27.6473 245.115 27.9512 244.898 28.342C244.681 28.7327 244.573 29.1778 244.573 29.6771C244.573 30.1872 244.681 30.6431 244.898 31.0447C245.115 31.4355 245.414 31.7448 245.794 31.9728C246.174 32.2007 246.608 32.3147 247.096 32.3147ZM252.606 33.5684V25.8346H254.071V33.5684H252.606ZM257.832 33.5684V28.8956C257.832 28.3203 257.653 27.8698 257.295 27.5442C256.948 27.2077 256.508 27.0395 255.976 27.0395C255.618 27.0395 255.298 27.1154 255.016 27.2674C254.734 27.4194 254.506 27.631 254.332 27.9024C254.158 28.1737 254.071 28.4994 254.071 28.8793L253.469 28.5862C253.469 28.0001 253.594 27.4899 253.843 27.0557C254.104 26.6216 254.457 26.2851 254.902 26.0463C255.347 25.7966 255.846 25.6718 256.4 25.6718C256.942 25.6718 257.431 25.7912 257.865 26.03C258.31 26.2688 258.657 26.6053 258.907 27.0395C259.168 27.4736 259.298 27.9892 259.298 28.5862V33.5684H257.832ZM263.059 33.5684V28.8956C263.059 28.3203 262.88 27.8698 262.522 27.5442C262.174 27.2077 261.74 27.0395 261.219 27.0395C260.861 27.0395 260.535 27.1154 260.242 27.2674C259.96 27.4194 259.732 27.631 259.558 27.9024C259.385 28.1737 259.298 28.4994 259.298 28.8793L258.467 28.5862C258.5 27.9892 258.657 27.4791 258.94 27.0557C259.233 26.6216 259.607 26.2851 260.063 26.0463C260.519 25.7966 261.018 25.6718 261.561 25.6718C262.125 25.6718 262.63 25.7912 263.075 26.03C263.52 26.2688 263.873 26.6053 264.133 27.0395C264.405 27.4736 264.54 27.9946 264.54 28.6025V33.5684H263.059ZM266.355 33.5684V25.8346H267.821V33.5684H266.355ZM271.582 33.5684V28.8956C271.582 28.3203 271.403 27.8698 271.044 27.5442C270.697 27.2077 270.257 27.0395 269.726 27.0395C269.367 27.0395 269.047 27.1154 268.765 27.2674C268.483 27.4194 268.255 27.631 268.081 27.9024C267.908 28.1737 267.821 28.4994 267.821 28.8793L267.218 28.5862C267.218 28.0001 267.343 27.4899 267.593 27.0557C267.853 26.6216 268.206 26.2851 268.651 26.0463C269.096 25.7966 269.595 25.6718 270.149 25.6718C270.692 25.6718 271.18 25.7912 271.614 26.03C272.059 26.2688 272.407 26.6053 272.656 27.0395C272.917 27.4736 273.047 27.9892 273.047 28.5862V33.5684H271.582ZM276.808 33.5684V28.8956C276.808 28.3203 276.629 27.8698 276.271 27.5442C275.923 27.2077 275.489 27.0395 274.968 27.0395C274.61 27.0395 274.284 27.1154 273.991 27.2674C273.709 27.4194 273.481 27.631 273.308 27.9024C273.134 28.1737 273.047 28.4994 273.047 28.8793L272.217 28.5862C272.249 27.9892 272.407 27.4791 272.689 27.0557C272.982 26.6216 273.356 26.2851 273.812 26.0463C274.268 25.7966 274.767 25.6718 275.31 25.6718C275.875 25.6718 276.379 25.7912 276.824 26.03C277.269 26.2688 277.622 26.6053 277.883 27.0395C278.154 27.4736 278.29 27.9946 278.29 28.6025V33.5684H276.808ZM283.638 33.7312C282.878 33.7312 282.194 33.5521 281.586 33.1939C280.978 32.8357 280.495 32.3527 280.137 31.7448C279.779 31.1261 279.6 30.4369 279.6 29.6771C279.6 28.9281 279.779 28.2551 280.137 27.6582C280.495 27.0503 280.978 26.5673 281.586 26.2091C282.194 25.8509 282.878 25.6718 283.638 25.6718C284.387 25.6718 285.065 25.8509 285.673 26.2091C286.292 26.5564 286.78 27.034 287.138 27.6419C287.496 28.2497 287.676 28.9281 287.676 29.6771C287.676 30.4369 287.496 31.1261 287.138 31.7448C286.78 32.3527 286.292 32.8357 285.673 33.1939C285.065 33.5521 284.387 33.7312 283.638 33.7312ZM283.638 32.3147C284.126 32.3147 284.56 32.2007 284.94 31.9728C285.32 31.7448 285.619 31.4355 285.836 31.0447C286.053 30.6431 286.161 30.1872 286.161 29.6771C286.161 29.1778 286.047 28.7327 285.819 28.342C285.602 27.9512 285.304 27.6473 284.924 27.4302C284.555 27.2023 284.126 27.0883 283.638 27.0883C283.149 27.0883 282.715 27.2023 282.335 27.4302C281.955 27.6473 281.657 27.9512 281.44 28.342C281.223 28.7327 281.114 29.1778 281.114 29.6771C281.114 30.1872 281.223 30.6431 281.44 31.0447C281.657 31.4355 281.955 31.7448 282.335 31.9728C282.715 32.2007 283.149 32.3147 283.638 32.3147ZM292.42 33.7312C291.704 33.7312 291.063 33.5575 290.499 33.2102C289.934 32.852 289.484 32.369 289.147 31.7611C288.822 31.1533 288.659 30.4694 288.659 29.7096C288.659 28.9498 288.822 28.266 289.147 27.6582C289.484 27.0503 289.934 26.5673 290.499 26.2091C291.063 25.8509 291.704 25.6718 292.42 25.6718C292.995 25.6718 293.516 25.7966 293.983 26.0463C294.45 26.2851 294.824 26.6216 295.107 27.0557C295.4 27.4791 295.562 27.9729 295.595 28.5374V30.8656C295.562 31.4192 295.405 31.9131 295.123 32.3472C294.841 32.7814 294.466 33.1233 293.999 33.373C293.533 33.6118 293.006 33.7312 292.42 33.7312ZM292.664 32.3472C293.153 32.3472 293.576 32.2333 293.934 32.0053C294.303 31.7774 294.591 31.468 294.797 31.0773C295.003 30.6757 295.107 30.2198 295.107 29.7096C295.107 29.1778 294.998 28.7165 294.781 28.3257C294.575 27.9349 294.287 27.6256 293.918 27.3976C293.56 27.1697 293.136 27.0557 292.648 27.0557C292.16 27.0557 291.731 27.1697 291.362 27.3976C290.993 27.6256 290.7 27.9404 290.483 28.342C290.276 28.7327 290.173 29.1832 290.173 29.6933C290.173 30.2144 290.276 30.6757 290.483 31.0773C290.7 31.468 290.993 31.7774 291.362 32.0053C291.742 32.2333 292.176 32.3472 292.664 32.3472ZM296.49 33.5684H295.009V31.4843L295.286 29.5957L295.009 27.7233V21.9433H296.49V33.5684ZM301.734 33.7312C301.028 33.7312 300.388 33.5575 299.812 33.2102C299.237 32.852 298.781 32.369 298.445 31.7611C298.119 31.1533 297.956 30.4694 297.956 29.7096C297.956 28.9498 298.119 28.266 298.445 27.6582C298.781 27.0503 299.232 26.5673 299.796 26.2091C300.371 25.8509 301.017 25.6718 301.734 25.6718C302.32 25.6718 302.841 25.7966 303.297 26.0463C303.763 26.2851 304.138 26.6216 304.42 27.0557C304.702 27.4791 304.86 27.9729 304.892 28.5374V30.8656C304.86 31.4192 304.702 31.9131 304.42 32.3472C304.149 32.7814 303.78 33.1233 303.313 33.373C302.857 33.6118 302.331 33.7312 301.734 33.7312ZM301.978 32.3472C302.705 32.3472 303.291 32.103 303.736 31.6146C304.181 31.1153 304.404 30.4803 304.404 29.7096C304.404 29.1778 304.301 28.7165 304.094 28.3257C303.899 27.9241 303.617 27.6147 303.248 27.3976C302.879 27.1697 302.45 27.0557 301.962 27.0557C301.473 27.0557 301.039 27.1697 300.659 27.3976C300.29 27.6256 299.997 27.9404 299.78 28.342C299.574 28.7327 299.471 29.1832 299.471 29.6933C299.471 30.2144 299.574 30.6757 299.78 31.0773C299.997 31.468 300.295 31.7774 300.675 32.0053C301.055 32.2333 301.489 32.3472 301.978 32.3472ZM304.306 33.5684V31.4843L304.583 29.5957L304.306 27.7233V25.8346H305.788V33.5684H304.306ZM308.899 33.5684V22.5946H310.364V33.5684H308.899ZM306.994 27.1697V25.8346H312.269V27.1697H306.994ZM313.542 33.5684V25.8346H315.007V33.5684H313.542ZM314.274 24.2879C314.003 24.2879 313.781 24.201 313.607 24.0274C313.433 23.8428 313.346 23.6149 313.346 23.3435C313.346 23.083 313.433 22.8659 313.607 22.6923C313.781 22.5078 314.003 22.4155 314.274 22.4155C314.546 22.4155 314.768 22.5078 314.942 22.6923C315.116 22.8659 315.202 23.083 315.202 23.3435C315.202 23.6149 315.116 23.8428 314.942 24.0274C314.768 24.201 314.546 24.2879 314.274 24.2879ZM320.521 33.7312C319.761 33.7312 319.077 33.5521 318.469 33.1939C317.861 32.8357 317.378 32.3527 317.02 31.7448C316.662 31.1261 316.483 30.4369 316.483 29.6771C316.483 28.9281 316.662 28.2551 317.02 27.6582C317.378 27.0503 317.861 26.5673 318.469 26.2091C319.077 25.8509 319.761 25.6718 320.521 25.6718C321.269 25.6718 321.948 25.8509 322.556 26.2091C323.174 26.5564 323.663 27.034 324.021 27.6419C324.379 28.2497 324.558 28.9281 324.558 29.6771C324.558 30.4369 324.379 31.1261 324.021 31.7448C323.663 32.3527 323.174 32.8357 322.556 33.1939C321.948 33.5521 321.269 33.7312 320.521 33.7312ZM320.521 32.3147C321.009 32.3147 321.443 32.2007 321.823 31.9728C322.203 31.7448 322.501 31.4355 322.719 31.0447C322.936 30.6431 323.044 30.1872 323.044 29.6771C323.044 29.1778 322.93 28.7327 322.702 28.342C322.485 27.9512 322.187 27.6473 321.807 27.4302C321.438 27.2023 321.009 27.0883 320.521 27.0883C320.032 27.0883 319.598 27.2023 319.218 27.4302C318.838 27.6473 318.54 27.9512 318.323 28.342C318.105 28.7327 317.997 29.1778 317.997 29.6771C317.997 30.1872 318.105 30.6431 318.323 31.0447C318.54 31.4355 318.838 31.7448 319.218 31.9728C319.598 32.2007 320.032 32.3147 320.521 32.3147ZM331.501 33.5684V29.0584C331.501 28.4722 331.316 27.9892 330.947 27.6093C330.578 27.2294 330.101 27.0395 329.515 27.0395C329.124 27.0395 328.776 27.1263 328.473 27.3C328.169 27.4736 327.93 27.7124 327.756 28.0163C327.582 28.3203 327.496 28.6676 327.496 29.0584L326.893 28.7165C326.893 28.1303 327.023 27.6093 327.284 27.1534C327.544 26.6975 327.908 26.3393 328.375 26.0788C328.842 25.8075 329.368 25.6718 329.954 25.6718C330.54 25.6718 331.056 25.8183 331.501 26.1114C331.957 26.4045 332.315 26.7898 332.575 27.2674C332.836 27.7341 332.966 28.2334 332.966 28.7653V33.5684H331.501ZM326.03 33.5684V25.8346H327.496V33.5684H326.03ZM218.75 57.5684V48.4344C218.75 47.9242 218.859 47.4738 219.076 47.083C219.304 46.6814 219.618 46.3666 220.02 46.1387C220.422 45.8999 220.883 45.7805 221.404 45.7805C221.806 45.7805 222.158 45.8511 222.462 45.9922C222.766 46.1224 223.048 46.3069 223.309 46.5457L222.348 47.5064C222.207 47.387 222.061 47.3001 221.909 47.2458C221.757 47.1807 221.589 47.1482 221.404 47.1482C221.024 47.1482 220.731 47.2676 220.525 47.5064C220.319 47.7343 220.215 48.0436 220.215 48.4344V57.5684H218.75ZM216.845 51.1697V49.8346H224.188V51.1697H216.845ZM223.341 57.5684V49.8346H224.823V57.5684H223.341ZM224.074 49.0205C223.814 49.0205 223.597 48.9337 223.423 48.76C223.249 48.5755 223.162 48.3476 223.162 48.0762C223.162 47.8157 223.249 47.5986 223.423 47.4249C223.597 47.2404 223.814 47.1482 224.074 47.1482C224.356 47.1482 224.579 47.2404 224.742 47.4249C224.915 47.5986 225.002 47.8157 225.002 48.0762C225.002 48.3476 224.915 48.5755 224.742 48.76C224.579 48.9337 224.356 49.0205 224.074 49.0205ZM232.268 57.5684V53.0584C232.268 52.4722 232.083 51.9892 231.714 51.6093C231.345 51.2294 230.868 51.0395 230.281 51.0395C229.891 51.0395 229.543 51.1263 229.239 51.3C228.935 51.4736 228.697 51.7124 228.523 52.0163C228.349 52.3203 228.262 52.6676 228.262 53.0584L227.66 52.7165C227.66 52.1303 227.79 51.6093 228.051 51.1534C228.311 50.6975 228.675 50.3393 229.142 50.0788C229.608 49.8075 230.135 49.6718 230.721 49.6718C231.307 49.6718 231.823 49.8183 232.268 50.1114C232.724 50.4045 233.082 50.7898 233.342 51.2674C233.603 51.7341 233.733 52.2334 233.733 52.7653V57.5684H232.268ZM226.797 57.5684V49.8346H228.262V57.5684H226.797ZM238.81 57.7312C238.094 57.7312 237.454 57.5575 236.889 57.2102C236.325 56.852 235.874 56.369 235.538 55.7611C235.212 55.1533 235.049 54.4694 235.049 53.7096C235.049 52.9498 235.212 52.266 235.538 51.6582C235.874 51.0503 236.325 50.5673 236.889 50.2091C237.454 49.8509 238.094 49.6718 238.81 49.6718C239.386 49.6718 239.907 49.7966 240.374 50.0463C240.84 50.2851 241.215 50.6216 241.497 51.0557C241.79 51.4791 241.953 51.9729 241.985 52.5374V54.8656C241.953 55.4192 241.795 55.9131 241.513 56.3472C241.231 56.7814 240.857 57.1233 240.39 57.373C239.923 57.6118 239.397 57.7312 238.81 57.7312ZM239.055 56.3472C239.543 56.3472 239.966 56.2333 240.325 56.0053C240.694 55.7774 240.981 55.468 241.188 55.0773C241.394 54.6757 241.497 54.2198 241.497 53.7096C241.497 53.1778 241.388 52.7165 241.171 52.3257C240.965 51.9349 240.677 51.6256 240.308 51.3976C239.95 51.1697 239.527 51.0557 239.038 51.0557C238.55 51.0557 238.121 51.1697 237.752 51.3976C237.383 51.6256 237.09 51.9404 236.873 52.342C236.667 52.7327 236.564 53.1832 236.564 53.6933C236.564 54.2144 236.667 54.6757 236.873 55.0773C237.09 55.468 237.383 55.7774 237.752 56.0053C238.132 56.2333 238.566 56.3472 239.055 56.3472ZM242.881 57.5684H241.399V55.4843L241.676 53.5957L241.399 51.7233V45.9433H242.881V57.5684ZM248.417 57.7312C247.646 57.7312 246.952 57.5575 246.333 57.2102C245.714 56.852 245.226 56.369 244.868 55.7611C244.51 55.1533 244.33 54.464 244.33 53.6933C244.33 52.9335 244.504 52.2497 244.851 51.6419C245.21 51.034 245.687 50.5564 246.284 50.2091C246.892 49.8509 247.57 49.6718 248.319 49.6718C249.036 49.6718 249.665 49.8346 250.208 50.1602C250.762 50.4859 251.19 50.9363 251.494 51.5116C251.809 52.0869 251.967 52.7382 251.967 53.4654C251.967 53.5739 251.961 53.6933 251.95 53.8236C251.939 53.943 251.918 54.0841 251.885 54.2469H245.356V53.0258H251.104L250.566 53.498C250.566 52.977 250.474 52.5374 250.29 52.1792C250.105 51.8101 249.844 51.5279 249.508 51.3325C249.172 51.1263 248.764 51.0232 248.287 51.0232C247.788 51.0232 247.348 51.1317 246.968 51.3488C246.588 51.5659 246.295 51.8698 246.089 52.2606C245.883 52.6513 245.78 53.1126 245.78 53.6445C245.78 54.1872 245.888 54.6648 246.105 55.0773C246.322 55.4789 246.632 55.7937 247.033 56.0216C247.435 56.2387 247.896 56.3472 248.417 56.3472C248.851 56.3472 249.247 56.2713 249.606 56.1193C249.975 55.9673 250.29 55.7394 250.55 55.4355L251.494 56.3961C251.125 56.8303 250.669 57.1613 250.127 57.3893C249.595 57.6172 249.025 57.7312 248.417 57.7312ZM253.385 57.5684V49.8346H254.851V57.5684H253.385ZM254.851 53.1561L254.297 52.9118C254.297 51.9241 254.525 51.1371 254.981 50.551C255.437 49.9649 256.093 49.6718 256.951 49.6718C257.342 49.6718 257.694 49.7424 258.009 49.8835C258.324 50.0137 258.617 50.2362 258.888 50.551L257.928 51.5442C257.765 51.3705 257.586 51.2457 257.39 51.1697C257.195 51.0937 256.967 51.0557 256.707 51.0557C256.164 51.0557 255.719 51.2294 255.372 51.5767C255.024 51.9241 254.851 52.4505 254.851 53.1561Z" fill="#242424"/>
<path d="M217.219 148.578V142.658H220.931V143.427H218.112V145.23H220.737V145.997H218.112V147.809H220.965V148.578H217.219ZM225.674 144.138L224.064 148.578H223.139L221.526 144.138H222.454L223.578 147.555H223.624L224.746 144.138H225.674ZM228.018 150.336C227.665 150.336 227.362 150.29 227.107 150.197C226.855 150.105 226.649 149.982 226.489 149.83C226.329 149.678 226.209 149.511 226.13 149.33L226.873 149.023C226.925 149.108 226.995 149.198 227.081 149.292C227.17 149.389 227.29 149.47 227.44 149.538C227.592 149.605 227.788 149.639 228.027 149.639C228.354 149.639 228.625 149.559 228.839 149.399C229.053 149.241 229.16 148.989 229.16 148.642V147.769H229.105C229.053 147.863 228.978 147.968 228.88 148.084C228.783 148.199 228.65 148.3 228.481 148.384C228.311 148.469 228.09 148.512 227.819 148.512C227.468 148.512 227.152 148.43 226.87 148.266C226.591 148.1 226.369 147.856 226.205 147.535C226.044 147.211 225.963 146.813 225.963 146.341C225.963 145.868 226.043 145.464 226.203 145.126C226.364 144.789 226.586 144.531 226.867 144.352C227.149 144.17 227.468 144.08 227.824 144.08C228.1 144.08 228.323 144.126 228.492 144.219C228.662 144.309 228.794 144.415 228.888 144.537C228.985 144.658 229.059 144.765 229.111 144.858H229.174V144.138H230.021V148.676C230.021 149.058 229.933 149.371 229.755 149.616C229.578 149.861 229.338 150.042 229.036 150.159C228.735 150.277 228.396 150.336 228.018 150.336ZM228.009 147.795C228.258 147.795 228.468 147.737 228.64 147.621C228.813 147.504 228.944 147.336 229.033 147.118C229.123 146.899 229.169 146.635 229.169 146.329C229.169 146.03 229.124 145.767 229.036 145.54C228.947 145.312 228.817 145.135 228.645 145.008C228.474 144.879 228.262 144.814 228.009 144.814C227.749 144.814 227.532 144.882 227.359 145.017C227.185 145.15 227.054 145.331 226.966 145.56C226.879 145.789 226.836 146.046 226.836 146.329C226.836 146.62 226.88 146.875 226.969 147.095C227.057 147.315 227.188 147.486 227.362 147.61C227.537 147.733 227.753 147.795 228.009 147.795ZM232.915 148.668C232.478 148.668 232.101 148.574 231.785 148.387C231.471 148.198 231.228 147.933 231.057 147.592C230.887 147.249 230.802 146.847 230.802 146.387C230.802 145.932 230.887 145.531 231.057 145.184C231.228 144.837 231.467 144.567 231.773 144.372C232.082 144.177 232.442 144.08 232.855 144.08C233.105 144.08 233.348 144.121 233.583 144.204C233.818 144.287 234.029 144.417 234.216 144.594C234.403 144.772 234.551 145.002 234.659 145.285C234.767 145.567 234.82 145.909 234.82 146.312V146.618H231.291V145.971H233.973C233.973 145.743 233.927 145.542 233.835 145.366C233.742 145.189 233.612 145.049 233.444 144.947C233.279 144.845 233.084 144.794 232.86 144.794C232.618 144.794 232.406 144.854 232.224 144.973C232.045 145.091 231.906 145.245 231.808 145.436C231.712 145.625 231.664 145.83 231.664 146.051V146.557C231.664 146.854 231.716 147.107 231.82 147.315C231.926 147.523 232.073 147.682 232.262 147.792C232.451 147.9 232.672 147.954 232.924 147.954C233.088 147.954 233.237 147.931 233.372 147.884C233.507 147.836 233.624 147.765 233.722 147.67C233.82 147.576 233.895 147.459 233.947 147.321L234.766 147.468C234.7 147.709 234.582 147.92 234.413 148.101C234.245 148.28 234.034 148.42 233.78 148.52C233.527 148.619 233.239 148.668 232.915 148.668ZM236.465 145.942V148.578H235.6V144.138H236.43V144.86H236.485C236.587 144.625 236.747 144.436 236.965 144.294C237.185 144.151 237.461 144.08 237.795 144.08C238.097 144.08 238.362 144.143 238.59 144.271C238.817 144.396 238.993 144.583 239.119 144.832C239.244 145.08 239.307 145.388 239.307 145.754V148.578H238.442V145.858C238.442 145.536 238.358 145.284 238.191 145.103C238.023 144.92 237.793 144.829 237.5 144.829C237.299 144.829 237.121 144.872 236.965 144.959C236.811 145.045 236.688 145.173 236.598 145.34C236.509 145.506 236.465 145.706 236.465 145.942ZM240.287 148.578V144.138H241.151V148.578H240.287ZM240.723 143.453C240.573 143.453 240.444 143.402 240.336 143.302C240.23 143.2 240.177 143.079 240.177 142.938C240.177 142.795 240.23 142.674 240.336 142.574C240.444 142.472 240.573 142.421 240.723 142.421C240.874 142.421 241.002 142.472 241.108 142.574C241.216 142.674 241.27 142.795 241.27 142.938C241.27 143.079 241.216 143.2 241.108 143.302C241.002 143.402 240.874 143.453 240.723 143.453ZM243.427 148.676C243.146 148.676 242.891 148.624 242.664 148.52C242.437 148.414 242.256 148.261 242.123 148.061C241.992 147.86 241.927 147.614 241.927 147.323C241.927 147.073 241.975 146.867 242.071 146.705C242.168 146.543 242.298 146.415 242.462 146.32C242.625 146.226 242.808 146.155 243.011 146.106C243.213 146.058 243.419 146.022 243.629 145.997C243.895 145.966 244.111 145.941 244.277 145.921C244.443 145.9 244.563 145.866 244.638 145.82C244.714 145.774 244.751 145.699 244.751 145.595V145.574C244.751 145.322 244.68 145.126 244.537 144.988C244.397 144.849 244.186 144.779 243.907 144.779C243.616 144.779 243.387 144.844 243.219 144.973C243.053 145.1 242.939 145.242 242.875 145.398L242.063 145.213C242.159 144.943 242.3 144.726 242.485 144.56C242.672 144.392 242.887 144.271 243.129 144.196C243.372 144.118 243.628 144.08 243.895 144.08C244.073 144.08 244.261 144.101 244.459 144.143C244.66 144.184 244.847 144.259 245.02 144.369C245.195 144.479 245.339 144.636 245.451 144.84C245.563 145.043 245.618 145.306 245.618 145.629V148.578H244.774V147.971H244.74C244.684 148.083 244.6 148.193 244.488 148.301C244.376 148.409 244.233 148.498 244.057 148.569C243.882 148.641 243.672 148.676 243.427 148.676ZM243.615 147.983C243.854 147.983 244.058 147.935 244.228 147.841C244.399 147.747 244.53 147.623 244.618 147.471C244.709 147.317 244.754 147.152 244.754 146.977V146.404C244.723 146.435 244.663 146.464 244.575 146.491C244.488 146.516 244.389 146.538 244.277 146.557C244.165 146.575 244.056 146.591 243.95 146.607C243.844 146.62 243.756 146.632 243.684 146.641C243.517 146.662 243.364 146.698 243.225 146.748C243.088 146.798 242.978 146.871 242.895 146.965C242.814 147.058 242.774 147.181 242.774 147.335C242.774 147.549 242.853 147.711 243.011 147.821C243.169 147.929 243.37 147.983 243.615 147.983Z" fill="black" fill-opacity="0.4"/>
</g>
<g filter="url(#filter2_ddd_665_3540)">
<rect width="163" height="163" transform="translate(396 2)" fill="#8BADAF"/>
<path d="M410.903 33.5684V22.269H412.434V33.5684H410.903ZM411.945 33.5684V32.1681H418.002V33.5684H411.945ZM422.647 33.7312C421.887 33.7312 421.203 33.5521 420.595 33.1939C419.987 32.8357 419.504 32.3527 419.146 31.7448C418.788 31.1261 418.609 30.4369 418.609 29.6771C418.609 28.9281 418.788 28.2551 419.146 27.6582C419.504 27.0503 419.987 26.5673 420.595 26.2091C421.203 25.8509 421.887 25.6718 422.647 25.6718C423.395 25.6718 424.074 25.8509 424.682 26.2091C425.3 26.5564 425.789 27.034 426.147 27.6419C426.505 28.2497 426.684 28.9281 426.684 29.6771C426.684 30.4369 426.505 31.1261 426.147 31.7448C425.789 32.3527 425.3 32.8357 424.682 33.1939C424.074 33.5521 423.395 33.7312 422.647 33.7312ZM422.647 32.3147C423.135 32.3147 423.569 32.2007 423.949 31.9728C424.329 31.7448 424.627 31.4355 424.845 31.0447C425.062 30.6431 425.17 30.1872 425.17 29.6771C425.17 29.1778 425.056 28.7327 424.828 28.342C424.611 27.9512 424.313 27.6473 423.933 27.4302C423.564 27.2023 423.135 27.0883 422.647 27.0883C422.158 27.0883 421.724 27.2023 421.344 27.4302C420.964 27.6473 420.666 27.9512 420.449 28.342C420.231 28.7327 420.123 29.1778 420.123 29.6771C420.123 30.1872 420.231 30.6431 420.449 31.0447C420.666 31.4355 420.964 31.7448 421.344 31.9728C421.724 32.2007 422.158 32.3147 422.647 32.3147ZM431.689 33.7312C430.93 33.7312 430.24 33.5521 429.622 33.1939C429.014 32.8357 428.531 32.3527 428.173 31.7448C427.825 31.1261 427.652 30.4423 427.652 29.6933C427.652 28.9335 427.825 28.2497 428.173 27.6419C428.531 27.034 429.014 26.5564 429.622 26.2091C430.24 25.8509 430.93 25.6718 431.689 25.6718C432.286 25.6718 432.84 25.7858 433.35 26.0137C433.86 26.2308 434.3 26.551 434.669 26.9743L433.692 27.9512C433.453 27.669 433.16 27.4573 432.813 27.3162C432.476 27.1643 432.102 27.0883 431.689 27.0883C431.201 27.0883 430.767 27.2023 430.387 27.4302C430.007 27.6473 429.708 27.9512 429.491 28.342C429.274 28.7327 429.166 29.1832 429.166 29.6933C429.166 30.2035 429.274 30.654 429.491 31.0447C429.708 31.4355 430.007 31.7448 430.387 31.9728C430.767 32.2007 431.201 32.3147 431.689 32.3147C432.102 32.3147 432.476 32.2441 432.813 32.103C433.16 31.9511 433.459 31.734 433.708 31.4518L434.669 32.4287C434.311 32.8411 433.871 33.1613 433.35 33.3893C432.84 33.6172 432.286 33.7312 431.689 33.7312ZM439.073 33.7312C438.367 33.7312 437.727 33.5575 437.152 33.2102C436.576 32.852 436.121 32.369 435.784 31.7611C435.458 31.1533 435.296 30.4694 435.296 29.7096C435.296 28.9498 435.458 28.266 435.784 27.6582C436.121 27.0503 436.571 26.5673 437.135 26.2091C437.711 25.8509 438.357 25.6718 439.073 25.6718C439.659 25.6718 440.18 25.7966 440.636 26.0463C441.103 26.2851 441.477 26.6216 441.759 27.0557C442.042 27.4791 442.199 27.9729 442.232 28.5374V30.8656C442.199 31.4192 442.042 31.9131 441.759 32.3472C441.488 32.7814 441.119 33.1233 440.652 33.373C440.196 33.6118 439.67 33.7312 439.073 33.7312ZM439.317 32.3472C440.044 32.3472 440.631 32.103 441.076 31.6146C441.521 31.1153 441.743 30.4803 441.743 29.7096C441.743 29.1778 441.64 28.7165 441.434 28.3257C441.238 27.9241 440.956 27.6147 440.587 27.3976C440.218 27.1697 439.789 27.0557 439.301 27.0557C438.812 27.0557 438.378 27.1697 437.998 27.3976C437.629 27.6256 437.336 27.9404 437.119 28.342C436.913 28.7327 436.81 29.1832 436.81 29.6933C436.81 30.2144 436.913 30.6757 437.119 31.0773C437.336 31.468 437.635 31.7774 438.015 32.0053C438.395 32.2333 438.829 32.3472 439.317 32.3472ZM441.645 33.5684V31.4843L441.922 29.5957L441.645 27.7233V25.8346H443.127V33.5684H441.645ZM445.081 33.5684V21.9433H446.547V33.5684H445.081ZM455.301 33.7312C454.53 33.7312 453.836 33.5575 453.217 33.2102C452.598 32.852 452.11 32.369 451.752 31.7611C451.394 31.1533 451.214 30.464 451.214 29.6933C451.214 28.9335 451.388 28.2497 451.735 27.6419C452.094 27.034 452.571 26.5564 453.168 26.2091C453.776 25.8509 454.454 25.6718 455.203 25.6718C455.92 25.6718 456.549 25.8346 457.092 26.1602C457.646 26.4859 458.074 26.9363 458.378 27.5116C458.693 28.0869 458.85 28.7382 458.85 29.4654C458.85 29.5739 458.845 29.6933 458.834 29.8236C458.823 29.943 458.802 30.0841 458.769 30.2469H452.24V29.0258H457.988L457.45 29.498C457.45 28.977 457.358 28.5374 457.173 28.1792C456.989 27.8101 456.728 27.5279 456.392 27.3325C456.055 27.1263 455.648 27.0232 455.171 27.0232C454.672 27.0232 454.232 27.1317 453.852 27.3488C453.472 27.5659 453.179 27.8698 452.973 28.2606C452.767 28.6513 452.663 29.1126 452.663 29.6445C452.663 30.1872 452.772 30.6648 452.989 31.0773C453.206 31.4789 453.516 31.7937 453.917 32.0216C454.319 32.2387 454.78 32.3472 455.301 32.3472C455.735 32.3472 456.131 32.2713 456.49 32.1193C456.859 31.9673 457.173 31.7394 457.434 31.4355L458.378 32.3961C458.009 32.8303 457.553 33.1613 457.011 33.3893C456.479 33.6172 455.909 33.7312 455.301 33.7312ZM463.558 33.7312C462.852 33.7312 462.212 33.5575 461.637 33.2102C461.062 32.852 460.606 32.369 460.269 31.7611C459.944 31.1533 459.781 30.4694 459.781 29.7096C459.781 28.9498 459.944 28.266 460.269 27.6582C460.606 27.0503 461.056 26.5673 461.621 26.2091C462.196 25.8509 462.842 25.6718 463.558 25.6718C464.144 25.6718 464.665 25.7966 465.121 26.0463C465.588 26.2851 465.962 26.6216 466.244 27.0557C466.527 27.4791 466.684 27.9729 466.717 28.5374V30.8656C466.684 31.4192 466.527 31.9131 466.244 32.3472C465.973 32.7814 465.604 33.1233 465.137 33.373C464.681 33.6118 464.155 33.7312 463.558 33.7312ZM463.802 32.3472C464.529 32.3472 465.116 32.103 465.561 31.6146C466.006 31.1153 466.228 30.4803 466.228 29.7096C466.228 29.1778 466.125 28.7165 465.919 28.3257C465.723 27.9241 465.441 27.6147 465.072 27.3976C464.703 27.1697 464.274 27.0557 463.786 27.0557C463.298 27.0557 462.863 27.1697 462.483 27.3976C462.114 27.6256 461.821 27.9404 461.604 28.342C461.398 28.7327 461.295 29.1832 461.295 29.6933C461.295 30.2144 461.398 30.6757 461.604 31.0773C461.821 31.468 462.12 31.7774 462.5 32.0053C462.88 32.2333 463.314 32.3472 463.802 32.3472ZM466.131 33.5684V31.4843L466.407 29.5957L466.131 27.7233V25.8346H467.612V33.5684H466.131ZM470.723 33.5684V22.5946H472.189V33.5684H470.723ZM468.818 27.1697V25.8346H474.093V27.1697H468.818ZM478.693 33.7312C477.923 33.7312 477.228 33.5575 476.609 33.2102C475.991 32.852 475.502 32.369 475.144 31.7611C474.786 31.1533 474.607 30.464 474.607 29.6933C474.607 28.9335 474.78 28.2497 475.128 27.6419C475.486 27.034 475.963 26.5564 476.56 26.2091C477.168 25.8509 477.847 25.6718 478.596 25.6718C479.312 25.6718 479.942 25.8346 480.484 26.1602C481.038 26.4859 481.467 26.9363 481.77 27.5116C482.085 28.0869 482.243 28.7382 482.243 29.4654C482.243 29.5739 482.237 29.6933 482.226 29.8236C482.215 29.943 482.194 30.0841 482.161 30.2469H475.632V29.0258H481.38L480.842 29.498C480.842 28.977 480.75 28.5374 480.566 28.1792C480.381 27.8101 480.121 27.5279 479.784 27.3325C479.448 27.1263 479.041 27.0232 478.563 27.0232C478.064 27.0232 477.624 27.1317 477.244 27.3488C476.864 27.5659 476.571 27.8698 476.365 28.2606C476.159 28.6513 476.056 29.1126 476.056 29.6445C476.056 30.1872 476.164 30.6648 476.381 31.0773C476.598 31.4789 476.908 31.7937 477.309 32.0216C477.711 32.2387 478.172 32.3472 478.693 32.3472C479.127 32.3472 479.524 32.2713 479.882 32.1193C480.251 31.9673 480.566 31.7394 480.826 31.4355L481.77 32.3961C481.401 32.8303 480.946 33.1613 480.403 33.3893C479.871 33.6172 479.301 33.7312 478.693 33.7312ZM483.661 33.5684V25.8346H485.127V33.5684H483.661ZM485.127 29.1561L484.573 28.9118C484.573 27.9241 484.801 27.1371 485.257 26.551C485.713 25.9649 486.369 25.6718 487.227 25.6718C487.618 25.6718 487.97 25.7424 488.285 25.8835C488.6 26.0137 488.893 26.2362 489.164 26.551L488.204 27.5442C488.041 27.3705 487.862 27.2457 487.667 27.1697C487.471 27.0937 487.243 27.0557 486.983 27.0557C486.44 27.0557 485.995 27.2294 485.648 27.5767C485.3 27.9241 485.127 28.4505 485.127 29.1561ZM490.033 33.5684V25.8346H491.499V33.5684H490.033ZM490.766 24.2879C490.495 24.2879 490.272 24.201 490.098 24.0274C489.925 23.8428 489.838 23.6149 489.838 23.3435C489.838 23.083 489.925 22.8659 490.098 22.6923C490.272 22.5078 490.495 22.4155 490.766 22.4155C491.037 22.4155 491.26 22.5078 491.434 22.6923C491.607 22.8659 491.694 23.083 491.694 23.3435C491.694 23.6149 491.607 23.8428 491.434 24.0274C491.26 24.201 491.037 24.2879 490.766 24.2879ZM497.061 33.7312C496.29 33.7312 495.596 33.5575 494.977 33.2102C494.358 32.852 493.87 32.369 493.512 31.7611C493.153 31.1533 492.974 30.464 492.974 29.6933C492.974 28.9335 493.148 28.2497 493.495 27.6419C493.854 27.034 494.331 26.5564 494.928 26.2091C495.536 25.8509 496.214 25.6718 496.963 25.6718C497.68 25.6718 498.309 25.8346 498.852 26.1602C499.406 26.4859 499.834 26.9363 500.138 27.5116C500.453 28.0869 500.61 28.7382 500.61 29.4654C500.61 29.5739 500.605 29.6933 500.594 29.8236C500.583 29.943 500.562 30.0841 500.529 30.2469H494V29.0258H499.747L499.21 29.498C499.21 28.977 499.118 28.5374 498.933 28.1792C498.749 27.8101 498.488 27.5279 498.152 27.3325C497.815 27.1263 497.408 27.0232 496.931 27.0232C496.431 27.0232 495.992 27.1317 495.612 27.3488C495.232 27.5659 494.939 27.8698 494.733 28.2606C494.527 28.6513 494.423 29.1126 494.423 29.6445C494.423 30.1872 494.532 30.6648 494.749 31.0773C494.966 31.4789 495.275 31.7937 495.677 32.0216C496.079 32.2387 496.54 32.3472 497.061 32.3472C497.495 32.3472 497.891 32.2713 498.25 32.1193C498.619 31.9673 498.933 31.7394 499.194 31.4355L500.138 32.3961C499.769 32.8303 499.313 33.1613 498.771 33.3893C498.239 33.6172 497.669 33.7312 497.061 33.7312ZM504.488 33.7312C504.053 33.7312 503.641 33.6769 503.25 33.5684C502.87 33.449 502.518 33.2861 502.192 33.0799C501.866 32.8628 501.584 32.6077 501.345 32.3147L502.29 31.3703C502.572 31.7177 502.897 31.9782 503.266 32.1519C503.636 32.3147 504.048 32.3961 504.504 32.3961C504.96 32.3961 505.313 32.3201 505.562 32.1681C505.812 32.0053 505.937 31.7828 505.937 31.5006C505.937 31.2184 505.834 31.0013 505.627 30.8493C505.432 30.6865 505.177 30.5563 504.862 30.4586C504.547 30.35 504.211 30.2469 503.853 30.1492C503.505 30.0407 503.174 29.905 502.859 29.7422C502.545 29.5794 502.284 29.3569 502.078 29.0746C501.883 28.7924 501.785 28.418 501.785 27.9512C501.785 27.4845 501.899 27.0829 502.127 26.7464C502.355 26.399 502.669 26.1331 503.071 25.9486C503.484 25.7641 503.977 25.6718 504.553 25.6718C505.161 25.6718 505.698 25.7803 506.165 25.9974C506.642 26.2037 507.033 26.5184 507.337 26.9418L506.393 27.8861C506.175 27.6039 505.904 27.3868 505.578 27.2348C505.264 27.0829 504.905 27.0069 504.504 27.0069C504.081 27.0069 503.755 27.0829 503.527 27.2348C503.31 27.3759 503.201 27.5767 503.201 27.8372C503.201 28.0978 503.299 28.2986 503.494 28.4397C503.69 28.5808 503.945 28.7002 504.26 28.7979C504.585 28.8956 504.922 28.9987 505.269 29.1072C505.616 29.2049 505.947 29.3406 506.262 29.5143C506.577 29.6879 506.832 29.9213 507.027 30.2144C507.234 30.5074 507.337 30.8928 507.337 31.3703C507.337 32.0976 507.076 32.6729 506.555 33.0962C506.045 33.5195 505.356 33.7312 504.488 33.7312ZM411.75 57.5684V48.4344C411.75 47.9242 411.859 47.4738 412.076 47.083C412.304 46.6814 412.618 46.3666 413.02 46.1387C413.422 45.8999 413.883 45.7805 414.404 45.7805C414.806 45.7805 415.158 45.8511 415.462 45.9922C415.766 46.1224 416.048 46.3069 416.309 46.5457L415.348 47.5064C415.207 47.387 415.061 47.3001 414.909 47.2458C414.757 47.1807 414.589 47.1482 414.404 47.1482C414.024 47.1482 413.731 47.2676 413.525 47.5064C413.319 47.7343 413.215 48.0436 413.215 48.4344V57.5684H411.75ZM409.845 51.1697V49.8346H417.188V51.1697H409.845ZM416.341 57.5684V49.8346H417.823V57.5684H416.341ZM417.074 49.0205C416.814 49.0205 416.597 48.9337 416.423 48.76C416.249 48.5755 416.162 48.3476 416.162 48.0762C416.162 47.8157 416.249 47.5986 416.423 47.4249C416.597 47.2404 416.814 47.1482 417.074 47.1482C417.356 47.1482 417.579 47.2404 417.742 47.4249C417.915 47.5986 418.002 47.8157 418.002 48.0762C418.002 48.3476 417.915 48.5755 417.742 48.76C417.579 48.9337 417.356 49.0205 417.074 49.0205ZM425.268 57.5684V53.0584C425.268 52.4722 425.083 51.9892 424.714 51.6093C424.345 51.2294 423.868 51.0395 423.281 51.0395C422.891 51.0395 422.543 51.1263 422.239 51.3C421.935 51.4736 421.697 51.7124 421.523 52.0163C421.349 52.3203 421.262 52.6676 421.262 53.0584L420.66 52.7165C420.66 52.1303 420.79 51.6093 421.051 51.1534C421.311 50.6975 421.675 50.3393 422.142 50.0788C422.608 49.8075 423.135 49.6718 423.721 49.6718C424.307 49.6718 424.823 49.8183 425.268 50.1114C425.724 50.4045 426.082 50.7898 426.342 51.2674C426.603 51.7341 426.733 52.2334 426.733 52.7653V57.5684H425.268ZM419.797 57.5684V49.8346H421.262V57.5684H419.797ZM431.81 57.7312C431.094 57.7312 430.454 57.5575 429.889 57.2102C429.325 56.852 428.874 56.369 428.538 55.7611C428.212 55.1533 428.049 54.4694 428.049 53.7096C428.049 52.9498 428.212 52.266 428.538 51.6582C428.874 51.0503 429.325 50.5673 429.889 50.2091C430.454 49.8509 431.094 49.6718 431.81 49.6718C432.386 49.6718 432.907 49.7966 433.374 50.0463C433.84 50.2851 434.215 50.6216 434.497 51.0557C434.79 51.4791 434.953 51.9729 434.985 52.5374V54.8656C434.953 55.4192 434.795 55.9131 434.513 56.3472C434.231 56.7814 433.857 57.1233 433.39 57.373C432.923 57.6118 432.397 57.7312 431.81 57.7312ZM432.055 56.3472C432.543 56.3472 432.966 56.2333 433.325 56.0053C433.694 55.7774 433.981 55.468 434.188 55.0773C434.394 54.6757 434.497 54.2198 434.497 53.7096C434.497 53.1778 434.388 52.7165 434.171 52.3257C433.965 51.9349 433.677 51.6256 433.308 51.3976C432.95 51.1697 432.527 51.0557 432.038 51.0557C431.55 51.0557 431.121 51.1697 430.752 51.3976C430.383 51.6256 430.09 51.9404 429.873 52.342C429.667 52.7327 429.564 53.1832 429.564 53.6933C429.564 54.2144 429.667 54.6757 429.873 55.0773C430.09 55.468 430.383 55.7774 430.752 56.0053C431.132 56.2333 431.566 56.3472 432.055 56.3472ZM435.881 57.5684H434.399V55.4843L434.676 53.5957L434.399 51.7233V45.9433H435.881V57.5684ZM441.417 57.7312C440.646 57.7312 439.952 57.5575 439.333 57.2102C438.714 56.852 438.226 56.369 437.868 55.7611C437.51 55.1533 437.33 54.464 437.33 53.6933C437.33 52.9335 437.504 52.2497 437.851 51.6419C438.21 51.034 438.687 50.5564 439.284 50.2091C439.892 49.8509 440.57 49.6718 441.319 49.6718C442.036 49.6718 442.665 49.8346 443.208 50.1602C443.762 50.4859 444.19 50.9363 444.494 51.5116C444.809 52.0869 444.967 52.7382 444.967 53.4654C444.967 53.5739 444.961 53.6933 444.95 53.8236C444.939 53.943 444.918 54.0841 444.885 54.2469H438.356V53.0258H444.104L443.566 53.498C443.566 52.977 443.474 52.5374 443.29 52.1792C443.105 51.8101 442.844 51.5279 442.508 51.3325C442.172 51.1263 441.764 51.0232 441.287 51.0232C440.788 51.0232 440.348 51.1317 439.968 51.3488C439.588 51.5659 439.295 51.8698 439.089 52.2606C438.883 52.6513 438.78 53.1126 438.78 53.6445C438.78 54.1872 438.888 54.6648 439.105 55.0773C439.322 55.4789 439.632 55.7937 440.033 56.0216C440.435 56.2387 440.896 56.3472 441.417 56.3472C441.851 56.3472 442.247 56.2713 442.606 56.1193C442.975 55.9673 443.29 55.7394 443.55 55.4355L444.494 56.3961C444.125 56.8303 443.669 57.1613 443.127 57.3893C442.595 57.6172 442.025 57.7312 441.417 57.7312ZM446.385 57.5684V49.8346H447.851V57.5684H446.385ZM447.851 53.1561L447.297 52.9118C447.297 51.9241 447.525 51.1371 447.981 50.551C448.437 49.9649 449.093 49.6718 449.951 49.6718C450.342 49.6718 450.694 49.7424 451.009 49.8835C451.324 50.0137 451.617 50.2362 451.888 50.551L450.928 51.5442C450.765 51.3705 450.586 51.2457 450.39 51.1697C450.195 51.0937 449.967 51.0557 449.707 51.0557C449.164 51.0557 448.719 51.2294 448.372 51.5767C448.024 51.9241 447.851 52.4505 447.851 53.1561Z" fill="#242424"/>
<path d="M410.219 148.578V142.658H413.931V143.427H411.112V145.23H413.737V145.997H411.112V147.809H413.965V148.578H410.219ZM418.674 144.138L417.064 148.578H416.139L414.526 144.138H415.454L416.578 147.555H416.624L417.746 144.138H418.674ZM421.018 150.336C420.665 150.336 420.362 150.29 420.107 150.197C419.855 150.105 419.649 149.982 419.489 149.83C419.329 149.678 419.209 149.511 419.13 149.33L419.873 149.023C419.925 149.108 419.995 149.198 420.081 149.292C420.17 149.389 420.29 149.47 420.44 149.538C420.592 149.605 420.788 149.639 421.027 149.639C421.354 149.639 421.625 149.559 421.839 149.399C422.053 149.241 422.16 148.989 422.16 148.642V147.769H422.105C422.053 147.863 421.978 147.968 421.88 148.084C421.783 148.199 421.65 148.3 421.481 148.384C421.311 148.469 421.09 148.512 420.819 148.512C420.468 148.512 420.152 148.43 419.87 148.266C419.591 148.1 419.369 147.856 419.205 147.535C419.044 147.211 418.963 146.813 418.963 146.341C418.963 145.868 419.043 145.464 419.203 145.126C419.364 144.789 419.586 144.531 419.867 144.352C420.149 144.17 420.468 144.08 420.824 144.08C421.1 144.08 421.323 144.126 421.492 144.219C421.662 144.309 421.794 144.415 421.888 144.537C421.985 144.658 422.059 144.765 422.111 144.858H422.174V144.138H423.021V148.676C423.021 149.058 422.933 149.371 422.755 149.616C422.578 149.861 422.338 150.042 422.036 150.159C421.735 150.277 421.396 150.336 421.018 150.336ZM421.009 147.795C421.258 147.795 421.468 147.737 421.64 147.621C421.813 147.504 421.944 147.336 422.033 147.118C422.123 146.899 422.169 146.635 422.169 146.329C422.169 146.03 422.124 145.767 422.036 145.54C421.947 145.312 421.817 145.135 421.645 145.008C421.474 144.879 421.262 144.814 421.009 144.814C420.749 144.814 420.532 144.882 420.359 145.017C420.185 145.15 420.054 145.331 419.966 145.56C419.879 145.789 419.836 146.046 419.836 146.329C419.836 146.62 419.88 146.875 419.969 147.095C420.057 147.315 420.188 147.486 420.362 147.61C420.537 147.733 420.753 147.795 421.009 147.795ZM425.915 148.668C425.478 148.668 425.101 148.574 424.785 148.387C424.471 148.198 424.228 147.933 424.057 147.592C423.887 147.249 423.802 146.847 423.802 146.387C423.802 145.932 423.887 145.531 424.057 145.184C424.228 144.837 424.467 144.567 424.773 144.372C425.082 144.177 425.442 144.08 425.855 144.08C426.105 144.08 426.348 144.121 426.583 144.204C426.818 144.287 427.029 144.417 427.216 144.594C427.403 144.772 427.551 145.002 427.659 145.285C427.767 145.567 427.82 145.909 427.82 146.312V146.618H424.291V145.971H426.973C426.973 145.743 426.927 145.542 426.835 145.366C426.742 145.189 426.612 145.049 426.444 144.947C426.279 144.845 426.084 144.794 425.86 144.794C425.618 144.794 425.406 144.854 425.224 144.973C425.045 145.091 424.906 145.245 424.808 145.436C424.712 145.625 424.664 145.83 424.664 146.051V146.557C424.664 146.854 424.716 147.107 424.82 147.315C424.926 147.523 425.073 147.682 425.262 147.792C425.451 147.9 425.672 147.954 425.924 147.954C426.088 147.954 426.237 147.931 426.372 147.884C426.507 147.836 426.624 147.765 426.722 147.67C426.82 147.576 426.895 147.459 426.947 147.321L427.766 147.468C427.7 147.709 427.582 147.92 427.413 148.101C427.245 148.28 427.034 148.42 426.78 148.52C426.527 148.619 426.239 148.668 425.915 148.668ZM429.465 145.942V148.578H428.6V144.138H429.43V144.86H429.485C429.587 144.625 429.747 144.436 429.965 144.294C430.185 144.151 430.461 144.08 430.795 144.08C431.097 144.08 431.362 144.143 431.59 144.271C431.817 144.396 431.993 144.583 432.119 144.832C432.244 145.08 432.307 145.388 432.307 145.754V148.578H431.442V145.858C431.442 145.536 431.358 145.284 431.191 145.103C431.023 144.92 430.793 144.829 430.5 144.829C430.299 144.829 430.121 144.872 429.965 144.959C429.811 145.045 429.688 145.173 429.598 145.34C429.509 145.506 429.465 145.706 429.465 145.942ZM433.287 148.578V144.138H434.151V148.578H433.287ZM433.723 143.453C433.573 143.453 433.444 143.402 433.336 143.302C433.23 143.2 433.177 143.079 433.177 142.938C433.177 142.795 433.23 142.674 433.336 142.574C433.444 142.472 433.573 142.421 433.723 142.421C433.874 142.421 434.002 142.472 434.108 142.574C434.216 142.674 434.27 142.795 434.27 142.938C434.27 143.079 434.216 143.2 434.108 143.302C434.002 143.402 433.874 143.453 433.723 143.453ZM436.427 148.676C436.146 148.676 435.891 148.624 435.664 148.52C435.437 148.414 435.256 148.261 435.123 148.061C434.992 147.86 434.927 147.614 434.927 147.323C434.927 147.073 434.975 146.867 435.071 146.705C435.168 146.543 435.298 146.415 435.462 146.32C435.625 146.226 435.808 146.155 436.011 146.106C436.213 146.058 436.419 146.022 436.629 145.997C436.895 145.966 437.111 145.941 437.277 145.921C437.443 145.9 437.563 145.866 437.638 145.82C437.714 145.774 437.751 145.699 437.751 145.595V145.574C437.751 145.322 437.68 145.126 437.537 144.988C437.397 144.849 437.186 144.779 436.907 144.779C436.616 144.779 436.387 144.844 436.219 144.973C436.053 145.1 435.939 145.242 435.875 145.398L435.063 145.213C435.159 144.943 435.3 144.726 435.485 144.56C435.672 144.392 435.887 144.271 436.129 144.196C436.372 144.118 436.628 144.08 436.895 144.08C437.073 144.08 437.261 144.101 437.459 144.143C437.66 144.184 437.847 144.259 438.02 144.369C438.195 144.479 438.339 144.636 438.451 144.84C438.563 145.043 438.618 145.306 438.618 145.629V148.578H437.774V147.971H437.74C437.684 148.083 437.6 148.193 437.488 148.301C437.376 148.409 437.233 148.498 437.057 148.569C436.882 148.641 436.672 148.676 436.427 148.676ZM436.615 147.983C436.854 147.983 437.058 147.935 437.228 147.841C437.399 147.747 437.53 147.623 437.618 147.471C437.709 147.317 437.754 147.152 437.754 146.977V146.404C437.723 146.435 437.663 146.464 437.575 146.491C437.488 146.516 437.389 146.538 437.277 146.557C437.165 146.575 437.056 146.591 436.95 146.607C436.844 146.62 436.756 146.632 436.684 146.641C436.517 146.662 436.364 146.698 436.225 146.748C436.088 146.798 435.978 146.871 435.895 146.965C435.814 147.058 435.774 147.181 435.774 147.335C435.774 147.549 435.853 147.711 436.011 147.821C436.169 147.929 436.37 147.983 436.615 147.983Z" fill="black" fill-opacity="0.4"/>
</g>
<defs>
<filter id="filter0_ddd_665_3540" x="0" y="0" width="183" height="183" filterUnits="userSpaceOnUse" color-interpolation-filters="sRGB">
<feFlood flood-opacity="0" result="BackgroundImageFix"/>
<feColorMatrix in="SourceAlpha" type="matrix" values="0 0 0 0 0 0 0 0 0 0 0 0 0 0 0 0 0 0 127 0" result="hardAlpha"/>
<feOffset dy="2.5"/>
<feGaussianBlur stdDeviation="1"/>
<feColorMatrix type="matrix" values="0 0 0 0 0 0 0 0 0 0 0 0 0 0 0 0 0 0 0.02 0"/>
<feBlend mode="normal" in2="BackgroundImageFix" result="effect1_dropShadow_665_3540"/>
<feColorMatrix in="SourceAlpha" type="matrix" values="0 0 0 0 0 0 0 0 0 0 0 0 0 0 0 0 0 0 127 0" result="hardAlpha"/>
<feOffset dy="3"/>
<feGaussianBlur stdDeviation="2.5"/>
<feColorMatrix type="matrix" values="0 0 0 0 0 0 0 0 0 0 0 0 0 0 0 0 0 0 0.04 0"/>
<feBlend mode="normal" in2="effect1_dropShadow_665_3540" result="effect2_dropShadow_665_3540"/>
<feColorMatrix in="SourceAlpha" type="matrix" values="0 0 0 0 0 0 0 0 0 0 0 0 0 0 0 0 0 0 127 0" result="hardAlpha"/>
<feOffset dy="8"/>
<feGaussianBlur stdDeviation="5"/>
<feColorMatrix type="matrix" values="0 0 0 0 0 0 0 0 0 0 0 0 0 0 0 0 0 0 0.08 0"/>
<feBlend mode="normal" in2="effect2_dropShadow_665_3540" result="effect3_dropShadow_665_3540"/>
<feBlend mode="normal" in="SourceGraphic" in2="effect3_dropShadow_665_3540" result="shape"/>
</filter>
<filter id="filter1_ddd_665_3540" x="193" y="0" width="183" height="183" filterUnits="userSpaceOnUse" color-interpolation-filters="sRGB">
<feFlood flood-opacity="0" result="BackgroundImageFix"/>
<feColorMatrix in="SourceAlpha" type="matrix" values="0 0 0 0 0 0 0 0 0 0 0 0 0 0 0 0 0 0 127 0" result="hardAlpha"/>
<feOffset dy="2.5"/>
<feGaussianBlur stdDeviation="1"/>
<feColorMatrix type="matrix" values="0 0 0 0 0 0 0 0 0 0 0 0 0 0 0 0 0 0 0.02 0"/>
<feBlend mode="normal" in2="BackgroundImageFix" result="effect1_dropShadow_665_3540"/>
<feColorMatrix in="SourceAlpha" type="matrix" values="0 0 0 0 0 0 0 0 0 0 0 0 0 0 0 0 0 0 127 0" result="hardAlpha"/>
<feOffset dy="3"/>
<feGaussianBlur stdDeviation="2.5"/>
<feColorMatrix type="matrix" values="0 0 0 0 0 0 0 0 0 0 0 0 0 0 0 0 0 0 0.04 0"/>
<feBlend mode="normal" in2="effect1_dropShadow_665_3540" result="effect2_dropShadow_665_3540"/>
<feColorMatrix in="SourceAlpha" type="matrix" values="0 0 0 0 0 0 0 0 0 0 0 0 0 0 0 0 0 0 127 0" result="hardAlpha"/>
<feOffset dy="8"/>
<feGaussianBlur stdDeviation="5"/>
<feColorMatrix type="matrix" values="0 0 0 0 0 0 0 0 0 0 0 0 0 0 0 0 0 0 0.08 0"/>
<feBlend mode="normal" in2="effect2_dropShadow_665_3540" result="effect3_dropShadow_665_3540"/>
<feBlend mode="normal" in="SourceGraphic" in2="effect3_dropShadow_665_3540" result="shape"/>
</filter>
<filter id="filter2_ddd_665_3540" x="386" y="0" width="183" height="183" filterUnits="userSpaceOnUse" color-interpolation-filters="sRGB">
<feFlood flood-opacity="0" result="BackgroundImageFix"/>
<feColorMatrix in="SourceAlpha" type="matrix" values="0 0 0 0 0 0 0 0 0 0 0 0 0 0 0 0 0 0 127 0" result="hardAlpha"/>
<feOffset dy="2.5"/>
<feGaussianBlur stdDeviation="1"/>
<feColorMatrix type="matrix" values="0 0 0 0 0 0 0 0 0 0 0 0 0 0 0 0 0 0 0.02 0"/>
<feBlend mode="normal" in2="BackgroundImageFix" result="effect1_dropShadow_665_3540"/>
<feColorMatrix in="SourceAlpha" type="matrix" values="0 0 0 0 0 0 0 0 0 0 0 0 0 0 0 0 0 0 127 0" result="hardAlpha"/>
<feOffset dy="3"/>
<feGaussianBlur stdDeviation="2.5"/>
<feColorMatrix type="matrix" values="0 0 0 0 0 0 0 0 0 0 0 0 0 0 0 0 0 0 0.04 0"/>
<feBlend mode="normal" in2="effect1_dropShadow_665_3540" result="effect2_dropShadow_665_3540"/>
<feColorMatrix in="SourceAlpha" type="matrix" values="0 0 0 0 0 0 0 0 0 0 0 0 0 0 0 0 0 0 127 0" result="hardAlpha"/>
<feOffset dy="8"/>
<feGaussianBlur stdDeviation="5"/>
<feColorMatrix type="matrix" values="0 0 0 0 0 0 0 0 0 0 0 0 0 0 0 0 0 0 0.08 0"/>
<feBlend mode="normal" in2="effect2_dropShadow_665_3540" result="effect3_dropShadow_665_3540"/>
<feBlend mode="normal" in="SourceGraphic" in2="effect3_dropShadow_665_3540" result="shape"/>
</filter>
</defs>
</svg>
