<svg width="1638" height="462" viewBox="0 0 1638 462" fill="none" xmlns="http://www.w3.org/2000/svg">
<path d="M18.6699 31.7207H140.374C161.451 31.7207 178.012 37.0511 190.057 47.7119C202.101 58.2913 208.123 71.5563 208.123 87.5068C208.123 105.085 201.043 118.838 186.883 128.767C206.984 151.716 218.987 181.46 222.894 218H137.322C135.776 194.481 132.236 177.106 126.702 165.876C121.25 154.646 112.705 149.03 101.067 149.03V218H18.6699V31.7207ZM101.067 70.0508V105.939H103.387C118.198 105.939 125.604 100.121 125.604 88.4834C125.604 83.6006 124.098 79.3281 121.087 75.666C118.076 71.9225 113.071 70.0508 106.072 70.0508H101.067ZM391.954 171.247V218H237.291V31.7207H391.954V78.4736H319.688V101.545H369.981V148.298H319.688V171.247H391.954ZM567.973 41.2422L547.465 99.958C534.037 81.8102 518.616 72.7363 501.2 72.7363C491.516 72.7363 486.674 76.3984 486.674 83.7227C486.674 86.0013 488.179 88.3206 491.19 90.6807C494.283 93.0407 502.299 96.7435 515.238 101.789C529.48 107.404 540.425 112.531 548.075 117.17C555.806 121.727 561.584 127.587 565.409 134.748C569.234 141.91 571.146 150.251 571.146 159.772C571.146 179.711 563.578 194.929 548.441 205.427C533.305 215.843 511.047 221.052 481.669 221.052C448.71 221.052 420.308 216.372 396.464 207.014L416.605 144.758C422.465 153.872 429.708 161.115 438.334 166.486C447.042 171.857 455.383 174.543 463.358 174.543C467.265 174.543 470.52 173.526 473.124 171.491C475.81 169.457 477.152 166.975 477.152 164.045C477.152 161.278 475.85 158.633 473.246 156.11C470.723 153.588 463.969 150.088 452.982 145.612C443.054 141.625 434.835 137.759 428.324 134.016C421.814 130.191 416.158 124.779 411.356 117.78C406.555 110.782 404.154 101.952 404.154 91.291C404.154 70.6204 411.682 55.0361 426.737 44.5381C441.793 34.04 464.009 28.791 493.388 28.791C520.243 28.791 545.105 32.9414 567.973 41.2422ZM743.259 171.247V218H588.596V31.7207H743.259V78.4736H670.993V101.545H721.286V148.298H670.993V171.247H743.259ZM827.48 218H744.961L809.658 31.7207H927.212L991.909 218H909.512L898.77 186.506H838.223L827.48 218ZM853.237 142.561H883.755L868.496 96.2959L853.237 142.561ZM1005.09 31.7207H1126.79C1147.87 31.7207 1164.43 37.0511 1176.47 47.7119C1188.52 58.2913 1194.54 71.5563 1194.54 87.5068C1194.54 105.085 1187.46 118.838 1173.3 128.767C1193.4 151.716 1205.4 181.46 1209.31 218H1123.74C1122.19 194.481 1118.65 177.106 1113.12 165.876C1107.67 154.646 1099.12 149.03 1087.48 149.03V218H1005.09V31.7207ZM1087.48 70.0508V105.939H1089.8C1104.61 105.939 1112.02 100.121 1112.02 88.4834C1112.02 83.6006 1110.51 79.3281 1107.5 75.666C1104.49 71.9225 1099.49 70.0508 1092.49 70.0508H1087.48ZM1397.17 48.4443L1362.62 114.24C1352.53 110.741 1341.38 108.991 1329.18 108.991C1311.68 108.991 1302.93 113.752 1302.93 123.273C1302.93 127.831 1305.37 131.411 1310.25 134.016C1315.14 136.538 1322.1 137.8 1331.13 137.8C1343.34 137.8 1353.83 135.603 1362.62 131.208L1397.17 201.765C1387.4 207.624 1375.6 212.303 1361.77 215.803C1347.93 219.302 1334.71 221.052 1322.1 221.052C1290.44 221.052 1265.21 211.937 1246.41 193.708C1227.69 175.397 1218.34 152.896 1218.34 126.203C1218.34 97.9642 1228.1 74.6895 1247.63 56.3789C1267.16 37.987 1291.99 28.791 1322.1 28.791C1335.12 28.791 1348.54 30.5814 1362.38 34.1621C1376.29 37.6615 1387.89 42.4222 1397.17 48.4443ZM1495.18 218H1412.67V31.7207H1495.18V99.958H1537.18V31.7207H1619.7V218H1537.18V148.786H1495.18V218Z" fill="#FEFAE0" fill-opacity="0.2"/>
<path d="M437.819 270V251.128H440.451V270H437.819ZM431.211 252.976V250.568H447.031V252.976H431.211ZM459.127 270V262.244C459.127 261.236 458.81 260.405 458.175 259.752C457.54 259.099 456.719 258.772 455.711 258.772C455.039 258.772 454.442 258.921 453.919 259.22C453.396 259.519 452.986 259.929 452.687 260.452C452.388 260.975 452.239 261.572 452.239 262.244L451.203 261.656C451.203 260.648 451.427 259.752 451.875 258.968C452.323 258.184 452.948 257.568 453.751 257.12C454.554 256.653 455.459 256.42 456.467 256.42C457.475 256.42 458.362 256.644 459.127 257.092C459.911 257.54 460.527 258.165 460.975 258.968C461.423 259.771 461.647 260.695 461.647 261.74V270H459.127ZM449.719 270V250.008H452.239V270H449.719ZM471.219 270.28C469.894 270.28 468.699 269.981 467.635 269.384C466.571 268.768 465.731 267.937 465.115 266.892C464.499 265.847 464.191 264.661 464.191 263.336C464.191 262.029 464.49 260.853 465.087 259.808C465.703 258.763 466.524 257.941 467.551 257.344C468.596 256.728 469.763 256.42 471.051 256.42C472.283 256.42 473.366 256.7 474.299 257.26C475.251 257.82 475.988 258.595 476.511 259.584C477.052 260.573 477.323 261.693 477.323 262.944C477.323 263.131 477.314 263.336 477.295 263.56C477.276 263.765 477.239 264.008 477.183 264.288H465.955V262.188H475.839L474.915 263C474.915 262.104 474.756 261.348 474.439 260.732C474.122 260.097 473.674 259.612 473.095 259.276C472.516 258.921 471.816 258.744 470.995 258.744C470.136 258.744 469.38 258.931 468.727 259.304C468.074 259.677 467.57 260.2 467.215 260.872C466.86 261.544 466.683 262.337 466.683 263.252C466.683 264.185 466.87 265.007 467.243 265.716C467.616 266.407 468.148 266.948 468.839 267.34C469.53 267.713 470.323 267.9 471.219 267.9C471.966 267.9 472.647 267.769 473.263 267.508C473.898 267.247 474.439 266.855 474.887 266.332L476.511 267.984C475.876 268.731 475.092 269.3 474.159 269.692C473.244 270.084 472.264 270.28 471.219 270.28ZM490.459 270L484.355 256.7H487.155L492.055 267.928H490.431L495.359 256.7H498.047L491.943 270H490.459ZM505.836 270.28C504.511 270.28 503.316 269.981 502.252 269.384C501.188 268.768 500.348 267.937 499.732 266.892C499.116 265.847 498.808 264.661 498.808 263.336C498.808 262.029 499.107 260.853 499.704 259.808C500.32 258.763 501.141 257.941 502.168 257.344C503.213 256.728 504.38 256.42 505.668 256.42C506.9 256.42 507.983 256.7 508.916 257.26C509.868 257.82 510.605 258.595 511.128 259.584C511.669 260.573 511.94 261.693 511.94 262.944C511.94 263.131 511.931 263.336 511.912 263.56C511.893 263.765 511.856 264.008 511.8 264.288H500.572V262.188H510.456L509.532 263C509.532 262.104 509.373 261.348 509.056 260.732C508.739 260.097 508.291 259.612 507.712 259.276C507.133 258.921 506.433 258.744 505.612 258.744C504.753 258.744 503.997 258.931 503.344 259.304C502.691 259.677 502.187 260.2 501.832 260.872C501.477 261.544 501.3 262.337 501.3 263.252C501.3 264.185 501.487 265.007 501.86 265.716C502.233 266.407 502.765 266.948 503.456 267.34C504.147 267.713 504.94 267.9 505.836 267.9C506.583 267.9 507.264 267.769 507.88 267.508C508.515 267.247 509.056 266.855 509.504 266.332L511.128 267.984C510.493 268.731 509.709 269.3 508.776 269.692C507.861 270.084 506.881 270.28 505.836 270.28ZM514.688 270V256.7H517.208V270H514.688ZM517.208 262.412L516.256 261.992C516.256 260.293 516.648 258.94 517.432 257.932C518.216 256.924 519.345 256.42 520.82 256.42C521.492 256.42 522.099 256.541 522.64 256.784C523.181 257.008 523.685 257.391 524.152 257.932L522.5 259.64C522.22 259.341 521.912 259.127 521.576 258.996C521.24 258.865 520.848 258.8 520.4 258.8C519.467 258.8 518.701 259.099 518.104 259.696C517.507 260.293 517.208 261.199 517.208 262.412ZM530.048 270.112L524.28 256.7H527.08L531.364 267.2H530.468L534.976 256.7H537.776L531.56 270.112H530.048ZM526.24 275.572L530.16 267.536L531.56 270.112L529.04 275.572H526.24ZM547.791 270V254.292C547.791 253.415 547.978 252.64 548.351 251.968C548.743 251.277 549.284 250.736 549.975 250.344C550.666 249.933 551.459 249.728 552.355 249.728C553.046 249.728 553.652 249.849 554.175 250.092C554.698 250.316 555.183 250.633 555.631 251.044L553.979 252.696C553.736 252.491 553.484 252.341 553.223 252.248C552.962 252.136 552.672 252.08 552.355 252.08C551.702 252.08 551.198 252.285 550.843 252.696C550.488 253.088 550.311 253.62 550.311 254.292V270H547.791ZM544.515 258.996V256.7H557.143V258.996H544.515ZM555.687 270V256.7H558.235V270H555.687ZM556.947 255.3C556.499 255.3 556.126 255.151 555.827 254.852C555.528 254.535 555.379 254.143 555.379 253.676C555.379 253.228 555.528 252.855 555.827 252.556C556.126 252.239 556.499 252.08 556.947 252.08C557.432 252.08 557.815 252.239 558.095 252.556C558.394 252.855 558.543 253.228 558.543 253.676C558.543 254.143 558.394 254.535 558.095 254.852C557.815 255.151 557.432 255.3 556.947 255.3ZM561.938 270V256.7H564.458V270H561.938ZM564.458 262.412L563.506 261.992C563.506 260.293 563.898 258.94 564.682 257.932C565.466 256.924 566.595 256.42 568.07 256.42C568.742 256.42 569.349 256.541 569.89 256.784C570.431 257.008 570.935 257.391 571.402 257.932L569.75 259.64C569.47 259.341 569.162 259.127 568.826 258.996C568.49 258.865 568.098 258.8 567.65 258.8C566.717 258.8 565.951 259.099 565.354 259.696C564.757 260.293 564.458 261.199 564.458 262.412ZM577.103 270.28C576.357 270.28 575.647 270.187 574.975 270C574.322 269.795 573.715 269.515 573.155 269.16C572.595 268.787 572.11 268.348 571.699 267.844L573.323 266.22C573.809 266.817 574.369 267.265 575.003 267.564C575.638 267.844 576.347 267.984 577.131 267.984C577.915 267.984 578.522 267.853 578.951 267.592C579.381 267.312 579.595 266.929 579.595 266.444C579.595 265.959 579.418 265.585 579.063 265.324C578.727 265.044 578.289 264.82 577.747 264.652C577.206 264.465 576.627 264.288 576.011 264.12C575.414 263.933 574.845 263.7 574.303 263.42C573.762 263.14 573.314 262.757 572.959 262.272C572.623 261.787 572.455 261.143 572.455 260.34C572.455 259.537 572.651 258.847 573.043 258.268C573.435 257.671 573.977 257.213 574.667 256.896C575.377 256.579 576.226 256.42 577.215 256.42C578.261 256.42 579.185 256.607 579.987 256.98C580.809 257.335 581.481 257.876 582.003 258.604L580.379 260.228C580.006 259.743 579.539 259.369 578.979 259.108C578.438 258.847 577.822 258.716 577.131 258.716C576.403 258.716 575.843 258.847 575.451 259.108C575.078 259.351 574.891 259.696 574.891 260.144C574.891 260.592 575.059 260.937 575.395 261.18C575.731 261.423 576.17 261.628 576.711 261.796C577.271 261.964 577.85 262.141 578.447 262.328C579.045 262.496 579.614 262.729 580.155 263.028C580.697 263.327 581.135 263.728 581.471 264.232C581.826 264.736 582.003 265.399 582.003 266.22C582.003 267.471 581.555 268.46 580.659 269.188C579.782 269.916 578.597 270.28 577.103 270.28ZM586.869 270V251.128H589.389V270H586.869ZM583.593 258.996V256.7H592.665V258.996H583.593ZM605.185 270.28C604.439 270.28 603.729 270.187 603.057 270C602.404 269.795 601.797 269.515 601.237 269.16C600.677 268.787 600.192 268.348 599.781 267.844L601.405 266.22C601.891 266.817 602.451 267.265 603.085 267.564C603.72 267.844 604.429 267.984 605.213 267.984C605.997 267.984 606.604 267.853 607.033 267.592C607.463 267.312 607.677 266.929 607.677 266.444C607.677 265.959 607.5 265.585 607.145 265.324C606.809 265.044 606.371 264.82 605.829 264.652C605.288 264.465 604.709 264.288 604.093 264.12C603.496 263.933 602.927 263.7 602.385 263.42C601.844 263.14 601.396 262.757 601.041 262.272C600.705 261.787 600.537 261.143 600.537 260.34C600.537 259.537 600.733 258.847 601.125 258.268C601.517 257.671 602.059 257.213 602.749 256.896C603.459 256.579 604.308 256.42 605.297 256.42C606.343 256.42 607.267 256.607 608.069 256.98C608.891 257.335 609.563 257.876 610.085 258.604L608.461 260.228C608.088 259.743 607.621 259.369 607.061 259.108C606.52 258.847 605.904 258.716 605.213 258.716C604.485 258.716 603.925 258.847 603.533 259.108C603.16 259.351 602.973 259.696 602.973 260.144C602.973 260.592 603.141 260.937 603.477 261.18C603.813 261.423 604.252 261.628 604.793 261.796C605.353 261.964 605.932 262.141 606.529 262.328C607.127 262.496 607.696 262.729 608.237 263.028C608.779 263.327 609.217 263.728 609.553 264.232C609.908 264.736 610.085 265.399 610.085 266.22C610.085 267.471 609.637 268.46 608.741 269.188C607.864 269.916 606.679 270.28 605.185 270.28ZM614.951 270V251.128H617.471V270H614.951ZM611.675 258.996V256.7H620.747V258.996H611.675ZM628.965 270.28C627.64 270.28 626.445 269.981 625.381 269.384C624.317 268.768 623.477 267.937 622.861 266.892C622.245 265.847 621.937 264.661 621.937 263.336C621.937 262.029 622.236 260.853 622.833 259.808C623.449 258.763 624.27 257.941 625.297 257.344C626.342 256.728 627.509 256.42 628.797 256.42C630.029 256.42 631.112 256.7 632.045 257.26C632.997 257.82 633.734 258.595 634.257 259.584C634.798 260.573 635.069 261.693 635.069 262.944C635.069 263.131 635.06 263.336 635.041 263.56C635.022 263.765 634.985 264.008 634.929 264.288H623.701V262.188H633.585L632.661 263C632.661 262.104 632.502 261.348 632.185 260.732C631.868 260.097 631.42 259.612 630.841 259.276C630.262 258.921 629.562 258.744 628.741 258.744C627.882 258.744 627.126 258.931 626.473 259.304C625.82 259.677 625.316 260.2 624.961 260.872C624.606 261.544 624.429 262.337 624.429 263.252C624.429 264.185 624.616 265.007 624.989 265.716C625.362 266.407 625.894 266.948 626.585 267.34C627.276 267.713 628.069 267.9 628.965 267.9C629.712 267.9 630.393 267.769 631.009 267.508C631.644 267.247 632.185 266.855 632.633 266.332L634.257 267.984C633.622 268.731 632.838 269.3 631.905 269.692C630.99 270.084 630.01 270.28 628.965 270.28ZM644.817 270.28C643.809 270.28 642.894 270.075 642.073 269.664C641.27 269.235 640.626 268.647 640.141 267.9C639.655 267.153 639.385 266.304 639.329 265.352V261.348C639.385 260.377 639.655 259.528 640.141 258.8C640.645 258.053 641.298 257.475 642.101 257.064C642.922 256.635 643.827 256.42 644.817 256.42C646.03 256.42 647.122 256.728 648.093 257.344C649.082 257.96 649.857 258.791 650.417 259.836C650.977 260.881 651.257 262.057 651.257 263.364C651.257 264.671 650.977 265.847 650.417 266.892C649.857 267.937 649.082 268.768 648.093 269.384C647.122 269.981 646.03 270.28 644.817 270.28ZM644.397 267.9C645.237 267.9 645.974 267.704 646.609 267.312C647.243 266.92 647.747 266.388 648.121 265.716C648.494 265.025 648.681 264.232 648.681 263.336C648.681 262.459 648.494 261.675 648.121 260.984C647.747 260.293 647.243 259.761 646.609 259.388C645.974 258.996 645.246 258.8 644.425 258.8C643.585 258.8 642.847 258.996 642.213 259.388C641.578 259.761 641.083 260.293 640.729 260.984C640.374 261.675 640.197 262.468 640.197 263.364C640.197 264.241 640.365 265.025 640.701 265.716C641.055 266.388 641.55 266.92 642.185 267.312C642.838 267.704 643.575 267.9 644.397 267.9ZM637.817 275.572V256.7H640.337V260.2L639.861 263.42L640.337 266.668V275.572H637.817ZM659.966 270V256.7H662.486V270H659.966ZM661.226 254.04C660.759 254.04 660.377 253.891 660.078 253.592C659.779 253.275 659.63 252.883 659.63 252.416C659.63 251.968 659.779 251.595 660.078 251.296C660.377 250.979 660.759 250.82 661.226 250.82C661.693 250.82 662.075 250.979 662.374 251.296C662.673 251.595 662.822 251.968 662.822 252.416C662.822 252.883 662.673 253.275 662.374 253.592C662.075 253.891 661.693 254.04 661.226 254.04ZM675.608 270V262.244C675.608 261.236 675.29 260.405 674.656 259.752C674.021 259.099 673.2 258.772 672.192 258.772C671.52 258.772 670.922 258.921 670.4 259.22C669.877 259.519 669.466 259.929 669.168 260.452C668.869 260.975 668.72 261.572 668.72 262.244L667.684 261.656C667.684 260.648 667.908 259.752 668.356 258.968C668.804 258.184 669.429 257.568 670.232 257.12C671.034 256.653 671.94 256.42 672.948 256.42C673.956 256.42 674.842 256.672 675.608 257.176C676.392 257.68 677.008 258.343 677.456 259.164C677.904 259.967 678.128 260.825 678.128 261.74V270H675.608ZM666.2 270V256.7H668.72V270H666.2ZM689.408 270V251.128H691.928V270H689.408ZM686.132 258.996V256.7H695.204V258.996H686.132ZM707.08 270V262.244C707.08 261.236 706.763 260.405 706.128 259.752C705.494 259.099 704.672 258.772 703.664 258.772C702.992 258.772 702.395 258.921 701.872 259.22C701.35 259.519 700.939 259.929 700.64 260.452C700.342 260.975 700.192 261.572 700.192 262.244L699.156 261.656C699.156 260.648 699.38 259.752 699.828 258.968C700.276 258.184 700.902 257.568 701.704 257.12C702.507 256.653 703.412 256.42 704.42 256.42C705.428 256.42 706.315 256.644 707.08 257.092C707.864 257.54 708.48 258.165 708.928 258.968C709.376 259.771 709.6 260.695 709.6 261.74V270H707.08ZM697.672 270V250.008H700.192V270H697.672ZM719.172 270.28C717.847 270.28 716.652 269.981 715.588 269.384C714.524 268.768 713.684 267.937 713.068 266.892C712.452 265.847 712.144 264.661 712.144 263.336C712.144 262.029 712.443 260.853 713.04 259.808C713.656 258.763 714.477 257.941 715.504 257.344C716.549 256.728 717.716 256.42 719.004 256.42C720.236 256.42 721.319 256.7 722.252 257.26C723.204 257.82 723.941 258.595 724.464 259.584C725.005 260.573 725.276 261.693 725.276 262.944C725.276 263.131 725.267 263.336 725.248 263.56C725.229 263.765 725.192 264.008 725.136 264.288H713.908V262.188H723.792L722.868 263C722.868 262.104 722.709 261.348 722.392 260.732C722.075 260.097 721.627 259.612 721.048 259.276C720.469 258.921 719.769 258.744 718.948 258.744C718.089 258.744 717.333 258.931 716.68 259.304C716.027 259.677 715.523 260.2 715.168 260.872C714.813 261.544 714.636 262.337 714.636 263.252C714.636 264.185 714.823 265.007 715.196 265.716C715.569 266.407 716.101 266.948 716.792 267.34C717.483 267.713 718.276 267.9 719.172 267.9C719.919 267.9 720.6 267.769 721.216 267.508C721.851 267.247 722.392 266.855 722.84 266.332L724.464 267.984C723.829 268.731 723.045 269.3 722.112 269.692C721.197 270.084 720.217 270.28 719.172 270.28ZM740.848 270.28C739.84 270.28 738.925 270.075 738.104 269.664C737.301 269.235 736.657 268.647 736.172 267.9C735.687 267.153 735.416 266.304 735.36 265.352V261.348C735.416 260.377 735.687 259.528 736.172 258.8C736.676 258.053 737.329 257.475 738.132 257.064C738.953 256.635 739.859 256.42 740.848 256.42C742.061 256.42 743.153 256.728 744.124 257.344C745.113 257.96 745.888 258.791 746.448 259.836C747.008 260.881 747.288 262.057 747.288 263.364C747.288 264.671 747.008 265.847 746.448 266.892C745.888 267.937 745.113 268.768 744.124 269.384C743.153 269.981 742.061 270.28 740.848 270.28ZM740.428 267.9C741.268 267.9 742.005 267.704 742.64 267.312C743.275 266.92 743.779 266.388 744.152 265.716C744.525 265.025 744.712 264.232 744.712 263.336C744.712 262.459 744.525 261.675 744.152 260.984C743.779 260.293 743.275 259.761 742.64 259.388C742.005 258.996 741.277 258.8 740.456 258.8C739.616 258.8 738.879 258.996 738.244 259.388C737.609 259.761 737.115 260.293 736.76 260.984C736.405 261.675 736.228 262.468 736.228 263.364C736.228 264.241 736.396 265.025 736.732 265.716C737.087 266.388 737.581 266.92 738.216 267.312C738.869 267.704 739.607 267.9 740.428 267.9ZM733.848 275.572V256.7H736.368V260.2L735.892 263.42L736.368 266.668V275.572H733.848ZM750.145 270V256.7H752.665V270H750.145ZM752.665 262.412L751.713 261.992C751.713 260.293 752.105 258.94 752.889 257.932C753.673 256.924 754.802 256.42 756.277 256.42C756.949 256.42 757.556 256.541 758.097 256.784C758.638 257.008 759.142 257.391 759.609 257.932L757.957 259.64C757.677 259.341 757.369 259.127 757.033 258.996C756.697 258.865 756.305 258.8 755.857 258.8C754.924 258.8 754.158 259.099 753.561 259.696C752.964 260.293 752.665 261.199 752.665 262.412ZM767.022 270.28C765.715 270.28 764.539 269.972 763.494 269.356C762.448 268.74 761.618 267.909 761.002 266.864C760.386 265.8 760.078 264.615 760.078 263.308C760.078 262.02 760.386 260.863 761.002 259.836C761.618 258.791 762.448 257.96 763.494 257.344C764.539 256.728 765.715 256.42 767.022 256.42C768.31 256.42 769.476 256.728 770.522 257.344C771.586 257.941 772.426 258.763 773.042 259.808C773.658 260.853 773.966 262.02 773.966 263.308C773.966 264.615 773.658 265.8 773.042 266.864C772.426 267.909 771.586 268.74 770.522 269.356C769.476 269.972 768.31 270.28 767.022 270.28ZM767.022 267.844C767.862 267.844 768.608 267.648 769.262 267.256C769.915 266.864 770.428 266.332 770.802 265.66C771.175 264.969 771.362 264.185 771.362 263.308C771.362 262.449 771.166 261.684 770.774 261.012C770.4 260.34 769.887 259.817 769.234 259.444C768.599 259.052 767.862 258.856 767.022 258.856C766.182 258.856 765.435 259.052 764.782 259.444C764.128 259.817 763.615 260.34 763.242 261.012C762.868 261.684 762.682 262.449 762.682 263.308C762.682 264.185 762.868 264.969 763.242 265.66C763.615 266.332 764.128 266.864 764.782 267.256C765.435 267.648 766.182 267.844 767.022 267.844ZM782.881 270.28C781.574 270.28 780.389 269.972 779.325 269.356C778.28 268.74 777.449 267.909 776.833 266.864C776.236 265.8 775.937 264.624 775.937 263.336C775.937 262.029 776.236 260.853 776.833 259.808C777.449 258.763 778.28 257.941 779.325 257.344C780.389 256.728 781.574 256.42 782.881 256.42C783.908 256.42 784.86 256.616 785.737 257.008C786.614 257.381 787.37 257.932 788.005 258.66L786.325 260.34C785.914 259.855 785.41 259.491 784.813 259.248C784.234 258.987 783.59 258.856 782.881 258.856C782.041 258.856 781.294 259.052 780.641 259.444C779.988 259.817 779.474 260.34 779.101 261.012C778.728 261.684 778.541 262.459 778.541 263.336C778.541 264.213 778.728 264.988 779.101 265.66C779.474 266.332 779.988 266.864 780.641 267.256C781.294 267.648 782.041 267.844 782.881 267.844C783.59 267.844 784.234 267.723 784.813 267.48C785.41 267.219 785.924 266.845 786.353 266.36L788.005 268.04C787.389 268.749 786.633 269.3 785.737 269.692C784.86 270.084 783.908 270.28 782.881 270.28ZM796.391 270.28C795.065 270.28 793.871 269.981 792.807 269.384C791.743 268.768 790.903 267.937 790.287 266.892C789.671 265.847 789.363 264.661 789.363 263.336C789.363 262.029 789.661 260.853 790.259 259.808C790.875 258.763 791.696 257.941 792.723 257.344C793.768 256.728 794.935 256.42 796.223 256.42C797.455 256.42 798.537 256.7 799.471 257.26C800.423 257.82 801.16 258.595 801.683 259.584C802.224 260.573 802.495 261.693 802.495 262.944C802.495 263.131 802.485 263.336 802.467 263.56C802.448 263.765 802.411 264.008 802.355 264.288H791.127V262.188H801.011L800.087 263C800.087 262.104 799.928 261.348 799.611 260.732C799.293 260.097 798.845 259.612 798.267 259.276C797.688 258.921 796.988 258.744 796.167 258.744C795.308 258.744 794.552 258.931 793.899 259.304C793.245 259.677 792.741 260.2 792.387 260.872C792.032 261.544 791.855 262.337 791.855 263.252C791.855 264.185 792.041 265.007 792.415 265.716C792.788 266.407 793.32 266.948 794.011 267.34C794.701 267.713 795.495 267.9 796.391 267.9C797.137 267.9 797.819 267.769 798.435 267.508C799.069 267.247 799.611 266.855 800.059 266.332L801.683 267.984C801.048 268.731 800.264 269.3 799.331 269.692C798.416 270.084 797.436 270.28 796.391 270.28ZM809.471 270.28C808.724 270.28 808.015 270.187 807.343 270C806.689 269.795 806.083 269.515 805.523 269.16C804.963 268.787 804.477 268.348 804.067 267.844L805.691 266.22C806.176 266.817 806.736 267.265 807.371 267.564C808.005 267.844 808.715 267.984 809.499 267.984C810.283 267.984 810.889 267.853 811.319 267.592C811.748 267.312 811.963 266.929 811.963 266.444C811.963 265.959 811.785 265.585 811.431 265.324C811.095 265.044 810.656 264.82 810.115 264.652C809.573 264.465 808.995 264.288 808.379 264.12C807.781 263.933 807.212 263.7 806.671 263.42C806.129 263.14 805.681 262.757 805.327 262.272C804.991 261.787 804.823 261.143 804.823 260.34C804.823 259.537 805.019 258.847 805.411 258.268C805.803 257.671 806.344 257.213 807.035 256.896C807.744 256.579 808.593 256.42 809.583 256.42C810.628 256.42 811.552 256.607 812.355 256.98C813.176 257.335 813.848 257.876 814.371 258.604L812.747 260.228C812.373 259.743 811.907 259.369 811.347 259.108C810.805 258.847 810.189 258.716 809.499 258.716C808.771 258.716 808.211 258.847 807.819 259.108C807.445 259.351 807.259 259.696 807.259 260.144C807.259 260.592 807.427 260.937 807.763 261.18C808.099 261.423 808.537 261.628 809.079 261.796C809.639 261.964 810.217 262.141 810.815 262.328C811.412 262.496 811.981 262.729 812.523 263.028C813.064 263.327 813.503 263.728 813.839 264.232C814.193 264.736 814.371 265.399 814.371 266.22C814.371 267.471 813.923 268.46 813.027 269.188C812.149 269.916 810.964 270.28 809.471 270.28ZM821.42 270.28C820.673 270.28 819.964 270.187 819.292 270C818.638 269.795 818.032 269.515 817.472 269.16C816.912 268.787 816.426 268.348 816.016 267.844L817.64 266.22C818.125 266.817 818.685 267.265 819.32 267.564C819.954 267.844 820.664 267.984 821.448 267.984C822.232 267.984 822.838 267.853 823.268 267.592C823.697 267.312 823.912 266.929 823.912 266.444C823.912 265.959 823.734 265.585 823.38 265.324C823.044 265.044 822.605 264.82 822.064 264.652C821.522 264.465 820.944 264.288 820.328 264.12C819.73 263.933 819.161 263.7 818.62 263.42C818.078 263.14 817.63 262.757 817.276 262.272C816.94 261.787 816.772 261.143 816.772 260.34C816.772 259.537 816.968 258.847 817.36 258.268C817.752 257.671 818.293 257.213 818.984 256.896C819.693 256.579 820.542 256.42 821.532 256.42C822.577 256.42 823.501 256.607 824.304 256.98C825.125 257.335 825.797 257.876 826.32 258.604L824.696 260.228C824.322 259.743 823.856 259.369 823.296 259.108C822.754 258.847 822.138 258.716 821.448 258.716C820.72 258.716 820.16 258.847 819.768 259.108C819.394 259.351 819.208 259.696 819.208 260.144C819.208 260.592 819.376 260.937 819.712 261.18C820.048 261.423 820.486 261.628 821.028 261.796C821.588 261.964 822.166 262.141 822.764 262.328C823.361 262.496 823.93 262.729 824.472 263.028C825.013 263.327 825.452 263.728 825.788 264.232C826.142 264.736 826.32 265.399 826.32 266.22C826.32 267.471 825.872 268.46 824.976 269.188C824.098 269.916 822.913 270.28 821.42 270.28ZM841.041 270.28C839.735 270.28 838.559 269.972 837.513 269.356C836.468 268.74 835.637 267.909 835.021 266.864C834.405 265.8 834.097 264.615 834.097 263.308C834.097 262.02 834.405 260.863 835.021 259.836C835.637 258.791 836.468 257.96 837.513 257.344C838.559 256.728 839.735 256.42 841.041 256.42C842.329 256.42 843.496 256.728 844.541 257.344C845.605 257.941 846.445 258.763 847.061 259.808C847.677 260.853 847.985 262.02 847.985 263.308C847.985 264.615 847.677 265.8 847.061 266.864C846.445 267.909 845.605 268.74 844.541 269.356C843.496 269.972 842.329 270.28 841.041 270.28ZM841.041 267.844C841.881 267.844 842.628 267.648 843.281 267.256C843.935 266.864 844.448 266.332 844.821 265.66C845.195 264.969 845.381 264.185 845.381 263.308C845.381 262.449 845.185 261.684 844.793 261.012C844.42 260.34 843.907 259.817 843.253 259.444C842.619 259.052 841.881 258.856 841.041 258.856C840.201 258.856 839.455 259.052 838.801 259.444C838.148 259.817 837.635 260.34 837.261 261.012C836.888 261.684 836.701 262.449 836.701 263.308C836.701 264.185 836.888 264.969 837.261 265.66C837.635 266.332 838.148 266.864 838.801 267.256C839.455 267.648 840.201 267.844 841.041 267.844ZM852.318 270V254.712C852.318 253.723 852.533 252.864 852.962 252.136C853.392 251.389 853.98 250.801 854.726 250.372C855.492 249.943 856.378 249.728 857.386 249.728C858.152 249.728 858.814 249.859 859.374 250.12C859.934 250.381 860.448 250.764 860.914 251.268L859.262 252.892C859.02 252.631 858.749 252.435 858.45 252.304C858.152 252.155 857.788 252.08 857.358 252.08C856.556 252.08 855.93 252.313 855.482 252.78C855.053 253.247 854.838 253.891 854.838 254.712V270H852.318ZM849.042 258.996V256.7H859.066V258.996H849.042ZM873.498 270.28C872.192 270.28 871.006 269.972 869.942 269.356C868.897 268.74 868.066 267.909 867.45 266.864C866.853 265.8 866.554 264.624 866.554 263.336C866.554 262.029 866.853 260.853 867.45 259.808C868.066 258.763 868.897 257.941 869.942 257.344C871.006 256.728 872.192 256.42 873.498 256.42C874.525 256.42 875.477 256.616 876.354 257.008C877.232 257.381 877.988 257.932 878.622 258.66L876.942 260.34C876.532 259.855 876.028 259.491 875.43 259.248C874.852 258.987 874.208 258.856 873.498 258.856C872.658 258.856 871.912 259.052 871.258 259.444C870.605 259.817 870.092 260.34 869.718 261.012C869.345 261.684 869.158 262.459 869.158 263.336C869.158 264.213 869.345 264.988 869.718 265.66C870.092 266.332 870.605 266.864 871.258 267.256C871.912 267.648 872.658 267.844 873.498 267.844C874.208 267.844 874.852 267.723 875.43 267.48C876.028 267.219 876.541 266.845 876.97 266.36L878.622 268.04C878.006 268.749 877.25 269.3 876.354 269.692C875.477 270.084 874.525 270.28 873.498 270.28ZM881.121 270V256.7H883.641V270H881.121ZM883.641 262.412L882.689 261.992C882.689 260.293 883.081 258.94 883.865 257.932C884.649 256.924 885.779 256.42 887.253 256.42C887.925 256.42 888.532 256.541 889.073 256.784C889.615 257.008 890.119 257.391 890.585 257.932L888.933 259.64C888.653 259.341 888.345 259.127 888.009 258.996C887.673 258.865 887.281 258.8 886.833 258.8C885.9 258.8 885.135 259.099 884.537 259.696C883.94 260.293 883.641 261.199 883.641 262.412ZM898.082 270.28C896.757 270.28 895.562 269.981 894.498 269.384C893.434 268.768 892.594 267.937 891.978 266.892C891.362 265.847 891.054 264.661 891.054 263.336C891.054 262.029 891.353 260.853 891.95 259.808C892.566 258.763 893.388 257.941 894.414 257.344C895.46 256.728 896.626 256.42 897.914 256.42C899.146 256.42 900.229 256.7 901.162 257.26C902.114 257.82 902.852 258.595 903.374 259.584C903.916 260.573 904.186 261.693 904.186 262.944C904.186 263.131 904.177 263.336 904.158 263.56C904.14 263.765 904.102 264.008 904.046 264.288H892.818V262.188H902.702L901.778 263C901.778 262.104 901.62 261.348 901.302 260.732C900.985 260.097 900.537 259.612 899.958 259.276C899.38 258.921 898.68 258.744 897.858 258.744C897 258.744 896.244 258.931 895.59 259.304C894.937 259.677 894.433 260.2 894.078 260.872C893.724 261.544 893.546 262.337 893.546 263.252C893.546 264.185 893.733 265.007 894.106 265.716C894.48 266.407 895.012 266.948 895.702 267.34C896.393 267.713 897.186 267.9 898.082 267.9C898.829 267.9 899.51 267.769 900.126 267.508C900.761 267.247 901.302 266.855 901.75 266.332L903.374 267.984C902.74 268.731 901.956 269.3 901.022 269.692C900.108 270.084 899.128 270.28 898.082 270.28ZM912.59 270.28C911.377 270.28 910.275 269.981 909.286 269.384C908.297 268.768 907.513 267.937 906.934 266.892C906.374 265.847 906.094 264.671 906.094 263.364C906.094 262.057 906.374 260.881 906.934 259.836C907.513 258.791 908.287 257.96 909.258 257.344C910.247 256.728 911.358 256.42 912.59 256.42C913.598 256.42 914.494 256.635 915.278 257.064C916.081 257.475 916.725 258.053 917.21 258.8C917.695 259.528 917.966 260.377 918.022 261.348V265.352C917.966 266.304 917.695 267.153 917.21 267.9C916.743 268.647 916.109 269.235 915.306 269.664C914.522 270.075 913.617 270.28 912.59 270.28ZM913.01 267.9C914.261 267.9 915.269 267.48 916.034 266.64C916.799 265.781 917.182 264.689 917.182 263.364C917.182 262.449 917.005 261.656 916.65 260.984C916.314 260.293 915.829 259.761 915.194 259.388C914.559 258.996 913.822 258.8 912.982 258.8C912.142 258.8 911.395 258.996 910.742 259.388C910.107 259.78 909.603 260.321 909.23 261.012C908.875 261.684 908.698 262.459 908.698 263.336C908.698 264.232 908.875 265.025 909.23 265.716C909.603 266.388 910.117 266.92 910.77 267.312C911.423 267.704 912.17 267.9 913.01 267.9ZM917.014 270V266.416L917.49 263.168L917.014 259.948V256.7H919.562V270H917.014ZM925.22 270V251.128H927.74V270H925.22ZM921.944 258.996V256.7H931.016V258.996H921.944ZM933.513 270V256.7H936.033V270H933.513ZM934.773 254.04C934.306 254.04 933.923 253.891 933.625 253.592C933.326 253.275 933.177 252.883 933.177 252.416C933.177 251.968 933.326 251.595 933.625 251.296C933.923 250.979 934.306 250.82 934.773 250.82C935.239 250.82 935.622 250.979 935.921 251.296C936.219 251.595 936.369 251.968 936.369 252.416C936.369 252.883 936.219 253.275 935.921 253.592C935.622 253.891 935.239 254.04 934.773 254.04ZM949.154 270V262.244C949.154 261.236 948.837 260.405 948.202 259.752C947.568 259.099 946.746 258.772 945.738 258.772C945.066 258.772 944.469 258.921 943.946 259.22C943.424 259.519 943.013 259.929 942.714 260.452C942.416 260.975 942.266 261.572 942.266 262.244L941.23 261.656C941.23 260.648 941.454 259.752 941.902 258.968C942.35 258.184 942.976 257.568 943.778 257.12C944.581 256.653 945.486 256.42 946.494 256.42C947.502 256.42 948.389 256.672 949.154 257.176C949.938 257.68 950.554 258.343 951.002 259.164C951.45 259.967 951.674 260.825 951.674 261.74V270H949.154ZM939.746 270V256.7H942.266V270H939.746ZM960.602 275.852C959.24 275.852 958.026 275.6 956.962 275.096C955.917 274.592 955.077 273.883 954.442 272.968L956.066 271.316C956.608 272.007 957.252 272.529 957.998 272.884C958.745 273.257 959.632 273.444 960.658 273.444C962.021 273.444 963.094 273.08 963.878 272.352C964.681 271.643 965.082 270.681 965.082 269.468V266.164L965.53 263.168L965.082 260.2V256.7H967.602V269.468C967.602 270.737 967.304 271.848 966.706 272.8C966.128 273.752 965.306 274.499 964.242 275.04C963.197 275.581 961.984 275.852 960.602 275.852ZM960.602 269.776C959.389 269.776 958.297 269.487 957.326 268.908C956.374 268.329 955.618 267.536 955.058 266.528C954.498 265.501 954.218 264.353 954.218 263.084C954.218 261.815 954.498 260.685 955.058 259.696C955.618 258.688 956.374 257.895 957.326 257.316C958.297 256.719 959.389 256.42 960.602 256.42C961.648 256.42 962.572 256.625 963.374 257.036C964.177 257.447 964.812 258.025 965.278 258.772C965.764 259.5 966.025 260.359 966.062 261.348V264.876C966.006 265.847 965.736 266.705 965.25 267.452C964.784 268.18 964.149 268.749 963.346 269.16C962.544 269.571 961.629 269.776 960.602 269.776ZM961.106 267.396C961.928 267.396 962.646 267.219 963.262 266.864C963.897 266.509 964.382 266.015 964.718 265.38C965.054 264.727 965.222 263.971 965.222 263.112C965.222 262.253 965.045 261.507 964.69 260.872C964.354 260.219 963.878 259.715 963.262 259.36C962.646 258.987 961.918 258.8 961.078 258.8C960.238 258.8 959.501 258.987 958.866 259.36C958.232 259.715 957.728 260.219 957.354 260.872C957 261.507 956.822 262.244 956.822 263.084C956.822 263.924 957 264.671 957.354 265.324C957.728 265.977 958.232 266.491 958.866 266.864C959.52 267.219 960.266 267.396 961.106 267.396ZM982.781 270.28C981.568 270.28 980.467 269.981 979.477 269.384C978.488 268.768 977.704 267.937 977.125 266.892C976.565 265.847 976.285 264.671 976.285 263.364C976.285 262.057 976.565 260.881 977.125 259.836C977.704 258.791 978.479 257.96 979.449 257.344C980.439 256.728 981.549 256.42 982.781 256.42C983.789 256.42 984.685 256.635 985.469 257.064C986.272 257.475 986.916 258.053 987.401 258.8C987.887 259.528 988.157 260.377 988.213 261.348V265.352C988.157 266.304 987.887 267.153 987.401 267.9C986.935 268.647 986.3 269.235 985.497 269.664C984.713 270.075 983.808 270.28 982.781 270.28ZM983.201 267.9C984.452 267.9 985.46 267.48 986.225 266.64C986.991 265.781 987.373 264.689 987.373 263.364C987.373 262.449 987.196 261.656 986.841 260.984C986.505 260.293 986.02 259.761 985.385 259.388C984.751 258.996 984.013 258.8 983.173 258.8C982.333 258.8 981.587 258.996 980.933 259.388C980.299 259.78 979.795 260.321 979.421 261.012C979.067 261.684 978.889 262.459 978.889 263.336C978.889 264.232 979.067 265.025 979.421 265.716C979.795 266.388 980.308 266.92 980.961 267.312C981.615 267.704 982.361 267.9 983.201 267.9ZM987.205 270V266.416L987.681 263.168L987.205 259.948V256.7H989.753V270H987.205ZM1004.87 270.28C1003.64 270.28 1002.54 269.981 1001.57 269.384C1000.6 268.768 999.825 267.937 999.246 266.892C998.686 265.847 998.406 264.671 998.406 263.364C998.406 262.057 998.686 260.881 999.246 259.836C999.825 258.791 1000.6 257.96 1001.57 257.344C1002.54 256.728 1003.64 256.42 1004.87 256.42C1005.86 256.42 1006.76 256.635 1007.56 257.064C1008.37 257.475 1009.01 258.053 1009.49 258.8C1010 259.528 1010.28 260.377 1010.33 261.348V265.352C1010.28 266.304 1010.01 267.153 1009.52 267.9C1009.04 268.647 1008.39 269.235 1007.59 269.664C1006.79 270.075 1005.88 270.28 1004.87 270.28ZM1005.29 267.9C1006.13 267.9 1006.86 267.704 1007.48 267.312C1008.11 266.92 1008.61 266.388 1008.96 265.716C1009.32 265.025 1009.49 264.241 1009.49 263.364C1009.49 262.449 1009.31 261.656 1008.93 260.984C1008.58 260.312 1008.09 259.78 1007.45 259.388C1006.83 258.996 1006.11 258.8 1005.27 258.8C1004.43 258.8 1003.69 258.996 1003.05 259.388C1002.42 259.78 1001.92 260.321 1001.54 261.012C1001.19 261.684 1001.01 262.459 1001.01 263.336C1001.01 264.232 1001.19 265.025 1001.54 265.716C1001.92 266.388 1002.42 266.92 1003.05 267.312C1003.71 267.704 1004.45 267.9 1005.29 267.9ZM1011.87 270H1009.33V266.416L1009.8 263.168L1009.33 259.948V250.008H1011.87V270ZM1015.57 270V256.7H1018.09V270H1015.57ZM1016.83 254.04C1016.36 254.04 1015.98 253.891 1015.68 253.592C1015.38 253.275 1015.24 252.883 1015.24 252.416C1015.24 251.968 1015.38 251.595 1015.68 251.296C1015.98 250.979 1016.36 250.82 1016.83 250.82C1017.3 250.82 1017.68 250.979 1017.98 251.296C1018.28 251.595 1018.43 251.968 1018.43 252.416C1018.43 252.883 1018.28 253.275 1017.98 253.592C1017.68 253.891 1017.3 254.04 1016.83 254.04ZM1027.32 275.852C1025.96 275.852 1024.75 275.6 1023.68 275.096C1022.64 274.592 1021.8 273.883 1021.16 272.968L1022.79 271.316C1023.33 272.007 1023.97 272.529 1024.72 272.884C1025.46 273.257 1026.35 273.444 1027.38 273.444C1028.74 273.444 1029.81 273.08 1030.6 272.352C1031.4 271.643 1031.8 270.681 1031.8 269.468V266.164L1032.25 263.168L1031.8 260.2V256.7H1034.32V269.468C1034.32 270.737 1034.02 271.848 1033.43 272.8C1032.85 273.752 1032.03 274.499 1030.96 275.04C1029.92 275.581 1028.7 275.852 1027.32 275.852ZM1027.32 269.776C1026.11 269.776 1025.02 269.487 1024.05 268.908C1023.09 268.329 1022.34 267.536 1021.78 266.528C1021.22 265.501 1020.94 264.353 1020.94 263.084C1020.94 261.815 1021.22 260.685 1021.78 259.696C1022.34 258.688 1023.09 257.895 1024.05 257.316C1025.02 256.719 1026.11 256.42 1027.32 256.42C1028.37 256.42 1029.29 256.625 1030.09 257.036C1030.9 257.447 1031.53 258.025 1032 258.772C1032.48 259.5 1032.74 260.359 1032.78 261.348V264.876C1032.73 265.847 1032.45 266.705 1031.97 267.452C1031.5 268.18 1030.87 268.749 1030.07 269.16C1029.26 269.571 1028.35 269.776 1027.32 269.776ZM1027.83 267.396C1028.65 267.396 1029.37 267.219 1029.98 266.864C1030.62 266.509 1031.1 266.015 1031.44 265.38C1031.77 264.727 1031.94 263.971 1031.94 263.112C1031.94 262.253 1031.76 261.507 1031.41 260.872C1031.07 260.219 1030.6 259.715 1029.98 259.36C1029.37 258.987 1028.64 258.8 1027.8 258.8C1026.96 258.8 1026.22 258.987 1025.59 259.36C1024.95 259.715 1024.45 260.219 1024.07 260.872C1023.72 261.507 1023.54 262.244 1023.54 263.084C1023.54 263.924 1023.72 264.671 1024.07 265.324C1024.45 265.977 1024.95 266.491 1025.59 266.864C1026.24 267.219 1026.99 267.396 1027.83 267.396ZM1038.05 270V256.7H1040.57V270H1038.05ZM1039.31 254.04C1038.84 254.04 1038.46 253.891 1038.16 253.592C1037.86 253.275 1037.71 252.883 1037.71 252.416C1037.71 251.968 1037.86 251.595 1038.16 251.296C1038.46 250.979 1038.84 250.82 1039.31 250.82C1039.77 250.82 1040.16 250.979 1040.46 251.296C1040.75 251.595 1040.9 251.968 1040.9 252.416C1040.9 252.883 1040.75 253.275 1040.46 253.592C1040.16 253.891 1039.77 254.04 1039.31 254.04ZM1046.33 270V251.128H1048.85V270H1046.33ZM1043.05 258.996V256.7H1052.12V258.996H1043.05ZM1059.84 270.28C1058.62 270.28 1057.52 269.981 1056.53 269.384C1055.54 268.768 1054.76 267.937 1054.18 266.892C1053.62 265.847 1053.34 264.671 1053.34 263.364C1053.34 262.057 1053.62 260.881 1054.18 259.836C1054.76 258.791 1055.53 257.96 1056.5 257.344C1057.49 256.728 1058.6 256.42 1059.84 256.42C1060.84 256.42 1061.74 256.635 1062.52 257.064C1063.33 257.475 1063.97 258.053 1064.46 258.8C1064.94 259.528 1065.21 260.377 1065.27 261.348V265.352C1065.21 266.304 1064.94 267.153 1064.46 267.9C1063.99 268.647 1063.35 269.235 1062.55 269.664C1061.77 270.075 1060.86 270.28 1059.84 270.28ZM1060.26 267.9C1061.51 267.9 1062.51 267.48 1063.28 266.64C1064.05 265.781 1064.43 264.689 1064.43 263.364C1064.43 262.449 1064.25 261.656 1063.9 260.984C1063.56 260.293 1063.07 259.761 1062.44 259.388C1061.81 258.996 1061.07 258.8 1060.23 258.8C1059.39 258.8 1058.64 258.996 1057.99 259.388C1057.35 259.78 1056.85 260.321 1056.48 261.012C1056.12 261.684 1055.94 262.459 1055.94 263.336C1055.94 264.232 1056.12 265.025 1056.48 265.716C1056.85 266.388 1057.36 266.92 1058.02 267.312C1058.67 267.704 1059.42 267.9 1060.26 267.9ZM1064.26 270V266.416L1064.74 263.168L1064.26 259.948V256.7H1066.81V270H1064.26ZM1070.48 270V250.008H1073V270H1070.48ZM1086.74 270.28C1085.99 270.28 1085.28 270.187 1084.61 270C1083.95 269.795 1083.35 269.515 1082.79 269.16C1082.23 268.787 1081.74 268.348 1081.33 267.844L1082.96 266.22C1083.44 266.817 1084 267.265 1084.64 267.564C1085.27 267.844 1085.98 267.984 1086.76 267.984C1087.55 267.984 1088.15 267.853 1088.58 267.592C1089.01 267.312 1089.23 266.929 1089.23 266.444C1089.23 265.959 1089.05 265.585 1088.7 265.324C1088.36 265.044 1087.92 264.82 1087.38 264.652C1086.84 264.465 1086.26 264.288 1085.64 264.12C1085.05 263.933 1084.48 263.7 1083.94 263.42C1083.39 263.14 1082.95 262.757 1082.59 262.272C1082.26 261.787 1082.09 261.143 1082.09 260.34C1082.09 259.537 1082.28 258.847 1082.68 258.268C1083.07 257.671 1083.61 257.213 1084.3 256.896C1085.01 256.579 1085.86 256.42 1086.85 256.42C1087.89 256.42 1088.82 256.607 1089.62 256.98C1090.44 257.335 1091.11 257.876 1091.64 258.604L1090.01 260.228C1089.64 259.743 1089.17 259.369 1088.61 259.108C1088.07 258.847 1087.45 258.716 1086.76 258.716C1086.04 258.716 1085.48 258.847 1085.08 259.108C1084.71 259.351 1084.52 259.696 1084.52 260.144C1084.52 260.592 1084.69 260.937 1085.03 261.18C1085.36 261.423 1085.8 261.628 1086.34 261.796C1086.9 261.964 1087.48 262.141 1088.08 262.328C1088.68 262.496 1089.25 262.729 1089.79 263.028C1090.33 263.327 1090.77 263.728 1091.1 264.232C1091.46 264.736 1091.64 265.399 1091.64 266.22C1091.64 267.471 1091.19 268.46 1090.29 269.188C1089.41 269.916 1088.23 270.28 1086.74 270.28ZM1100.53 270.28C1099.23 270.28 1098.05 269.972 1097.01 269.356C1095.96 268.74 1095.13 267.909 1094.51 266.864C1093.9 265.8 1093.59 264.615 1093.59 263.308C1093.59 262.02 1093.9 260.863 1094.51 259.836C1095.13 258.791 1095.96 257.96 1097.01 257.344C1098.05 256.728 1099.23 256.42 1100.53 256.42C1101.82 256.42 1102.99 256.728 1104.03 257.344C1105.1 257.941 1105.94 258.763 1106.55 259.808C1107.17 260.853 1107.48 262.02 1107.48 263.308C1107.48 264.615 1107.17 265.8 1106.55 266.864C1105.94 267.909 1105.1 268.74 1104.03 269.356C1102.99 269.972 1101.82 270.28 1100.53 270.28ZM1100.53 267.844C1101.37 267.844 1102.12 267.648 1102.77 267.256C1103.43 266.864 1103.94 266.332 1104.31 265.66C1104.69 264.969 1104.87 264.185 1104.87 263.308C1104.87 262.449 1104.68 261.684 1104.29 261.012C1103.91 260.34 1103.4 259.817 1102.75 259.444C1102.11 259.052 1101.37 258.856 1100.53 258.856C1099.69 258.856 1098.95 259.052 1098.29 259.444C1097.64 259.817 1097.13 260.34 1096.75 261.012C1096.38 261.684 1096.19 262.449 1096.19 263.308C1096.19 264.185 1096.38 264.969 1096.75 265.66C1097.13 266.332 1097.64 266.864 1098.29 267.256C1098.95 267.648 1099.69 267.844 1100.53 267.844ZM1110.32 270V250.008H1112.84V270H1110.32ZM1121.87 270.28C1120.79 270.28 1119.81 270.037 1118.93 269.552C1118.07 269.048 1117.4 268.357 1116.92 267.48C1116.43 266.603 1116.19 265.585 1116.19 264.428V256.7H1118.71V264.316C1118.71 265.044 1118.83 265.679 1119.07 266.22C1119.33 266.743 1119.71 267.144 1120.19 267.424C1120.68 267.704 1121.25 267.844 1121.9 267.844C1122.89 267.844 1123.66 267.536 1124.22 266.92C1124.78 266.285 1125.06 265.417 1125.06 264.316V256.7H1127.58V264.428C1127.58 265.585 1127.34 266.603 1126.86 267.48C1126.37 268.357 1125.7 269.048 1124.84 269.552C1124 270.037 1123.01 270.28 1121.87 270.28ZM1133.01 270V251.128H1135.53V270H1133.01ZM1129.73 258.996V256.7H1138.8V258.996H1129.73ZM1141.3 270V256.7H1143.82V270H1141.3ZM1142.56 254.04C1142.09 254.04 1141.71 253.891 1141.41 253.592C1141.11 253.275 1140.96 252.883 1140.96 252.416C1140.96 251.968 1141.11 251.595 1141.41 251.296C1141.71 250.979 1142.09 250.82 1142.56 250.82C1143.02 250.82 1143.41 250.979 1143.71 251.296C1144 251.595 1144.15 251.968 1144.15 252.416C1144.15 252.883 1144 253.275 1143.71 253.592C1143.41 253.891 1143.02 254.04 1142.56 254.04ZM1153.61 270.28C1152.3 270.28 1151.12 269.972 1150.08 269.356C1149.03 268.74 1148.2 267.909 1147.59 266.864C1146.97 265.8 1146.66 264.615 1146.66 263.308C1146.66 262.02 1146.97 260.863 1147.59 259.836C1148.2 258.791 1149.03 257.96 1150.08 257.344C1151.12 256.728 1152.3 256.42 1153.61 256.42C1154.9 256.42 1156.06 256.728 1157.11 257.344C1158.17 257.941 1159.01 258.763 1159.63 259.808C1160.24 260.853 1160.55 262.02 1160.55 263.308C1160.55 264.615 1160.24 265.8 1159.63 266.864C1159.01 267.909 1158.17 268.74 1157.11 269.356C1156.06 269.972 1154.9 270.28 1153.61 270.28ZM1153.61 267.844C1154.45 267.844 1155.19 267.648 1155.85 267.256C1156.5 266.864 1157.01 266.332 1157.39 265.66C1157.76 264.969 1157.95 264.185 1157.95 263.308C1157.95 262.449 1157.75 261.684 1157.36 261.012C1156.99 260.34 1156.47 259.817 1155.82 259.444C1155.18 259.052 1154.45 258.856 1153.61 258.856C1152.77 258.856 1152.02 259.052 1151.37 259.444C1150.71 259.817 1150.2 260.34 1149.83 261.012C1149.45 261.684 1149.27 262.449 1149.27 263.308C1149.27 264.185 1149.45 264.969 1149.83 265.66C1150.2 266.332 1150.71 266.864 1151.37 267.256C1152.02 267.648 1152.77 267.844 1153.61 267.844ZM1172.8 270V262.244C1172.8 261.236 1172.48 260.405 1171.85 259.752C1171.21 259.099 1170.39 258.772 1169.38 258.772C1168.71 258.772 1168.11 258.921 1167.59 259.22C1167.07 259.519 1166.66 259.929 1166.36 260.452C1166.06 260.975 1165.91 261.572 1165.91 262.244L1164.87 261.656C1164.87 260.648 1165.1 259.752 1165.55 258.968C1165.99 258.184 1166.62 257.568 1167.42 257.12C1168.23 256.653 1169.13 256.42 1170.14 256.42C1171.15 256.42 1172.03 256.672 1172.8 257.176C1173.58 257.68 1174.2 258.343 1174.65 259.164C1175.09 259.967 1175.32 260.825 1175.32 261.74V270H1172.8ZM1163.39 270V256.7H1165.91V270H1163.39ZM1178.87 273.08L1180.61 269.748L1181.5 269.524C1181.41 269.729 1181.29 269.897 1181.14 270.028C1181.01 270.159 1180.84 270.224 1180.63 270.224C1180.24 270.224 1179.88 270.065 1179.54 269.748C1179.23 269.412 1179.07 269.001 1179.07 268.516C1179.07 267.975 1179.24 267.527 1179.6 267.172C1179.95 266.799 1180.4 266.612 1180.94 266.612C1181.43 266.612 1181.86 266.799 1182.23 267.172C1182.6 267.527 1182.79 267.975 1182.79 268.516C1182.79 268.721 1182.74 268.973 1182.65 269.272C1182.58 269.552 1182.42 269.916 1182.17 270.364L1180.33 273.864L1178.87 273.08ZM1192.29 270V256.7H1194.81V270H1192.29ZM1193.55 254.04C1193.09 254.04 1192.7 253.891 1192.41 253.592C1192.11 253.275 1191.96 252.883 1191.96 252.416C1191.96 251.968 1192.11 251.595 1192.41 251.296C1192.7 250.979 1193.09 250.82 1193.55 250.82C1194.02 250.82 1194.4 250.979 1194.7 251.296C1195 251.595 1195.15 251.968 1195.15 252.416C1195.15 252.883 1195 253.275 1194.7 253.592C1194.4 253.891 1194.02 254.04 1193.55 254.04ZM1202.76 270.28C1202.01 270.28 1201.3 270.187 1200.63 270C1199.97 269.795 1199.37 269.515 1198.81 269.16C1198.25 268.787 1197.76 268.348 1197.35 267.844L1198.98 266.22C1199.46 266.817 1200.02 267.265 1200.66 267.564C1201.29 267.844 1202 267.984 1202.78 267.984C1203.57 267.984 1204.17 267.853 1204.6 267.592C1205.03 267.312 1205.25 266.929 1205.25 266.444C1205.25 265.959 1205.07 265.585 1204.72 265.324C1204.38 265.044 1203.94 264.82 1203.4 264.652C1202.86 264.465 1202.28 264.288 1201.66 264.12C1201.07 263.933 1200.5 263.7 1199.96 263.42C1199.41 263.14 1198.97 262.757 1198.61 262.272C1198.28 261.787 1198.11 261.143 1198.11 260.34C1198.11 259.537 1198.3 258.847 1198.7 258.268C1199.09 257.671 1199.63 257.213 1200.32 256.896C1201.03 256.579 1201.88 256.42 1202.87 256.42C1203.91 256.42 1204.84 256.607 1205.64 256.98C1206.46 257.335 1207.13 257.876 1207.66 258.604L1206.03 260.228C1205.66 259.743 1205.19 259.369 1204.63 259.108C1204.09 258.847 1203.47 258.716 1202.78 258.716C1202.06 258.716 1201.5 258.847 1201.1 259.108C1200.73 259.351 1200.54 259.696 1200.54 260.144C1200.54 260.592 1200.71 260.937 1201.05 261.18C1201.38 261.423 1201.82 261.628 1202.36 261.796C1202.92 261.964 1203.5 262.141 1204.1 262.328C1204.7 262.496 1205.27 262.729 1205.81 263.028C1206.35 263.327 1206.79 263.728 1207.12 264.232C1207.48 264.736 1207.66 265.399 1207.66 266.22C1207.66 267.471 1207.21 268.46 1206.31 269.188C1205.43 269.916 1204.25 270.28 1202.76 270.28ZM612.034 305.28C610.951 305.28 609.971 305.037 609.094 304.552C608.235 304.048 607.563 303.357 607.078 302.48C606.593 301.603 606.35 300.585 606.35 299.428V291.7H608.87V299.316C608.87 300.044 608.991 300.679 609.234 301.22C609.495 301.743 609.869 302.144 610.354 302.424C610.839 302.704 611.409 302.844 612.062 302.844C613.051 302.844 613.826 302.536 614.386 301.92C614.946 301.285 615.226 300.417 615.226 299.316V291.7H617.746V299.428C617.746 300.585 617.503 301.603 617.018 302.48C616.533 303.357 615.861 304.048 615.002 304.552C614.162 305.037 613.173 305.28 612.034 305.28ZM630.531 305V297.244C630.531 296.236 630.214 295.405 629.579 294.752C628.945 294.099 628.123 293.772 627.115 293.772C626.443 293.772 625.846 293.921 625.323 294.22C624.801 294.519 624.39 294.929 624.091 295.452C623.793 295.975 623.643 296.572 623.643 297.244L622.607 296.656C622.607 295.648 622.831 294.752 623.279 293.968C623.727 293.184 624.353 292.568 625.155 292.12C625.958 291.653 626.863 291.42 627.871 291.42C628.879 291.42 629.766 291.672 630.531 292.176C631.315 292.68 631.931 293.343 632.379 294.164C632.827 294.967 633.051 295.825 633.051 296.74V305H630.531ZM621.123 305V291.7H623.643V305H621.123ZM642.091 305.28C640.859 305.28 639.758 304.981 638.787 304.384C637.817 303.768 637.042 302.937 636.463 301.892C635.903 300.847 635.623 299.671 635.623 298.364C635.623 297.057 635.903 295.881 636.463 294.836C637.042 293.791 637.817 292.96 638.787 292.344C639.758 291.728 640.859 291.42 642.091 291.42C643.081 291.42 643.977 291.635 644.779 292.064C645.582 292.475 646.226 293.053 646.711 293.8C647.215 294.528 647.495 295.377 647.551 296.348V300.352C647.495 301.304 647.225 302.153 646.739 302.9C646.254 303.647 645.61 304.235 644.807 304.664C644.005 305.075 643.099 305.28 642.091 305.28ZM642.511 302.9C643.351 302.9 644.079 302.704 644.695 302.312C645.33 301.92 645.825 301.388 646.179 300.716C646.534 300.025 646.711 299.241 646.711 298.364C646.711 297.449 646.525 296.656 646.151 295.984C645.797 295.312 645.302 294.78 644.667 294.388C644.051 293.996 643.323 293.8 642.483 293.8C641.643 293.8 640.906 293.996 640.271 294.388C639.637 294.78 639.133 295.321 638.759 296.012C638.405 296.684 638.227 297.459 638.227 298.336C638.227 299.232 638.405 300.025 638.759 300.716C639.133 301.388 639.637 301.92 640.271 302.312C640.925 302.704 641.671 302.9 642.511 302.9ZM649.091 305H646.543V301.416L647.019 298.168L646.543 294.948V285.008H649.091V305ZM658.92 305.28C657.595 305.28 656.4 304.981 655.336 304.384C654.272 303.768 653.432 302.937 652.816 301.892C652.2 300.847 651.892 299.661 651.892 298.336C651.892 297.029 652.191 295.853 652.788 294.808C653.404 293.763 654.225 292.941 655.252 292.344C656.297 291.728 657.464 291.42 658.752 291.42C659.984 291.42 661.067 291.7 662 292.26C662.952 292.82 663.689 293.595 664.212 294.584C664.753 295.573 665.024 296.693 665.024 297.944C665.024 298.131 665.015 298.336 664.996 298.56C664.977 298.765 664.94 299.008 664.884 299.288H653.656V297.188H663.54L662.616 298C662.616 297.104 662.457 296.348 662.14 295.732C661.823 295.097 661.375 294.612 660.796 294.276C660.217 293.921 659.517 293.744 658.696 293.744C657.837 293.744 657.081 293.931 656.428 294.304C655.775 294.677 655.271 295.2 654.916 295.872C654.561 296.544 654.384 297.337 654.384 298.252C654.384 299.185 654.571 300.007 654.944 300.716C655.317 301.407 655.849 301.948 656.54 302.34C657.231 302.713 658.024 302.9 658.92 302.9C659.667 302.9 660.348 302.769 660.964 302.508C661.599 302.247 662.14 301.855 662.588 301.332L664.212 302.984C663.577 303.731 662.793 304.3 661.86 304.692C660.945 305.084 659.965 305.28 658.92 305.28ZM667.772 305V291.7H670.292V305H667.772ZM670.292 297.412L669.34 296.992C669.34 295.293 669.732 293.94 670.516 292.932C671.3 291.924 672.429 291.42 673.904 291.42C674.576 291.42 675.182 291.541 675.724 291.784C676.265 292.008 676.769 292.391 677.236 292.932L675.584 294.64C675.304 294.341 674.996 294.127 674.66 293.996C674.324 293.865 673.932 293.8 673.484 293.8C672.55 293.8 671.785 294.099 671.188 294.696C670.59 295.293 670.292 296.199 670.292 297.412ZM682.937 305.28C682.191 305.28 681.481 305.187 680.809 305C680.156 304.795 679.549 304.515 678.989 304.16C678.429 303.787 677.944 303.348 677.533 302.844L679.157 301.22C679.643 301.817 680.203 302.265 680.837 302.564C681.472 302.844 682.181 302.984 682.965 302.984C683.749 302.984 684.356 302.853 684.785 302.592C685.215 302.312 685.429 301.929 685.429 301.444C685.429 300.959 685.252 300.585 684.897 300.324C684.561 300.044 684.123 299.82 683.581 299.652C683.04 299.465 682.461 299.288 681.845 299.12C681.248 298.933 680.679 298.7 680.137 298.42C679.596 298.14 679.148 297.757 678.793 297.272C678.457 296.787 678.289 296.143 678.289 295.34C678.289 294.537 678.485 293.847 678.877 293.268C679.269 292.671 679.811 292.213 680.501 291.896C681.211 291.579 682.06 291.42 683.049 291.42C684.095 291.42 685.019 291.607 685.821 291.98C686.643 292.335 687.315 292.876 687.837 293.604L686.213 295.228C685.84 294.743 685.373 294.369 684.813 294.108C684.272 293.847 683.656 293.716 682.965 293.716C682.237 293.716 681.677 293.847 681.285 294.108C680.912 294.351 680.725 294.696 680.725 295.144C680.725 295.592 680.893 295.937 681.229 296.18C681.565 296.423 682.004 296.628 682.545 296.796C683.105 296.964 683.684 297.141 684.281 297.328C684.879 297.496 685.448 297.729 685.989 298.028C686.531 298.327 686.969 298.728 687.305 299.232C687.66 299.736 687.837 300.399 687.837 301.22C687.837 302.471 687.389 303.46 686.493 304.188C685.616 304.916 684.431 305.28 682.937 305.28ZM692.703 305V286.128H695.223V305H692.703ZM689.427 293.996V291.7H698.499V293.996H689.427ZM706.213 305.28C705 305.28 703.898 304.981 702.909 304.384C701.92 303.768 701.136 302.937 700.557 301.892C699.997 300.847 699.717 299.671 699.717 298.364C699.717 297.057 699.997 295.881 700.557 294.836C701.136 293.791 701.91 292.96 702.881 292.344C703.87 291.728 704.981 291.42 706.213 291.42C707.221 291.42 708.117 291.635 708.901 292.064C709.704 292.475 710.348 293.053 710.833 293.8C711.318 294.528 711.589 295.377 711.645 296.348V300.352C711.589 301.304 711.318 302.153 710.833 302.9C710.366 303.647 709.732 304.235 708.929 304.664C708.145 305.075 707.24 305.28 706.213 305.28ZM706.633 302.9C707.884 302.9 708.892 302.48 709.657 301.64C710.422 300.781 710.805 299.689 710.805 298.364C710.805 297.449 710.628 296.656 710.273 295.984C709.937 295.293 709.452 294.761 708.817 294.388C708.182 293.996 707.445 293.8 706.605 293.8C705.765 293.8 705.018 293.996 704.365 294.388C703.73 294.78 703.226 295.321 702.853 296.012C702.498 296.684 702.321 297.459 702.321 298.336C702.321 299.232 702.498 300.025 702.853 300.716C703.226 301.388 703.74 301.92 704.393 302.312C705.046 302.704 705.793 302.9 706.633 302.9ZM710.637 305V301.416L711.113 298.168L710.637 294.948V291.7H713.185V305H710.637ZM726.262 305V297.244C726.262 296.236 725.945 295.405 725.31 294.752C724.675 294.099 723.854 293.772 722.846 293.772C722.174 293.772 721.577 293.921 721.054 294.22C720.531 294.519 720.121 294.929 719.822 295.452C719.523 295.975 719.374 296.572 719.374 297.244L718.338 296.656C718.338 295.648 718.562 294.752 719.01 293.968C719.458 293.184 720.083 292.568 720.886 292.12C721.689 291.653 722.594 291.42 723.602 291.42C724.61 291.42 725.497 291.672 726.262 292.176C727.046 292.68 727.662 293.343 728.11 294.164C728.558 294.967 728.782 295.825 728.782 296.74V305H726.262ZM716.854 305V291.7H719.374V305H716.854ZM737.822 305.28C736.59 305.28 735.488 304.981 734.518 304.384C733.547 303.768 732.772 302.937 732.194 301.892C731.634 300.847 731.354 299.671 731.354 298.364C731.354 297.057 731.634 295.881 732.194 294.836C732.772 293.791 733.547 292.96 734.518 292.344C735.488 291.728 736.59 291.42 737.822 291.42C738.811 291.42 739.707 291.635 740.51 292.064C741.312 292.475 741.956 293.053 742.442 293.8C742.946 294.528 743.226 295.377 743.282 296.348V300.352C743.226 301.304 742.955 302.153 742.47 302.9C741.984 303.647 741.34 304.235 740.538 304.664C739.735 305.075 738.83 305.28 737.822 305.28ZM738.242 302.9C739.082 302.9 739.81 302.704 740.426 302.312C741.06 301.92 741.555 301.388 741.91 300.716C742.264 300.025 742.442 299.241 742.442 298.364C742.442 297.449 742.255 296.656 741.882 295.984C741.527 295.312 741.032 294.78 740.398 294.388C739.782 293.996 739.054 293.8 738.214 293.8C737.374 293.8 736.636 293.996 736.002 294.388C735.367 294.78 734.863 295.321 734.49 296.012C734.135 296.684 733.958 297.459 733.958 298.336C733.958 299.232 734.135 300.025 734.49 300.716C734.863 301.388 735.367 301.92 736.002 302.312C736.655 302.704 737.402 302.9 738.242 302.9ZM744.822 305H742.274V301.416L742.75 298.168L742.274 294.948V285.008H744.822V305ZM748.519 305V291.7H751.039V305H748.519ZM749.779 289.04C749.312 289.04 748.929 288.891 748.631 288.592C748.332 288.275 748.183 287.883 748.183 287.416C748.183 286.968 748.332 286.595 748.631 286.296C748.929 285.979 749.312 285.82 749.779 285.82C750.245 285.82 750.628 285.979 750.927 286.296C751.225 286.595 751.375 286.968 751.375 287.416C751.375 287.883 751.225 288.275 750.927 288.592C750.628 288.891 750.245 289.04 749.779 289.04ZM764.16 305V297.244C764.16 296.236 763.843 295.405 763.208 294.752C762.574 294.099 761.752 293.772 760.744 293.772C760.072 293.772 759.475 293.921 758.952 294.22C758.43 294.519 758.019 294.929 757.72 295.452C757.422 295.975 757.272 296.572 757.272 297.244L756.236 296.656C756.236 295.648 756.46 294.752 756.908 293.968C757.356 293.184 757.982 292.568 758.784 292.12C759.587 291.653 760.492 291.42 761.5 291.42C762.508 291.42 763.395 291.672 764.16 292.176C764.944 292.68 765.56 293.343 766.008 294.164C766.456 294.967 766.68 295.825 766.68 296.74V305H764.16ZM754.752 305V291.7H757.272V305H754.752ZM775.608 310.852C774.245 310.852 773.032 310.6 771.968 310.096C770.923 309.592 770.083 308.883 769.448 307.968L771.072 306.316C771.613 307.007 772.257 307.529 773.004 307.884C773.751 308.257 774.637 308.444 775.664 308.444C777.027 308.444 778.1 308.08 778.884 307.352C779.687 306.643 780.088 305.681 780.088 304.468V301.164L780.536 298.168L780.088 295.2V291.7H782.608V304.468C782.608 305.737 782.309 306.848 781.712 307.8C781.133 308.752 780.312 309.499 779.248 310.04C778.203 310.581 776.989 310.852 775.608 310.852ZM775.608 304.776C774.395 304.776 773.303 304.487 772.332 303.908C771.38 303.329 770.624 302.536 770.064 301.528C769.504 300.501 769.224 299.353 769.224 298.084C769.224 296.815 769.504 295.685 770.064 294.696C770.624 293.688 771.38 292.895 772.332 292.316C773.303 291.719 774.395 291.42 775.608 291.42C776.653 291.42 777.577 291.625 778.38 292.036C779.183 292.447 779.817 293.025 780.284 293.772C780.769 294.5 781.031 295.359 781.068 296.348V299.876C781.012 300.847 780.741 301.705 780.256 302.452C779.789 303.18 779.155 303.749 778.352 304.16C777.549 304.571 776.635 304.776 775.608 304.776ZM776.112 302.396C776.933 302.396 777.652 302.219 778.268 301.864C778.903 301.509 779.388 301.015 779.724 300.38C780.06 299.727 780.228 298.971 780.228 298.112C780.228 297.253 780.051 296.507 779.696 295.872C779.36 295.219 778.884 294.715 778.268 294.36C777.652 293.987 776.924 293.8 776.084 293.8C775.244 293.8 774.507 293.987 773.872 294.36C773.237 294.715 772.733 295.219 772.36 295.872C772.005 296.507 771.828 297.244 771.828 298.084C771.828 298.924 772.005 299.671 772.36 300.324C772.733 300.977 773.237 301.491 773.872 301.864C774.525 302.219 775.272 302.396 776.112 302.396ZM798.207 305.28C796.901 305.28 795.725 304.972 794.679 304.356C793.634 303.74 792.803 302.909 792.187 301.864C791.571 300.8 791.263 299.615 791.263 298.308C791.263 297.02 791.571 295.863 792.187 294.836C792.803 293.791 793.634 292.96 794.679 292.344C795.725 291.728 796.901 291.42 798.207 291.42C799.495 291.42 800.662 291.728 801.707 292.344C802.771 292.941 803.611 293.763 804.227 294.808C804.843 295.853 805.151 297.02 805.151 298.308C805.151 299.615 804.843 300.8 804.227 301.864C803.611 302.909 802.771 303.74 801.707 304.356C800.662 304.972 799.495 305.28 798.207 305.28ZM798.207 302.844C799.047 302.844 799.794 302.648 800.447 302.256C801.101 301.864 801.614 301.332 801.987 300.66C802.361 299.969 802.547 299.185 802.547 298.308C802.547 297.449 802.351 296.684 801.959 296.012C801.586 295.34 801.073 294.817 800.419 294.444C799.785 294.052 799.047 293.856 798.207 293.856C797.367 293.856 796.621 294.052 795.967 294.444C795.314 294.817 794.801 295.34 794.427 296.012C794.054 296.684 793.867 297.449 793.867 298.308C793.867 299.185 794.054 299.969 794.427 300.66C794.801 301.332 795.314 301.864 795.967 302.256C796.621 302.648 797.367 302.844 798.207 302.844ZM813.339 305.28C812.256 305.28 811.276 305.037 810.399 304.552C809.54 304.048 808.868 303.357 808.383 302.48C807.897 301.603 807.655 300.585 807.655 299.428V291.7H810.175V299.316C810.175 300.044 810.296 300.679 810.539 301.22C810.8 301.743 811.173 302.144 811.659 302.424C812.144 302.704 812.713 302.844 813.367 302.844C814.356 302.844 815.131 302.536 815.691 301.92C816.251 301.285 816.531 300.417 816.531 299.316V291.7H819.051V299.428C819.051 300.585 818.808 301.603 818.323 302.48C817.837 303.357 817.165 304.048 816.307 304.552C815.467 305.037 814.477 305.28 813.339 305.28ZM822.428 305V291.7H824.948V305H822.428ZM824.948 297.412L823.996 296.992C823.996 295.293 824.388 293.94 825.172 292.932C825.956 291.924 827.085 291.42 828.56 291.42C829.232 291.42 829.839 291.541 830.38 291.784C830.921 292.008 831.425 292.391 831.892 292.932L830.24 294.64C829.96 294.341 829.652 294.127 829.316 293.996C828.98 293.865 828.588 293.8 828.14 293.8C827.207 293.8 826.441 294.099 825.844 294.696C825.247 295.293 824.948 296.199 824.948 297.412ZM842.027 305V286.128H844.547V305H842.027ZM838.751 293.996V291.7H847.823V293.996H838.751ZM855.537 305.28C854.324 305.28 853.223 304.981 852.233 304.384C851.244 303.768 850.46 302.937 849.881 301.892C849.321 300.847 849.041 299.671 849.041 298.364C849.041 297.057 849.321 295.881 849.881 294.836C850.46 293.791 851.235 292.96 852.205 292.344C853.195 291.728 854.305 291.42 855.537 291.42C856.545 291.42 857.441 291.635 858.225 292.064C859.028 292.475 859.672 293.053 860.157 293.8C860.643 294.528 860.913 295.377 860.969 296.348V300.352C860.913 301.304 860.643 302.153 860.157 302.9C859.691 303.647 859.056 304.235 858.253 304.664C857.469 305.075 856.564 305.28 855.537 305.28ZM855.957 302.9C857.208 302.9 858.216 302.48 858.981 301.64C859.747 300.781 860.129 299.689 860.129 298.364C860.129 297.449 859.952 296.656 859.597 295.984C859.261 295.293 858.776 294.761 858.141 294.388C857.507 293.996 856.769 293.8 855.929 293.8C855.089 293.8 854.343 293.996 853.689 294.388C853.055 294.78 852.551 295.321 852.177 296.012C851.823 296.684 851.645 297.459 851.645 298.336C851.645 299.232 851.823 300.025 852.177 300.716C852.551 301.388 853.064 301.92 853.717 302.312C854.371 302.704 855.117 302.9 855.957 302.9ZM859.961 305V301.416L860.437 298.168L859.961 294.948V291.7H862.509V305H859.961ZM866.178 305V291.7H868.698V305H866.178ZM868.698 297.412L867.746 296.992C867.746 295.293 868.138 293.94 868.922 292.932C869.706 291.924 870.835 291.42 872.31 291.42C872.982 291.42 873.589 291.541 874.13 291.784C874.671 292.008 875.175 292.391 875.642 292.932L873.99 294.64C873.71 294.341 873.402 294.127 873.066 293.996C872.73 293.865 872.338 293.8 871.89 293.8C870.957 293.8 870.191 294.099 869.594 294.696C868.997 295.293 868.698 296.199 868.698 297.412ZM882.495 310.852C881.132 310.852 879.919 310.6 878.855 310.096C877.81 309.592 876.97 308.883 876.335 307.968L877.959 306.316C878.5 307.007 879.144 307.529 879.891 307.884C880.638 308.257 881.524 308.444 882.551 308.444C883.914 308.444 884.987 308.08 885.771 307.352C886.574 306.643 886.975 305.681 886.975 304.468V301.164L887.423 298.168L886.975 295.2V291.7H889.495V304.468C889.495 305.737 889.196 306.848 888.599 307.8C888.02 308.752 887.199 309.499 886.135 310.04C885.09 310.581 883.876 310.852 882.495 310.852ZM882.495 304.776C881.282 304.776 880.19 304.487 879.219 303.908C878.267 303.329 877.511 302.536 876.951 301.528C876.391 300.501 876.111 299.353 876.111 298.084C876.111 296.815 876.391 295.685 876.951 294.696C877.511 293.688 878.267 292.895 879.219 292.316C880.19 291.719 881.282 291.42 882.495 291.42C883.54 291.42 884.464 291.625 885.267 292.036C886.07 292.447 886.704 293.025 887.171 293.772C887.656 294.5 887.918 295.359 887.955 296.348V299.876C887.899 300.847 887.628 301.705 887.143 302.452C886.676 303.18 886.042 303.749 885.239 304.16C884.436 304.571 883.522 304.776 882.495 304.776ZM882.999 302.396C883.82 302.396 884.539 302.219 885.155 301.864C885.79 301.509 886.275 301.015 886.611 300.38C886.947 299.727 887.115 298.971 887.115 298.112C887.115 297.253 886.938 296.507 886.583 295.872C886.247 295.219 885.771 294.715 885.155 294.36C884.539 293.987 883.811 293.8 882.971 293.8C882.131 293.8 881.394 293.987 880.759 294.36C880.124 294.715 879.62 295.219 879.247 295.872C878.892 296.507 878.715 297.244 878.715 298.084C878.715 298.924 878.892 299.671 879.247 300.324C879.62 300.977 880.124 301.491 880.759 301.864C881.412 302.219 882.159 302.396 882.999 302.396ZM899.354 305.28C898.028 305.28 896.834 304.981 895.77 304.384C894.706 303.768 893.866 302.937 893.25 301.892C892.634 300.847 892.326 299.661 892.326 298.336C892.326 297.029 892.624 295.853 893.222 294.808C893.838 293.763 894.659 292.941 895.686 292.344C896.731 291.728 897.898 291.42 899.186 291.42C900.418 291.42 901.5 291.7 902.434 292.26C903.386 292.82 904.123 293.595 904.646 294.584C905.187 295.573 905.458 296.693 905.458 297.944C905.458 298.131 905.448 298.336 905.43 298.56C905.411 298.765 905.374 299.008 905.318 299.288H894.09V297.188H903.974L903.05 298C903.05 297.104 902.891 296.348 902.574 295.732C902.256 295.097 901.808 294.612 901.23 294.276C900.651 293.921 899.951 293.744 899.13 293.744C898.271 293.744 897.515 293.931 896.862 294.304C896.208 294.677 895.704 295.2 895.35 295.872C894.995 296.544 894.818 297.337 894.818 298.252C894.818 299.185 895.004 300.007 895.378 300.716C895.751 301.407 896.283 301.948 896.974 302.34C897.664 302.713 898.458 302.9 899.354 302.9C900.1 302.9 900.782 302.769 901.398 302.508C902.032 302.247 902.574 301.855 903.022 301.332L904.646 302.984C904.011 303.731 903.227 304.3 902.294 304.692C901.379 305.084 900.399 305.28 899.354 305.28ZM909.839 305V286.128H912.359V305H909.839ZM906.563 293.996V291.7H915.635V293.996H906.563ZM929.584 305.28C928.371 305.28 927.269 304.981 926.28 304.384C925.291 303.768 924.507 302.937 923.928 301.892C923.368 300.847 923.088 299.671 923.088 298.364C923.088 297.057 923.368 295.881 923.928 294.836C924.507 293.791 925.281 292.96 926.252 292.344C927.241 291.728 928.352 291.42 929.584 291.42C930.592 291.42 931.488 291.635 932.272 292.064C933.075 292.475 933.719 293.053 934.204 293.8C934.689 294.528 934.96 295.377 935.016 296.348V300.352C934.96 301.304 934.689 302.153 934.204 302.9C933.737 303.647 933.103 304.235 932.3 304.664C931.516 305.075 930.611 305.28 929.584 305.28ZM930.004 302.9C931.255 302.9 932.263 302.48 933.028 301.64C933.793 300.781 934.176 299.689 934.176 298.364C934.176 297.449 933.999 296.656 933.644 295.984C933.308 295.293 932.823 294.761 932.188 294.388C931.553 293.996 930.816 293.8 929.976 293.8C929.136 293.8 928.389 293.996 927.736 294.388C927.101 294.78 926.597 295.321 926.224 296.012C925.869 296.684 925.692 297.459 925.692 298.336C925.692 299.232 925.869 300.025 926.224 300.716C926.597 301.388 927.111 301.92 927.764 302.312C928.417 302.704 929.164 302.9 930.004 302.9ZM934.008 305V301.416L934.484 298.168L934.008 294.948V291.7H936.556V305H934.008ZM945.573 305.28C944.49 305.28 943.51 305.037 942.633 304.552C941.774 304.048 941.102 303.357 940.617 302.48C940.132 301.603 939.889 300.585 939.889 299.428V291.7H942.409V299.316C942.409 300.044 942.53 300.679 942.773 301.22C943.034 301.743 943.408 302.144 943.893 302.424C944.378 302.704 944.948 302.844 945.601 302.844C946.59 302.844 947.365 302.536 947.925 301.92C948.485 301.285 948.765 300.417 948.765 299.316V291.7H951.285V299.428C951.285 300.585 951.042 301.603 950.557 302.48C950.072 303.357 949.4 304.048 948.541 304.552C947.701 305.037 946.712 305.28 945.573 305.28ZM960.29 305.28C959.058 305.28 957.957 304.981 956.986 304.384C956.016 303.768 955.241 302.937 954.662 301.892C954.102 300.847 953.822 299.671 953.822 298.364C953.822 297.057 954.102 295.881 954.662 294.836C955.241 293.791 956.016 292.96 956.986 292.344C957.957 291.728 959.058 291.42 960.29 291.42C961.28 291.42 962.176 291.635 962.978 292.064C963.781 292.475 964.425 293.053 964.91 293.8C965.414 294.528 965.694 295.377 965.75 296.348V300.352C965.694 301.304 965.424 302.153 964.938 302.9C964.453 303.647 963.809 304.235 963.006 304.664C962.204 305.075 961.298 305.28 960.29 305.28ZM960.71 302.9C961.55 302.9 962.278 302.704 962.894 302.312C963.529 301.92 964.024 301.388 964.378 300.716C964.733 300.025 964.91 299.241 964.91 298.364C964.91 297.449 964.724 296.656 964.35 295.984C963.996 295.312 963.501 294.78 962.866 294.388C962.25 293.996 961.522 293.8 960.682 293.8C959.842 293.8 959.105 293.996 958.47 294.388C957.836 294.78 957.332 295.321 956.958 296.012C956.604 296.684 956.426 297.459 956.426 298.336C956.426 299.232 956.604 300.025 956.958 300.716C957.332 301.388 957.836 301.92 958.47 302.312C959.124 302.704 959.87 302.9 960.71 302.9ZM967.29 305H964.742V301.416L965.218 298.168L964.742 294.948V285.008H967.29V305ZM970.987 305V291.7H973.507V305H970.987ZM972.247 289.04C971.781 289.04 971.398 288.891 971.099 288.592C970.801 288.275 970.651 287.883 970.651 287.416C970.651 286.968 970.801 286.595 971.099 286.296C971.398 285.979 971.781 285.82 972.247 285.82C972.714 285.82 973.097 285.979 973.395 286.296C973.694 286.595 973.843 286.968 973.843 287.416C973.843 287.883 973.694 288.275 973.395 288.592C973.097 288.891 972.714 289.04 972.247 289.04ZM983.381 305.28C982.056 305.28 980.861 304.981 979.797 304.384C978.733 303.768 977.893 302.937 977.277 301.892C976.661 300.847 976.353 299.661 976.353 298.336C976.353 297.029 976.652 295.853 977.249 294.808C977.865 293.763 978.686 292.941 979.713 292.344C980.758 291.728 981.925 291.42 983.213 291.42C984.445 291.42 985.528 291.7 986.461 292.26C987.413 292.82 988.15 293.595 988.673 294.584C989.214 295.573 989.485 296.693 989.485 297.944C989.485 298.131 989.476 298.336 989.457 298.56C989.438 298.765 989.401 299.008 989.345 299.288H978.117V297.188H988.001L987.077 298C987.077 297.104 986.918 296.348 986.601 295.732C986.284 295.097 985.836 294.612 985.257 294.276C984.678 293.921 983.978 293.744 983.157 293.744C982.298 293.744 981.542 293.931 980.889 294.304C980.236 294.677 979.732 295.2 979.377 295.872C979.022 296.544 978.845 297.337 978.845 298.252C978.845 299.185 979.032 300.007 979.405 300.716C979.778 301.407 980.31 301.948 981.001 302.34C981.692 302.713 982.485 302.9 983.381 302.9C984.128 302.9 984.809 302.769 985.425 302.508C986.06 302.247 986.601 301.855 987.049 301.332L988.673 302.984C988.038 303.731 987.254 304.3 986.321 304.692C985.406 305.084 984.426 305.28 983.381 305.28ZM1001.64 305V297.244C1001.64 296.236 1001.32 295.405 1000.69 294.752C1000.05 294.099 999.233 293.772 998.225 293.772C997.553 293.772 996.955 293.921 996.433 294.22C995.91 294.519 995.499 294.929 995.201 295.452C994.902 295.975 994.753 296.572 994.753 297.244L993.717 296.656C993.717 295.648 993.941 294.752 994.389 293.968C994.837 293.184 995.462 292.568 996.265 292.12C997.067 291.653 997.973 291.42 998.981 291.42C999.989 291.42 1000.88 291.672 1001.64 292.176C1002.42 292.68 1003.04 293.343 1003.49 294.164C1003.94 294.967 1004.16 295.825 1004.16 296.74V305H1001.64ZM992.233 305V291.7H994.753V305H992.233ZM1013.65 305.28C1012.34 305.28 1011.16 304.972 1010.09 304.356C1009.05 303.74 1008.22 302.909 1007.6 301.864C1007 300.8 1006.7 299.624 1006.7 298.336C1006.7 297.029 1007 295.853 1007.6 294.808C1008.22 293.763 1009.05 292.941 1010.09 292.344C1011.16 291.728 1012.34 291.42 1013.65 291.42C1014.68 291.42 1015.63 291.616 1016.5 292.008C1017.38 292.381 1018.14 292.932 1018.77 293.66L1017.09 295.34C1016.68 294.855 1016.18 294.491 1015.58 294.248C1015 293.987 1014.36 293.856 1013.65 293.856C1012.81 293.856 1012.06 294.052 1011.41 294.444C1010.76 294.817 1010.24 295.34 1009.87 296.012C1009.5 296.684 1009.31 297.459 1009.31 298.336C1009.31 299.213 1009.5 299.988 1009.87 300.66C1010.24 301.332 1010.76 301.864 1011.41 302.256C1012.06 302.648 1012.81 302.844 1013.65 302.844C1014.36 302.844 1015 302.723 1015.58 302.48C1016.18 302.219 1016.69 301.845 1017.12 301.36L1018.77 303.04C1018.16 303.749 1017.4 304.3 1016.5 304.692C1015.63 305.084 1014.68 305.28 1013.65 305.28ZM1027.16 305.28C1025.83 305.28 1024.64 304.981 1023.57 304.384C1022.51 303.768 1021.67 302.937 1021.05 301.892C1020.44 300.847 1020.13 299.661 1020.13 298.336C1020.13 297.029 1020.43 295.853 1021.03 294.808C1021.64 293.763 1022.46 292.941 1023.49 292.344C1024.54 291.728 1025.7 291.42 1026.99 291.42C1028.22 291.42 1029.31 291.7 1030.24 292.26C1031.19 292.82 1031.93 293.595 1032.45 294.584C1032.99 295.573 1033.26 296.693 1033.26 297.944C1033.26 298.131 1033.25 298.336 1033.23 298.56C1033.22 298.765 1033.18 299.008 1033.12 299.288H1021.89V297.188H1031.78L1030.85 298C1030.85 297.104 1030.7 296.348 1030.38 295.732C1030.06 295.097 1029.61 294.612 1029.03 294.276C1028.46 293.921 1027.76 293.744 1026.93 293.744C1026.08 293.744 1025.32 293.931 1024.67 294.304C1024.01 294.677 1023.51 295.2 1023.15 295.872C1022.8 296.544 1022.62 297.337 1022.62 298.252C1022.62 299.185 1022.81 300.007 1023.18 300.716C1023.56 301.407 1024.09 301.948 1024.78 302.34C1025.47 302.713 1026.26 302.9 1027.16 302.9C1027.91 302.9 1028.59 302.769 1029.2 302.508C1029.84 302.247 1030.38 301.855 1030.83 301.332L1032.45 302.984C1031.82 303.731 1031.03 304.3 1030.1 304.692C1029.18 305.084 1028.2 305.28 1027.16 305.28ZM592.054 375V355.568H594.686V375H592.054ZM599.273 375V355.568H601.121L601.905 358.62V375H599.273ZM612.713 375L600.785 359.068L601.121 355.568L613.077 371.472L612.713 375ZM612.713 375L611.929 372.116V355.568H614.561V375H612.713ZM625.507 375L617.723 355.568H620.579L626.991 372.004H625.955L632.423 355.568H635.251L627.411 375H625.507ZM638.429 375V355.568H641.061V375H638.429ZM640.221 375V372.592H651.365V375H640.221ZM640.221 366.208V363.912H650.441V366.208H640.221ZM640.221 357.976V355.568H651.225V357.976H640.221ZM659.856 375.28C658.326 375.28 657.019 375 655.936 374.44C654.854 373.88 653.892 373.068 653.052 372.004L654.844 370.212C655.46 371.071 656.17 371.724 656.972 372.172C657.775 372.601 658.764 372.816 659.94 372.816C661.098 372.816 662.022 372.564 662.712 372.06C663.422 371.556 663.776 370.865 663.776 369.988C663.776 369.26 663.608 368.672 663.272 368.224C662.936 367.776 662.479 367.412 661.9 367.132C661.34 366.833 660.724 366.572 660.052 366.348C659.38 366.105 658.708 365.853 658.036 365.592C657.364 365.312 656.748 364.976 656.188 364.584C655.628 364.173 655.171 363.641 654.816 362.988C654.48 362.335 654.312 361.513 654.312 360.524C654.312 359.423 654.574 358.489 655.096 357.724C655.638 356.94 656.366 356.343 657.28 355.932C658.214 355.503 659.259 355.288 660.416 355.288C661.686 355.288 662.824 355.54 663.832 356.044C664.84 356.529 665.662 357.173 666.296 357.976L664.504 359.768C663.926 359.096 663.3 358.592 662.628 358.256C661.975 357.92 661.219 357.752 660.36 357.752C659.315 357.752 658.484 357.985 657.868 358.452C657.252 358.9 656.944 359.535 656.944 360.356C656.944 361.009 657.112 361.541 657.448 361.952C657.803 362.344 658.26 362.68 658.82 362.96C659.38 363.24 659.996 363.501 660.668 363.744C661.359 363.968 662.04 364.22 662.712 364.5C663.384 364.78 664 365.135 664.56 365.564C665.12 365.993 665.568 366.553 665.904 367.244C666.259 367.916 666.436 368.765 666.436 369.792C666.436 371.509 665.839 372.853 664.644 373.824C663.468 374.795 661.872 375.28 659.856 375.28ZM674.233 375V356.128H676.865V375H674.233ZM667.625 357.976V355.568H683.445V357.976H667.625ZM686.581 375V355.568H689.213V375H686.581ZM702.592 375.28C701.229 375.28 699.951 375.028 698.756 374.524C697.58 374.001 696.544 373.283 695.648 372.368C694.771 371.453 694.08 370.389 693.576 369.176C693.072 367.963 692.82 366.656 692.82 365.256C692.82 363.856 693.072 362.559 693.576 361.364C694.08 360.151 694.78 359.087 695.676 358.172C696.572 357.257 697.617 356.548 698.812 356.044C700.025 355.54 701.341 355.288 702.76 355.288C704.309 355.288 705.737 355.587 707.044 356.184C708.351 356.781 709.443 357.64 710.32 358.76L708.5 360.58C707.884 359.684 707.072 359.003 706.064 358.536C705.056 358.051 703.955 357.808 702.76 357.808C701.341 357.808 700.081 358.125 698.98 358.76C697.897 359.395 697.048 360.272 696.432 361.392C695.835 362.512 695.536 363.8 695.536 365.256C695.536 366.731 695.844 368.028 696.46 369.148C697.076 370.268 697.907 371.145 698.952 371.78C699.997 372.415 701.192 372.732 702.536 372.732C703.899 372.732 705.075 372.471 706.064 371.948C707.072 371.425 707.847 370.66 708.388 369.652C708.929 368.625 709.2 367.375 709.2 365.9L710.796 367.048H702.396V364.64H711.916V365.032C711.916 367.291 711.515 369.185 710.712 370.716C709.928 372.228 708.827 373.367 707.408 374.132C706.008 374.897 704.403 375.28 702.592 375.28ZM713.098 375L721.05 355.568H722.954L730.878 375H728.022L721.498 358.564H722.478L715.898 375H713.098ZM716.878 370.604V368.308H727.098V370.604H716.878ZM736.331 375V356.128H738.963V375H736.331ZM729.723 357.976V355.568H745.543V357.976H729.723ZM748.679 375V355.568H751.311V375H748.679ZM755.898 375V355.568H757.746L758.53 358.62V375H755.898ZM769.338 375L757.41 359.068L757.746 355.568L769.702 371.472L769.338 375ZM769.338 375L768.554 372.116V355.568H771.186V375H769.338ZM784.568 375.28C783.206 375.28 781.927 375.028 780.732 374.524C779.556 374.001 778.52 373.283 777.624 372.368C776.747 371.453 776.056 370.389 775.552 369.176C775.048 367.963 774.796 366.656 774.796 365.256C774.796 363.856 775.048 362.559 775.552 361.364C776.056 360.151 776.756 359.087 777.652 358.172C778.548 357.257 779.594 356.548 780.788 356.044C782.002 355.54 783.318 355.288 784.736 355.288C786.286 355.288 787.714 355.587 789.02 356.184C790.327 356.781 791.419 357.64 792.296 358.76L790.476 360.58C789.86 359.684 789.048 359.003 788.04 358.536C787.032 358.051 785.931 357.808 784.736 357.808C783.318 357.808 782.058 358.125 780.956 358.76C779.874 359.395 779.024 360.272 778.408 361.392C777.811 362.512 777.512 363.8 777.512 365.256C777.512 366.731 777.82 368.028 778.436 369.148C779.052 370.268 779.883 371.145 780.928 371.78C781.974 372.415 783.168 372.732 784.512 372.732C785.875 372.732 787.051 372.471 788.04 371.948C789.048 371.425 789.823 370.66 790.364 369.652C790.906 368.625 791.176 367.375 791.176 365.9L792.772 367.048H784.372V364.64H793.892V365.032C793.892 367.291 793.491 369.185 792.688 370.716C791.904 372.228 790.803 373.367 789.384 374.132C787.984 374.897 786.379 375.28 784.568 375.28ZM807.971 375V356.128H810.603V375H807.971ZM801.363 357.976V355.568H817.183V357.976H801.363ZM816.048 375L824 355.568H825.904L833.828 375H830.972L824.448 358.564H825.428L818.848 375H816.048ZM819.828 370.604V368.308H830.048V370.604H819.828ZM838.517 366.544V364.332H843.781C844.92 364.332 845.797 364.043 846.413 363.464C847.029 362.885 847.337 362.101 847.337 361.112C847.337 360.179 847.029 359.404 846.413 358.788C845.816 358.172 844.948 357.864 843.809 357.864H838.517V355.568H843.893C845.125 355.568 846.198 355.811 847.113 356.296C848.028 356.763 848.728 357.407 849.213 358.228C849.717 359.049 849.969 359.992 849.969 361.056C849.969 362.157 849.717 363.119 849.213 363.94C848.728 364.761 848.028 365.405 847.113 365.872C846.198 366.32 845.125 366.544 843.893 366.544H838.517ZM836.753 375V355.568H839.385V375H836.753ZM847.953 375L840.897 366.292L843.389 365.424L851.285 375H847.953ZM862.498 375.28C861.135 375.28 859.857 375.028 858.662 374.524C857.486 374.001 856.45 373.283 855.554 372.368C854.677 371.453 853.986 370.389 853.482 369.176C852.978 367.963 852.726 366.656 852.726 365.256C852.726 363.856 852.978 362.559 853.482 361.364C853.986 360.151 854.686 359.087 855.582 358.172C856.478 357.257 857.523 356.548 858.718 356.044C859.931 355.54 861.247 355.288 862.666 355.288C864.215 355.288 865.643 355.587 866.95 356.184C868.257 356.781 869.349 357.64 870.226 358.76L868.406 360.58C867.79 359.684 866.978 359.003 865.97 358.536C864.962 358.051 863.861 357.808 862.666 357.808C861.247 357.808 859.987 358.125 858.886 358.76C857.803 359.395 856.954 360.272 856.338 361.392C855.741 362.512 855.442 363.8 855.442 365.256C855.442 366.731 855.75 368.028 856.366 369.148C856.982 370.268 857.813 371.145 858.858 371.78C859.903 372.415 861.098 372.732 862.442 372.732C863.805 372.732 864.981 372.471 865.97 371.948C866.978 371.425 867.753 370.66 868.294 369.652C868.835 368.625 869.106 367.375 869.106 365.9L870.702 367.048H862.302V364.64H871.822V365.032C871.822 367.291 871.421 369.185 870.618 370.716C869.834 372.228 868.733 373.367 867.314 374.132C865.914 374.897 864.309 375.28 862.498 375.28ZM875.362 375V355.568H877.994V375H875.362ZM877.154 375V372.592H888.298V375H877.154ZM877.154 366.208V363.912H887.374V366.208H877.154ZM877.154 357.976V355.568H888.158V357.976H877.154ZM896.292 375V356.128H898.924V375H896.292ZM889.684 357.976V355.568H905.504V357.976H889.684ZM911.806 375L919.758 355.568H921.662L929.586 375H926.73L920.206 358.564H921.186L914.606 375H911.806ZM915.586 370.604V368.308H925.806V370.604H915.586ZM939.572 375.28C938.135 375.28 936.847 374.963 935.708 374.328C934.588 373.675 933.701 372.788 933.048 371.668C932.395 370.529 932.068 369.241 932.068 367.804V355.568H934.7V367.748C934.7 368.775 934.915 369.661 935.344 370.408C935.773 371.155 936.352 371.733 937.08 372.144C937.827 372.555 938.657 372.76 939.572 372.76C940.524 372.76 941.355 372.555 942.064 372.144C942.792 371.733 943.361 371.155 943.772 370.408C944.201 369.661 944.416 368.784 944.416 367.776V355.568H947.076V367.832C947.076 369.269 946.749 370.548 946.096 371.668C945.443 372.788 944.556 373.675 943.436 374.328C942.316 374.963 941.028 375.28 939.572 375.28ZM953.141 375V372.592H958.545C959.983 372.592 961.243 372.284 962.325 371.668C963.408 371.033 964.248 370.165 964.845 369.064C965.461 367.963 965.769 366.693 965.769 365.256C965.769 363.837 965.461 362.577 964.845 361.476C964.229 360.375 963.38 359.516 962.297 358.9C961.215 358.284 959.964 357.976 958.545 357.976H953.169V355.568H958.601C960.02 355.568 961.327 355.811 962.521 356.296C963.735 356.781 964.78 357.463 965.657 358.34C966.553 359.217 967.244 360.244 967.729 361.42C968.233 362.596 968.485 363.884 968.485 365.284C968.485 366.665 968.233 367.953 967.729 369.148C967.244 370.324 966.563 371.351 965.685 372.228C964.808 373.105 963.763 373.787 962.549 374.272C961.355 374.757 960.057 375 958.657 375H953.141ZM951.405 375V355.568H954.037V375H951.405ZM972.132 375V355.568H974.764V375H972.132ZM979.351 375V355.568H981.983V375H979.351ZM981.143 375V372.592H992.287V375H981.143ZM981.143 366.208V363.912H991.363V366.208H981.143ZM981.143 357.976V355.568H992.147V357.976H981.143ZM995.866 375V355.568H997.714L998.498 358.62V375H995.866ZM1009.31 375L997.378 359.068L997.714 355.568L1009.67 371.472L1009.31 375ZM1009.31 375L1008.52 372.116V355.568H1011.15V375H1009.31ZM1024.57 375.28C1023.17 375.28 1021.87 375.028 1020.67 374.524C1019.48 374.001 1018.43 373.283 1017.54 372.368C1016.66 371.453 1015.98 370.389 1015.49 369.176C1015.01 367.963 1014.77 366.665 1014.77 365.284C1014.77 363.884 1015.01 362.577 1015.49 361.364C1015.98 360.151 1016.66 359.096 1017.54 358.2C1018.43 357.285 1019.47 356.576 1020.65 356.072C1021.84 355.549 1023.14 355.288 1024.54 355.288C1026.07 355.288 1027.41 355.549 1028.57 356.072C1029.73 356.595 1030.75 357.304 1031.65 358.2L1029.83 360.02C1029.21 359.329 1028.46 358.788 1027.56 358.396C1026.68 358.004 1025.68 357.808 1024.54 357.808C1023.51 357.808 1022.57 357.995 1021.71 358.368C1020.85 358.723 1020.1 359.236 1019.47 359.908C1018.83 360.58 1018.34 361.373 1017.99 362.288C1017.65 363.203 1017.48 364.201 1017.48 365.284C1017.48 366.367 1017.65 367.365 1017.99 368.28C1018.34 369.195 1018.83 369.988 1019.47 370.66C1020.1 371.332 1020.85 371.855 1021.71 372.228C1022.57 372.583 1023.51 372.76 1024.54 372.76C1025.75 372.76 1026.81 372.564 1027.7 372.172C1028.6 371.761 1029.35 371.211 1029.97 370.52L1031.79 372.312C1030.89 373.245 1029.84 373.973 1028.63 374.496C1027.43 375.019 1026.08 375.28 1024.57 375.28ZM1035.02 375V355.568H1037.65V375H1035.02ZM1036.81 375V372.592H1047.96V375H1036.81ZM1036.81 366.208V363.912H1047.03V366.208H1036.81ZM1036.81 357.976V355.568H1047.82V357.976H1036.81ZM741.202 410.28C739.802 410.28 738.505 410.028 737.31 409.524C736.115 409.001 735.07 408.283 734.174 407.368C733.297 406.453 732.615 405.389 732.13 404.176C731.645 402.963 731.402 401.665 731.402 400.284C731.402 398.884 731.645 397.577 732.13 396.364C732.615 395.151 733.297 394.096 734.174 393.2C735.07 392.285 736.106 391.576 737.282 391.072C738.477 390.549 739.774 390.288 741.174 390.288C742.705 390.288 744.049 390.549 745.206 391.072C746.363 391.595 747.39 392.304 748.286 393.2L746.466 395.02C745.85 394.329 745.094 393.788 744.198 393.396C743.321 393.004 742.313 392.808 741.174 392.808C740.147 392.808 739.205 392.995 738.346 393.368C737.487 393.723 736.741 394.236 736.106 394.908C735.471 395.58 734.977 396.373 734.622 397.288C734.286 398.203 734.118 399.201 734.118 400.284C734.118 401.367 734.286 402.365 734.622 403.28C734.977 404.195 735.471 404.988 736.106 405.66C736.741 406.332 737.487 406.855 738.346 407.228C739.205 407.583 740.147 407.76 741.174 407.76C742.387 407.76 743.442 407.564 744.338 407.172C745.234 406.761 745.99 406.211 746.606 405.52L748.426 407.312C747.53 408.245 746.475 408.973 745.262 409.496C744.067 410.019 742.714 410.28 741.202 410.28ZM751.659 410V390.568H754.291V410H751.659ZM764.203 410V390.568H766.835V410H764.203ZM753.451 401.152V398.744H764.847V401.152H753.451ZM770.001 410L777.953 390.568H779.857L787.781 410H784.925L778.401 393.564H779.381L772.801 410H770.001ZM773.781 405.604V403.308H784.001V405.604H773.781ZM790.706 410V390.568H793.338V410H790.706ZM792.498 410V407.592H802.914V410H792.498ZM806.155 410V390.568H808.787V410H806.155ZM807.947 410V407.592H818.363V410H807.947ZM821.605 410V390.568H824.237V410H821.605ZM823.397 410V407.592H834.541V410H823.397ZM823.397 401.208V398.912H833.617V401.208H823.397ZM823.397 392.976V390.568H834.401V392.976H823.397ZM838.12 410V390.568H839.968L840.752 393.62V410H838.12ZM851.56 410L839.632 394.068L839.968 390.568L851.924 406.472L851.56 410ZM851.56 410L850.776 407.116V390.568H853.408V410H851.56ZM866.791 410.28C865.428 410.28 864.15 410.028 862.955 409.524C861.779 409.001 860.743 408.283 859.847 407.368C858.97 406.453 858.279 405.389 857.775 404.176C857.271 402.963 857.019 401.656 857.019 400.256C857.019 398.856 857.271 397.559 857.775 396.364C858.279 395.151 858.979 394.087 859.875 393.172C860.771 392.257 861.816 391.548 863.011 391.044C864.224 390.54 865.54 390.288 866.959 390.288C868.508 390.288 869.936 390.587 871.243 391.184C872.55 391.781 873.642 392.64 874.519 393.76L872.699 395.58C872.083 394.684 871.271 394.003 870.263 393.536C869.255 393.051 868.154 392.808 866.959 392.808C865.54 392.808 864.28 393.125 863.179 393.76C862.096 394.395 861.247 395.272 860.631 396.392C860.034 397.512 859.735 398.8 859.735 400.256C859.735 401.731 860.043 403.028 860.659 404.148C861.275 405.268 862.106 406.145 863.151 406.78C864.196 407.415 865.391 407.732 866.735 407.732C868.098 407.732 869.274 407.471 870.263 406.948C871.271 406.425 872.046 405.66 872.587 404.652C873.128 403.625 873.399 402.375 873.399 400.9L874.995 402.048H866.595V399.64H876.115V400.032C876.115 402.291 875.714 404.185 874.911 405.716C874.127 407.228 873.026 408.367 871.607 409.132C870.207 409.897 868.602 410.28 866.791 410.28ZM879.655 410V390.568H882.287V410H879.655ZM881.447 410V407.592H892.591V410H881.447ZM881.447 401.208V398.912H891.667V401.208H881.447ZM881.447 392.976V390.568H892.451V392.976H881.447ZM901.083 410.28C899.552 410.28 898.245 410 897.163 409.44C896.08 408.88 895.119 408.068 894.279 407.004L896.071 405.212C896.687 406.071 897.396 406.724 898.199 407.172C899.001 407.601 899.991 407.816 901.167 407.816C902.324 407.816 903.248 407.564 903.939 407.06C904.648 406.556 905.003 405.865 905.003 404.988C905.003 404.26 904.835 403.672 904.499 403.224C904.163 402.776 903.705 402.412 903.127 402.132C902.567 401.833 901.951 401.572 901.279 401.348C900.607 401.105 899.935 400.853 899.263 400.592C898.591 400.312 897.975 399.976 897.415 399.584C896.855 399.173 896.397 398.641 896.043 397.988C895.707 397.335 895.539 396.513 895.539 395.524C895.539 394.423 895.8 393.489 896.323 392.724C896.864 391.94 897.592 391.343 898.507 390.932C899.44 390.503 900.485 390.288 901.643 390.288C902.912 390.288 904.051 390.54 905.059 391.044C906.067 391.529 906.888 392.173 907.523 392.976L905.731 394.768C905.152 394.096 904.527 393.592 903.855 393.256C903.201 392.92 902.445 392.752 901.587 392.752C900.541 392.752 899.711 392.985 899.095 393.452C898.479 393.9 898.171 394.535 898.171 395.356C898.171 396.009 898.339 396.541 898.675 396.952C899.029 397.344 899.487 397.68 900.047 397.96C900.607 398.24 901.223 398.501 901.895 398.744C902.585 398.968 903.267 399.22 903.939 399.5C904.611 399.78 905.227 400.135 905.787 400.564C906.347 400.993 906.795 401.553 907.131 402.244C907.485 402.916 907.663 403.765 907.663 404.792C907.663 406.509 907.065 407.853 905.871 408.824C904.695 409.795 903.099 410.28 901.083 410.28ZM723.58 445.28C722.198 445.28 720.91 445.028 719.716 444.524C718.521 444.001 717.476 443.283 716.58 442.368C715.684 441.435 714.984 440.361 714.48 439.148C713.994 437.935 713.752 436.637 713.752 435.256C713.752 433.856 713.994 432.559 714.48 431.364C714.984 430.151 715.674 429.087 716.552 428.172C717.448 427.257 718.484 426.548 719.66 426.044C720.854 425.54 722.142 425.288 723.524 425.288C724.905 425.288 726.184 425.54 727.36 426.044C728.554 426.548 729.6 427.257 730.496 428.172C731.392 429.087 732.092 430.151 732.596 431.364C733.1 432.577 733.352 433.884 733.352 435.284C733.352 436.665 733.1 437.963 732.596 439.176C732.092 440.389 731.392 441.453 730.496 442.368C729.618 443.283 728.582 444.001 727.388 444.524C726.212 445.028 724.942 445.28 723.58 445.28ZM723.524 442.76C724.924 442.76 726.146 442.443 727.192 441.808C728.256 441.155 729.096 440.268 729.712 439.148C730.328 438.009 730.636 436.712 730.636 435.256C730.636 434.173 730.458 433.184 730.104 432.288C729.749 431.373 729.254 430.58 728.62 429.908C727.985 429.236 727.238 428.723 726.38 428.368C725.521 427.995 724.569 427.808 723.524 427.808C722.142 427.808 720.92 428.125 719.856 428.76C718.81 429.395 717.98 430.272 717.364 431.392C716.766 432.512 716.468 433.8 716.468 435.256C716.468 436.339 716.636 437.347 716.972 438.28C717.326 439.195 717.812 439.988 718.428 440.66C719.062 441.313 719.809 441.827 720.668 442.2C721.545 442.573 722.497 442.76 723.524 442.76ZM738.726 437.44V435.144H744.018C744.746 435.144 745.39 434.995 745.95 434.696C746.529 434.397 746.977 433.977 747.294 433.436C747.63 432.895 747.798 432.251 747.798 431.504C747.798 430.757 747.63 430.113 747.294 429.572C746.977 429.031 746.529 428.611 745.95 428.312C745.39 428.013 744.746 427.864 744.018 427.864H738.726V425.568H744.186C745.381 425.568 746.445 425.811 747.378 426.296C748.33 426.781 749.077 427.472 749.618 428.368C750.178 429.245 750.458 430.291 750.458 431.504C750.458 432.699 750.178 433.744 749.618 434.64C749.077 435.517 748.33 436.208 747.378 436.712C746.445 437.197 745.381 437.44 744.186 437.44H738.726ZM736.962 445V425.568H739.594V445H736.962ZM755.488 437.44V435.144H760.78C761.508 435.144 762.152 434.995 762.712 434.696C763.29 434.397 763.738 433.977 764.056 433.436C764.392 432.895 764.56 432.251 764.56 431.504C764.56 430.757 764.392 430.113 764.056 429.572C763.738 429.031 763.29 428.611 762.712 428.312C762.152 428.013 761.508 427.864 760.78 427.864H755.488V425.568H760.948C762.142 425.568 763.206 425.811 764.14 426.296C765.092 426.781 765.838 427.472 766.38 428.368C766.94 429.245 767.22 430.291 767.22 431.504C767.22 432.699 766.94 433.744 766.38 434.64C765.838 435.517 765.092 436.208 764.14 436.712C763.206 437.197 762.142 437.44 760.948 437.44H755.488ZM753.724 445V425.568H756.356V445H753.724ZM779.552 445.28C778.171 445.28 776.883 445.028 775.688 444.524C774.494 444.001 773.448 443.283 772.552 442.368C771.656 441.435 770.956 440.361 770.452 439.148C769.967 437.935 769.724 436.637 769.724 435.256C769.724 433.856 769.967 432.559 770.452 431.364C770.956 430.151 771.647 429.087 772.524 428.172C773.42 427.257 774.456 426.548 775.632 426.044C776.827 425.54 778.115 425.288 779.496 425.288C780.878 425.288 782.156 425.54 783.332 426.044C784.527 426.548 785.572 427.257 786.468 428.172C787.364 429.087 788.064 430.151 788.568 431.364C789.072 432.577 789.324 433.884 789.324 435.284C789.324 436.665 789.072 437.963 788.568 439.176C788.064 440.389 787.364 441.453 786.468 442.368C785.591 443.283 784.555 444.001 783.36 444.524C782.184 445.028 780.915 445.28 779.552 445.28ZM779.496 442.76C780.896 442.76 782.119 442.443 783.164 441.808C784.228 441.155 785.068 440.268 785.684 439.148C786.3 438.009 786.608 436.712 786.608 435.256C786.608 434.173 786.431 433.184 786.076 432.288C785.722 431.373 785.227 430.58 784.592 429.908C783.958 429.236 783.211 428.723 782.352 428.368C781.494 427.995 780.542 427.808 779.496 427.808C778.115 427.808 776.892 428.125 775.828 428.76C774.783 429.395 773.952 430.272 773.336 431.392C772.739 432.512 772.44 433.8 772.44 435.256C772.44 436.339 772.608 437.347 772.944 438.28C773.299 439.195 773.784 439.988 774.4 440.66C775.035 441.313 775.782 441.827 776.64 442.2C777.518 442.573 778.47 442.76 779.496 442.76ZM794.699 436.544V434.332H799.963C801.101 434.332 801.979 434.043 802.595 433.464C803.211 432.885 803.519 432.101 803.519 431.112C803.519 430.179 803.211 429.404 802.595 428.788C801.997 428.172 801.129 427.864 799.991 427.864H794.699V425.568H800.075C801.307 425.568 802.38 425.811 803.295 426.296C804.209 426.763 804.909 427.407 805.395 428.228C805.899 429.049 806.151 429.992 806.151 431.056C806.151 432.157 805.899 433.119 805.395 433.94C804.909 434.761 804.209 435.405 803.295 435.872C802.38 436.32 801.307 436.544 800.075 436.544H794.699ZM792.935 445V425.568H795.567V445H792.935ZM804.135 445L797.079 436.292L799.571 435.424L807.467 445H804.135ZM814.302 445V426.128H816.934V445H814.302ZM807.694 427.976V425.568H823.514V427.976H807.694ZM833.656 445.28C832.219 445.28 830.931 444.963 829.792 444.328C828.672 443.675 827.785 442.788 827.132 441.668C826.479 440.529 826.152 439.241 826.152 437.804V425.568H828.784V437.748C828.784 438.775 828.999 439.661 829.428 440.408C829.857 441.155 830.436 441.733 831.164 442.144C831.911 442.555 832.741 442.76 833.656 442.76C834.608 442.76 835.439 442.555 836.148 442.144C836.876 441.733 837.445 441.155 837.856 440.408C838.285 439.661 838.5 438.784 838.5 437.776V425.568H841.16V437.832C841.16 439.269 840.833 440.548 840.18 441.668C839.527 442.788 838.64 443.675 837.52 444.328C836.4 444.963 835.112 445.28 833.656 445.28ZM845.489 445V425.568H847.337L848.121 428.62V445H845.489ZM858.929 445L847.001 429.068L847.337 425.568L859.293 441.472L858.929 445ZM858.929 445L858.145 442.116V425.568H860.777V445H858.929ZM865.368 445V425.568H868V445H865.368ZM877.739 445V426.128H880.371V445H877.739ZM871.131 427.976V425.568H886.951V427.976H871.131ZM890.087 445V425.568H892.719V445H890.087ZM897.306 445V425.568H899.938V445H897.306ZM899.098 445V442.592H910.242V445H899.098ZM899.098 436.208V433.912H909.318V436.208H899.098ZM899.098 427.976V425.568H910.102V427.976H899.098ZM918.733 445.28C917.203 445.28 915.896 445 914.813 444.44C913.731 443.88 912.769 443.068 911.929 442.004L913.721 440.212C914.337 441.071 915.047 441.724 915.849 442.172C916.652 442.601 917.641 442.816 918.817 442.816C919.975 442.816 920.899 442.564 921.589 442.06C922.299 441.556 922.653 440.865 922.653 439.988C922.653 439.26 922.485 438.672 922.149 438.224C921.813 437.776 921.356 437.412 920.777 437.132C920.217 436.833 919.601 436.572 918.929 436.348C918.257 436.105 917.585 435.853 916.913 435.592C916.241 435.312 915.625 434.976 915.065 434.584C914.505 434.173 914.048 433.641 913.693 432.988C913.357 432.335 913.189 431.513 913.189 430.524C913.189 429.423 913.451 428.489 913.973 427.724C914.515 426.94 915.243 426.343 916.157 425.932C917.091 425.503 918.136 425.288 919.293 425.288C920.563 425.288 921.701 425.54 922.709 426.044C923.717 426.529 924.539 427.173 925.173 427.976L923.381 429.768C922.803 429.096 922.177 428.592 921.505 428.256C920.852 427.92 920.096 427.752 919.237 427.752C918.192 427.752 917.361 427.985 916.745 428.452C916.129 428.9 915.821 429.535 915.821 430.356C915.821 431.009 915.989 431.541 916.325 431.952C916.68 432.344 917.137 432.68 917.697 432.96C918.257 433.24 918.873 433.501 919.545 433.744C920.236 433.968 920.917 434.22 921.589 434.5C922.261 434.78 922.877 435.135 923.437 435.564C923.997 435.993 924.445 436.553 924.781 437.244C925.136 437.916 925.313 438.765 925.313 439.792C925.313 441.509 924.716 442.853 923.521 443.824C922.345 444.795 920.749 445.28 918.733 445.28Z" fill="#FEFAE0"/>
</svg>
