<svg width="742" height="178" viewBox="0 0 742 178" fill="none" xmlns="http://www.w3.org/2000/svg">
<g filter="url(#filter0_ddd_665_3446)">
<rect width="158" height="158" transform="translate(10 2)" fill="#8BADAF"/>
<path d="M24.4336 33.1396V22.1967H25.9158V33.1396H24.4336ZM25.4427 33.1396V31.7836H31.3084V33.1396H25.4427ZM32.7237 33.1396V25.6499H34.1428V33.1396H32.7237ZM33.4333 24.1519C33.1705 24.1519 32.955 24.0678 32.7868 23.8996C32.6186 23.7209 32.5345 23.5002 32.5345 23.2374C32.5345 22.9851 32.6186 22.7749 32.7868 22.6067C32.955 22.428 33.1705 22.3386 33.4333 22.3386C33.6961 22.3386 33.9116 22.428 34.0798 22.6067C34.2479 22.7749 34.332 22.9851 34.332 23.2374C34.332 23.5002 34.2479 23.7209 34.0798 23.8996C33.9116 24.0678 33.6961 24.1519 33.4333 24.1519ZM36.0607 33.1396V25.6499H37.4798V33.1396H36.0607ZM41.1222 33.1396V28.6143C41.1222 28.0571 40.9488 27.6209 40.6019 27.3055C40.2655 26.9796 39.8398 26.8167 39.3247 26.8167C38.9778 26.8167 38.6677 26.8903 38.3944 27.0375C38.1211 27.1846 37.9003 27.3896 37.7321 27.6524C37.5639 27.9152 37.4798 28.2306 37.4798 28.5985L36.8964 28.3147C36.8964 27.747 37.0173 27.253 37.2591 26.8325C37.5114 26.412 37.853 26.0861 38.284 25.8549C38.715 25.6131 39.1985 25.4922 39.7346 25.4922C40.2602 25.4922 40.7333 25.6078 41.1538 25.8391C41.5848 26.0704 41.9211 26.3962 42.1629 26.8167C42.4152 27.2372 42.5413 27.7365 42.5413 28.3147V33.1396H41.1222ZM46.1837 33.1396V28.6143C46.1837 28.0571 46.0103 27.6209 45.6634 27.3055C45.327 26.9796 44.9065 26.8167 44.402 26.8167C44.0551 26.8167 43.7397 26.8903 43.4559 27.0375C43.1826 27.1846 42.9618 27.3896 42.7936 27.6524C42.6254 27.9152 42.5413 28.2306 42.5413 28.5985L41.7372 28.3147C41.7687 27.7365 41.9211 27.2424 42.1944 26.8325C42.4783 26.412 42.8409 26.0861 43.2824 25.8549C43.7239 25.6131 44.2075 25.4922 44.7331 25.4922C45.2797 25.4922 45.7685 25.6078 46.1995 25.8391C46.6305 26.0704 46.9721 26.3962 47.2244 26.8167C47.4872 27.2372 47.6186 27.7418 47.6186 28.3304V33.1396H46.1837ZM49.392 33.1396V25.6499H50.8111V33.1396H49.392ZM50.1016 24.1519C49.8388 24.1519 49.6233 24.0678 49.4551 23.8996C49.2869 23.7209 49.2028 23.5002 49.2028 23.2374C49.2028 22.9851 49.2869 22.7749 49.4551 22.6067C49.6233 22.428 49.8388 22.3386 50.1016 22.3386C50.3644 22.3386 50.5799 22.428 50.7481 22.6067C50.9162 22.7749 51.0003 22.9851 51.0003 23.2374C51.0003 23.5002 50.9162 23.7209 50.7481 23.8996C50.5799 24.0678 50.3644 24.1519 50.1016 24.1519ZM53.8801 33.1396V22.5121H55.2992V33.1396H53.8801ZM52.0352 26.9429V25.6499H57.144V26.9429H52.0352ZM61.5987 33.2973C60.8524 33.2973 60.1796 33.1291 59.5804 32.7928C58.9813 32.4459 58.5082 31.9781 58.1613 31.3894C57.8144 30.8007 57.641 30.1332 57.641 29.3869C57.641 28.651 57.8092 27.9888 58.1456 27.4001C58.4925 26.8115 58.955 26.3489 59.5331 26.0125C60.1218 25.6656 60.7788 25.4922 61.5041 25.4922C62.1979 25.4922 62.8076 25.6499 63.3332 25.9652C63.8693 26.2806 64.2845 26.7168 64.5789 27.274C64.8837 27.8311 65.0361 28.4618 65.0361 29.1661C65.0361 29.2712 65.0309 29.3869 65.0204 29.513C65.0099 29.6287 64.9888 29.7653 64.9573 29.923H58.6344V28.7404H64.2004L63.6801 29.1977C63.6801 28.6931 63.5908 28.2674 63.412 27.9205C63.2333 27.5631 62.9811 27.2897 62.6552 27.1005C62.3293 26.9008 61.9351 26.8009 61.4726 26.8009C60.989 26.8009 60.5633 26.9061 60.1954 27.1163C59.8275 27.3265 59.5436 27.6209 59.3439 27.9993C59.1442 28.3777 59.0443 28.8245 59.0443 29.3396C59.0443 29.8652 59.1495 30.3277 59.3597 30.7272C59.5699 31.1161 59.8695 31.4209 60.2585 31.6417C60.6474 31.8519 61.0942 31.9571 61.5987 31.9571C62.0192 31.9571 62.4029 31.8835 62.7498 31.7363C63.1072 31.5891 63.412 31.3684 63.6643 31.074L64.5789 32.0044C64.2215 32.4248 63.78 32.7455 63.2544 32.9662C62.7393 33.187 62.1874 33.2973 61.5987 33.2973ZM69.5794 33.2973C68.8856 33.2973 68.2654 33.1291 67.7188 32.7928C67.1722 32.4459 66.7359 31.9781 66.41 31.3894C66.0947 30.8007 65.937 30.1385 65.937 29.4026C65.937 28.6668 66.0947 28.0046 66.41 27.4159C66.7359 26.8272 67.1722 26.3594 67.7188 26.0125C68.2654 25.6656 68.8856 25.4922 69.5794 25.4922C70.1365 25.4922 70.6411 25.6131 71.0931 25.8549C71.5451 26.0861 71.9078 26.412 72.1811 26.8325C72.4649 27.2424 72.6226 27.7207 72.6542 28.2674V30.5222C72.6226 31.0583 72.4702 31.5366 72.1969 31.9571C71.9236 32.3775 71.5609 32.7087 71.1089 32.9504C70.6569 33.1817 70.147 33.2973 69.5794 33.2973ZM69.8159 31.9571C70.289 31.9571 70.6989 31.8467 71.0458 31.6259C71.4032 31.4052 71.6818 31.1056 71.8815 30.7272C72.0812 30.3382 72.1811 29.8967 72.1811 29.4026C72.1811 28.8876 72.076 28.4408 71.8658 28.0624C71.666 27.6839 71.3875 27.3844 71.0301 27.1636C70.6832 26.9429 70.2732 26.8325 69.8002 26.8325C69.3271 26.8325 68.9119 26.9429 68.5545 27.1636C68.1971 27.3844 67.9133 27.6892 67.703 28.0781C67.5033 28.4566 67.4034 28.8928 67.4034 29.3869C67.4034 29.8915 67.5033 30.3382 67.703 30.7272C67.9133 31.1056 68.1971 31.4052 68.5545 31.6259C68.9224 31.8467 69.3429 31.9571 69.8159 31.9571ZM73.5214 33.1396H72.0865V31.1214L72.3546 29.2923L72.0865 27.479V21.8813H73.5214V33.1396ZM79.5927 33.1396V24.5304C79.5927 23.9732 79.7135 23.4897 79.9553 23.0797C80.1971 22.6592 80.5282 22.3281 80.9487 22.0863C81.3797 21.8446 81.879 21.7237 82.4467 21.7237C82.8776 21.7237 83.2508 21.7972 83.5662 21.9444C83.8815 22.0916 84.1706 22.3071 84.4334 22.5909L83.5031 23.5054C83.3665 23.3583 83.214 23.2479 83.0458 23.1743C82.8776 23.0902 82.6727 23.0482 82.4309 23.0482C81.9789 23.0482 81.6267 23.1796 81.3744 23.4424C81.1327 23.7052 81.0118 24.0678 81.0118 24.5304V33.1396H79.5927ZM77.7478 26.9429V25.6499H83.3927V26.9429H77.7478ZM87.6566 33.2973C87.0469 33.2973 86.495 33.1607 86.001 32.8874C85.5174 32.6035 85.139 32.2146 84.8657 31.7205C84.5924 31.2265 84.4557 30.6536 84.4557 30.0018V25.6499H85.8748V29.9388C85.8748 30.3487 85.9432 30.7061 86.0798 31.011C86.227 31.3053 86.4372 31.5313 86.7105 31.689C86.9838 31.8467 87.3044 31.9255 87.6724 31.9255C88.2295 31.9255 88.6657 31.7521 88.9811 31.4052C89.2965 31.0478 89.4541 30.559 89.4541 29.9388V25.6499H90.8733V30.0018C90.8733 30.6536 90.7366 31.2265 90.4633 31.7205C90.19 32.2146 89.8116 32.6035 89.328 32.8874C88.855 33.1607 88.2978 33.2973 87.6566 33.2973ZM97.8998 33.1396V28.7719C97.8998 28.2043 97.7211 27.7365 97.3637 27.3686C97.0063 27.0007 96.5438 26.8167 95.9762 26.8167C95.5977 26.8167 95.2613 26.9008 94.967 27.069C94.6727 27.2372 94.4414 27.4684 94.2732 27.7628C94.105 28.0571 94.0209 28.3935 94.0209 28.7719L93.4375 28.4408C93.4375 27.8732 93.5637 27.3686 93.8159 26.9271C94.0682 26.4856 94.4204 26.1387 94.8724 25.8864C95.3244 25.6236 95.8342 25.4922 96.4019 25.4922C96.9695 25.4922 97.4689 25.6341 97.8998 25.9179C98.3413 26.2018 98.6882 26.5749 98.9405 27.0375C99.1928 27.4895 99.319 27.973 99.319 28.4881V33.1396H97.8998ZM92.6018 33.1396V25.6499H94.0209V33.1396H92.6018ZM104.236 33.2973C103.542 33.2973 102.922 33.1291 102.376 32.7928C101.829 32.4459 101.393 31.9781 101.067 31.3894C100.752 30.8007 100.594 30.1385 100.594 29.4026C100.594 28.6668 100.752 28.0046 101.067 27.4159C101.393 26.8272 101.829 26.3594 102.376 26.0125C102.922 25.6656 103.542 25.4922 104.236 25.4922C104.793 25.4922 105.298 25.6131 105.75 25.8549C106.202 26.0861 106.565 26.412 106.838 26.8325C107.122 27.2424 107.279 27.7207 107.311 28.2674V30.5222C107.279 31.0583 107.127 31.5366 106.854 31.9571C106.58 32.3775 106.218 32.7087 105.766 32.9504C105.314 33.1817 104.804 33.2973 104.236 33.2973ZM104.473 31.9571C104.946 31.9571 105.356 31.8467 105.703 31.6259C106.06 31.4052 106.339 31.1056 106.538 30.7272C106.738 30.3382 106.838 29.8967 106.838 29.4026C106.838 28.8876 106.733 28.4408 106.523 28.0624C106.323 27.6839 106.044 27.3844 105.687 27.1636C105.34 26.9429 104.93 26.8325 104.457 26.8325C103.984 26.8325 103.569 26.9429 103.211 27.1636C102.854 27.3844 102.57 27.6892 102.36 28.0781C102.16 28.4566 102.06 28.8928 102.06 29.3869C102.06 29.8915 102.16 30.3382 102.36 30.7272C102.57 31.1056 102.854 31.4052 103.211 31.6259C103.579 31.8467 104 31.9571 104.473 31.9571ZM108.178 33.1396H106.743V31.1214L107.011 29.2923L106.743 27.479V21.8813H108.178V33.1396ZM112.452 33.2973C112.031 33.2973 111.632 33.2448 111.253 33.1396C110.886 33.024 110.544 32.8663 110.229 32.6666C109.913 32.4564 109.64 32.2093 109.409 31.9255L110.323 31.011C110.596 31.3474 110.912 31.5996 111.269 31.7678C111.627 31.9255 112.026 32.0044 112.468 32.0044C112.909 32.0044 113.251 31.9308 113.492 31.7836C113.734 31.6259 113.855 31.4104 113.855 31.1371C113.855 30.8638 113.755 30.6536 113.556 30.5064C113.366 30.3487 113.119 30.2226 112.814 30.128C112.51 30.0229 112.184 29.923 111.837 29.8284C111.5 29.7233 111.18 29.5919 110.875 29.4342C110.57 29.2765 110.318 29.061 110.118 28.7877C109.929 28.5144 109.834 28.1517 109.834 27.6997C109.834 27.2477 109.945 26.8588 110.165 26.5329C110.386 26.1965 110.691 25.939 111.08 25.7603C111.479 25.5816 111.958 25.4922 112.515 25.4922C113.104 25.4922 113.624 25.5973 114.076 25.8076C114.538 26.0073 114.917 26.3121 115.211 26.7221L114.297 27.6366C114.086 27.3633 113.824 27.1531 113.508 27.0059C113.203 26.8588 112.857 26.7852 112.468 26.7852C112.058 26.7852 111.742 26.8588 111.521 27.0059C111.311 27.1426 111.206 27.337 111.206 27.5893C111.206 27.8416 111.301 28.0361 111.49 28.1727C111.679 28.3094 111.926 28.425 112.231 28.5196C112.546 28.6143 112.872 28.7141 113.209 28.8192C113.545 28.9138 113.866 29.0452 114.171 29.2134C114.475 29.3816 114.722 29.6076 114.912 29.8915C115.111 30.1753 115.211 30.5485 115.211 31.011C115.211 31.7153 114.959 32.2724 114.454 32.6824C113.96 33.0923 113.293 33.2973 112.452 33.2973Z" fill="#242424"/>
<path d="M23.7706 144.348V138.614H27.3654V139.359H24.6357V141.106H27.1778V141.848H24.6357V143.603H27.399V144.348H23.7706ZM31.9591 140.047L30.3997 144.348H29.5038L27.9416 140.047H28.8403L29.9293 143.357H29.9741L31.0604 140.047H31.9591ZM34.2291 146.05C33.8876 146.05 33.5936 146.005 33.3472 145.915C33.1027 145.826 32.903 145.707 32.7481 145.56C32.5932 145.412 32.4774 145.251 32.4009 145.076L33.1204 144.779C33.1708 144.861 33.238 144.948 33.322 145.039C33.4079 145.133 33.5236 145.212 33.6692 145.277C33.8166 145.342 34.0061 145.375 34.2375 145.375C34.5548 145.375 34.8171 145.298 35.0242 145.143C35.2314 144.99 35.335 144.745 35.335 144.409V143.564H35.2818C35.2314 143.655 35.1586 143.757 35.0634 143.869C34.9701 143.981 34.8413 144.078 34.6771 144.16C34.5128 144.242 34.2991 144.283 34.0359 144.283C33.6962 144.283 33.3901 144.204 33.1176 144.045C32.847 143.885 32.6324 143.649 32.4737 143.337C32.3169 143.023 32.2385 142.638 32.2385 142.181C32.2385 141.723 32.316 141.331 32.4709 141.005C32.6277 140.678 32.8423 140.428 33.1148 140.254C33.3873 140.079 33.6962 139.991 34.0415 139.991C34.3084 139.991 34.524 140.036 34.6883 140.126C34.8525 140.213 34.9804 140.316 35.0718 140.434C35.1652 140.551 35.237 140.655 35.2874 140.744H35.349V140.047H36.1693V144.443C36.1693 144.812 36.0835 145.116 35.9117 145.353C35.74 145.59 35.5077 145.765 35.2146 145.879C34.9234 145.993 34.5949 146.05 34.2291 146.05ZM34.2207 143.589C34.4615 143.589 34.6649 143.533 34.8311 143.421C34.999 143.307 35.126 143.145 35.2118 142.934C35.2995 142.721 35.3434 142.466 35.3434 142.169C35.3434 141.88 35.3005 141.625 35.2146 141.405C35.1288 141.185 35.0028 141.013 34.8367 140.89C34.6705 140.765 34.4652 140.702 34.2207 140.702C33.9687 140.702 33.7588 140.768 33.5908 140.898C33.4228 141.027 33.2959 141.203 33.21 141.425C33.126 141.647 33.084 141.895 33.084 142.169C33.084 142.451 33.127 142.699 33.2128 142.911C33.2987 143.124 33.4256 143.29 33.5936 143.41C33.7634 143.529 33.9725 143.589 34.2207 143.589ZM38.972 144.434C38.5483 144.434 38.1834 144.344 37.8773 144.163C37.573 143.98 37.3379 143.723 37.1717 143.393C37.0075 143.061 36.9254 142.672 36.9254 142.225C36.9254 141.785 37.0075 141.397 37.1717 141.061C37.3379 140.725 37.5693 140.463 37.8661 140.274C38.1647 140.086 38.5137 139.991 38.9132 139.991C39.1558 139.991 39.391 140.031 39.6187 140.112C39.8464 140.192 40.0508 140.318 40.2318 140.49C40.4129 140.661 40.5557 140.884 40.6602 141.159C40.7647 141.431 40.817 141.763 40.817 142.153V142.449H37.3985V141.822H39.9966C39.9966 141.602 39.9519 141.407 39.8623 141.237C39.7727 141.065 39.6467 140.93 39.4843 140.831C39.3238 140.732 39.1353 140.683 38.9188 140.683C38.6836 140.683 38.4783 140.741 38.3028 140.856C38.1292 140.97 37.9949 141.12 37.8997 141.304C37.8063 141.487 37.7597 141.686 37.7597 141.901V142.391C37.7597 142.678 37.8101 142.923 37.9109 143.124C38.0135 143.326 38.1563 143.48 38.3392 143.586C38.5221 143.691 38.7358 143.743 38.9804 143.743C39.139 143.743 39.2837 143.721 39.4143 143.676C39.545 143.629 39.6579 143.56 39.7531 143.469C39.8483 143.377 39.9211 143.264 39.9714 143.13L40.7638 143.273C40.7003 143.506 40.5865 143.71 40.4222 143.886C40.2598 144.059 40.0554 144.195 39.8091 144.292C39.5646 144.387 39.2855 144.434 38.972 144.434ZM42.4094 141.794V144.348H41.5723V140.047H42.3758V140.747H42.429C42.5279 140.52 42.6829 140.337 42.8938 140.198C43.1066 140.06 43.3744 139.991 43.6973 139.991C43.9903 139.991 44.247 140.053 44.4672 140.176C44.6875 140.297 44.8582 140.478 44.9796 140.719C45.1009 140.96 45.1615 141.258 45.1615 141.612V144.348H44.3244V141.713C44.3244 141.401 44.2432 141.158 44.0808 140.982C43.9185 140.805 43.6954 140.716 43.4117 140.716C43.2176 140.716 43.045 140.758 42.8938 140.842C42.7445 140.926 42.6259 141.05 42.5382 141.212C42.4524 141.373 42.4094 141.567 42.4094 141.794ZM46.1108 144.348V140.047H46.9479V144.348H46.1108ZM46.5335 139.384C46.3879 139.384 46.2629 139.335 46.1584 139.238C46.0557 139.139 46.0044 139.022 46.0044 138.885C46.0044 138.747 46.0557 138.63 46.1584 138.533C46.2629 138.434 46.3879 138.384 46.5335 138.384C46.6791 138.384 46.8032 138.434 46.9059 138.533C47.0104 138.63 47.0627 138.747 47.0627 138.885C47.0627 139.022 47.0104 139.139 46.9059 139.238C46.8032 139.335 46.6791 139.384 46.5335 139.384ZM49.1521 144.443C48.8796 144.443 48.6332 144.392 48.413 144.292C48.1927 144.189 48.0182 144.041 47.8894 143.847C47.7625 143.652 47.699 143.414 47.699 143.133C47.699 142.89 47.7457 142.69 47.839 142.533C47.9323 142.377 48.0583 142.253 48.217 142.161C48.3756 142.07 48.5529 142.001 48.7489 141.954C48.9449 141.907 49.1446 141.872 49.3481 141.848C49.6056 141.818 49.8147 141.793 49.9752 141.775C50.1357 141.754 50.2524 141.722 50.3252 141.677C50.3979 141.632 50.4343 141.559 50.4343 141.458V141.439C50.4343 141.194 50.3653 141.005 50.2272 140.87C50.0909 140.736 49.8875 140.669 49.6168 140.669C49.335 140.669 49.1129 140.731 48.9505 140.856C48.79 140.98 48.6789 141.117 48.6173 141.268L47.8306 141.089C47.9239 140.827 48.0602 140.617 48.2394 140.456C48.4204 140.294 48.6285 140.176 48.8637 140.103C49.0989 140.029 49.3462 139.991 49.6056 139.991C49.7773 139.991 49.9593 140.012 50.1516 140.053C50.3457 140.092 50.5267 140.165 50.6947 140.271C50.8646 140.378 51.0036 140.53 51.1119 140.728C51.2201 140.924 51.2743 141.178 51.2743 141.492V144.348H50.4567V143.76H50.4231C50.369 143.868 50.2878 143.974 50.1796 144.079C50.0713 144.183 49.9323 144.27 49.7624 144.339C49.5926 144.408 49.3891 144.443 49.1521 144.443ZM49.3341 143.771C49.5655 143.771 49.7634 143.725 49.9276 143.634C50.0937 143.542 50.2197 143.423 50.3056 143.275C50.3933 143.126 50.4371 142.966 50.4371 142.797V142.242C50.4073 142.272 50.3494 142.3 50.2636 142.326C50.1796 142.351 50.0834 142.372 49.9752 142.391C49.8669 142.407 49.7615 142.423 49.6588 142.438C49.5562 142.451 49.4703 142.463 49.4013 142.472C49.2389 142.492 49.0905 142.527 48.9561 142.575C48.8236 142.624 48.7172 142.694 48.6369 142.785C48.5585 142.875 48.5193 142.994 48.5193 143.144C48.5193 143.351 48.5959 143.508 48.7489 143.614C48.902 143.719 49.097 143.771 49.3341 143.771Z" fill="black" fill-opacity="0.4"/>
</g>
<g filter="url(#filter1_ddd_665_3446)">
<rect width="158" height="158" transform="translate(198 2)" fill="#8BADAF"/>
<path d="M211.629 33.1396L216.108 22.1967H217.18L221.642 33.1396H220.034L216.36 23.8839H216.912L213.206 33.1396H211.629ZM213.758 30.6641V29.3711H219.513V30.6641H213.758ZM225.931 33.2973C225.195 33.2973 224.528 33.1239 223.929 32.777C223.34 32.4301 222.872 31.9623 222.525 31.3736C222.189 30.7745 222.021 30.1122 222.021 29.3869C222.021 28.651 222.189 27.9888 222.525 27.4001C222.872 26.8115 223.34 26.3489 223.929 26.0125C224.528 25.6656 225.195 25.4922 225.931 25.4922C226.509 25.4922 227.045 25.6026 227.54 25.8233C228.034 26.0336 228.459 26.3437 228.817 26.7536L227.871 27.6997C227.639 27.4264 227.356 27.2214 227.019 27.0848C226.693 26.9376 226.331 26.864 225.931 26.864C225.458 26.864 225.038 26.9744 224.67 27.1951C224.302 27.4054 224.013 27.6997 223.803 28.0781C223.592 28.4566 223.487 28.8928 223.487 29.3869C223.487 29.8809 223.592 30.3172 223.803 30.6956C224.013 31.074 224.302 31.3736 224.67 31.5944C225.038 31.8151 225.458 31.9255 225.931 31.9255C226.331 31.9255 226.693 31.8572 227.019 31.7205C227.356 31.5734 227.645 31.3631 227.886 31.0898L228.817 32.0359C228.47 32.4353 228.044 32.7455 227.54 32.9662C227.045 33.187 226.509 33.2973 225.931 33.2973ZM233.318 33.2973C232.583 33.2973 231.915 33.1239 231.316 32.777C230.727 32.4301 230.259 31.9623 229.912 31.3736C229.576 30.7745 229.408 30.1122 229.408 29.3869C229.408 28.651 229.576 27.9888 229.912 27.4001C230.259 26.8115 230.727 26.3489 231.316 26.0125C231.915 25.6656 232.583 25.4922 233.318 25.4922C233.897 25.4922 234.433 25.6026 234.927 25.8233C235.421 26.0336 235.846 26.3437 236.204 26.7536L235.258 27.6997C235.027 27.4264 234.743 27.2214 234.406 27.0848C234.08 26.9376 233.718 26.864 233.318 26.864C232.845 26.864 232.425 26.9744 232.057 27.1951C231.689 27.4054 231.4 27.6997 231.19 28.0781C230.979 28.4566 230.874 28.8928 230.874 29.3869C230.874 29.8809 230.979 30.3172 231.19 30.6956C231.4 31.074 231.689 31.3736 232.057 31.5944C232.425 31.8151 232.845 31.9255 233.318 31.9255C233.718 31.9255 234.08 31.8572 234.406 31.7205C234.743 31.5734 235.032 31.3631 235.274 31.0898L236.204 32.0359C235.857 32.4353 235.431 32.7455 234.927 32.9662C234.433 33.187 233.897 33.2973 233.318 33.2973ZM240.706 33.2973C239.97 33.2973 239.307 33.1239 238.719 32.777C238.13 32.4301 237.662 31.9623 237.315 31.3736C236.969 30.7745 236.795 30.1069 236.795 29.3711C236.795 28.6458 236.969 27.994 237.315 27.4159C237.662 26.8272 238.13 26.3594 238.719 26.0125C239.307 25.6656 239.97 25.4922 240.706 25.4922C241.431 25.4922 242.088 25.6656 242.676 26.0125C243.276 26.3489 243.749 26.8115 244.096 27.4001C244.443 27.9888 244.616 28.6458 244.616 29.3711C244.616 30.1069 244.443 30.7745 244.096 31.3736C243.749 31.9623 243.276 32.4301 242.676 32.777C242.088 33.1239 241.431 33.2973 240.706 33.2973ZM240.706 31.9255C241.179 31.9255 241.599 31.8151 241.967 31.5944C242.335 31.3736 242.624 31.074 242.834 30.6956C243.044 30.3067 243.15 29.8652 243.15 29.3711C243.15 28.8876 243.039 28.4566 242.818 28.0781C242.608 27.6997 242.319 27.4054 241.951 27.1951C241.594 26.9744 241.179 26.864 240.706 26.864C240.232 26.864 239.812 26.9744 239.444 27.1951C239.076 27.4054 238.787 27.6997 238.577 28.0781C238.367 28.4566 238.261 28.8876 238.261 29.3711C238.261 29.8652 238.367 30.3067 238.577 30.6956C238.787 31.074 239.076 31.3736 239.444 31.5944C239.812 31.8151 240.232 31.9255 240.706 31.9255ZM246.041 33.1396V25.6499H247.461V33.1396H246.041ZM251.103 33.1396V28.6143C251.103 28.0571 250.93 27.6209 250.583 27.3055C250.246 26.9796 249.821 26.8167 249.305 26.8167C248.959 26.8167 248.648 26.8903 248.375 27.0375C248.102 27.1846 247.881 27.3896 247.713 27.6524C247.545 27.9152 247.461 28.2306 247.461 28.5985L246.877 28.3147C246.877 27.747 246.998 27.253 247.24 26.8325C247.492 26.412 247.834 26.0861 248.265 25.8549C248.696 25.6131 249.179 25.4922 249.715 25.4922C250.241 25.4922 250.714 25.6078 251.135 25.8391C251.565 26.0704 251.902 26.3962 252.144 26.8167C252.396 27.2372 252.522 27.7365 252.522 28.3147V33.1396H251.103ZM256.164 33.1396V28.6143C256.164 28.0571 255.991 27.6209 255.644 27.3055C255.308 26.9796 254.887 26.8167 254.383 26.8167C254.036 26.8167 253.72 26.8903 253.437 27.0375C253.163 27.1846 252.943 27.3896 252.774 27.6524C252.606 27.9152 252.522 28.2306 252.522 28.5985L251.718 28.3147C251.749 27.7365 251.902 27.2424 252.175 26.8325C252.459 26.412 252.822 26.0861 253.263 25.8549C253.705 25.6131 254.188 25.4922 254.714 25.4922C255.26 25.4922 255.749 25.6078 256.18 25.8391C256.611 26.0704 256.953 26.3962 257.205 26.8167C257.468 27.2372 257.599 27.7418 257.599 28.3304V33.1396H256.164ZM259.357 33.1396V25.6499H260.776V33.1396H259.357ZM264.419 33.1396V28.6143C264.419 28.0571 264.245 27.6209 263.898 27.3055C263.562 26.9796 263.136 26.8167 262.621 26.8167C262.274 26.8167 261.964 26.8903 261.691 27.0375C261.417 27.1846 261.197 27.3896 261.028 27.6524C260.86 27.9152 260.776 28.2306 260.776 28.5985L260.193 28.3147C260.193 27.747 260.314 27.253 260.555 26.8325C260.808 26.412 261.149 26.0861 261.58 25.8549C262.011 25.6131 262.495 25.4922 263.031 25.4922C263.557 25.4922 264.03 25.6078 264.45 25.8391C264.881 26.0704 265.217 26.3962 265.459 26.8167C265.711 27.2372 265.838 27.7365 265.838 28.3147V33.1396H264.419ZM269.48 33.1396V28.6143C269.48 28.0571 269.307 27.6209 268.96 27.3055C268.623 26.9796 268.203 26.8167 267.698 26.8167C267.351 26.8167 267.036 26.8903 266.752 27.0375C266.479 27.1846 266.258 27.3896 266.09 27.6524C265.922 27.9152 265.838 28.2306 265.838 28.5985L265.033 28.3147C265.065 27.7365 265.217 27.2424 265.491 26.8325C265.775 26.412 266.137 26.0861 266.579 25.8549C267.02 25.6131 267.504 25.4922 268.029 25.4922C268.576 25.4922 269.065 25.6078 269.496 25.8391C269.927 26.0704 270.268 26.3962 270.521 26.8167C270.783 27.2372 270.915 27.7418 270.915 28.3304V33.1396H269.48ZM276.094 33.2973C275.358 33.2973 274.696 33.1239 274.107 32.777C273.519 32.4301 273.051 31.9623 272.704 31.3736C272.357 30.7745 272.184 30.1069 272.184 29.3711C272.184 28.6458 272.357 27.994 272.704 27.4159C273.051 26.8272 273.519 26.3594 274.107 26.0125C274.696 25.6656 275.358 25.4922 276.094 25.4922C276.819 25.4922 277.476 25.6656 278.065 26.0125C278.664 26.3489 279.137 26.8115 279.484 27.4001C279.831 27.9888 280.005 28.6458 280.005 29.3711C280.005 30.1069 279.831 30.7745 279.484 31.3736C279.137 31.9623 278.664 32.4301 278.065 32.777C277.476 33.1239 276.819 33.2973 276.094 33.2973ZM276.094 31.9255C276.567 31.9255 276.988 31.8151 277.356 31.5944C277.724 31.3736 278.013 31.074 278.223 30.6956C278.433 30.3067 278.538 29.8652 278.538 29.3711C278.538 28.8876 278.428 28.4566 278.207 28.0781C277.997 27.6997 277.708 27.4054 277.34 27.1951C276.982 26.9744 276.567 26.864 276.094 26.864C275.621 26.864 275.201 26.9744 274.833 27.1951C274.465 27.4054 274.176 27.6997 273.965 28.0781C273.755 28.4566 273.65 28.8876 273.65 29.3711C273.65 29.8652 273.755 30.3067 273.965 30.6956C274.176 31.074 274.465 31.3736 274.833 31.5944C275.201 31.8151 275.621 31.9255 276.094 31.9255ZM284.599 33.2973C283.906 33.2973 283.285 33.1291 282.739 32.7928C282.192 32.4459 281.756 31.9781 281.43 31.3894C281.115 30.8007 280.957 30.1385 280.957 29.4026C280.957 28.6668 281.115 28.0046 281.43 27.4159C281.756 26.8272 282.192 26.3594 282.739 26.0125C283.285 25.6656 283.906 25.4922 284.599 25.4922C285.157 25.4922 285.661 25.6131 286.113 25.8549C286.565 26.0861 286.928 26.412 287.201 26.8325C287.485 27.2424 287.643 27.7207 287.674 28.2674V30.5222C287.643 31.0583 287.49 31.5366 287.217 31.9571C286.944 32.3775 286.581 32.7087 286.129 32.9504C285.677 33.1817 285.167 33.2973 284.599 33.2973ZM284.836 31.9571C285.309 31.9571 285.719 31.8467 286.066 31.6259C286.423 31.4052 286.702 31.1056 286.902 30.7272C287.101 30.3382 287.201 29.8967 287.201 29.4026C287.201 28.8876 287.096 28.4408 286.886 28.0624C286.686 27.6839 286.408 27.3844 286.05 27.1636C285.703 26.9429 285.293 26.8325 284.82 26.8325C284.347 26.8325 283.932 26.9429 283.575 27.1636C283.217 27.3844 282.933 27.6892 282.723 28.0781C282.523 28.4566 282.424 28.8928 282.424 29.3869C282.424 29.8915 282.523 30.3382 282.723 30.7272C282.933 31.1056 283.217 31.4052 283.575 31.6259C283.942 31.8467 284.363 31.9571 284.836 31.9571ZM288.541 33.1396H287.107V31.1214L287.375 29.2923L287.107 27.479V21.8813H288.541V33.1396ZM293.619 33.2973C292.936 33.2973 292.316 33.1291 291.759 32.7928C291.201 32.4459 290.76 31.9781 290.434 31.3894C290.119 30.8007 289.961 30.1385 289.961 29.4026C289.961 28.6668 290.119 28.0046 290.434 27.4159C290.76 26.8272 291.196 26.3594 291.743 26.0125C292.3 25.6656 292.925 25.4922 293.619 25.4922C294.187 25.4922 294.691 25.6131 295.133 25.8549C295.585 26.0861 295.948 26.412 296.221 26.8325C296.494 27.2424 296.647 27.7207 296.678 28.2674V30.5222C296.647 31.0583 296.494 31.5366 296.221 31.9571C295.958 32.3775 295.601 32.7087 295.149 32.9504C294.707 33.1817 294.197 33.2973 293.619 33.2973ZM293.856 31.9571C294.56 31.9571 295.128 31.7205 295.559 31.2475C295.99 30.7639 296.205 30.149 296.205 29.4026C296.205 28.8876 296.105 28.4408 295.906 28.0624C295.716 27.6734 295.443 27.3738 295.086 27.1636C294.728 26.9429 294.313 26.8325 293.84 26.8325C293.367 26.8325 292.946 26.9429 292.579 27.1636C292.221 27.3844 291.937 27.6892 291.727 28.0781C291.527 28.4566 291.427 28.8928 291.427 29.3869C291.427 29.8915 291.527 30.3382 291.727 30.7272C291.937 31.1056 292.226 31.4052 292.594 31.6259C292.962 31.8467 293.383 31.9571 293.856 31.9571ZM296.111 33.1396V31.1214L296.379 29.2923L296.111 27.479V25.6499H297.545V33.1396H296.111ZM300.558 33.1396V22.5121H301.977V33.1396H300.558ZM298.714 26.9429V25.6499H303.822V26.9429H298.714ZM305.055 33.1396V25.6499H306.474V33.1396H305.055ZM305.764 24.1519C305.502 24.1519 305.286 24.0678 305.118 23.8996C304.95 23.7209 304.866 23.5002 304.866 23.2374C304.866 22.9851 304.95 22.7749 305.118 22.6067C305.286 22.428 305.502 22.3386 305.764 22.3386C306.027 22.3386 306.243 22.428 306.411 22.6067C306.579 22.7749 306.663 22.9851 306.663 23.2374C306.663 23.5002 306.579 23.7209 306.411 23.8996C306.243 24.0678 306.027 24.1519 305.764 24.1519ZM311.813 33.2973C311.078 33.2973 310.415 33.1239 309.827 32.777C309.238 32.4301 308.77 31.9623 308.423 31.3736C308.076 30.7745 307.903 30.1069 307.903 29.3711C307.903 28.6458 308.076 27.994 308.423 27.4159C308.77 26.8272 309.238 26.3594 309.827 26.0125C310.415 25.6656 311.078 25.4922 311.813 25.4922C312.539 25.4922 313.196 25.6656 313.784 26.0125C314.384 26.3489 314.857 26.8115 315.204 27.4001C315.55 27.9888 315.724 28.6458 315.724 29.3711C315.724 30.1069 315.55 30.7745 315.204 31.3736C314.857 31.9623 314.384 32.4301 313.784 32.777C313.196 33.1239 312.539 33.2973 311.813 33.2973ZM311.813 31.9255C312.286 31.9255 312.707 31.8151 313.075 31.5944C313.443 31.3736 313.732 31.074 313.942 30.6956C314.152 30.3067 314.257 29.8652 314.257 29.3711C314.257 28.8876 314.147 28.4566 313.926 28.0781C313.716 27.6997 313.427 27.4054 313.059 27.1951C312.702 26.9744 312.286 26.864 311.813 26.864C311.34 26.864 310.92 26.9744 310.552 27.1951C310.184 27.4054 309.895 27.6997 309.685 28.0781C309.475 28.4566 309.369 28.8876 309.369 29.3711C309.369 29.8652 309.475 30.3067 309.685 30.6956C309.895 31.074 310.184 31.3736 310.552 31.5944C310.92 31.8151 311.34 31.9255 311.813 31.9255ZM322.447 33.1396V28.7719C322.447 28.2043 322.269 27.7365 321.911 27.3686C321.554 27.0007 321.091 26.8167 320.524 26.8167C320.145 26.8167 319.809 26.9008 319.515 27.069C319.22 27.2372 318.989 27.4684 318.821 27.7628C318.653 28.0571 318.569 28.3935 318.569 28.7719L317.985 28.4408C317.985 27.8732 318.111 27.3686 318.364 26.9271C318.616 26.4856 318.968 26.1387 319.42 25.8864C319.872 25.6236 320.382 25.4922 320.949 25.4922C321.517 25.4922 322.016 25.6341 322.447 25.9179C322.889 26.2018 323.236 26.5749 323.488 27.0375C323.74 27.4895 323.867 27.973 323.867 28.4881V33.1396H322.447ZM317.149 33.1396V25.6499H318.569V33.1396H317.149ZM215.382 57.2973C214.688 57.2973 214.063 57.1291 213.506 56.7928C212.949 56.4459 212.507 55.9781 212.181 55.3894C211.866 54.8007 211.708 54.1385 211.708 53.4026C211.708 52.6668 211.866 52.0046 212.181 51.4159C212.507 50.8272 212.949 50.3594 213.506 50.0125C214.063 49.6656 214.683 49.4922 215.366 49.4922C215.945 49.4922 216.454 49.6131 216.896 49.8549C217.348 50.0861 217.705 50.412 217.968 50.8325C218.241 51.2424 218.394 51.7207 218.425 52.2674V54.5222C218.394 55.0583 218.241 55.5366 217.968 55.9571C217.705 56.3775 217.348 56.7087 216.896 56.9504C216.454 57.1817 215.95 57.2973 215.382 57.2973ZM215.603 55.9571C216.307 55.9571 216.875 55.7205 217.306 55.2475C217.737 54.7639 217.952 54.149 217.952 53.4026C217.952 52.8876 217.853 52.4408 217.653 52.0624C217.464 51.6734 217.19 51.3738 216.833 51.1636C216.486 50.9429 216.076 50.8325 215.603 50.8325C215.13 50.8325 214.709 50.9429 214.342 51.1636C213.984 51.3844 213.7 51.6892 213.49 52.0781C213.28 52.4566 213.175 52.8928 213.175 53.3869C213.175 53.8915 213.28 54.3382 213.49 54.7272C213.7 55.1056 213.984 55.4052 214.342 55.6259C214.709 55.8467 215.13 55.9571 215.603 55.9571ZM217.874 60.2775V55.2633L218.126 53.4342L217.874 51.6209V49.6499H219.293V60.2775H217.874ZM224.212 57.2973C223.603 57.2973 223.051 57.1607 222.557 56.8874C222.073 56.6035 221.695 56.2146 221.421 55.7205C221.148 55.2265 221.011 54.6536 221.011 54.0018V49.6499H222.431V53.9388C222.431 54.3487 222.499 54.7061 222.636 55.011C222.783 55.3053 222.993 55.5313 223.266 55.689C223.54 55.8467 223.86 55.9255 224.228 55.9255C224.785 55.9255 225.222 55.7521 225.537 55.4052C225.852 55.0478 226.01 54.559 226.01 53.9388V49.6499H227.429V54.0018C227.429 54.6536 227.292 55.2265 227.019 55.7205C226.746 56.2146 226.367 56.6035 225.884 56.8874C225.411 57.1607 224.854 57.2973 224.212 57.2973ZM232.343 57.2973C231.659 57.2973 231.039 57.1291 230.482 56.7928C229.925 56.4459 229.483 55.9781 229.158 55.3894C228.842 54.8007 228.685 54.1385 228.685 53.4026C228.685 52.6668 228.842 52.0046 229.158 51.4159C229.483 50.8272 229.92 50.3594 230.466 50.0125C231.023 49.6656 231.649 49.4922 232.343 49.4922C232.91 49.4922 233.415 49.6131 233.856 49.8549C234.308 50.0861 234.671 50.412 234.944 50.8325C235.218 51.2424 235.37 51.7207 235.402 52.2674V54.5222C235.37 55.0583 235.218 55.5366 234.944 55.9571C234.682 56.3775 234.324 56.7087 233.872 56.9504C233.431 57.1817 232.921 57.2973 232.343 57.2973ZM232.579 55.9571C233.284 55.9571 233.851 55.7205 234.282 55.2475C234.713 54.7639 234.929 54.149 234.929 53.4026C234.929 52.8876 234.829 52.4408 234.629 52.0624C234.44 51.6734 234.167 51.3738 233.809 51.1636C233.452 50.9429 233.036 50.8325 232.563 50.8325C232.09 50.8325 231.67 50.9429 231.302 51.1636C230.945 51.3844 230.661 51.6892 230.451 52.0781C230.251 52.4566 230.151 52.8928 230.151 53.3869C230.151 53.8915 230.251 54.3382 230.451 54.7272C230.661 55.1056 230.95 55.4052 231.318 55.6259C231.686 55.8467 232.106 55.9571 232.579 55.9571ZM234.834 57.1396V55.1214L235.102 53.2923L234.834 51.479V49.6499H236.269V57.1396H234.834ZM238.162 57.1396V45.8813H239.581V57.1396H238.162ZM241.499 57.1396V49.6499H242.918V57.1396H241.499ZM242.209 48.1519C241.946 48.1519 241.731 48.0678 241.562 47.8996C241.394 47.7209 241.31 47.5002 241.31 47.2374C241.31 46.9851 241.394 46.7749 241.562 46.6067C241.731 46.428 241.946 46.3386 242.209 46.3386C242.472 46.3386 242.687 46.428 242.855 46.6067C243.024 46.7749 243.108 46.9851 243.108 47.2374C243.108 47.5002 243.024 47.7209 242.855 47.8996C242.687 48.0678 242.472 48.1519 242.209 48.1519ZM245.987 57.1396V46.5121H247.407V57.1396H245.987ZM244.143 50.9429V49.6499H249.251V50.9429H244.143ZM252.928 57.2027L249.68 49.6499H251.256L253.669 55.5629H253.164L255.703 49.6499H257.28L253.779 57.2027H252.928ZM250.783 60.2775L252.991 55.7521L253.779 57.2027L252.36 60.2775H250.783Z" fill="#242424"/>
<path d="M211.771 144.348V138.614H215.365V139.359H212.636V141.106H215.178V141.848H212.636V143.603H215.399V144.348H211.771ZM219.959 140.047L218.4 144.348H217.504L215.942 140.047H216.84L217.929 143.357H217.974L219.06 140.047H219.959ZM222.229 146.05C221.888 146.05 221.594 146.005 221.347 145.915C221.103 145.826 220.903 145.707 220.748 145.56C220.593 145.412 220.477 145.251 220.401 145.076L221.12 144.779C221.171 144.861 221.238 144.948 221.322 145.039C221.408 145.133 221.524 145.212 221.669 145.277C221.817 145.342 222.006 145.375 222.238 145.375C222.555 145.375 222.817 145.298 223.024 145.143C223.231 144.99 223.335 144.745 223.335 144.409V143.564H223.282C223.231 143.655 223.159 143.757 223.063 143.869C222.97 143.981 222.841 144.078 222.677 144.16C222.513 144.242 222.299 144.283 222.036 144.283C221.696 144.283 221.39 144.204 221.118 144.045C220.847 143.885 220.632 143.649 220.474 143.337C220.317 143.023 220.239 142.638 220.239 142.181C220.239 141.723 220.316 141.331 220.471 141.005C220.628 140.678 220.842 140.428 221.115 140.254C221.387 140.079 221.696 139.991 222.042 139.991C222.308 139.991 222.524 140.036 222.688 140.126C222.853 140.213 222.98 140.316 223.072 140.434C223.165 140.551 223.237 140.655 223.287 140.744H223.349V140.047H224.169V144.443C224.169 144.812 224.083 145.116 223.912 145.353C223.74 145.59 223.508 145.765 223.215 145.879C222.923 145.993 222.595 146.05 222.229 146.05ZM222.221 143.589C222.461 143.589 222.665 143.533 222.831 143.421C222.999 143.307 223.126 143.145 223.212 142.934C223.3 142.721 223.343 142.466 223.343 142.169C223.343 141.88 223.3 141.625 223.215 141.405C223.129 141.185 223.003 141.013 222.837 140.89C222.671 140.765 222.465 140.702 222.221 140.702C221.969 140.702 221.759 140.768 221.591 140.898C221.423 141.027 221.296 141.203 221.21 141.425C221.126 141.647 221.084 141.895 221.084 142.169C221.084 142.451 221.127 142.699 221.213 142.911C221.299 143.124 221.426 143.29 221.594 143.41C221.763 143.529 221.972 143.589 222.221 143.589ZM226.972 144.434C226.548 144.434 226.183 144.344 225.877 144.163C225.573 143.98 225.338 143.723 225.172 143.393C225.007 143.061 224.925 142.672 224.925 142.225C224.925 141.785 225.007 141.397 225.172 141.061C225.338 140.725 225.569 140.463 225.866 140.274C226.165 140.086 226.514 139.991 226.913 139.991C227.156 139.991 227.391 140.031 227.619 140.112C227.846 140.192 228.051 140.318 228.232 140.49C228.413 140.661 228.556 140.884 228.66 141.159C228.765 141.431 228.817 141.763 228.817 142.153V142.449H225.399V141.822H227.997C227.997 141.602 227.952 141.407 227.862 141.237C227.773 141.065 227.647 140.93 227.484 140.831C227.324 140.732 227.135 140.683 226.919 140.683C226.684 140.683 226.478 140.741 226.303 140.856C226.129 140.97 225.995 141.12 225.9 141.304C225.806 141.487 225.76 141.686 225.76 141.901V142.391C225.76 142.678 225.81 142.923 225.911 143.124C226.014 143.326 226.156 143.48 226.339 143.586C226.522 143.691 226.736 143.743 226.98 143.743C227.139 143.743 227.284 143.721 227.414 143.676C227.545 143.629 227.658 143.56 227.753 143.469C227.848 143.377 227.921 143.264 227.971 143.13L228.764 143.273C228.7 143.506 228.586 143.71 228.422 143.886C228.26 144.059 228.055 144.195 227.809 144.292C227.565 144.387 227.286 144.434 226.972 144.434ZM230.409 141.794V144.348H229.572V140.047H230.376V140.747H230.429C230.528 140.52 230.683 140.337 230.894 140.198C231.107 140.06 231.374 139.991 231.697 139.991C231.99 139.991 232.247 140.053 232.467 140.176C232.687 140.297 232.858 140.478 232.98 140.719C233.101 140.96 233.162 141.258 233.162 141.612V144.348H232.324V141.713C232.324 141.401 232.243 141.158 232.081 140.982C231.918 140.805 231.695 140.716 231.412 140.716C231.218 140.716 231.045 140.758 230.894 140.842C230.744 140.926 230.626 141.05 230.538 141.212C230.452 141.373 230.409 141.567 230.409 141.794ZM234.111 144.348V140.047H234.948V144.348H234.111ZM234.534 139.384C234.388 139.384 234.263 139.335 234.158 139.238C234.056 139.139 234.004 139.022 234.004 138.885C234.004 138.747 234.056 138.63 234.158 138.533C234.263 138.434 234.388 138.384 234.534 138.384C234.679 138.384 234.803 138.434 234.906 138.533C235.01 138.63 235.063 138.747 235.063 138.885C235.063 139.022 235.01 139.139 234.906 139.238C234.803 139.335 234.679 139.384 234.534 139.384ZM237.152 144.443C236.88 144.443 236.633 144.392 236.413 144.292C236.193 144.189 236.018 144.041 235.889 143.847C235.762 143.652 235.699 143.414 235.699 143.133C235.699 142.89 235.746 142.69 235.839 142.533C235.932 142.377 236.058 142.253 236.217 142.161C236.376 142.07 236.553 142.001 236.749 141.954C236.945 141.907 237.145 141.872 237.348 141.848C237.606 141.818 237.815 141.793 237.975 141.775C238.136 141.754 238.252 141.722 238.325 141.677C238.398 141.632 238.434 141.559 238.434 141.458V141.439C238.434 141.194 238.365 141.005 238.227 140.87C238.091 140.736 237.887 140.669 237.617 140.669C237.335 140.669 237.113 140.731 236.951 140.856C236.79 140.98 236.679 141.117 236.617 141.268L235.831 141.089C235.924 140.827 236.06 140.617 236.239 140.456C236.42 140.294 236.629 140.176 236.864 140.103C237.099 140.029 237.346 139.991 237.606 139.991C237.777 139.991 237.959 140.012 238.152 140.053C238.346 140.092 238.527 140.165 238.695 140.271C238.865 140.378 239.004 140.53 239.112 140.728C239.22 140.924 239.274 141.178 239.274 141.492V144.348H238.457V143.76H238.423C238.369 143.868 238.288 143.974 238.18 144.079C238.071 144.183 237.932 144.27 237.762 144.339C237.593 144.408 237.389 144.443 237.152 144.443ZM237.334 143.771C237.566 143.771 237.763 143.725 237.928 143.634C238.094 143.542 238.22 143.423 238.306 143.275C238.393 143.126 238.437 142.966 238.437 142.797V142.242C238.407 142.272 238.349 142.3 238.264 142.326C238.18 142.351 238.083 142.372 237.975 142.391C237.867 142.407 237.761 142.423 237.659 142.438C237.556 142.451 237.47 142.463 237.401 142.472C237.239 142.492 237.09 142.527 236.956 142.575C236.824 142.624 236.717 142.694 236.637 142.785C236.559 142.875 236.519 142.994 236.519 143.144C236.519 143.351 236.596 143.508 236.749 143.614C236.902 143.719 237.097 143.771 237.334 143.771Z" fill="black" fill-opacity="0.4"/>
</g>
<g filter="url(#filter2_ddd_665_3446)">
<rect width="158" height="158" transform="translate(386 2)" fill="#8BADAF"/>
<path d="M401.411 33.1396V31.7836H404.454C405.264 31.7836 405.973 31.6102 406.583 31.2633C407.193 30.9059 407.666 30.4171 408.002 29.7968C408.349 29.1766 408.523 28.4618 408.523 27.6524C408.523 26.8535 408.349 26.1439 408.002 25.5237C407.655 24.9035 407.177 24.42 406.567 24.0731C405.958 23.7262 405.253 23.5527 404.454 23.5527H401.427V22.1967H404.486C405.285 22.1967 406.021 22.3334 406.693 22.6067C407.377 22.88 407.965 23.2637 408.459 23.7577C408.964 24.2518 409.353 24.8299 409.626 25.4922C409.91 26.1545 410.052 26.8798 410.052 27.6682C410.052 28.4461 409.91 29.1714 409.626 29.8442C409.353 30.5064 408.969 31.0846 408.475 31.5786C407.981 32.0727 407.393 32.4564 406.709 32.7297C406.036 33.003 405.306 33.1396 404.517 33.1396H401.411ZM400.434 33.1396V22.1967H401.916V33.1396H400.434ZM411.696 33.1396V25.6499H413.115V33.1396H411.696ZM412.405 24.1519C412.142 24.1519 411.927 24.0678 411.759 23.8996C411.59 23.7209 411.506 23.5002 411.506 23.2374C411.506 22.9851 411.59 22.7749 411.759 22.6067C411.927 22.428 412.142 22.3386 412.405 22.3386C412.668 22.3386 412.883 22.428 413.052 22.6067C413.22 22.7749 413.304 22.9851 413.304 23.2374C413.304 23.5002 413.22 23.7209 413.052 23.8996C412.883 24.0678 412.668 24.1519 412.405 24.1519ZM420.331 33.1396V28.7719C420.331 28.2043 420.152 27.7365 419.795 27.3686C419.437 27.0007 418.975 26.8167 418.407 26.8167C418.029 26.8167 417.692 26.9008 417.398 27.069C417.103 27.2372 416.872 27.4684 416.704 27.7628C416.536 28.0571 416.452 28.3935 416.452 28.7719L415.868 28.4408C415.868 27.8732 415.994 27.3686 416.247 26.9271C416.499 26.4856 416.851 26.1387 417.303 25.8864C417.755 25.6236 418.265 25.4922 418.833 25.4922C419.4 25.4922 419.9 25.6341 420.331 25.9179C420.772 26.2018 421.119 26.5749 421.371 27.0375C421.624 27.4895 421.75 27.973 421.75 28.4881V33.1396H420.331ZM415.033 33.1396V25.6499H416.452V33.1396H415.033ZM423.513 33.1396V25.6499H424.933V33.1396H423.513ZM424.223 24.1519C423.96 24.1519 423.745 24.0678 423.576 23.8996C423.408 23.7209 423.324 23.5002 423.324 23.2374C423.324 22.9851 423.408 22.7749 423.576 22.6067C423.745 22.428 423.96 22.3386 424.223 22.3386C424.486 22.3386 424.701 22.428 424.869 22.6067C425.038 22.7749 425.122 22.9851 425.122 23.2374C425.122 23.5002 425.038 23.7209 424.869 23.8996C424.701 24.0678 424.486 24.1519 424.223 24.1519ZM432.148 33.1396V28.7719C432.148 28.2043 431.97 27.7365 431.612 27.3686C431.255 27.0007 430.792 26.8167 430.225 26.8167C429.846 26.8167 429.51 26.9008 429.216 27.069C428.921 27.2372 428.69 27.4684 428.522 27.7628C428.354 28.0571 428.27 28.3935 428.27 28.7719L427.686 28.4408C427.686 27.8732 427.812 27.3686 428.065 26.9271C428.317 26.4856 428.669 26.1387 429.121 25.8864C429.573 25.6236 430.083 25.4922 430.65 25.4922C431.218 25.4922 431.717 25.6341 432.148 25.9179C432.59 26.2018 432.937 26.5749 433.189 27.0375C433.441 27.4895 433.568 27.973 433.568 28.4881V33.1396H432.148ZM426.85 33.1396V25.6499H428.27V33.1396H426.85ZM438.422 36.4351C437.654 36.4351 436.971 36.2932 436.372 36.0094C435.783 35.7256 435.31 35.3261 434.953 34.811L435.867 33.8807C436.172 34.2697 436.535 34.564 436.955 34.7637C437.376 34.974 437.875 35.0791 438.453 35.0791C439.221 35.0791 439.825 34.8741 440.267 34.4642C440.719 34.0647 440.945 33.5233 440.945 32.8401V30.9794L441.197 29.2923L440.945 27.6209V25.6499H442.364V32.8401C442.364 33.5549 442.196 34.1803 441.859 34.7164C441.533 35.2526 441.071 35.673 440.472 35.9779C439.883 36.2827 439.2 36.4351 438.422 36.4351ZM438.422 33.0135C437.738 33.0135 437.124 32.8506 436.577 32.5247C436.041 32.1988 435.615 31.7521 435.3 31.1844C434.984 30.6063 434.827 29.9598 434.827 29.245C434.827 28.5302 434.984 27.8942 435.3 27.337C435.615 26.7694 436.041 26.3226 436.577 25.9968C437.124 25.6604 437.738 25.4922 438.422 25.4922C439.01 25.4922 439.531 25.6078 439.983 25.8391C440.435 26.0704 440.792 26.3962 441.055 26.8167C441.328 27.2267 441.475 27.7102 441.496 28.2674V30.2541C441.465 30.8007 441.313 31.2843 441.039 31.7048C440.776 32.1147 440.419 32.4353 439.967 32.6666C439.515 32.8979 439 33.0135 438.422 33.0135ZM438.706 31.6732C439.168 31.6732 439.573 31.5734 439.92 31.3736C440.277 31.1739 440.55 30.8953 440.74 30.5379C440.929 30.17 441.023 29.7443 441.023 29.2607C441.023 28.7772 440.924 28.3567 440.724 27.9993C440.535 27.6314 440.267 27.3476 439.92 27.1478C439.573 26.9376 439.163 26.8325 438.69 26.8325C438.217 26.8325 437.802 26.9376 437.444 27.1478C437.087 27.3476 436.803 27.6314 436.593 27.9993C436.393 28.3567 436.293 28.7719 436.293 29.245C436.293 29.718 436.393 30.1385 436.593 30.5064C436.803 30.8743 437.087 31.1634 437.444 31.3736C437.812 31.5734 438.233 31.6732 438.706 31.6732ZM450.801 33.2973C450.065 33.2973 449.403 33.1239 448.815 32.777C448.226 32.4301 447.758 31.9623 447.411 31.3736C447.064 30.7745 446.891 30.1069 446.891 29.3711C446.891 28.6458 447.064 27.994 447.411 27.4159C447.758 26.8272 448.226 26.3594 448.815 26.0125C449.403 25.6656 450.065 25.4922 450.801 25.4922C451.527 25.4922 452.184 25.6656 452.772 26.0125C453.371 26.3489 453.845 26.8115 454.191 27.4001C454.538 27.9888 454.712 28.6458 454.712 29.3711C454.712 30.1069 454.538 30.7745 454.191 31.3736C453.845 31.9623 453.371 32.4301 452.772 32.777C452.184 33.1239 451.527 33.2973 450.801 33.2973ZM450.801 31.9255C451.274 31.9255 451.695 31.8151 452.063 31.5944C452.431 31.3736 452.72 31.074 452.93 30.6956C453.14 30.3067 453.245 29.8652 453.245 29.3711C453.245 28.8876 453.135 28.4566 452.914 28.0781C452.704 27.6997 452.415 27.4054 452.047 27.1951C451.69 26.9744 451.274 26.864 450.801 26.864C450.328 26.864 449.908 26.9744 449.54 27.1951C449.172 27.4054 448.883 27.6997 448.673 28.0781C448.462 28.4566 448.357 28.8876 448.357 29.3711C448.357 29.8652 448.462 30.3067 448.673 30.6956C448.883 31.074 449.172 31.3736 449.54 31.5944C449.908 31.8151 450.328 31.9255 450.801 31.9255ZM460.079 33.2973C459.512 33.2973 458.997 33.1817 458.534 32.9504C458.082 32.7087 457.719 32.3775 457.446 31.9571C457.173 31.5366 457.02 31.0583 456.989 30.5222V28.2674C457.02 27.7207 457.173 27.2424 457.446 26.8325C457.73 26.412 458.098 26.0861 458.55 25.8549C459.012 25.6131 459.522 25.4922 460.079 25.4922C460.763 25.4922 461.377 25.6656 461.924 26.0125C462.481 26.3594 462.917 26.8272 463.233 27.4159C463.548 28.0046 463.706 28.6668 463.706 29.4026C463.706 30.1385 463.548 30.8007 463.233 31.3894C462.917 31.9781 462.481 32.4459 461.924 32.7928C461.377 33.1291 460.763 33.2973 460.079 33.2973ZM459.843 31.9571C460.316 31.9571 460.731 31.8467 461.088 31.6259C461.446 31.4052 461.73 31.1056 461.94 30.7272C462.15 30.3382 462.255 29.8915 462.255 29.3869C462.255 28.8928 462.15 28.4513 461.94 28.0624C461.73 27.6734 461.446 27.3738 461.088 27.1636C460.731 26.9429 460.321 26.8325 459.859 26.8325C459.385 26.8325 458.97 26.9429 458.613 27.1636C458.255 27.3738 457.977 27.6734 457.777 28.0624C457.577 28.4513 457.478 28.8981 457.478 29.4026C457.478 29.8967 457.572 30.3382 457.761 30.7272C457.961 31.1056 458.24 31.4052 458.597 31.6259C458.965 31.8467 459.38 31.9571 459.843 31.9571ZM456.137 36.2775V25.6499H457.556V27.6209L457.288 29.4342L457.556 31.2633V36.2775H456.137ZM466.061 33.1396V22.5121H467.48V33.1396H466.061ZM464.216 26.9429V25.6499H469.325V26.9429H464.216ZM470.558 33.1396V25.6499H471.977V33.1396H470.558ZM471.267 24.1519C471.005 24.1519 470.789 24.0678 470.621 23.8996C470.453 23.7209 470.369 23.5002 470.369 23.2374C470.369 22.9851 470.453 22.7749 470.621 22.6067C470.789 22.428 471.005 22.3386 471.267 22.3386C471.53 22.3386 471.746 22.428 471.914 22.6067C472.082 22.7749 472.166 22.9851 472.166 23.2374C472.166 23.5002 472.082 23.7209 471.914 23.8996C471.746 24.0678 471.53 24.1519 471.267 24.1519ZM477.316 33.2973C476.581 33.2973 475.918 33.1239 475.33 32.777C474.741 32.4301 474.273 31.9623 473.926 31.3736C473.579 30.7745 473.406 30.1069 473.406 29.3711C473.406 28.6458 473.579 27.994 473.926 27.4159C474.273 26.8272 474.741 26.3594 475.33 26.0125C475.918 25.6656 476.581 25.4922 477.316 25.4922C478.042 25.4922 478.699 25.6656 479.287 26.0125C479.887 26.3489 480.36 26.8115 480.707 27.4001C481.053 27.9888 481.227 28.6458 481.227 29.3711C481.227 30.1069 481.053 30.7745 480.707 31.3736C480.36 31.9623 479.887 32.4301 479.287 32.777C478.699 33.1239 478.042 33.2973 477.316 33.2973ZM477.316 31.9255C477.789 31.9255 478.21 31.8151 478.578 31.5944C478.946 31.3736 479.235 31.074 479.445 30.6956C479.655 30.3067 479.76 29.8652 479.76 29.3711C479.76 28.8876 479.65 28.4566 479.429 28.0781C479.219 27.6997 478.93 27.4054 478.562 27.1951C478.205 26.9744 477.789 26.864 477.316 26.864C476.843 26.864 476.423 26.9744 476.055 27.1951C475.687 27.4054 475.398 27.6997 475.188 28.0781C474.978 28.4566 474.872 28.8876 474.872 29.3711C474.872 29.8652 474.978 30.3067 475.188 30.6956C475.398 31.074 475.687 31.3736 476.055 31.5944C476.423 31.8151 476.843 31.9255 477.316 31.9255ZM487.95 33.1396V28.7719C487.95 28.2043 487.772 27.7365 487.414 27.3686C487.057 27.0007 486.594 26.8167 486.027 26.8167C485.648 26.8167 485.312 26.9008 485.018 27.069C484.723 27.2372 484.492 27.4684 484.324 27.7628C484.156 28.0571 484.072 28.3935 484.072 28.7719L483.488 28.4408C483.488 27.8732 483.614 27.3686 483.867 26.9271C484.119 26.4856 484.471 26.1387 484.923 25.8864C485.375 25.6236 485.885 25.4922 486.452 25.4922C487.02 25.4922 487.519 25.6341 487.95 25.9179C488.392 26.2018 488.739 26.5749 488.991 27.0375C489.243 27.4895 489.37 27.973 489.37 28.4881V33.1396H487.95ZM482.652 33.1396V25.6499H484.072V33.1396H482.652ZM493.498 33.2973C493.078 33.2973 492.678 33.2448 492.3 33.1396C491.932 33.024 491.59 32.8663 491.275 32.6666C490.96 32.4564 490.686 32.2093 490.455 31.9255L491.37 31.011C491.643 31.3474 491.958 31.5996 492.316 31.7678C492.673 31.9255 493.073 32.0044 493.514 32.0044C493.956 32.0044 494.297 31.9308 494.539 31.7836C494.781 31.6259 494.902 31.4104 494.902 31.1371C494.902 30.8638 494.802 30.6536 494.602 30.5064C494.413 30.3487 494.166 30.2226 493.861 30.128C493.556 30.0229 493.23 29.923 492.883 29.8284C492.547 29.7233 492.226 29.5919 491.922 29.4342C491.617 29.2765 491.364 29.061 491.165 28.7877C490.976 28.5144 490.881 28.1517 490.881 27.6997C490.881 27.2477 490.991 26.8588 491.212 26.5329C491.433 26.1965 491.738 25.939 492.127 25.7603C492.526 25.5816 493.004 25.4922 493.561 25.4922C494.15 25.4922 494.67 25.5973 495.122 25.8076C495.585 26.0073 495.963 26.3121 496.258 26.7221L495.343 27.6366C495.133 27.3633 494.87 27.1531 494.555 27.0059C494.25 26.8588 493.903 26.7852 493.514 26.7852C493.104 26.7852 492.789 26.8588 492.568 27.0059C492.358 27.1426 492.253 27.337 492.253 27.5893C492.253 27.8416 492.347 28.0361 492.537 28.1727C492.726 28.3094 492.973 28.425 493.278 28.5196C493.593 28.6143 493.919 28.7141 494.255 28.8192C494.592 28.9138 494.912 29.0452 495.217 29.2134C495.522 29.3816 495.769 29.6076 495.958 29.8915C496.158 30.1753 496.258 30.5485 496.258 31.011C496.258 31.7153 496.006 32.2724 495.501 32.6824C495.007 33.0923 494.339 33.2973 493.498 33.2973Z" fill="#242424"/>
<path d="M399.771 144.348V138.614H403.365V139.359H400.636V141.106H403.178V141.848H400.636V143.603H403.399V144.348H399.771ZM407.959 140.047L406.4 144.348H405.504L403.942 140.047H404.84L405.929 143.357H405.974L407.06 140.047H407.959ZM410.229 146.05C409.888 146.05 409.594 146.005 409.347 145.915C409.103 145.826 408.903 145.707 408.748 145.56C408.593 145.412 408.477 145.251 408.401 145.076L409.12 144.779C409.171 144.861 409.238 144.948 409.322 145.039C409.408 145.133 409.524 145.212 409.669 145.277C409.817 145.342 410.006 145.375 410.238 145.375C410.555 145.375 410.817 145.298 411.024 145.143C411.231 144.99 411.335 144.745 411.335 144.409V143.564H411.282C411.231 143.655 411.159 143.757 411.063 143.869C410.97 143.981 410.841 144.078 410.677 144.16C410.513 144.242 410.299 144.283 410.036 144.283C409.696 144.283 409.39 144.204 409.118 144.045C408.847 143.885 408.632 143.649 408.474 143.337C408.317 143.023 408.239 142.638 408.239 142.181C408.239 141.723 408.316 141.331 408.471 141.005C408.628 140.678 408.842 140.428 409.115 140.254C409.387 140.079 409.696 139.991 410.042 139.991C410.308 139.991 410.524 140.036 410.688 140.126C410.853 140.213 410.98 140.316 411.072 140.434C411.165 140.551 411.237 140.655 411.287 140.744H411.349V140.047H412.169V144.443C412.169 144.812 412.083 145.116 411.912 145.353C411.74 145.59 411.508 145.765 411.215 145.879C410.923 145.993 410.595 146.05 410.229 146.05ZM410.221 143.589C410.461 143.589 410.665 143.533 410.831 143.421C410.999 143.307 411.126 143.145 411.212 142.934C411.3 142.721 411.343 142.466 411.343 142.169C411.343 141.88 411.3 141.625 411.215 141.405C411.129 141.185 411.003 141.013 410.837 140.89C410.671 140.765 410.465 140.702 410.221 140.702C409.969 140.702 409.759 140.768 409.591 140.898C409.423 141.027 409.296 141.203 409.21 141.425C409.126 141.647 409.084 141.895 409.084 142.169C409.084 142.451 409.127 142.699 409.213 142.911C409.299 143.124 409.426 143.29 409.594 143.41C409.763 143.529 409.972 143.589 410.221 143.589ZM414.972 144.434C414.548 144.434 414.183 144.344 413.877 144.163C413.573 143.98 413.338 143.723 413.172 143.393C413.007 143.061 412.925 142.672 412.925 142.225C412.925 141.785 413.007 141.397 413.172 141.061C413.338 140.725 413.569 140.463 413.866 140.274C414.165 140.086 414.514 139.991 414.913 139.991C415.156 139.991 415.391 140.031 415.619 140.112C415.846 140.192 416.051 140.318 416.232 140.49C416.413 140.661 416.556 140.884 416.66 141.159C416.765 141.431 416.817 141.763 416.817 142.153V142.449H413.399V141.822H415.997C415.997 141.602 415.952 141.407 415.862 141.237C415.773 141.065 415.647 140.93 415.484 140.831C415.324 140.732 415.135 140.683 414.919 140.683C414.684 140.683 414.478 140.741 414.303 140.856C414.129 140.97 413.995 141.12 413.9 141.304C413.806 141.487 413.76 141.686 413.76 141.901V142.391C413.76 142.678 413.81 142.923 413.911 143.124C414.014 143.326 414.156 143.48 414.339 143.586C414.522 143.691 414.736 143.743 414.98 143.743C415.139 143.743 415.284 143.721 415.414 143.676C415.545 143.629 415.658 143.56 415.753 143.469C415.848 143.377 415.921 143.264 415.971 143.13L416.764 143.273C416.7 143.506 416.586 143.71 416.422 143.886C416.26 144.059 416.055 144.195 415.809 144.292C415.565 144.387 415.286 144.434 414.972 144.434ZM418.409 141.794V144.348H417.572V140.047H418.376V140.747H418.429C418.528 140.52 418.683 140.337 418.894 140.198C419.107 140.06 419.374 139.991 419.697 139.991C419.99 139.991 420.247 140.053 420.467 140.176C420.687 140.297 420.858 140.478 420.98 140.719C421.101 140.96 421.162 141.258 421.162 141.612V144.348H420.324V141.713C420.324 141.401 420.243 141.158 420.081 140.982C419.918 140.805 419.695 140.716 419.412 140.716C419.218 140.716 419.045 140.758 418.894 140.842C418.744 140.926 418.626 141.05 418.538 141.212C418.452 141.373 418.409 141.567 418.409 141.794ZM422.111 144.348V140.047H422.948V144.348H422.111ZM422.534 139.384C422.388 139.384 422.263 139.335 422.158 139.238C422.056 139.139 422.004 139.022 422.004 138.885C422.004 138.747 422.056 138.63 422.158 138.533C422.263 138.434 422.388 138.384 422.534 138.384C422.679 138.384 422.803 138.434 422.906 138.533C423.01 138.63 423.063 138.747 423.063 138.885C423.063 139.022 423.01 139.139 422.906 139.238C422.803 139.335 422.679 139.384 422.534 139.384ZM425.152 144.443C424.88 144.443 424.633 144.392 424.413 144.292C424.193 144.189 424.018 144.041 423.889 143.847C423.762 143.652 423.699 143.414 423.699 143.133C423.699 142.89 423.746 142.69 423.839 142.533C423.932 142.377 424.058 142.253 424.217 142.161C424.376 142.07 424.553 142.001 424.749 141.954C424.945 141.907 425.145 141.872 425.348 141.848C425.606 141.818 425.815 141.793 425.975 141.775C426.136 141.754 426.252 141.722 426.325 141.677C426.398 141.632 426.434 141.559 426.434 141.458V141.439C426.434 141.194 426.365 141.005 426.227 140.87C426.091 140.736 425.887 140.669 425.617 140.669C425.335 140.669 425.113 140.731 424.951 140.856C424.79 140.98 424.679 141.117 424.617 141.268L423.831 141.089C423.924 140.827 424.06 140.617 424.239 140.456C424.42 140.294 424.629 140.176 424.864 140.103C425.099 140.029 425.346 139.991 425.606 139.991C425.777 139.991 425.959 140.012 426.152 140.053C426.346 140.092 426.527 140.165 426.695 140.271C426.865 140.378 427.004 140.53 427.112 140.728C427.22 140.924 427.274 141.178 427.274 141.492V144.348H426.457V143.76H426.423C426.369 143.868 426.288 143.974 426.18 144.079C426.071 144.183 425.932 144.27 425.762 144.339C425.593 144.408 425.389 144.443 425.152 144.443ZM425.334 143.771C425.566 143.771 425.763 143.725 425.928 143.634C426.094 143.542 426.22 143.423 426.306 143.275C426.393 143.126 426.437 142.966 426.437 142.797V142.242C426.407 142.272 426.349 142.3 426.264 142.326C426.18 142.351 426.083 142.372 425.975 142.391C425.867 142.407 425.761 142.423 425.659 142.438C425.556 142.451 425.47 142.463 425.401 142.472C425.239 142.492 425.09 142.527 424.956 142.575C424.824 142.624 424.717 142.694 424.637 142.785C424.559 142.875 424.519 142.994 424.519 143.144C424.519 143.351 424.596 143.508 424.749 143.614C424.902 143.719 425.097 143.771 425.334 143.771Z" fill="black" fill-opacity="0.4"/>
</g>
<g filter="url(#filter3_ddd_665_3446)">
<rect width="158" height="158" transform="translate(574 2)" fill="#8BADAF"/>
<path d="M591.335 33.1396V22.5121H592.817V33.1396H591.335ZM587.614 23.5527V22.1967H596.523V23.5527H587.614ZM596.184 33.1396V25.6499H597.604V33.1396H596.184ZM597.604 28.8665L597.067 28.63C597.067 27.6734 597.288 26.9113 597.73 26.3437C598.171 25.776 598.807 25.4922 599.638 25.4922C600.016 25.4922 600.358 25.5605 600.662 25.6972C600.967 25.8233 601.251 26.0388 601.514 26.3437L600.584 27.3055C600.426 27.1373 600.253 27.0164 600.063 26.9429C599.874 26.8693 599.653 26.8325 599.401 26.8325C598.875 26.8325 598.444 27.0007 598.108 27.337C597.772 27.6734 597.604 28.1833 597.604 28.8665ZM605.278 33.2973C604.595 33.2973 603.975 33.1291 603.418 32.7928C602.861 32.4459 602.419 31.9781 602.093 31.3894C601.778 30.8007 601.62 30.1385 601.62 29.4026C601.62 28.6668 601.778 28.0046 602.093 27.4159C602.419 26.8272 602.855 26.3594 603.402 26.0125C603.959 25.6656 604.585 25.4922 605.278 25.4922C605.846 25.4922 606.351 25.6131 606.792 25.8549C607.244 26.0861 607.607 26.412 607.88 26.8325C608.153 27.2424 608.306 27.7207 608.337 28.2674V30.5222C608.306 31.0583 608.153 31.5366 607.88 31.9571C607.617 32.3775 607.26 32.7087 606.808 32.9504C606.366 33.1817 605.857 33.2973 605.278 33.2973ZM605.515 31.9571C606.219 31.9571 606.787 31.7205 607.218 31.2475C607.649 30.7639 607.864 30.149 607.864 29.4026C607.864 28.8876 607.765 28.4408 607.565 28.0624C607.376 27.6734 607.102 27.3738 606.745 27.1636C606.387 26.9429 605.972 26.8325 605.499 26.8325C605.026 26.8325 604.606 26.9429 604.238 27.1636C603.88 27.3844 603.597 27.6892 603.386 28.0781C603.187 28.4566 603.087 28.8928 603.087 29.3869C603.087 29.8915 603.187 30.3382 603.386 30.7272C603.597 31.1056 603.886 31.4052 604.254 31.6259C604.621 31.8467 605.042 31.9571 605.515 31.9571ZM607.77 33.1396V31.1214L608.038 29.2923L607.77 27.479V25.6499H609.205V33.1396H607.77ZM616.395 33.1396V28.7719C616.395 28.2043 616.217 27.7365 615.859 27.3686C615.502 27.0007 615.039 26.8167 614.472 26.8167C614.093 26.8167 613.757 26.9008 613.462 27.069C613.168 27.2372 612.937 27.4684 612.769 27.7628C612.6 28.0571 612.516 28.3935 612.516 28.7719L611.933 28.4408C611.933 27.8732 612.059 27.3686 612.311 26.9271C612.564 26.4856 612.916 26.1387 613.368 25.8864C613.82 25.6236 614.33 25.4922 614.897 25.4922C615.465 25.4922 615.964 25.6341 616.395 25.9179C616.837 26.2018 617.184 26.5749 617.436 27.0375C617.688 27.4895 617.814 27.973 617.814 28.4881V33.1396H616.395ZM611.097 33.1396V25.6499H612.516V33.1396H611.097ZM621.943 33.2973C621.523 33.2973 621.123 33.2448 620.745 33.1396C620.377 33.024 620.035 32.8663 619.72 32.6666C619.405 32.4564 619.131 32.2093 618.9 31.9255L619.815 31.011C620.088 31.3474 620.403 31.5996 620.761 31.7678C621.118 31.9255 621.518 32.0044 621.959 32.0044C622.401 32.0044 622.742 31.9308 622.984 31.7836C623.226 31.6259 623.347 31.4104 623.347 31.1371C623.347 30.8638 623.247 30.6536 623.047 30.5064C622.858 30.3487 622.611 30.2226 622.306 30.128C622.001 30.0229 621.675 29.923 621.328 29.8284C620.992 29.7233 620.671 29.5919 620.366 29.4342C620.062 29.2765 619.809 29.061 619.61 28.7877C619.42 28.5144 619.326 28.1517 619.326 27.6997C619.326 27.2477 619.436 26.8588 619.657 26.5329C619.878 26.1965 620.183 25.939 620.571 25.7603C620.971 25.5816 621.449 25.4922 622.006 25.4922C622.595 25.4922 623.115 25.5973 623.567 25.8076C624.03 26.0073 624.408 26.3121 624.703 26.7221L623.788 27.6366C623.578 27.3633 623.315 27.1531 623 27.0059C622.695 26.8588 622.348 26.7852 621.959 26.7852C621.549 26.7852 621.234 26.8588 621.013 27.0059C620.803 27.1426 620.698 27.337 620.698 27.5893C620.698 27.8416 620.792 28.0361 620.981 28.1727C621.171 28.3094 621.418 28.425 621.723 28.5196C622.038 28.6143 622.364 28.7141 622.7 28.8192C623.037 28.9138 623.357 29.0452 623.662 29.2134C623.967 29.3816 624.214 29.6076 624.403 29.8915C624.603 30.1753 624.703 30.5485 624.703 31.011C624.703 31.7153 624.45 32.2724 623.946 32.6824C623.452 33.0923 622.784 33.2973 621.943 33.2973ZM630.06 33.2973C629.492 33.2973 628.977 33.1817 628.515 32.9504C628.063 32.7087 627.7 32.3775 627.427 31.9571C627.153 31.5366 627.001 31.0583 626.969 30.5222V28.2674C627.001 27.7207 627.153 27.2424 627.427 26.8325C627.711 26.412 628.078 26.0861 628.53 25.8549C628.993 25.6131 629.503 25.4922 630.06 25.4922C630.743 25.4922 631.358 25.6656 631.905 26.0125C632.462 26.3594 632.898 26.8272 633.214 27.4159C633.529 28.0046 633.687 28.6668 633.687 29.4026C633.687 30.1385 633.529 30.8007 633.214 31.3894C632.898 31.9781 632.462 32.4459 631.905 32.7928C631.358 33.1291 630.743 33.2973 630.06 33.2973ZM629.823 31.9571C630.296 31.9571 630.712 31.8467 631.069 31.6259C631.427 31.4052 631.71 31.1056 631.921 30.7272C632.131 30.3382 632.236 29.8915 632.236 29.3869C632.236 28.8928 632.131 28.4513 631.921 28.0624C631.71 27.6734 631.427 27.3738 631.069 27.1636C630.712 26.9429 630.302 26.8325 629.839 26.8325C629.366 26.8325 628.951 26.9429 628.594 27.1636C628.236 27.3738 627.958 27.6734 627.758 28.0624C627.558 28.4513 627.458 28.8981 627.458 29.4026C627.458 29.8967 627.553 30.3382 627.742 30.7272C627.942 31.1056 628.22 31.4052 628.578 31.6259C628.946 31.8467 629.361 31.9571 629.823 31.9571ZM626.118 36.2775V25.6499H627.537V27.6209L627.269 29.4342L627.537 31.2633V36.2775H626.118ZM638.544 33.2973C637.808 33.2973 637.146 33.1239 636.557 32.777C635.968 32.4301 635.5 31.9623 635.153 31.3736C634.807 30.7745 634.633 30.1069 634.633 29.3711C634.633 28.6458 634.807 27.994 635.153 27.4159C635.5 26.8272 635.968 26.3594 636.557 26.0125C637.146 25.6656 637.808 25.4922 638.544 25.4922C639.269 25.4922 639.926 25.6656 640.515 26.0125C641.114 26.3489 641.587 26.8115 641.934 27.4001C642.281 27.9888 642.454 28.6458 642.454 29.3711C642.454 30.1069 642.281 30.7745 641.934 31.3736C641.587 31.9623 641.114 32.4301 640.515 32.777C639.926 33.1239 639.269 33.2973 638.544 33.2973ZM638.544 31.9255C639.017 31.9255 639.437 31.8151 639.805 31.5944C640.173 31.3736 640.462 31.074 640.672 30.6956C640.883 30.3067 640.988 29.8652 640.988 29.3711C640.988 28.8876 640.877 28.4566 640.656 28.0781C640.446 27.6997 640.157 27.4054 639.789 27.1951C639.432 26.9744 639.017 26.864 638.544 26.864C638.071 26.864 637.65 26.9744 637.282 27.1951C636.914 27.4054 636.625 27.6997 636.415 28.0781C636.205 28.4566 636.1 28.8876 636.1 29.3711C636.1 29.8652 636.205 30.3067 636.415 30.6956C636.625 31.074 636.914 31.3736 637.282 31.5944C637.65 31.8151 638.071 31.9255 638.544 31.9255ZM643.88 33.1396V25.6499H645.299V33.1396H643.88ZM645.299 28.8665L644.763 28.63C644.763 27.6734 644.983 26.9113 645.425 26.3437C645.866 25.776 646.502 25.4922 647.333 25.4922C647.711 25.4922 648.053 25.5605 648.358 25.6972C648.663 25.8233 648.946 26.0388 649.209 26.3437L648.279 27.3055C648.121 27.1373 647.948 27.0164 647.758 26.9429C647.569 26.8693 647.349 26.8325 647.096 26.8325C646.571 26.8325 646.14 27.0007 645.803 27.337C645.467 27.6734 645.299 28.1833 645.299 28.8665ZM651.155 33.1396V22.5121H652.574V33.1396H651.155ZM649.31 26.9429V25.6499H654.419V26.9429H649.31ZM658.59 33.2973C657.907 33.2973 657.286 33.1291 656.729 32.7928C656.172 32.4459 655.731 31.9781 655.405 31.3894C655.089 30.8007 654.932 30.1385 654.932 29.4026C654.932 28.6668 655.089 28.0046 655.405 27.4159C655.731 26.8272 656.167 26.3594 656.714 26.0125C657.271 25.6656 657.896 25.4922 658.59 25.4922C659.158 25.4922 659.662 25.6131 660.104 25.8549C660.556 26.0861 660.918 26.412 661.192 26.8325C661.465 27.2424 661.617 27.7207 661.649 28.2674V30.5222C661.617 31.0583 661.465 31.5366 661.192 31.9571C660.929 32.3775 660.571 32.7087 660.119 32.9504C659.678 33.1817 659.168 33.2973 658.59 33.2973ZM658.826 31.9571C659.531 31.9571 660.098 31.7205 660.529 31.2475C660.96 30.7639 661.176 30.149 661.176 29.4026C661.176 28.8876 661.076 28.4408 660.876 28.0624C660.687 27.6734 660.414 27.3738 660.056 27.1636C659.699 26.9429 659.284 26.8325 658.811 26.8325C658.338 26.8325 657.917 26.9429 657.549 27.1636C657.192 27.3844 656.908 27.6892 656.698 28.0781C656.498 28.4566 656.398 28.8928 656.398 29.3869C656.398 29.8915 656.498 30.3382 656.698 30.7272C656.908 31.1056 657.197 31.4052 657.565 31.6259C657.933 31.8467 658.353 31.9571 658.826 31.9571ZM661.081 33.1396V31.1214L661.349 29.2923L661.081 27.479V25.6499H662.516V33.1396H661.081ZM665.529 33.1396V22.5121H666.948V33.1396H665.529ZM663.684 26.9429V25.6499H668.793V26.9429H663.684ZM670.026 33.1396V25.6499H671.445V33.1396H670.026ZM670.735 24.1519C670.472 24.1519 670.257 24.0678 670.089 23.8996C669.92 23.7209 669.836 23.5002 669.836 23.2374C669.836 22.9851 669.92 22.7749 670.089 22.6067C670.257 22.428 670.472 22.3386 670.735 22.3386C670.998 22.3386 671.213 22.428 671.382 22.6067C671.55 22.7749 671.634 22.9851 671.634 23.2374C671.634 23.5002 671.55 23.7209 671.382 23.8996C671.213 24.0678 670.998 24.1519 670.735 24.1519ZM676.784 33.2973C676.048 33.2973 675.386 33.1239 674.797 32.777C674.209 32.4301 673.741 31.9623 673.394 31.3736C673.047 30.7745 672.874 30.1069 672.874 29.3711C672.874 28.6458 673.047 27.994 673.394 27.4159C673.741 26.8272 674.209 26.3594 674.797 26.0125C675.386 25.6656 676.048 25.4922 676.784 25.4922C677.509 25.4922 678.166 25.6656 678.755 26.0125C679.354 26.3489 679.827 26.8115 680.174 27.4001C680.521 27.9888 680.695 28.6458 680.695 29.3711C680.695 30.1069 680.521 30.7745 680.174 31.3736C679.827 31.9623 679.354 32.4301 678.755 32.777C678.166 33.1239 677.509 33.2973 676.784 33.2973ZM676.784 31.9255C677.257 31.9255 677.678 31.8151 678.046 31.5944C678.414 31.3736 678.703 31.074 678.913 30.6956C679.123 30.3067 679.228 29.8652 679.228 29.3711C679.228 28.8876 679.118 28.4566 678.897 28.0781C678.687 27.6997 678.398 27.4054 678.03 27.1951C677.672 26.9744 677.257 26.864 676.784 26.864C676.311 26.864 675.891 26.9744 675.523 27.1951C675.155 27.4054 674.866 27.6997 674.655 28.0781C674.445 28.4566 674.34 28.8876 674.34 29.3711C674.34 29.8652 674.445 30.3067 674.655 30.6956C674.866 31.074 675.155 31.3736 675.523 31.5944C675.891 31.8151 676.311 31.9255 676.784 31.9255ZM687.418 33.1396V28.7719C687.418 28.2043 687.239 27.7365 686.882 27.3686C686.525 27.0007 686.062 26.8167 685.494 26.8167C685.116 26.8167 684.78 26.9008 684.485 27.069C684.191 27.2372 683.96 27.4684 683.792 27.7628C683.623 28.0571 683.539 28.3935 683.539 28.7719L682.956 28.4408C682.956 27.8732 683.082 27.3686 683.334 26.9271C683.587 26.4856 683.939 26.1387 684.391 25.8864C684.843 25.6236 685.353 25.4922 685.92 25.4922C686.488 25.4922 686.987 25.6341 687.418 25.9179C687.86 26.2018 688.207 26.5749 688.459 27.0375C688.711 27.4895 688.837 27.973 688.837 28.4881V33.1396H687.418ZM682.12 33.1396V25.6499H683.539V33.1396H682.12ZM591.603 57.2973C590.867 57.2973 590.2 57.1239 589.6 56.777C589.012 56.4301 588.544 55.9623 588.197 55.3736C587.861 54.7745 587.693 54.1122 587.693 53.3869C587.693 52.651 587.861 51.9888 588.197 51.4001C588.544 50.8115 589.012 50.3489 589.6 50.0125C590.2 49.6656 590.867 49.4922 591.603 49.4922C592.181 49.4922 592.717 49.6026 593.211 49.8233C593.705 50.0336 594.131 50.3437 594.488 50.7536L593.542 51.6997C593.311 51.4264 593.027 51.2214 592.691 51.0848C592.365 50.9376 592.002 50.864 591.603 50.864C591.13 50.864 590.709 50.9744 590.342 51.1951C589.974 51.4054 589.685 51.6997 589.474 52.0781C589.264 52.4566 589.159 52.8928 589.159 53.3869C589.159 53.8809 589.264 54.3172 589.474 54.6956C589.685 55.074 589.974 55.3736 590.342 55.5944C590.709 55.8151 591.13 55.9255 591.603 55.9255C592.002 55.9255 592.365 55.8572 592.691 55.7205C593.027 55.5734 593.316 55.3631 593.558 55.0898L594.488 56.0359C594.142 56.4353 593.716 56.7455 593.211 56.9662C592.717 57.187 592.181 57.2973 591.603 57.2973ZM598.99 57.2973C598.254 57.2973 597.592 57.1239 597.003 56.777C596.415 56.4301 595.947 55.9623 595.6 55.3736C595.253 54.7745 595.08 54.1069 595.08 53.3711C595.08 52.6458 595.253 51.994 595.6 51.4159C595.947 50.8272 596.415 50.3594 597.003 50.0125C597.592 49.6656 598.254 49.4922 598.99 49.4922C599.715 49.4922 600.372 49.6656 600.961 50.0125C601.56 50.3489 602.033 50.8115 602.38 51.4001C602.727 51.9888 602.901 52.6458 602.901 53.3711C602.901 54.1069 602.727 54.7745 602.38 55.3736C602.033 55.9623 601.56 56.4301 600.961 56.777C600.372 57.1239 599.715 57.2973 598.99 57.2973ZM598.99 55.9255C599.463 55.9255 599.884 55.8151 600.252 55.5944C600.619 55.3736 600.909 55.074 601.119 54.6956C601.329 54.3067 601.434 53.8652 601.434 53.3711C601.434 52.8876 601.324 52.4566 601.103 52.0781C600.893 51.6997 600.604 51.4054 600.236 51.1951C599.878 50.9744 599.463 50.864 598.99 50.864C598.517 50.864 598.097 50.9744 597.729 51.1951C597.361 51.4054 597.072 51.6997 596.861 52.0781C596.651 52.4566 596.546 52.8876 596.546 53.3711C596.546 53.8652 596.651 54.3067 596.861 54.6956C597.072 55.074 597.361 55.3736 597.729 55.5944C598.097 55.8151 598.517 55.9255 598.99 55.9255ZM606.707 57.2973C606.287 57.2973 605.887 57.2448 605.509 57.1396C605.141 57.024 604.799 56.8663 604.484 56.6666C604.168 56.4564 603.895 56.2093 603.664 55.9255L604.578 55.011C604.852 55.3474 605.167 55.5996 605.524 55.7678C605.882 55.9255 606.281 56.0044 606.723 56.0044C607.164 56.0044 607.506 55.9308 607.748 55.7836C607.989 55.6259 608.11 55.4104 608.11 55.1371C608.11 54.8638 608.011 54.6536 607.811 54.5064C607.622 54.3487 607.375 54.2226 607.07 54.128C606.765 54.0229 606.439 53.923 606.092 53.8284C605.756 53.7233 605.435 53.5919 605.13 53.4342C604.825 53.2765 604.573 53.061 604.373 52.7877C604.184 52.5144 604.09 52.1517 604.09 51.6997C604.09 51.2477 604.2 50.8588 604.421 50.5329C604.641 50.1965 604.946 49.939 605.335 49.7603C605.735 49.5816 606.213 49.4922 606.77 49.4922C607.359 49.4922 607.879 49.5973 608.331 49.8076C608.794 50.0073 609.172 50.3121 609.466 50.7221L608.552 51.6366C608.342 51.3633 608.079 51.1531 607.763 51.0059C607.459 50.8588 607.112 50.7852 606.723 50.7852C606.313 50.7852 605.997 50.8588 605.777 51.0059C605.566 51.1426 605.461 51.337 605.461 51.5893C605.461 51.8416 605.556 52.0361 605.745 52.1727C605.934 52.3094 606.181 52.425 606.486 52.5196C606.802 52.6143 607.128 52.7141 607.464 52.8192C607.8 52.9138 608.121 53.0452 608.426 53.2134C608.731 53.3816 608.978 53.6076 609.167 53.8915C609.367 54.1753 609.466 54.5485 609.466 55.011C609.466 55.7153 609.214 56.2724 608.71 56.6824C608.215 57.0923 607.548 57.2973 606.707 57.2973ZM612.033 57.1396V46.5121H613.452V57.1396H612.033ZM610.188 50.9429V49.6499H615.297V50.9429H610.188ZM618.74 57.2973C618.32 57.2973 617.92 57.2448 617.542 57.1396C617.174 57.024 616.833 56.8663 616.517 56.6666C616.202 56.4564 615.928 56.2093 615.697 55.9255L616.612 55.011C616.885 55.3474 617.2 55.5996 617.558 55.7678C617.915 55.9255 618.315 56.0044 618.756 56.0044C619.198 56.0044 619.539 55.9308 619.781 55.7836C620.023 55.6259 620.144 55.4104 620.144 55.1371C620.144 54.8638 620.044 54.6536 619.844 54.5064C619.655 54.3487 619.408 54.2226 619.103 54.128C618.798 54.0229 618.472 53.923 618.125 53.8284C617.789 53.7233 617.468 53.5919 617.164 53.4342C616.859 53.2765 616.606 53.061 616.407 52.7877C616.218 52.5144 616.123 52.1517 616.123 51.6997C616.123 51.2477 616.233 50.8588 616.454 50.5329C616.675 50.1965 616.98 49.939 617.369 49.7603C617.768 49.5816 618.246 49.4922 618.803 49.4922C619.392 49.4922 619.913 49.5973 620.365 49.8076C620.827 50.0073 621.205 50.3121 621.5 50.7221L620.585 51.6366C620.375 51.3633 620.112 51.1531 619.797 51.0059C619.492 50.8588 619.145 50.7852 618.756 50.7852C618.346 50.7852 618.031 50.8588 617.81 51.0059C617.6 51.1426 617.495 51.337 617.495 51.5893C617.495 51.8416 617.589 52.0361 617.779 52.1727C617.968 52.3094 618.215 52.425 618.52 52.5196C618.835 52.6143 619.161 52.7141 619.497 52.8192C619.834 52.9138 620.154 53.0452 620.459 53.2134C620.764 53.3816 621.011 53.6076 621.2 53.8915C621.4 54.1753 621.5 54.5485 621.5 55.011C621.5 55.7153 621.248 56.2724 620.743 56.6824C620.249 57.0923 619.581 57.2973 618.74 57.2973Z" fill="#242424"/>
<path d="M587.771 144.348V138.614H591.365V139.359H588.636V141.106H591.178V141.848H588.636V143.603H591.399V144.348H587.771ZM595.959 140.047L594.4 144.348H593.504L591.942 140.047H592.84L593.929 143.357H593.974L595.06 140.047H595.959ZM598.229 146.05C597.888 146.05 597.594 146.005 597.347 145.915C597.103 145.826 596.903 145.707 596.748 145.56C596.593 145.412 596.477 145.251 596.401 145.076L597.12 144.779C597.171 144.861 597.238 144.948 597.322 145.039C597.408 145.133 597.524 145.212 597.669 145.277C597.817 145.342 598.006 145.375 598.238 145.375C598.555 145.375 598.817 145.298 599.024 145.143C599.231 144.99 599.335 144.745 599.335 144.409V143.564H599.282C599.231 143.655 599.159 143.757 599.063 143.869C598.97 143.981 598.841 144.078 598.677 144.16C598.513 144.242 598.299 144.283 598.036 144.283C597.696 144.283 597.39 144.204 597.118 144.045C596.847 143.885 596.632 143.649 596.474 143.337C596.317 143.023 596.239 142.638 596.239 142.181C596.239 141.723 596.316 141.331 596.471 141.005C596.628 140.678 596.842 140.428 597.115 140.254C597.387 140.079 597.696 139.991 598.042 139.991C598.308 139.991 598.524 140.036 598.688 140.126C598.853 140.213 598.98 140.316 599.072 140.434C599.165 140.551 599.237 140.655 599.287 140.744H599.349V140.047H600.169V144.443C600.169 144.812 600.083 145.116 599.912 145.353C599.74 145.59 599.508 145.765 599.215 145.879C598.923 145.993 598.595 146.05 598.229 146.05ZM598.221 143.589C598.461 143.589 598.665 143.533 598.831 143.421C598.999 143.307 599.126 143.145 599.212 142.934C599.3 142.721 599.343 142.466 599.343 142.169C599.343 141.88 599.3 141.625 599.215 141.405C599.129 141.185 599.003 141.013 598.837 140.89C598.671 140.765 598.465 140.702 598.221 140.702C597.969 140.702 597.759 140.768 597.591 140.898C597.423 141.027 597.296 141.203 597.21 141.425C597.126 141.647 597.084 141.895 597.084 142.169C597.084 142.451 597.127 142.699 597.213 142.911C597.299 143.124 597.426 143.29 597.594 143.41C597.763 143.529 597.972 143.589 598.221 143.589ZM602.972 144.434C602.548 144.434 602.183 144.344 601.877 144.163C601.573 143.98 601.338 143.723 601.172 143.393C601.007 143.061 600.925 142.672 600.925 142.225C600.925 141.785 601.007 141.397 601.172 141.061C601.338 140.725 601.569 140.463 601.866 140.274C602.165 140.086 602.514 139.991 602.913 139.991C603.156 139.991 603.391 140.031 603.619 140.112C603.846 140.192 604.051 140.318 604.232 140.49C604.413 140.661 604.556 140.884 604.66 141.159C604.765 141.431 604.817 141.763 604.817 142.153V142.449H601.399V141.822H603.997C603.997 141.602 603.952 141.407 603.862 141.237C603.773 141.065 603.647 140.93 603.484 140.831C603.324 140.732 603.135 140.683 602.919 140.683C602.684 140.683 602.478 140.741 602.303 140.856C602.129 140.97 601.995 141.12 601.9 141.304C601.806 141.487 601.76 141.686 601.76 141.901V142.391C601.76 142.678 601.81 142.923 601.911 143.124C602.014 143.326 602.156 143.48 602.339 143.586C602.522 143.691 602.736 143.743 602.98 143.743C603.139 143.743 603.284 143.721 603.414 143.676C603.545 143.629 603.658 143.56 603.753 143.469C603.848 143.377 603.921 143.264 603.971 143.13L604.764 143.273C604.7 143.506 604.586 143.71 604.422 143.886C604.26 144.059 604.055 144.195 603.809 144.292C603.565 144.387 603.286 144.434 602.972 144.434ZM606.409 141.794V144.348H605.572V140.047H606.376V140.747H606.429C606.528 140.52 606.683 140.337 606.894 140.198C607.107 140.06 607.374 139.991 607.697 139.991C607.99 139.991 608.247 140.053 608.467 140.176C608.687 140.297 608.858 140.478 608.98 140.719C609.101 140.96 609.162 141.258 609.162 141.612V144.348H608.324V141.713C608.324 141.401 608.243 141.158 608.081 140.982C607.918 140.805 607.695 140.716 607.412 140.716C607.218 140.716 607.045 140.758 606.894 140.842C606.744 140.926 606.626 141.05 606.538 141.212C606.452 141.373 606.409 141.567 606.409 141.794ZM610.111 144.348V140.047H610.948V144.348H610.111ZM610.534 139.384C610.388 139.384 610.263 139.335 610.158 139.238C610.056 139.139 610.004 139.022 610.004 138.885C610.004 138.747 610.056 138.63 610.158 138.533C610.263 138.434 610.388 138.384 610.534 138.384C610.679 138.384 610.803 138.434 610.906 138.533C611.01 138.63 611.063 138.747 611.063 138.885C611.063 139.022 611.01 139.139 610.906 139.238C610.803 139.335 610.679 139.384 610.534 139.384ZM613.152 144.443C612.88 144.443 612.633 144.392 612.413 144.292C612.193 144.189 612.018 144.041 611.889 143.847C611.762 143.652 611.699 143.414 611.699 143.133C611.699 142.89 611.746 142.69 611.839 142.533C611.932 142.377 612.058 142.253 612.217 142.161C612.376 142.07 612.553 142.001 612.749 141.954C612.945 141.907 613.145 141.872 613.348 141.848C613.606 141.818 613.815 141.793 613.975 141.775C614.136 141.754 614.252 141.722 614.325 141.677C614.398 141.632 614.434 141.559 614.434 141.458V141.439C614.434 141.194 614.365 141.005 614.227 140.87C614.091 140.736 613.887 140.669 613.617 140.669C613.335 140.669 613.113 140.731 612.951 140.856C612.79 140.98 612.679 141.117 612.617 141.268L611.831 141.089C611.924 140.827 612.06 140.617 612.239 140.456C612.42 140.294 612.629 140.176 612.864 140.103C613.099 140.029 613.346 139.991 613.606 139.991C613.777 139.991 613.959 140.012 614.152 140.053C614.346 140.092 614.527 140.165 614.695 140.271C614.865 140.378 615.004 140.53 615.112 140.728C615.22 140.924 615.274 141.178 615.274 141.492V144.348H614.457V143.76H614.423C614.369 143.868 614.288 143.974 614.18 144.079C614.071 144.183 613.932 144.27 613.762 144.339C613.593 144.408 613.389 144.443 613.152 144.443ZM613.334 143.771C613.566 143.771 613.763 143.725 613.928 143.634C614.094 143.542 614.22 143.423 614.306 143.275C614.393 143.126 614.437 142.966 614.437 142.797V142.242C614.407 142.272 614.349 142.3 614.264 142.326C614.18 142.351 614.083 142.372 613.975 142.391C613.867 142.407 613.761 142.423 613.659 142.438C613.556 142.451 613.47 142.463 613.401 142.472C613.239 142.492 613.09 142.527 612.956 142.575C612.824 142.624 612.717 142.694 612.637 142.785C612.559 142.875 612.519 142.994 612.519 143.144C612.519 143.351 612.596 143.508 612.749 143.614C612.902 143.719 613.097 143.771 613.334 143.771Z" fill="black" fill-opacity="0.4"/>
</g>
<defs>
<filter id="filter0_ddd_665_3446" x="0" y="0" width="178" height="178" filterUnits="userSpaceOnUse" color-interpolation-filters="sRGB">
<feFlood flood-opacity="0" result="BackgroundImageFix"/>
<feColorMatrix in="SourceAlpha" type="matrix" values="0 0 0 0 0 0 0 0 0 0 0 0 0 0 0 0 0 0 127 0" result="hardAlpha"/>
<feOffset dy="2.5"/>
<feGaussianBlur stdDeviation="1"/>
<feColorMatrix type="matrix" values="0 0 0 0 0 0 0 0 0 0 0 0 0 0 0 0 0 0 0.02 0"/>
<feBlend mode="normal" in2="BackgroundImageFix" result="effect1_dropShadow_665_3446"/>
<feColorMatrix in="SourceAlpha" type="matrix" values="0 0 0 0 0 0 0 0 0 0 0 0 0 0 0 0 0 0 127 0" result="hardAlpha"/>
<feOffset dy="3"/>
<feGaussianBlur stdDeviation="2.5"/>
<feColorMatrix type="matrix" values="0 0 0 0 0 0 0 0 0 0 0 0 0 0 0 0 0 0 0.04 0"/>
<feBlend mode="normal" in2="effect1_dropShadow_665_3446" result="effect2_dropShadow_665_3446"/>
<feColorMatrix in="SourceAlpha" type="matrix" values="0 0 0 0 0 0 0 0 0 0 0 0 0 0 0 0 0 0 127 0" result="hardAlpha"/>
<feOffset dy="8"/>
<feGaussianBlur stdDeviation="5"/>
<feColorMatrix type="matrix" values="0 0 0 0 0 0 0 0 0 0 0 0 0 0 0 0 0 0 0.08 0"/>
<feBlend mode="normal" in2="effect2_dropShadow_665_3446" result="effect3_dropShadow_665_3446"/>
<feBlend mode="normal" in="SourceGraphic" in2="effect3_dropShadow_665_3446" result="shape"/>
</filter>
<filter id="filter1_ddd_665_3446" x="188" y="0" width="178" height="178" filterUnits="userSpaceOnUse" color-interpolation-filters="sRGB">
<feFlood flood-opacity="0" result="BackgroundImageFix"/>
<feColorMatrix in="SourceAlpha" type="matrix" values="0 0 0 0 0 0 0 0 0 0 0 0 0 0 0 0 0 0 127 0" result="hardAlpha"/>
<feOffset dy="2.5"/>
<feGaussianBlur stdDeviation="1"/>
<feColorMatrix type="matrix" values="0 0 0 0 0 0 0 0 0 0 0 0 0 0 0 0 0 0 0.02 0"/>
<feBlend mode="normal" in2="BackgroundImageFix" result="effect1_dropShadow_665_3446"/>
<feColorMatrix in="SourceAlpha" type="matrix" values="0 0 0 0 0 0 0 0 0 0 0 0 0 0 0 0 0 0 127 0" result="hardAlpha"/>
<feOffset dy="3"/>
<feGaussianBlur stdDeviation="2.5"/>
<feColorMatrix type="matrix" values="0 0 0 0 0 0 0 0 0 0 0 0 0 0 0 0 0 0 0.04 0"/>
<feBlend mode="normal" in2="effect1_dropShadow_665_3446" result="effect2_dropShadow_665_3446"/>
<feColorMatrix in="SourceAlpha" type="matrix" values="0 0 0 0 0 0 0 0 0 0 0 0 0 0 0 0 0 0 127 0" result="hardAlpha"/>
<feOffset dy="8"/>
<feGaussianBlur stdDeviation="5"/>
<feColorMatrix type="matrix" values="0 0 0 0 0 0 0 0 0 0 0 0 0 0 0 0 0 0 0.08 0"/>
<feBlend mode="normal" in2="effect2_dropShadow_665_3446" result="effect3_dropShadow_665_3446"/>
<feBlend mode="normal" in="SourceGraphic" in2="effect3_dropShadow_665_3446" result="shape"/>
</filter>
<filter id="filter2_ddd_665_3446" x="376" y="0" width="178" height="178" filterUnits="userSpaceOnUse" color-interpolation-filters="sRGB">
<feFlood flood-opacity="0" result="BackgroundImageFix"/>
<feColorMatrix in="SourceAlpha" type="matrix" values="0 0 0 0 0 0 0 0 0 0 0 0 0 0 0 0 0 0 127 0" result="hardAlpha"/>
<feOffset dy="2.5"/>
<feGaussianBlur stdDeviation="1"/>
<feColorMatrix type="matrix" values="0 0 0 0 0 0 0 0 0 0 0 0 0 0 0 0 0 0 0.02 0"/>
<feBlend mode="normal" in2="BackgroundImageFix" result="effect1_dropShadow_665_3446"/>
<feColorMatrix in="SourceAlpha" type="matrix" values="0 0 0 0 0 0 0 0 0 0 0 0 0 0 0 0 0 0 127 0" result="hardAlpha"/>
<feOffset dy="3"/>
<feGaussianBlur stdDeviation="2.5"/>
<feColorMatrix type="matrix" values="0 0 0 0 0 0 0 0 0 0 0 0 0 0 0 0 0 0 0.04 0"/>
<feBlend mode="normal" in2="effect1_dropShadow_665_3446" result="effect2_dropShadow_665_3446"/>
<feColorMatrix in="SourceAlpha" type="matrix" values="0 0 0 0 0 0 0 0 0 0 0 0 0 0 0 0 0 0 127 0" result="hardAlpha"/>
<feOffset dy="8"/>
<feGaussianBlur stdDeviation="5"/>
<feColorMatrix type="matrix" values="0 0 0 0 0 0 0 0 0 0 0 0 0 0 0 0 0 0 0.08 0"/>
<feBlend mode="normal" in2="effect2_dropShadow_665_3446" result="effect3_dropShadow_665_3446"/>
<feBlend mode="normal" in="SourceGraphic" in2="effect3_dropShadow_665_3446" result="shape"/>
</filter>
<filter id="filter3_ddd_665_3446" x="564" y="0" width="178" height="178" filterUnits="userSpaceOnUse" color-interpolation-filters="sRGB">
<feFlood flood-opacity="0" result="BackgroundImageFix"/>
<feColorMatrix in="SourceAlpha" type="matrix" values="0 0 0 0 0 0 0 0 0 0 0 0 0 0 0 0 0 0 127 0" result="hardAlpha"/>
<feOffset dy="2.5"/>
<feGaussianBlur stdDeviation="1"/>
<feColorMatrix type="matrix" values="0 0 0 0 0 0 0 0 0 0 0 0 0 0 0 0 0 0 0.02 0"/>
<feBlend mode="normal" in2="BackgroundImageFix" result="effect1_dropShadow_665_3446"/>
<feColorMatrix in="SourceAlpha" type="matrix" values="0 0 0 0 0 0 0 0 0 0 0 0 0 0 0 0 0 0 127 0" result="hardAlpha"/>
<feOffset dy="3"/>
<feGaussianBlur stdDeviation="2.5"/>
<feColorMatrix type="matrix" values="0 0 0 0 0 0 0 0 0 0 0 0 0 0 0 0 0 0 0.04 0"/>
<feBlend mode="normal" in2="effect1_dropShadow_665_3446" result="effect2_dropShadow_665_3446"/>
<feColorMatrix in="SourceAlpha" type="matrix" values="0 0 0 0 0 0 0 0 0 0 0 0 0 0 0 0 0 0 127 0" result="hardAlpha"/>
<feOffset dy="8"/>
<feGaussianBlur stdDeviation="5"/>
<feColorMatrix type="matrix" values="0 0 0 0 0 0 0 0 0 0 0 0 0 0 0 0 0 0 0.08 0"/>
<feBlend mode="normal" in2="effect2_dropShadow_665_3446" result="effect3_dropShadow_665_3446"/>
<feBlend mode="normal" in="SourceGraphic" in2="effect3_dropShadow_665_3446" result="shape"/>
</filter>
</defs>
</svg>
