<svg width="678" height="678" viewBox="0 0 678 678" fill="none" xmlns="http://www.w3.org/2000/svg">
<rect x="0.5" y="0.5" width="677" height="677" fill="#075264"/>
<path d="M320.882 328.473C322.505 328.325 324.067 328.178 325.69 328.03C325.764 327.76 325.912 327.477 325.875 327.231C325.358 323.505 325.456 319.742 325.395 315.991C325.321 311.54 325.186 307.076 325.223 302.624C325.247 299.538 325.543 296.439 325.629 293.352C325.678 291.717 325.53 290.069 325.543 288.433C325.543 287.314 325.555 286.183 325.739 285.076C326.022 283.428 327.141 282.383 328.715 282.051C330.351 281.695 331.851 282.223 332.81 283.625C333.413 284.498 333.892 285.519 334.114 286.54C334.556 288.593 334.815 290.696 335.085 292.787C335.528 296.23 335.934 299.673 336.327 303.116C336.573 305.305 336.807 307.494 337.016 309.683C337.483 314.577 337.938 319.484 338.393 324.378C338.713 327.92 339.106 331.473 339.303 335.027C339.512 338.962 339.451 342.91 339.672 346.845C339.881 350.583 340.225 354.321 340.643 358.047C341.16 362.61 341.836 367.147 342.377 371.71C342.586 373.431 342.599 375.165 342.685 376.899C342.771 378.657 342.365 380.354 341.787 381.99C341.098 383.958 338.491 386.515 336.044 386.282C334.47 386.134 333.142 385.544 332.011 384.486C330.006 382.605 329.035 380.207 328.555 377.563C327.793 373.456 327.387 369.312 327.363 365.118C327.313 359.068 327.227 353.006 327.08 346.955C327.006 343.955 326.76 340.967 326.576 337.966C326.563 337.794 326.489 337.61 326.44 337.401C324.792 337.192 323.182 336.982 321.521 336.761C321.755 339.257 321.989 341.754 322.235 344.25C322.468 346.673 322.714 349.095 322.96 351.53C323.305 355.022 323.661 358.527 323.993 362.019C324.116 363.323 324.214 364.639 324.313 365.942C324.62 369.644 324.854 373.333 324.35 377.034C324.141 378.522 323.858 379.998 322.972 381.277C321.116 383.958 317.881 384.191 315.816 381.387C314.647 379.789 314.241 377.883 313.897 375.989C313.11 371.66 312.311 367.32 311.708 362.966C311.241 359.634 311.057 356.252 310.749 352.895C310.503 350.239 310.233 347.583 309.987 344.926C309.876 343.807 309.79 342.688 309.704 341.569C309.2 334.781 308.818 327.981 309.126 321.181C309.323 316.877 309.815 312.585 310.134 308.281C310.343 305.367 310.897 302.526 311.893 299.771C312.077 299.267 312.372 298.726 312.766 298.382C314.008 297.312 315.139 297.435 316.172 298.702C316.553 299.169 316.861 299.722 317.045 300.288C318.115 303.596 318.828 306.977 319.05 310.47C319.222 313.175 319.542 315.881 319.812 318.586C320.12 321.611 320.439 324.648 320.759 327.674C320.759 327.895 320.82 328.129 320.882 328.473Z" fill="white"/>
<path d="M379.511 338.509C379.462 338.853 379.363 339.21 379.363 339.554C379.376 343.92 379.388 348.285 379.437 352.651C379.462 355.135 379.572 357.619 379.597 360.103C379.609 360.89 379.511 361.701 379.351 362.476C379.142 363.485 378.466 363.878 377.457 363.595C377.014 363.472 376.584 363.251 376.215 362.98C375.231 362.23 374.481 361.283 373.916 360.177C372.465 357.385 371.739 354.397 371.444 351.286C370.989 346.428 370.804 341.559 370.804 336.677C370.804 333.209 370.583 329.729 370.681 326.261C370.804 321.674 371.124 317.087 371.395 312.501C371.555 309.832 371.788 307.176 372.01 304.508C372.059 303.954 372.157 303.388 372.268 302.847C372.735 300.72 374.211 299.269 376.203 298.937C378.023 298.642 380.199 299.712 381.195 301.446C381.564 302.097 381.86 302.786 382.142 303.487C385.118 311.05 387.529 318.784 389.594 326.642C390.554 330.307 391.746 333.935 393.001 337.513C393.579 339.185 394.55 340.723 395.374 342.297C395.571 342.666 395.841 343.01 396.112 343.33C397.145 344.535 397.858 344.572 399.088 343.539C400.379 342.444 401.178 341.005 401.879 339.517C403.281 336.517 404.019 333.332 404.474 330.061C404.941 326.704 405.064 323.334 405.027 319.953C404.978 315.575 404.179 311.283 403.527 306.979C403.023 303.72 402.002 300.597 401.166 297.437C400.859 296.305 400.613 295.162 400.416 294.006C400.047 291.891 400.576 290.058 402.42 288.829C404.277 287.587 406.22 287.66 408.151 288.743C410.487 290.046 412.012 292.112 413.352 294.35C415.541 297.99 416.587 302.023 417.46 306.118C418.566 311.332 418.985 316.583 418.972 321.908C418.96 328.081 418.407 334.193 416.587 340.108C415.627 343.243 414.41 346.293 412.565 349.06C411.176 351.126 409.774 353.143 407.782 354.717C404.781 357.078 401.449 358.615 397.637 358.873C394.489 359.082 391.623 358.086 389.09 356.168C386.041 353.844 384.159 350.683 382.683 347.228C381.663 344.854 380.913 342.383 380.384 339.849C380.285 339.37 380.076 338.915 379.917 338.448C379.781 338.46 379.646 338.484 379.511 338.509Z" fill="white"/>
<path d="M314.22 410.62C314.995 412.071 314.725 413.35 314.282 414.506C313.716 415.982 313.052 417.457 312.204 418.786C309.437 423.102 305.662 426.373 301.21 428.881C297.238 431.12 293.278 433.358 289.011 435.018C285.765 436.284 282.457 437.379 278.989 437.748C273.357 438.363 267.774 437.944 262.597 435.473C257.383 432.989 253.497 429.054 251.222 423.667C248.972 418.367 248.345 412.858 248.861 407.14C249.242 403.021 250.435 399.135 251.985 395.359C253.264 392.236 255.01 389.371 257.076 386.665C259.609 383.345 262.474 380.418 265.844 377.996C270.406 374.713 275.484 372.597 281.08 371.786C285.421 371.159 289.503 371.909 293.266 374.172C297.361 376.631 299.513 380.406 300.374 385.005C300.706 386.764 300.817 388.535 300.374 390.305C300.042 391.584 299.378 392.605 298.246 393.343C296.709 394.339 294.705 394.179 293.512 392.765C292.774 391.879 292.159 390.834 291.704 389.777C290.536 387.096 288.433 385.952 285.642 385.706C282.715 385.436 280.194 386.542 277.809 387.993C276.001 389.088 274.255 390.281 272.509 391.474C269.815 393.33 267.983 395.851 266.446 398.729C264.085 403.156 263.372 407.841 263.692 412.748C263.876 415.539 265.007 418.023 266.68 420.224C267.651 421.491 269.127 422.155 270.664 422.462C274.833 423.299 279.063 423.323 283.293 422.979C286.626 422.708 289.897 422.13 293.131 421.294C296.562 420.409 299.784 418.995 302.944 417.445C305.981 415.957 309.093 414.604 311.687 412.366C312.081 412.034 312.487 411.702 312.905 411.407C313.298 411.149 313.704 410.928 314.22 410.62Z" fill="white"/>
<path d="M449.42 303.782C449.457 303.315 449.457 303.056 449.506 302.81C449.691 302.036 450.01 301.286 450.072 300.511C450.293 297.461 450.318 294.411 449.211 291.485C448.399 289.333 447.748 287.119 446.333 285.25C446.075 284.918 445.829 284.561 445.546 284.254C444.354 282.987 442.841 283.012 441.857 284.463C440.935 285.816 440.087 287.242 439.435 288.742C437.295 293.612 435.721 298.654 434.959 303.929C434.59 306.524 434.073 309.094 433.655 311.689C433.508 312.66 433.409 313.644 433.397 314.628C433.397 319.227 433.422 323.826 433.458 328.413C433.458 329.028 433.508 329.63 433.557 330.245C433.827 334.217 434.098 338.189 434.393 342.161C434.774 347.314 435.598 352.392 436.693 357.434C437.418 360.804 438.66 363.989 440.345 366.989C440.738 367.678 441.23 368.317 441.734 368.932C442.509 369.879 443.542 370.15 444.649 369.707C445.989 369.166 447.342 368.588 448.584 367.838C454.216 364.419 458.852 359.967 462.209 354.262C464.582 350.216 466.12 345.85 467.091 341.276C467.276 340.415 467.448 339.567 467.669 338.509C465.775 338.718 464.066 338.939 462.357 339.075C459.7 339.284 457.057 339.849 454.364 339.247C452.457 338.816 450.625 338.3 449.494 336.492C448.412 334.771 448.584 332.803 450.01 331.327C450.994 330.307 452.212 329.741 453.564 329.434C454.339 329.262 455.138 329.139 455.925 329.077C458.545 328.868 461.164 328.684 463.795 328.536C466.624 328.376 469.427 328.622 472.219 329.089C474.432 329.458 476.105 331.008 476.511 333.504C476.843 335.533 476.757 337.525 476.449 339.517C475.527 345.395 473.854 351.052 471.125 356.34C466.87 364.579 460.807 371.195 452.777 375.905C450.133 377.454 447.366 378.684 444.243 379.016C441.316 379.335 438.894 378.339 436.791 376.421C434.565 374.392 433.114 371.81 431.934 369.08C430.052 364.751 428.908 360.201 428.22 355.553C427.457 350.462 426.744 345.346 426.326 340.218C425.982 335.927 425.994 331.598 426.019 327.282C426.043 324.097 426.301 320.912 426.523 317.739C427.125 309.254 428.121 300.843 430.962 292.764C432.167 289.345 433.532 286 435.401 282.901C436.078 281.782 436.84 280.688 437.738 279.741C439.705 277.663 443.345 276.322 446.641 278.905C448.35 280.245 449.568 281.942 450.576 283.811C451.941 286.345 453.035 288.988 453.527 291.829C453.859 293.686 453.736 295.555 453.269 297.412C452.728 299.601 451.634 301.482 450.269 303.241C450.084 303.438 449.814 303.524 449.42 303.782Z" fill="white"/>
<path d="M292.282 292.383C290.818 292.531 289.465 292.605 288.125 292.801C284.092 293.392 280.07 294.142 276.025 294.646C270.159 295.371 264.318 296.392 258.366 296.122C256.116 296.023 253.853 295.937 251.689 295.224C250.68 294.892 249.66 294.449 248.774 293.859C246.979 292.666 246.77 290.514 248.135 288.842C249.143 287.612 250.434 286.776 251.836 286.087C256.263 283.923 260.936 282.533 265.818 281.955C271.881 281.242 277.943 280.59 284.018 279.975C288.174 279.545 292.331 279.102 296.499 278.869C300.533 278.635 304.579 278.598 308.612 278.623C309.94 278.635 311.293 279.041 312.596 279.397C313.248 279.582 313.888 279.988 314.429 280.418C316.298 281.906 316.421 284.279 314.65 285.903C313.937 286.554 313.051 287.108 312.141 287.403C309.596 288.227 307.013 288.928 304.431 289.629C302.587 290.133 300.717 290.588 298.701 291.104C298.996 291.535 299.18 291.854 299.402 292.125C301.185 294.302 302.168 296.798 302.365 299.589C302.66 303.746 302.869 307.915 303.214 312.071C303.447 314.961 303.865 317.838 304.197 320.728C304.542 323.753 304.874 326.778 305.181 329.816C305.439 332.238 305.661 334.661 305.894 337.096C305.919 337.329 305.968 337.563 305.981 337.797C306.104 340.563 306.214 343.33 306.325 346.097C306.423 348.766 306.534 351.434 306.608 354.115C306.669 356.291 306.362 358.419 305.747 360.497C305.55 361.161 305.28 361.825 304.898 362.415C304.025 363.78 302.882 363.903 301.763 362.735C300.312 361.223 299.242 359.452 298.602 357.46C297.582 354.238 296.954 350.905 296.659 347.548C296.278 343.257 296.106 338.94 295.749 334.649C295.491 331.611 295.061 328.598 294.741 325.573C294.421 322.585 294.114 319.609 293.831 316.621C293.548 313.633 293.278 310.644 293.056 307.656C292.896 305.455 292.81 303.254 292.712 301.053C292.601 298.433 292.503 295.802 292.405 293.183C292.405 292.986 292.355 292.814 292.282 292.383Z" fill="white"/>
<path d="M267.94 357.631C261.816 357.434 257.413 355.098 254.044 350.769C251.4 347.375 250.183 343.428 249.519 339.247C249.027 336.16 248.965 333.061 249.297 329.999C249.605 327.171 250.269 324.367 250.933 321.588C251.892 317.567 253.257 313.657 255.175 309.98C257.475 305.54 260.869 302.319 265.862 301.052C267.472 300.646 269.096 300.548 270.731 300.978C273.363 301.691 275.244 303.253 276.277 305.762C276.757 306.93 277.199 308.135 277.421 309.365C277.654 310.607 278.232 311.578 279.13 312.341C283.237 315.833 285.303 320.408 286.287 325.56C287.345 331.168 286.631 336.665 285.045 342.088C284.209 344.94 283.102 347.67 281.368 350.105C278.81 353.684 275.355 355.996 271.1 357.065C269.883 357.397 268.616 357.508 267.94 357.631ZM268.973 311.05C268.555 311.468 268.1 311.837 267.743 312.292C266.23 314.259 265.296 316.51 264.619 318.858C263.181 323.814 263.39 328.868 263.808 333.935C263.894 334.955 264.054 335.988 264.287 336.984C264.656 338.534 265.136 340.071 266.23 341.301C267.091 342.284 267.78 342.383 268.801 341.645C269.317 341.264 269.883 340.809 270.153 340.255C270.707 339.136 271.211 337.956 271.518 336.738C272.539 332.643 272.527 328.573 271.039 324.564C270.498 323.113 269.969 321.662 269.489 320.186C268.542 317.26 267.841 314.308 269.169 311.296C269.182 311.283 269.12 311.234 268.973 311.05Z" fill="white"/>
<path d="M216.442 294.916C214.917 296.146 214.204 297.671 213.675 299.269C212.827 301.852 212.249 304.508 211.769 307.189C210.502 314.272 210.822 321.416 210.994 328.524C211.129 334.144 211.634 339.752 212.003 345.371C212.187 348.224 212.384 351.077 212.63 353.93C213.023 358.505 213.527 363.079 214.72 367.531C214.769 367.703 214.892 367.863 215.077 368.195C215.298 367.691 215.495 367.334 215.593 366.953C216.319 364.383 216.835 361.763 217.106 359.095C217.659 353.549 218.176 347.991 218.828 342.457C219.11 339.973 220.008 337.624 221.238 335.448C222.099 333.923 222.763 333.775 224.152 334.845C225.32 335.755 226.095 337.022 226.661 338.362C227.436 340.194 227.78 342.125 227.878 344.117C227.94 345.236 228.149 346.367 228.087 347.486C227.927 350.389 227.731 353.291 227.411 356.168C227.091 359.095 226.673 362.022 226.169 364.936C225.591 368.219 224.644 371.417 223.119 374.405C222.111 376.385 220.684 377.959 218.889 379.225C215.962 381.291 211.794 380.885 209.014 378.303C206.592 376.04 205.288 373.163 204.428 370.039C203.247 365.785 202.694 361.419 202.079 357.054C200.726 347.474 200.984 337.858 201.095 328.241C201.132 325.29 201.525 322.351 201.796 319.412C202.067 316.522 202.362 313.632 202.706 310.743C203.296 305.799 204.12 300.905 205.706 296.17C206.543 293.662 207.846 291.461 209.777 289.678C212.039 287.599 214.671 286.837 217.721 287.575C220.475 288.239 222.025 290.157 223.058 292.567C224.779 296.613 225.775 300.843 225.96 305.246C225.984 305.947 225.984 306.66 225.874 307.349C225.677 308.627 224.632 309.55 223.377 309.66C221.877 309.783 220.918 309.205 220.488 307.767C220.131 306.598 219.959 305.381 219.615 304.225C218.791 301.483 217.905 298.765 217.032 296.047C216.909 295.728 216.7 295.42 216.442 294.916Z" fill="white"/>
<path d="M397.996 420.888C398.058 421.577 398.095 422.13 398.168 422.684C398.39 424.27 398.181 425.783 397.381 427.172C396.348 428.98 394.295 429.435 392.524 428.316C391.417 427.615 390.692 426.582 390.089 425.451C388.798 423.065 388.195 420.446 387.814 417.814C387.101 412.908 386.461 407.989 385.883 403.058C385.588 400.549 385.49 398.016 385.33 395.495C385.305 395.027 385.318 394.548 385.392 394.093C385.601 392.679 385.428 391.289 385.06 389.924C384.728 388.682 384.605 387.452 384.789 386.174C385.158 383.64 386.621 381.882 388.749 380.664C392.942 378.279 397.394 377.934 401.919 379.521C404.378 380.382 406.186 382.066 406.912 384.673C407.33 386.186 407.244 387.735 406.912 389.26C406.776 389.887 406.629 390.527 406.444 391.314C406.912 391.424 407.293 391.547 407.686 391.597C411.142 392.101 414.376 393.183 417.081 395.433C418.704 396.774 420.119 398.36 421.607 399.873C422.652 400.942 423.623 402.098 424.669 403.168C427.522 406.132 426.71 409.181 423.796 411.297C423.119 411.788 422.344 412.182 421.57 412.489C415.2 414.998 408.818 417.507 402.411 419.954C401.329 420.36 400.136 420.483 398.992 420.728C398.734 420.753 398.463 420.802 397.996 420.888ZM418.754 406.611C417.573 405.431 416.663 404.373 415.593 403.488C413.392 401.656 410.908 400.414 407.957 400.303C404.268 400.155 400.874 400.893 397.959 403.291C397.639 403.562 397.307 403.845 396.939 404.029C396.09 404.459 395.893 405.136 395.992 406.009C396.275 408.419 396.52 410.842 396.803 413.252C396.902 414.051 397.074 414.85 397.246 415.847C399.386 414.088 401.636 413.067 403.96 412.194C406.383 411.297 408.818 410.473 411.228 409.563C413.663 408.665 416.073 407.669 418.754 406.611ZM396.742 387.92C395.414 387.465 394.221 387.809 392.88 388.19C393.114 389.777 393.643 391.203 394.245 392.703C396.594 389.654 396.742 389.371 396.742 387.92Z" fill="white"/>
<path d="M362.874 415.896C362.579 416.29 362.333 416.609 362.087 416.929C360.021 419.634 357.525 421.75 354.205 422.795C351.389 423.68 348.929 423.016 346.716 421.196C345.154 419.917 344.072 418.269 343.395 416.376C341.834 412.023 340.739 407.571 340.973 402.91C341.047 401.422 341.293 399.934 341.502 398.447C341.563 397.992 341.711 397.537 341.883 397.094C342.399 395.753 343.432 395.003 344.613 395.053C345.904 395.114 346.998 395.938 347.441 397.254C347.798 398.324 348.068 399.418 348.388 400.488C349.409 403.993 350.417 407.51 351.487 411.002C351.757 411.875 352.212 412.687 352.606 413.572C354.229 412.945 355.151 411.85 355.865 410.559C357.021 408.481 357.586 406.181 357.845 403.857C358.25 400.18 358.459 396.479 358.767 392.802C358.841 391.868 358.877 390.921 359.099 390.011C360.132 385.596 364.719 385.35 366.92 387.244C368.285 388.424 369.109 389.937 369.527 391.659C370.388 395.212 371.298 398.754 371.962 402.345C372.822 406.919 374.556 411.137 376.733 415.208C377.741 417.089 378.565 418.995 378.553 421.196C378.541 423.533 377.52 425.291 375.466 426.336C373.56 427.308 371.642 427.05 369.834 425.931C367.67 424.59 366.379 422.512 365.174 420.385C364.362 418.97 363.686 417.482 362.874 415.896Z" fill="white"/>
<path d="M243.414 342.801C243.414 347.818 243.414 352.848 243.414 357.865C243.414 361.05 243.402 364.235 243.427 367.42C243.439 368.736 243.611 370.039 243.574 371.355C243.537 372.277 243.451 373.274 243.058 374.085C241.828 376.704 238.446 376.914 236.909 374.442C236.307 373.483 235.962 372.29 235.753 371.158C235.237 368.392 234.868 365.612 234.45 362.833C234.401 362.514 234.339 362.182 234.327 361.862C234.216 359.427 234.167 356.992 234.007 354.557C233.798 351.372 233.503 348.2 233.269 345.027C233.134 343.256 232.962 341.473 232.937 339.69C232.814 331.291 232.654 322.892 232.667 314.493C232.679 309.66 233.011 304.84 233.159 300.007C233.22 297.806 233.183 295.593 233.159 293.391C233.146 292.371 233.355 291.436 233.86 290.563C234.966 288.657 237.254 288.559 238.459 290.391C238.791 290.883 239.061 291.473 239.16 292.051C240.193 297.855 241.25 303.672 242.185 309.501C242.541 311.763 242.664 314.075 242.8 316.362C243.304 324.515 243.513 332.668 243.439 340.834C243.439 341.485 243.439 342.15 243.439 342.801C243.414 342.801 243.414 342.801 243.414 342.801Z" fill="white"/>
<path d="M361.878 349.821C361.719 352.121 361.03 354.531 359.542 356.56C357.39 359.487 353.922 359.622 351.487 356.794C349.274 354.224 347.97 351.186 347.7 347.731C347.429 344.275 347.011 340.832 346.691 337.389C346.556 335.987 346.458 334.585 346.384 333.183C346.163 329.162 345.941 325.141 345.757 321.12C345.56 316.557 345.917 312.032 346.618 307.531C346.9 305.662 347.392 303.855 348.831 302.477C351.918 299.489 356.086 300.916 357.685 304.076C358.115 304.937 358.374 305.933 358.484 306.892C358.841 310.286 359.075 313.705 359.407 317.111C359.665 319.669 360.046 322.226 360.329 324.784C360.599 327.158 360.919 329.531 361.042 331.904C361.239 335.79 361.251 339.688 361.411 343.574C361.485 345.579 361.706 347.583 361.878 349.821Z" fill="white"/>
<path d="M375.862 271.698C376.403 271.428 376.797 271.243 377.178 271.047C381.556 268.772 385.872 266.386 390.484 264.591C393.964 263.238 397.567 262.389 401.268 262.033C402.326 261.934 403.408 262.156 404.478 262.291C404.834 262.34 405.24 262.488 405.498 262.722C405.855 263.041 406.335 263.509 406.322 263.89C406.298 264.283 405.806 264.738 405.412 265.009C404.957 265.316 404.379 265.439 403.851 265.624C400.063 266.952 396.608 268.956 393.017 270.69C389.082 272.596 385.171 274.527 381.175 276.298C379.92 276.863 378.469 277.023 377.092 277.257C375.961 277.441 374.866 277.121 373.796 276.703C372.198 276.088 371.239 274.969 370.587 273.383C369.001 269.534 368.3 265.464 367.328 261.467C366.332 257.372 365.398 253.253 364.537 249.133C364.217 247.596 363.799 246.047 364.045 244.411C364.414 241.866 366.566 240.009 369.812 241.054C370.907 241.411 371.89 241.435 372.973 241.177C375.53 240.55 378.076 239.837 380.744 240.033C381.9 240.119 383.069 240.365 384.175 240.722C384.815 240.919 385.43 241.386 385.885 241.89C386.893 243.009 386.733 244.264 385.516 245.173C383.069 247.006 380.351 248.211 377.338 248.777C376.231 248.986 375.125 249.182 374.018 249.416C373.76 249.465 373.526 249.637 373.231 249.773C373.673 251.728 374.116 253.634 374.583 255.688C375.063 255.724 375.567 255.786 376.059 255.786C377.473 255.786 378.875 255.737 380.289 255.761C381.445 255.774 382.355 256.253 383.019 257.237C383.413 257.815 383.487 258.418 383.056 258.934C382.552 259.524 381.986 260.127 381.31 260.52C379.908 261.32 378.371 261.738 376.735 261.787C376.416 261.799 376.108 261.861 375.703 261.91C376.231 265.119 376.121 268.28 375.862 271.698Z" fill="white"/>
<path d="M334.384 419.239C334.261 420.505 334.187 421.956 333.954 423.383C333.745 424.637 332.97 425.584 332.011 426.396C331.076 427.195 330.08 427.281 329.01 426.728C327.854 426.125 326.969 425.24 326.28 424.145C325.124 422.288 324.337 420.272 324.067 418.12C323.686 415.058 323.341 411.971 323.182 408.897C322.985 405.158 322.96 401.396 322.911 397.645C322.899 396.76 323.022 395.862 323.218 395.001C323.698 392.775 325.543 391.189 327.805 391.14C329.539 391.103 330.83 392.025 331.753 393.452C332.822 395.087 332.982 396.981 333.105 398.85C333.351 402.785 333.511 406.72 333.745 410.643C333.917 413.447 334.151 416.238 334.384 419.239Z" fill="white"/>
<path d="M341.947 263.618C341.91 264.27 341.935 264.872 341.849 265.475C341.738 266.139 341.812 267.012 340.988 267.258C340.213 267.492 339.611 266.914 339.205 266.372C338.676 265.672 338.16 264.897 337.901 264.073C337.422 262.511 337.004 260.9 336.807 259.289C336.487 256.498 336.254 253.694 336.204 250.89C336.18 249.316 336.536 247.73 336.831 246.168C336.942 245.603 337.274 245.025 337.655 244.57C338.27 243.82 338.725 243.832 339.438 244.471C340.103 245.062 340.471 245.799 340.471 246.697C340.471 247.632 340.41 248.579 340.459 249.513C340.619 252.649 340.828 255.772 341.025 258.908C341.037 259.129 341.135 259.351 341.197 259.609C344.677 258.896 348.083 258.195 351.625 257.469C351.625 257.15 351.65 256.695 351.625 256.24C351.391 253.251 351.133 250.263 350.912 247.275C350.789 245.627 350.887 243.992 351.428 242.405C352.055 240.573 353.74 240.241 354.982 241.741C355.425 242.27 355.806 242.922 355.966 243.574C356.495 245.701 357.048 247.853 357.319 250.017C357.798 253.731 358.106 257.469 358.401 261.208C358.536 262.794 358.524 264.393 358.487 265.991C358.462 267.11 357.614 267.651 356.642 267.073C355.781 266.557 354.982 265.831 354.392 265.02C353.74 264.122 353.347 263.04 352.867 262.032C352.707 261.7 352.584 261.343 352.375 260.826C350.653 261.331 348.969 261.835 347.284 262.29C345.575 262.745 343.841 263.138 341.947 263.618Z" fill="white"/>
<path d="M305.541 255.994C305.701 254.813 306.402 254.383 307.054 253.952C309.378 252.403 311.923 251.321 314.579 250.484C317.223 249.648 319.867 248.837 322.56 248.197C325.13 247.582 327.774 247.521 330.381 248C331.771 248.259 332.546 249.119 332.595 250.189C332.632 251.099 332.521 251.333 331.623 251.64C330.689 251.96 329.729 252.194 328.783 252.464C328.291 252.612 327.811 252.772 327.405 252.907C327.319 253.104 327.245 253.19 327.245 253.276C327.479 256.965 327.762 260.654 327.946 264.343C328.045 266.372 327.258 267.577 325.782 268.241C324.368 268.881 322.892 268.61 321.65 267.43C320.076 265.93 319.695 263.925 319.547 261.908C319.412 260.088 319.523 258.256 319.511 256.424C319.511 256.104 319.511 255.784 319.511 255.329C314.85 256.338 310.288 257.445 305.541 255.994Z" fill="white"/>
<path d="M344.336 286.971C344.361 284.167 345.639 281.99 347.89 280.465C349.685 279.26 352.464 279.113 354.653 280.674C356.584 282.064 357.555 284.708 356.99 287.032C355.957 291.25 352.169 292.849 348.984 291.988C348.763 291.926 348.517 291.926 348.296 291.877C345.775 291.336 344.336 289.528 344.336 286.971Z" fill="white"/>
</svg>
