<svg width="1683" height="595" viewBox="0 0 1683 595" fill="none" xmlns="http://www.w3.org/2000/svg">
<path d="M24.7311 26.251H99.9045C126.998 26.251 147.918 33.7583 162.666 48.7729C177.413 63.7209 184.787 81.7718 184.787 102.926C184.787 116.406 181.417 129.151 174.677 141.163C168.004 153.108 158.195 162.417 145.249 169.09C132.303 175.697 116.654 179 98.3029 179H24.7311V26.251ZM92.2971 84.708V120.543H93.9987C102.14 120.543 108.012 119.142 111.616 116.339C115.286 113.469 117.121 108.798 117.121 102.325C117.121 90.5804 110.281 84.708 96.6013 84.708H92.2971ZM328.222 140.663V179H201.398V26.251H328.222V64.5884H268.964V83.5068H310.204V121.844H268.964V140.663H328.222ZM472.557 34.0586L455.74 82.2056C444.73 67.3244 432.084 59.8838 417.803 59.8838C409.862 59.8838 405.892 62.8867 405.892 68.8926C405.892 70.7611 407.126 72.6629 409.595 74.5981C412.131 76.5334 418.704 79.5697 429.315 83.707C440.993 88.3115 449.968 92.5156 456.241 96.3193C462.58 100.056 467.318 104.861 470.455 110.733C473.591 116.606 475.159 123.446 475.159 131.253C475.159 147.603 468.953 160.082 456.541 168.69C444.129 177.232 425.878 181.502 401.788 181.502C374.761 181.502 351.472 177.665 331.92 169.991L348.436 118.941C353.24 126.415 359.18 132.354 366.253 136.759C373.393 141.163 380.233 143.365 386.773 143.365C389.976 143.365 392.646 142.531 394.781 140.863C396.983 139.194 398.084 137.159 398.084 134.757C398.084 132.488 397.016 130.319 394.881 128.25C392.812 126.182 387.274 123.312 378.265 119.642C370.124 116.372 363.384 113.202 358.045 110.133C352.707 106.996 348.069 102.559 344.132 96.8198C340.194 91.0809 338.226 83.8405 338.226 75.0986C338.226 58.1488 344.398 45.3696 356.744 36.7612C369.089 28.1528 387.307 23.8486 411.397 23.8486C433.419 23.8486 453.805 27.252 472.557 34.0586ZM489.868 179V26.251H557.434V179H489.868ZM737.604 44.2686L704.972 90.2134C691.359 83.6737 678.78 80.4038 667.236 80.4038C659.561 80.4038 653.389 82.4058 648.718 86.4097C644.113 90.3468 641.811 95.5853 641.811 102.125C641.811 114.537 649.952 120.743 666.235 120.743V96.8198H733.901V179.2C706.541 180.735 688.023 181.502 678.346 181.502C640.977 181.502 615.018 173.561 600.47 157.679C585.923 141.797 578.649 123.279 578.649 102.125C578.649 87.5775 582.019 74.2311 588.759 62.0859C595.566 49.9408 605.342 40.5316 618.088 33.8584C630.9 27.1852 646.048 23.8486 663.532 23.8486C675.811 23.8486 688.523 25.6504 701.669 29.2539C714.815 32.7907 726.794 37.7956 737.604 44.2686ZM905.562 180.201H854.312L821.48 132.054V179H753.915V26.251H802.262L837.896 77.9014V26.251H905.562V180.201ZM1051.9 91.5146H1090.64C1081.03 106.463 1070.65 119.509 1059.51 130.653L1106.85 179H1037.79L1022.37 163.385C1014.76 169.19 1006.26 173.661 996.846 176.798C987.503 179.934 978.328 181.502 969.319 181.502C955.773 181.502 945.029 178.132 937.088 171.393C929.147 164.586 925.176 155.911 925.176 145.367C925.176 126.415 937.688 111.601 962.713 100.924C952.436 90.18 947.298 79.3027 947.298 68.292C947.298 55.613 952.302 45.036 962.312 36.561C972.322 28.0861 984.901 23.8486 1000.05 23.8486C1013.6 23.8486 1024.67 27.252 1033.28 34.0586C1041.89 40.8652 1046.19 49.6071 1046.19 60.2842C1046.19 73.6305 1039.15 85.3753 1025.07 95.5186L1039.59 110.333C1044.06 105.595 1048.16 99.3223 1051.9 91.5146ZM1010.26 82.2056C1019.13 79.603 1023.57 74.8984 1023.57 68.0918C1023.57 65.0221 1022.5 62.5197 1020.37 60.5845C1018.3 58.6493 1015.63 57.6816 1012.36 57.6816C1009.16 57.6816 1006.42 58.716 1004.15 60.7847C1001.95 62.8534 1000.85 65.3558 1000.85 68.292C1000.85 72.763 1003.99 77.4009 1010.26 82.2056ZM1003.05 143.565L986.336 126.749C982.866 128.818 980.33 130.753 978.728 132.555C977.193 134.356 976.426 136.659 976.426 139.461C976.426 142.531 977.527 145.067 979.729 147.069C981.931 149.071 984.734 150.072 988.137 150.072C992.542 150.072 997.513 147.903 1003.05 143.565ZM1107.35 93.917V26.251H1243.08V93.917H1209.05V179H1141.38V93.917H1107.35ZM1384.11 140.663V179H1257.29V26.251H1384.11V64.5884H1324.85V83.5068H1366.09V121.844H1324.85V140.663H1384.11ZM1528.45 34.0586L1511.63 82.2056C1500.62 67.3244 1487.97 59.8838 1473.69 59.8838C1465.75 59.8838 1461.78 62.8867 1461.78 68.8926C1461.78 70.7611 1463.02 72.6629 1465.49 74.5981C1468.02 76.5334 1474.6 79.5697 1485.21 83.707C1496.88 88.3115 1505.86 92.5156 1512.13 96.3193C1518.47 100.056 1523.21 104.861 1526.35 110.733C1529.48 116.606 1531.05 123.446 1531.05 131.253C1531.05 147.603 1524.84 160.082 1512.43 168.69C1500.02 177.232 1481.77 181.502 1457.68 181.502C1430.65 181.502 1407.36 177.665 1387.81 169.991L1404.33 118.941C1409.13 126.415 1415.07 132.354 1422.14 136.759C1429.28 141.163 1436.12 143.365 1442.66 143.365C1445.87 143.365 1448.54 142.531 1450.67 140.863C1452.87 139.194 1453.98 137.159 1453.98 134.757C1453.98 132.488 1452.91 130.319 1450.77 128.25C1448.7 126.182 1443.16 123.312 1434.16 119.642C1426.01 116.372 1419.27 113.202 1413.94 110.133C1408.6 106.996 1403.96 102.559 1400.02 96.8198C1396.09 91.0809 1394.12 83.8405 1394.12 75.0986C1394.12 58.1488 1400.29 45.3696 1412.63 36.7612C1424.98 28.1528 1443.2 23.8486 1467.29 23.8486C1489.31 23.8486 1509.7 27.252 1528.45 34.0586ZM1534.05 93.917V26.251H1669.78V93.917H1635.75V179H1568.08V93.917H1534.05Z" fill="#FEFAE0" fill-opacity="0.2"/>
<path d="M397.329 240L405.281 220.568H407.185L415.109 240H412.253L405.729 223.564H406.709L400.129 240H397.329ZM401.109 235.604V233.308H411.329V235.604H401.109ZM418.506 240V224.712C418.506 223.723 418.721 222.864 419.15 222.136C419.579 221.389 420.167 220.801 420.914 220.372C421.679 219.943 422.566 219.728 423.574 219.728C424.339 219.728 425.002 219.859 425.562 220.12C426.122 220.381 426.635 220.764 427.102 221.268L425.45 222.892C425.207 222.631 424.937 222.435 424.638 222.304C424.339 222.155 423.975 222.08 423.546 222.08C422.743 222.08 422.118 222.313 421.67 222.78C421.241 223.247 421.026 223.891 421.026 224.712V240H418.506ZM415.23 228.996V226.7H425.254V228.996H415.23ZM429.037 240V221.128H431.557V240H429.037ZM425.761 228.996V226.7H434.833V228.996H425.761ZM443.051 240.28C441.726 240.28 440.531 239.981 439.467 239.384C438.403 238.768 437.563 237.937 436.947 236.892C436.331 235.847 436.023 234.661 436.023 233.336C436.023 232.029 436.322 230.853 436.919 229.808C437.535 228.763 438.356 227.941 439.383 227.344C440.428 226.728 441.595 226.42 442.883 226.42C444.115 226.42 445.198 226.7 446.131 227.26C447.083 227.82 447.82 228.595 448.343 229.584C448.884 230.573 449.155 231.693 449.155 232.944C449.155 233.131 449.146 233.336 449.127 233.56C449.108 233.765 449.071 234.008 449.015 234.288H437.787V232.188H447.671L446.747 233C446.747 232.104 446.588 231.348 446.271 230.732C445.954 230.097 445.506 229.612 444.927 229.276C444.348 228.921 443.648 228.744 442.827 228.744C441.968 228.744 441.212 228.931 440.559 229.304C439.906 229.677 439.402 230.2 439.047 230.872C438.692 231.544 438.515 232.337 438.515 233.252C438.515 234.185 438.702 235.007 439.075 235.716C439.448 236.407 439.98 236.948 440.671 237.34C441.362 237.713 442.155 237.9 443.051 237.9C443.798 237.9 444.479 237.769 445.095 237.508C445.73 237.247 446.271 236.855 446.719 236.332L448.343 237.984C447.708 238.731 446.924 239.3 445.991 239.692C445.076 240.084 444.096 240.28 443.051 240.28ZM451.903 240V226.7H454.423V240H451.903ZM454.423 232.412L453.471 231.992C453.471 230.293 453.863 228.94 454.647 227.932C455.431 226.924 456.56 226.42 458.035 226.42C458.707 226.42 459.313 226.541 459.855 226.784C460.396 227.008 460.9 227.391 461.367 227.932L459.715 229.64C459.435 229.341 459.127 229.127 458.791 228.996C458.455 228.865 458.063 228.8 457.615 228.8C456.681 228.8 455.916 229.099 455.319 229.696C454.721 230.293 454.423 231.199 454.423 232.412ZM471.361 240V224.292C471.361 223.415 471.548 222.64 471.921 221.968C472.313 221.277 472.855 220.736 473.545 220.344C474.236 219.933 475.029 219.728 475.925 219.728C476.616 219.728 477.223 219.849 477.745 220.092C478.268 220.316 478.753 220.633 479.201 221.044L477.549 222.696C477.307 222.491 477.055 222.341 476.793 222.248C476.532 222.136 476.243 222.08 475.925 222.08C475.272 222.08 474.768 222.285 474.413 222.696C474.059 223.088 473.881 223.62 473.881 224.292V240H471.361ZM468.085 228.996V226.7H480.713V228.996H468.085ZM479.257 240V226.7H481.805V240H479.257ZM480.517 225.3C480.069 225.3 479.696 225.151 479.397 224.852C479.099 224.535 478.949 224.143 478.949 223.676C478.949 223.228 479.099 222.855 479.397 222.556C479.696 222.239 480.069 222.08 480.517 222.08C481.003 222.08 481.385 222.239 481.665 222.556C481.964 222.855 482.113 223.228 482.113 223.676C482.113 224.143 481.964 224.535 481.665 224.852C481.385 225.151 481.003 225.3 480.517 225.3ZM494.916 240V232.244C494.916 231.236 494.599 230.405 493.964 229.752C493.329 229.099 492.508 228.772 491.5 228.772C490.828 228.772 490.231 228.921 489.708 229.22C489.185 229.519 488.775 229.929 488.476 230.452C488.177 230.975 488.028 231.572 488.028 232.244L486.992 231.656C486.992 230.648 487.216 229.752 487.664 228.968C488.112 228.184 488.737 227.568 489.54 227.12C490.343 226.653 491.248 226.42 492.256 226.42C493.264 226.42 494.151 226.672 494.916 227.176C495.7 227.68 496.316 228.343 496.764 229.164C497.212 229.967 497.436 230.825 497.436 231.74V240H494.916ZM485.508 240V226.7H488.028V240H485.508ZM506.504 240.28C505.291 240.28 504.189 239.981 503.2 239.384C502.211 238.768 501.427 237.937 500.848 236.892C500.288 235.847 500.008 234.671 500.008 233.364C500.008 232.057 500.288 230.881 500.848 229.836C501.427 228.791 502.201 227.96 503.172 227.344C504.161 226.728 505.272 226.42 506.504 226.42C507.512 226.42 508.408 226.635 509.192 227.064C509.995 227.475 510.639 228.053 511.124 228.8C511.609 229.528 511.88 230.377 511.936 231.348V235.352C511.88 236.304 511.609 237.153 511.124 237.9C510.657 238.647 510.023 239.235 509.22 239.664C508.436 240.075 507.531 240.28 506.504 240.28ZM506.924 237.9C508.175 237.9 509.183 237.48 509.948 236.64C510.713 235.781 511.096 234.689 511.096 233.364C511.096 232.449 510.919 231.656 510.564 230.984C510.228 230.293 509.743 229.761 509.108 229.388C508.473 228.996 507.736 228.8 506.896 228.8C506.056 228.8 505.309 228.996 504.656 229.388C504.021 229.78 503.517 230.321 503.144 231.012C502.789 231.684 502.612 232.459 502.612 233.336C502.612 234.232 502.789 235.025 503.144 235.716C503.517 236.388 504.031 236.92 504.684 237.312C505.337 237.704 506.084 237.9 506.924 237.9ZM510.928 240V236.416L511.404 233.168L510.928 229.948V226.7H513.476V240H510.928ZM517.145 240V220.008H519.665V240H517.145ZM523.38 240V226.7H525.9V240H523.38ZM524.64 224.04C524.173 224.04 523.791 223.891 523.492 223.592C523.193 223.275 523.044 222.883 523.044 222.416C523.044 221.968 523.193 221.595 523.492 221.296C523.791 220.979 524.173 220.82 524.64 220.82C525.107 220.82 525.489 220.979 525.788 221.296C526.087 221.595 526.236 221.968 526.236 222.416C526.236 222.883 526.087 223.275 525.788 223.592C525.489 223.891 525.107 224.04 524.64 224.04ZM528.55 238.628L536.446 228.072H539.414L531.518 238.628H528.55ZM528.55 240V238.628L530.79 237.704H539.246V240H528.55ZM529.026 228.996V226.7H539.414V228.072L537.09 228.996H529.026ZM542.165 240V226.7H544.685V240H542.165ZM543.425 224.04C542.958 224.04 542.576 223.891 542.277 223.592C541.978 223.275 541.829 222.883 541.829 222.416C541.829 221.968 541.978 221.595 542.277 221.296C542.576 220.979 542.958 220.82 543.425 220.82C543.892 220.82 544.274 220.979 544.573 221.296C544.872 221.595 545.021 221.968 545.021 222.416C545.021 222.883 544.872 223.275 544.573 223.592C544.274 223.891 543.892 224.04 543.425 224.04ZM557.807 240V232.244C557.807 231.236 557.489 230.405 556.855 229.752C556.22 229.099 555.399 228.772 554.391 228.772C553.719 228.772 553.121 228.921 552.599 229.22C552.076 229.519 551.665 229.929 551.367 230.452C551.068 230.975 550.919 231.572 550.919 232.244L549.883 231.656C549.883 230.648 550.107 229.752 550.555 228.968C551.003 228.184 551.628 227.568 552.431 227.12C553.233 226.653 554.139 226.42 555.147 226.42C556.155 226.42 557.041 226.672 557.807 227.176C558.591 227.68 559.207 228.343 559.655 229.164C560.103 229.967 560.327 230.825 560.327 231.74V240H557.807ZM548.399 240V226.7H550.919V240H548.399ZM569.255 245.852C567.892 245.852 566.679 245.6 565.615 245.096C564.569 244.592 563.729 243.883 563.095 242.968L564.719 241.316C565.26 242.007 565.904 242.529 566.651 242.884C567.397 243.257 568.284 243.444 569.311 243.444C570.673 243.444 571.747 243.08 572.531 242.352C573.333 241.643 573.735 240.681 573.735 239.468V236.164L574.183 233.168L573.735 230.2V226.7H576.255V239.468C576.255 240.737 575.956 241.848 575.359 242.8C574.78 243.752 573.959 244.499 572.895 245.04C571.849 245.581 570.636 245.852 569.255 245.852ZM569.255 239.776C568.041 239.776 566.949 239.487 565.979 238.908C565.027 238.329 564.271 237.536 563.711 236.528C563.151 235.501 562.871 234.353 562.871 233.084C562.871 231.815 563.151 230.685 563.711 229.696C564.271 228.688 565.027 227.895 565.979 227.316C566.949 226.719 568.041 226.42 569.255 226.42C570.3 226.42 571.224 226.625 572.027 227.036C572.829 227.447 573.464 228.025 573.931 228.772C574.416 229.5 574.677 230.359 574.715 231.348V234.876C574.659 235.847 574.388 236.705 573.903 237.452C573.436 238.18 572.801 238.749 571.999 239.16C571.196 239.571 570.281 239.776 569.255 239.776ZM569.759 237.396C570.58 237.396 571.299 237.219 571.915 236.864C572.549 236.509 573.035 236.015 573.371 235.38C573.707 234.727 573.875 233.971 573.875 233.112C573.875 232.253 573.697 231.507 573.343 230.872C573.007 230.219 572.531 229.715 571.915 229.36C571.299 228.987 570.571 228.8 569.731 228.8C568.891 228.8 568.153 228.987 567.519 229.36C566.884 229.715 566.38 230.219 566.007 230.872C565.652 231.507 565.475 232.244 565.475 233.084C565.475 233.924 565.652 234.671 566.007 235.324C566.38 235.977 566.884 236.491 567.519 236.864C568.172 237.219 568.919 237.396 569.759 237.396ZM587.822 240V221.128H590.342V240H587.822ZM584.546 228.996V226.7H593.618V228.996H584.546ZM605.494 240V232.244C605.494 231.236 605.177 230.405 604.542 229.752C603.908 229.099 603.086 228.772 602.078 228.772C601.406 228.772 600.809 228.921 600.286 229.22C599.764 229.519 599.353 229.929 599.054 230.452C598.756 230.975 598.606 231.572 598.606 232.244L597.57 231.656C597.57 230.648 597.794 229.752 598.242 228.968C598.69 228.184 599.316 227.568 600.118 227.12C600.921 226.653 601.826 226.42 602.834 226.42C603.842 226.42 604.729 226.644 605.494 227.092C606.278 227.54 606.894 228.165 607.342 228.968C607.79 229.771 608.014 230.695 608.014 231.74V240H605.494ZM596.086 240V220.008H598.606V240H596.086ZM617.586 240.28C616.261 240.28 615.066 239.981 614.002 239.384C612.938 238.768 612.098 237.937 611.482 236.892C610.866 235.847 610.558 234.661 610.558 233.336C610.558 232.029 610.857 230.853 611.454 229.808C612.07 228.763 612.891 227.941 613.918 227.344C614.963 226.728 616.13 226.42 617.418 226.42C618.65 226.42 619.733 226.7 620.666 227.26C621.618 227.82 622.355 228.595 622.878 229.584C623.419 230.573 623.69 231.693 623.69 232.944C623.69 233.131 623.681 233.336 623.662 233.56C623.643 233.765 623.606 234.008 623.55 234.288H612.322V232.188H622.206L621.282 233C621.282 232.104 621.123 231.348 620.806 230.732C620.489 230.097 620.041 229.612 619.462 229.276C618.883 228.921 618.183 228.744 617.362 228.744C616.503 228.744 615.747 228.931 615.094 229.304C614.441 229.677 613.937 230.2 613.582 230.872C613.227 231.544 613.05 232.337 613.05 233.252C613.05 234.185 613.237 235.007 613.61 235.716C613.983 236.407 614.515 236.948 615.206 237.34C615.897 237.713 616.69 237.9 617.586 237.9C618.333 237.9 619.014 237.769 619.63 237.508C620.265 237.247 620.806 236.855 621.254 236.332L622.878 237.984C622.243 238.731 621.459 239.3 620.526 239.692C619.611 240.084 618.631 240.28 617.586 240.28ZM634.166 240V224.712C634.166 223.723 634.381 222.864 634.81 222.136C635.239 221.389 635.827 220.801 636.574 220.372C637.339 219.943 638.226 219.728 639.234 219.728C639.999 219.728 640.662 219.859 641.222 220.12C641.782 220.381 642.295 220.764 642.762 221.268L641.11 222.892C640.867 222.631 640.597 222.435 640.298 222.304C639.999 222.155 639.635 222.08 639.206 222.08C638.403 222.08 637.778 222.313 637.33 222.78C636.901 223.247 636.686 223.891 636.686 224.712V240H634.166ZM630.89 228.996V226.7H640.914V228.996H630.89ZM648.84 240.28C647.515 240.28 646.32 239.981 645.256 239.384C644.192 238.768 643.352 237.937 642.736 236.892C642.12 235.847 641.812 234.661 641.812 233.336C641.812 232.029 642.111 230.853 642.708 229.808C643.324 228.763 644.145 227.941 645.172 227.344C646.217 226.728 647.384 226.42 648.672 226.42C649.904 226.42 650.987 226.7 651.92 227.26C652.872 227.82 653.609 228.595 654.132 229.584C654.673 230.573 654.944 231.693 654.944 232.944C654.944 233.131 654.935 233.336 654.916 233.56C654.897 233.765 654.86 234.008 654.804 234.288H643.576V232.188H653.46L652.536 233C652.536 232.104 652.377 231.348 652.06 230.732C651.743 230.097 651.295 229.612 650.716 229.276C650.137 228.921 649.437 228.744 648.616 228.744C647.757 228.744 647.001 228.931 646.348 229.304C645.695 229.677 645.191 230.2 644.836 230.872C644.481 231.544 644.304 232.337 644.304 233.252C644.304 234.185 644.491 235.007 644.864 235.716C645.237 236.407 645.769 236.948 646.46 237.34C647.151 237.713 647.944 237.9 648.84 237.9C649.587 237.9 650.268 237.769 650.884 237.508C651.519 237.247 652.06 236.855 652.508 236.332L654.132 237.984C653.497 238.731 652.713 239.3 651.78 239.692C650.865 240.084 649.885 240.28 648.84 240.28ZM663.348 240.28C662.134 240.28 661.033 239.981 660.044 239.384C659.054 238.768 658.27 237.937 657.692 236.892C657.132 235.847 656.852 234.671 656.852 233.364C656.852 232.057 657.132 230.881 657.692 229.836C658.27 228.791 659.045 227.96 660.016 227.344C661.005 226.728 662.116 226.42 663.348 226.42C664.356 226.42 665.252 226.635 666.036 227.064C666.838 227.475 667.482 228.053 667.968 228.8C668.453 229.528 668.724 230.377 668.78 231.348V235.352C668.724 236.304 668.453 237.153 667.968 237.9C667.501 238.647 666.866 239.235 666.064 239.664C665.28 240.075 664.374 240.28 663.348 240.28ZM663.768 237.9C665.018 237.9 666.026 237.48 666.792 236.64C667.557 235.781 667.94 234.689 667.94 233.364C667.94 232.449 667.762 231.656 667.408 230.984C667.072 230.293 666.586 229.761 665.952 229.388C665.317 228.996 664.58 228.8 663.74 228.8C662.9 228.8 662.153 228.996 661.5 229.388C660.865 229.78 660.361 230.321 659.988 231.012C659.633 231.684 659.456 232.459 659.456 233.336C659.456 234.232 659.633 235.025 659.988 235.716C660.361 236.388 660.874 236.92 661.528 237.312C662.181 237.704 662.928 237.9 663.768 237.9ZM667.772 240V236.416L668.248 233.168L667.772 229.948V226.7H670.32V240H667.772ZM675.978 240V221.128H678.498V240H675.978ZM672.702 228.996V226.7H681.774V228.996H672.702ZM689.591 240.28C688.508 240.28 687.528 240.037 686.651 239.552C685.792 239.048 685.12 238.357 684.635 237.48C684.149 236.603 683.907 235.585 683.907 234.428V226.7H686.427V234.316C686.427 235.044 686.548 235.679 686.791 236.22C687.052 236.743 687.425 237.144 687.911 237.424C688.396 237.704 688.965 237.844 689.619 237.844C690.608 237.844 691.383 237.536 691.943 236.92C692.503 236.285 692.783 235.417 692.783 234.316V226.7H695.303V234.428C695.303 235.585 695.06 236.603 694.575 237.48C694.089 238.357 693.417 239.048 692.559 239.552C691.719 240.037 690.729 240.28 689.591 240.28ZM698.68 240V226.7H701.2V240H698.68ZM701.2 232.412L700.248 231.992C700.248 230.293 700.64 228.94 701.424 227.932C702.208 226.924 703.337 226.42 704.812 226.42C705.484 226.42 706.091 226.541 706.632 226.784C707.173 227.008 707.677 227.391 708.144 227.932L706.492 229.64C706.212 229.341 705.904 229.127 705.568 228.996C705.232 228.865 704.84 228.8 704.392 228.8C703.459 228.8 702.693 229.099 702.096 229.696C701.499 230.293 701.2 231.199 701.2 232.412ZM715.641 240.28C714.315 240.28 713.121 239.981 712.057 239.384C710.993 238.768 710.153 237.937 709.537 236.892C708.921 235.847 708.613 234.661 708.613 233.336C708.613 232.029 708.911 230.853 709.509 229.808C710.125 228.763 710.946 227.941 711.973 227.344C713.018 226.728 714.185 226.42 715.473 226.42C716.705 226.42 717.787 226.7 718.721 227.26C719.673 227.82 720.41 228.595 720.933 229.584C721.474 230.573 721.745 231.693 721.745 232.944C721.745 233.131 721.735 233.336 721.717 233.56C721.698 233.765 721.661 234.008 721.605 234.288H710.377V232.188H720.261L719.337 233C719.337 232.104 719.178 231.348 718.861 230.732C718.543 230.097 718.095 229.612 717.517 229.276C716.938 228.921 716.238 228.744 715.417 228.744C714.558 228.744 713.802 228.931 713.149 229.304C712.495 229.677 711.991 230.2 711.637 230.872C711.282 231.544 711.105 232.337 711.105 233.252C711.105 234.185 711.291 235.007 711.665 235.716C712.038 236.407 712.57 236.948 713.261 237.34C713.951 237.713 714.745 237.9 715.641 237.9C716.387 237.9 717.069 237.769 717.685 237.508C718.319 237.247 718.861 236.855 719.309 236.332L720.933 237.984C720.298 238.731 719.514 239.3 718.581 239.692C717.666 240.084 716.686 240.28 715.641 240.28ZM728.721 240.28C727.974 240.28 727.265 240.187 726.593 240C725.939 239.795 725.333 239.515 724.773 239.16C724.213 238.787 723.727 238.348 723.317 237.844L724.941 236.22C725.426 236.817 725.986 237.265 726.621 237.564C727.255 237.844 727.965 237.984 728.749 237.984C729.533 237.984 730.139 237.853 730.569 237.592C730.998 237.312 731.213 236.929 731.213 236.444C731.213 235.959 731.035 235.585 730.681 235.324C730.345 235.044 729.906 234.82 729.365 234.652C728.823 234.465 728.245 234.288 727.629 234.12C727.031 233.933 726.462 233.7 725.921 233.42C725.379 233.14 724.931 232.757 724.577 232.272C724.241 231.787 724.073 231.143 724.073 230.34C724.073 229.537 724.269 228.847 724.661 228.268C725.053 227.671 725.594 227.213 726.285 226.896C726.994 226.579 727.843 226.42 728.833 226.42C729.878 226.42 730.802 226.607 731.605 226.98C732.426 227.335 733.098 227.876 733.621 228.604L731.997 230.228C731.623 229.743 731.157 229.369 730.597 229.108C730.055 228.847 729.439 228.716 728.749 228.716C728.021 228.716 727.461 228.847 727.069 229.108C726.695 229.351 726.509 229.696 726.509 230.144C726.509 230.592 726.677 230.937 727.013 231.18C727.349 231.423 727.787 231.628 728.329 231.796C728.889 231.964 729.467 232.141 730.065 232.328C730.662 232.496 731.231 232.729 731.773 233.028C732.314 233.327 732.753 233.728 733.089 234.232C733.443 234.736 733.621 235.399 733.621 236.22C733.621 237.471 733.173 238.46 732.277 239.188C731.399 239.916 730.214 240.28 728.721 240.28ZM748.342 240.28C747.035 240.28 745.859 239.972 744.814 239.356C743.769 238.74 742.938 237.909 742.322 236.864C741.706 235.8 741.398 234.615 741.398 233.308C741.398 232.02 741.706 230.863 742.322 229.836C742.938 228.791 743.769 227.96 744.814 227.344C745.859 226.728 747.035 226.42 748.342 226.42C749.63 226.42 750.797 226.728 751.842 227.344C752.906 227.941 753.746 228.763 754.362 229.808C754.978 230.853 755.286 232.02 755.286 233.308C755.286 234.615 754.978 235.8 754.362 236.864C753.746 237.909 752.906 238.74 751.842 239.356C750.797 239.972 749.63 240.28 748.342 240.28ZM748.342 237.844C749.182 237.844 749.929 237.648 750.582 237.256C751.235 236.864 751.749 236.332 752.122 235.66C752.495 234.969 752.682 234.185 752.682 233.308C752.682 232.449 752.486 231.684 752.094 231.012C751.721 230.34 751.207 229.817 750.554 229.444C749.919 229.052 749.182 228.856 748.342 228.856C747.502 228.856 746.755 229.052 746.102 229.444C745.449 229.817 744.935 230.34 744.562 231.012C744.189 231.684 744.002 232.449 744.002 233.308C744.002 234.185 744.189 234.969 744.562 235.66C744.935 236.332 745.449 236.864 746.102 237.256C746.755 237.648 747.502 237.844 748.342 237.844ZM759.619 240V224.712C759.619 223.723 759.834 222.864 760.263 222.136C760.693 221.389 761.281 220.801 762.027 220.372C762.793 219.943 763.679 219.728 764.687 219.728C765.453 219.728 766.115 219.859 766.675 220.12C767.235 220.381 767.749 220.764 768.215 221.268L766.563 222.892C766.321 222.631 766.05 222.435 765.751 222.304C765.453 222.155 765.089 222.08 764.659 222.08C763.857 222.08 763.231 222.313 762.783 222.78C762.354 223.247 762.139 223.891 762.139 224.712V240H759.619ZM756.343 228.996V226.7H766.367V228.996H756.343ZM780.799 240.28C779.492 240.28 778.316 239.972 777.271 239.356C776.226 238.74 775.395 237.909 774.779 236.864C774.163 235.8 773.855 234.615 773.855 233.308C773.855 232.02 774.163 230.863 774.779 229.836C775.395 228.791 776.226 227.96 777.271 227.344C778.316 226.728 779.492 226.42 780.799 226.42C782.087 226.42 783.254 226.728 784.299 227.344C785.363 227.941 786.203 228.763 786.819 229.808C787.435 230.853 787.743 232.02 787.743 233.308C787.743 234.615 787.435 235.8 786.819 236.864C786.203 237.909 785.363 238.74 784.299 239.356C783.254 239.972 782.087 240.28 780.799 240.28ZM780.799 237.844C781.639 237.844 782.386 237.648 783.039 237.256C783.692 236.864 784.206 236.332 784.579 235.66C784.952 234.969 785.139 234.185 785.139 233.308C785.139 232.449 784.943 231.684 784.551 231.012C784.178 230.34 783.664 229.817 783.011 229.444C782.376 229.052 781.639 228.856 780.799 228.856C779.959 228.856 779.212 229.052 778.559 229.444C777.906 229.817 777.392 230.34 777.019 231.012C776.646 231.684 776.459 232.449 776.459 233.308C776.459 234.185 776.646 234.969 777.019 235.66C777.392 236.332 777.906 236.864 778.559 237.256C779.212 237.648 779.959 237.844 780.799 237.844ZM795.93 240.28C794.848 240.28 793.868 240.037 792.99 239.552C792.132 239.048 791.46 238.357 790.974 237.48C790.489 236.603 790.246 235.585 790.246 234.428V226.7H792.766V234.316C792.766 235.044 792.888 235.679 793.13 236.22C793.392 236.743 793.765 237.144 794.25 237.424C794.736 237.704 795.305 237.844 795.958 237.844C796.948 237.844 797.722 237.536 798.282 236.92C798.842 236.285 799.122 235.417 799.122 234.316V226.7H801.642V234.428C801.642 235.585 801.4 236.603 800.914 237.48C800.429 238.357 799.757 239.048 798.898 239.552C798.058 240.037 797.069 240.28 795.93 240.28ZM805.02 240V226.7H807.54V240H805.02ZM807.54 232.412L806.588 231.992C806.588 230.293 806.98 228.94 807.764 227.932C808.548 226.924 809.677 226.42 811.152 226.42C811.824 226.42 812.431 226.541 812.972 226.784C813.513 227.008 814.017 227.391 814.484 227.932L812.832 229.64C812.552 229.341 812.244 229.127 811.908 228.996C811.572 228.865 811.18 228.8 810.732 228.8C809.799 228.8 809.033 229.099 808.436 229.696C807.839 230.293 807.54 231.199 807.54 232.412ZM826.383 240L821.119 226.7H823.751L827.559 237.06H826.719L830.499 226.7H831.955L835.735 237.06H834.895L838.703 226.7H841.335L836.099 240H834.615L830.779 229.948H831.703L827.839 240H826.383ZM849.352 240.28C848.026 240.28 846.832 239.981 845.768 239.384C844.704 238.768 843.864 237.937 843.248 236.892C842.632 235.847 842.324 234.661 842.324 233.336C842.324 232.029 842.622 230.853 843.22 229.808C843.836 228.763 844.657 227.941 845.684 227.344C846.729 226.728 847.896 226.42 849.184 226.42C850.416 226.42 851.498 226.7 852.432 227.26C853.384 227.82 854.121 228.595 854.644 229.584C855.185 230.573 855.456 231.693 855.456 232.944C855.456 233.131 855.446 233.336 855.428 233.56C855.409 233.765 855.372 234.008 855.316 234.288H844.088V232.188H853.972L853.048 233C853.048 232.104 852.889 231.348 852.572 230.732C852.254 230.097 851.806 229.612 851.228 229.276C850.649 228.921 849.949 228.744 849.128 228.744C848.269 228.744 847.513 228.931 846.86 229.304C846.206 229.677 845.702 230.2 845.348 230.872C844.993 231.544 844.816 232.337 844.816 233.252C844.816 234.185 845.002 235.007 845.376 235.716C845.749 236.407 846.281 236.948 846.972 237.34C847.662 237.713 848.456 237.9 849.352 237.9C850.098 237.9 850.78 237.769 851.396 237.508C852.03 237.247 852.572 236.855 853.02 236.332L854.644 237.984C854.009 238.731 853.225 239.3 852.292 239.692C851.377 240.084 850.397 240.28 849.352 240.28ZM865.203 240.28C864.195 240.28 863.281 240.075 862.459 239.664C861.657 239.235 861.013 238.647 860.527 237.9C860.042 237.153 859.771 236.304 859.715 235.352V231.348C859.771 230.377 860.042 229.528 860.527 228.8C861.031 228.053 861.685 227.475 862.487 227.064C863.309 226.635 864.214 226.42 865.203 226.42C866.417 226.42 867.509 226.728 868.479 227.344C869.469 227.96 870.243 228.791 870.803 229.836C871.363 230.881 871.643 232.057 871.643 233.364C871.643 234.671 871.363 235.847 870.803 236.892C870.243 237.937 869.469 238.768 868.479 239.384C867.509 239.981 866.417 240.28 865.203 240.28ZM864.783 237.9C865.623 237.9 866.361 237.704 866.995 237.312C867.63 236.92 868.134 236.388 868.507 235.716C868.881 235.025 869.067 234.232 869.067 233.336C869.067 232.459 868.881 231.675 868.507 230.984C868.134 230.293 867.63 229.761 866.995 229.388C866.361 228.996 865.633 228.8 864.811 228.8C863.971 228.8 863.234 228.996 862.599 229.388C861.965 229.761 861.47 230.293 861.115 230.984C860.761 231.675 860.583 232.468 860.583 233.364C860.583 234.241 860.751 235.025 861.087 235.716C861.442 236.388 861.937 236.92 862.571 237.312C863.225 237.704 863.962 237.9 864.783 237.9ZM858.203 240V220.008H860.723V229.948L860.247 233.168L860.723 236.416V240H858.203ZM878.728 240.28C877.982 240.28 877.272 240.187 876.6 240C875.947 239.795 875.34 239.515 874.78 239.16C874.22 238.787 873.735 238.348 873.324 237.844L874.948 236.22C875.434 236.817 875.994 237.265 876.628 237.564C877.263 237.844 877.972 237.984 878.756 237.984C879.54 237.984 880.147 237.853 880.576 237.592C881.006 237.312 881.22 236.929 881.22 236.444C881.22 235.959 881.043 235.585 880.688 235.324C880.352 235.044 879.914 234.82 879.372 234.652C878.831 234.465 878.252 234.288 877.636 234.12C877.039 233.933 876.47 233.7 875.928 233.42C875.387 233.14 874.939 232.757 874.584 232.272C874.248 231.787 874.08 231.143 874.08 230.34C874.08 229.537 874.276 228.847 874.668 228.268C875.06 227.671 875.602 227.213 876.292 226.896C877.002 226.579 877.851 226.42 878.84 226.42C879.886 226.42 880.81 226.607 881.612 226.98C882.434 227.335 883.106 227.876 883.628 228.604L882.004 230.228C881.631 229.743 881.164 229.369 880.604 229.108C880.063 228.847 879.447 228.716 878.756 228.716C878.028 228.716 877.468 228.847 877.076 229.108C876.703 229.351 876.516 229.696 876.516 230.144C876.516 230.592 876.684 230.937 877.02 231.18C877.356 231.423 877.795 231.628 878.336 231.796C878.896 231.964 879.475 232.141 880.072 232.328C880.67 232.496 881.239 232.729 881.78 233.028C882.322 233.327 882.76 233.728 883.096 234.232C883.451 234.736 883.628 235.399 883.628 236.22C883.628 237.471 883.18 238.46 882.284 239.188C881.407 239.916 880.222 240.28 878.728 240.28ZM886.478 240V226.7H888.998V240H886.478ZM887.738 224.04C887.271 224.04 886.888 223.891 886.59 223.592C886.291 223.275 886.142 222.883 886.142 222.416C886.142 221.968 886.291 221.595 886.59 221.296C886.888 220.979 887.271 220.82 887.738 220.82C888.204 220.82 888.587 220.979 888.886 221.296C889.184 221.595 889.334 221.968 889.334 222.416C889.334 222.883 889.184 223.275 888.886 223.592C888.587 223.891 888.204 224.04 887.738 224.04ZM894.755 240V221.128H897.275V240H894.755ZM891.479 228.996V226.7H900.551V228.996H891.479ZM908.77 240.28C907.444 240.28 906.25 239.981 905.186 239.384C904.122 238.768 903.282 237.937 902.666 236.892C902.05 235.847 901.742 234.661 901.742 233.336C901.742 232.029 902.04 230.853 902.638 229.808C903.254 228.763 904.075 227.941 905.102 227.344C906.147 226.728 907.314 226.42 908.602 226.42C909.834 226.42 910.916 226.7 911.85 227.26C912.802 227.82 913.539 228.595 914.062 229.584C914.603 230.573 914.874 231.693 914.874 232.944C914.874 233.131 914.864 233.336 914.846 233.56C914.827 233.765 914.79 234.008 914.734 234.288H903.506V232.188H913.39L912.466 233C912.466 232.104 912.307 231.348 911.99 230.732C911.672 230.097 911.224 229.612 910.646 229.276C910.067 228.921 909.367 228.744 908.546 228.744C907.687 228.744 906.931 228.931 906.278 229.304C905.624 229.677 905.12 230.2 904.766 230.872C904.411 231.544 904.234 232.337 904.234 233.252C904.234 234.185 904.42 235.007 904.794 235.716C905.167 236.407 905.699 236.948 906.39 237.34C907.08 237.713 907.874 237.9 908.77 237.9C909.516 237.9 910.198 237.769 910.814 237.508C911.448 237.247 911.99 236.855 912.438 236.332L914.062 237.984C913.427 238.731 912.643 239.3 911.71 239.692C910.795 240.084 909.815 240.28 908.77 240.28ZM917.761 243.08L919.497 239.748L920.393 239.524C920.3 239.729 920.179 239.897 920.029 240.028C919.899 240.159 919.731 240.224 919.525 240.224C919.133 240.224 918.769 240.065 918.433 239.748C918.116 239.412 917.957 239.001 917.957 238.516C917.957 237.975 918.135 237.527 918.489 237.172C918.844 236.799 919.292 236.612 919.833 236.612C920.319 236.612 920.748 236.799 921.121 237.172C921.495 237.527 921.681 237.975 921.681 238.516C921.681 238.721 921.635 238.973 921.541 239.272C921.467 239.552 921.308 239.916 921.065 240.364L919.217 243.864L917.761 243.08ZM934.965 240L929.701 226.7H932.333L936.141 237.06H935.301L939.081 226.7H940.537L944.317 237.06H943.477L947.285 226.7H949.917L944.681 240H943.197L939.361 229.948H940.285L936.421 240H934.965ZM957.934 240.28C956.608 240.28 955.414 239.981 954.35 239.384C953.286 238.768 952.446 237.937 951.83 236.892C951.214 235.847 950.906 234.661 950.906 233.336C950.906 232.029 951.204 230.853 951.802 229.808C952.418 228.763 953.239 227.941 954.266 227.344C955.311 226.728 956.478 226.42 957.766 226.42C958.998 226.42 960.08 226.7 961.014 227.26C961.966 227.82 962.703 228.595 963.226 229.584C963.767 230.573 964.038 231.693 964.038 232.944C964.038 233.131 964.028 233.336 964.01 233.56C963.991 233.765 963.954 234.008 963.898 234.288H952.67V232.188H962.554L961.63 233C961.63 232.104 961.471 231.348 961.154 230.732C960.836 230.097 960.388 229.612 959.81 229.276C959.231 228.921 958.531 228.744 957.71 228.744C956.851 228.744 956.095 228.931 955.442 229.304C954.788 229.677 954.284 230.2 953.93 230.872C953.575 231.544 953.398 232.337 953.398 233.252C953.398 234.185 953.584 235.007 953.958 235.716C954.331 236.407 954.863 236.948 955.554 237.34C956.244 237.713 957.038 237.9 957.934 237.9C958.68 237.9 959.362 237.769 959.978 237.508C960.612 237.247 961.154 236.855 961.602 236.332L963.226 237.984C962.591 238.731 961.807 239.3 960.874 239.692C959.959 240.084 958.979 240.28 957.934 240.28ZM982.018 240V232.244C982.018 231.236 981.7 230.405 981.066 229.752C980.431 229.099 979.61 228.772 978.602 228.772C977.93 228.772 977.332 228.921 976.81 229.22C976.287 229.519 975.876 229.929 975.578 230.452C975.279 230.975 975.13 231.572 975.13 232.244L974.094 231.656C974.094 230.648 974.318 229.752 974.766 228.968C975.214 228.184 975.839 227.568 976.642 227.12C977.444 226.653 978.35 226.42 979.358 226.42C980.366 226.42 981.252 226.672 982.018 227.176C982.802 227.68 983.418 228.343 983.866 229.164C984.314 229.967 984.538 230.825 984.538 231.74V240H982.018ZM972.61 240V226.7H975.13V240H972.61ZM994.026 240.28C992.719 240.28 991.543 239.972 990.498 239.356C989.452 238.74 988.622 237.909 988.006 236.864C987.39 235.8 987.082 234.615 987.082 233.308C987.082 232.02 987.39 230.863 988.006 229.836C988.622 228.791 989.452 227.96 990.498 227.344C991.543 226.728 992.719 226.42 994.026 226.42C995.314 226.42 996.48 226.728 997.526 227.344C998.59 227.941 999.43 228.763 1000.05 229.808C1000.66 230.853 1000.97 232.02 1000.97 233.308C1000.97 234.615 1000.66 235.8 1000.05 236.864C999.43 237.909 998.59 238.74 997.526 239.356C996.48 239.972 995.314 240.28 994.026 240.28ZM994.026 237.844C994.866 237.844 995.612 237.648 996.266 237.256C996.919 236.864 997.432 236.332 997.806 235.66C998.179 234.969 998.366 234.185 998.366 233.308C998.366 232.449 998.17 231.684 997.778 231.012C997.404 230.34 996.891 229.817 996.238 229.444C995.603 229.052 994.866 228.856 994.026 228.856C993.186 228.856 992.439 229.052 991.786 229.444C991.132 229.817 990.619 230.34 990.246 231.012C989.872 231.684 989.686 232.449 989.686 233.308C989.686 234.185 989.872 234.969 990.246 235.66C990.619 236.332 991.132 236.864 991.786 237.256C992.439 237.648 993.186 237.844 994.026 237.844ZM1007.23 240L1001.97 226.7H1004.6L1008.41 237.06H1007.57L1011.35 226.7H1012.81L1016.59 237.06H1015.75L1019.55 226.7H1022.19L1016.95 240H1015.47L1011.63 229.948H1012.55L1008.69 240H1007.23ZM1039.66 240V232.244C1039.66 231.236 1039.34 230.405 1038.71 229.752C1038.07 229.099 1037.25 228.772 1036.24 228.772C1035.57 228.772 1034.97 228.921 1034.45 229.22C1033.93 229.519 1033.52 229.929 1033.22 230.452C1032.92 230.975 1032.77 231.572 1032.77 232.244L1031.73 231.656C1031.73 230.648 1031.96 229.752 1032.41 228.968C1032.85 228.184 1033.48 227.568 1034.28 227.12C1035.09 226.653 1035.99 226.42 1037 226.42C1038.01 226.42 1038.89 226.672 1039.66 227.176C1040.44 227.68 1041.06 228.343 1041.51 229.164C1041.95 229.967 1042.18 230.825 1042.18 231.74V240H1039.66ZM1030.25 240V226.7H1032.77V240H1030.25ZM1051.75 240.28C1050.42 240.28 1049.23 239.981 1048.17 239.384C1047.1 238.768 1046.26 237.937 1045.65 236.892C1045.03 235.847 1044.72 234.661 1044.72 233.336C1044.72 232.029 1045.02 230.853 1045.62 229.808C1046.23 228.763 1047.06 227.941 1048.08 227.344C1049.13 226.728 1050.29 226.42 1051.58 226.42C1052.81 226.42 1053.9 226.7 1054.83 227.26C1055.78 227.82 1056.52 228.595 1057.04 229.584C1057.58 230.573 1057.85 231.693 1057.85 232.944C1057.85 233.131 1057.84 233.336 1057.83 233.56C1057.81 233.765 1057.77 234.008 1057.71 234.288H1046.49V232.188H1056.37L1055.45 233C1055.45 232.104 1055.29 231.348 1054.97 230.732C1054.65 230.097 1054.2 229.612 1053.63 229.276C1053.05 228.921 1052.35 228.744 1051.53 228.744C1050.67 228.744 1049.91 228.931 1049.26 229.304C1048.6 229.677 1048.1 230.2 1047.75 230.872C1047.39 231.544 1047.21 232.337 1047.21 233.252C1047.21 234.185 1047.4 235.007 1047.77 235.716C1048.15 236.407 1048.68 236.948 1049.37 237.34C1050.06 237.713 1050.85 237.9 1051.75 237.9C1052.5 237.9 1053.18 237.769 1053.79 237.508C1054.43 237.247 1054.97 236.855 1055.42 236.332L1057.04 237.984C1056.41 238.731 1055.62 239.3 1054.69 239.692C1053.78 240.084 1052.8 240.28 1051.75 240.28ZM1066.76 240.28C1065.44 240.28 1064.24 239.981 1063.18 239.384C1062.11 238.768 1061.27 237.937 1060.66 236.892C1060.04 235.847 1059.73 234.661 1059.73 233.336C1059.73 232.029 1060.03 230.853 1060.63 229.808C1061.25 228.763 1062.07 227.941 1063.09 227.344C1064.14 226.728 1065.31 226.42 1066.59 226.42C1067.83 226.42 1068.91 226.7 1069.84 227.26C1070.79 227.82 1071.53 228.595 1072.05 229.584C1072.6 230.573 1072.87 231.693 1072.87 232.944C1072.87 233.131 1072.86 233.336 1072.84 233.56C1072.82 233.765 1072.78 234.008 1072.73 234.288H1061.5V232.188H1071.38L1070.46 233C1070.46 232.104 1070.3 231.348 1069.98 230.732C1069.66 230.097 1069.22 229.612 1068.64 229.276C1068.06 228.921 1067.36 228.744 1066.54 228.744C1065.68 228.744 1064.92 228.931 1064.27 229.304C1063.62 229.677 1063.11 230.2 1062.76 230.872C1062.4 231.544 1062.23 232.337 1062.23 233.252C1062.23 234.185 1062.41 235.007 1062.79 235.716C1063.16 236.407 1063.69 236.948 1064.38 237.34C1065.07 237.713 1065.87 237.9 1066.76 237.9C1067.51 237.9 1068.19 237.769 1068.81 237.508C1069.44 237.247 1069.98 236.855 1070.43 236.332L1072.05 237.984C1071.42 238.731 1070.64 239.3 1069.7 239.692C1068.79 240.084 1067.81 240.28 1066.76 240.28ZM1081.24 240.28C1080.01 240.28 1078.91 239.981 1077.94 239.384C1076.97 238.768 1076.19 237.937 1075.61 236.892C1075.05 235.847 1074.77 234.671 1074.77 233.364C1074.77 232.057 1075.05 230.881 1075.61 229.836C1076.19 228.791 1076.97 227.96 1077.94 227.344C1078.91 226.728 1080.01 226.42 1081.24 226.42C1082.23 226.42 1083.13 226.635 1083.93 227.064C1084.73 227.475 1085.38 228.053 1085.86 228.8C1086.37 229.528 1086.65 230.377 1086.7 231.348V235.352C1086.65 236.304 1086.37 237.153 1085.89 237.9C1085.4 238.647 1084.76 239.235 1083.96 239.664C1083.15 240.075 1082.25 240.28 1081.24 240.28ZM1081.66 237.9C1082.5 237.9 1083.23 237.704 1083.85 237.312C1084.48 236.92 1084.97 236.388 1085.33 235.716C1085.68 235.025 1085.86 234.241 1085.86 233.364C1085.86 232.449 1085.67 231.656 1085.3 230.984C1084.95 230.312 1084.45 229.78 1083.82 229.388C1083.2 228.996 1082.47 228.8 1081.63 228.8C1080.79 228.8 1080.06 228.996 1079.42 229.388C1078.79 229.78 1078.28 230.321 1077.91 231.012C1077.55 231.684 1077.38 232.459 1077.38 233.336C1077.38 234.232 1077.55 235.025 1077.91 235.716C1078.28 236.388 1078.79 236.92 1079.42 237.312C1080.07 237.704 1080.82 237.9 1081.66 237.9ZM1088.24 240H1085.69V236.416L1086.17 233.168L1085.69 229.948V220.008H1088.24V240ZM1099.78 240V221.128H1102.3V240H1099.78ZM1096.5 228.996V226.7H1105.57V228.996H1096.5ZM1113.71 240.28C1112.4 240.28 1111.23 239.972 1110.18 239.356C1109.14 238.74 1108.31 237.909 1107.69 236.864C1107.07 235.8 1106.77 234.615 1106.77 233.308C1106.77 232.02 1107.07 230.863 1107.69 229.836C1108.31 228.791 1109.14 227.96 1110.18 227.344C1111.23 226.728 1112.4 226.42 1113.71 226.42C1115 226.42 1116.16 226.728 1117.21 227.344C1118.27 227.941 1119.11 228.763 1119.73 229.808C1120.35 230.853 1120.65 232.02 1120.65 233.308C1120.65 234.615 1120.35 235.8 1119.73 236.864C1119.11 237.909 1118.27 238.74 1117.21 239.356C1116.16 239.972 1115 240.28 1113.71 240.28ZM1113.71 237.844C1114.55 237.844 1115.3 237.648 1115.95 237.256C1116.6 236.864 1117.12 236.332 1117.49 235.66C1117.86 234.969 1118.05 234.185 1118.05 233.308C1118.05 232.449 1117.85 231.684 1117.46 231.012C1117.09 230.34 1116.57 229.817 1115.92 229.444C1115.29 229.052 1114.55 228.856 1113.71 228.856C1112.87 228.856 1112.12 229.052 1111.47 229.444C1110.82 229.817 1110.3 230.34 1109.93 231.012C1109.56 231.684 1109.37 232.449 1109.37 233.308C1109.37 234.185 1109.56 234.969 1109.93 235.66C1110.3 236.332 1110.82 236.864 1111.47 237.256C1112.12 237.648 1112.87 237.844 1113.71 237.844ZM1134.94 240.28C1133.71 240.28 1132.61 239.981 1131.64 239.384C1130.67 238.768 1129.9 237.937 1129.32 236.892C1128.76 235.847 1128.48 234.671 1128.48 233.364C1128.48 232.057 1128.76 230.881 1129.32 229.836C1129.9 228.791 1130.67 227.96 1131.64 227.344C1132.61 226.728 1133.71 226.42 1134.94 226.42C1135.93 226.42 1136.83 226.635 1137.63 227.064C1138.44 227.475 1139.08 228.053 1139.56 228.8C1140.07 229.528 1140.35 230.377 1140.4 231.348V235.352C1140.35 236.304 1140.08 237.153 1139.59 237.9C1139.11 238.647 1138.46 239.235 1137.66 239.664C1136.86 240.075 1135.95 240.28 1134.94 240.28ZM1135.36 237.9C1136.2 237.9 1136.93 237.704 1137.55 237.312C1138.18 236.92 1138.68 236.388 1139.03 235.716C1139.39 235.025 1139.56 234.241 1139.56 233.364C1139.56 232.449 1139.38 231.656 1139 230.984C1138.65 230.312 1138.16 229.78 1137.52 229.388C1136.9 228.996 1136.18 228.8 1135.34 228.8C1134.5 228.8 1133.76 228.996 1133.12 229.388C1132.49 229.78 1131.99 230.321 1131.61 231.012C1131.26 231.684 1131.08 232.459 1131.08 233.336C1131.08 234.232 1131.26 235.025 1131.61 235.716C1131.99 236.388 1132.49 236.92 1133.12 237.312C1133.78 237.704 1134.52 237.9 1135.36 237.9ZM1141.94 240H1139.4V236.416L1139.87 233.168L1139.4 229.948V220.008H1141.94V240ZM1151.77 240.28C1150.45 240.28 1149.25 239.981 1148.19 239.384C1147.13 238.768 1146.29 237.937 1145.67 236.892C1145.05 235.847 1144.75 234.661 1144.75 233.336C1144.75 232.029 1145.04 230.853 1145.64 229.808C1146.26 228.763 1147.08 227.941 1148.11 227.344C1149.15 226.728 1150.32 226.42 1151.61 226.42C1152.84 226.42 1153.92 226.7 1154.85 227.26C1155.81 227.82 1156.54 228.595 1157.07 229.584C1157.61 230.573 1157.88 231.693 1157.88 232.944C1157.88 233.131 1157.87 233.336 1157.85 233.56C1157.83 233.765 1157.79 234.008 1157.74 234.288H1146.51V232.188H1156.39L1155.47 233C1155.47 232.104 1155.31 231.348 1154.99 230.732C1154.68 230.097 1154.23 229.612 1153.65 229.276C1153.07 228.921 1152.37 228.744 1151.55 228.744C1150.69 228.744 1149.93 228.931 1149.28 229.304C1148.63 229.677 1148.12 230.2 1147.77 230.872C1147.41 231.544 1147.24 232.337 1147.24 233.252C1147.24 234.185 1147.42 235.007 1147.8 235.716C1148.17 236.407 1148.7 236.948 1149.39 237.34C1150.08 237.713 1150.88 237.9 1151.77 237.9C1152.52 237.9 1153.2 237.769 1153.82 237.508C1154.45 237.247 1154.99 236.855 1155.44 236.332L1157.07 237.984C1156.43 238.731 1155.65 239.3 1154.71 239.692C1153.8 240.084 1152.82 240.28 1151.77 240.28ZM1164.97 240L1158.87 226.7H1161.67L1166.57 237.928H1164.94L1169.87 226.7H1172.56L1166.45 240H1164.97ZM1180.35 240.28C1179.02 240.28 1177.83 239.981 1176.76 239.384C1175.7 238.768 1174.86 237.937 1174.24 236.892C1173.63 235.847 1173.32 234.661 1173.32 233.336C1173.32 232.029 1173.62 230.853 1174.22 229.808C1174.83 228.763 1175.65 227.941 1176.68 227.344C1177.73 226.728 1178.89 226.42 1180.18 226.42C1181.41 226.42 1182.49 226.7 1183.43 227.26C1184.38 227.82 1185.12 228.595 1185.64 229.584C1186.18 230.573 1186.45 231.693 1186.45 232.944C1186.45 233.131 1186.44 233.336 1186.42 233.56C1186.41 233.765 1186.37 234.008 1186.31 234.288H1175.08V232.188H1184.97L1184.04 233C1184.04 232.104 1183.89 231.348 1183.57 230.732C1183.25 230.097 1182.8 229.612 1182.22 229.276C1181.65 228.921 1180.95 228.744 1180.12 228.744C1179.27 228.744 1178.51 228.931 1177.86 229.304C1177.2 229.677 1176.7 230.2 1176.34 230.872C1175.99 231.544 1175.81 232.337 1175.81 233.252C1175.81 234.185 1176 235.007 1176.37 235.716C1176.75 236.407 1177.28 236.948 1177.97 237.34C1178.66 237.713 1179.45 237.9 1180.35 237.9C1181.09 237.9 1181.78 237.769 1182.39 237.508C1183.03 237.247 1183.57 236.855 1184.02 236.332L1185.64 237.984C1185.01 238.731 1184.22 239.3 1183.29 239.692C1182.37 240.084 1181.39 240.28 1180.35 240.28ZM1189.2 240V220.008H1191.72V240H1189.2ZM1201.48 240.28C1200.18 240.28 1199 239.972 1197.95 239.356C1196.91 238.74 1196.08 237.909 1195.46 236.864C1194.85 235.8 1194.54 234.615 1194.54 233.308C1194.54 232.02 1194.85 230.863 1195.46 229.836C1196.08 228.791 1196.91 227.96 1197.95 227.344C1199 226.728 1200.18 226.42 1201.48 226.42C1202.77 226.42 1203.94 226.728 1204.98 227.344C1206.05 227.941 1206.89 228.763 1207.5 229.808C1208.12 230.853 1208.43 232.02 1208.43 233.308C1208.43 234.615 1208.12 235.8 1207.5 236.864C1206.89 237.909 1206.05 238.74 1204.98 239.356C1203.94 239.972 1202.77 240.28 1201.48 240.28ZM1201.48 237.844C1202.32 237.844 1203.07 237.648 1203.72 237.256C1204.38 236.864 1204.89 236.332 1205.26 235.66C1205.64 234.969 1205.82 234.185 1205.82 233.308C1205.82 232.449 1205.63 231.684 1205.23 231.012C1204.86 230.34 1204.35 229.817 1203.69 229.444C1203.06 229.052 1202.32 228.856 1201.48 228.856C1200.64 228.856 1199.9 229.052 1199.24 229.444C1198.59 229.817 1198.08 230.34 1197.7 231.012C1197.33 231.684 1197.14 232.449 1197.14 233.308C1197.14 234.185 1197.33 234.969 1197.7 235.66C1198.08 236.332 1198.59 236.864 1199.24 237.256C1199.9 237.648 1200.64 237.844 1201.48 237.844ZM1218.27 240.28C1217.26 240.28 1216.34 240.075 1215.52 239.664C1214.72 239.235 1214.08 238.647 1213.59 237.9C1213.1 237.153 1212.83 236.304 1212.78 235.352V231.348C1212.83 230.377 1213.1 229.528 1213.59 228.8C1214.09 228.053 1214.75 227.475 1215.55 227.064C1216.37 226.635 1217.28 226.42 1218.27 226.42C1219.48 226.42 1220.57 226.728 1221.54 227.344C1222.53 227.96 1223.31 228.791 1223.87 229.836C1224.43 230.881 1224.71 232.057 1224.71 233.364C1224.71 234.671 1224.43 235.847 1223.87 236.892C1223.31 237.937 1222.53 238.768 1221.54 239.384C1220.57 239.981 1219.48 240.28 1218.27 240.28ZM1217.85 237.9C1218.69 237.9 1219.42 237.704 1220.06 237.312C1220.69 236.92 1221.2 236.388 1221.57 235.716C1221.94 235.025 1222.13 234.232 1222.13 233.336C1222.13 232.459 1221.94 231.675 1221.57 230.984C1221.2 230.293 1220.69 229.761 1220.06 229.388C1219.42 228.996 1218.7 228.8 1217.87 228.8C1217.03 228.8 1216.3 228.996 1215.66 229.388C1215.03 229.761 1214.53 230.293 1214.18 230.984C1213.82 231.675 1213.65 232.468 1213.65 233.364C1213.65 234.241 1213.81 235.025 1214.15 235.716C1214.5 236.388 1215 236.92 1215.63 237.312C1216.29 237.704 1217.02 237.9 1217.85 237.9ZM1211.27 245.572V226.7H1213.79V230.2L1213.31 233.42L1213.79 236.668V245.572H1211.27ZM1235.43 240V221.128H1237.95V240H1235.43ZM1232.16 228.996V226.7H1241.23V228.996H1232.16ZM1253.1 240V232.244C1253.1 231.236 1252.79 230.405 1252.15 229.752C1251.52 229.099 1250.7 228.772 1249.69 228.772C1249.02 228.772 1248.42 228.921 1247.9 229.22C1247.37 229.519 1246.96 229.929 1246.66 230.452C1246.36 230.975 1246.22 231.572 1246.22 232.244L1245.18 231.656C1245.18 230.648 1245.4 229.752 1245.85 228.968C1246.3 228.184 1246.92 227.568 1247.73 227.12C1248.53 226.653 1249.44 226.42 1250.44 226.42C1251.45 226.42 1252.34 226.644 1253.1 227.092C1253.89 227.54 1254.5 228.165 1254.95 228.968C1255.4 229.771 1255.62 230.695 1255.62 231.74V240H1253.1ZM1243.7 240V220.008H1246.22V240H1243.7ZM1265.2 240.28C1263.87 240.28 1262.68 239.981 1261.61 239.384C1260.55 238.768 1259.71 237.937 1259.09 236.892C1258.48 235.847 1258.17 234.661 1258.17 233.336C1258.17 232.029 1258.47 230.853 1259.06 229.808C1259.68 228.763 1260.5 227.941 1261.53 227.344C1262.57 226.728 1263.74 226.42 1265.03 226.42C1266.26 226.42 1267.34 226.7 1268.28 227.26C1269.23 227.82 1269.96 228.595 1270.49 229.584C1271.03 230.573 1271.3 231.693 1271.3 232.944C1271.3 233.131 1271.29 233.336 1271.27 233.56C1271.25 233.765 1271.22 234.008 1271.16 234.288H1259.93V232.188H1269.82L1268.89 233C1268.89 232.104 1268.73 231.348 1268.42 230.732C1268.1 230.097 1267.65 229.612 1267.07 229.276C1266.49 228.921 1265.79 228.744 1264.97 228.744C1264.11 228.744 1263.36 228.931 1262.7 229.304C1262.05 229.677 1261.55 230.2 1261.19 230.872C1260.84 231.544 1260.66 232.337 1260.66 233.252C1260.66 234.185 1260.85 235.007 1261.22 235.716C1261.59 236.407 1262.12 236.948 1262.82 237.34C1263.51 237.713 1264.3 237.9 1265.2 237.9C1265.94 237.9 1266.62 237.769 1267.24 237.508C1267.87 237.247 1268.42 236.855 1268.86 236.332L1270.49 237.984C1269.85 238.731 1269.07 239.3 1268.14 239.692C1267.22 240.084 1266.24 240.28 1265.2 240.28ZM1283.46 240V232.244C1283.46 231.236 1283.14 230.405 1282.5 229.752C1281.87 229.099 1281.05 228.772 1280.04 228.772C1279.37 228.772 1278.77 228.921 1278.25 229.22C1277.72 229.519 1277.31 229.929 1277.02 230.452C1276.72 230.975 1276.57 231.572 1276.57 232.244L1275.53 231.656C1275.53 230.648 1275.76 229.752 1276.2 228.968C1276.65 228.184 1277.28 227.568 1278.08 227.12C1278.88 226.653 1279.79 226.42 1280.8 226.42C1281.8 226.42 1282.69 226.672 1283.46 227.176C1284.24 227.68 1284.86 228.343 1285.3 229.164C1285.75 229.967 1285.98 230.825 1285.98 231.74V240H1283.46ZM1274.05 240V226.7H1276.57V240H1274.05ZM690.051 275L683.947 261.7H686.747L691.647 272.928H690.023L694.951 261.7H697.639L691.535 275H690.051ZM699.815 275V261.7H702.335V275H699.815ZM701.075 259.04C700.609 259.04 700.226 258.891 699.927 258.592C699.629 258.275 699.479 257.883 699.479 257.416C699.479 256.968 699.629 256.595 699.927 256.296C700.226 255.979 700.609 255.82 701.075 255.82C701.542 255.82 701.925 255.979 702.223 256.296C702.522 256.595 702.671 256.968 702.671 257.416C702.671 257.883 702.522 258.275 702.223 258.592C701.925 258.891 701.542 259.04 701.075 259.04ZM710.277 275.28C709.531 275.28 708.821 275.187 708.149 275C707.496 274.795 706.889 274.515 706.329 274.16C705.769 273.787 705.284 273.348 704.873 272.844L706.497 271.22C706.983 271.817 707.543 272.265 708.177 272.564C708.812 272.844 709.521 272.984 710.305 272.984C711.089 272.984 711.696 272.853 712.125 272.592C712.555 272.312 712.769 271.929 712.769 271.444C712.769 270.959 712.592 270.585 712.237 270.324C711.901 270.044 711.463 269.82 710.921 269.652C710.38 269.465 709.801 269.288 709.185 269.12C708.588 268.933 708.019 268.7 707.477 268.42C706.936 268.14 706.488 267.757 706.133 267.272C705.797 266.787 705.629 266.143 705.629 265.34C705.629 264.537 705.825 263.847 706.217 263.268C706.609 262.671 707.151 262.213 707.841 261.896C708.551 261.579 709.4 261.42 710.389 261.42C711.435 261.42 712.359 261.607 713.161 261.98C713.983 262.335 714.655 262.876 715.177 263.604L713.553 265.228C713.18 264.743 712.713 264.369 712.153 264.108C711.612 263.847 710.996 263.716 710.305 263.716C709.577 263.716 709.017 263.847 708.625 264.108C708.252 264.351 708.065 264.696 708.065 265.144C708.065 265.592 708.233 265.937 708.569 266.18C708.905 266.423 709.344 266.628 709.885 266.796C710.445 266.964 711.024 267.141 711.621 267.328C712.219 267.496 712.788 267.729 713.329 268.028C713.871 268.327 714.309 268.728 714.645 269.232C715 269.736 715.177 270.399 715.177 271.22C715.177 272.471 714.729 273.46 713.833 274.188C712.956 274.916 711.771 275.28 710.277 275.28ZM723.346 275.28C722.264 275.28 721.284 275.037 720.406 274.552C719.548 274.048 718.876 273.357 718.39 272.48C717.905 271.603 717.662 270.585 717.662 269.428V261.7H720.182V269.316C720.182 270.044 720.304 270.679 720.546 271.22C720.808 271.743 721.181 272.144 721.666 272.424C722.152 272.704 722.721 272.844 723.374 272.844C724.364 272.844 725.138 272.536 725.698 271.92C726.258 271.285 726.538 270.417 726.538 269.316V261.7H729.058V269.428C729.058 270.585 728.816 271.603 728.33 272.48C727.845 273.357 727.173 274.048 726.314 274.552C725.474 275.037 724.485 275.28 723.346 275.28ZM738.092 275.28C736.879 275.28 735.777 274.981 734.788 274.384C733.799 273.768 733.015 272.937 732.436 271.892C731.876 270.847 731.596 269.671 731.596 268.364C731.596 267.057 731.876 265.881 732.436 264.836C733.015 263.791 733.789 262.96 734.76 262.344C735.749 261.728 736.86 261.42 738.092 261.42C739.1 261.42 739.996 261.635 740.78 262.064C741.583 262.475 742.227 263.053 742.712 263.8C743.197 264.528 743.468 265.377 743.524 266.348V270.352C743.468 271.304 743.197 272.153 742.712 272.9C742.245 273.647 741.611 274.235 740.808 274.664C740.024 275.075 739.119 275.28 738.092 275.28ZM738.512 272.9C739.763 272.9 740.771 272.48 741.536 271.64C742.301 270.781 742.684 269.689 742.684 268.364C742.684 267.449 742.507 266.656 742.152 265.984C741.816 265.293 741.331 264.761 740.696 264.388C740.061 263.996 739.324 263.8 738.484 263.8C737.644 263.8 736.897 263.996 736.244 264.388C735.609 264.78 735.105 265.321 734.732 266.012C734.377 266.684 734.2 267.459 734.2 268.336C734.2 269.232 734.377 270.025 734.732 270.716C735.105 271.388 735.619 271.92 736.272 272.312C736.925 272.704 737.672 272.9 738.512 272.9ZM742.516 275V271.416L742.992 268.168L742.516 264.948V261.7H745.064V275H742.516ZM748.733 275V255.008H751.253V275H748.733ZM754.94 275V255.008H757.46V275H754.94ZM765.515 275.112L759.747 261.7H762.547L766.831 272.2H765.935L770.443 261.7H773.243L767.027 275.112H765.515ZM761.707 280.572L765.627 272.536L767.027 275.112L764.507 280.572H761.707ZM773.756 278.08L775.492 274.748L776.388 274.524C776.294 274.729 776.173 274.897 776.024 275.028C775.893 275.159 775.725 275.224 775.52 275.224C775.128 275.224 774.764 275.065 774.428 274.748C774.11 274.412 773.952 274.001 773.952 273.516C773.952 272.975 774.129 272.527 774.484 272.172C774.838 271.799 775.286 271.612 775.828 271.612C776.313 271.612 776.742 271.799 777.116 272.172C777.489 272.527 777.676 272.975 777.676 273.516C777.676 273.721 777.629 273.973 777.536 274.272C777.461 274.552 777.302 274.916 777.06 275.364L775.212 278.864L773.756 278.08ZM789.195 275V256.128H791.715V275H789.195ZM785.919 263.996V261.7H794.991V263.996H785.919ZM803.209 275.28C801.884 275.28 800.689 274.981 799.625 274.384C798.561 273.768 797.721 272.937 797.105 271.892C796.489 270.847 796.181 269.661 796.181 268.336C796.181 267.029 796.48 265.853 797.077 264.808C797.693 263.763 798.515 262.941 799.541 262.344C800.587 261.728 801.753 261.42 803.041 261.42C804.273 261.42 805.356 261.7 806.289 262.26C807.241 262.82 807.979 263.595 808.501 264.584C809.043 265.573 809.313 266.693 809.313 267.944C809.313 268.131 809.304 268.336 809.285 268.56C809.267 268.765 809.229 269.008 809.173 269.288H797.945V267.188H807.829L806.905 268C806.905 267.104 806.747 266.348 806.429 265.732C806.112 265.097 805.664 264.612 805.085 264.276C804.507 263.921 803.807 263.744 802.985 263.744C802.127 263.744 801.371 263.931 800.717 264.304C800.064 264.677 799.56 265.2 799.205 265.872C798.851 266.544 798.673 267.337 798.673 268.252C798.673 269.185 798.86 270.007 799.233 270.716C799.607 271.407 800.139 271.948 800.829 272.34C801.52 272.713 802.313 272.9 803.209 272.9C803.956 272.9 804.637 272.769 805.253 272.508C805.888 272.247 806.429 271.855 806.877 271.332L808.501 272.984C807.867 273.731 807.083 274.3 806.149 274.692C805.235 275.084 804.255 275.28 803.209 275.28ZM816.289 275.28C815.542 275.28 814.833 275.187 814.161 275C813.508 274.795 812.901 274.515 812.341 274.16C811.781 273.787 811.296 273.348 810.885 272.844L812.509 271.22C812.994 271.817 813.554 272.265 814.189 272.564C814.824 272.844 815.533 272.984 816.317 272.984C817.101 272.984 817.708 272.853 818.137 272.592C818.566 272.312 818.781 271.929 818.781 271.444C818.781 270.959 818.604 270.585 818.249 270.324C817.913 270.044 817.474 269.82 816.933 269.652C816.392 269.465 815.813 269.288 815.197 269.12C814.6 268.933 814.03 268.7 813.489 268.42C812.948 268.14 812.5 267.757 812.145 267.272C811.809 266.787 811.641 266.143 811.641 265.34C811.641 264.537 811.837 263.847 812.229 263.268C812.621 262.671 813.162 262.213 813.853 261.896C814.562 261.579 815.412 261.42 816.401 261.42C817.446 261.42 818.37 261.607 819.173 261.98C819.994 262.335 820.666 262.876 821.189 263.604L819.565 265.228C819.192 264.743 818.725 264.369 818.165 264.108C817.624 263.847 817.008 263.716 816.317 263.716C815.589 263.716 815.029 263.847 814.637 264.108C814.264 264.351 814.077 264.696 814.077 265.144C814.077 265.592 814.245 265.937 814.581 266.18C814.917 266.423 815.356 266.628 815.897 266.796C816.457 266.964 817.036 267.141 817.633 267.328C818.23 267.496 818.8 267.729 819.341 268.028C819.882 268.327 820.321 268.728 820.657 269.232C821.012 269.736 821.189 270.399 821.189 271.22C821.189 272.471 820.741 273.46 819.845 274.188C818.968 274.916 817.782 275.28 816.289 275.28ZM826.054 275V256.128H828.574V275H826.054ZM822.778 263.996V261.7H831.85V263.996H822.778ZM845.799 275.28C844.586 275.28 843.484 274.981 842.495 274.384C841.506 273.768 840.722 272.937 840.143 271.892C839.583 270.847 839.303 269.671 839.303 268.364C839.303 267.057 839.583 265.881 840.143 264.836C840.722 263.791 841.496 262.96 842.467 262.344C843.456 261.728 844.567 261.42 845.799 261.42C846.807 261.42 847.703 261.635 848.487 262.064C849.29 262.475 849.934 263.053 850.419 263.8C850.904 264.528 851.175 265.377 851.231 266.348V270.352C851.175 271.304 850.904 272.153 850.419 272.9C849.952 273.647 849.318 274.235 848.515 274.664C847.731 275.075 846.826 275.28 845.799 275.28ZM846.219 272.9C847.47 272.9 848.478 272.48 849.243 271.64C850.008 270.781 850.391 269.689 850.391 268.364C850.391 267.449 850.214 266.656 849.859 265.984C849.523 265.293 849.038 264.761 848.403 264.388C847.768 263.996 847.031 263.8 846.191 263.8C845.351 263.8 844.604 263.996 843.951 264.388C843.316 264.78 842.812 265.321 842.439 266.012C842.084 266.684 841.907 267.459 841.907 268.336C841.907 269.232 842.084 270.025 842.439 270.716C842.812 271.388 843.326 271.92 843.979 272.312C844.632 272.704 845.379 272.9 846.219 272.9ZM850.223 275V271.416L850.699 268.168L850.223 264.948V261.7H852.771V275H850.223ZM865.848 275V267.244C865.848 266.236 865.53 265.405 864.896 264.752C864.261 264.099 863.44 263.772 862.432 263.772C861.76 263.772 861.162 263.921 860.64 264.22C860.117 264.519 859.706 264.929 859.408 265.452C859.109 265.975 858.96 266.572 858.96 267.244L857.924 266.656C857.924 265.648 858.148 264.752 858.596 263.968C859.044 263.184 859.669 262.568 860.472 262.12C861.274 261.653 862.18 261.42 863.188 261.42C864.196 261.42 865.082 261.672 865.848 262.176C866.632 262.68 867.248 263.343 867.696 264.164C868.144 264.967 868.368 265.825 868.368 266.74V275H865.848ZM856.44 275V261.7H858.96V275H856.44ZM877.408 275.28C876.176 275.28 875.074 274.981 874.104 274.384C873.133 273.768 872.358 272.937 871.78 271.892C871.22 270.847 870.94 269.671 870.94 268.364C870.94 267.057 871.22 265.881 871.78 264.836C872.358 263.791 873.133 262.96 874.104 262.344C875.074 261.728 876.176 261.42 877.408 261.42C878.397 261.42 879.293 261.635 880.096 262.064C880.898 262.475 881.542 263.053 882.028 263.8C882.532 264.528 882.812 265.377 882.868 266.348V270.352C882.812 271.304 882.541 272.153 882.056 272.9C881.57 273.647 880.926 274.235 880.124 274.664C879.321 275.075 878.416 275.28 877.408 275.28ZM877.828 272.9C878.668 272.9 879.396 272.704 880.012 272.312C880.646 271.92 881.141 271.388 881.496 270.716C881.85 270.025 882.028 269.241 882.028 268.364C882.028 267.449 881.841 266.656 881.468 265.984C881.113 265.312 880.618 264.78 879.984 264.388C879.368 263.996 878.64 263.8 877.8 263.8C876.96 263.8 876.222 263.996 875.588 264.388C874.953 264.78 874.449 265.321 874.076 266.012C873.721 266.684 873.544 267.459 873.544 268.336C873.544 269.232 873.721 270.025 874.076 270.716C874.449 271.388 874.953 271.92 875.588 272.312C876.241 272.704 876.988 272.9 877.828 272.9ZM884.408 275H881.86V271.416L882.336 268.168L881.86 264.948V255.008H884.408V275ZM893.901 275V261.7H896.421V275H893.901ZM896.421 267.412L895.469 266.992C895.469 265.293 895.861 263.94 896.645 262.932C897.429 261.924 898.558 261.42 900.033 261.42C900.705 261.42 901.311 261.541 901.853 261.784C902.394 262.008 902.898 262.391 903.365 262.932L901.713 264.64C901.433 264.341 901.125 264.127 900.789 263.996C900.453 263.865 900.061 263.8 899.613 263.8C898.679 263.8 897.914 264.099 897.317 264.696C896.719 265.293 896.421 266.199 896.421 267.412ZM910.862 275.28C909.536 275.28 908.342 274.981 907.278 274.384C906.214 273.768 905.374 272.937 904.758 271.892C904.142 270.847 903.834 269.661 903.834 268.336C903.834 267.029 904.132 265.853 904.73 264.808C905.346 263.763 906.167 262.941 907.194 262.344C908.239 261.728 909.406 261.42 910.694 261.42C911.926 261.42 913.008 261.7 913.942 262.26C914.894 262.82 915.631 263.595 916.154 264.584C916.695 265.573 916.966 266.693 916.966 267.944C916.966 268.131 916.956 268.336 916.938 268.56C916.919 268.765 916.882 269.008 916.826 269.288H905.598V267.188H915.482L914.558 268C914.558 267.104 914.399 266.348 914.082 265.732C913.764 265.097 913.316 264.612 912.738 264.276C912.159 263.921 911.459 263.744 910.638 263.744C909.779 263.744 909.023 263.931 908.37 264.304C907.716 264.677 907.212 265.2 906.858 265.872C906.503 266.544 906.326 267.337 906.326 268.252C906.326 269.185 906.512 270.007 906.886 270.716C907.259 271.407 907.791 271.948 908.482 272.34C909.172 272.713 909.966 272.9 910.862 272.9C911.608 272.9 912.29 272.769 912.906 272.508C913.54 272.247 914.082 271.855 914.53 271.332L916.154 272.984C915.519 273.731 914.735 274.3 913.802 274.692C912.887 275.084 911.907 275.28 910.862 275.28ZM923.941 275.28C923.195 275.28 922.485 275.187 921.813 275C921.16 274.795 920.553 274.515 919.993 274.16C919.433 273.787 918.948 273.348 918.537 272.844L920.161 271.22C920.647 271.817 921.207 272.265 921.841 272.564C922.476 272.844 923.185 272.984 923.969 272.984C924.753 272.984 925.36 272.853 925.789 272.592C926.219 272.312 926.433 271.929 926.433 271.444C926.433 270.959 926.256 270.585 925.901 270.324C925.565 270.044 925.127 269.82 924.585 269.652C924.044 269.465 923.465 269.288 922.849 269.12C922.252 268.933 921.683 268.7 921.141 268.42C920.6 268.14 920.152 267.757 919.797 267.272C919.461 266.787 919.293 266.143 919.293 265.34C919.293 264.537 919.489 263.847 919.881 263.268C920.273 262.671 920.815 262.213 921.505 261.896C922.215 261.579 923.064 261.42 924.053 261.42C925.099 261.42 926.023 261.607 926.825 261.98C927.647 262.335 928.319 262.876 928.841 263.604L927.217 265.228C926.844 264.743 926.377 264.369 925.817 264.108C925.276 263.847 924.66 263.716 923.969 263.716C923.241 263.716 922.681 263.847 922.289 264.108C921.916 264.351 921.729 264.696 921.729 265.144C921.729 265.592 921.897 265.937 922.233 266.18C922.569 266.423 923.008 266.628 923.549 266.796C924.109 266.964 924.688 267.141 925.285 267.328C925.883 267.496 926.452 267.729 926.993 268.028C927.535 268.327 927.973 268.728 928.309 269.232C928.664 269.736 928.841 270.399 928.841 271.22C928.841 272.471 928.393 273.46 927.497 274.188C926.62 274.916 925.435 275.28 923.941 275.28ZM941.07 275V267.244C941.07 266.236 940.753 265.405 940.118 264.752C939.484 264.099 938.662 263.772 937.654 263.772C936.982 263.772 936.385 263.921 935.862 264.22C935.34 264.519 934.929 264.929 934.63 265.452C934.332 265.975 934.182 266.572 934.182 267.244L933.146 266.656C933.146 265.648 933.37 264.752 933.818 263.968C934.266 263.184 934.892 262.568 935.694 262.12C936.497 261.653 937.402 261.42 938.41 261.42C939.418 261.42 940.305 261.644 941.07 262.092C941.854 262.54 942.47 263.165 942.918 263.968C943.366 264.771 943.59 265.695 943.59 266.74V275H941.07ZM931.662 275V255.008H934.182V275H931.662ZM952.658 275.28C951.445 275.28 950.344 274.981 949.354 274.384C948.365 273.768 947.581 272.937 947.002 271.892C946.442 270.847 946.162 269.671 946.162 268.364C946.162 267.057 946.442 265.881 947.002 264.836C947.581 263.791 948.356 262.96 949.326 262.344C950.316 261.728 951.426 261.42 952.658 261.42C953.666 261.42 954.562 261.635 955.346 262.064C956.149 262.475 956.793 263.053 957.278 263.8C957.764 264.528 958.034 265.377 958.09 266.348V270.352C958.034 271.304 957.764 272.153 957.278 272.9C956.812 273.647 956.177 274.235 955.374 274.664C954.59 275.075 953.685 275.28 952.658 275.28ZM953.078 272.9C954.329 272.9 955.337 272.48 956.102 271.64C956.868 270.781 957.25 269.689 957.25 268.364C957.25 267.449 957.073 266.656 956.718 265.984C956.382 265.293 955.897 264.761 955.262 264.388C954.628 263.996 953.89 263.8 953.05 263.8C952.21 263.8 951.464 263.996 950.81 264.388C950.176 264.78 949.672 265.321 949.298 266.012C948.944 266.684 948.766 267.459 948.766 268.336C948.766 269.232 948.944 270.025 949.298 270.716C949.672 271.388 950.185 271.92 950.838 272.312C951.492 272.704 952.238 272.9 953.078 272.9ZM957.082 275V271.416L957.558 268.168L957.082 264.948V261.7H959.63V275H957.082ZM970.299 275.28C969.291 275.28 968.377 275.075 967.555 274.664C966.753 274.235 966.109 273.647 965.623 272.9C965.138 272.153 964.867 271.304 964.811 270.352V266.348C964.867 265.377 965.138 264.528 965.623 263.8C966.127 263.053 966.781 262.475 967.583 262.064C968.405 261.635 969.31 261.42 970.299 261.42C971.513 261.42 972.605 261.728 973.575 262.344C974.565 262.96 975.339 263.791 975.899 264.836C976.459 265.881 976.739 267.057 976.739 268.364C976.739 269.671 976.459 270.847 975.899 271.892C975.339 272.937 974.565 273.768 973.575 274.384C972.605 274.981 971.513 275.28 970.299 275.28ZM969.879 272.9C970.719 272.9 971.457 272.704 972.091 272.312C972.726 271.92 973.23 271.388 973.603 270.716C973.977 270.025 974.163 269.232 974.163 268.336C974.163 267.459 973.977 266.675 973.603 265.984C973.23 265.293 972.726 264.761 972.091 264.388C971.457 263.996 970.729 263.8 969.907 263.8C969.067 263.8 968.33 263.996 967.695 264.388C967.061 264.761 966.566 265.293 966.211 265.984C965.857 266.675 965.679 267.468 965.679 268.364C965.679 269.241 965.847 270.025 966.183 270.716C966.538 271.388 967.033 271.92 967.667 272.312C968.321 272.704 969.058 272.9 969.879 272.9ZM963.299 280.572V261.7H965.819V265.2L965.343 268.42L965.819 271.668V280.572H963.299ZM985.756 275.28C984.431 275.28 983.236 274.981 982.172 274.384C981.108 273.768 980.268 272.937 979.652 271.892C979.036 270.847 978.728 269.661 978.728 268.336C978.728 267.029 979.027 265.853 979.624 264.808C980.24 263.763 981.061 262.941 982.088 262.344C983.133 261.728 984.3 261.42 985.588 261.42C986.82 261.42 987.903 261.7 988.836 262.26C989.788 262.82 990.525 263.595 991.048 264.584C991.589 265.573 991.86 266.693 991.86 267.944C991.86 268.131 991.851 268.336 991.832 268.56C991.813 268.765 991.776 269.008 991.72 269.288H980.492V267.188H990.376L989.452 268C989.452 267.104 989.293 266.348 988.976 265.732C988.659 265.097 988.211 264.612 987.632 264.276C987.053 263.921 986.353 263.744 985.532 263.744C984.673 263.744 983.917 263.931 983.264 264.304C982.611 264.677 982.107 265.2 981.752 265.872C981.397 266.544 981.22 267.337 981.22 268.252C981.22 269.185 981.407 270.007 981.78 270.716C982.153 271.407 982.685 271.948 983.376 272.34C984.067 272.713 984.86 272.9 985.756 272.9C986.503 272.9 987.184 272.769 987.8 272.508C988.435 272.247 988.976 271.855 989.424 271.332L991.048 272.984C990.413 273.731 989.629 274.3 988.696 274.692C987.781 275.084 986.801 275.28 985.756 275.28ZM996.54 275.28C996.017 275.28 995.578 275.103 995.224 274.748C994.888 274.375 994.72 273.945 994.72 273.46C994.72 272.919 994.888 272.48 995.224 272.144C995.578 271.789 996.017 271.612 996.54 271.612C997.062 271.612 997.492 271.789 997.828 272.144C998.182 272.48 998.36 272.919 998.36 273.46C998.36 273.945 998.182 274.375 997.828 274.748C997.492 275.103 997.062 275.28 996.54 275.28ZM996.54 266.544C996.017 266.544 995.578 266.367 995.224 266.012C994.888 265.657 994.72 265.228 994.72 264.724C994.72 264.183 994.888 263.744 995.224 263.408C995.578 263.053 996.017 262.876 996.54 262.876C997.062 262.876 997.492 263.053 997.828 263.408C998.182 263.744 998.36 264.183 998.36 264.724C998.36 265.228 998.182 265.657 997.828 266.012C997.492 266.367 997.062 266.544 996.54 266.544ZM752.134 345V325.568H753.982L762.214 339.092H760.954L769.186 325.568H771.034V345H768.402V330.188L769.018 330.356L762.522 341.024H760.674L754.178 330.356L754.766 330.188V345H752.134ZM784.47 345.28C783.089 345.28 781.801 345.028 780.606 344.524C779.412 344.001 778.366 343.283 777.47 342.368C776.574 341.435 775.874 340.361 775.37 339.148C774.885 337.935 774.642 336.637 774.642 335.256C774.642 333.856 774.885 332.559 775.37 331.364C775.874 330.151 776.565 329.087 777.442 328.172C778.338 327.257 779.374 326.548 780.55 326.044C781.745 325.54 783.033 325.288 784.414 325.288C785.796 325.288 787.074 325.54 788.25 326.044C789.445 326.548 790.49 327.257 791.386 328.172C792.282 329.087 792.982 330.151 793.486 331.364C793.99 332.577 794.242 333.884 794.242 335.284C794.242 336.665 793.99 337.963 793.486 339.176C792.982 340.389 792.282 341.453 791.386 342.368C790.509 343.283 789.473 344.001 788.278 344.524C787.102 345.028 785.833 345.28 784.47 345.28ZM784.414 342.76C785.814 342.76 787.037 342.443 788.082 341.808C789.146 341.155 789.986 340.268 790.602 339.148C791.218 338.009 791.526 336.712 791.526 335.256C791.526 334.173 791.349 333.184 790.994 332.288C790.64 331.373 790.145 330.58 789.51 329.908C788.876 329.236 788.129 328.723 787.27 328.368C786.412 327.995 785.46 327.808 784.414 327.808C783.033 327.808 781.81 328.125 780.746 328.76C779.701 329.395 778.87 330.272 778.254 331.392C777.657 332.512 777.358 333.8 777.358 335.256C777.358 336.339 777.526 337.347 777.862 338.28C778.217 339.195 778.702 339.988 779.318 340.66C779.953 341.313 780.7 341.827 781.558 342.2C782.436 342.573 783.388 342.76 784.414 342.76ZM806.865 345.28C805.483 345.28 804.195 345.028 803.001 344.524C801.806 344.001 800.761 343.283 799.865 342.368C798.969 341.435 798.269 340.361 797.765 339.148C797.279 337.935 797.037 336.637 797.037 335.256C797.037 333.856 797.279 332.559 797.765 331.364C798.269 330.151 798.959 329.087 799.837 328.172C800.733 327.257 801.769 326.548 802.945 326.044C804.139 325.54 805.427 325.288 806.809 325.288C808.19 325.288 809.469 325.54 810.645 326.044C811.839 326.548 812.885 327.257 813.781 328.172C814.677 329.087 815.377 330.151 815.881 331.364C816.385 332.577 816.637 333.884 816.637 335.284C816.637 336.665 816.385 337.963 815.881 339.176C815.377 340.389 814.677 341.453 813.781 342.368C812.903 343.283 811.867 344.001 810.673 344.524C809.497 345.028 808.227 345.28 806.865 345.28ZM806.809 342.76C808.209 342.76 809.431 342.443 810.477 341.808C811.541 341.155 812.381 340.268 812.997 339.148C813.613 338.009 813.921 336.712 813.921 335.256C813.921 334.173 813.743 333.184 813.389 332.288C813.034 331.373 812.539 330.58 811.905 329.908C811.27 329.236 810.523 328.723 809.665 328.368C808.806 327.995 807.854 327.808 806.809 327.808C805.427 327.808 804.205 328.125 803.141 328.76C802.095 329.395 801.265 330.272 800.649 331.392C800.051 332.512 799.753 333.8 799.753 335.256C799.753 336.339 799.921 337.347 800.257 338.28C800.611 339.195 801.097 339.988 801.713 340.66C802.347 341.313 803.094 341.827 803.953 342.2C804.83 342.573 805.782 342.76 806.809 342.76ZM821.983 345V342.592H827.387C828.825 342.592 830.085 342.284 831.167 341.668C832.25 341.033 833.09 340.165 833.687 339.064C834.303 337.963 834.611 336.693 834.611 335.256C834.611 333.837 834.303 332.577 833.687 331.476C833.071 330.375 832.222 329.516 831.139 328.9C830.057 328.284 828.806 327.976 827.387 327.976H822.011V325.568H827.443C828.862 325.568 830.169 325.811 831.363 326.296C832.577 326.781 833.622 327.463 834.499 328.34C835.395 329.217 836.086 330.244 836.571 331.42C837.075 332.596 837.327 333.884 837.327 335.284C837.327 336.665 837.075 337.953 836.571 339.148C836.086 340.324 835.405 341.351 834.527 342.228C833.65 343.105 832.605 343.787 831.391 344.272C830.197 344.757 828.899 345 827.499 345H821.983ZM820.247 345V325.568H822.879V345H820.247ZM842.738 345V342.704H848.618C849.738 342.704 850.615 342.377 851.25 341.724C851.884 341.052 852.202 340.249 852.202 339.316C852.202 338.681 852.062 338.112 851.782 337.608C851.502 337.085 851.091 336.675 850.55 336.376C850.027 336.077 849.411 335.928 848.702 335.928H842.738V333.632H848.31C849.243 333.632 849.98 333.389 850.522 332.904C851.082 332.4 851.362 331.681 851.362 330.748C851.362 329.815 851.072 329.105 850.494 328.62C849.915 328.116 849.15 327.864 848.198 327.864H842.738V325.568H848.254C849.523 325.568 850.578 325.801 851.418 326.268C852.276 326.716 852.92 327.313 853.35 328.06C853.798 328.807 854.022 329.628 854.022 330.524C854.022 331.569 853.732 332.484 853.154 333.268C852.594 334.052 851.763 334.668 850.662 335.116L850.886 334.276C852.136 334.724 853.107 335.405 853.798 336.32C854.507 337.216 854.862 338.28 854.862 339.512C854.862 340.539 854.61 341.463 854.106 342.284C853.602 343.105 852.874 343.768 851.922 344.272C850.988 344.757 849.84 345 848.478 345H842.738ZM840.974 345V325.568H843.606V345H840.974ZM867.267 345.28C865.886 345.28 864.598 345.028 863.403 344.524C862.208 344.001 861.163 343.283 860.267 342.368C859.371 341.435 858.671 340.361 858.167 339.148C857.682 337.935 857.439 336.637 857.439 335.256C857.439 333.856 857.682 332.559 858.167 331.364C858.671 330.151 859.362 329.087 860.239 328.172C861.135 327.257 862.171 326.548 863.347 326.044C864.542 325.54 865.83 325.288 867.211 325.288C868.592 325.288 869.871 325.54 871.047 326.044C872.242 326.548 873.287 327.257 874.183 328.172C875.079 329.087 875.779 330.151 876.283 331.364C876.787 332.577 877.039 333.884 877.039 335.284C877.039 336.665 876.787 337.963 876.283 339.176C875.779 340.389 875.079 341.453 874.183 342.368C873.306 343.283 872.27 344.001 871.075 344.524C869.899 345.028 868.63 345.28 867.267 345.28ZM867.211 342.76C868.611 342.76 869.834 342.443 870.879 341.808C871.943 341.155 872.783 340.268 873.399 339.148C874.015 338.009 874.323 336.712 874.323 335.256C874.323 334.173 874.146 333.184 873.791 332.288C873.436 331.373 872.942 330.58 872.307 329.908C871.672 329.236 870.926 328.723 870.067 328.368C869.208 327.995 868.256 327.808 867.211 327.808C865.83 327.808 864.607 328.125 863.543 328.76C862.498 329.395 861.667 330.272 861.051 331.392C860.454 332.512 860.155 333.8 860.155 335.256C860.155 336.339 860.323 337.347 860.659 338.28C861.014 339.195 861.499 339.988 862.115 340.66C862.75 341.313 863.496 341.827 864.355 342.2C865.232 342.573 866.184 342.76 867.211 342.76ZM877.772 345L885.724 325.568H887.628L895.552 345H892.696L886.172 328.564H887.152L880.572 345H877.772ZM881.552 340.604V338.308H891.772V340.604H881.552ZM900.242 336.544V334.332H905.506C906.644 334.332 907.522 334.043 908.138 333.464C908.754 332.885 909.062 332.101 909.062 331.112C909.062 330.179 908.754 329.404 908.138 328.788C907.54 328.172 906.672 327.864 905.534 327.864H900.242V325.568H905.618C906.85 325.568 907.923 325.811 908.838 326.296C909.752 326.763 910.452 327.407 910.938 328.228C911.442 329.049 911.694 329.992 911.694 331.056C911.694 332.157 911.442 333.119 910.938 333.94C910.452 334.761 909.752 335.405 908.838 335.872C907.923 336.32 906.85 336.544 905.618 336.544H900.242ZM898.478 345V325.568H901.11V345H898.478ZM909.678 345L902.622 336.292L905.114 335.424L913.01 345H909.678ZM917.468 345V342.592H922.872C924.309 342.592 925.569 342.284 926.652 341.668C927.734 341.033 928.574 340.165 929.172 339.064C929.788 337.963 930.096 336.693 930.096 335.256C930.096 333.837 929.788 332.577 929.172 331.476C928.556 330.375 927.706 329.516 926.624 328.9C925.541 328.284 924.29 327.976 922.872 327.976H917.496V325.568H922.928C924.346 325.568 925.653 325.811 926.848 326.296C928.061 326.781 929.106 327.463 929.984 328.34C930.88 329.217 931.57 330.244 932.056 331.42C932.56 332.596 932.812 333.884 932.812 335.284C932.812 336.665 932.56 337.953 932.056 339.148C931.57 340.324 930.889 341.351 930.012 342.228C929.134 343.105 928.089 343.787 926.876 344.272C925.681 344.757 924.384 345 922.984 345H917.468ZM915.732 345V325.568H918.364V345H915.732ZM773.028 380.28C771.497 380.28 770.191 380 769.108 379.44C768.025 378.88 767.064 378.068 766.224 377.004L768.016 375.212C768.632 376.071 769.341 376.724 770.144 377.172C770.947 377.601 771.936 377.816 773.112 377.816C774.269 377.816 775.193 377.564 775.884 377.06C776.593 376.556 776.948 375.865 776.948 374.988C776.948 374.26 776.78 373.672 776.444 373.224C776.108 372.776 775.651 372.412 775.072 372.132C774.512 371.833 773.896 371.572 773.224 371.348C772.552 371.105 771.88 370.853 771.208 370.592C770.536 370.312 769.92 369.976 769.36 369.584C768.8 369.173 768.343 368.641 767.988 367.988C767.652 367.335 767.484 366.513 767.484 365.524C767.484 364.423 767.745 363.489 768.268 362.724C768.809 361.94 769.537 361.343 770.452 360.932C771.385 360.503 772.431 360.288 773.588 360.288C774.857 360.288 775.996 360.54 777.004 361.044C778.012 361.529 778.833 362.173 779.468 362.976L777.676 364.768C777.097 364.096 776.472 363.592 775.8 363.256C775.147 362.92 774.391 362.752 773.532 362.752C772.487 362.752 771.656 362.985 771.04 363.452C770.424 363.9 770.116 364.535 770.116 365.356C770.116 366.009 770.284 366.541 770.62 366.952C770.975 367.344 771.432 367.68 771.992 367.96C772.552 368.24 773.168 368.501 773.84 368.744C774.531 368.968 775.212 369.22 775.884 369.5C776.556 369.78 777.172 370.135 777.732 370.564C778.292 370.993 778.74 371.553 779.076 372.244C779.431 372.916 779.608 373.765 779.608 374.792C779.608 376.509 779.011 377.853 777.816 378.824C776.64 379.795 775.044 380.28 773.028 380.28ZM795.167 380L785.367 369.864L794.971 360.568H798.387L788.027 370.536V369.08L798.667 380H795.167ZM783.155 380V360.568H785.787V380H783.155ZM801.312 380V360.568H803.944V380H801.312ZM803.104 380V377.592H814.248V380H803.104ZM803.104 371.208V368.912H813.324V371.208H803.104ZM803.104 362.976V360.568H814.108V362.976H803.104ZM822.241 380V361.128H824.873V380H822.241ZM815.633 362.976V360.568H831.453V362.976H815.633ZM841.987 380.28C840.587 380.28 839.29 380.028 838.095 379.524C836.9 379.001 835.855 378.283 834.959 377.368C834.082 376.453 833.4 375.389 832.915 374.176C832.43 372.963 832.187 371.665 832.187 370.284C832.187 368.884 832.43 367.577 832.915 366.364C833.4 365.151 834.082 364.096 834.959 363.2C835.855 362.285 836.891 361.576 838.067 361.072C839.262 360.549 840.559 360.288 841.959 360.288C843.49 360.288 844.834 360.549 845.991 361.072C847.148 361.595 848.175 362.304 849.071 363.2L847.251 365.02C846.635 364.329 845.879 363.788 844.983 363.396C844.106 363.004 843.098 362.808 841.959 362.808C840.932 362.808 839.99 362.995 839.131 363.368C838.272 363.723 837.526 364.236 836.891 364.908C836.256 365.58 835.762 366.373 835.407 367.288C835.071 368.203 834.903 369.201 834.903 370.284C834.903 371.367 835.071 372.365 835.407 373.28C835.762 374.195 836.256 374.988 836.891 375.66C837.526 376.332 838.272 376.855 839.131 377.228C839.99 377.583 840.932 377.76 841.959 377.76C843.172 377.76 844.227 377.564 845.123 377.172C846.019 376.761 846.775 376.211 847.391 375.52L849.211 377.312C848.315 378.245 847.26 378.973 846.047 379.496C844.852 380.019 843.499 380.28 841.987 380.28ZM852.444 380V360.568H855.076V380H852.444ZM864.988 380V360.568H867.62V380H864.988ZM854.236 371.152V368.744H865.632V371.152H854.236ZM872.214 380V360.568H874.846V380H872.214ZM879.433 380V360.568H881.281L882.065 363.62V380H879.433ZM892.873 380L880.945 364.068L881.281 360.568L893.237 376.472L892.873 380ZM892.873 380L892.089 377.116V360.568H894.721V380H892.873ZM908.104 380.28C906.741 380.28 905.462 380.028 904.268 379.524C903.092 379.001 902.056 378.283 901.16 377.368C900.282 376.453 899.592 375.389 899.088 374.176C898.584 372.963 898.332 371.656 898.332 370.256C898.332 368.856 898.584 367.559 899.088 366.364C899.592 365.151 900.292 364.087 901.188 363.172C902.084 362.257 903.129 361.548 904.324 361.044C905.537 360.54 906.853 360.288 908.272 360.288C909.821 360.288 911.249 360.587 912.556 361.184C913.862 361.781 914.954 362.64 915.832 363.76L914.012 365.58C913.396 364.684 912.584 364.003 911.576 363.536C910.568 363.051 909.466 362.808 908.272 362.808C906.853 362.808 905.593 363.125 904.492 363.76C903.409 364.395 902.56 365.272 901.944 366.392C901.346 367.512 901.048 368.8 901.048 370.256C901.048 371.731 901.356 373.028 901.972 374.148C902.588 375.268 903.418 376.145 904.464 376.78C905.509 377.415 906.704 377.732 908.048 377.732C909.41 377.732 910.586 377.471 911.576 376.948C912.584 376.425 913.358 375.66 913.9 374.652C914.441 373.625 914.712 372.375 914.712 370.9L916.308 372.048H907.908V369.64H917.428V370.032C917.428 372.291 917.026 374.185 916.224 375.716C915.44 377.228 914.338 378.367 912.92 379.132C911.52 379.897 909.914 380.28 908.104 380.28ZM808.134 415V395.568H810.766V415H808.134ZM809.926 415V412.592H820.342V415H809.926ZM830.736 415.28C829.354 415.28 828.066 415.028 826.872 414.524C825.677 414.001 824.632 413.283 823.736 412.368C822.84 411.435 822.14 410.361 821.636 409.148C821.15 407.935 820.908 406.637 820.908 405.256C820.908 403.856 821.15 402.559 821.636 401.364C822.14 400.151 822.83 399.087 823.708 398.172C824.604 397.257 825.64 396.548 826.816 396.044C828.01 395.54 829.298 395.288 830.68 395.288C832.061 395.288 833.34 395.54 834.516 396.044C835.71 396.548 836.756 397.257 837.652 398.172C838.548 399.087 839.248 400.151 839.752 401.364C840.256 402.577 840.508 403.884 840.508 405.284C840.508 406.665 840.256 407.963 839.752 409.176C839.248 410.389 838.548 411.453 837.652 412.368C836.774 413.283 835.738 414.001 834.544 414.524C833.368 415.028 832.098 415.28 830.736 415.28ZM830.68 412.76C832.08 412.76 833.302 412.443 834.348 411.808C835.412 411.155 836.252 410.268 836.868 409.148C837.484 408.009 837.792 406.712 837.792 405.256C837.792 404.173 837.614 403.184 837.26 402.288C836.905 401.373 836.41 400.58 835.776 399.908C835.141 399.236 834.394 398.723 833.536 398.368C832.677 397.995 831.725 397.808 830.68 397.808C829.298 397.808 828.076 398.125 827.012 398.76C825.966 399.395 825.136 400.272 824.52 401.392C823.922 402.512 823.624 403.8 823.624 405.256C823.624 406.339 823.792 407.347 824.128 408.28C824.482 409.195 824.968 409.988 825.584 410.66C826.218 411.313 826.965 411.827 827.824 412.2C828.701 412.573 829.653 412.76 830.68 412.76ZM844.026 409.064V406.684H853.238V409.064H844.026ZM857.38 415V395.568H860.012V415H857.38ZM859.172 406.46V404.052H869.308V406.46H859.172ZM859.172 397.976V395.568H869.784V397.976H859.172ZM873.239 415V395.568H875.871V415H873.239ZM792.245 450V431.128H794.877V450H792.245ZM785.637 432.976V430.568H801.457V432.976H785.637ZM804.593 450V430.568H807.225V450H804.593ZM806.385 450V447.592H817.529V450H806.385ZM806.385 441.208V438.912H816.605V441.208H806.385ZM806.385 432.976V430.568H817.389V432.976H806.385ZM826.02 450.28C824.49 450.28 823.183 450 822.1 449.44C821.018 448.88 820.056 448.068 819.216 447.004L821.008 445.212C821.624 446.071 822.334 446.724 823.136 447.172C823.939 447.601 824.928 447.816 826.104 447.816C827.262 447.816 828.186 447.564 828.876 447.06C829.586 446.556 829.94 445.865 829.94 444.988C829.94 444.26 829.772 443.672 829.436 443.224C829.1 442.776 828.643 442.412 828.064 442.132C827.504 441.833 826.888 441.572 826.216 441.348C825.544 441.105 824.872 440.853 824.2 440.592C823.528 440.312 822.912 439.976 822.352 439.584C821.792 439.173 821.335 438.641 820.98 437.988C820.644 437.335 820.476 436.513 820.476 435.524C820.476 434.423 820.738 433.489 821.26 432.724C821.802 431.94 822.53 431.343 823.444 430.932C824.378 430.503 825.423 430.288 826.58 430.288C827.85 430.288 828.988 430.54 829.996 431.044C831.004 431.529 831.826 432.173 832.46 432.976L830.668 434.768C830.09 434.096 829.464 433.592 828.792 433.256C828.139 432.92 827.383 432.752 826.524 432.752C825.479 432.752 824.648 432.985 824.032 433.452C823.416 433.9 823.108 434.535 823.108 435.356C823.108 436.009 823.276 436.541 823.612 436.952C823.967 437.344 824.424 437.68 824.984 437.96C825.544 438.24 826.16 438.501 826.832 438.744C827.523 438.968 828.204 439.22 828.876 439.5C829.548 439.78 830.164 440.135 830.724 440.564C831.284 440.993 831.732 441.553 832.068 442.244C832.423 442.916 832.6 443.765 832.6 444.792C832.6 446.509 832.003 447.853 830.808 448.824C829.632 449.795 828.036 450.28 826.02 450.28ZM840.397 450V431.128H843.029V450H840.397ZM833.789 432.976V430.568H849.609V432.976H833.789ZM852.745 450V430.568H855.377V450H852.745ZM859.964 450V430.568H861.812L862.596 433.62V450H859.964ZM873.404 450L861.476 434.068L861.812 430.568L873.768 446.472L873.404 450ZM873.404 450L872.62 447.116V430.568H875.252V450H873.404ZM888.635 450.28C887.272 450.28 885.994 450.028 884.799 449.524C883.623 449.001 882.587 448.283 881.691 447.368C880.814 446.453 880.123 445.389 879.619 444.176C879.115 442.963 878.863 441.656 878.863 440.256C878.863 438.856 879.115 437.559 879.619 436.364C880.123 435.151 880.823 434.087 881.719 433.172C882.615 432.257 883.66 431.548 884.855 431.044C886.068 430.54 887.384 430.288 888.803 430.288C890.352 430.288 891.78 430.587 893.087 431.184C894.394 431.781 895.486 432.64 896.363 433.76L894.543 435.58C893.927 434.684 893.115 434.003 892.107 433.536C891.099 433.051 889.998 432.808 888.803 432.808C887.384 432.808 886.124 433.125 885.023 433.76C883.94 434.395 883.091 435.272 882.475 436.392C881.878 437.512 881.579 438.8 881.579 440.256C881.579 441.731 881.887 443.028 882.503 444.148C883.119 445.268 883.95 446.145 884.995 446.78C886.04 447.415 887.235 447.732 888.579 447.732C889.942 447.732 891.118 447.471 892.107 446.948C893.115 446.425 893.89 445.66 894.431 444.652C894.972 443.625 895.243 442.375 895.243 440.9L896.839 442.048H888.439V439.64H897.959V440.032C897.959 442.291 897.558 444.185 896.755 445.716C895.971 447.228 894.87 448.367 893.451 449.132C892.051 449.897 890.446 450.28 888.635 450.28ZM778.305 485.28C776.775 485.28 775.468 485 774.385 484.44C773.303 483.88 772.341 483.068 771.501 482.004L773.293 480.212C773.909 481.071 774.619 481.724 775.421 482.172C776.224 482.601 777.213 482.816 778.389 482.816C779.547 482.816 780.471 482.564 781.161 482.06C781.871 481.556 782.225 480.865 782.225 479.988C782.225 479.26 782.057 478.672 781.721 478.224C781.385 477.776 780.928 477.412 780.349 477.132C779.789 476.833 779.173 476.572 778.501 476.348C777.829 476.105 777.157 475.853 776.485 475.592C775.813 475.312 775.197 474.976 774.637 474.584C774.077 474.173 773.62 473.641 773.265 472.988C772.929 472.335 772.761 471.513 772.761 470.524C772.761 469.423 773.023 468.489 773.545 467.724C774.087 466.94 774.815 466.343 775.729 465.932C776.663 465.503 777.708 465.288 778.865 465.288C780.135 465.288 781.273 465.54 782.281 466.044C783.289 466.529 784.111 467.173 784.745 467.976L782.953 469.768C782.375 469.096 781.749 468.592 781.077 468.256C780.424 467.92 779.668 467.752 778.809 467.752C777.764 467.752 776.933 467.985 776.317 468.452C775.701 468.9 775.393 469.535 775.393 470.356C775.393 471.009 775.561 471.541 775.897 471.952C776.252 472.344 776.709 472.68 777.269 472.96C777.829 473.24 778.445 473.501 779.117 473.744C779.808 473.968 780.489 474.22 781.161 474.5C781.833 474.78 782.449 475.135 783.009 475.564C783.569 475.993 784.017 476.553 784.353 477.244C784.708 477.916 784.885 478.765 784.885 479.792C784.885 481.509 784.288 482.853 783.093 483.824C781.917 484.795 780.321 485.28 778.305 485.28ZM792.682 485V466.128H795.314V485H792.682ZM786.074 467.976V465.568H801.894V467.976H786.074ZM809.878 477.104L802.234 465.568H805.286L811.446 475.004H810.074L816.262 465.568H819.258L811.558 477.104H809.878ZM809.43 485V475.368H812.062V485H809.43ZM821.655 485V465.568H824.287V485H821.655ZM823.447 485V482.592H833.863V485H823.447ZM837.105 485V465.568H839.737V485H837.105ZM838.897 485V482.592H850.041V485H838.897ZM838.897 476.208V473.912H849.117V476.208H838.897ZM838.897 467.976V465.568H849.901V467.976H838.897ZM864.159 485V466.128H866.791V485H864.159ZM857.551 467.976V465.568H873.371V467.976H857.551ZM876.507 485V465.568H879.139V485H876.507ZM883.726 485V465.568H886.358V485H883.726ZM885.518 485V482.592H895.934V485H885.518ZM899.175 485V465.568H901.807V485H899.175ZM900.967 485V482.592H912.111V485H900.967ZM900.967 476.208V473.912H911.187V476.208H900.967ZM900.967 467.976V465.568H911.971V467.976H900.967ZM812.81 520V500.568H815.442V520H812.81ZM825.354 520V500.568H827.986V520H825.354ZM814.602 511.152V508.744H825.998V511.152H814.602ZM832.579 520V500.568H835.211V520H832.579ZM839.35 514.064V511.684H848.562V514.064H839.35ZM852.704 520V500.568H855.336V520H852.704ZM854.496 511.46V509.052H864.632V511.46H854.496ZM854.496 502.976V500.568H865.108V502.976H854.496ZM868.564 520V500.568H871.196V520H868.564ZM792.245 555V536.128H794.877V555H792.245ZM785.637 537.976V535.568H801.457V537.976H785.637ZM804.593 555V535.568H807.225V555H804.593ZM806.385 555V552.592H817.529V555H806.385ZM806.385 546.208V543.912H816.605V546.208H806.385ZM806.385 537.976V535.568H817.389V537.976H806.385ZM826.02 555.28C824.49 555.28 823.183 555 822.1 554.44C821.018 553.88 820.056 553.068 819.216 552.004L821.008 550.212C821.624 551.071 822.334 551.724 823.136 552.172C823.939 552.601 824.928 552.816 826.104 552.816C827.262 552.816 828.186 552.564 828.876 552.06C829.586 551.556 829.94 550.865 829.94 549.988C829.94 549.26 829.772 548.672 829.436 548.224C829.1 547.776 828.643 547.412 828.064 547.132C827.504 546.833 826.888 546.572 826.216 546.348C825.544 546.105 824.872 545.853 824.2 545.592C823.528 545.312 822.912 544.976 822.352 544.584C821.792 544.173 821.335 543.641 820.98 542.988C820.644 542.335 820.476 541.513 820.476 540.524C820.476 539.423 820.738 538.489 821.26 537.724C821.802 536.94 822.53 536.343 823.444 535.932C824.378 535.503 825.423 535.288 826.58 535.288C827.85 535.288 828.988 535.54 829.996 536.044C831.004 536.529 831.826 537.173 832.46 537.976L830.668 539.768C830.09 539.096 829.464 538.592 828.792 538.256C828.139 537.92 827.383 537.752 826.524 537.752C825.479 537.752 824.648 537.985 824.032 538.452C823.416 538.9 823.108 539.535 823.108 540.356C823.108 541.009 823.276 541.541 823.612 541.952C823.967 542.344 824.424 542.68 824.984 542.96C825.544 543.24 826.16 543.501 826.832 543.744C827.523 543.968 828.204 544.22 828.876 544.5C829.548 544.78 830.164 545.135 830.724 545.564C831.284 545.993 831.732 546.553 832.068 547.244C832.423 547.916 832.6 548.765 832.6 549.792C832.6 551.509 832.003 552.853 830.808 553.824C829.632 554.795 828.036 555.28 826.02 555.28ZM840.397 555V536.128H843.029V555H840.397ZM833.789 537.976V535.568H849.609V537.976H833.789ZM852.745 555V535.568H855.377V555H852.745ZM859.964 555V535.568H861.812L862.596 538.62V555H859.964ZM873.404 555L861.476 539.068L861.812 535.568L873.768 551.472L873.404 555ZM873.404 555L872.62 552.116V535.568H875.252V555H873.404ZM888.635 555.28C887.272 555.28 885.994 555.028 884.799 554.524C883.623 554.001 882.587 553.283 881.691 552.368C880.814 551.453 880.123 550.389 879.619 549.176C879.115 547.963 878.863 546.656 878.863 545.256C878.863 543.856 879.115 542.559 879.619 541.364C880.123 540.151 880.823 539.087 881.719 538.172C882.615 537.257 883.66 536.548 884.855 536.044C886.068 535.54 887.384 535.288 888.803 535.288C890.352 535.288 891.78 535.587 893.087 536.184C894.394 536.781 895.486 537.64 896.363 538.76L894.543 540.58C893.927 539.684 893.115 539.003 892.107 538.536C891.099 538.051 889.998 537.808 888.803 537.808C887.384 537.808 886.124 538.125 885.023 538.76C883.94 539.395 883.091 540.272 882.475 541.392C881.878 542.512 881.579 543.8 881.579 545.256C881.579 546.731 881.887 548.028 882.503 549.148C883.119 550.268 883.95 551.145 884.995 551.78C886.04 552.415 887.235 552.732 888.579 552.732C889.942 552.732 891.118 552.471 892.107 551.948C893.115 551.425 893.89 550.66 894.431 549.652C894.972 548.625 895.243 547.375 895.243 545.9L896.839 547.048H888.439V544.64H897.959V545.032C897.959 547.291 897.558 549.185 896.755 550.716C895.971 552.228 894.87 553.367 893.451 554.132C892.051 554.897 890.446 555.28 888.635 555.28Z" fill="#FEFAE0"/>
</svg>
