<svg width="1645" height="645" viewBox="0 0 1645 645" fill="none" xmlns="http://www.w3.org/2000/svg">
<path d="M263.132 540V521.956H265.576V540H263.132ZM278.155 540V532.798C278.155 531.862 277.86 531.091 277.271 530.484C276.682 529.877 275.919 529.574 274.983 529.574C274.359 529.574 273.804 529.713 273.319 529.99C272.834 530.267 272.452 530.649 272.175 531.134C271.898 531.619 271.759 532.174 271.759 532.798L270.797 532.252C270.797 531.316 271.005 530.484 271.421 529.756C271.837 529.028 272.418 528.456 273.163 528.04C273.908 527.607 274.749 527.39 275.685 527.39C276.621 527.39 277.444 527.624 278.155 528.092C278.883 528.56 279.455 529.175 279.871 529.938C280.287 530.683 280.495 531.481 280.495 532.33V540H278.155ZM269.419 540V527.65H271.759V540H269.419ZM287.589 540.26C286.896 540.26 286.237 540.173 285.613 540C285.007 539.809 284.443 539.549 283.923 539.22C283.403 538.873 282.953 538.466 282.571 537.998L284.079 536.49C284.53 537.045 285.05 537.461 285.639 537.738C286.229 537.998 286.887 538.128 287.615 538.128C288.343 538.128 288.907 538.007 289.305 537.764C289.704 537.504 289.903 537.149 289.903 536.698C289.903 536.247 289.739 535.901 289.409 535.658C289.097 535.398 288.69 535.19 288.187 535.034C287.685 534.861 287.147 534.696 286.575 534.54C286.021 534.367 285.492 534.15 284.989 533.89C284.487 533.63 284.071 533.275 283.741 532.824C283.429 532.373 283.273 531.775 283.273 531.03C283.273 530.285 283.455 529.643 283.819 529.106C284.183 528.551 284.686 528.127 285.327 527.832C285.986 527.537 286.775 527.39 287.693 527.39C288.664 527.39 289.522 527.563 290.267 527.91C291.03 528.239 291.654 528.742 292.139 529.418L290.631 530.926C290.285 530.475 289.851 530.129 289.331 529.886C288.829 529.643 288.257 529.522 287.615 529.522C286.939 529.522 286.419 529.643 286.055 529.886C285.709 530.111 285.535 530.432 285.535 530.848C285.535 531.264 285.691 531.585 286.003 531.81C286.315 532.035 286.723 532.226 287.225 532.382C287.745 532.538 288.283 532.703 288.837 532.876C289.392 533.032 289.921 533.249 290.423 533.526C290.926 533.803 291.333 534.176 291.645 534.644C291.975 535.112 292.139 535.727 292.139 536.49C292.139 537.651 291.723 538.57 290.891 539.246C290.077 539.922 288.976 540.26 287.589 540.26ZM294.785 540V527.65H297.125V540H294.785ZM295.955 525.18C295.522 525.18 295.166 525.041 294.889 524.764C294.612 524.469 294.473 524.105 294.473 523.672C294.473 523.256 294.612 522.909 294.889 522.632C295.166 522.337 295.522 522.19 295.955 522.19C296.388 522.19 296.744 522.337 297.021 522.632C297.298 522.909 297.437 523.256 297.437 523.672C297.437 524.105 297.298 524.469 297.021 524.764C296.744 525.041 296.388 525.18 295.955 525.18ZM305.695 545.434C304.43 545.434 303.303 545.2 302.315 544.732C301.345 544.264 300.565 543.605 299.975 542.756L301.483 541.222C301.986 541.863 302.584 542.349 303.277 542.678C303.971 543.025 304.794 543.198 305.747 543.198C307.013 543.198 308.009 542.86 308.737 542.184C309.483 541.525 309.855 540.633 309.855 539.506V536.438L310.271 533.656L309.855 530.9V527.65H312.195V539.506C312.195 540.685 311.918 541.716 311.363 542.6C310.826 543.484 310.063 544.177 309.075 544.68C308.105 545.183 306.978 545.434 305.695 545.434ZM305.695 539.792C304.569 539.792 303.555 539.523 302.653 538.986C301.769 538.449 301.067 537.712 300.547 536.776C300.027 535.823 299.767 534.757 299.767 533.578C299.767 532.399 300.027 531.351 300.547 530.432C301.067 529.496 301.769 528.759 302.653 528.222C303.555 527.667 304.569 527.39 305.695 527.39C306.666 527.39 307.524 527.581 308.269 527.962C309.015 528.343 309.604 528.881 310.037 529.574C310.488 530.25 310.731 531.047 310.765 531.966V535.242C310.713 536.143 310.462 536.941 310.011 537.634C309.578 538.31 308.989 538.839 308.243 539.22C307.498 539.601 306.649 539.792 305.695 539.792ZM306.163 537.582C306.926 537.582 307.593 537.417 308.165 537.088C308.755 536.759 309.205 536.299 309.517 535.71C309.829 535.103 309.985 534.401 309.985 533.604C309.985 532.807 309.821 532.113 309.491 531.524C309.179 530.917 308.737 530.449 308.165 530.12C307.593 529.773 306.917 529.6 306.137 529.6C305.357 529.6 304.673 529.773 304.083 530.12C303.494 530.449 303.026 530.917 302.679 531.524C302.35 532.113 302.185 532.798 302.185 533.578C302.185 534.358 302.35 535.051 302.679 535.658C303.026 536.265 303.494 536.741 304.083 537.088C304.69 537.417 305.383 537.582 306.163 537.582ZM324.366 540V532.798C324.366 531.862 324.071 531.091 323.482 530.484C322.893 529.877 322.13 529.574 321.194 529.574C320.57 529.574 320.015 529.713 319.53 529.99C319.045 530.267 318.663 530.649 318.386 531.134C318.109 531.619 317.97 532.174 317.97 532.798L317.008 532.252C317.008 531.316 317.216 530.484 317.632 529.756C318.048 529.028 318.629 528.456 319.374 528.04C320.119 527.607 320.96 527.39 321.896 527.39C322.832 527.39 323.655 527.598 324.366 528.014C325.094 528.43 325.666 529.011 326.082 529.756C326.498 530.501 326.706 531.359 326.706 532.33V540H324.366ZM315.63 540V521.436H317.97V540H315.63ZM331.62 540V522.476H333.96V540H331.62ZM328.578 529.782V527.65H337.002V529.782H328.578ZM344.728 540V527.65H347.068V540H344.728ZM345.898 525.18C345.465 525.18 345.11 525.041 344.832 524.764C344.555 524.469 344.416 524.105 344.416 523.672C344.416 523.256 344.555 522.909 344.832 522.632C345.11 522.337 345.465 522.19 345.898 522.19C346.332 522.19 346.687 522.337 346.964 522.632C347.242 522.909 347.38 523.256 347.38 523.672C347.38 524.105 347.242 524.469 346.964 524.764C346.687 525.041 346.332 525.18 345.898 525.18ZM359.253 540V532.798C359.253 531.862 358.958 531.091 358.369 530.484C357.779 529.877 357.017 529.574 356.081 529.574C355.457 529.574 354.902 529.713 354.417 529.99C353.931 530.267 353.55 530.649 353.273 531.134C352.995 531.619 352.857 532.174 352.857 532.798L351.895 532.252C351.895 531.316 352.103 530.484 352.519 529.756C352.935 529.028 353.515 528.456 354.261 528.04C355.006 527.607 355.847 527.39 356.783 527.39C357.719 527.39 358.542 527.624 359.253 528.092C359.981 528.56 360.553 529.175 360.969 529.938C361.385 530.683 361.593 531.481 361.593 532.33V540H359.253ZM350.517 540V527.65H352.857V540H350.517ZM366.507 540V522.476H368.847V540H366.507ZM363.465 529.782V527.65H371.889V529.782H363.465ZM379.442 540.26C378.229 540.26 377.137 539.974 376.166 539.402C375.195 538.83 374.424 538.059 373.852 537.088C373.28 536.1 372.994 534.999 372.994 533.786C372.994 532.59 373.28 531.515 373.852 530.562C374.424 529.591 375.195 528.82 376.166 528.248C377.137 527.676 378.229 527.39 379.442 527.39C380.638 527.39 381.721 527.676 382.692 528.248C383.68 528.803 384.46 529.565 385.032 530.536C385.604 531.507 385.89 532.59 385.89 533.786C385.89 534.999 385.604 536.1 385.032 537.088C384.46 538.059 383.68 538.83 382.692 539.402C381.721 539.974 380.638 540.26 379.442 540.26ZM379.442 537.998C380.222 537.998 380.915 537.816 381.522 537.452C382.129 537.088 382.605 536.594 382.952 535.97C383.299 535.329 383.472 534.601 383.472 533.786C383.472 532.989 383.29 532.278 382.926 531.654C382.579 531.03 382.103 530.545 381.496 530.198C380.907 529.834 380.222 529.652 379.442 529.652C378.662 529.652 377.969 529.834 377.362 530.198C376.755 530.545 376.279 531.03 375.932 531.654C375.585 532.278 375.412 532.989 375.412 533.786C375.412 534.601 375.585 535.329 375.932 535.97C376.279 536.594 376.755 537.088 377.362 537.452C377.969 537.816 378.662 537.998 379.442 537.998ZM264.614 573V555.476H266.954V573H264.614ZM261.572 562.782V560.65H269.996V562.782H261.572ZM281.024 573V565.798C281.024 564.862 280.73 564.091 280.14 563.484C279.551 562.877 278.788 562.574 277.852 562.574C277.228 562.574 276.674 562.713 276.188 562.99C275.703 563.267 275.322 563.649 275.044 564.134C274.767 564.619 274.628 565.174 274.628 565.798L273.666 565.252C273.666 564.316 273.874 563.484 274.29 562.756C274.706 562.028 275.287 561.456 276.032 561.04C276.778 560.607 277.618 560.39 278.554 560.39C279.49 560.39 280.314 560.598 281.024 561.014C281.752 561.43 282.324 562.011 282.74 562.756C283.156 563.501 283.364 564.359 283.364 565.33V573H281.024ZM272.288 573V554.436H274.628V573H272.288ZM292.252 573.26C291.022 573.26 289.912 572.983 288.924 572.428C287.936 571.856 287.156 571.085 286.584 570.114C286.012 569.143 285.726 568.043 285.726 566.812C285.726 565.599 286.004 564.507 286.558 563.536C287.13 562.565 287.893 561.803 288.846 561.248C289.817 560.676 290.9 560.39 292.096 560.39C293.24 560.39 294.246 560.65 295.112 561.17C295.996 561.69 296.681 562.409 297.166 563.328C297.669 564.247 297.92 565.287 297.92 566.448C297.92 566.621 297.912 566.812 297.894 567.02C297.877 567.211 297.842 567.436 297.79 567.696H287.364V565.746H296.542L295.684 566.5C295.684 565.668 295.537 564.966 295.242 564.394C294.948 563.805 294.532 563.354 293.994 563.042C293.457 562.713 292.807 562.548 292.044 562.548C291.247 562.548 290.545 562.721 289.938 563.068C289.332 563.415 288.864 563.9 288.534 564.524C288.205 565.148 288.04 565.885 288.04 566.734C288.04 567.601 288.214 568.363 288.56 569.022C288.907 569.663 289.401 570.166 290.042 570.53C290.684 570.877 291.42 571.05 292.252 571.05C292.946 571.05 293.578 570.929 294.15 570.686C294.74 570.443 295.242 570.079 295.658 569.594L297.166 571.128C296.577 571.821 295.849 572.35 294.982 572.714C294.133 573.078 293.223 573.26 292.252 573.26ZM312.38 573.26C311.444 573.26 310.595 573.069 309.832 572.688C309.087 572.289 308.489 571.743 308.038 571.05C307.587 570.357 307.336 569.568 307.284 568.684V564.966C307.336 564.065 307.587 563.276 308.038 562.6C308.506 561.907 309.113 561.369 309.858 560.988C310.621 560.589 311.461 560.39 312.38 560.39C313.507 560.39 314.521 560.676 315.422 561.248C316.341 561.82 317.06 562.591 317.58 563.562C318.1 564.533 318.36 565.625 318.36 566.838C318.36 568.051 318.1 569.143 317.58 570.114C317.06 571.085 316.341 571.856 315.422 572.428C314.521 572.983 313.507 573.26 312.38 573.26ZM311.99 571.05C312.77 571.05 313.455 570.868 314.044 570.504C314.633 570.14 315.101 569.646 315.448 569.022C315.795 568.381 315.968 567.644 315.968 566.812C315.968 565.997 315.795 565.269 315.448 564.628C315.101 563.987 314.633 563.493 314.044 563.146C313.455 562.782 312.779 562.6 312.016 562.6C311.236 562.6 310.551 562.782 309.962 563.146C309.373 563.493 308.913 563.987 308.584 564.628C308.255 565.269 308.09 566.006 308.09 566.838C308.09 567.653 308.246 568.381 308.558 569.022C308.887 569.646 309.347 570.14 309.936 570.504C310.543 570.868 311.227 571.05 311.99 571.05ZM305.88 578.174V560.65H308.22V563.9L307.778 566.89L308.22 569.906V578.174H305.88ZM321.013 573V560.65H323.353V573H321.013ZM323.353 565.954L322.469 565.564C322.469 563.987 322.833 562.73 323.561 561.794C324.289 560.858 325.338 560.39 326.707 560.39C327.331 560.39 327.894 560.503 328.397 560.728C328.9 560.936 329.368 561.291 329.801 561.794L328.267 563.38C328.007 563.103 327.721 562.903 327.409 562.782C327.097 562.661 326.733 562.6 326.317 562.6C325.45 562.6 324.74 562.877 324.185 563.432C323.63 563.987 323.353 564.827 323.353 565.954ZM336.684 573.26C335.471 573.26 334.379 572.974 333.408 572.402C332.438 571.83 331.666 571.059 331.094 570.088C330.522 569.1 330.236 567.999 330.236 566.786C330.236 565.59 330.522 564.515 331.094 563.562C331.666 562.591 332.438 561.82 333.408 561.248C334.379 560.676 335.471 560.39 336.684 560.39C337.88 560.39 338.964 560.676 339.934 561.248C340.922 561.803 341.702 562.565 342.274 563.536C342.846 564.507 343.132 565.59 343.132 566.786C343.132 567.999 342.846 569.1 342.274 570.088C341.702 571.059 340.922 571.83 339.934 572.402C338.964 572.974 337.88 573.26 336.684 573.26ZM336.684 570.998C337.464 570.998 338.158 570.816 338.764 570.452C339.371 570.088 339.848 569.594 340.194 568.97C340.541 568.329 340.714 567.601 340.714 566.786C340.714 565.989 340.532 565.278 340.168 564.654C339.822 564.03 339.345 563.545 338.738 563.198C338.149 562.834 337.464 562.652 336.684 562.652C335.904 562.652 335.211 562.834 334.604 563.198C333.998 563.545 333.521 564.03 333.174 564.654C332.828 565.278 332.654 565.989 332.654 566.786C332.654 567.601 332.828 568.329 333.174 568.97C333.521 569.594 333.998 570.088 334.604 570.452C335.211 570.816 335.904 570.998 336.684 570.998ZM352.269 573.26C351.333 573.26 350.483 573.069 349.721 572.688C348.975 572.289 348.377 571.743 347.927 571.05C347.476 570.357 347.225 569.568 347.173 568.684V564.966C347.225 564.065 347.476 563.276 347.927 562.6C348.395 561.907 349.001 561.369 349.747 560.988C350.509 560.589 351.35 560.39 352.269 560.39C353.395 560.39 354.409 560.676 355.311 561.248C356.229 561.82 356.949 562.591 357.469 563.562C357.989 564.533 358.249 565.625 358.249 566.838C358.249 568.051 357.989 569.143 357.469 570.114C356.949 571.085 356.229 571.856 355.311 572.428C354.409 572.983 353.395 573.26 352.269 573.26ZM351.879 571.05C352.659 571.05 353.343 570.868 353.933 570.504C354.522 570.14 354.99 569.646 355.337 569.022C355.683 568.381 355.857 567.644 355.857 566.812C355.857 565.997 355.683 565.269 355.337 564.628C354.99 563.987 354.522 563.493 353.933 563.146C353.343 562.782 352.667 562.6 351.905 562.6C351.125 562.6 350.44 562.782 349.851 563.146C349.261 563.493 348.802 563.987 348.473 564.628C348.143 565.269 347.979 566.006 347.979 566.838C347.979 567.653 348.135 568.381 348.447 569.022C348.776 569.646 349.235 570.14 349.825 570.504C350.431 570.868 351.116 571.05 351.879 571.05ZM345.769 573V554.436H348.109V563.666L347.667 566.656L348.109 569.672V573H345.769ZM360.902 573V554.436H363.242V573H360.902ZM372.385 573.26C371.155 573.26 370.045 572.983 369.057 572.428C368.069 571.856 367.289 571.085 366.717 570.114C366.145 569.143 365.859 568.043 365.859 566.812C365.859 565.599 366.137 564.507 366.691 563.536C367.263 562.565 368.026 561.803 368.979 561.248C369.95 560.676 371.033 560.39 372.229 560.39C373.373 560.39 374.379 560.65 375.245 561.17C376.129 561.69 376.814 562.409 377.299 563.328C377.802 564.247 378.053 565.287 378.053 566.448C378.053 566.621 378.045 566.812 378.027 567.02C378.01 567.211 377.975 567.436 377.923 567.696H367.497V565.746H376.675L375.817 566.5C375.817 565.668 375.67 564.966 375.375 564.394C375.081 563.805 374.665 563.354 374.127 563.042C373.59 562.713 372.94 562.548 372.177 562.548C371.38 562.548 370.678 562.721 370.071 563.068C369.465 563.415 368.997 563.9 368.667 564.524C368.338 565.148 368.173 565.885 368.173 566.734C368.173 567.601 368.347 568.363 368.693 569.022C369.04 569.663 369.534 570.166 370.175 570.53C370.817 570.877 371.553 571.05 372.385 571.05C373.079 571.05 373.711 570.929 374.283 570.686C374.873 570.443 375.375 570.079 375.791 569.594L377.299 571.128C376.71 571.821 375.982 572.35 375.115 572.714C374.266 573.078 373.356 573.26 372.385 573.26ZM380.605 573V560.65H382.945V573H380.605ZM388.951 573V565.538C388.951 564.619 388.665 563.9 388.093 563.38C387.538 562.843 386.836 562.574 385.987 562.574C385.415 562.574 384.903 562.695 384.453 562.938C384.002 563.181 383.638 563.519 383.361 563.952C383.083 564.385 382.945 564.905 382.945 565.512L381.983 565.044C381.983 564.108 382.182 563.293 382.581 562.6C382.997 561.907 383.56 561.369 384.271 560.988C384.981 560.589 385.779 560.39 386.663 560.39C387.529 560.39 388.309 560.581 389.003 560.962C389.713 561.343 390.268 561.881 390.667 562.574C391.083 563.267 391.291 564.091 391.291 565.044V573H388.951ZM397.297 573V565.538C397.297 564.619 397.011 563.9 396.439 563.38C395.884 562.843 395.191 562.574 394.359 562.574C393.787 562.574 393.267 562.695 392.799 562.938C392.348 563.181 391.984 563.519 391.707 563.952C391.429 564.385 391.291 564.905 391.291 565.512L389.965 565.044C390.017 564.091 390.268 563.276 390.719 562.6C391.187 561.907 391.785 561.369 392.513 560.988C393.241 560.589 394.038 560.39 394.905 560.39C395.806 560.39 396.612 560.581 397.323 560.962C398.033 561.343 398.597 561.881 399.013 562.574C399.446 563.267 399.663 564.099 399.663 565.07V573H397.297Z" fill="#FEFAE0" fill-opacity="0.3"/>
<path d="M646.15 89.26C644.729 89.26 643.515 89 642.51 88.48C641.505 87.96 640.612 87.206 639.832 86.218L641.496 84.554C642.068 85.3513 642.727 85.958 643.472 86.374C644.217 86.7727 645.136 86.972 646.228 86.972C647.303 86.972 648.161 86.738 648.802 86.27C649.461 85.802 649.79 85.1607 649.79 84.346C649.79 83.67 649.634 83.124 649.322 82.708C649.01 82.292 648.585 81.954 648.048 81.694C647.528 81.4167 646.956 81.174 646.332 80.966C645.708 80.7407 645.084 80.5067 644.46 80.264C643.836 80.004 643.264 79.692 642.744 79.328C642.224 78.9467 641.799 78.4527 641.47 77.846C641.158 77.2393 641.002 76.4767 641.002 75.558C641.002 74.5353 641.245 73.6687 641.73 72.958C642.233 72.23 642.909 71.6753 643.758 71.294C644.625 70.8953 645.595 70.696 646.67 70.696C647.849 70.696 648.906 70.93 649.842 71.398C650.778 71.8487 651.541 72.4467 652.13 73.192L650.466 74.856C649.929 74.232 649.348 73.764 648.724 73.452C648.117 73.14 647.415 72.984 646.618 72.984C645.647 72.984 644.876 73.2007 644.304 73.634C643.732 74.05 643.446 74.6393 643.446 75.402C643.446 76.0087 643.602 76.5027 643.914 76.884C644.243 77.248 644.668 77.56 645.188 77.82C645.708 78.08 646.28 78.3227 646.904 78.548C647.545 78.756 648.178 78.99 648.802 79.25C649.426 79.51 649.998 79.8393 650.518 80.238C651.038 80.6367 651.454 81.1567 651.766 81.798C652.095 82.422 652.26 83.2107 652.26 84.164C652.26 85.7587 651.705 87.0067 650.596 87.908C649.504 88.8093 648.022 89.26 646.15 89.26ZM660.602 89.26C659.389 89.26 658.288 88.974 657.3 88.402C656.329 87.83 655.558 87.0587 654.986 86.088C654.431 85.1 654.154 84.008 654.154 82.812C654.154 81.5987 654.431 80.5067 654.986 79.536C655.558 78.5653 656.329 77.8027 657.3 77.248C658.288 76.676 659.389 76.39 660.602 76.39C661.555 76.39 662.439 76.572 663.254 76.936C664.069 77.2827 664.771 77.794 665.36 78.47L663.8 80.03C663.419 79.5793 662.951 79.2413 662.396 79.016C661.859 78.7733 661.261 78.652 660.602 78.652C659.822 78.652 659.129 78.834 658.522 79.198C657.915 79.5447 657.439 80.03 657.092 80.654C656.745 81.278 656.572 81.9973 656.572 82.812C656.572 83.6267 656.745 84.346 657.092 84.97C657.439 85.594 657.915 86.088 658.522 86.452C659.129 86.816 659.822 86.998 660.602 86.998C661.261 86.998 661.859 86.8853 662.396 86.66C662.951 86.4173 663.427 86.0707 663.826 85.62L665.36 87.18C664.788 87.8387 664.086 88.35 663.254 88.714C662.439 89.078 661.555 89.26 660.602 89.26ZM673.069 89.26C671.856 89.26 670.764 88.974 669.793 88.402C668.822 87.83 668.051 87.0587 667.479 86.088C666.907 85.1 666.621 83.9993 666.621 82.786C666.621 81.59 666.907 80.5153 667.479 79.562C668.051 78.5913 668.822 77.82 669.793 77.248C670.764 76.676 671.856 76.39 673.069 76.39C674.265 76.39 675.348 76.676 676.319 77.248C677.307 77.8027 678.087 78.5653 678.659 79.536C679.231 80.5067 679.517 81.59 679.517 82.786C679.517 83.9993 679.231 85.1 678.659 86.088C678.087 87.0587 677.307 87.83 676.319 88.402C675.348 88.974 674.265 89.26 673.069 89.26ZM673.069 86.998C673.849 86.998 674.542 86.816 675.149 86.452C675.756 86.088 676.232 85.594 676.579 84.97C676.926 84.3287 677.099 83.6007 677.099 82.786C677.099 81.9887 676.917 81.278 676.553 80.654C676.206 80.03 675.73 79.5447 675.123 79.198C674.534 78.834 673.849 78.652 673.069 78.652C672.289 78.652 671.596 78.834 670.989 79.198C670.382 79.5447 669.906 80.03 669.559 80.654C669.212 81.278 669.039 81.9887 669.039 82.786C669.039 83.6007 669.212 84.3287 669.559 84.97C669.906 85.594 670.382 86.088 670.989 86.452C671.596 86.816 672.289 86.998 673.069 86.998ZM688.654 89.26C687.718 89.26 686.868 89.0693 686.106 88.688C685.36 88.2893 684.762 87.7433 684.312 87.05C683.861 86.3567 683.61 85.568 683.558 84.684V80.966C683.61 80.0647 683.861 79.276 684.312 78.6C684.78 77.9067 685.386 77.3693 686.132 76.988C686.894 76.5893 687.735 76.39 688.654 76.39C689.78 76.39 690.794 76.676 691.696 77.248C692.614 77.82 693.334 78.5913 693.854 79.562C694.374 80.5327 694.634 81.6247 694.634 82.838C694.634 84.0513 694.374 85.1433 693.854 86.114C693.334 87.0847 692.614 87.856 691.696 88.428C690.794 88.9827 689.78 89.26 688.654 89.26ZM688.264 87.05C689.044 87.05 689.728 86.868 690.318 86.504C690.907 86.14 691.375 85.646 691.722 85.022C692.068 84.3807 692.242 83.644 692.242 82.812C692.242 81.9973 692.068 81.2693 691.722 80.628C691.375 79.9867 690.907 79.4927 690.318 79.146C689.728 78.782 689.052 78.6 688.29 78.6C687.51 78.6 686.825 78.782 686.236 79.146C685.646 79.4927 685.187 79.9867 684.858 80.628C684.528 81.2693 684.364 82.006 684.364 82.838C684.364 83.6527 684.52 84.3807 684.832 85.022C685.161 85.646 685.62 86.14 686.21 86.504C686.816 86.868 687.501 87.05 688.264 87.05ZM682.153 94.174V76.65H684.494V79.9L684.052 82.89L684.494 85.906V94.174H682.153ZM703.006 89.26C701.776 89.26 700.666 88.9827 699.678 88.428C698.69 87.856 697.91 87.0847 697.338 86.114C696.766 85.1433 696.48 84.0427 696.48 82.812C696.48 81.5987 696.758 80.5067 697.312 79.536C697.884 78.5653 698.647 77.8027 699.6 77.248C700.571 76.676 701.654 76.39 702.85 76.39C703.994 76.39 705 76.65 705.866 77.17C706.75 77.69 707.435 78.4093 707.92 79.328C708.423 80.2467 708.674 81.2867 708.674 82.448C708.674 82.6213 708.666 82.812 708.648 83.02C708.631 83.2107 708.596 83.436 708.544 83.696H698.118V81.746H707.296L706.438 82.5C706.438 81.668 706.291 80.966 705.996 80.394C705.702 79.8047 705.286 79.354 704.748 79.042C704.211 78.7127 703.561 78.548 702.798 78.548C702.001 78.548 701.299 78.7213 700.692 79.068C700.086 79.4147 699.618 79.9 699.288 80.524C698.959 81.148 698.794 81.8847 698.794 82.734C698.794 83.6007 698.968 84.3633 699.314 85.022C699.661 85.6633 700.155 86.166 700.796 86.53C701.438 86.8767 702.174 87.05 703.006 87.05C703.7 87.05 704.332 86.9287 704.904 86.686C705.494 86.4433 705.996 86.0793 706.412 85.594L707.92 87.128C707.331 87.8213 706.603 88.35 705.736 88.714C704.887 89.078 703.977 89.26 703.006 89.26ZM721.86 89.26C720.716 89.26 719.693 88.9827 718.792 88.428C717.891 87.856 717.171 87.0847 716.634 86.114C716.114 85.1433 715.854 84.0513 715.854 82.838C715.854 81.6247 716.114 80.5327 716.634 79.562C717.171 78.5913 717.891 77.82 718.792 77.248C719.693 76.676 720.716 76.39 721.86 76.39C722.779 76.39 723.611 76.5893 724.356 76.988C725.101 77.3693 725.699 77.9067 726.15 78.6C726.618 79.276 726.878 80.0647 726.93 80.966V84.684C726.878 85.568 726.627 86.3567 726.176 87.05C725.725 87.7433 725.127 88.2893 724.382 88.688C723.637 89.0693 722.796 89.26 721.86 89.26ZM722.25 87.05C723.03 87.05 723.706 86.868 724.278 86.504C724.867 86.14 725.327 85.646 725.656 85.022C725.985 84.3807 726.15 83.6527 726.15 82.838C726.15 81.9887 725.977 81.252 725.63 80.628C725.301 80.004 724.841 79.51 724.252 79.146C723.68 78.782 723.004 78.6 722.224 78.6C721.444 78.6 720.759 78.782 720.17 79.146C719.581 79.51 719.113 80.0127 718.766 80.654C718.437 81.278 718.272 81.9973 718.272 82.812C718.272 83.644 718.437 84.3807 718.766 85.022C719.113 85.646 719.581 86.14 720.17 86.504C720.777 86.868 721.47 87.05 722.25 87.05ZM728.36 89H725.994V85.672L726.436 82.656L725.994 79.666V70.436H728.36V89ZM737.409 89.26C736.195 89.26 735.103 88.974 734.133 88.402C733.162 87.83 732.391 87.0587 731.819 86.088C731.247 85.1 730.961 83.9993 730.961 82.786C730.961 81.59 731.247 80.5153 731.819 79.562C732.391 78.5913 733.162 77.82 734.133 77.248C735.103 76.676 736.195 76.39 737.409 76.39C738.605 76.39 739.688 76.676 740.659 77.248C741.647 77.8027 742.427 78.5653 742.999 79.536C743.571 80.5067 743.857 81.59 743.857 82.786C743.857 83.9993 743.571 85.1 742.999 86.088C742.427 87.0587 741.647 87.83 740.659 88.402C739.688 88.974 738.605 89.26 737.409 89.26ZM737.409 86.998C738.189 86.998 738.882 86.816 739.489 86.452C740.095 86.088 740.572 85.594 740.919 84.97C741.265 84.3287 741.439 83.6007 741.439 82.786C741.439 81.9887 741.257 81.278 740.893 80.654C740.546 80.03 740.069 79.5447 739.463 79.198C738.873 78.834 738.189 78.652 737.409 78.652C736.629 78.652 735.935 78.834 735.329 79.198C734.722 79.5447 734.245 80.03 733.899 80.654C733.552 81.278 733.379 81.9887 733.379 82.786C733.379 83.6007 733.552 84.3287 733.899 84.97C734.245 85.594 734.722 86.088 735.329 86.452C735.935 86.816 736.629 86.998 737.409 86.998ZM749.674 89L744.786 76.65H747.23L750.766 86.27H749.986L753.496 76.65H754.848L758.358 86.27H757.578L761.114 76.65H763.558L758.696 89H757.318L753.756 79.666H754.614L751.026 89H749.674ZM774.374 89V81.798C774.374 80.862 774.079 80.0907 773.49 79.484C772.901 78.8773 772.138 78.574 771.202 78.574C770.578 78.574 770.023 78.7127 769.538 78.99C769.053 79.2673 768.671 79.6487 768.394 80.134C768.117 80.6193 767.978 81.174 767.978 81.798L767.016 81.252C767.016 80.316 767.224 79.484 767.64 78.756C768.056 78.028 768.637 77.456 769.382 77.04C770.127 76.6067 770.968 76.39 771.904 76.39C772.84 76.39 773.663 76.624 774.374 77.092C775.102 77.56 775.674 78.1753 776.09 78.938C776.506 79.6833 776.714 80.4807 776.714 81.33V89H774.374ZM765.638 89V76.65H767.978V89H765.638ZM642.614 122V104.476H644.954V122H642.614ZM639.572 111.782V109.65H647.996V111.782H639.572ZM659.024 122V114.798C659.024 113.862 658.73 113.091 658.14 112.484C657.551 111.877 656.788 111.574 655.852 111.574C655.228 111.574 654.674 111.713 654.188 111.99C653.703 112.267 653.322 112.649 653.044 113.134C652.767 113.619 652.628 114.174 652.628 114.798L651.666 114.252C651.666 113.316 651.874 112.484 652.29 111.756C652.706 111.028 653.287 110.456 654.032 110.04C654.778 109.607 655.618 109.39 656.554 109.39C657.49 109.39 658.314 109.598 659.024 110.014C659.752 110.43 660.324 111.011 660.74 111.756C661.156 112.501 661.364 113.359 661.364 114.33V122H659.024ZM650.288 122V103.436H652.628V122H650.288ZM670.252 122.26C669.022 122.26 667.912 121.983 666.924 121.428C665.936 120.856 665.156 120.085 664.584 119.114C664.012 118.143 663.726 117.043 663.726 115.812C663.726 114.599 664.004 113.507 664.558 112.536C665.13 111.565 665.893 110.803 666.846 110.248C667.817 109.676 668.9 109.39 670.096 109.39C671.24 109.39 672.246 109.65 673.112 110.17C673.996 110.69 674.681 111.409 675.166 112.328C675.669 113.247 675.92 114.287 675.92 115.448C675.92 115.621 675.912 115.812 675.894 116.02C675.877 116.211 675.842 116.436 675.79 116.696H665.364V114.746H674.542L673.684 115.5C673.684 114.668 673.537 113.966 673.242 113.394C672.948 112.805 672.532 112.354 671.994 112.042C671.457 111.713 670.807 111.548 670.044 111.548C669.247 111.548 668.545 111.721 667.938 112.068C667.332 112.415 666.864 112.9 666.534 113.524C666.205 114.148 666.04 114.885 666.04 115.734C666.04 116.601 666.214 117.363 666.56 118.022C666.907 118.663 667.401 119.166 668.042 119.53C668.684 119.877 669.42 120.05 670.252 120.05C670.946 120.05 671.578 119.929 672.15 119.686C672.74 119.443 673.242 119.079 673.658 118.594L675.166 120.128C674.577 120.821 673.849 121.35 672.982 121.714C672.133 122.078 671.223 122.26 670.252 122.26ZM685.648 122V107.804C685.648 106.885 685.847 106.088 686.246 105.412C686.645 104.719 687.191 104.173 687.884 103.774C688.595 103.375 689.418 103.176 690.354 103.176C691.065 103.176 691.68 103.297 692.2 103.54C692.72 103.783 693.197 104.138 693.63 104.606L692.096 106.114C691.871 105.871 691.619 105.689 691.342 105.568C691.065 105.429 690.727 105.36 690.328 105.36C689.583 105.36 689.002 105.577 688.586 106.01C688.187 106.443 687.988 107.041 687.988 107.804V122H685.648ZM682.606 111.782V109.65H691.914V111.782H682.606ZM699.196 122.26C697.983 122.26 696.891 121.974 695.92 121.402C694.949 120.83 694.178 120.059 693.606 119.088C693.034 118.1 692.748 116.999 692.748 115.786C692.748 114.59 693.034 113.515 693.606 112.562C694.178 111.591 694.949 110.82 695.92 110.248C696.891 109.676 697.983 109.39 699.196 109.39C700.392 109.39 701.475 109.676 702.446 110.248C703.434 110.803 704.214 111.565 704.786 112.536C705.358 113.507 705.644 114.59 705.644 115.786C705.644 116.999 705.358 118.1 704.786 119.088C704.214 120.059 703.434 120.83 702.446 121.402C701.475 121.974 700.392 122.26 699.196 122.26ZM699.196 119.998C699.976 119.998 700.669 119.816 701.276 119.452C701.883 119.088 702.359 118.594 702.706 117.97C703.053 117.329 703.226 116.601 703.226 115.786C703.226 114.989 703.044 114.278 702.68 113.654C702.333 113.03 701.857 112.545 701.25 112.198C700.661 111.834 699.976 111.652 699.196 111.652C698.416 111.652 697.723 111.834 697.116 112.198C696.509 112.545 696.033 113.03 695.686 113.654C695.339 114.278 695.166 114.989 695.166 115.786C695.166 116.601 695.339 117.329 695.686 117.97C696.033 118.594 696.509 119.088 697.116 119.452C697.723 119.816 698.416 119.998 699.196 119.998ZM713.922 122.26C712.709 122.26 711.608 121.974 710.62 121.402C709.65 120.83 708.878 120.059 708.306 119.088C707.752 118.1 707.474 117.008 707.474 115.812C707.474 114.599 707.752 113.507 708.306 112.536C708.878 111.565 709.65 110.803 710.62 110.248C711.608 109.676 712.709 109.39 713.922 109.39C714.876 109.39 715.76 109.572 716.574 109.936C717.389 110.283 718.091 110.794 718.68 111.47L717.12 113.03C716.739 112.579 716.271 112.241 715.716 112.016C715.179 111.773 714.581 111.652 713.922 111.652C713.142 111.652 712.449 111.834 711.842 112.198C711.236 112.545 710.759 113.03 710.412 113.654C710.066 114.278 709.892 114.997 709.892 115.812C709.892 116.627 710.066 117.346 710.412 117.97C710.759 118.594 711.236 119.088 711.842 119.452C712.449 119.816 713.142 119.998 713.922 119.998C714.581 119.998 715.179 119.885 715.716 119.66C716.271 119.417 716.748 119.071 717.146 118.62L718.68 120.18C718.108 120.839 717.406 121.35 716.574 121.714C715.76 122.078 714.876 122.26 713.922 122.26ZM725.967 122.26C724.962 122.26 724.052 122.035 723.237 121.584C722.44 121.116 721.816 120.475 721.365 119.66C720.914 118.845 720.689 117.901 720.689 116.826V109.65H723.029V116.722C723.029 117.398 723.142 117.987 723.367 118.49C723.61 118.975 723.956 119.348 724.407 119.608C724.858 119.868 725.386 119.998 725.993 119.998C726.912 119.998 727.631 119.712 728.151 119.14C728.671 118.551 728.931 117.745 728.931 116.722V109.65H731.271V116.826C731.271 117.901 731.046 118.845 730.595 119.66C730.144 120.475 729.52 121.116 728.723 121.584C727.943 122.035 727.024 122.26 725.967 122.26ZM738.333 122.26C737.64 122.26 736.981 122.173 736.357 122C735.751 121.809 735.187 121.549 734.667 121.22C734.147 120.873 733.697 120.466 733.315 119.998L734.823 118.49C735.274 119.045 735.794 119.461 736.383 119.738C736.973 119.998 737.631 120.128 738.359 120.128C739.087 120.128 739.651 120.007 740.049 119.764C740.448 119.504 740.647 119.149 740.647 118.698C740.647 118.247 740.483 117.901 740.153 117.658C739.841 117.398 739.434 117.19 738.931 117.034C738.429 116.861 737.891 116.696 737.319 116.54C736.765 116.367 736.236 116.15 735.733 115.89C735.231 115.63 734.815 115.275 734.485 114.824C734.173 114.373 734.017 113.775 734.017 113.03C734.017 112.285 734.199 111.643 734.563 111.106C734.927 110.551 735.43 110.127 736.071 109.832C736.73 109.537 737.519 109.39 738.437 109.39C739.408 109.39 740.266 109.563 741.011 109.91C741.774 110.239 742.398 110.742 742.883 111.418L741.375 112.926C741.029 112.475 740.595 112.129 740.075 111.886C739.573 111.643 739.001 111.522 738.359 111.522C737.683 111.522 737.163 111.643 736.799 111.886C736.453 112.111 736.279 112.432 736.279 112.848C736.279 113.264 736.435 113.585 736.747 113.81C737.059 114.035 737.467 114.226 737.969 114.382C738.489 114.538 739.027 114.703 739.581 114.876C740.136 115.032 740.665 115.249 741.167 115.526C741.67 115.803 742.077 116.176 742.389 116.644C742.719 117.112 742.883 117.727 742.883 118.49C742.883 119.651 742.467 120.57 741.635 121.246C740.821 121.922 739.72 122.26 738.333 122.26Z" fill="#FEFAE0" fill-opacity="0.3"/>
<path d="M907.77 532.98V530.848H912.684C913.36 530.848 913.958 530.709 914.478 530.432C915.015 530.155 915.431 529.765 915.726 529.262C916.038 528.759 916.194 528.161 916.194 527.468C916.194 526.775 916.038 526.177 915.726 525.674C915.431 525.171 915.015 524.781 914.478 524.504C913.958 524.227 913.36 524.088 912.684 524.088H907.77V521.956H912.84C913.949 521.956 914.937 522.181 915.804 522.632C916.688 523.083 917.381 523.724 917.884 524.556C918.404 525.371 918.664 526.341 918.664 527.468C918.664 528.577 918.404 529.548 917.884 530.38C917.381 531.195 916.688 531.836 915.804 532.304C914.937 532.755 913.949 532.98 912.84 532.98H907.77ZM906.132 540V521.956H908.576V540H906.132ZM926.415 540.26C925.201 540.26 924.109 539.974 923.139 539.402C922.168 538.83 921.397 538.059 920.825 537.088C920.253 536.1 919.967 534.999 919.967 533.786C919.967 532.59 920.253 531.515 920.825 530.562C921.397 529.591 922.168 528.82 923.139 528.248C924.109 527.676 925.201 527.39 926.415 527.39C927.611 527.39 928.694 527.676 929.665 528.248C930.653 528.803 931.433 529.565 932.005 530.536C932.577 531.507 932.863 532.59 932.863 533.786C932.863 534.999 932.577 536.1 932.005 537.088C931.433 538.059 930.653 538.83 929.665 539.402C928.694 539.974 927.611 540.26 926.415 540.26ZM926.415 537.998C927.195 537.998 927.888 537.816 928.495 537.452C929.101 537.088 929.578 536.594 929.925 535.97C930.271 535.329 930.445 534.601 930.445 533.786C930.445 532.989 930.263 532.278 929.899 531.654C929.552 531.03 929.075 530.545 928.469 530.198C927.879 529.834 927.195 529.652 926.415 529.652C925.635 529.652 924.941 529.834 924.335 530.198C923.728 530.545 923.251 531.03 922.905 531.654C922.558 532.278 922.385 532.989 922.385 533.786C922.385 534.601 922.558 535.329 922.905 535.97C923.251 536.594 923.728 537.088 924.335 537.452C924.941 537.816 925.635 537.998 926.415 537.998ZM937.016 540V522.476H939.356V540H937.016ZM933.974 529.782V527.65H942.398V529.782H933.974ZM950.03 540.26C948.799 540.26 947.69 539.983 946.702 539.428C945.714 538.856 944.934 538.085 944.362 537.114C943.79 536.143 943.504 535.043 943.504 533.812C943.504 532.599 943.781 531.507 944.336 530.536C944.908 529.565 945.67 528.803 946.624 528.248C947.594 527.676 948.678 527.39 949.874 527.39C951.018 527.39 952.023 527.65 952.89 528.17C953.774 528.69 954.458 529.409 954.944 530.328C955.446 531.247 955.698 532.287 955.698 533.448C955.698 533.621 955.689 533.812 955.672 534.02C955.654 534.211 955.62 534.436 955.568 534.696H945.142V532.746H954.32L953.462 533.5C953.462 532.668 953.314 531.966 953.02 531.394C952.725 530.805 952.309 530.354 951.772 530.042C951.234 529.713 950.584 529.548 949.822 529.548C949.024 529.548 948.322 529.721 947.716 530.068C947.109 530.415 946.641 530.9 946.312 531.524C945.982 532.148 945.818 532.885 945.818 533.734C945.818 534.601 945.991 535.363 946.338 536.022C946.684 536.663 947.178 537.166 947.82 537.53C948.461 537.877 949.198 538.05 950.03 538.05C950.723 538.05 951.356 537.929 951.928 537.686C952.517 537.443 953.02 537.079 953.436 536.594L954.944 538.128C954.354 538.821 953.626 539.35 952.76 539.714C951.91 540.078 951 540.26 950.03 540.26ZM966.985 540V532.798C966.985 531.862 966.691 531.091 966.101 530.484C965.512 529.877 964.749 529.574 963.813 529.574C963.189 529.574 962.635 529.713 962.149 529.99C961.664 530.267 961.283 530.649 961.005 531.134C960.728 531.619 960.589 532.174 960.589 532.798L959.627 532.252C959.627 531.316 959.835 530.484 960.251 529.756C960.667 529.028 961.248 528.456 961.993 528.04C962.739 527.607 963.579 527.39 964.515 527.39C965.451 527.39 966.275 527.624 966.985 528.092C967.713 528.56 968.285 529.175 968.701 529.938C969.117 530.683 969.325 531.481 969.325 532.33V540H966.985ZM958.249 540V527.65H960.589V540H958.249ZM974.239 540V522.476H976.579V540H974.239ZM971.197 529.782V527.65H979.621V529.782H971.197ZM981.939 540V527.65H984.279V540H981.939ZM983.109 525.18C982.676 525.18 982.321 525.041 982.043 524.764C981.766 524.469 981.627 524.105 981.627 523.672C981.627 523.256 981.766 522.909 982.043 522.632C982.321 522.337 982.676 522.19 983.109 522.19C983.543 522.19 983.898 522.337 984.175 522.632C984.453 522.909 984.591 523.256 984.591 523.672C984.591 524.105 984.453 524.469 984.175 524.764C983.898 525.041 983.543 525.18 983.109 525.18ZM992.98 540.26C991.853 540.26 990.83 539.983 989.912 539.428C988.993 538.856 988.265 538.085 987.728 537.114C987.208 536.143 986.948 535.051 986.948 533.838C986.948 532.625 987.208 531.533 987.728 530.562C988.265 529.591 988.984 528.82 989.886 528.248C990.804 527.676 991.836 527.39 992.98 527.39C993.916 527.39 994.748 527.589 995.476 527.988C996.221 528.369 996.819 528.907 997.27 529.6C997.72 530.276 997.972 531.065 998.024 531.966V535.684C997.972 536.568 997.72 537.357 997.27 538.05C996.836 538.743 996.247 539.289 995.502 539.688C994.774 540.069 993.933 540.26 992.98 540.26ZM993.37 538.05C994.531 538.05 995.467 537.66 996.178 536.88C996.888 536.083 997.244 535.069 997.244 533.838C997.244 532.989 997.079 532.252 996.75 531.628C996.438 530.987 995.987 530.493 995.398 530.146C994.808 529.782 994.124 529.6 993.344 529.6C992.564 529.6 991.87 529.782 991.264 530.146C990.674 530.51 990.206 531.013 989.86 531.654C989.53 532.278 989.366 532.997 989.366 533.812C989.366 534.644 989.53 535.381 989.86 536.022C990.206 536.646 990.683 537.14 991.29 537.504C991.896 537.868 992.59 538.05 993.37 538.05ZM997.088 540V536.672L997.53 533.656L997.088 530.666V527.65H999.454V540H997.088ZM1002.86 540V521.436H1005.2V540H1002.86ZM909.642 573.26C908.949 573.26 908.29 573.173 907.666 573C907.059 572.809 906.496 572.549 905.976 572.22C905.456 571.873 905.005 571.466 904.624 570.998L906.132 569.49C906.583 570.045 907.103 570.461 907.692 570.738C908.281 570.998 908.94 571.128 909.668 571.128C910.396 571.128 910.959 571.007 911.358 570.764C911.757 570.504 911.956 570.149 911.956 569.698C911.956 569.247 911.791 568.901 911.462 568.658C911.15 568.398 910.743 568.19 910.24 568.034C909.737 567.861 909.2 567.696 908.628 567.54C908.073 567.367 907.545 567.15 907.042 566.89C906.539 566.63 906.123 566.275 905.794 565.824C905.482 565.373 905.326 564.775 905.326 564.03C905.326 563.285 905.508 562.643 905.872 562.106C906.236 561.551 906.739 561.127 907.38 560.832C908.039 560.537 908.827 560.39 909.746 560.39C910.717 560.39 911.575 560.563 912.32 560.91C913.083 561.239 913.707 561.742 914.192 562.418L912.684 563.926C912.337 563.475 911.904 563.129 911.384 562.886C910.881 562.643 910.309 562.522 909.668 562.522C908.992 562.522 908.472 562.643 908.108 562.886C907.761 563.111 907.588 563.432 907.588 563.848C907.588 564.264 907.744 564.585 908.056 564.81C908.368 565.035 908.775 565.226 909.278 565.382C909.798 565.538 910.335 565.703 910.89 565.876C911.445 566.032 911.973 566.249 912.476 566.526C912.979 566.803 913.386 567.176 913.698 567.644C914.027 568.112 914.192 568.727 914.192 569.49C914.192 570.651 913.776 571.57 912.944 572.246C912.129 572.922 911.029 573.26 909.642 573.26ZM922.454 573.26C921.24 573.26 920.148 572.974 919.178 572.402C918.207 571.83 917.436 571.059 916.864 570.088C916.292 569.1 916.006 567.999 916.006 566.786C916.006 565.59 916.292 564.515 916.864 563.562C917.436 562.591 918.207 561.82 919.178 561.248C920.148 560.676 921.24 560.39 922.454 560.39C923.65 560.39 924.733 560.676 925.704 561.248C926.692 561.803 927.472 562.565 928.044 563.536C928.616 564.507 928.902 565.59 928.902 566.786C928.902 567.999 928.616 569.1 928.044 570.088C927.472 571.059 926.692 571.83 925.704 572.402C924.733 572.974 923.65 573.26 922.454 573.26ZM922.454 570.998C923.234 570.998 923.927 570.816 924.534 570.452C925.14 570.088 925.617 569.594 925.964 568.97C926.31 568.329 926.484 567.601 926.484 566.786C926.484 565.989 926.302 565.278 925.938 564.654C925.591 564.03 925.114 563.545 924.508 563.198C923.918 562.834 923.234 562.652 922.454 562.652C921.674 562.652 920.98 562.834 920.374 563.198C919.767 563.545 919.29 564.03 918.944 564.654C918.597 565.278 918.424 565.989 918.424 566.786C918.424 567.601 918.597 568.329 918.944 568.97C919.29 569.594 919.767 570.088 920.374 570.452C920.98 570.816 921.674 570.998 922.454 570.998ZM931.538 573V554.436H933.878V573H931.538ZM942.268 573.26C941.263 573.26 940.353 573.035 939.538 572.584C938.741 572.116 938.117 571.475 937.666 570.66C937.215 569.845 936.99 568.901 936.99 567.826V560.65H939.33V567.722C939.33 568.398 939.443 568.987 939.668 569.49C939.911 569.975 940.257 570.348 940.708 570.608C941.159 570.868 941.687 570.998 942.294 570.998C943.213 570.998 943.932 570.712 944.452 570.14C944.972 569.551 945.232 568.745 945.232 567.722V560.65H947.572V567.826C947.572 568.901 947.347 569.845 946.896 570.66C946.445 571.475 945.821 572.116 945.024 572.584C944.244 573.035 943.325 573.26 942.268 573.26ZM952.606 573V555.476H954.946V573H952.606ZM949.564 562.782V560.65H957.988V562.782H949.564ZM960.306 573V560.65H962.646V573H960.306ZM961.476 558.18C961.043 558.18 960.688 558.041 960.41 557.764C960.133 557.469 959.994 557.105 959.994 556.672C959.994 556.256 960.133 555.909 960.41 555.632C960.688 555.337 961.043 555.19 961.476 555.19C961.91 555.19 962.265 555.337 962.542 555.632C962.82 555.909 962.958 556.256 962.958 556.672C962.958 557.105 962.82 557.469 962.542 557.764C962.265 558.041 961.91 558.18 961.476 558.18ZM971.737 573.26C970.524 573.26 969.432 572.974 968.461 572.402C967.49 571.83 966.719 571.059 966.147 570.088C965.575 569.1 965.289 567.999 965.289 566.786C965.289 565.59 965.575 564.515 966.147 563.562C966.719 562.591 967.49 561.82 968.461 561.248C969.432 560.676 970.524 560.39 971.737 560.39C972.933 560.39 974.016 560.676 974.987 561.248C975.975 561.803 976.755 562.565 977.327 563.536C977.899 564.507 978.185 565.59 978.185 566.786C978.185 567.999 977.899 569.1 977.327 570.088C976.755 571.059 975.975 571.83 974.987 572.402C974.016 572.974 972.933 573.26 971.737 573.26ZM971.737 570.998C972.517 570.998 973.21 570.816 973.817 570.452C974.424 570.088 974.9 569.594 975.247 568.97C975.594 568.329 975.767 567.601 975.767 566.786C975.767 565.989 975.585 565.278 975.221 564.654C974.874 564.03 974.398 563.545 973.791 563.198C973.202 562.834 972.517 562.652 971.737 562.652C970.957 562.652 970.264 562.834 969.657 563.198C969.05 563.545 968.574 564.03 968.227 564.654C967.88 565.278 967.707 565.989 967.707 566.786C967.707 567.601 967.88 568.329 968.227 568.97C968.574 569.594 969.05 570.088 969.657 570.452C970.264 570.816 970.957 570.998 971.737 570.998ZM989.557 573V565.798C989.557 564.862 989.263 564.091 988.673 563.484C988.084 562.877 987.321 562.574 986.385 562.574C985.761 562.574 985.207 562.713 984.721 562.99C984.236 563.267 983.855 563.649 983.577 564.134C983.3 564.619 983.161 565.174 983.161 565.798L982.199 565.252C982.199 564.316 982.407 563.484 982.823 562.756C983.239 562.028 983.82 561.456 984.565 561.04C985.311 560.607 986.151 560.39 987.087 560.39C988.023 560.39 988.847 560.624 989.557 561.092C990.285 561.56 990.857 562.175 991.273 562.938C991.689 563.683 991.897 564.481 991.897 565.33V573H989.557ZM980.821 573V560.65H983.161V573H980.821ZM998.992 573.26C998.298 573.26 997.64 573.173 997.016 573C996.409 572.809 995.846 572.549 995.326 572.22C994.806 571.873 994.355 571.466 993.974 570.998L995.482 569.49C995.932 570.045 996.452 570.461 997.042 570.738C997.631 570.998 998.29 571.128 999.018 571.128C999.746 571.128 1000.31 571.007 1000.71 570.764C1001.11 570.504 1001.31 570.149 1001.31 569.698C1001.31 569.247 1001.14 568.901 1000.81 568.658C1000.5 568.398 1000.09 568.19 999.59 568.034C999.087 567.861 998.55 567.696 997.978 567.54C997.423 567.367 996.894 567.15 996.392 566.89C995.889 566.63 995.473 566.275 995.144 565.824C994.832 565.373 994.676 564.775 994.676 564.03C994.676 563.285 994.858 562.643 995.222 562.106C995.586 561.551 996.088 561.127 996.73 560.832C997.388 560.537 998.177 560.39 999.096 560.39C1000.07 560.39 1000.92 560.563 1001.67 560.91C1002.43 561.239 1003.06 561.742 1003.54 562.418L1002.03 563.926C1001.69 563.475 1001.25 563.129 1000.73 562.886C1000.23 562.643 999.659 562.522 999.018 562.522C998.342 562.522 997.822 562.643 997.458 562.886C997.111 563.111 996.938 563.432 996.938 563.848C996.938 564.264 997.094 564.585 997.406 564.81C997.718 565.035 998.125 565.226 998.628 565.382C999.148 565.538 999.685 565.703 1000.24 565.876C1000.79 566.032 1001.32 566.249 1001.83 566.526C1002.33 566.803 1002.74 567.176 1003.05 567.644C1003.38 568.112 1003.54 568.727 1003.54 569.49C1003.54 570.651 1003.13 571.57 1002.29 572.246C1001.48 572.922 1000.38 573.26 998.992 573.26Z" fill="#FEFAE0" fill-opacity="0.3"/>
<path d="M1251.15 96.26C1249.73 96.26 1248.52 96 1247.51 95.48C1246.5 94.96 1245.61 94.206 1244.83 93.218L1246.5 91.554C1247.07 92.3513 1247.73 92.958 1248.47 93.374C1249.22 93.7727 1250.14 93.972 1251.23 93.972C1252.3 93.972 1253.16 93.738 1253.8 93.27C1254.46 92.802 1254.79 92.1607 1254.79 91.346C1254.79 90.67 1254.63 90.124 1254.32 89.708C1254.01 89.292 1253.59 88.954 1253.05 88.694C1252.53 88.4167 1251.96 88.174 1251.33 87.966C1250.71 87.7407 1250.08 87.5067 1249.46 87.264C1248.84 87.004 1248.26 86.692 1247.74 86.328C1247.22 85.9467 1246.8 85.4527 1246.47 84.846C1246.16 84.2393 1246 83.4767 1246 82.558C1246 81.5353 1246.24 80.6687 1246.73 79.958C1247.23 79.23 1247.91 78.6753 1248.76 78.294C1249.62 77.8953 1250.6 77.696 1251.67 77.696C1252.85 77.696 1253.91 77.93 1254.84 78.398C1255.78 78.8487 1256.54 79.4467 1257.13 80.192L1255.47 81.856C1254.93 81.232 1254.35 80.764 1253.72 80.452C1253.12 80.14 1252.42 79.984 1251.62 79.984C1250.65 79.984 1249.88 80.2007 1249.3 80.634C1248.73 81.05 1248.45 81.6393 1248.45 82.402C1248.45 83.0087 1248.6 83.5027 1248.91 83.884C1249.24 84.248 1249.67 84.56 1250.19 84.82C1250.71 85.08 1251.28 85.3227 1251.9 85.548C1252.55 85.756 1253.18 85.99 1253.8 86.25C1254.43 86.51 1255 86.8393 1255.52 87.238C1256.04 87.6367 1256.45 88.1567 1256.77 88.798C1257.1 89.422 1257.26 90.2107 1257.26 91.164C1257.26 92.7587 1256.71 94.0067 1255.6 94.908C1254.5 95.8093 1253.02 96.26 1251.15 96.26ZM1265.6 96.26C1264.39 96.26 1263.3 95.974 1262.33 95.402C1261.36 94.83 1260.58 94.0587 1260.01 93.088C1259.44 92.1 1259.15 90.9993 1259.15 89.786C1259.15 88.59 1259.44 87.5153 1260.01 86.562C1260.58 85.5913 1261.36 84.82 1262.33 84.248C1263.3 83.676 1264.39 83.39 1265.6 83.39C1266.8 83.39 1267.88 83.676 1268.85 84.248C1269.84 84.8027 1270.62 85.5653 1271.19 86.536C1271.76 87.5067 1272.05 88.59 1272.05 89.786C1272.05 90.9993 1271.76 92.1 1271.19 93.088C1270.62 94.0587 1269.84 94.83 1268.85 95.402C1267.88 95.974 1266.8 96.26 1265.6 96.26ZM1265.6 93.998C1266.38 93.998 1267.08 93.816 1267.68 93.452C1268.29 93.088 1268.77 92.594 1269.11 91.97C1269.46 91.3287 1269.63 90.6007 1269.63 89.786C1269.63 88.9887 1269.45 88.278 1269.09 87.654C1268.74 87.03 1268.26 86.5447 1267.66 86.198C1267.07 85.834 1266.38 85.652 1265.6 85.652C1264.82 85.652 1264.13 85.834 1263.52 86.198C1262.92 86.5447 1262.44 87.03 1262.09 87.654C1261.75 88.278 1261.57 88.9887 1261.57 89.786C1261.57 90.6007 1261.75 91.3287 1262.09 91.97C1262.44 92.594 1262.92 93.088 1263.52 93.452C1264.13 93.816 1264.82 93.998 1265.6 93.998ZM1274.69 96V77.436H1277.03V96H1274.69ZM1285.42 96.26C1284.41 96.26 1283.5 96.0347 1282.69 95.584C1281.89 95.116 1281.27 94.4747 1280.81 93.66C1280.36 92.8453 1280.14 91.9007 1280.14 90.826V83.65H1282.48V90.722C1282.48 91.398 1282.59 91.9873 1282.82 92.49C1283.06 92.9753 1283.41 93.348 1283.86 93.608C1284.31 93.868 1284.84 93.998 1285.44 93.998C1286.36 93.998 1287.08 93.712 1287.6 93.14C1288.12 92.5507 1288.38 91.7447 1288.38 90.722V83.65H1290.72V90.826C1290.72 91.9007 1290.5 92.8453 1290.04 93.66C1289.59 94.4747 1288.97 95.116 1288.17 95.584C1287.39 96.0347 1286.47 96.26 1285.42 96.26ZM1295.75 96V78.476H1298.09V96H1295.75ZM1292.71 85.782V83.65H1301.14V85.782H1292.71ZM1303.45 96V83.65H1305.79V96H1303.45ZM1304.62 81.18C1304.19 81.18 1303.84 81.0413 1303.56 80.764C1303.28 80.4693 1303.14 80.1053 1303.14 79.672C1303.14 79.256 1303.28 78.9093 1303.56 78.632C1303.84 78.3373 1304.19 78.19 1304.62 78.19C1305.06 78.19 1305.41 78.3373 1305.69 78.632C1305.97 78.9093 1306.11 79.256 1306.11 79.672C1306.11 80.1053 1305.97 80.4693 1305.69 80.764C1305.41 81.0413 1305.06 81.18 1304.62 81.18ZM1314.89 96.26C1313.67 96.26 1312.58 95.974 1311.61 95.402C1310.64 94.83 1309.87 94.0587 1309.3 93.088C1308.72 92.1 1308.44 90.9993 1308.44 89.786C1308.44 88.59 1308.72 87.5153 1309.3 86.562C1309.87 85.5913 1310.64 84.82 1311.61 84.248C1312.58 83.676 1313.67 83.39 1314.89 83.39C1316.08 83.39 1317.16 83.676 1318.14 84.248C1319.12 84.8027 1319.9 85.5653 1320.48 86.536C1321.05 87.5067 1321.33 88.59 1321.33 89.786C1321.33 90.9993 1321.05 92.1 1320.48 93.088C1319.9 94.0587 1319.12 94.83 1318.14 95.402C1317.16 95.974 1316.08 96.26 1314.89 96.26ZM1314.89 93.998C1315.67 93.998 1316.36 93.816 1316.97 93.452C1317.57 93.088 1318.05 92.594 1318.4 91.97C1318.74 91.3287 1318.92 90.6007 1318.92 89.786C1318.92 88.9887 1318.73 88.278 1318.37 87.654C1318.02 87.03 1317.55 86.5447 1316.94 86.198C1316.35 85.834 1315.67 85.652 1314.89 85.652C1314.11 85.652 1313.41 85.834 1312.81 86.198C1312.2 86.5447 1311.72 87.03 1311.38 87.654C1311.03 88.278 1310.86 88.9887 1310.86 89.786C1310.86 90.6007 1311.03 91.3287 1311.38 91.97C1311.72 92.594 1312.2 93.088 1312.81 93.452C1313.41 93.816 1314.11 93.998 1314.89 93.998ZM1332.71 96V88.798C1332.71 87.862 1332.41 87.0907 1331.82 86.484C1331.23 85.8773 1330.47 85.574 1329.53 85.574C1328.91 85.574 1328.36 85.7127 1327.87 85.99C1327.38 86.2673 1327 86.6487 1326.73 87.134C1326.45 87.6193 1326.31 88.174 1326.31 88.798L1325.35 88.252C1325.35 87.316 1325.56 86.484 1325.97 85.756C1326.39 85.028 1326.97 84.456 1327.71 84.04C1328.46 83.6067 1329.3 83.39 1330.24 83.39C1331.17 83.39 1332 83.624 1332.71 84.092C1333.43 84.56 1334.01 85.1753 1334.42 85.938C1334.84 86.6833 1335.05 87.4807 1335.05 88.33V96H1332.71ZM1323.97 96V83.65H1326.31V96H1323.97ZM1342.14 96.26C1341.45 96.26 1340.79 96.1733 1340.16 96C1339.56 95.8093 1338.99 95.5493 1338.47 95.22C1337.95 94.8733 1337.5 94.466 1337.12 93.998L1338.63 92.49C1339.08 93.0447 1339.6 93.4607 1340.19 93.738C1340.78 93.998 1341.44 94.128 1342.17 94.128C1342.89 94.128 1343.46 94.0067 1343.86 93.764C1344.25 93.504 1344.45 93.1487 1344.45 92.698C1344.45 92.2473 1344.29 91.9007 1343.96 91.658C1343.65 91.398 1343.24 91.19 1342.74 91.034C1342.24 90.8607 1341.7 90.696 1341.13 90.54C1340.57 90.3667 1340.04 90.15 1339.54 89.89C1339.04 89.63 1338.62 89.2747 1338.29 88.824C1337.98 88.3733 1337.82 87.7753 1337.82 87.03C1337.82 86.2847 1338.01 85.6433 1338.37 85.106C1338.73 84.5513 1339.24 84.1267 1339.88 83.832C1340.54 83.5373 1341.33 83.39 1342.24 83.39C1343.21 83.39 1344.07 83.5633 1344.82 83.91C1345.58 84.2393 1346.2 84.742 1346.69 85.418L1345.18 86.926C1344.84 86.4753 1344.4 86.1287 1343.88 85.886C1343.38 85.6433 1342.81 85.522 1342.17 85.522C1341.49 85.522 1340.97 85.6433 1340.61 85.886C1340.26 86.1113 1340.09 86.432 1340.09 86.848C1340.09 87.264 1340.24 87.5847 1340.55 87.81C1340.87 88.0353 1341.27 88.226 1341.78 88.382C1342.3 88.538 1342.83 88.7027 1343.39 88.876C1343.94 89.032 1344.47 89.2487 1344.97 89.526C1345.48 89.8033 1345.88 90.176 1346.2 90.644C1346.53 91.112 1346.69 91.7273 1346.69 92.49C1346.69 93.6513 1346.27 94.57 1345.44 95.246C1344.63 95.922 1343.53 96.26 1342.14 96.26ZM1247.61 129V111.476H1249.95V129H1247.61ZM1244.57 118.782V116.65H1253V118.782H1244.57ZM1264.02 129V121.798C1264.02 120.862 1263.73 120.091 1263.14 119.484C1262.55 118.877 1261.79 118.574 1260.85 118.574C1260.23 118.574 1259.67 118.713 1259.19 118.99C1258.7 119.267 1258.32 119.649 1258.04 120.134C1257.77 120.619 1257.63 121.174 1257.63 121.798L1256.67 121.252C1256.67 120.316 1256.87 119.484 1257.29 118.756C1257.71 118.028 1258.29 117.456 1259.03 117.04C1259.78 116.607 1260.62 116.39 1261.55 116.39C1262.49 116.39 1263.31 116.598 1264.02 117.014C1264.75 117.43 1265.32 118.011 1265.74 118.756C1266.16 119.501 1266.36 120.359 1266.36 121.33V129H1264.02ZM1255.29 129V110.436H1257.63V129H1255.29ZM1274.78 129.26C1273.66 129.26 1272.64 128.983 1271.72 128.428C1270.8 127.856 1270.07 127.085 1269.53 126.114C1269.01 125.143 1268.75 124.051 1268.75 122.838C1268.75 121.625 1269.01 120.533 1269.53 119.562C1270.07 118.591 1270.79 117.82 1271.69 117.248C1272.61 116.676 1273.64 116.39 1274.78 116.39C1275.72 116.39 1276.55 116.589 1277.28 116.988C1278.03 117.369 1278.62 117.907 1279.07 118.6C1279.53 119.276 1279.78 120.065 1279.83 120.966V124.684C1279.78 125.568 1279.53 126.357 1279.07 127.05C1278.64 127.743 1278.05 128.289 1277.31 128.688C1276.58 129.069 1275.74 129.26 1274.78 129.26ZM1275.17 127.05C1276.34 127.05 1277.27 126.66 1277.98 125.88C1278.69 125.083 1279.05 124.069 1279.05 122.838C1279.05 121.989 1278.88 121.252 1278.55 120.628C1278.24 119.987 1277.79 119.493 1277.2 119.146C1276.61 118.782 1275.93 118.6 1275.15 118.6C1274.37 118.6 1273.68 118.782 1273.07 119.146C1272.48 119.51 1272.01 120.013 1271.66 120.654C1271.34 121.278 1271.17 121.997 1271.17 122.812C1271.17 123.644 1271.34 124.381 1271.66 125.022C1272.01 125.646 1272.49 126.14 1273.09 126.504C1273.7 126.868 1274.39 127.05 1275.17 127.05ZM1278.89 129V125.672L1279.33 122.656L1278.89 119.666V116.65H1281.26V129H1278.89ZM1286.51 129V111.476H1288.85V129H1286.51ZM1283.47 118.782V116.65H1291.89V118.782H1283.47ZM1303.13 129L1298.24 116.65H1300.69L1304.22 126.27H1303.44L1306.95 116.65H1308.3L1311.81 126.27H1311.03L1314.57 116.65H1317.01L1312.15 129H1310.77L1307.21 119.666H1308.07L1304.48 129H1303.13ZM1324.38 129.26C1323.17 129.26 1322.08 128.974 1321.11 128.402C1320.13 127.83 1319.36 127.059 1318.79 126.088C1318.22 125.1 1317.93 123.999 1317.93 122.786C1317.93 121.59 1318.22 120.515 1318.79 119.562C1319.36 118.591 1320.13 117.82 1321.11 117.248C1322.08 116.676 1323.17 116.39 1324.38 116.39C1325.58 116.39 1326.66 116.676 1327.63 117.248C1328.62 117.803 1329.4 118.565 1329.97 119.536C1330.54 120.507 1330.83 121.59 1330.83 122.786C1330.83 123.999 1330.54 125.1 1329.97 126.088C1329.4 127.059 1328.62 127.83 1327.63 128.402C1326.66 128.974 1325.58 129.26 1324.38 129.26ZM1324.38 126.998C1325.16 126.998 1325.85 126.816 1326.46 126.452C1327.07 126.088 1327.54 125.594 1327.89 124.97C1328.24 124.329 1328.41 123.601 1328.41 122.786C1328.41 121.989 1328.23 121.278 1327.87 120.654C1327.52 120.03 1327.04 119.545 1326.44 119.198C1325.85 118.834 1325.16 118.652 1324.38 118.652C1323.6 118.652 1322.91 118.834 1322.3 119.198C1321.69 119.545 1321.22 120.03 1320.87 120.654C1320.52 121.278 1320.35 121.989 1320.35 122.786C1320.35 123.601 1320.52 124.329 1320.87 124.97C1321.22 125.594 1321.69 126.088 1322.3 126.452C1322.91 126.816 1323.6 126.998 1324.38 126.998ZM1333.47 129V116.65H1335.81V129H1333.47ZM1335.81 121.954L1334.92 121.564C1334.92 119.987 1335.29 118.73 1336.01 117.794C1336.74 116.858 1337.79 116.39 1339.16 116.39C1339.78 116.39 1340.35 116.503 1340.85 116.728C1341.35 116.936 1341.82 117.291 1342.25 117.794L1340.72 119.38C1340.46 119.103 1340.17 118.903 1339.86 118.782C1339.55 118.661 1339.19 118.6 1338.77 118.6C1337.9 118.6 1337.19 118.877 1336.64 119.432C1336.08 119.987 1335.81 120.827 1335.81 121.954ZM1351.81 129L1346.03 122.682L1351.75 116.65H1354.59L1348.22 123.306L1348.32 121.954L1354.82 129H1351.81ZM1343.9 129V110.436H1346.24V129H1343.9Z" fill="#FEFAE0" fill-opacity="0.3"/>
<line x1="224.25" y1="516.324" x2="224.25" y2="128.677" stroke="#FEFAE0" stroke-width="1.5"/>
<line x1="1420.37" y1="516.324" x2="1420.37" y2="128.677" stroke="#FEFAE0" stroke-width="1.5"/>
<line x1="823.121" y1="466.148" x2="823.121" y2="178.852" stroke="#FEFAE0" stroke-width="1.5"/>
<path d="M225 322.5L516.949 43.2068L516.949 601.793L225 322.5Z" fill="#FFF2EF"/>
<path d="M821.443 322.5L529.494 601.793V43.2068L821.443 322.5Z" fill="#FFD6CC"/>
<path d="M821.443 322.5L1113.39 43.2068V601.793L821.443 322.5Z" fill="#FFA18A"/>
<path d="M1417.89 322.5L1125.94 601.793V43.2068L1417.89 322.5Z" fill="#FF6E4A"/>
<path d="M303.948 340V333.88H309.924C311.268 333.88 312.432 333.64 313.416 333.16C314.4 332.656 315.156 331.9 315.684 330.892C316.212 329.884 316.476 328.636 316.476 327.148C316.476 325.66 316.2 324.424 315.648 323.44C315.12 322.456 314.364 321.724 313.38 321.244C312.42 320.74 311.268 320.488 309.924 320.488H303.588V314.368H309.924C311.94 314.368 313.788 314.668 315.468 315.268C317.172 315.868 318.648 316.732 319.896 317.86C321.144 318.988 322.104 320.344 322.776 321.928C323.472 323.488 323.82 325.24 323.82 327.184C323.82 329.128 323.472 330.892 322.776 332.476C322.104 334.036 321.144 335.38 319.896 336.508C318.648 337.636 317.184 338.5 315.504 339.1C313.824 339.7 311.988 340 309.996 340H303.948ZM299.124 340V314.368H306.324V340H299.124ZM326.757 340V314.368H333.957V340H326.757ZM346.006 340.432C343.822 340.432 341.914 340.12 340.282 339.496C338.674 338.848 337.186 337.828 335.818 336.436L340.318 331.936C341.254 332.824 342.238 333.508 343.27 333.988C344.302 334.444 345.406 334.672 346.582 334.672C347.566 334.672 348.31 334.528 348.814 334.24C349.318 333.928 349.57 333.508 349.57 332.98C349.57 332.452 349.354 332.02 348.922 331.684C348.49 331.324 347.914 331.012 347.194 330.748C346.498 330.46 345.718 330.172 344.854 329.884C344.014 329.596 343.174 329.248 342.334 328.84C341.494 328.432 340.714 327.94 339.994 327.364C339.298 326.764 338.734 326.032 338.302 325.168C337.87 324.28 337.654 323.2 337.654 321.928C337.654 320.272 338.05 318.844 338.842 317.644C339.634 316.444 340.75 315.532 342.19 314.908C343.63 314.26 345.322 313.936 347.266 313.936C349.186 313.936 350.962 314.248 352.594 314.872C354.25 315.472 355.618 316.336 356.698 317.464L352.162 321.964C351.37 321.196 350.578 320.632 349.786 320.272C348.994 319.888 348.13 319.696 347.194 319.696C346.45 319.696 345.85 319.816 345.394 320.056C344.962 320.296 344.746 320.656 344.746 321.136C344.746 321.64 344.962 322.06 345.394 322.396C345.826 322.708 346.39 322.996 347.086 323.26C347.806 323.524 348.586 323.8 349.426 324.088C350.29 324.376 351.142 324.724 351.982 325.132C352.822 325.516 353.59 326.02 354.286 326.644C355.006 327.244 355.582 328 356.014 328.912C356.446 329.824 356.662 330.928 356.662 332.224C356.662 334.84 355.726 336.868 353.854 338.308C352.006 339.724 349.39 340.432 346.006 340.432ZM372.546 340.432C370.578 340.432 368.742 340.108 367.038 339.46C365.358 338.788 363.882 337.852 362.61 336.652C361.338 335.452 360.342 334.048 359.622 332.44C358.926 330.808 358.578 329.044 358.578 327.148C358.578 325.228 358.926 323.464 359.622 321.856C360.342 320.248 361.326 318.856 362.574 317.68C363.846 316.504 365.322 315.592 367.002 314.944C368.682 314.272 370.506 313.936 372.474 313.936C374.466 313.936 376.29 314.248 377.946 314.872C379.602 315.496 381.042 316.36 382.266 317.464L377.478 322.288C376.902 321.664 376.194 321.172 375.354 320.812C374.538 320.452 373.578 320.272 372.474 320.272C371.514 320.272 370.626 320.428 369.81 320.74C369.018 321.052 368.334 321.508 367.758 322.108C367.182 322.708 366.726 323.44 366.39 324.304C366.078 325.144 365.922 326.092 365.922 327.148C365.922 328.228 366.078 329.2 366.39 330.064C366.726 330.904 367.182 331.624 367.758 332.224C368.334 332.824 369.018 333.292 369.81 333.628C370.626 333.94 371.514 334.096 372.474 334.096C373.554 334.096 374.514 333.928 375.354 333.592C376.218 333.256 376.962 332.764 377.586 332.116L382.41 336.94C381.138 338.044 379.71 338.908 378.126 339.532C376.542 340.132 374.682 340.432 372.546 340.432ZM396.558 340.504C394.542 340.504 392.682 340.168 390.978 339.496C389.298 338.824 387.822 337.888 386.55 336.688C385.302 335.488 384.33 334.072 383.634 332.44C382.938 330.808 382.59 329.044 382.59 327.148C382.59 325.228 382.926 323.464 383.598 321.856C384.294 320.248 385.266 318.844 386.514 317.644C387.762 316.444 389.226 315.52 390.906 314.872C392.61 314.2 394.47 313.864 396.486 313.864C398.502 313.864 400.35 314.2 402.03 314.872C403.734 315.52 405.21 316.444 406.458 317.644C407.706 318.844 408.666 320.26 409.338 321.892C410.034 323.5 410.382 325.264 410.382 327.184C410.382 329.08 410.034 330.844 409.338 332.476C408.666 334.084 407.706 335.5 406.458 336.724C405.21 337.924 403.746 338.86 402.066 339.532C400.386 340.18 398.55 340.504 396.558 340.504ZM396.486 334.168C397.83 334.168 398.994 333.88 399.978 333.304C400.962 332.728 401.718 331.912 402.246 330.856C402.774 329.8 403.038 328.564 403.038 327.148C403.038 326.092 402.882 325.144 402.57 324.304C402.282 323.44 401.85 322.708 401.274 322.108C400.698 321.484 400.002 321.016 399.186 320.704C398.394 320.368 397.494 320.2 396.486 320.2C395.142 320.2 393.978 320.488 392.994 321.064C392.01 321.616 391.254 322.42 390.726 323.476C390.198 324.508 389.934 325.732 389.934 327.148C389.934 328.228 390.078 329.2 390.366 330.064C390.678 330.928 391.122 331.672 391.698 332.296C392.274 332.896 392.958 333.364 393.75 333.7C394.566 334.012 395.478 334.168 396.486 334.168ZM420.097 340L410.701 314.368H418.333L425.281 335.068H421.897L428.953 314.368H436.477L426.937 340H420.097ZM438.87 340V314.368H446.07V340H438.87ZM444.702 340V334.024H458.454V340H444.702ZM444.702 329.848V324.016H457.122V329.848H444.702ZM444.702 320.344V314.368H458.238V320.344H444.702ZM467.694 329.776V324.808H472.05C473.034 324.808 473.778 324.568 474.282 324.088C474.81 323.608 475.074 322.972 475.074 322.18C475.074 321.388 474.81 320.752 474.282 320.272C473.778 319.792 473.034 319.552 472.05 319.552H467.694V314.368H473.202C474.978 314.368 476.538 314.692 477.882 315.34C479.226 315.988 480.282 316.888 481.05 318.04C481.818 319.192 482.202 320.536 482.202 322.072C482.202 323.608 481.806 324.952 481.014 326.104C480.246 327.256 479.166 328.156 477.774 328.804C476.382 329.452 474.738 329.776 472.842 329.776H467.694ZM461.862 340V314.368H469.062V340H461.862ZM475.686 340L468.702 329.056L475.182 327.652L483.858 340H475.686Z" fill="#242424"/>
<path d="M7.956 331V325.816H12.6C13.152 325.816 13.656 325.708 14.112 325.492C14.592 325.252 14.976 324.904 15.264 324.448C15.552 323.968 15.696 323.38 15.696 322.684C15.696 321.988 15.552 321.412 15.264 320.956C14.976 320.476 14.592 320.128 14.112 319.912C13.656 319.672 13.152 319.552 12.6 319.552H7.956V314.368H14.004C15.66 314.368 17.148 314.704 18.468 315.376C19.812 316.024 20.868 316.972 21.636 318.22C22.428 319.444 22.824 320.932 22.824 322.684C22.824 324.412 22.428 325.9 21.636 327.148C20.868 328.396 19.812 329.356 18.468 330.028C17.148 330.676 15.66 331 14.004 331H7.956ZM2.124 340V314.368H9.324V340H2.124ZM31.2294 329.776V324.808H35.5854C36.5694 324.808 37.3134 324.568 37.8174 324.088C38.3454 323.608 38.6094 322.972 38.6094 322.18C38.6094 321.388 38.3454 320.752 37.8174 320.272C37.3134 319.792 36.5694 319.552 35.5854 319.552H31.2294V314.368H36.7374C38.5134 314.368 40.0734 314.692 41.4174 315.34C42.7614 315.988 43.8174 316.888 44.5854 318.04C45.3534 319.192 45.7374 320.536 45.7374 322.072C45.7374 323.608 45.3414 324.952 44.5494 326.104C43.7814 327.256 42.7014 328.156 41.3094 328.804C39.9174 329.452 38.2734 329.776 36.3774 329.776H31.2294ZM25.3974 340V314.368H32.5974V340H25.3974ZM39.2214 340L32.2374 329.056L38.7174 327.652L47.3934 340H39.2214ZM61.9054 340.504C59.8894 340.504 58.0294 340.168 56.3254 339.496C54.6454 338.824 53.1694 337.888 51.8974 336.688C50.6494 335.488 49.6774 334.072 48.9814 332.44C48.2854 330.808 47.9374 329.044 47.9374 327.148C47.9374 325.228 48.2734 323.464 48.9454 321.856C49.6414 320.248 50.6134 318.844 51.8614 317.644C53.1094 316.444 54.5734 315.52 56.2534 314.872C57.9574 314.2 59.8174 313.864 61.8334 313.864C63.8494 313.864 65.6974 314.2 67.3774 314.872C69.0814 315.52 70.5574 316.444 71.8054 317.644C73.0534 318.844 74.0134 320.26 74.6854 321.892C75.3814 323.5 75.7294 325.264 75.7294 327.184C75.7294 329.08 75.3814 330.844 74.6854 332.476C74.0134 334.084 73.0534 335.5 71.8054 336.724C70.5574 337.924 69.0934 338.86 67.4134 339.532C65.7334 340.18 63.8974 340.504 61.9054 340.504ZM61.8334 334.168C63.1774 334.168 64.3414 333.88 65.3254 333.304C66.3094 332.728 67.0654 331.912 67.5934 330.856C68.1214 329.8 68.3854 328.564 68.3854 327.148C68.3854 326.092 68.2294 325.144 67.9174 324.304C67.6294 323.44 67.1974 322.708 66.6214 322.108C66.0454 321.484 65.3494 321.016 64.5334 320.704C63.7414 320.368 62.8414 320.2 61.8334 320.2C60.4894 320.2 59.3254 320.488 58.3414 321.064C57.3574 321.616 56.6014 322.42 56.0734 323.476C55.5454 324.508 55.2814 325.732 55.2814 327.148C55.2814 328.228 55.4254 329.2 55.7134 330.064C56.0254 330.928 56.4694 331.672 57.0454 332.296C57.6214 332.896 58.3054 333.364 59.0974 333.7C59.9134 334.012 60.8254 334.168 61.8334 334.168ZM84.5263 340V334.816H89.2423C90.1543 334.816 90.8863 334.576 91.4383 334.096C91.9903 333.592 92.2663 332.908 92.2663 332.044C92.2663 331.468 92.1343 330.976 91.8703 330.568C91.6303 330.136 91.2823 329.812 90.8263 329.596C90.3943 329.38 89.8663 329.272 89.2423 329.272H84.5263V324.304H88.9183C89.6863 324.304 90.3223 324.112 90.8263 323.728C91.3303 323.344 91.5823 322.744 91.5823 321.928C91.5823 321.112 91.3303 320.512 90.8263 320.128C90.3223 319.744 89.6863 319.552 88.9183 319.552H84.5263V314.368H90.9343C92.4943 314.368 93.8503 314.668 95.0023 315.268C96.1783 315.844 97.0903 316.648 97.7383 317.68C98.3863 318.688 98.7103 319.852 98.7103 321.172C98.7103 322.996 98.0623 324.484 96.7663 325.636C95.4703 326.788 93.5743 327.448 91.0783 327.616L91.0063 325.132C93.7183 325.3 95.7943 326.044 97.2343 327.364C98.6743 328.684 99.3943 330.376 99.3943 332.44C99.3943 333.928 99.0223 335.248 98.2783 336.4C97.5343 337.528 96.4903 338.416 95.1463 339.064C93.8263 339.688 92.2783 340 90.5023 340H84.5263ZM78.6943 340V314.368H85.7503V340H78.6943ZM102.425 340V314.368H109.625V340H102.425ZM108.293 340V333.88H120.281V340H108.293ZM123.026 340V314.368H130.226V340H123.026ZM128.858 340V334.024H142.61V340H128.858ZM128.858 329.848V324.016H141.278V329.848H128.858ZM128.858 320.344V314.368H142.394V320.344H128.858ZM146.019 340V314.368H151.239L160.779 328.336H158.511L168.015 314.368H173.235V340H166.107V326.176L167.151 326.464L161.931 333.952H157.323L152.139 326.464L153.147 326.176V340H146.019Z" fill="#FEFAE0" fill-opacity="0.3"/>
<path d="M578.948 340V333.88H584.924C586.268 333.88 587.432 333.64 588.416 333.16C589.4 332.656 590.156 331.9 590.684 330.892C591.212 329.884 591.476 328.636 591.476 327.148C591.476 325.66 591.2 324.424 590.648 323.44C590.12 322.456 589.364 321.724 588.38 321.244C587.42 320.74 586.268 320.488 584.924 320.488H578.588V314.368H584.924C586.94 314.368 588.788 314.668 590.468 315.268C592.172 315.868 593.648 316.732 594.896 317.86C596.144 318.988 597.104 320.344 597.776 321.928C598.472 323.488 598.82 325.24 598.82 327.184C598.82 329.128 598.472 330.892 597.776 332.476C597.104 334.036 596.144 335.38 594.896 336.508C593.648 337.636 592.184 338.5 590.504 339.1C588.824 339.7 586.988 340 584.996 340H578.948ZM574.124 340V314.368H581.324V340H574.124ZM601.757 340V314.368H608.957V340H601.757ZM607.589 340V334.024H621.341V340H607.589ZM607.589 329.848V324.016H620.009V329.848H607.589ZM607.589 320.344V314.368H621.125V320.344H607.589ZM624.749 340V314.368H631.949V340H624.749ZM630.581 330.892V324.916H643.181V330.892H630.581ZM630.581 320.344V314.368H643.721V320.344H630.581ZM646.862 340V314.368H654.062V340H646.862ZM658.323 340V314.368H663.363L665.523 319.768V340H658.323ZM675.963 340L661.095 321.316L663.363 314.368L678.231 333.052L675.963 340ZM675.963 340L674.163 334.312V314.368H681.363V340H675.963ZM685.604 340V314.368H692.804V340H685.604ZM691.436 340V334.024H705.188V340H691.436ZM691.436 329.848V324.016H703.856V329.848H691.436ZM691.436 320.344V314.368H704.972V320.344H691.436Z" fill="#242424"/>
<path d="M1165.95 340V333.88H1171.92C1173.27 333.88 1174.43 333.64 1175.42 333.16C1176.4 332.656 1177.16 331.9 1177.68 330.892C1178.21 329.884 1178.48 328.636 1178.48 327.148C1178.48 325.66 1178.2 324.424 1177.65 323.44C1177.12 322.456 1176.36 321.724 1175.38 321.244C1174.42 320.74 1173.27 320.488 1171.92 320.488H1165.59V314.368H1171.92C1173.94 314.368 1175.79 314.668 1177.47 315.268C1179.17 315.868 1180.65 316.732 1181.9 317.86C1183.14 318.988 1184.1 320.344 1184.78 321.928C1185.47 323.488 1185.82 325.24 1185.82 327.184C1185.82 329.128 1185.47 330.892 1184.78 332.476C1184.1 334.036 1183.14 335.38 1181.9 336.508C1180.65 337.636 1179.18 338.5 1177.5 339.1C1175.82 339.7 1173.99 340 1172 340H1165.95ZM1161.12 340V314.368H1168.32V340H1161.12ZM1188.76 340V314.368H1195.96V340H1188.76ZM1194.59 340V334.024H1208.34V340H1194.59ZM1194.59 329.848V324.016H1207.01V329.848H1194.59ZM1194.59 320.344V314.368H1208.12V320.344H1194.59ZM1211.75 340V314.368H1218.95V340H1211.75ZM1217.62 340V333.88H1229.61V340H1217.62ZM1232.35 340V314.368H1239.55V340H1232.35ZM1251.34 340L1241.94 314.368H1249.57L1256.52 335.068H1253.14L1260.19 314.368H1267.72L1258.18 340H1251.34ZM1270.11 340V314.368H1277.31V340H1270.11ZM1275.94 340V334.024H1289.69V340H1275.94ZM1275.94 329.848V324.016H1288.36V329.848H1275.94ZM1275.94 320.344V314.368H1289.48V320.344H1275.94ZM1298.93 329.776V324.808H1303.29C1304.27 324.808 1305.02 324.568 1305.52 324.088C1306.05 323.608 1306.31 322.972 1306.31 322.18C1306.31 321.388 1306.05 320.752 1305.52 320.272C1305.02 319.792 1304.27 319.552 1303.29 319.552H1298.93V314.368H1304.44C1306.22 314.368 1307.78 314.692 1309.12 315.34C1310.46 315.988 1311.52 316.888 1312.29 318.04C1313.06 319.192 1313.44 320.536 1313.44 322.072C1313.44 323.608 1313.04 324.952 1312.25 326.104C1311.48 327.256 1310.4 328.156 1309.01 328.804C1307.62 329.452 1305.98 329.776 1304.08 329.776H1298.93ZM1293.1 340V314.368H1300.3V340H1293.1ZM1306.92 340L1299.94 329.056L1306.42 327.652L1315.1 340H1306.92Z" fill="#242424"/>
<path d="M1466.4 340.432C1464.22 340.432 1462.31 340.12 1460.68 339.496C1459.07 338.848 1457.58 337.828 1456.22 336.436L1460.72 331.936C1461.65 332.824 1462.64 333.508 1463.67 333.988C1464.7 334.444 1465.8 334.672 1466.98 334.672C1467.96 334.672 1468.71 334.528 1469.21 334.24C1469.72 333.928 1469.97 333.508 1469.97 332.98C1469.97 332.452 1469.75 332.02 1469.32 331.684C1468.89 331.324 1468.31 331.012 1467.59 330.748C1466.9 330.46 1466.12 330.172 1465.25 329.884C1464.41 329.596 1463.57 329.248 1462.73 328.84C1461.89 328.432 1461.11 327.94 1460.39 327.364C1459.7 326.764 1459.13 326.032 1458.7 325.168C1458.27 324.28 1458.05 323.2 1458.05 321.928C1458.05 320.272 1458.45 318.844 1459.24 317.644C1460.03 316.444 1461.15 315.532 1462.59 314.908C1464.03 314.26 1465.72 313.936 1467.66 313.936C1469.58 313.936 1471.36 314.248 1472.99 314.872C1474.65 315.472 1476.02 316.336 1477.1 317.464L1472.56 321.964C1471.77 321.196 1470.98 320.632 1470.18 320.272C1469.39 319.888 1468.53 319.696 1467.59 319.696C1466.85 319.696 1466.25 319.816 1465.79 320.056C1465.36 320.296 1465.14 320.656 1465.14 321.136C1465.14 321.64 1465.36 322.06 1465.79 322.396C1466.22 322.708 1466.79 322.996 1467.48 323.26C1468.2 323.524 1468.98 323.8 1469.82 324.088C1470.69 324.376 1471.54 324.724 1472.38 325.132C1473.22 325.516 1473.99 326.02 1474.68 326.644C1475.4 327.244 1475.98 328 1476.41 328.912C1476.84 329.824 1477.06 330.928 1477.06 332.224C1477.06 334.84 1476.12 336.868 1474.25 338.308C1472.4 339.724 1469.79 340.432 1466.4 340.432ZM1492.94 340.504C1490.93 340.504 1489.07 340.168 1487.36 339.496C1485.68 338.824 1484.21 337.888 1482.94 336.688C1481.69 335.488 1480.72 334.072 1480.02 332.44C1479.32 330.808 1478.98 329.044 1478.98 327.148C1478.98 325.228 1479.31 323.464 1479.98 321.856C1480.68 320.248 1481.65 318.844 1482.9 317.644C1484.15 316.444 1485.61 315.52 1487.29 314.872C1489 314.2 1490.86 313.864 1492.87 313.864C1494.89 313.864 1496.74 314.2 1498.42 314.872C1500.12 315.52 1501.6 316.444 1502.84 317.644C1504.09 318.844 1505.05 320.26 1505.72 321.892C1506.42 323.5 1506.77 325.264 1506.77 327.184C1506.77 329.08 1506.42 330.844 1505.72 332.476C1505.05 334.084 1504.09 335.5 1502.84 336.724C1501.6 337.924 1500.13 338.86 1498.45 339.532C1496.77 340.18 1494.94 340.504 1492.94 340.504ZM1492.87 334.168C1494.22 334.168 1495.38 333.88 1496.36 333.304C1497.35 332.728 1498.1 331.912 1498.63 330.856C1499.16 329.8 1499.42 328.564 1499.42 327.148C1499.42 326.092 1499.27 325.144 1498.96 324.304C1498.67 323.44 1498.24 322.708 1497.66 322.108C1497.08 321.484 1496.39 321.016 1495.57 320.704C1494.78 320.368 1493.88 320.2 1492.87 320.2C1491.53 320.2 1490.36 320.488 1489.38 321.064C1488.4 321.616 1487.64 322.42 1487.11 323.476C1486.58 324.508 1486.32 325.732 1486.32 327.148C1486.32 328.228 1486.46 329.2 1486.75 330.064C1487.06 330.928 1487.51 331.672 1488.08 332.296C1488.66 332.896 1489.34 333.364 1490.14 333.7C1490.95 334.012 1491.86 334.168 1492.87 334.168ZM1509.73 340V314.368H1516.93V340H1509.73ZM1515.6 340V333.88H1527.59V340H1515.6ZM1540.22 340.432C1537.96 340.432 1536 339.976 1534.32 339.064C1532.64 338.128 1531.33 336.844 1530.39 335.212C1529.46 333.58 1528.99 331.708 1528.99 329.596V314.368H1536.19V330.244C1536.19 331.06 1536.37 331.756 1536.73 332.332C1537.09 332.908 1537.57 333.352 1538.17 333.664C1538.79 333.952 1539.48 334.096 1540.22 334.096C1540.99 334.096 1541.66 333.952 1542.24 333.664C1542.84 333.352 1543.3 332.92 1543.64 332.368C1543.98 331.792 1544.14 331.096 1544.14 330.28V314.368H1551.38V329.632C1551.38 331.744 1550.91 333.616 1549.98 335.248C1549.06 336.856 1547.77 338.128 1546.09 339.064C1544.43 339.976 1542.48 340.432 1540.22 340.432ZM1561.28 340V314.368H1568.48V340H1561.28ZM1553.61 320.488V314.368H1576.18V320.488H1553.61ZM1578.89 340V314.368H1586.09V340H1578.89ZM1603.02 340.504C1601 340.504 1599.14 340.168 1597.44 339.496C1595.76 338.824 1594.28 337.888 1593.01 336.688C1591.76 335.488 1590.79 334.072 1590.09 332.44C1589.4 330.808 1589.05 329.044 1589.05 327.148C1589.05 325.228 1589.39 323.464 1590.06 321.856C1590.75 320.248 1591.73 318.844 1592.97 317.644C1594.22 316.444 1595.69 315.52 1597.37 314.872C1599.07 314.2 1600.93 313.864 1602.95 313.864C1604.96 313.864 1606.81 314.2 1608.49 314.872C1610.19 315.52 1611.67 316.444 1612.92 317.644C1614.17 318.844 1615.13 320.26 1615.8 321.892C1616.49 323.5 1616.84 325.264 1616.84 327.184C1616.84 329.08 1616.49 330.844 1615.8 332.476C1615.13 334.084 1614.17 335.5 1612.92 336.724C1611.67 337.924 1610.21 338.86 1608.53 339.532C1606.85 340.18 1605.01 340.504 1603.02 340.504ZM1602.95 334.168C1604.29 334.168 1605.45 333.88 1606.44 333.304C1607.42 332.728 1608.18 331.912 1608.71 330.856C1609.23 329.8 1609.5 328.564 1609.5 327.148C1609.5 326.092 1609.34 325.144 1609.03 324.304C1608.74 323.44 1608.31 322.708 1607.73 322.108C1607.16 321.484 1606.46 321.016 1605.65 320.704C1604.85 320.368 1603.95 320.2 1602.95 320.2C1601.6 320.2 1600.44 320.488 1599.45 321.064C1598.47 321.616 1597.71 322.42 1597.19 323.476C1596.66 324.508 1596.39 325.732 1596.39 327.148C1596.39 328.228 1596.54 329.2 1596.83 330.064C1597.14 330.928 1597.58 331.672 1598.16 332.296C1598.73 332.896 1599.42 333.364 1600.21 333.7C1601.03 334.012 1601.94 334.168 1602.95 334.168ZM1619.81 340V314.368H1624.85L1627.01 319.768V340H1619.81ZM1637.45 340L1622.58 321.316L1624.85 314.368L1639.72 333.052L1637.45 340ZM1637.45 340L1635.65 334.312V314.368H1642.85V340H1637.45Z" fill="#FEFAE0" fill-opacity="0.3"/>
<path d="M910.948 340V333.88H916.924C918.268 333.88 919.432 333.64 920.416 333.16C921.4 332.656 922.156 331.9 922.684 330.892C923.212 329.884 923.476 328.636 923.476 327.148C923.476 325.66 923.2 324.424 922.648 323.44C922.12 322.456 921.364 321.724 920.38 321.244C919.42 320.74 918.268 320.488 916.924 320.488H910.588V314.368H916.924C918.94 314.368 920.788 314.668 922.468 315.268C924.172 315.868 925.648 316.732 926.896 317.86C928.144 318.988 929.104 320.344 929.776 321.928C930.472 323.488 930.82 325.24 930.82 327.184C930.82 329.128 930.472 330.892 929.776 332.476C929.104 334.036 928.144 335.38 926.896 336.508C925.648 337.636 924.184 338.5 922.504 339.1C920.824 339.7 918.988 340 916.996 340H910.948ZM906.124 340V314.368H913.324V340H906.124ZM933.757 340V314.368H940.957V340H933.757ZM939.589 340V334.024H953.341V340H939.589ZM939.589 329.848V324.016H952.009V329.848H939.589ZM939.589 320.344V314.368H953.125V320.344H939.589ZM963.781 340L954.385 314.368H962.017L968.965 335.068H965.581L972.637 314.368H980.161L970.621 340H963.781ZM982.554 340V314.368H989.754V340H982.554ZM988.386 340V334.024H1002.14V340H988.386ZM988.386 329.848V324.016H1000.81V329.848H988.386ZM988.386 320.344V314.368H1001.92V320.344H988.386ZM1005.55 340V314.368H1012.75V340H1005.55ZM1011.41 340V333.88H1023.4V340H1011.41ZM1037.94 340.504C1035.92 340.504 1034.06 340.168 1032.36 339.496C1030.68 338.824 1029.2 337.888 1027.93 336.688C1026.68 335.488 1025.71 334.072 1025.02 332.44C1024.32 330.808 1023.97 329.044 1023.97 327.148C1023.97 325.228 1024.31 323.464 1024.98 321.856C1025.68 320.248 1026.65 318.844 1027.9 317.644C1029.14 316.444 1030.61 315.52 1032.29 314.872C1033.99 314.2 1035.85 313.864 1037.87 313.864C1039.88 313.864 1041.73 314.2 1043.41 314.872C1045.12 315.52 1046.59 316.444 1047.84 317.644C1049.09 318.844 1050.05 320.26 1050.72 321.892C1051.42 323.5 1051.76 325.264 1051.76 327.184C1051.76 329.08 1051.42 330.844 1050.72 332.476C1050.05 334.084 1049.09 335.5 1047.84 336.724C1046.59 337.924 1045.13 338.86 1043.45 339.532C1041.77 340.18 1039.93 340.504 1037.94 340.504ZM1037.87 334.168C1039.21 334.168 1040.38 333.88 1041.36 333.304C1042.34 332.728 1043.1 331.912 1043.63 330.856C1044.16 329.8 1044.42 328.564 1044.42 327.148C1044.42 326.092 1044.26 325.144 1043.95 324.304C1043.66 323.44 1043.23 322.708 1042.66 322.108C1042.08 321.484 1041.38 321.016 1040.57 320.704C1039.78 320.368 1038.88 320.2 1037.87 320.2C1036.52 320.2 1035.36 320.488 1034.38 321.064C1033.39 321.616 1032.64 322.42 1032.11 323.476C1031.58 324.508 1031.32 325.732 1031.32 327.148C1031.32 328.228 1031.46 329.2 1031.75 330.064C1032.06 330.928 1032.5 331.672 1033.08 332.296C1033.66 332.896 1034.34 333.364 1035.13 333.7C1035.95 334.012 1036.86 334.168 1037.87 334.168ZM1060.56 331V325.816H1065.21C1065.76 325.816 1066.26 325.708 1066.72 325.492C1067.2 325.252 1067.58 324.904 1067.87 324.448C1068.16 323.968 1068.3 323.38 1068.3 322.684C1068.3 321.988 1068.16 321.412 1067.87 320.956C1067.58 320.476 1067.2 320.128 1066.72 319.912C1066.26 319.672 1065.76 319.552 1065.21 319.552H1060.56V314.368H1066.61C1068.27 314.368 1069.75 314.704 1071.07 315.376C1072.42 316.024 1073.47 316.972 1074.24 318.22C1075.03 319.444 1075.43 320.932 1075.43 322.684C1075.43 324.412 1075.03 325.9 1074.24 327.148C1073.47 328.396 1072.42 329.356 1071.07 330.028C1069.75 330.676 1068.27 331 1066.61 331H1060.56ZM1054.73 340V314.368H1061.93V340H1054.73Z" fill="#242424"/>
</svg>
