<svg width="1920" height="836" viewBox="0 0 1920 836" fill="none" xmlns="http://www.w3.org/2000/svg">
<rect y="-1" width="1920" height="837" fill="#075264"/>
<path d="M939.652 428.324C941.529 428.154 943.336 427.983 945.213 427.812C945.298 427.499 945.469 427.172 945.426 426.888C944.829 422.579 944.943 418.226 944.872 413.889C944.786 408.74 944.63 403.577 944.672 398.429C944.701 394.859 945.042 391.275 945.142 387.705C945.199 385.814 945.028 383.908 945.042 382.016C945.042 380.722 945.056 379.413 945.27 378.133C945.597 376.228 946.891 375.019 948.712 374.635C950.603 374.222 952.338 374.834 953.448 376.455C954.145 377.465 954.699 378.645 954.955 379.826C955.467 382.201 955.766 384.633 956.079 387.051C956.591 391.033 957.06 395.015 957.515 398.998C957.8 401.529 958.07 404.061 958.312 406.592C958.852 412.253 959.378 417.928 959.905 423.588C960.274 427.684 960.73 431.795 960.957 435.905C961.199 440.456 961.128 445.022 961.384 449.573C961.626 453.896 962.024 458.22 962.507 462.529C963.105 467.806 963.887 473.054 964.513 478.33C964.755 480.322 964.769 482.327 964.868 484.332C964.968 486.366 964.499 488.329 963.83 490.22C963.034 492.496 960.018 495.454 957.188 495.184C955.368 495.013 953.832 494.331 952.523 493.108C950.205 490.932 949.081 488.158 948.527 485.1C947.645 480.35 947.176 475.557 947.147 470.707C947.09 463.71 946.991 456.698 946.82 449.701C946.735 446.23 946.45 442.774 946.237 439.304C946.223 439.105 946.137 438.892 946.08 438.65C944.175 438.408 942.312 438.166 940.392 437.91C940.662 440.797 940.932 443.685 941.216 446.572C941.487 449.374 941.771 452.175 942.056 454.991C942.454 459.031 942.866 463.084 943.25 467.123C943.392 468.631 943.506 470.153 943.62 471.66C943.976 475.941 944.246 480.208 943.663 484.489C943.421 486.21 943.094 487.916 942.07 489.396C939.922 492.496 936.182 492.766 933.792 489.524C932.441 487.675 931.972 485.47 931.574 483.28C930.663 478.274 929.739 473.253 929.042 468.218C928.502 464.364 928.288 460.453 927.933 456.57C927.648 453.498 927.335 450.426 927.051 447.354C926.923 446.06 926.823 444.766 926.724 443.471C926.141 435.621 925.7 427.756 926.055 419.89C926.283 414.913 926.852 409.949 927.222 404.971C927.463 401.6 928.103 398.315 929.255 395.129C929.469 394.546 929.81 393.92 930.265 393.522C931.702 392.285 933.01 392.427 934.205 393.892C934.646 394.432 935.001 395.072 935.215 395.727C936.452 399.552 937.277 403.464 937.533 407.503C937.732 410.632 938.102 413.761 938.415 416.89C938.77 420.388 939.14 423.901 939.51 427.4C939.51 427.656 939.581 427.926 939.652 428.324Z" fill="white"/>
<path d="M1007.46 439.933C1007.4 440.331 1007.29 440.743 1007.29 441.141C1007.3 446.19 1007.32 451.239 1007.37 456.288C1007.4 459.161 1007.53 462.034 1007.56 464.907C1007.57 465.817 1007.46 466.756 1007.27 467.652C1007.03 468.818 1006.25 469.273 1005.08 468.946C1004.57 468.804 1004.07 468.548 1003.65 468.235C1002.51 467.368 1001.64 466.272 1000.99 464.992C999.31 461.764 998.471 458.308 998.13 454.71C997.603 449.092 997.39 443.46 997.39 437.813C997.39 433.803 997.134 429.778 997.248 425.767C997.39 420.462 997.76 415.157 998.073 409.852C998.258 406.766 998.528 403.694 998.784 400.607C998.841 399.967 998.955 399.313 999.083 398.687C999.623 396.227 1001.33 394.549 1003.63 394.165C1005.74 393.823 1008.26 395.061 1009.41 397.066C1009.83 397.82 1010.18 398.616 1010.5 399.427C1013.95 408.174 1016.73 417.12 1019.12 426.208C1020.23 430.446 1021.61 434.642 1023.06 438.78C1023.73 440.715 1024.85 442.493 1025.81 444.313C1026.03 444.74 1026.35 445.138 1026.66 445.508C1027.85 446.902 1028.68 446.944 1030.1 445.749C1031.6 444.484 1032.52 442.82 1033.33 441.099C1034.95 437.628 1035.8 433.945 1036.33 430.162C1036.87 426.279 1037.01 422.382 1036.97 418.471C1036.91 413.408 1035.99 408.444 1035.24 403.466C1034.65 399.697 1033.47 396.085 1032.51 392.43C1032.15 391.121 1031.87 389.798 1031.64 388.461C1031.21 386.015 1031.82 383.896 1033.96 382.474C1036.1 381.037 1038.35 381.123 1040.58 382.374C1043.29 383.882 1045.05 386.271 1046.6 388.86C1049.13 393.07 1050.34 397.735 1051.35 402.471C1052.63 408.501 1053.11 414.574 1053.1 420.732C1053.09 427.872 1052.45 434.94 1050.34 441.781C1049.23 445.408 1047.82 448.935 1045.69 452.135C1044.08 454.525 1042.46 456.857 1040.16 458.678C1036.69 461.408 1032.83 463.186 1028.42 463.485C1024.78 463.727 1021.47 462.575 1018.54 460.356C1015.01 457.668 1012.84 454.013 1011.13 450.016C1009.95 447.271 1009.08 444.413 1008.47 441.483C1008.36 440.928 1008.11 440.402 1007.93 439.861C1007.77 439.876 1007.62 439.904 1007.46 439.933Z" fill="white"/>
<path d="M931.947 523.334C932.843 525.012 932.53 526.491 932.018 527.828C931.364 529.535 930.596 531.241 929.614 532.777C926.414 537.769 922.048 541.553 916.9 544.454C912.306 547.042 907.726 549.631 902.791 551.551C899.036 553.016 895.21 554.282 891.2 554.708C884.686 555.419 878.229 554.936 872.241 552.077C866.211 549.204 861.716 544.653 859.085 538.424C856.483 532.294 855.757 525.922 856.355 519.309C856.795 514.544 858.175 510.05 859.967 505.684C861.446 502.071 863.466 498.757 865.855 495.628C868.785 491.788 872.099 488.403 875.996 485.601C881.272 481.804 887.146 479.358 893.617 478.419C898.638 477.694 903.36 478.561 907.712 481.178C912.448 484.023 914.937 488.389 915.932 493.708C916.316 495.742 916.444 497.79 915.932 499.838C915.548 501.317 914.78 502.498 913.472 503.351C911.694 504.503 909.376 504.318 907.996 502.683C907.143 501.659 906.432 500.45 905.906 499.227C904.554 496.126 902.122 494.803 898.894 494.519C895.509 494.206 892.593 495.486 889.834 497.164C887.743 498.43 885.724 499.81 883.704 501.189C880.59 503.337 878.47 506.252 876.693 509.58C873.962 514.701 873.137 520.119 873.507 525.794C873.72 529.023 875.029 531.896 876.963 534.441C878.086 535.906 879.793 536.674 881.571 537.03C886.392 537.997 891.285 538.025 896.177 537.627C900.032 537.314 903.815 536.646 907.555 535.679C911.523 534.655 915.25 533.019 918.905 531.227C922.418 529.506 926.016 527.942 929.017 525.353C929.472 524.969 929.941 524.585 930.425 524.244C930.88 523.945 931.35 523.689 931.947 523.334Z" fill="white"/>
<path d="M1088.31 399.767C1088.36 399.227 1088.36 398.928 1088.41 398.644C1088.63 397.748 1089 396.88 1089.07 395.984C1089.32 392.457 1089.35 388.93 1088.07 385.545C1087.13 383.056 1086.38 380.496 1084.74 378.334C1084.45 377.95 1084.16 377.538 1083.83 377.182C1082.45 375.717 1080.71 375.746 1079.57 377.424C1078.5 378.988 1077.52 380.638 1076.77 382.373C1074.29 388.005 1072.47 393.837 1071.59 399.938C1071.16 402.939 1070.56 405.911 1070.08 408.912C1069.91 410.036 1069.8 411.174 1069.78 412.312C1069.78 417.631 1069.81 422.95 1069.85 428.255C1069.85 428.966 1069.91 429.663 1069.97 430.374C1070.28 434.968 1070.59 439.562 1070.93 444.156C1071.38 450.115 1072.33 455.989 1073.59 461.82C1074.43 465.717 1075.87 469.4 1077.82 472.871C1078.27 473.667 1078.84 474.407 1079.43 475.118C1080.32 476.213 1081.52 476.526 1082.8 476.014C1084.35 475.388 1085.91 474.72 1087.35 473.852C1093.86 469.898 1099.22 464.75 1103.11 458.15C1105.85 453.471 1107.63 448.422 1108.75 443.132C1108.97 442.136 1109.16 441.155 1109.42 439.932C1107.23 440.173 1105.25 440.429 1103.28 440.586C1100.2 440.828 1097.15 441.482 1094.03 440.785C1091.83 440.287 1089.71 439.69 1088.4 437.599C1087.15 435.608 1087.35 433.332 1089 431.626C1090.13 430.445 1091.54 429.791 1093.11 429.435C1094 429.236 1094.93 429.094 1095.84 429.023C1098.87 428.781 1101.9 428.568 1104.94 428.397C1108.21 428.212 1111.45 428.497 1114.68 429.037C1117.24 429.464 1119.18 431.256 1119.65 434.143C1120.03 436.49 1119.93 438.794 1119.58 441.098C1118.51 447.896 1116.57 454.438 1113.42 460.554C1108.5 470.083 1101.48 477.735 1092.2 483.182C1089.14 484.974 1085.94 486.396 1082.33 486.78C1078.94 487.15 1076.14 485.998 1073.71 483.779C1071.13 481.433 1069.46 478.446 1068.09 475.289C1065.91 470.282 1064.59 465.02 1063.79 459.644C1062.91 453.756 1062.09 447.839 1061.6 441.908C1061.21 436.945 1061.22 431.939 1061.25 426.946C1061.28 423.263 1061.58 419.579 1061.83 415.91C1062.53 406.096 1063.68 396.368 1066.97 387.024C1068.36 383.07 1069.94 379.202 1072.1 375.618C1072.88 374.323 1073.76 373.058 1074.8 371.962C1077.08 369.559 1081.29 368.009 1085.1 370.995C1087.08 372.546 1088.48 374.508 1089.65 376.67C1091.23 379.6 1092.5 382.658 1093.06 385.943C1093.45 388.091 1093.31 390.253 1092.77 392.4C1092.14 394.932 1090.87 397.108 1089.3 399.142C1089.08 399.369 1088.77 399.469 1088.31 399.767Z" fill="white"/>
<path d="M906.572 386.584C904.88 386.755 903.316 386.84 901.765 387.068C897.1 387.751 892.45 388.618 887.77 389.201C880.986 390.04 874.231 391.221 867.347 390.908C864.744 390.794 862.127 390.695 859.624 389.87C858.458 389.486 857.277 388.974 856.253 388.291C854.177 386.911 853.935 384.423 855.514 382.488C856.68 381.066 858.173 380.099 859.795 379.303C864.915 376.799 870.319 375.192 875.966 374.524C882.977 373.699 889.989 372.945 897.015 372.234C901.822 371.736 906.629 371.224 911.451 370.954C916.116 370.684 920.795 370.641 925.46 370.669C926.996 370.684 928.56 371.153 930.068 371.565C930.822 371.779 931.561 372.248 932.187 372.746C934.349 374.467 934.491 377.212 932.443 379.089C931.618 379.843 930.594 380.483 929.542 380.824C926.598 381.777 923.611 382.588 920.624 383.399C918.491 383.982 916.329 384.508 913.997 385.105C914.338 385.603 914.551 385.973 914.807 386.286C916.87 388.803 918.007 391.69 918.235 394.919C918.576 399.726 918.818 404.547 919.216 409.355C919.486 412.697 919.97 416.025 920.354 419.367C920.752 422.866 921.136 426.365 921.492 429.878C921.79 432.679 922.046 435.481 922.317 438.297C922.345 438.567 922.402 438.838 922.416 439.108C922.559 442.308 922.687 445.508 922.815 448.708C922.928 451.794 923.056 454.881 923.142 457.981C923.213 460.498 922.857 462.959 922.146 465.362C921.918 466.131 921.606 466.899 921.165 467.581C920.155 469.16 918.832 469.302 917.538 467.951C915.86 466.202 914.622 464.154 913.883 461.85C912.702 458.123 911.977 454.269 911.636 450.386C911.195 445.423 910.996 440.431 910.583 435.467C910.285 431.954 909.787 428.469 909.417 424.971C909.047 421.515 908.692 418.073 908.365 414.617C908.037 411.161 907.724 407.705 907.468 404.249C907.284 401.703 907.184 399.157 907.07 396.611C906.942 393.582 906.828 390.538 906.715 387.509C906.715 387.281 906.658 387.082 906.572 386.584Z" fill="white"/>
<path d="M878.42 462.048C871.337 461.82 866.246 459.118 862.349 454.112C859.291 450.186 857.883 445.621 857.115 440.785C856.546 437.215 856.475 433.631 856.859 430.09C857.215 426.819 857.983 423.576 858.751 420.362C859.86 415.711 861.439 411.188 863.657 406.936C866.317 401.802 870.242 398.075 876.017 396.61C877.88 396.141 879.757 396.027 881.649 396.525C884.692 397.35 886.868 399.156 888.063 402.058C888.618 403.409 889.13 404.802 889.386 406.225C889.656 407.661 890.324 408.785 891.363 409.667C896.113 413.706 898.502 418.996 899.64 424.956C900.863 431.441 900.038 437.799 898.204 444.071C897.237 447.37 895.957 450.528 893.951 453.344C890.993 457.482 886.996 460.156 882.075 461.394C880.667 461.778 879.202 461.906 878.42 462.048ZM879.615 408.173C879.131 408.657 878.605 409.083 878.193 409.61C876.443 411.885 875.362 414.488 874.58 417.204C872.916 422.936 873.158 428.782 873.642 434.641C873.741 435.822 873.926 437.016 874.196 438.168C874.623 439.96 875.178 441.738 876.443 443.16C877.439 444.298 878.235 444.412 879.416 443.559C880.013 443.118 880.667 442.592 880.98 441.952C881.62 440.657 882.203 439.292 882.559 437.884C883.739 433.148 883.725 428.44 882.004 423.804C881.379 422.125 880.767 420.447 880.212 418.74C879.117 415.356 878.306 411.942 879.843 408.458C879.857 408.443 879.786 408.387 879.615 408.173Z" fill="white"/>
<path d="M818.86 389.514C817.096 390.936 816.271 392.7 815.659 394.549C814.678 397.535 814.01 400.608 813.455 403.708C811.99 411.9 812.36 420.163 812.559 428.384C812.715 434.884 813.299 441.369 813.725 447.869C813.939 451.168 814.166 454.468 814.451 457.768C814.906 463.058 815.489 468.349 816.868 473.498C816.925 473.697 817.068 473.882 817.281 474.266C817.537 473.682 817.764 473.27 817.878 472.829C818.717 469.857 819.315 466.827 819.628 463.741C820.268 457.327 820.865 450.898 821.619 444.498C821.946 441.625 822.984 438.909 824.406 436.391C825.402 434.628 826.17 434.457 827.777 435.694C829.128 436.747 830.024 438.212 830.678 439.762C831.574 441.881 831.973 444.114 832.086 446.418C832.158 447.712 832.399 449.021 832.328 450.315C832.143 453.671 831.916 457.028 831.546 460.356C831.176 463.741 830.693 467.126 830.109 470.497C829.441 474.294 828.346 477.992 826.582 481.448C825.416 483.738 823.766 485.558 821.69 487.023C818.305 489.412 813.483 488.943 810.269 485.956C807.467 483.34 805.96 480.011 804.964 476.399C803.599 471.478 802.959 466.429 802.248 461.38C800.683 450.301 800.982 439.179 801.11 428.057C801.153 424.643 801.608 421.244 801.921 417.845C802.233 414.503 802.575 411.161 802.973 407.818C803.656 402.101 804.609 396.44 806.443 390.965C807.41 388.063 808.918 385.518 811.151 383.455C813.768 381.052 816.811 380.17 820.339 381.023C823.524 381.791 825.317 384.01 826.511 386.798C828.502 391.477 829.654 396.369 829.868 401.461C829.896 402.272 829.896 403.096 829.768 403.893C829.541 405.372 828.332 406.439 826.881 406.567C825.146 406.709 824.036 406.041 823.539 404.376C823.126 403.025 822.927 401.617 822.529 400.28C821.576 397.109 820.552 393.966 819.542 390.822C819.4 390.453 819.158 390.097 818.86 389.514Z" fill="white"/>
<path d="M1028.84 535.209C1028.91 536.005 1028.95 536.645 1029.04 537.285C1029.29 539.12 1029.05 540.869 1028.13 542.476C1026.93 544.567 1024.56 545.093 1022.51 543.799C1021.23 542.988 1020.39 541.794 1019.69 540.485C1018.2 537.726 1017.5 534.697 1017.06 531.653C1016.24 525.978 1015.5 520.289 1014.83 514.586C1014.49 511.685 1014.37 508.755 1014.19 505.839C1014.16 505.299 1014.18 504.744 1014.26 504.218C1014.5 502.582 1014.3 500.975 1013.88 499.397C1013.49 497.96 1013.35 496.538 1013.56 495.059C1013.99 492.129 1015.68 490.095 1018.14 488.687C1022.99 485.928 1028.14 485.53 1033.38 487.364C1036.22 488.36 1038.31 490.308 1039.15 493.324C1039.63 495.073 1039.53 496.865 1039.15 498.629C1038.99 499.354 1038.82 500.094 1038.61 501.004C1039.15 501.132 1039.59 501.274 1040.05 501.331C1044.04 501.914 1047.78 503.166 1050.91 505.768C1052.79 507.319 1054.43 509.153 1056.15 510.903C1057.36 512.14 1058.48 513.477 1059.69 514.714C1062.99 518.142 1062.05 521.669 1058.68 524.115C1057.9 524.684 1057 525.139 1056.1 525.495C1048.74 528.396 1041.35 531.298 1033.94 534.128C1032.69 534.597 1031.31 534.739 1029.99 535.024C1029.69 535.052 1029.38 535.109 1028.84 535.209ZM1052.85 518.696C1051.48 517.331 1050.43 516.108 1049.19 515.084C1046.65 512.965 1043.77 511.528 1040.36 511.4C1036.09 511.23 1032.17 512.083 1028.8 514.856C1028.43 515.169 1028.04 515.496 1027.62 515.71C1026.63 516.208 1026.41 516.99 1026.52 518C1026.85 520.787 1027.13 523.589 1027.46 526.377C1027.57 527.301 1027.77 528.225 1027.97 529.378C1030.45 527.344 1033.05 526.163 1035.74 525.153C1038.54 524.115 1041.35 523.162 1044.14 522.11C1046.96 521.072 1049.75 519.92 1052.85 518.696ZM1027.39 497.078C1025.85 496.552 1024.47 496.95 1022.92 497.391C1023.19 499.226 1023.8 500.876 1024.5 502.611C1027.22 499.084 1027.39 498.757 1027.39 497.078Z" fill="white"/>
<path d="M988.218 529.435C987.877 529.89 987.592 530.26 987.308 530.63C984.918 533.759 982.031 536.205 978.191 537.414C974.934 538.438 972.09 537.67 969.53 535.565C967.724 534.086 966.472 532.18 965.69 529.99C963.883 524.955 962.618 519.806 962.888 514.416C962.973 512.695 963.258 510.974 963.499 509.253C963.571 508.727 963.741 508.201 963.94 507.689C964.538 506.139 965.732 505.271 967.098 505.328C968.591 505.399 969.857 506.352 970.369 507.874C970.781 509.111 971.094 510.377 971.464 511.614C972.645 515.668 973.811 519.735 975.048 523.774C975.361 524.784 975.887 525.723 976.342 526.747C978.22 526.022 979.286 524.756 980.111 523.262C981.448 520.859 982.102 518.199 982.401 515.511C982.87 511.259 983.112 506.978 983.468 502.725C983.553 501.644 983.596 500.549 983.852 499.497C985.046 494.391 990.351 494.106 992.897 496.297C994.476 497.662 995.429 499.411 995.912 501.402C996.908 505.513 997.96 509.609 998.728 513.762C999.724 519.053 1001.73 523.931 1004.25 528.638C1005.41 530.814 1006.37 533.019 1006.35 535.565C1006.34 538.267 1005.16 540.301 1002.78 541.51C1000.58 542.633 998.359 542.335 996.268 541.04C993.765 539.49 992.271 537.087 990.878 534.626C989.939 532.991 989.157 531.27 988.218 529.435Z" fill="white"/>
<path d="M850.054 444.896C850.054 450.699 850.054 456.516 850.054 462.319C850.054 466.003 850.04 469.686 850.068 473.37C850.083 474.892 850.282 476.399 850.239 477.921C850.196 478.988 850.097 480.14 849.642 481.078C848.22 484.108 844.308 484.349 842.531 481.491C841.834 480.381 841.435 479.002 841.194 477.693C840.596 474.493 840.17 471.279 839.686 468.065C839.629 467.695 839.558 467.311 839.544 466.941C839.416 464.125 839.359 461.309 839.174 458.493C838.932 454.809 838.591 451.14 838.321 447.471C838.164 445.423 837.965 443.36 837.937 441.298C837.794 431.584 837.61 421.87 837.624 412.156C837.638 406.567 838.022 400.992 838.193 395.402C838.264 392.856 838.221 390.296 838.193 387.751C838.178 386.57 838.42 385.489 839.003 384.479C840.283 382.275 842.929 382.161 844.323 384.28C844.707 384.849 845.019 385.532 845.133 386.2C846.328 392.913 847.551 399.641 848.632 406.382C849.044 408.999 849.187 411.673 849.343 414.318C849.926 423.748 850.168 433.177 850.083 442.621C850.083 443.375 850.083 444.143 850.083 444.896C850.054 444.896 850.054 444.896 850.054 444.896Z" fill="white"/>
<path d="M987.067 453.015C986.882 455.675 986.086 458.463 984.365 460.809C981.876 464.194 977.865 464.351 975.049 461.08C972.489 458.107 970.982 454.594 970.669 450.598C970.356 446.601 969.872 442.619 969.502 438.637C969.346 437.015 969.232 435.394 969.147 433.772C968.891 429.122 968.635 424.471 968.421 419.82C968.194 414.544 968.606 409.31 969.417 404.104C969.744 401.943 970.313 399.852 971.977 398.259C975.547 394.803 980.368 396.453 982.217 400.108C982.715 401.104 983.014 402.256 983.142 403.365C983.554 407.29 983.824 411.244 984.208 415.184C984.507 418.142 984.948 421.1 985.275 424.059C985.588 426.803 985.958 429.548 986.1 432.293C986.328 436.788 986.342 441.296 986.527 445.79C986.612 448.109 986.868 450.427 987.067 453.015Z" fill="white"/>
<path d="M1003.24 362.661C1003.87 362.348 1004.32 362.135 1004.76 361.908C1009.82 359.276 1014.82 356.517 1020.15 354.441C1024.18 352.876 1028.34 351.895 1032.62 351.482C1033.85 351.369 1035.1 351.625 1036.34 351.781C1036.75 351.838 1037.22 352.009 1037.52 352.279C1037.93 352.649 1038.48 353.189 1038.47 353.63C1038.44 354.085 1037.87 354.611 1037.42 354.924C1036.89 355.28 1036.22 355.422 1035.61 355.635C1031.23 357.171 1027.23 359.49 1023.08 361.495C1018.53 363.7 1014.01 365.932 1009.38 367.98C1007.93 368.635 1006.25 368.82 1004.66 369.09C1003.35 369.303 1002.09 368.933 1000.85 368.45C999.002 367.739 997.892 366.444 997.138 364.61C995.304 360.158 994.493 355.451 993.369 350.828C992.217 346.092 991.137 341.328 990.141 336.563C989.771 334.785 989.288 332.993 989.572 331.102C989.999 328.158 992.488 326.01 996.242 327.219C997.508 327.631 998.646 327.66 999.898 327.361C1002.86 326.636 1005.8 325.811 1008.89 326.039C1010.22 326.138 1011.57 326.423 1012.85 326.835C1013.59 327.063 1014.3 327.603 1014.83 328.186C1016 329.48 1015.81 330.931 1014.4 331.983C1011.57 334.103 1008.43 335.496 1004.95 336.151C1003.67 336.392 1002.39 336.62 1001.11 336.89C1000.81 336.947 1000.54 337.146 1000.2 337.303C1000.71 339.564 1001.22 341.769 1001.76 344.144C1002.32 344.186 1002.9 344.257 1003.47 344.257C1005.1 344.257 1006.72 344.201 1008.36 344.229C1009.7 344.243 1010.75 344.798 1011.52 345.936C1011.97 346.604 1012.06 347.301 1011.56 347.898C1010.98 348.581 1010.32 349.278 1009.54 349.733C1007.92 350.658 1006.14 351.141 1004.25 351.198C1003.88 351.212 1003.52 351.283 1003.05 351.34C1003.67 355.052 1003.54 358.707 1003.24 362.661Z" fill="white"/>
<path d="M955.269 533.301C955.126 534.766 955.041 536.444 954.771 538.094C954.529 539.545 953.633 540.64 952.524 541.579C951.443 542.503 950.291 542.603 949.053 541.963C947.716 541.266 946.692 540.242 945.896 538.976C944.559 536.828 943.649 534.496 943.336 532.007C942.895 528.465 942.497 524.896 942.312 521.34C942.084 517.016 942.056 512.664 941.999 508.326C941.985 507.302 942.127 506.264 942.355 505.269C942.909 502.694 945.043 500.86 947.66 500.803C949.665 500.76 951.158 501.827 952.225 503.477C953.462 505.368 953.647 507.558 953.789 509.72C954.074 514.271 954.259 518.823 954.529 523.36C954.728 526.602 954.998 529.831 955.269 533.301Z" fill="white"/>
<path d="M964.014 353.316C963.972 354.07 964 354.767 963.901 355.464C963.773 356.232 963.858 357.241 962.905 357.526C962.009 357.796 961.312 357.128 960.843 356.502C960.231 355.691 959.634 354.795 959.335 353.842C958.781 352.036 958.297 350.173 958.069 348.31C957.7 345.081 957.429 341.838 957.372 338.596C957.344 336.775 957.757 334.941 958.098 333.134C958.226 332.48 958.61 331.812 959.051 331.285C959.762 330.418 960.288 330.432 961.113 331.172C961.881 331.854 962.308 332.708 962.308 333.746C962.308 334.827 962.237 335.922 962.293 337.003C962.478 340.63 962.72 344.242 962.948 347.869C962.962 348.125 963.076 348.381 963.147 348.679C967.172 347.855 971.111 347.044 975.207 346.205C975.207 345.835 975.236 345.309 975.207 344.783C974.937 341.326 974.639 337.87 974.383 334.414C974.24 332.509 974.354 330.617 974.98 328.782C975.705 326.663 977.654 326.279 979.09 328.014C979.602 328.626 980.043 329.38 980.228 330.133C980.84 332.594 981.48 335.083 981.792 337.586C982.347 341.881 982.703 346.205 983.044 350.528C983.2 352.363 983.186 354.212 983.144 356.061C983.115 357.355 982.134 357.981 981.01 357.312C980.015 356.715 979.09 355.876 978.407 354.937C977.654 353.899 977.199 352.648 976.644 351.481C976.459 351.097 976.317 350.685 976.075 350.087C974.084 350.671 972.135 351.254 970.187 351.78C968.21 352.306 966.205 352.761 964.014 353.316Z" fill="white"/>
<path d="M921.908 344.498C922.093 343.132 922.904 342.635 923.658 342.137C926.346 340.345 929.29 339.093 932.362 338.126C935.42 337.159 938.477 336.22 941.592 335.481C944.565 334.77 947.622 334.698 950.638 335.253C952.245 335.552 953.141 336.547 953.198 337.785C953.24 338.837 953.112 339.107 952.074 339.463C950.993 339.833 949.884 340.103 948.789 340.416C948.22 340.587 947.665 340.771 947.196 340.928C947.096 341.155 947.011 341.255 947.011 341.355C947.281 345.621 947.608 349.888 947.821 354.155C947.935 356.501 947.025 357.895 945.318 358.663C943.683 359.403 941.976 359.09 940.54 357.725C938.719 355.989 938.278 353.671 938.108 351.339C937.951 349.234 938.079 347.115 938.065 344.995C938.065 344.626 938.065 344.256 938.065 343.73C932.675 344.896 927.398 346.176 921.908 344.498Z" fill="white"/>
<path d="M966.777 380.324C966.806 377.082 968.285 374.564 970.888 372.801C972.964 371.407 976.178 371.236 978.71 373.042C980.943 374.65 982.066 377.707 981.412 380.395C980.218 385.274 975.837 387.123 972.153 386.127C971.897 386.056 971.613 386.056 971.357 385.999C968.441 385.373 966.777 383.283 966.777 380.324Z" fill="white"/>
</svg>
