<svg width="746" height="182" viewBox="0 0 746 182" fill="none" xmlns="http://www.w3.org/2000/svg">
<g filter="url(#filter0_ddd_401_5874)">
<rect width="158" height="158" transform="translate(12 3)" fill="#8BADAF"/>
<path d="M31.3847 34.2983C30.6174 34.2983 29.8973 34.1564 29.2245 33.8726C28.5623 33.5782 27.9789 33.1735 27.4743 32.6584C26.9802 32.1434 26.5913 31.5442 26.3075 30.8609C26.0236 30.1776 25.8817 29.4418 25.8817 28.6534C25.8817 27.865 26.0236 27.1344 26.3075 26.4616C26.5913 25.7784 26.9855 25.1792 27.49 24.6641C27.9946 24.149 28.5833 23.7496 29.2561 23.4657C29.9393 23.1819 30.6804 23.04 31.4793 23.04C32.3518 23.04 33.156 23.2082 33.8918 23.5446C34.6277 23.881 35.2426 24.3645 35.7367 24.9952L34.7118 26.0201C34.3649 25.5156 33.9076 25.1319 33.34 24.8691C32.7723 24.5958 32.1521 24.4591 31.4793 24.4591C30.6804 24.4591 29.9709 24.6378 29.3507 24.9952C28.741 25.3526 28.2627 25.8467 27.9158 26.4774C27.5794 27.1081 27.4112 27.8335 27.4112 28.6534C27.4112 29.4838 27.5847 30.2144 27.9315 30.8451C28.2784 31.4758 28.7462 31.9699 29.3349 32.3273C29.9236 32.6847 30.5963 32.8634 31.3532 32.8634C32.1206 32.8634 32.7828 32.7163 33.34 32.4219C33.9076 32.1276 34.3438 31.6966 34.6487 31.1289C34.9535 30.5508 35.106 29.8465 35.106 29.016L36.0047 29.6625H31.2744V28.3065H36.6354V28.5272C36.6354 29.7992 36.4094 30.8662 35.9574 31.7281C35.5159 32.5796 34.8957 33.2208 34.0968 33.6518C33.3084 34.0828 32.4044 34.2983 31.3847 34.2983ZM38.2034 34.1406V26.6509H39.6225V34.1406H38.2034ZM39.6225 29.8675L39.0864 29.631C39.0864 28.6744 39.3071 27.9123 39.7486 27.3446C40.1901 26.777 40.8261 26.4932 41.6565 26.4932C42.035 26.4932 42.3766 26.5615 42.6815 26.6982C42.9863 26.8243 43.2701 27.0398 43.5329 27.3446L42.6026 28.3065C42.4449 28.1383 42.2715 28.0174 42.0823 27.9438C41.8931 27.8702 41.6723 27.8335 41.42 27.8335C40.8944 27.8335 40.4634 28.0016 40.1271 28.338C39.7907 28.6744 39.6225 29.1842 39.6225 29.8675ZM47.5812 34.2983C46.8349 34.2983 46.1621 34.1301 45.5629 33.7937C44.9638 33.4468 44.4907 32.9791 44.1438 32.3904C43.7969 31.8017 43.6235 31.1342 43.6235 30.3879C43.6235 29.652 43.7917 28.9898 44.128 28.4011C44.4749 27.8124 44.9375 27.3499 45.5156 27.0135C46.1043 26.6666 46.7613 26.4932 47.4866 26.4932C48.1804 26.4932 48.7901 26.6509 49.3157 26.9662C49.8518 27.2816 50.267 27.7178 50.5614 28.275C50.8662 28.8321 51.0186 29.4628 51.0186 30.1671C51.0186 30.2722 51.0134 30.3879 51.0029 30.514C50.9924 30.6296 50.9713 30.7663 50.9398 30.924H44.6169V29.7414H50.1829L49.6626 30.1986C49.6626 29.6941 49.5732 29.2683 49.3945 28.9214C49.2158 28.564 48.9635 28.2907 48.6377 28.1015C48.3118 27.9018 47.9176 27.8019 47.4551 27.8019C46.9715 27.8019 46.5458 27.907 46.1779 28.1173C45.81 28.3275 45.5261 28.6218 45.3264 29.0003C45.1267 29.3787 45.0268 29.8255 45.0268 30.3406C45.0268 30.8662 45.1319 31.3287 45.3422 31.7281C45.5524 32.1171 45.852 32.4219 46.241 32.6427C46.6299 32.8529 47.0767 32.958 47.5812 32.958C48.0017 32.958 48.3854 32.8844 48.7323 32.7373C49.0897 32.5901 49.3945 32.3694 49.6468 32.075L50.5614 33.0053C50.204 33.4258 49.7625 33.7464 49.2369 33.9672C48.7218 34.1879 48.1699 34.2983 47.5812 34.2983ZM55.8615 34.2983C55.1151 34.2983 54.4424 34.1301 53.8432 33.7937C53.244 33.4468 52.771 32.9791 52.4241 32.3904C52.0772 31.8017 51.9037 31.1342 51.9037 30.3879C51.9037 29.652 52.0719 28.9898 52.4083 28.4011C52.7552 27.8124 53.2177 27.3499 53.7959 27.0135C54.3846 26.6666 55.0416 26.4932 55.7669 26.4932C56.4607 26.4932 57.0704 26.6509 57.596 26.9662C58.1321 27.2816 58.5473 27.7178 58.8416 28.275C59.1465 28.8321 59.2989 29.4628 59.2989 30.1671C59.2989 30.2722 59.2936 30.3879 59.2831 30.514C59.2726 30.6296 59.2516 30.7663 59.2201 30.924H52.8971V29.7414H58.4632L57.9429 30.1986C57.9429 29.6941 57.8535 29.2683 57.6748 28.9214C57.4961 28.564 57.2438 28.2907 56.9179 28.1015C56.5921 27.9018 56.1979 27.8019 55.7353 27.8019C55.2518 27.8019 54.8261 27.907 54.4581 28.1173C54.0902 28.3275 53.8064 28.6218 53.6067 29.0003C53.4069 29.3787 53.3071 29.8255 53.3071 30.3406C53.3071 30.8662 53.4122 31.3287 53.6224 31.7281C53.8327 32.1171 54.1323 32.4219 54.5212 32.6427C54.9102 32.8529 55.3569 32.958 55.8615 32.958C56.282 32.958 56.6656 32.8844 57.0125 32.7373C57.37 32.5901 57.6748 32.3694 57.9271 32.075L58.8416 33.0053C58.4842 33.4258 58.0427 33.7464 57.5171 33.9672C57.002 34.1879 56.4502 34.2983 55.8615 34.2983ZM65.9708 34.1406V29.7729C65.9708 29.2053 65.7921 28.7375 65.4347 28.3696C65.0773 28.0016 64.6148 27.8177 64.0471 27.8177C63.6687 27.8177 63.3323 27.9018 63.038 28.07C62.7437 28.2382 62.5124 28.4694 62.3442 28.7638C62.176 29.0581 62.0919 29.3945 62.0919 29.7729L61.5085 29.4418C61.5085 28.8741 61.6346 28.3696 61.8869 27.9281C62.1392 27.4866 62.4914 27.1397 62.9434 26.8874C63.3954 26.6246 63.9052 26.4932 64.4729 26.4932C65.0405 26.4932 65.5398 26.6351 65.9708 26.9189C66.4123 27.2027 66.7592 27.5759 67.0115 28.0384C67.2638 28.4904 67.3899 28.974 67.3899 29.4891V34.1406H65.9708ZM60.6728 34.1406V26.6509H62.0919V34.1406H60.6728ZM75.2875 34.1406L71.7081 23.1977H73.1903L76.0285 32.1223H75.6028L78.3937 23.1977H79.466L82.2569 32.1223H81.8469L84.6851 23.1977H86.1516L82.588 34.1406H81.5316L78.7249 25.2317H79.1348L76.3439 34.1406H75.2875ZM89.5764 34.2983C88.8931 34.2983 88.2729 34.1301 87.7158 33.7937C87.1587 33.4468 86.7172 32.9791 86.3913 32.3904C86.0759 31.8017 85.9182 31.1395 85.9182 30.4036C85.9182 29.6678 86.0759 29.0055 86.3913 28.4169C86.7172 27.8282 87.1534 27.3604 87.7 27.0135C88.2572 26.6666 88.8826 26.4932 89.5764 26.4932C90.1441 26.4932 90.6486 26.6141 91.0901 26.8558C91.5421 27.0871 91.9048 27.413 92.1781 27.8335C92.4514 28.2434 92.6039 28.7217 92.6354 29.2683V31.5231C92.6039 32.0593 92.4514 32.5376 92.1781 32.958C91.9153 33.3785 91.5579 33.7096 91.1059 33.9514C90.6644 34.1827 90.1546 34.2983 89.5764 34.2983ZM89.8129 32.958C90.5172 32.958 91.0849 32.7215 91.5159 32.2485C91.9469 31.7649 92.1623 31.15 92.1623 30.4036C92.1623 29.8885 92.0625 29.4418 91.8628 29.0634C91.6735 28.6744 91.4002 28.3748 91.0428 28.1646C90.6854 27.9438 90.2702 27.8335 89.7972 27.8335C89.3241 27.8335 88.9036 27.9438 88.5357 28.1646C88.1783 28.3853 87.8945 28.6902 87.6843 29.0791C87.4845 29.4575 87.3847 29.8938 87.3847 30.3879C87.3847 30.8924 87.4845 31.3392 87.6843 31.7281C87.8945 32.1066 88.1836 32.4062 88.5515 32.6269C88.9194 32.8477 89.3399 32.958 89.8129 32.958ZM92.0677 34.1406V32.1223L92.3358 30.2932L92.0677 28.4799V26.6509H93.5026V34.1406H92.0677ZM95.3953 34.1406V26.6509H96.8144V34.1406H95.3953ZM96.8144 29.8675L96.2783 29.631C96.2783 28.6744 96.499 27.9123 96.9405 27.3446C97.382 26.777 98.018 26.4932 98.8484 26.4932C99.2269 26.4932 99.5685 26.5615 99.8734 26.6982C100.178 26.8243 100.462 27.0398 100.725 27.3446L99.7945 28.3065C99.6368 28.1383 99.4634 28.0174 99.2742 27.9438C99.085 27.8702 98.8642 27.8335 98.6119 27.8335C98.0863 27.8335 97.6553 28.0016 97.319 28.338C96.9826 28.6744 96.8144 29.1842 96.8144 29.8675ZM104.474 34.2983C103.78 34.2983 103.16 34.1301 102.613 33.7937C102.066 33.4468 101.63 32.9791 101.304 32.3904C100.989 31.8017 100.831 31.1395 100.831 30.4036C100.831 29.6678 100.989 29.0055 101.304 28.4169C101.63 27.8282 102.066 27.3604 102.613 27.0135C103.16 26.6666 103.78 26.4932 104.474 26.4932C105.031 26.4932 105.535 26.6141 105.987 26.8558C106.439 27.0871 106.802 27.413 107.075 27.8335C107.359 28.2434 107.517 28.7217 107.548 29.2683V31.5231C107.517 32.0593 107.364 32.5376 107.091 32.958C106.818 33.3785 106.455 33.7096 106.003 33.9514C105.551 34.1827 105.041 34.2983 104.474 34.2983ZM104.71 32.958C105.183 32.958 105.593 32.8477 105.94 32.6269C106.297 32.4062 106.576 32.1066 106.776 31.7281C106.975 31.3392 107.075 30.8977 107.075 30.4036C107.075 29.8885 106.97 29.4418 106.76 29.0634C106.56 28.6849 106.282 28.3853 105.924 28.1646C105.577 27.9438 105.167 27.8335 104.694 27.8335C104.221 27.8335 103.806 27.9438 103.449 28.1646C103.091 28.3853 102.807 28.6902 102.597 29.0791C102.397 29.4575 102.298 29.8938 102.298 30.3879C102.298 30.8924 102.397 31.3392 102.597 31.7281C102.807 32.1066 103.091 32.4062 103.449 32.6269C103.817 32.8477 104.237 32.958 104.71 32.958ZM108.416 34.1406H106.981V32.1223L107.249 30.2932L106.981 28.4799V22.8823H108.416V34.1406ZM110.308 34.1406V26.6509H111.727V34.1406H110.308ZM111.727 29.8675L111.191 29.631C111.191 28.6744 111.412 27.9123 111.853 27.3446C112.295 26.777 112.931 26.4932 113.761 26.4932C114.14 26.4932 114.481 26.5615 114.786 26.6982C115.091 26.8243 115.375 27.0398 115.638 27.3446L114.707 28.3065C114.55 28.1383 114.376 28.0174 114.187 27.9438C113.998 27.8702 113.777 27.8335 113.525 27.8335C112.999 27.8335 112.568 28.0016 112.232 28.338C111.895 28.6744 111.727 29.1842 111.727 29.8675ZM119.639 34.2983C118.903 34.2983 118.241 34.1249 117.652 33.778C117.063 33.4311 116.595 32.9633 116.249 32.3746C115.902 31.7754 115.728 31.1079 115.728 30.3721C115.728 29.6468 115.902 28.995 116.249 28.4169C116.595 27.8282 117.063 27.3604 117.652 27.0135C118.241 26.6666 118.903 26.4932 119.639 26.4932C120.364 26.4932 121.021 26.6666 121.61 27.0135C122.209 27.3499 122.682 27.8124 123.029 28.4011C123.376 28.9898 123.549 29.6468 123.549 30.3721C123.549 31.1079 123.376 31.7754 123.029 32.3746C122.682 32.9633 122.209 33.4311 121.61 33.778C121.021 34.1249 120.364 34.2983 119.639 34.2983ZM119.639 32.9265C120.112 32.9265 120.532 32.8161 120.9 32.5954C121.268 32.3746 121.557 32.075 121.767 31.6966C121.978 31.3077 122.083 30.8662 122.083 30.3721C122.083 29.8885 121.972 29.4575 121.752 29.0791C121.541 28.7007 121.252 28.4064 120.884 28.1961C120.527 27.9754 120.112 27.865 119.639 27.865C119.166 27.865 118.745 27.9754 118.377 28.1961C118.009 28.4064 117.72 28.7007 117.51 29.0791C117.3 29.4575 117.195 29.8885 117.195 30.3721C117.195 30.8662 117.3 31.3077 117.51 31.6966C117.72 32.075 118.009 32.3746 118.377 32.5954C118.745 32.8161 119.166 32.9265 119.639 32.9265ZM128.917 34.2983C128.349 34.2983 127.834 34.1827 127.371 33.9514C126.919 33.7096 126.557 33.3785 126.283 32.958C126.01 32.5376 125.858 32.0593 125.826 31.5231V29.2683C125.858 28.7217 126.01 28.2434 126.283 27.8335C126.567 27.413 126.935 27.0871 127.387 26.8558C127.85 26.6141 128.36 26.4932 128.917 26.4932C129.6 26.4932 130.215 26.6666 130.762 27.0135C131.319 27.3604 131.755 27.8282 132.07 28.4169C132.386 29.0055 132.543 29.6678 132.543 30.4036C132.543 31.1395 132.386 31.8017 132.07 32.3904C131.755 32.9791 131.319 33.4468 130.762 33.7937C130.215 34.1301 129.6 34.2983 128.917 34.2983ZM128.68 32.958C129.153 32.958 129.568 32.8477 129.926 32.6269C130.283 32.4062 130.567 32.1066 130.777 31.7281C130.988 31.3392 131.093 30.8924 131.093 30.3879C131.093 29.8938 130.988 29.4523 130.777 29.0634C130.567 28.6744 130.283 28.3748 129.926 28.1646C129.568 27.9438 129.158 27.8335 128.696 27.8335C128.223 27.8335 127.808 27.9438 127.45 28.1646C127.093 28.3748 126.814 28.6744 126.615 29.0634C126.415 29.4523 126.315 29.8991 126.315 30.4036C126.315 30.8977 126.41 31.3392 126.599 31.7281C126.798 32.1066 127.077 32.4062 127.434 32.6269C127.802 32.8477 128.218 32.958 128.68 32.958ZM124.975 34.1406V22.8823H126.394V28.4799L126.126 30.2932L126.394 32.1223V34.1406H124.975ZM137.448 34.2983C136.701 34.2983 136.028 34.1301 135.429 33.7937C134.83 33.4468 134.357 32.9791 134.01 32.3904C133.663 31.8017 133.49 31.1342 133.49 30.3879C133.49 29.652 133.658 28.9898 133.994 28.4011C134.341 27.8124 134.804 27.3499 135.382 27.0135C135.971 26.6666 136.628 26.4932 137.353 26.4932C138.047 26.4932 138.656 26.6509 139.182 26.9662C139.718 27.2816 140.133 27.7178 140.428 28.275C140.733 28.8321 140.885 29.4628 140.885 30.1671C140.885 30.2722 140.88 30.3879 140.869 30.514C140.859 30.6296 140.838 30.7663 140.806 30.924H134.483V29.7414H140.049L139.529 30.1986C139.529 29.6941 139.44 29.2683 139.261 28.9214C139.082 28.564 138.83 28.2907 138.504 28.1015C138.178 27.9018 137.784 27.8019 137.321 27.8019C136.838 27.8019 136.412 27.907 136.044 28.1173C135.676 28.3275 135.393 28.6218 135.193 29.0003C134.993 29.3787 134.893 29.8255 134.893 30.3406C134.893 30.8662 134.998 31.3287 135.209 31.7281C135.419 32.1171 135.718 32.4219 136.107 32.6427C136.496 32.8529 136.943 32.958 137.448 32.958C137.868 32.958 138.252 32.8844 138.599 32.7373C138.956 32.5901 139.261 32.3694 139.513 32.075L140.428 33.0053C140.07 33.4258 139.629 33.7464 139.103 33.9672C138.588 34.1879 138.036 34.2983 137.448 34.2983ZM31.4005 58.2983C30.6121 58.2983 29.8815 58.1564 29.2088 57.8726C28.536 57.5782 27.9473 57.1735 27.4427 56.6584C26.9487 56.1434 26.565 55.5442 26.2917 54.8609C26.0184 54.1776 25.8817 53.447 25.8817 52.6692C25.8817 51.8808 26.0184 51.1449 26.2917 50.4616C26.565 49.7784 26.9487 49.1844 27.4427 48.6799C27.9473 48.1648 28.5307 47.7653 29.193 47.4815C29.8657 47.1872 30.5963 47.04 31.3847 47.04C32.2467 47.04 33.0036 47.1872 33.6553 47.4815C34.3071 47.7758 34.8852 48.1753 35.3898 48.6799L34.3649 49.7048C34.018 49.3158 33.5922 49.011 33.0877 48.7902C32.5936 48.5695 32.026 48.4591 31.3847 48.4591C30.8066 48.4591 30.2757 48.5642 29.7922 48.7745C29.3086 48.9742 28.8881 49.2633 28.5307 49.6417C28.1733 50.0201 27.8948 50.4669 27.695 50.982C27.5058 51.4971 27.4112 52.0595 27.4112 52.6692C27.4112 53.2788 27.5058 53.8412 27.695 54.3563C27.8948 54.8714 28.1733 55.3182 28.5307 55.6966C28.8881 56.075 29.3086 56.3694 29.7922 56.5796C30.2757 56.7793 30.8066 56.8792 31.3847 56.8792C32.068 56.8792 32.6619 56.7688 33.1665 56.5481C33.6711 56.3168 34.0968 56.0067 34.4437 55.6178L35.4686 56.6269C34.964 57.1525 34.3701 57.5625 33.6868 57.8568C33.0141 58.1511 32.252 58.2983 31.4005 58.2983ZM36.8637 58.1406V46.8823H38.2828V58.1406H36.8637ZM43.1974 58.2983C42.5877 58.2983 42.0358 58.1616 41.5417 57.8883C41.0582 57.6045 40.6798 57.2156 40.4064 56.7215C40.1331 56.2274 39.9965 55.6545 39.9965 55.0028V50.6509H41.4156V54.9397C41.4156 55.3497 41.4839 55.7071 41.6206 56.012C41.7677 56.3063 41.978 56.5323 42.2513 56.69C42.5246 56.8477 42.8452 56.9265 43.2131 56.9265C43.7703 56.9265 44.2065 56.753 44.5219 56.4062C44.8372 56.0487 44.9949 55.5599 44.9949 54.9397V50.6509H46.414V55.0028C46.414 55.6545 46.2774 56.2274 46.0041 56.7215C45.7308 57.2156 45.3523 57.6045 44.8688 57.8883C44.3957 58.1616 43.8386 58.2983 43.1974 58.2983ZM52.0846 58.2983C51.5169 58.2983 51.0018 58.1827 50.5393 57.9514C50.0873 57.7096 49.7246 57.3785 49.4513 56.958C49.178 56.5376 49.0256 56.0593 48.9941 55.5231V53.2683C49.0256 52.7217 49.178 52.2434 49.4513 51.8335C49.7352 51.413 50.1031 51.0871 50.5551 50.8558C51.0176 50.6141 51.5274 50.4932 52.0846 50.4932C52.7678 50.4932 53.3828 50.6666 53.9294 51.0135C54.4866 51.3604 54.9228 51.8282 55.2382 52.4169C55.5535 53.0055 55.7112 53.6678 55.7112 54.4036C55.7112 55.1395 55.5535 55.8017 55.2382 56.3904C54.9228 56.9791 54.4866 57.4468 53.9294 57.7937C53.3828 58.1301 52.7678 58.2983 52.0846 58.2983ZM51.8481 56.958C52.3211 56.958 52.7363 56.8477 53.0937 56.6269C53.4511 56.4062 53.735 56.1066 53.9452 55.7281C54.1554 55.3392 54.2605 54.8924 54.2605 54.3879C54.2605 53.8938 54.1554 53.4523 53.9452 53.0634C53.735 52.6744 53.4511 52.3748 53.0937 52.1646C52.7363 51.9438 52.3263 51.8335 51.8638 51.8335C51.3908 51.8335 50.9756 51.9438 50.6182 52.1646C50.2607 52.3748 49.9822 52.6744 49.7825 53.0634C49.5827 53.4523 49.4829 53.8991 49.4829 54.4036C49.4829 54.8977 49.5775 55.3392 49.7667 55.7281C49.9664 56.1066 50.245 56.4062 50.6024 56.6269C50.9703 56.8477 51.3855 56.958 51.8481 56.958ZM48.1426 58.1406V46.8823H49.5617V52.4799L49.2936 54.2932L49.5617 56.1223V58.1406H48.1426Z" fill="#242424"/>
<path d="M25.7706 145.348V139.614H29.3654V140.359H26.6357V142.106H29.1778V142.848H26.6357V144.603H29.399V145.348H25.7706ZM33.9591 141.047L32.3997 145.348H31.5038L29.9416 141.047H30.8403L31.9293 144.357H31.9741L33.0604 141.047H33.9591ZM36.2291 147.05C35.8876 147.05 35.5936 147.005 35.3472 146.915C35.1027 146.826 34.903 146.707 34.7481 146.56C34.5932 146.412 34.4774 146.251 34.4009 146.076L35.1204 145.779C35.1708 145.861 35.238 145.948 35.322 146.039C35.4079 146.133 35.5236 146.212 35.6692 146.277C35.8166 146.342 36.0061 146.375 36.2375 146.375C36.5548 146.375 36.8171 146.298 37.0242 146.143C37.2314 145.99 37.335 145.745 37.335 145.409V144.564H37.2818C37.2314 144.655 37.1586 144.757 37.0634 144.869C36.9701 144.981 36.8413 145.078 36.6771 145.16C36.5128 145.242 36.2991 145.283 36.0359 145.283C35.6962 145.283 35.3901 145.204 35.1176 145.045C34.847 144.885 34.6324 144.649 34.4737 144.337C34.3169 144.023 34.2385 143.638 34.2385 143.181C34.2385 142.723 34.316 142.331 34.4709 142.005C34.6277 141.678 34.8423 141.428 35.1148 141.254C35.3873 141.079 35.6962 140.991 36.0415 140.991C36.3084 140.991 36.524 141.036 36.6883 141.126C36.8525 141.213 36.9804 141.316 37.0718 141.434C37.1652 141.551 37.237 141.655 37.2874 141.744H37.349V141.047H38.1693V145.443C38.1693 145.812 38.0835 146.116 37.9117 146.353C37.74 146.59 37.5077 146.765 37.2146 146.879C36.9234 146.993 36.5949 147.05 36.2291 147.05ZM36.2207 144.589C36.4615 144.589 36.6649 144.533 36.8311 144.421C36.999 144.307 37.126 144.145 37.2118 143.934C37.2995 143.721 37.3434 143.466 37.3434 143.169C37.3434 142.88 37.3005 142.625 37.2146 142.405C37.1288 142.185 37.0028 142.013 36.8367 141.89C36.6705 141.765 36.4652 141.702 36.2207 141.702C35.9687 141.702 35.7588 141.768 35.5908 141.898C35.4228 142.027 35.2959 142.203 35.21 142.425C35.126 142.647 35.084 142.895 35.084 143.169C35.084 143.451 35.127 143.699 35.2128 143.911C35.2987 144.124 35.4256 144.29 35.5936 144.41C35.7634 144.529 35.9725 144.589 36.2207 144.589ZM40.972 145.434C40.5483 145.434 40.1834 145.344 39.8773 145.163C39.573 144.98 39.3379 144.723 39.1717 144.393C39.0075 144.061 38.9254 143.672 38.9254 143.225C38.9254 142.785 39.0075 142.397 39.1717 142.061C39.3379 141.725 39.5693 141.463 39.8661 141.274C40.1647 141.086 40.5137 140.991 40.9132 140.991C41.1558 140.991 41.391 141.031 41.6187 141.112C41.8464 141.192 42.0508 141.318 42.2318 141.49C42.4129 141.661 42.5557 141.884 42.6602 142.159C42.7647 142.431 42.817 142.763 42.817 143.153V143.449H39.3985V142.822H41.9966C41.9966 142.602 41.9519 142.407 41.8623 142.237C41.7727 142.065 41.6467 141.93 41.4843 141.831C41.3238 141.732 41.1353 141.683 40.9188 141.683C40.6836 141.683 40.4783 141.741 40.3028 141.856C40.1292 141.97 39.9949 142.12 39.8997 142.304C39.8063 142.487 39.7597 142.686 39.7597 142.901V143.391C39.7597 143.678 39.8101 143.923 39.9109 144.124C40.0135 144.326 40.1563 144.48 40.3392 144.586C40.5221 144.691 40.7358 144.743 40.9804 144.743C41.139 144.743 41.2837 144.721 41.4143 144.676C41.545 144.629 41.6579 144.56 41.7531 144.469C41.8483 144.377 41.9211 144.264 41.9714 144.13L42.7638 144.273C42.7003 144.506 42.5865 144.71 42.4222 144.886C42.2598 145.059 42.0554 145.195 41.8091 145.292C41.5646 145.387 41.2855 145.434 40.972 145.434ZM44.4094 142.794V145.348H43.5723V141.047H44.3758V141.747H44.429C44.5279 141.52 44.6829 141.337 44.8938 141.198C45.1066 141.06 45.3744 140.991 45.6973 140.991C45.9903 140.991 46.247 141.053 46.4672 141.176C46.6875 141.297 46.8582 141.478 46.9796 141.719C47.1009 141.96 47.1615 142.258 47.1615 142.612V145.348H46.3244V142.713C46.3244 142.401 46.2432 142.158 46.0808 141.982C45.9185 141.805 45.6954 141.716 45.4117 141.716C45.2176 141.716 45.045 141.758 44.8938 141.842C44.7445 141.926 44.6259 142.05 44.5382 142.212C44.4524 142.373 44.4094 142.567 44.4094 142.794ZM48.1108 145.348V141.047H48.9479V145.348H48.1108ZM48.5335 140.384C48.3879 140.384 48.2629 140.335 48.1584 140.238C48.0557 140.139 48.0044 140.022 48.0044 139.885C48.0044 139.747 48.0557 139.63 48.1584 139.533C48.2629 139.434 48.3879 139.384 48.5335 139.384C48.6791 139.384 48.8032 139.434 48.9059 139.533C49.0104 139.63 49.0627 139.747 49.0627 139.885C49.0627 140.022 49.0104 140.139 48.9059 140.238C48.8032 140.335 48.6791 140.384 48.5335 140.384ZM51.1521 145.443C50.8796 145.443 50.6332 145.392 50.413 145.292C50.1927 145.189 50.0182 145.041 49.8894 144.847C49.7625 144.652 49.699 144.414 49.699 144.133C49.699 143.89 49.7457 143.69 49.839 143.533C49.9323 143.377 50.0583 143.253 50.217 143.161C50.3756 143.07 50.5529 143.001 50.7489 142.954C50.9449 142.907 51.1446 142.872 51.3481 142.848C51.6056 142.818 51.8147 142.793 51.9752 142.775C52.1357 142.754 52.2524 142.722 52.3252 142.677C52.3979 142.632 52.4343 142.559 52.4343 142.458V142.439C52.4343 142.194 52.3653 142.005 52.2272 141.87C52.0909 141.736 51.8875 141.669 51.6168 141.669C51.335 141.669 51.1129 141.731 50.9505 141.856C50.79 141.98 50.6789 142.117 50.6173 142.268L49.8306 142.089C49.9239 141.827 50.0602 141.617 50.2394 141.456C50.4204 141.294 50.6285 141.176 50.8637 141.103C51.0989 141.029 51.3462 140.991 51.6056 140.991C51.7773 140.991 51.9593 141.012 52.1516 141.053C52.3457 141.092 52.5267 141.165 52.6947 141.271C52.8646 141.378 53.0036 141.53 53.1119 141.728C53.2201 141.924 53.2743 142.178 53.2743 142.492V145.348H52.4567V144.76H52.4231C52.369 144.868 52.2878 144.974 52.1796 145.079C52.0713 145.183 51.9323 145.27 51.7624 145.339C51.5926 145.408 51.3891 145.443 51.1521 145.443ZM51.3341 144.771C51.5655 144.771 51.7634 144.725 51.9276 144.634C52.0937 144.542 52.2197 144.423 52.3056 144.275C52.3933 144.126 52.4371 143.966 52.4371 143.797V143.242C52.4073 143.272 52.3494 143.3 52.2636 143.326C52.1796 143.351 52.0834 143.372 51.9752 143.391C51.8669 143.407 51.7615 143.423 51.6588 143.438C51.5562 143.451 51.4703 143.463 51.4013 143.472C51.2389 143.492 51.0905 143.527 50.9561 143.575C50.8236 143.624 50.7172 143.694 50.6369 143.785C50.5585 143.875 50.5193 143.994 50.5193 144.144C50.5193 144.351 50.5959 144.508 50.7489 144.614C50.902 144.719 51.097 144.771 51.3341 144.771Z" fill="black" fill-opacity="0.4"/>
</g>
<g filter="url(#filter1_ddd_401_5874)">
<rect width="158" height="158" transform="translate(200 3)" fill="#8BADAF"/>
<path d="M217.335 34.1406V23.513H218.817V34.1406H217.335ZM213.614 24.5537V23.1977H222.523V24.5537H213.614ZM229.161 34.1406V29.7729C229.161 29.2053 228.982 28.7375 228.625 28.3696C228.267 28.0016 227.805 27.8177 227.237 27.8177C226.859 27.8177 226.522 27.9018 226.228 28.07C225.934 28.2382 225.702 28.4694 225.534 28.7638C225.366 29.0581 225.282 29.3945 225.282 29.7729L224.699 29.4418C224.699 28.8741 224.825 28.3696 225.077 27.9281C225.329 27.4866 225.681 27.1397 226.133 26.8874C226.585 26.6246 227.095 26.4932 227.663 26.4932C228.231 26.4932 228.73 26.6193 229.161 26.8716C229.602 27.1239 229.949 27.476 230.202 27.9281C230.454 28.3801 230.58 28.9004 230.58 29.4891V34.1406H229.161ZM223.863 34.1406V22.8823H225.282V34.1406H223.863ZM235.797 34.2983C235.05 34.2983 234.378 34.1301 233.779 33.7937C233.179 33.4468 232.706 32.9791 232.359 32.3904C232.012 31.8017 231.839 31.1342 231.839 30.3879C231.839 29.652 232.007 28.9898 232.344 28.4011C232.691 27.8124 233.153 27.3499 233.731 27.0135C234.32 26.6666 234.977 26.4932 235.702 26.4932C236.396 26.4932 237.006 26.6509 237.531 26.9662C238.067 27.2816 238.483 27.7178 238.777 28.275C239.082 28.8321 239.234 29.4628 239.234 30.1671C239.234 30.2722 239.229 30.3879 239.218 30.514C239.208 30.6296 239.187 30.7663 239.155 30.924H232.832V29.7414H238.399L237.878 30.1986C237.878 29.6941 237.789 29.2683 237.61 28.9214C237.431 28.564 237.179 28.2907 236.853 28.1015C236.527 27.9018 236.133 27.8019 235.671 27.8019C235.187 27.8019 234.761 27.907 234.393 28.1173C234.026 28.3275 233.742 28.6218 233.542 29.0003C233.342 29.3787 233.242 29.8255 233.242 30.3406C233.242 30.8662 233.348 31.3287 233.558 31.7281C233.768 32.1171 234.068 32.4219 234.457 32.6427C234.845 32.8529 235.292 32.958 235.797 32.958C236.217 32.958 236.601 32.8844 236.948 32.7373C237.305 32.5901 237.61 32.3694 237.862 32.075L238.777 33.0053C238.42 33.4258 237.978 33.7464 237.452 33.9672C236.937 34.1879 236.385 34.2983 235.797 34.2983ZM248.934 34.2983C248.145 34.2983 247.415 34.1564 246.742 33.8726C246.069 33.5782 245.481 33.1735 244.976 32.6584C244.482 32.1434 244.098 31.5442 243.825 30.8609C243.552 30.1776 243.415 29.447 243.415 28.6692C243.415 27.8808 243.552 27.1449 243.825 26.4616C244.098 25.7784 244.482 25.1844 244.976 24.6799C245.481 24.1648 246.064 23.7653 246.726 23.4815C247.399 23.1872 248.13 23.04 248.918 23.04C249.78 23.04 250.537 23.1872 251.189 23.4815C251.84 23.7758 252.418 24.1753 252.923 24.6799L251.898 25.7048C251.551 25.3158 251.125 25.011 250.621 24.7902C250.127 24.5695 249.559 24.4591 248.918 24.4591C248.34 24.4591 247.809 24.5642 247.325 24.7745C246.842 24.9742 246.421 25.2633 246.064 25.6417C245.707 26.0201 245.428 26.4669 245.228 26.982C245.039 27.4971 244.944 28.0595 244.944 28.6692C244.944 29.2788 245.039 29.8412 245.228 30.3563C245.428 30.8714 245.707 31.3182 246.064 31.6966C246.421 32.075 246.842 32.3694 247.325 32.5796C247.809 32.7793 248.34 32.8792 248.918 32.8792C249.601 32.8792 250.195 32.7688 250.7 32.5481C251.204 32.3168 251.63 32.0067 251.977 31.6178L253.002 32.6269C252.497 33.1525 251.903 33.5625 251.22 33.8568C250.547 34.1511 249.785 34.2983 248.934 34.2983ZM257.557 34.2983C256.821 34.2983 256.159 34.1249 255.57 33.778C254.981 33.4311 254.514 32.9633 254.167 32.3746C253.82 31.7754 253.646 31.1079 253.646 30.3721C253.646 29.6468 253.82 28.995 254.167 28.4169C254.514 27.8282 254.981 27.3604 255.57 27.0135C256.159 26.6666 256.821 26.4932 257.557 26.4932C258.282 26.4932 258.939 26.6666 259.528 27.0135C260.127 27.3499 260.6 27.8124 260.947 28.4011C261.294 28.9898 261.467 29.6468 261.467 30.3721C261.467 31.1079 261.294 31.7754 260.947 32.3746C260.6 32.9633 260.127 33.4311 259.528 33.778C258.939 34.1249 258.282 34.2983 257.557 34.2983ZM257.557 32.9265C258.03 32.9265 258.45 32.8161 258.818 32.5954C259.186 32.3746 259.475 32.075 259.685 31.6966C259.896 31.3077 260.001 30.8662 260.001 30.3721C260.001 29.8885 259.89 29.4575 259.67 29.0791C259.459 28.7007 259.17 28.4064 258.802 28.1961C258.445 27.9754 258.03 27.865 257.557 27.865C257.084 27.865 256.663 27.9754 256.295 28.1961C255.927 28.4064 255.638 28.7007 255.428 29.0791C255.218 29.4575 255.113 29.8885 255.113 30.3721C255.113 30.8662 255.218 31.3077 255.428 31.6966C255.638 32.075 255.927 32.3746 256.295 32.5954C256.663 32.8161 257.084 32.9265 257.557 32.9265ZM262.893 34.1406V22.8823H264.312V34.1406H262.893ZM266.215 34.1406V22.8823H267.634V34.1406H266.215ZM273.006 34.2983C272.259 34.2983 271.587 34.1301 270.987 33.7937C270.388 33.4468 269.915 32.9791 269.568 32.3904C269.221 31.8017 269.048 31.1342 269.048 30.3879C269.048 29.652 269.216 28.9898 269.552 28.4011C269.899 27.8124 270.362 27.3499 270.94 27.0135C271.529 26.6666 272.186 26.4932 272.911 26.4932C273.605 26.4932 274.215 26.6509 274.74 26.9662C275.276 27.2816 275.691 27.7178 275.986 28.275C276.291 28.8321 276.443 29.4628 276.443 30.1671C276.443 30.2722 276.438 30.3879 276.427 30.514C276.417 30.6296 276.396 30.7663 276.364 30.924H270.041V29.7414H275.607L275.087 30.1986C275.087 29.6941 274.998 29.2683 274.819 28.9214C274.64 28.564 274.388 28.2907 274.062 28.1015C273.736 27.9018 273.342 27.8019 272.88 27.8019C272.396 27.8019 271.97 27.907 271.602 28.1173C271.234 28.3275 270.951 28.6218 270.751 29.0003C270.551 29.3787 270.451 29.8255 270.451 30.3406C270.451 30.8662 270.556 31.3287 270.767 31.7281C270.977 32.1171 271.276 32.4219 271.665 32.6427C272.054 32.8529 272.501 32.958 273.006 32.958C273.426 32.958 273.81 32.8844 274.157 32.7373C274.514 32.5901 274.819 32.3694 275.071 32.075L275.986 33.0053C275.628 33.4258 275.187 33.7464 274.661 33.9672C274.146 34.1879 273.594 34.2983 273.006 34.2983ZM281.239 34.2983C280.503 34.2983 279.835 34.1249 279.236 33.778C278.647 33.4311 278.18 32.9633 277.833 32.3746C277.496 31.7754 277.328 31.1132 277.328 30.3879C277.328 29.652 277.496 28.9898 277.833 28.4011C278.18 27.8124 278.647 27.3499 279.236 27.0135C279.835 26.6666 280.503 26.4932 281.239 26.4932C281.817 26.4932 282.353 26.6036 282.847 26.8243C283.341 27.0345 283.767 27.3446 284.124 27.7546L283.178 28.7007C282.947 28.4274 282.663 28.2224 282.327 28.0857C282.001 27.9386 281.638 27.865 281.239 27.865C280.766 27.865 280.345 27.9754 279.977 28.1961C279.609 28.4064 279.32 28.7007 279.11 29.0791C278.9 29.4575 278.795 29.8938 278.795 30.3879C278.795 30.8819 278.9 31.3182 279.11 31.6966C279.32 32.075 279.609 32.3746 279.977 32.5954C280.345 32.8161 280.766 32.9265 281.239 32.9265C281.638 32.9265 282.001 32.8582 282.327 32.7215C282.663 32.5743 282.952 32.3641 283.194 32.0908L284.124 33.0369C283.777 33.4363 283.352 33.7464 282.847 33.9672C282.353 34.1879 281.817 34.2983 281.239 34.2983ZM286.417 34.1406V23.513H287.836V34.1406H286.417ZM284.572 27.9438V26.6509H289.681V27.9438H284.572ZM290.913 34.1406V26.6509H292.332V34.1406H290.913ZM291.623 25.1529C291.36 25.1529 291.145 25.0688 290.976 24.9006C290.808 24.7219 290.724 24.5012 290.724 24.2384C290.724 23.9861 290.808 23.7758 290.976 23.6076C291.145 23.4289 291.36 23.3396 291.623 23.3396C291.886 23.3396 292.101 23.4289 292.269 23.6076C292.437 23.7758 292.522 23.9861 292.522 24.2384C292.522 24.5012 292.437 24.7219 292.269 24.9006C292.101 25.0688 291.886 25.1529 291.623 25.1529ZM296.82 34.1406L293.383 26.6509H294.96L297.719 32.9738H296.805L299.58 26.6509H301.094L297.656 34.1406H296.82ZM305.307 34.2983C304.56 34.2983 303.887 34.1301 303.288 33.7937C302.689 33.4468 302.216 32.9791 301.869 32.3904C301.522 31.8017 301.349 31.1342 301.349 30.3879C301.349 29.652 301.517 28.9898 301.853 28.4011C302.2 27.8124 302.663 27.3499 303.241 27.0135C303.83 26.6666 304.487 26.4932 305.212 26.4932C305.906 26.4932 306.515 26.6509 307.041 26.9662C307.577 27.2816 307.992 27.7178 308.287 28.275C308.592 28.8321 308.744 29.4628 308.744 30.1671C308.744 30.2722 308.739 30.3879 308.728 30.514C308.718 30.6296 308.697 30.7663 308.665 30.924H302.342V29.7414H307.908L307.388 30.1986C307.388 29.6941 307.299 29.2683 307.12 28.9214C306.941 28.564 306.689 28.2907 306.363 28.1015C306.037 27.9018 305.643 27.8019 305.18 27.8019C304.697 27.8019 304.271 27.907 303.903 28.1173C303.535 28.3275 303.251 28.6218 303.052 29.0003C302.852 29.3787 302.752 29.8255 302.752 30.3406C302.752 30.8662 302.857 31.3287 303.067 31.7281C303.278 32.1171 303.577 32.4219 303.966 32.6427C304.355 32.8529 304.802 32.958 305.307 32.958C305.727 32.958 306.111 32.8844 306.458 32.7373C306.815 32.5901 307.12 32.3694 307.372 32.075L308.287 33.0053C307.929 33.4258 307.488 33.7464 306.962 33.9672C306.447 34.1879 305.895 34.2983 305.307 34.2983ZM216.326 58.1406L213.361 50.6509H214.844L216.988 56.485H216.515L218.644 50.6509H219.464L221.592 56.485H221.119L223.264 50.6509H224.746L221.797 58.1406H220.962L218.801 52.4799H219.322L217.146 58.1406H216.326ZM228.803 58.2983C228.12 58.2983 227.5 58.1301 226.943 57.7937C226.386 57.4468 225.944 56.9791 225.618 56.3904C225.303 55.8017 225.145 55.1395 225.145 54.4036C225.145 53.6678 225.303 53.0055 225.618 52.4169C225.944 51.8282 226.38 51.3604 226.927 51.0135C227.484 50.6666 228.11 50.4932 228.803 50.4932C229.371 50.4932 229.876 50.6141 230.317 50.8558C230.769 51.0871 231.132 51.413 231.405 51.8335C231.678 52.2434 231.831 52.7217 231.862 53.2683V55.5231C231.831 56.0593 231.678 56.5376 231.405 56.958C231.142 57.3785 230.785 57.7096 230.333 57.9514C229.891 58.1827 229.382 58.2983 228.803 58.2983ZM229.04 56.958C229.744 56.958 230.312 56.7215 230.743 56.2485C231.174 55.7649 231.389 55.15 231.389 54.4036C231.389 53.8885 231.289 53.4418 231.09 53.0634C230.9 52.6744 230.627 52.3748 230.27 52.1646C229.912 51.9438 229.497 51.8335 229.024 51.8335C228.551 51.8335 228.131 51.9438 227.763 52.1646C227.405 52.3853 227.121 52.6902 226.911 53.0791C226.711 53.4575 226.612 53.8938 226.612 54.3879C226.612 54.8924 226.711 55.3392 226.911 55.7281C227.121 56.1066 227.411 56.4062 227.778 56.6269C228.146 56.8477 228.567 56.958 229.04 56.958ZM231.295 58.1406V56.1223L231.563 54.2932L231.295 52.4799V50.6509H232.73V58.1406H231.295ZM234.622 58.1406V50.6509H236.041V58.1406H234.622ZM236.041 53.8675L235.505 53.631C235.505 52.6744 235.726 51.9123 236.167 51.3446C236.609 50.777 237.245 50.4932 238.075 50.4932C238.454 50.4932 238.795 50.5615 239.1 50.6982C239.405 50.8243 239.689 51.0398 239.952 51.3446L239.021 52.3065C238.864 52.1383 238.69 52.0174 238.501 51.9438C238.312 51.8702 238.091 51.8335 237.839 51.8335C237.313 51.8335 236.882 52.0016 236.546 52.338C236.21 52.6744 236.041 53.1842 236.041 53.8675ZM243.7 58.2983C243.007 58.2983 242.386 58.1301 241.84 57.7937C241.293 57.4468 240.857 56.9791 240.531 56.3904C240.216 55.8017 240.058 55.1395 240.058 54.4036C240.058 53.6678 240.216 53.0055 240.531 52.4169C240.857 51.8282 241.293 51.3604 241.84 51.0135C242.386 50.6666 243.007 50.4932 243.7 50.4932C244.258 50.4932 244.762 50.6141 245.214 50.8558C245.666 51.0871 246.029 51.413 246.302 51.8335C246.586 52.2434 246.744 52.7217 246.775 53.2683V55.5231C246.744 56.0593 246.591 56.5376 246.318 56.958C246.045 57.3785 245.682 57.7096 245.23 57.9514C244.778 58.1827 244.268 58.2983 243.7 58.2983ZM243.937 56.958C244.41 56.958 244.82 56.8477 245.167 56.6269C245.524 56.4062 245.803 56.1066 246.003 55.7281C246.202 55.3392 246.302 54.8977 246.302 54.4036C246.302 53.8885 246.197 53.4418 245.987 53.0634C245.787 52.6849 245.509 52.3853 245.151 52.1646C244.804 51.9438 244.394 51.8335 243.921 51.8335C243.448 51.8335 243.033 51.9438 242.676 52.1646C242.318 52.3853 242.034 52.6902 241.824 53.0791C241.624 53.4575 241.525 53.8938 241.525 54.3879C241.525 54.8924 241.624 55.3392 241.824 55.7281C242.034 56.1066 242.318 56.4062 242.676 56.6269C243.043 56.8477 243.464 56.958 243.937 56.958ZM247.642 58.1406H246.208V56.1223L246.476 54.2932L246.208 52.4799V46.8823H247.642V58.1406ZM249.535 58.1406V50.6509H250.954V58.1406H249.535ZM250.954 53.8675L250.418 53.631C250.418 52.6744 250.639 51.9123 251.08 51.3446C251.522 50.777 252.158 50.4932 252.988 50.4932C253.367 50.4932 253.708 50.5615 254.013 50.6982C254.318 50.8243 254.602 51.0398 254.865 51.3446L253.934 52.3065C253.777 52.1383 253.603 52.0174 253.414 51.9438C253.225 51.8702 253.004 51.8335 252.752 51.8335C252.226 51.8335 251.795 52.0016 251.459 52.338C251.122 52.6744 250.954 53.1842 250.954 53.8675ZM258.866 58.2983C258.13 58.2983 257.468 58.1249 256.879 57.778C256.29 57.4311 255.822 56.9633 255.476 56.3746C255.129 55.7754 254.955 55.1079 254.955 54.3721C254.955 53.6468 255.129 52.995 255.476 52.4169C255.822 51.8282 256.29 51.3604 256.879 51.0135C257.468 50.6666 258.13 50.4932 258.866 50.4932C259.591 50.4932 260.248 50.6666 260.837 51.0135C261.436 51.3499 261.909 51.8124 262.256 52.4011C262.603 52.9898 262.776 53.6468 262.776 54.3721C262.776 55.1079 262.603 55.7754 262.256 56.3746C261.909 56.9633 261.436 57.4311 260.837 57.778C260.248 58.1249 259.591 58.2983 258.866 58.2983ZM258.866 56.9265C259.339 56.9265 259.759 56.8161 260.127 56.5954C260.495 56.3746 260.784 56.075 260.994 55.6966C261.205 55.3077 261.31 54.8662 261.31 54.3721C261.31 53.8885 261.199 53.4575 260.979 53.0791C260.768 52.7007 260.479 52.4064 260.111 52.1961C259.754 51.9754 259.339 51.865 258.866 51.865C258.393 51.865 257.972 51.9754 257.604 52.1961C257.236 52.4064 256.947 52.7007 256.737 53.0791C256.527 53.4575 256.422 53.8885 256.422 54.3721C256.422 54.8662 256.527 55.3077 256.737 55.6966C256.947 56.075 257.236 56.3746 257.604 56.5954C257.972 56.8161 258.393 56.9265 258.866 56.9265ZM268.144 58.2983C267.576 58.2983 267.061 58.1827 266.598 57.9514C266.146 57.7096 265.784 57.3785 265.51 56.958C265.237 56.5376 265.085 56.0593 265.053 55.5231V53.2683C265.085 52.7217 265.237 52.2434 265.51 51.8335C265.794 51.413 266.162 51.0871 266.614 50.8558C267.077 50.6141 267.586 50.4932 268.144 50.4932C268.827 50.4932 269.442 50.6666 269.988 51.0135C270.546 51.3604 270.982 51.8282 271.297 52.4169C271.613 53.0055 271.77 53.6678 271.77 54.4036C271.77 55.1395 271.613 55.8017 271.297 56.3904C270.982 56.9791 270.546 57.4468 269.988 57.7937C269.442 58.1301 268.827 58.2983 268.144 58.2983ZM267.907 56.958C268.38 56.958 268.795 56.8477 269.153 56.6269C269.51 56.4062 269.794 56.1066 270.004 55.7281C270.214 55.3392 270.32 54.8924 270.32 54.3879C270.32 53.8938 270.214 53.4523 270.004 53.0634C269.794 52.6744 269.51 52.3748 269.153 52.1646C268.795 51.9438 268.385 51.8335 267.923 51.8335C267.45 51.8335 267.035 51.9438 266.677 52.1646C266.32 52.3748 266.041 52.6744 265.841 53.0634C265.642 53.4523 265.542 53.8991 265.542 54.4036C265.542 54.8977 265.637 55.3392 265.826 55.7281C266.025 56.1066 266.304 56.4062 266.661 56.6269C267.029 56.8477 267.445 56.958 267.907 56.958ZM264.202 58.1406V46.8823H265.621V52.4799L265.353 54.2932L265.621 56.1223V58.1406H264.202ZM276.675 58.2983C275.928 58.2983 275.255 58.1301 274.656 57.7937C274.057 57.4468 273.584 56.9791 273.237 56.3904C272.89 55.8017 272.717 55.1342 272.717 54.3879C272.717 53.652 272.885 52.9898 273.221 52.4011C273.568 51.8124 274.031 51.3499 274.609 51.0135C275.198 50.6666 275.855 50.4932 276.58 50.4932C277.274 50.4932 277.883 50.6509 278.409 50.9662C278.945 51.2816 279.36 51.7178 279.655 52.275C279.96 52.8321 280.112 53.4628 280.112 54.1671C280.112 54.2722 280.107 54.3879 280.096 54.514C280.086 54.6296 280.065 54.7663 280.033 54.924H273.71V53.7414H279.276L278.756 54.1986C278.756 53.6941 278.667 53.2683 278.488 52.9214C278.309 52.564 278.057 52.2907 277.731 52.1015C277.405 51.9018 277.011 51.8019 276.548 51.8019C276.065 51.8019 275.639 51.907 275.271 52.1173C274.903 52.3275 274.619 52.6218 274.42 53.0003C274.22 53.3787 274.12 53.8255 274.12 54.3406C274.12 54.8662 274.225 55.3287 274.436 55.7281C274.646 56.1171 274.945 56.4219 275.334 56.6427C275.723 56.8529 276.17 56.958 276.675 56.958C277.095 56.958 277.479 56.8844 277.826 56.7373C278.183 56.5901 278.488 56.3694 278.74 56.075L279.655 57.0053C279.297 57.4258 278.856 57.7464 278.33 57.9672C277.815 58.1879 277.263 58.2983 276.675 58.2983Z" fill="#242424"/>
<path d="M213.771 145.348V139.614H217.365V140.359H214.636V142.106H217.178V142.848H214.636V144.603H217.399V145.348H213.771ZM221.959 141.047L220.4 145.348H219.504L217.942 141.047H218.84L219.929 144.357H219.974L221.06 141.047H221.959ZM224.229 147.05C223.888 147.05 223.594 147.005 223.347 146.915C223.103 146.826 222.903 146.707 222.748 146.56C222.593 146.412 222.477 146.251 222.401 146.076L223.12 145.779C223.171 145.861 223.238 145.948 223.322 146.039C223.408 146.133 223.524 146.212 223.669 146.277C223.817 146.342 224.006 146.375 224.238 146.375C224.555 146.375 224.817 146.298 225.024 146.143C225.231 145.99 225.335 145.745 225.335 145.409V144.564H225.282C225.231 144.655 225.159 144.757 225.063 144.869C224.97 144.981 224.841 145.078 224.677 145.16C224.513 145.242 224.299 145.283 224.036 145.283C223.696 145.283 223.39 145.204 223.118 145.045C222.847 144.885 222.632 144.649 222.474 144.337C222.317 144.023 222.239 143.638 222.239 143.181C222.239 142.723 222.316 142.331 222.471 142.005C222.628 141.678 222.842 141.428 223.115 141.254C223.387 141.079 223.696 140.991 224.042 140.991C224.308 140.991 224.524 141.036 224.688 141.126C224.853 141.213 224.98 141.316 225.072 141.434C225.165 141.551 225.237 141.655 225.287 141.744H225.349V141.047H226.169V145.443C226.169 145.812 226.083 146.116 225.912 146.353C225.74 146.59 225.508 146.765 225.215 146.879C224.923 146.993 224.595 147.05 224.229 147.05ZM224.221 144.589C224.461 144.589 224.665 144.533 224.831 144.421C224.999 144.307 225.126 144.145 225.212 143.934C225.3 143.721 225.343 143.466 225.343 143.169C225.343 142.88 225.3 142.625 225.215 142.405C225.129 142.185 225.003 142.013 224.837 141.89C224.671 141.765 224.465 141.702 224.221 141.702C223.969 141.702 223.759 141.768 223.591 141.898C223.423 142.027 223.296 142.203 223.21 142.425C223.126 142.647 223.084 142.895 223.084 143.169C223.084 143.451 223.127 143.699 223.213 143.911C223.299 144.124 223.426 144.29 223.594 144.41C223.763 144.529 223.972 144.589 224.221 144.589ZM228.972 145.434C228.548 145.434 228.183 145.344 227.877 145.163C227.573 144.98 227.338 144.723 227.172 144.393C227.007 144.061 226.925 143.672 226.925 143.225C226.925 142.785 227.007 142.397 227.172 142.061C227.338 141.725 227.569 141.463 227.866 141.274C228.165 141.086 228.514 140.991 228.913 140.991C229.156 140.991 229.391 141.031 229.619 141.112C229.846 141.192 230.051 141.318 230.232 141.49C230.413 141.661 230.556 141.884 230.66 142.159C230.765 142.431 230.817 142.763 230.817 143.153V143.449H227.399V142.822H229.997C229.997 142.602 229.952 142.407 229.862 142.237C229.773 142.065 229.647 141.93 229.484 141.831C229.324 141.732 229.135 141.683 228.919 141.683C228.684 141.683 228.478 141.741 228.303 141.856C228.129 141.97 227.995 142.12 227.9 142.304C227.806 142.487 227.76 142.686 227.76 142.901V143.391C227.76 143.678 227.81 143.923 227.911 144.124C228.014 144.326 228.156 144.48 228.339 144.586C228.522 144.691 228.736 144.743 228.98 144.743C229.139 144.743 229.284 144.721 229.414 144.676C229.545 144.629 229.658 144.56 229.753 144.469C229.848 144.377 229.921 144.264 229.971 144.13L230.764 144.273C230.7 144.506 230.586 144.71 230.422 144.886C230.26 145.059 230.055 145.195 229.809 145.292C229.565 145.387 229.286 145.434 228.972 145.434ZM232.409 142.794V145.348H231.572V141.047H232.376V141.747H232.429C232.528 141.52 232.683 141.337 232.894 141.198C233.107 141.06 233.374 140.991 233.697 140.991C233.99 140.991 234.247 141.053 234.467 141.176C234.687 141.297 234.858 141.478 234.98 141.719C235.101 141.96 235.162 142.258 235.162 142.612V145.348H234.324V142.713C234.324 142.401 234.243 142.158 234.081 141.982C233.918 141.805 233.695 141.716 233.412 141.716C233.218 141.716 233.045 141.758 232.894 141.842C232.744 141.926 232.626 142.05 232.538 142.212C232.452 142.373 232.409 142.567 232.409 142.794ZM236.111 145.348V141.047H236.948V145.348H236.111ZM236.534 140.384C236.388 140.384 236.263 140.335 236.158 140.238C236.056 140.139 236.004 140.022 236.004 139.885C236.004 139.747 236.056 139.63 236.158 139.533C236.263 139.434 236.388 139.384 236.534 139.384C236.679 139.384 236.803 139.434 236.906 139.533C237.01 139.63 237.063 139.747 237.063 139.885C237.063 140.022 237.01 140.139 236.906 140.238C236.803 140.335 236.679 140.384 236.534 140.384ZM239.152 145.443C238.88 145.443 238.633 145.392 238.413 145.292C238.193 145.189 238.018 145.041 237.889 144.847C237.762 144.652 237.699 144.414 237.699 144.133C237.699 143.89 237.746 143.69 237.839 143.533C237.932 143.377 238.058 143.253 238.217 143.161C238.376 143.07 238.553 143.001 238.749 142.954C238.945 142.907 239.145 142.872 239.348 142.848C239.606 142.818 239.815 142.793 239.975 142.775C240.136 142.754 240.252 142.722 240.325 142.677C240.398 142.632 240.434 142.559 240.434 142.458V142.439C240.434 142.194 240.365 142.005 240.227 141.87C240.091 141.736 239.887 141.669 239.617 141.669C239.335 141.669 239.113 141.731 238.951 141.856C238.79 141.98 238.679 142.117 238.617 142.268L237.831 142.089C237.924 141.827 238.06 141.617 238.239 141.456C238.42 141.294 238.629 141.176 238.864 141.103C239.099 141.029 239.346 140.991 239.606 140.991C239.777 140.991 239.959 141.012 240.152 141.053C240.346 141.092 240.527 141.165 240.695 141.271C240.865 141.378 241.004 141.53 241.112 141.728C241.22 141.924 241.274 142.178 241.274 142.492V145.348H240.457V144.76H240.423C240.369 144.868 240.288 144.974 240.18 145.079C240.071 145.183 239.932 145.27 239.762 145.339C239.593 145.408 239.389 145.443 239.152 145.443ZM239.334 144.771C239.566 144.771 239.763 144.725 239.928 144.634C240.094 144.542 240.22 144.423 240.306 144.275C240.393 144.126 240.437 143.966 240.437 143.797V143.242C240.407 143.272 240.349 143.3 240.264 143.326C240.18 143.351 240.083 143.372 239.975 143.391C239.867 143.407 239.761 143.423 239.659 143.438C239.556 143.451 239.47 143.463 239.401 143.472C239.239 143.492 239.09 143.527 238.956 143.575C238.824 143.624 238.717 143.694 238.637 143.785C238.559 143.875 238.519 143.994 238.519 144.144C238.519 144.351 238.596 144.508 238.749 144.614C238.902 144.719 239.097 144.771 239.334 144.771Z" fill="black" fill-opacity="0.4"/>
</g>
<g filter="url(#filter2_ddd_401_5874)">
<rect width="158" height="158" transform="translate(388 3)" fill="#8BADAF"/>
<path d="M401.629 34.1406L406.108 23.1977H407.18L411.642 34.1406H410.034L406.36 24.8848H406.912L403.206 34.1406H401.629ZM403.758 31.6651V30.3721H409.513V31.6651H403.758ZM418.942 34.2983C418.08 34.2983 417.344 34.1406 416.735 33.8253C416.125 33.5099 415.584 33.0526 415.111 32.4535L416.12 31.4443C416.467 31.9279 416.866 32.2958 417.318 32.5481C417.77 32.7898 418.327 32.9107 418.99 32.9107C419.641 32.9107 420.162 32.7688 420.551 32.485C420.95 32.2012 421.15 31.8122 421.15 31.3182C421.15 30.9082 421.055 30.5771 420.866 30.3248C420.677 30.0725 420.419 29.8675 420.093 29.7098C419.778 29.5416 419.431 29.3945 419.053 29.2683C418.674 29.1317 418.296 28.9898 417.917 28.8426C417.539 28.6849 417.192 28.4957 416.877 28.275C416.561 28.0437 416.304 27.7441 416.104 27.3762C415.915 27.0083 415.82 26.5457 415.82 25.9886C415.82 25.3684 415.967 24.8428 416.262 24.4118C416.567 23.9703 416.977 23.6339 417.492 23.4027C418.017 23.1609 418.606 23.04 419.258 23.04C419.972 23.04 420.614 23.1819 421.181 23.4657C421.749 23.739 422.211 24.1017 422.569 24.5537L421.56 25.5629C421.234 25.1844 420.882 24.9006 420.503 24.7114C420.135 24.5222 419.71 24.4276 419.226 24.4276C418.637 24.4276 418.17 24.559 417.823 24.8218C417.476 25.0741 417.302 25.4315 417.302 25.894C417.302 26.2619 417.397 26.5615 417.586 26.7928C417.786 27.0135 418.043 27.2027 418.359 27.3604C418.674 27.5181 419.021 27.6653 419.4 27.8019C419.788 27.9281 420.172 28.07 420.551 28.2276C420.929 28.3853 421.276 28.5851 421.591 28.8268C421.907 29.0686 422.159 29.384 422.348 29.7729C422.548 30.1513 422.648 30.6296 422.648 31.2078C422.648 32.1749 422.311 32.9318 421.639 33.4784C420.976 34.025 420.078 34.2983 418.942 34.2983ZM427.231 34.2983C426.622 34.2983 426.07 34.1616 425.576 33.8883C425.092 33.6045 424.714 33.2156 424.44 32.7215C424.167 32.2274 424.03 31.6545 424.03 31.0028V26.6509H425.449V30.9397C425.449 31.3497 425.518 31.7071 425.654 32.012C425.802 32.3063 426.012 32.5323 426.285 32.69C426.558 32.8477 426.879 32.9265 427.247 32.9265C427.804 32.9265 428.24 32.753 428.556 32.4062C428.871 32.0487 429.029 31.5599 429.029 30.9397V26.6509H430.448V31.0028C430.448 31.6545 430.311 32.2274 430.038 32.7215C429.765 33.2156 429.386 33.6045 428.903 33.8883C428.43 34.1616 427.872 34.2983 427.231 34.2983ZM434.557 34.2983C434.137 34.2983 433.737 34.2457 433.359 34.1406C432.991 34.025 432.65 33.8673 432.334 33.6676C432.019 33.4573 431.745 33.2103 431.514 32.9265L432.429 32.012C432.702 32.3483 433.017 32.6006 433.375 32.7688C433.732 32.9265 434.132 33.0053 434.573 33.0053C435.015 33.0053 435.356 32.9318 435.598 32.7846C435.84 32.6269 435.961 32.4114 435.961 32.1381C435.961 31.8648 435.861 31.6545 435.661 31.5074C435.472 31.3497 435.225 31.2236 434.92 31.1289C434.615 31.0238 434.289 30.924 433.942 30.8294C433.606 30.7242 433.285 30.5928 432.981 30.4352C432.676 30.2775 432.424 30.062 432.224 29.7887C432.035 29.5154 431.94 29.1527 431.94 28.7007C431.94 28.2487 432.05 27.8597 432.271 27.5339C432.492 27.1975 432.797 26.9399 433.186 26.7612C433.585 26.5825 434.063 26.4932 434.621 26.4932C435.209 26.4932 435.73 26.5983 436.182 26.8085C436.644 27.0083 437.022 27.3131 437.317 27.7231L436.402 28.6376C436.192 28.3643 435.929 28.1541 435.614 28.0069C435.309 27.8597 434.962 27.7861 434.573 27.7861C434.163 27.7861 433.848 27.8597 433.627 28.0069C433.417 28.1436 433.312 28.338 433.312 28.5903C433.312 28.8426 433.406 29.0371 433.596 29.1737C433.785 29.3104 434.032 29.426 434.337 29.5206C434.652 29.6152 434.978 29.7151 435.314 29.8202C435.651 29.9148 435.971 30.0462 436.276 30.2144C436.581 30.3826 436.828 30.6086 437.017 30.8924C437.217 31.1763 437.317 31.5494 437.317 32.012C437.317 32.7163 437.065 33.2734 436.56 33.6834C436.066 34.0933 435.398 34.2983 434.557 34.2983ZM439.883 34.1406V23.513H441.302V34.1406H439.883ZM438.038 27.9438V26.6509H443.147V27.9438H438.038ZM447.318 34.2983C446.635 34.2983 446.015 34.1301 445.457 33.7937C444.9 33.4468 444.459 32.9791 444.133 32.3904C443.818 31.8017 443.66 31.1395 443.66 30.4036C443.66 29.6678 443.818 29.0055 444.133 28.4169C444.459 27.8282 444.895 27.3604 445.442 27.0135C445.999 26.6666 446.624 26.4932 447.318 26.4932C447.886 26.4932 448.39 26.6141 448.832 26.8558C449.284 27.0871 449.646 27.413 449.92 27.8335C450.193 28.2434 450.345 28.7217 450.377 29.2683V31.5231C450.345 32.0593 450.193 32.5376 449.92 32.958C449.657 33.3785 449.3 33.7096 448.847 33.9514C448.406 34.1827 447.896 34.2983 447.318 34.2983ZM447.555 32.958C448.259 32.958 448.826 32.7215 449.257 32.2485C449.688 31.7649 449.904 31.15 449.904 30.4036C449.904 29.8885 449.804 29.4418 449.604 29.0634C449.415 28.6744 449.142 28.3748 448.784 28.1646C448.427 27.9438 448.012 27.8335 447.539 27.8335C447.066 27.8335 446.645 27.9438 446.277 28.1646C445.92 28.3853 445.636 28.6902 445.426 29.0791C445.226 29.4575 445.126 29.8938 445.126 30.3879C445.126 30.8924 445.226 31.3392 445.426 31.7281C445.636 32.1066 445.925 32.4062 446.293 32.6269C446.661 32.8477 447.081 32.958 447.555 32.958ZM449.809 34.1406V32.1223L450.077 30.2932L449.809 28.4799V26.6509H451.244V34.1406H449.809ZM453.153 34.1406V26.6509H454.572V34.1406H453.153ZM453.862 25.1529C453.599 25.1529 453.384 25.0688 453.216 24.9006C453.048 24.7219 452.963 24.5012 452.963 24.2384C452.963 23.9861 453.048 23.7758 453.216 23.6076C453.384 23.4289 453.599 23.3396 453.862 23.3396C454.125 23.3396 454.34 23.4289 454.509 23.6076C454.677 23.7758 454.761 23.9861 454.761 24.2384C454.761 24.5012 454.677 24.7219 454.509 24.9006C454.34 25.0688 454.125 25.1529 453.862 25.1529ZM461.788 34.1406V29.7729C461.788 29.2053 461.609 28.7375 461.252 28.3696C460.894 28.0016 460.432 27.8177 459.864 27.8177C459.486 27.8177 459.149 27.9018 458.855 28.07C458.56 28.2382 458.329 28.4694 458.161 28.7638C457.993 29.0581 457.909 29.3945 457.909 29.7729L457.325 29.4418C457.325 28.8741 457.451 28.3696 457.704 27.9281C457.956 27.4866 458.308 27.1397 458.76 26.8874C459.212 26.6246 459.722 26.4932 460.29 26.4932C460.857 26.4932 461.357 26.6351 461.788 26.9189C462.229 27.2027 462.576 27.5759 462.828 28.0384C463.081 28.4904 463.207 28.974 463.207 29.4891V34.1406H461.788ZM456.49 34.1406V26.6509H457.909V34.1406H456.49ZM468.14 34.2983C467.457 34.2983 466.836 34.1301 466.279 33.7937C465.722 33.4468 465.281 32.9791 464.955 32.3904C464.639 31.8017 464.482 31.1395 464.482 30.4036C464.482 29.6678 464.639 29.0055 464.955 28.4169C465.281 27.8282 465.717 27.3604 466.263 27.0135C466.821 26.6666 467.446 26.4932 468.14 26.4932C468.707 26.4932 469.212 26.6141 469.654 26.8558C470.106 27.0871 470.468 27.413 470.742 27.8335C471.015 28.2434 471.167 28.7217 471.199 29.2683V31.5231C471.167 32.0593 471.015 32.5376 470.742 32.958C470.479 33.3785 470.121 33.7096 469.669 33.9514C469.228 34.1827 468.718 34.2983 468.14 34.2983ZM468.376 32.958C469.081 32.958 469.648 32.7215 470.079 32.2485C470.51 31.7649 470.726 31.15 470.726 30.4036C470.726 29.8885 470.626 29.4418 470.426 29.0634C470.237 28.6744 469.964 28.3748 469.606 28.1646C469.249 27.9438 468.834 27.8335 468.361 27.8335C467.888 27.8335 467.467 27.9438 467.099 28.1646C466.742 28.3853 466.458 28.6902 466.248 29.0791C466.048 29.4575 465.948 29.8938 465.948 30.3879C465.948 30.8924 466.048 31.3392 466.248 31.7281C466.458 32.1066 466.747 32.4062 467.115 32.6269C467.483 32.8477 467.903 32.958 468.376 32.958ZM470.631 34.1406V32.1223L470.899 30.2932L470.631 28.4799V26.6509H472.066V34.1406H470.631ZM477.901 34.2983C477.333 34.2983 476.818 34.1827 476.355 33.9514C475.903 33.7096 475.541 33.3785 475.267 32.958C474.994 32.5376 474.842 32.0593 474.81 31.5231V29.2683C474.842 28.7217 474.994 28.2434 475.267 27.8335C475.551 27.413 475.919 27.0871 476.371 26.8558C476.834 26.6141 477.344 26.4932 477.901 26.4932C478.584 26.4932 479.199 26.6666 479.745 27.0135C480.303 27.3604 480.739 27.8282 481.054 28.4169C481.37 29.0055 481.527 29.6678 481.527 30.4036C481.527 31.1395 481.37 31.8017 481.054 32.3904C480.739 32.9791 480.303 33.4468 479.745 33.7937C479.199 34.1301 478.584 34.2983 477.901 34.2983ZM477.664 32.958C478.137 32.958 478.552 32.8477 478.91 32.6269C479.267 32.4062 479.551 32.1066 479.761 31.7281C479.972 31.3392 480.077 30.8924 480.077 30.3879C480.077 29.8938 479.972 29.4523 479.761 29.0634C479.551 28.6744 479.267 28.3748 478.91 28.1646C478.552 27.9438 478.142 27.8335 477.68 27.8335C477.207 27.8335 476.792 27.9438 476.434 28.1646C476.077 28.3748 475.798 28.6744 475.599 29.0634C475.399 29.4523 475.299 29.8991 475.299 30.4036C475.299 30.8977 475.394 31.3392 475.583 31.7281C475.782 32.1066 476.061 32.4062 476.418 32.6269C476.786 32.8477 477.202 32.958 477.664 32.958ZM473.959 34.1406V22.8823H475.378V28.4799L475.11 30.2932L475.378 32.1223V34.1406H473.959ZM482.963 34.1406V22.8823H484.382V34.1406H482.963ZM489.754 34.2983C489.007 34.2983 488.334 34.1301 487.735 33.7937C487.136 33.4468 486.663 32.9791 486.316 32.3904C485.969 31.8017 485.796 31.1342 485.796 30.3879C485.796 29.652 485.964 28.9898 486.3 28.4011C486.647 27.8124 487.11 27.3499 487.688 27.0135C488.277 26.6666 488.934 26.4932 489.659 26.4932C490.353 26.4932 490.962 26.6509 491.488 26.9662C492.024 27.2816 492.439 27.7178 492.734 28.275C493.039 28.8321 493.191 29.4628 493.191 30.1671C493.191 30.2722 493.186 30.3879 493.175 30.514C493.165 30.6296 493.144 30.7663 493.112 30.924H486.789V29.7414H492.355L491.835 30.1986C491.835 29.6941 491.746 29.2683 491.567 28.9214C491.388 28.564 491.136 28.2907 490.81 28.1015C490.484 27.9018 490.09 27.8019 489.627 27.8019C489.144 27.8019 488.718 27.907 488.35 28.1173C487.982 28.3275 487.698 28.6218 487.499 29.0003C487.299 29.3787 487.199 29.8255 487.199 30.3406C487.199 30.8662 487.304 31.3287 487.515 31.7281C487.725 32.1171 488.024 32.4219 488.413 32.6427C488.802 32.8529 489.249 32.958 489.754 32.958C490.174 32.958 490.558 32.8844 490.905 32.7373C491.262 32.5901 491.567 32.3694 491.819 32.075L492.734 33.0053C492.376 33.4258 491.935 33.7464 491.409 33.9672C490.894 34.1879 490.342 34.2983 489.754 34.2983ZM405.603 58.2983C404.867 58.2983 404.2 58.1249 403.6 57.778C403.012 57.4311 402.544 56.9633 402.197 56.3746C401.861 55.7754 401.693 55.1132 401.693 54.3879C401.693 53.652 401.861 52.9898 402.197 52.4011C402.544 51.8124 403.012 51.3499 403.6 51.0135C404.2 50.6666 404.867 50.4932 405.603 50.4932C406.181 50.4932 406.717 50.6036 407.211 50.8243C407.705 51.0345 408.131 51.3446 408.488 51.7546L407.542 52.7007C407.311 52.4274 407.027 52.2224 406.691 52.0857C406.365 51.9386 406.002 51.865 405.603 51.865C405.13 51.865 404.709 51.9754 404.342 52.1961C403.974 52.4064 403.685 52.7007 403.474 53.0791C403.264 53.4575 403.159 53.8938 403.159 54.3879C403.159 54.8819 403.264 55.3182 403.474 55.6966C403.685 56.075 403.974 56.3746 404.342 56.5954C404.709 56.8161 405.13 56.9265 405.603 56.9265C406.002 56.9265 406.365 56.8582 406.691 56.7215C407.027 56.5743 407.316 56.3641 407.558 56.0908L408.488 57.0369C408.142 57.4363 407.716 57.7464 407.211 57.9672C406.717 58.1879 406.181 58.2983 405.603 58.2983ZM409.722 58.1406V46.8823H411.142V58.1406H409.722ZM416.466 58.2983C415.73 58.2983 415.068 58.1249 414.479 57.778C413.891 57.4311 413.423 56.9633 413.076 56.3746C412.729 55.7754 412.556 55.1079 412.556 54.3721C412.556 53.6468 412.729 52.995 413.076 52.4169C413.423 51.8282 413.891 51.3604 414.479 51.0135C415.068 50.6666 415.73 50.4932 416.466 50.4932C417.191 50.4932 417.848 50.6666 418.437 51.0135C419.036 51.3499 419.509 51.8124 419.856 52.4011C420.203 52.9898 420.377 53.6468 420.377 54.3721C420.377 55.1079 420.203 55.7754 419.856 56.3746C419.509 56.9633 419.036 57.4311 418.437 57.778C417.848 58.1249 417.191 58.2983 416.466 58.2983ZM416.466 56.9265C416.939 56.9265 417.36 56.8161 417.728 56.5954C418.095 56.3746 418.385 56.075 418.595 55.6966C418.805 55.3077 418.91 54.8662 418.91 54.3721C418.91 53.8885 418.8 53.4575 418.579 53.0791C418.369 52.7007 418.08 52.4064 417.712 52.1961C417.354 51.9754 416.939 51.865 416.466 51.865C415.993 51.865 415.573 51.9754 415.205 52.1961C414.837 52.4064 414.548 52.7007 414.337 53.0791C414.127 53.4575 414.022 53.8885 414.022 54.3721C414.022 54.8662 414.127 55.3077 414.337 55.6966C414.548 56.075 414.837 56.3746 415.205 56.5954C415.573 56.8161 415.993 56.9265 416.466 56.9265ZM424.183 58.2983C423.763 58.2983 423.363 58.2457 422.985 58.1406C422.617 58.025 422.275 57.8673 421.96 57.6676C421.644 57.4573 421.371 57.2103 421.14 56.9265L422.054 56.012C422.328 56.3483 422.643 56.6006 423 56.7688C423.358 56.9265 423.757 57.0053 424.199 57.0053C424.64 57.0053 424.982 56.9318 425.224 56.7846C425.465 56.6269 425.586 56.4114 425.586 56.1381C425.586 55.8648 425.486 55.6545 425.287 55.5074C425.098 55.3497 424.851 55.2236 424.546 55.1289C424.241 55.0238 423.915 54.924 423.568 54.8294C423.232 54.7242 422.911 54.5928 422.606 54.4352C422.301 54.2775 422.049 54.062 421.849 53.7887C421.66 53.5154 421.566 53.1527 421.566 52.7007C421.566 52.2487 421.676 51.8597 421.897 51.5339C422.117 51.1975 422.422 50.9399 422.811 50.7612C423.211 50.5825 423.689 50.4932 424.246 50.4932C424.835 50.4932 425.355 50.5983 425.807 50.8085C426.27 51.0083 426.648 51.3131 426.942 51.7231L426.028 52.6376C425.818 52.3643 425.555 52.1541 425.239 52.0069C424.935 51.8597 424.588 51.7861 424.199 51.7861C423.789 51.7861 423.473 51.8597 423.253 52.0069C423.042 52.1436 422.937 52.338 422.937 52.5903C422.937 52.8426 423.032 53.0371 423.221 53.1737C423.41 53.3104 423.657 53.426 423.962 53.5206C424.278 53.6152 424.603 53.7151 424.94 53.8202C425.276 53.9148 425.597 54.0462 425.902 54.2144C426.207 54.3826 426.454 54.6086 426.643 54.8924C426.843 55.1763 426.942 55.5494 426.942 56.012C426.942 56.7163 426.69 57.2734 426.186 57.6834C425.691 58.0933 425.024 58.2983 424.183 58.2983ZM431.827 58.2983C431.08 58.2983 430.408 58.1301 429.808 57.7937C429.209 57.4468 428.736 56.9791 428.389 56.3904C428.042 55.8017 427.869 55.1342 427.869 54.3879C427.869 53.652 428.037 52.9898 428.373 52.4011C428.72 51.8124 429.183 51.3499 429.761 51.0135C430.35 50.6666 431.007 50.4932 431.732 50.4932C432.426 50.4932 433.035 50.6509 433.561 50.9662C434.097 51.2816 434.512 51.7178 434.807 52.275C435.112 52.8321 435.264 53.4628 435.264 54.1671C435.264 54.2722 435.259 54.3879 435.248 54.514C435.238 54.6296 435.217 54.7663 435.185 54.924H428.862V53.7414H434.428L433.908 54.1986C433.908 53.6941 433.819 53.2683 433.64 52.9214C433.461 52.564 433.209 52.2907 432.883 52.1015C432.557 51.9018 432.163 51.8019 431.7 51.8019C431.217 51.8019 430.791 51.907 430.423 52.1173C430.055 52.3275 429.772 52.6218 429.572 53.0003C429.372 53.3787 429.272 53.8255 429.272 54.3406C429.272 54.8662 429.377 55.3287 429.588 55.7281C429.798 56.1171 430.097 56.4219 430.486 56.6427C430.875 56.8529 431.322 56.958 431.827 56.958C432.247 56.958 432.631 56.8844 432.978 56.7373C433.335 56.5901 433.64 56.3694 433.892 56.075L434.807 57.0053C434.449 57.4258 434.008 57.7464 433.482 57.9672C432.967 58.1879 432.415 58.2983 431.827 58.2983ZM437.558 58.1406V47.513H438.977V58.1406H437.558ZM435.713 51.9438V50.6509H440.822V51.9438H435.713Z" fill="#242424"/>
<path d="M401.771 145.348V139.614H405.365V140.359H402.636V142.106H405.178V142.848H402.636V144.603H405.399V145.348H401.771ZM409.959 141.047L408.4 145.348H407.504L405.942 141.047H406.84L407.929 144.357H407.974L409.06 141.047H409.959ZM412.229 147.05C411.888 147.05 411.594 147.005 411.347 146.915C411.103 146.826 410.903 146.707 410.748 146.56C410.593 146.412 410.477 146.251 410.401 146.076L411.12 145.779C411.171 145.861 411.238 145.948 411.322 146.039C411.408 146.133 411.524 146.212 411.669 146.277C411.817 146.342 412.006 146.375 412.238 146.375C412.555 146.375 412.817 146.298 413.024 146.143C413.231 145.99 413.335 145.745 413.335 145.409V144.564H413.282C413.231 144.655 413.159 144.757 413.063 144.869C412.97 144.981 412.841 145.078 412.677 145.16C412.513 145.242 412.299 145.283 412.036 145.283C411.696 145.283 411.39 145.204 411.118 145.045C410.847 144.885 410.632 144.649 410.474 144.337C410.317 144.023 410.239 143.638 410.239 143.181C410.239 142.723 410.316 142.331 410.471 142.005C410.628 141.678 410.842 141.428 411.115 141.254C411.387 141.079 411.696 140.991 412.042 140.991C412.308 140.991 412.524 141.036 412.688 141.126C412.853 141.213 412.98 141.316 413.072 141.434C413.165 141.551 413.237 141.655 413.287 141.744H413.349V141.047H414.169V145.443C414.169 145.812 414.083 146.116 413.912 146.353C413.74 146.59 413.508 146.765 413.215 146.879C412.923 146.993 412.595 147.05 412.229 147.05ZM412.221 144.589C412.461 144.589 412.665 144.533 412.831 144.421C412.999 144.307 413.126 144.145 413.212 143.934C413.3 143.721 413.343 143.466 413.343 143.169C413.343 142.88 413.3 142.625 413.215 142.405C413.129 142.185 413.003 142.013 412.837 141.89C412.671 141.765 412.465 141.702 412.221 141.702C411.969 141.702 411.759 141.768 411.591 141.898C411.423 142.027 411.296 142.203 411.21 142.425C411.126 142.647 411.084 142.895 411.084 143.169C411.084 143.451 411.127 143.699 411.213 143.911C411.299 144.124 411.426 144.29 411.594 144.41C411.763 144.529 411.972 144.589 412.221 144.589ZM416.972 145.434C416.548 145.434 416.183 145.344 415.877 145.163C415.573 144.98 415.338 144.723 415.172 144.393C415.007 144.061 414.925 143.672 414.925 143.225C414.925 142.785 415.007 142.397 415.172 142.061C415.338 141.725 415.569 141.463 415.866 141.274C416.165 141.086 416.514 140.991 416.913 140.991C417.156 140.991 417.391 141.031 417.619 141.112C417.846 141.192 418.051 141.318 418.232 141.49C418.413 141.661 418.556 141.884 418.66 142.159C418.765 142.431 418.817 142.763 418.817 143.153V143.449H415.399V142.822H417.997C417.997 142.602 417.952 142.407 417.862 142.237C417.773 142.065 417.647 141.93 417.484 141.831C417.324 141.732 417.135 141.683 416.919 141.683C416.684 141.683 416.478 141.741 416.303 141.856C416.129 141.97 415.995 142.12 415.9 142.304C415.806 142.487 415.76 142.686 415.76 142.901V143.391C415.76 143.678 415.81 143.923 415.911 144.124C416.014 144.326 416.156 144.48 416.339 144.586C416.522 144.691 416.736 144.743 416.98 144.743C417.139 144.743 417.284 144.721 417.414 144.676C417.545 144.629 417.658 144.56 417.753 144.469C417.848 144.377 417.921 144.264 417.971 144.13L418.764 144.273C418.7 144.506 418.586 144.71 418.422 144.886C418.26 145.059 418.055 145.195 417.809 145.292C417.565 145.387 417.286 145.434 416.972 145.434ZM420.409 142.794V145.348H419.572V141.047H420.376V141.747H420.429C420.528 141.52 420.683 141.337 420.894 141.198C421.107 141.06 421.374 140.991 421.697 140.991C421.99 140.991 422.247 141.053 422.467 141.176C422.687 141.297 422.858 141.478 422.98 141.719C423.101 141.96 423.162 142.258 423.162 142.612V145.348H422.324V142.713C422.324 142.401 422.243 142.158 422.081 141.982C421.918 141.805 421.695 141.716 421.412 141.716C421.218 141.716 421.045 141.758 420.894 141.842C420.744 141.926 420.626 142.05 420.538 142.212C420.452 142.373 420.409 142.567 420.409 142.794ZM424.111 145.348V141.047H424.948V145.348H424.111ZM424.534 140.384C424.388 140.384 424.263 140.335 424.158 140.238C424.056 140.139 424.004 140.022 424.004 139.885C424.004 139.747 424.056 139.63 424.158 139.533C424.263 139.434 424.388 139.384 424.534 139.384C424.679 139.384 424.803 139.434 424.906 139.533C425.01 139.63 425.063 139.747 425.063 139.885C425.063 140.022 425.01 140.139 424.906 140.238C424.803 140.335 424.679 140.384 424.534 140.384ZM427.152 145.443C426.88 145.443 426.633 145.392 426.413 145.292C426.193 145.189 426.018 145.041 425.889 144.847C425.762 144.652 425.699 144.414 425.699 144.133C425.699 143.89 425.746 143.69 425.839 143.533C425.932 143.377 426.058 143.253 426.217 143.161C426.376 143.07 426.553 143.001 426.749 142.954C426.945 142.907 427.145 142.872 427.348 142.848C427.606 142.818 427.815 142.793 427.975 142.775C428.136 142.754 428.252 142.722 428.325 142.677C428.398 142.632 428.434 142.559 428.434 142.458V142.439C428.434 142.194 428.365 142.005 428.227 141.87C428.091 141.736 427.887 141.669 427.617 141.669C427.335 141.669 427.113 141.731 426.951 141.856C426.79 141.98 426.679 142.117 426.617 142.268L425.831 142.089C425.924 141.827 426.06 141.617 426.239 141.456C426.42 141.294 426.629 141.176 426.864 141.103C427.099 141.029 427.346 140.991 427.606 140.991C427.777 140.991 427.959 141.012 428.152 141.053C428.346 141.092 428.527 141.165 428.695 141.271C428.865 141.378 429.004 141.53 429.112 141.728C429.22 141.924 429.274 142.178 429.274 142.492V145.348H428.457V144.76H428.423C428.369 144.868 428.288 144.974 428.18 145.079C428.071 145.183 427.932 145.27 427.762 145.339C427.593 145.408 427.389 145.443 427.152 145.443ZM427.334 144.771C427.566 144.771 427.763 144.725 427.928 144.634C428.094 144.542 428.22 144.423 428.306 144.275C428.393 144.126 428.437 143.966 428.437 143.797V143.242C428.407 143.272 428.349 143.3 428.264 143.326C428.18 143.351 428.083 143.372 427.975 143.391C427.867 143.407 427.761 143.423 427.659 143.438C427.556 143.451 427.47 143.463 427.401 143.472C427.239 143.492 427.09 143.527 426.956 143.575C426.824 143.624 426.717 143.694 426.637 143.785C426.559 143.875 426.519 143.994 426.519 144.144C426.519 144.351 426.596 144.508 426.749 144.614C426.902 144.719 427.097 144.771 427.334 144.771Z" fill="black" fill-opacity="0.4"/>
</g>
<g filter="url(#filter3_ddd_401_5874)">
<rect width="158" height="158" transform="translate(576 3)" fill="#8BADAF"/>
<path d="M590.434 34.1406V23.1977H591.916V34.1406H590.434ZM591.443 29.3314V27.9754H597.151V29.3314H591.443ZM591.443 24.5537V23.1977H597.419V24.5537H591.443ZM597.993 37.4361C597.509 37.4361 597.105 37.3573 596.779 37.1996C596.442 37.0419 596.143 36.8159 595.88 36.5216L596.794 35.5913C596.942 35.77 597.105 35.9014 597.283 35.9855C597.451 36.0696 597.656 36.1116 597.898 36.1116C598.214 36.1116 598.487 36.0118 598.718 35.812C598.949 35.6228 599.065 35.3337 599.065 34.9448V26.6509H600.484V34.929C600.484 35.4756 600.369 35.9329 600.137 36.3008C599.906 36.6688 599.601 36.9473 599.223 37.1365C598.844 37.3363 598.434 37.4361 597.993 37.4361ZM599.79 25.1529C599.538 25.1529 599.328 25.0688 599.16 24.9006C598.991 24.7219 598.907 24.5012 598.907 24.2384C598.907 23.9861 598.991 23.7758 599.16 23.6076C599.328 23.4289 599.538 23.3396 599.79 23.3396C600.053 23.3396 600.269 23.4289 600.437 23.6076C600.605 23.7758 600.689 23.9861 600.689 24.2384C600.689 24.5012 600.605 24.7219 600.437 24.9006C600.269 25.0688 600.053 25.1529 599.79 25.1529ZM605.821 34.2983C605.085 34.2983 604.423 34.1249 603.834 33.778C603.246 33.4311 602.778 32.9633 602.431 32.3746C602.084 31.7754 601.911 31.1079 601.911 30.3721C601.911 29.6468 602.084 28.995 602.431 28.4169C602.778 27.8282 603.246 27.3604 603.834 27.0135C604.423 26.6666 605.085 26.4932 605.821 26.4932C606.546 26.4932 607.203 26.6666 607.792 27.0135C608.391 27.3499 608.864 27.8124 609.211 28.4011C609.558 28.9898 609.732 29.6468 609.732 30.3721C609.732 31.1079 609.558 31.7754 609.211 32.3746C608.864 32.9633 608.391 33.4311 607.792 33.778C607.203 34.1249 606.546 34.2983 605.821 34.2983ZM605.821 32.9265C606.294 32.9265 606.715 32.8161 607.083 32.5954C607.45 32.3746 607.74 32.075 607.95 31.6966C608.16 31.3077 608.265 30.8662 608.265 30.3721C608.265 29.8885 608.155 29.4575 607.934 29.0791C607.724 28.7007 607.435 28.4064 607.067 28.1961C606.709 27.9754 606.294 27.865 605.821 27.865C605.348 27.865 604.928 27.9754 604.56 28.1961C604.192 28.4064 603.903 28.7007 603.692 29.0791C603.482 29.4575 603.377 29.8885 603.377 30.3721C603.377 30.8662 603.482 31.3077 603.692 31.6966C603.903 32.075 604.192 32.3746 604.56 32.5954C604.928 32.8161 605.348 32.9265 605.821 32.9265ZM616.455 34.1406V29.7729C616.455 29.2053 616.276 28.7375 615.919 28.3696C615.562 28.0016 615.099 27.8177 614.531 27.8177C614.153 27.8177 613.817 27.9018 613.522 28.07C613.228 28.2382 612.997 28.4694 612.828 28.7638C612.66 29.0581 612.576 29.3945 612.576 29.7729L611.993 29.4418C611.993 28.8741 612.119 28.3696 612.371 27.9281C612.624 27.4866 612.976 27.1397 613.428 26.8874C613.88 26.6246 614.39 26.4932 614.957 26.4932C615.525 26.4932 616.024 26.6351 616.455 26.9189C616.897 27.2027 617.244 27.5759 617.496 28.0384C617.748 28.4904 617.874 28.974 617.874 29.4891V34.1406H616.455ZM611.157 34.1406V26.6509H612.576V34.1406H611.157ZM622.728 37.4361C621.961 37.4361 621.278 37.2942 620.679 37.0104C620.09 36.7266 619.617 36.3271 619.259 35.812L620.174 34.8817C620.479 35.2707 620.842 35.565 621.262 35.7647C621.682 35.975 622.182 36.0801 622.76 36.0801C623.527 36.0801 624.132 35.8751 624.573 35.4651C625.025 35.0657 625.251 34.5243 625.251 33.841V31.9804L625.504 30.2932L625.251 28.6218V26.6509H626.67V33.841C626.67 34.5558 626.502 35.1813 626.166 35.7174C625.84 36.2535 625.377 36.674 624.778 36.9789C624.19 37.2837 623.506 37.4361 622.728 37.4361ZM622.728 34.0145C622.045 34.0145 621.43 33.8515 620.884 33.5257C620.347 33.1998 619.922 32.753 619.606 32.1854C619.291 31.6072 619.133 30.9608 619.133 30.2459C619.133 29.5311 619.291 28.8952 619.606 28.338C619.922 27.7704 620.347 27.3236 620.884 26.9978C621.43 26.6614 622.045 26.4932 622.728 26.4932C623.317 26.4932 623.837 26.6088 624.289 26.8401C624.741 27.0713 625.099 27.3972 625.362 27.8177C625.635 28.2276 625.782 28.7112 625.803 29.2683V31.2551C625.772 31.8017 625.619 32.2853 625.346 32.7057C625.083 33.1157 624.726 33.4363 624.274 33.6676C623.822 33.8989 623.307 34.0145 622.728 34.0145ZM623.012 32.6742C623.475 32.6742 623.879 32.5743 624.226 32.3746C624.584 32.1749 624.857 31.8963 625.046 31.5389C625.236 31.171 625.33 30.7453 625.33 30.2617C625.33 29.7782 625.23 29.3577 625.031 29.0003C624.841 28.6324 624.573 28.3485 624.226 28.1488C623.879 27.9386 623.47 27.8335 622.996 27.8335C622.523 27.8335 622.108 27.9386 621.751 28.1488C621.393 28.3485 621.11 28.6324 620.899 29.0003C620.7 29.3577 620.6 29.7729 620.6 30.2459C620.6 30.719 620.7 31.1395 620.899 31.5074C621.11 31.8753 621.393 32.1644 621.751 32.3746C622.119 32.5743 622.539 32.6742 623.012 32.6742Z" fill="#242424"/>
<path d="M589.771 145.348V139.614H593.365V140.359H590.636V142.106H593.178V142.848H590.636V144.603H593.399V145.348H589.771ZM597.959 141.047L596.4 145.348H595.504L593.942 141.047H594.84L595.929 144.357H595.974L597.06 141.047H597.959ZM600.229 147.05C599.888 147.05 599.594 147.005 599.347 146.915C599.103 146.826 598.903 146.707 598.748 146.56C598.593 146.412 598.477 146.251 598.401 146.076L599.12 145.779C599.171 145.861 599.238 145.948 599.322 146.039C599.408 146.133 599.524 146.212 599.669 146.277C599.817 146.342 600.006 146.375 600.238 146.375C600.555 146.375 600.817 146.298 601.024 146.143C601.231 145.99 601.335 145.745 601.335 145.409V144.564H601.282C601.231 144.655 601.159 144.757 601.063 144.869C600.97 144.981 600.841 145.078 600.677 145.16C600.513 145.242 600.299 145.283 600.036 145.283C599.696 145.283 599.39 145.204 599.118 145.045C598.847 144.885 598.632 144.649 598.474 144.337C598.317 144.023 598.239 143.638 598.239 143.181C598.239 142.723 598.316 142.331 598.471 142.005C598.628 141.678 598.842 141.428 599.115 141.254C599.387 141.079 599.696 140.991 600.042 140.991C600.308 140.991 600.524 141.036 600.688 141.126C600.853 141.213 600.98 141.316 601.072 141.434C601.165 141.551 601.237 141.655 601.287 141.744H601.349V141.047H602.169V145.443C602.169 145.812 602.083 146.116 601.912 146.353C601.74 146.59 601.508 146.765 601.215 146.879C600.923 146.993 600.595 147.05 600.229 147.05ZM600.221 144.589C600.461 144.589 600.665 144.533 600.831 144.421C600.999 144.307 601.126 144.145 601.212 143.934C601.3 143.721 601.343 143.466 601.343 143.169C601.343 142.88 601.3 142.625 601.215 142.405C601.129 142.185 601.003 142.013 600.837 141.89C600.671 141.765 600.465 141.702 600.221 141.702C599.969 141.702 599.759 141.768 599.591 141.898C599.423 142.027 599.296 142.203 599.21 142.425C599.126 142.647 599.084 142.895 599.084 143.169C599.084 143.451 599.127 143.699 599.213 143.911C599.299 144.124 599.426 144.29 599.594 144.41C599.763 144.529 599.972 144.589 600.221 144.589ZM604.972 145.434C604.548 145.434 604.183 145.344 603.877 145.163C603.573 144.98 603.338 144.723 603.172 144.393C603.007 144.061 602.925 143.672 602.925 143.225C602.925 142.785 603.007 142.397 603.172 142.061C603.338 141.725 603.569 141.463 603.866 141.274C604.165 141.086 604.514 140.991 604.913 140.991C605.156 140.991 605.391 141.031 605.619 141.112C605.846 141.192 606.051 141.318 606.232 141.49C606.413 141.661 606.556 141.884 606.66 142.159C606.765 142.431 606.817 142.763 606.817 143.153V143.449H603.399V142.822H605.997C605.997 142.602 605.952 142.407 605.862 142.237C605.773 142.065 605.647 141.93 605.484 141.831C605.324 141.732 605.135 141.683 604.919 141.683C604.684 141.683 604.478 141.741 604.303 141.856C604.129 141.97 603.995 142.12 603.9 142.304C603.806 142.487 603.76 142.686 603.76 142.901V143.391C603.76 143.678 603.81 143.923 603.911 144.124C604.014 144.326 604.156 144.48 604.339 144.586C604.522 144.691 604.736 144.743 604.98 144.743C605.139 144.743 605.284 144.721 605.414 144.676C605.545 144.629 605.658 144.56 605.753 144.469C605.848 144.377 605.921 144.264 605.971 144.13L606.764 144.273C606.7 144.506 606.586 144.71 606.422 144.886C606.26 145.059 606.055 145.195 605.809 145.292C605.565 145.387 605.286 145.434 604.972 145.434ZM608.409 142.794V145.348H607.572V141.047H608.376V141.747H608.429C608.528 141.52 608.683 141.337 608.894 141.198C609.107 141.06 609.374 140.991 609.697 140.991C609.99 140.991 610.247 141.053 610.467 141.176C610.687 141.297 610.858 141.478 610.98 141.719C611.101 141.96 611.162 142.258 611.162 142.612V145.348H610.324V142.713C610.324 142.401 610.243 142.158 610.081 141.982C609.918 141.805 609.695 141.716 609.412 141.716C609.218 141.716 609.045 141.758 608.894 141.842C608.744 141.926 608.626 142.05 608.538 142.212C608.452 142.373 608.409 142.567 608.409 142.794ZM612.111 145.348V141.047H612.948V145.348H612.111ZM612.534 140.384C612.388 140.384 612.263 140.335 612.158 140.238C612.056 140.139 612.004 140.022 612.004 139.885C612.004 139.747 612.056 139.63 612.158 139.533C612.263 139.434 612.388 139.384 612.534 139.384C612.679 139.384 612.803 139.434 612.906 139.533C613.01 139.63 613.063 139.747 613.063 139.885C613.063 140.022 613.01 140.139 612.906 140.238C612.803 140.335 612.679 140.384 612.534 140.384ZM615.152 145.443C614.88 145.443 614.633 145.392 614.413 145.292C614.193 145.189 614.018 145.041 613.889 144.847C613.762 144.652 613.699 144.414 613.699 144.133C613.699 143.89 613.746 143.69 613.839 143.533C613.932 143.377 614.058 143.253 614.217 143.161C614.376 143.07 614.553 143.001 614.749 142.954C614.945 142.907 615.145 142.872 615.348 142.848C615.606 142.818 615.815 142.793 615.975 142.775C616.136 142.754 616.252 142.722 616.325 142.677C616.398 142.632 616.434 142.559 616.434 142.458V142.439C616.434 142.194 616.365 142.005 616.227 141.87C616.091 141.736 615.887 141.669 615.617 141.669C615.335 141.669 615.113 141.731 614.951 141.856C614.79 141.98 614.679 142.117 614.617 142.268L613.831 142.089C613.924 141.827 614.06 141.617 614.239 141.456C614.42 141.294 614.629 141.176 614.864 141.103C615.099 141.029 615.346 140.991 615.606 140.991C615.777 140.991 615.959 141.012 616.152 141.053C616.346 141.092 616.527 141.165 616.695 141.271C616.865 141.378 617.004 141.53 617.112 141.728C617.22 141.924 617.274 142.178 617.274 142.492V145.348H616.457V144.76H616.423C616.369 144.868 616.288 144.974 616.18 145.079C616.071 145.183 615.932 145.27 615.762 145.339C615.593 145.408 615.389 145.443 615.152 145.443ZM615.334 144.771C615.566 144.771 615.763 144.725 615.928 144.634C616.094 144.542 616.22 144.423 616.306 144.275C616.393 144.126 616.437 143.966 616.437 143.797V143.242C616.407 143.272 616.349 143.3 616.264 143.326C616.18 143.351 616.083 143.372 615.975 143.391C615.867 143.407 615.761 143.423 615.659 143.438C615.556 143.451 615.47 143.463 615.401 143.472C615.239 143.492 615.09 143.527 614.956 143.575C614.824 143.624 614.717 143.694 614.637 143.785C614.559 143.875 614.519 143.994 614.519 144.144C614.519 144.351 614.596 144.508 614.749 144.614C614.902 144.719 615.097 144.771 615.334 144.771Z" fill="black" fill-opacity="0.4"/>
</g>
<defs>
<filter id="filter0_ddd_401_5874" x="0.39041" y="0.678082" width="181.219" height="181.219" filterUnits="userSpaceOnUse" color-interpolation-filters="sRGB">
<feFlood flood-opacity="0" result="BackgroundImageFix"/>
<feColorMatrix in="SourceAlpha" type="matrix" values="0 0 0 0 0 0 0 0 0 0 0 0 0 0 0 0 0 0 127 0" result="hardAlpha"/>
<feOffset dy="2.9024"/>
<feGaussianBlur stdDeviation="1.16096"/>
<feColorMatrix type="matrix" values="0 0 0 0 0 0 0 0 0 0 0 0 0 0 0 0 0 0 0.02 0"/>
<feBlend mode="normal" in2="BackgroundImageFix" result="effect1_dropShadow_401_5874"/>
<feColorMatrix in="SourceAlpha" type="matrix" values="0 0 0 0 0 0 0 0 0 0 0 0 0 0 0 0 0 0 127 0" result="hardAlpha"/>
<feOffset dy="3.48288"/>
<feGaussianBlur stdDeviation="2.9024"/>
<feColorMatrix type="matrix" values="0 0 0 0 0 0 0 0 0 0 0 0 0 0 0 0 0 0 0.04 0"/>
<feBlend mode="normal" in2="effect1_dropShadow_401_5874" result="effect2_dropShadow_401_5874"/>
<feColorMatrix in="SourceAlpha" type="matrix" values="0 0 0 0 0 0 0 0 0 0 0 0 0 0 0 0 0 0 127 0" result="hardAlpha"/>
<feOffset dy="9.28767"/>
<feGaussianBlur stdDeviation="5.80479"/>
<feColorMatrix type="matrix" values="0 0 0 0 0 0 0 0 0 0 0 0 0 0 0 0 0 0 0.08 0"/>
<feBlend mode="normal" in2="effect2_dropShadow_401_5874" result="effect3_dropShadow_401_5874"/>
<feBlend mode="normal" in="SourceGraphic" in2="effect3_dropShadow_401_5874" result="shape"/>
</filter>
<filter id="filter1_ddd_401_5874" x="188.39" y="0.678082" width="181.219" height="181.219" filterUnits="userSpaceOnUse" color-interpolation-filters="sRGB">
<feFlood flood-opacity="0" result="BackgroundImageFix"/>
<feColorMatrix in="SourceAlpha" type="matrix" values="0 0 0 0 0 0 0 0 0 0 0 0 0 0 0 0 0 0 127 0" result="hardAlpha"/>
<feOffset dy="2.9024"/>
<feGaussianBlur stdDeviation="1.16096"/>
<feColorMatrix type="matrix" values="0 0 0 0 0 0 0 0 0 0 0 0 0 0 0 0 0 0 0.02 0"/>
<feBlend mode="normal" in2="BackgroundImageFix" result="effect1_dropShadow_401_5874"/>
<feColorMatrix in="SourceAlpha" type="matrix" values="0 0 0 0 0 0 0 0 0 0 0 0 0 0 0 0 0 0 127 0" result="hardAlpha"/>
<feOffset dy="3.48288"/>
<feGaussianBlur stdDeviation="2.9024"/>
<feColorMatrix type="matrix" values="0 0 0 0 0 0 0 0 0 0 0 0 0 0 0 0 0 0 0.04 0"/>
<feBlend mode="normal" in2="effect1_dropShadow_401_5874" result="effect2_dropShadow_401_5874"/>
<feColorMatrix in="SourceAlpha" type="matrix" values="0 0 0 0 0 0 0 0 0 0 0 0 0 0 0 0 0 0 127 0" result="hardAlpha"/>
<feOffset dy="9.28767"/>
<feGaussianBlur stdDeviation="5.80479"/>
<feColorMatrix type="matrix" values="0 0 0 0 0 0 0 0 0 0 0 0 0 0 0 0 0 0 0.08 0"/>
<feBlend mode="normal" in2="effect2_dropShadow_401_5874" result="effect3_dropShadow_401_5874"/>
<feBlend mode="normal" in="SourceGraphic" in2="effect3_dropShadow_401_5874" result="shape"/>
</filter>
<filter id="filter2_ddd_401_5874" x="376.39" y="0.678082" width="181.219" height="181.219" filterUnits="userSpaceOnUse" color-interpolation-filters="sRGB">
<feFlood flood-opacity="0" result="BackgroundImageFix"/>
<feColorMatrix in="SourceAlpha" type="matrix" values="0 0 0 0 0 0 0 0 0 0 0 0 0 0 0 0 0 0 127 0" result="hardAlpha"/>
<feOffset dy="2.9024"/>
<feGaussianBlur stdDeviation="1.16096"/>
<feColorMatrix type="matrix" values="0 0 0 0 0 0 0 0 0 0 0 0 0 0 0 0 0 0 0.02 0"/>
<feBlend mode="normal" in2="BackgroundImageFix" result="effect1_dropShadow_401_5874"/>
<feColorMatrix in="SourceAlpha" type="matrix" values="0 0 0 0 0 0 0 0 0 0 0 0 0 0 0 0 0 0 127 0" result="hardAlpha"/>
<feOffset dy="3.48288"/>
<feGaussianBlur stdDeviation="2.9024"/>
<feColorMatrix type="matrix" values="0 0 0 0 0 0 0 0 0 0 0 0 0 0 0 0 0 0 0.04 0"/>
<feBlend mode="normal" in2="effect1_dropShadow_401_5874" result="effect2_dropShadow_401_5874"/>
<feColorMatrix in="SourceAlpha" type="matrix" values="0 0 0 0 0 0 0 0 0 0 0 0 0 0 0 0 0 0 127 0" result="hardAlpha"/>
<feOffset dy="9.28767"/>
<feGaussianBlur stdDeviation="5.80479"/>
<feColorMatrix type="matrix" values="0 0 0 0 0 0 0 0 0 0 0 0 0 0 0 0 0 0 0.08 0"/>
<feBlend mode="normal" in2="effect2_dropShadow_401_5874" result="effect3_dropShadow_401_5874"/>
<feBlend mode="normal" in="SourceGraphic" in2="effect3_dropShadow_401_5874" result="shape"/>
</filter>
<filter id="filter3_ddd_401_5874" x="564.39" y="0.678082" width="181.219" height="181.219" filterUnits="userSpaceOnUse" color-interpolation-filters="sRGB">
<feFlood flood-opacity="0" result="BackgroundImageFix"/>
<feColorMatrix in="SourceAlpha" type="matrix" values="0 0 0 0 0 0 0 0 0 0 0 0 0 0 0 0 0 0 127 0" result="hardAlpha"/>
<feOffset dy="2.9024"/>
<feGaussianBlur stdDeviation="1.16096"/>
<feColorMatrix type="matrix" values="0 0 0 0 0 0 0 0 0 0 0 0 0 0 0 0 0 0 0.02 0"/>
<feBlend mode="normal" in2="BackgroundImageFix" result="effect1_dropShadow_401_5874"/>
<feColorMatrix in="SourceAlpha" type="matrix" values="0 0 0 0 0 0 0 0 0 0 0 0 0 0 0 0 0 0 127 0" result="hardAlpha"/>
<feOffset dy="3.48288"/>
<feGaussianBlur stdDeviation="2.9024"/>
<feColorMatrix type="matrix" values="0 0 0 0 0 0 0 0 0 0 0 0 0 0 0 0 0 0 0.04 0"/>
<feBlend mode="normal" in2="effect1_dropShadow_401_5874" result="effect2_dropShadow_401_5874"/>
<feColorMatrix in="SourceAlpha" type="matrix" values="0 0 0 0 0 0 0 0 0 0 0 0 0 0 0 0 0 0 127 0" result="hardAlpha"/>
<feOffset dy="9.28767"/>
<feGaussianBlur stdDeviation="5.80479"/>
<feColorMatrix type="matrix" values="0 0 0 0 0 0 0 0 0 0 0 0 0 0 0 0 0 0 0.08 0"/>
<feBlend mode="normal" in2="effect2_dropShadow_401_5874" result="effect3_dropShadow_401_5874"/>
<feBlend mode="normal" in="SourceGraphic" in2="effect3_dropShadow_401_5874" result="shape"/>
</filter>
</defs>
</svg>
