<svg width="1683" height="268" viewBox="0 0 1683 268" fill="none" xmlns="http://www.w3.org/2000/svg">
<path d="M134.817 33.0239L111.188 78.0283C104.285 75.6348 96.6594 74.438 88.3098 74.438C76.342 74.438 70.3582 77.6943 70.3582 84.207C70.3582 87.3242 72.0281 89.7734 75.3679 91.5547C78.7078 93.2803 83.467 94.1431 89.6458 94.1431C97.9954 94.1431 105.176 92.6401 111.188 89.6343L134.817 137.895C128.137 141.903 120.066 145.104 110.603 147.497C101.14 149.891 92.095 151.087 83.467 151.087C61.8137 151.087 44.5579 144.853 31.6995 132.384C18.8967 119.86 12.4954 104.469 12.4954 86.2109C12.4954 66.8955 19.175 50.9756 32.5344 38.4512C45.8938 25.8711 62.8713 19.5811 83.467 19.5811C92.3733 19.5811 101.558 20.8057 111.021 23.2549C120.539 25.6484 128.471 28.9048 134.817 33.0239ZM206.452 151.087C188.25 151.087 172.803 144.714 160.112 131.967C147.476 119.164 141.158 103.578 141.158 85.209C141.158 66.8955 147.476 51.3931 160.112 38.7017C172.803 25.9546 188.25 19.5811 206.452 19.5811C224.71 19.5811 240.157 25.9546 252.792 38.7017C265.484 51.3931 271.83 66.8955 271.83 85.209C271.83 103.578 265.484 119.164 252.792 131.967C240.157 144.714 224.71 151.087 206.452 151.087ZM206.452 68.4263C202.834 68.4263 199.828 69.7065 197.435 72.2671C195.041 74.772 193.844 77.9448 193.844 81.7856C193.844 85.6265 195.041 88.8271 197.435 91.3877C199.828 93.8926 202.834 95.145 206.452 95.145C210.126 95.145 213.16 93.8926 215.553 91.3877C217.947 88.8271 219.144 85.6265 219.144 81.7856C219.144 77.9448 217.947 74.772 215.553 72.2671C213.16 69.7065 210.126 68.4263 206.452 68.4263ZM414.854 150.002H372.104L344.717 109.84V149H288.357V21.585H328.686L358.41 64.6689V21.585H414.854V150.002ZM554.538 33.0239L530.909 78.0283C524.006 75.6348 516.38 74.438 508.031 74.438C496.063 74.438 490.079 77.6943 490.079 84.207C490.079 87.3242 491.749 89.7734 495.089 91.5547C498.429 93.2803 503.188 94.1431 509.367 94.1431C517.716 94.1431 524.897 92.6401 530.909 89.6343L554.538 137.895C547.858 141.903 539.787 145.104 530.324 147.497C520.861 149.891 511.816 151.087 503.188 151.087C481.535 151.087 464.279 144.853 451.42 132.384C438.618 119.86 432.216 104.469 432.216 86.2109C432.216 66.8955 438.896 50.9756 452.255 38.4512C465.615 25.8711 482.592 19.5811 503.188 19.5811C512.094 19.5811 521.279 20.8057 530.742 23.2549C540.26 25.6484 548.192 28.9048 554.538 33.0239ZM671.511 117.021V149H565.722V21.585H671.511V53.564H622.082V69.3447H656.482V101.324H622.082V117.021H671.511ZM685.367 21.585H762.601C778.91 21.585 791.435 25.7319 800.174 34.0259C808.913 42.2642 813.283 52.4785 813.283 64.6689C813.283 76.5811 809.136 86.7119 800.842 95.0615C792.548 103.411 782.556 107.586 770.867 107.586C761.126 107.586 751.412 103.884 741.727 96.481V149H685.367V21.585ZM741.727 49.1387V76.8594C743.397 77.3047 744.955 77.5273 746.403 77.5273C750.633 77.5273 754.056 76.1914 756.673 73.5195C759.289 70.8477 760.597 67.3408 760.597 62.999C760.597 58.7129 759.484 55.3452 757.257 52.896C755.031 50.3911 751.858 49.1387 747.739 49.1387H741.727ZM814.28 78.0283V21.585H927.501V78.0283H899.112V149H842.669V78.0283H814.28ZM1064.18 21.585V79.3643C1064.18 104.58 1057.72 122.838 1044.81 134.138C1031.95 145.438 1017.25 151.087 1000.72 151.087C988.755 151.087 977.371 147.97 966.573 141.736C955.829 135.501 948.287 127.291 943.945 117.104C939.603 106.862 937.432 93.4473 937.432 76.8594V21.585H993.876V80.6167C993.876 86.9624 994.432 90.9702 995.546 92.6401C996.659 94.3101 998.329 95.145 1000.56 95.145C1003.67 95.145 1005.65 93.6421 1006.48 90.6362C1007.32 87.5747 1007.74 82.4536 1007.74 75.2729V21.585H1064.18ZM1116.44 149H1060L1104.25 21.585H1184.66L1228.91 149H1172.55L1165.21 127.458H1123.79L1116.44 149ZM1134.06 97.3994H1154.94L1144.5 65.7544L1134.06 97.3994ZM1237.67 149V21.585H1294.12V117.021H1343.55V149H1237.67ZM1353.9 149V21.585H1410.26V149H1353.9ZM1555.87 117.021V149H1421.69L1480.31 53.564H1426.45V21.585H1558.79L1500.18 117.021H1555.87ZM1674.6 117.021V149H1568.81V21.585H1674.6V53.564H1625.17V69.3447H1659.57V101.324H1625.17V117.021H1674.6Z" fill="#FEFAE0" fill-opacity="0.2"/>
<path d="M414.534 204L422.486 184.568H424.39L432.314 204H429.458L422.934 187.564H423.914L417.334 204H414.534ZM418.314 199.604V197.308H428.534V199.604H418.314ZM435.711 204V188.712C435.711 187.723 435.926 186.864 436.355 186.136C436.784 185.389 437.372 184.801 438.119 184.372C438.884 183.943 439.771 183.728 440.779 183.728C441.544 183.728 442.207 183.859 442.767 184.12C443.327 184.381 443.84 184.764 444.307 185.268L442.655 186.892C442.412 186.631 442.142 186.435 441.843 186.304C441.544 186.155 441.18 186.08 440.751 186.08C439.948 186.08 439.323 186.313 438.875 186.78C438.446 187.247 438.231 187.891 438.231 188.712V204H435.711ZM432.435 192.996V190.7H442.459V192.996H432.435ZM446.242 204V185.128H448.762V204H446.242ZM442.966 192.996V190.7H452.038V192.996H442.966ZM460.256 204.28C458.931 204.28 457.736 203.981 456.672 203.384C455.608 202.768 454.768 201.937 454.152 200.892C453.536 199.847 453.228 198.661 453.228 197.336C453.228 196.029 453.527 194.853 454.124 193.808C454.74 192.763 455.561 191.941 456.588 191.344C457.633 190.728 458.8 190.42 460.088 190.42C461.32 190.42 462.403 190.7 463.336 191.26C464.288 191.82 465.025 192.595 465.548 193.584C466.089 194.573 466.36 195.693 466.36 196.944C466.36 197.131 466.351 197.336 466.332 197.56C466.313 197.765 466.276 198.008 466.22 198.288H454.992V196.188H464.876L463.952 197C463.952 196.104 463.793 195.348 463.476 194.732C463.159 194.097 462.711 193.612 462.132 193.276C461.553 192.921 460.853 192.744 460.032 192.744C459.173 192.744 458.417 192.931 457.764 193.304C457.111 193.677 456.607 194.2 456.252 194.872C455.897 195.544 455.72 196.337 455.72 197.252C455.72 198.185 455.907 199.007 456.28 199.716C456.653 200.407 457.185 200.948 457.876 201.34C458.567 201.713 459.36 201.9 460.256 201.9C461.003 201.9 461.684 201.769 462.3 201.508C462.935 201.247 463.476 200.855 463.924 200.332L465.548 201.984C464.913 202.731 464.129 203.3 463.196 203.692C462.281 204.084 461.301 204.28 460.256 204.28ZM469.108 204V190.7H471.628V204H469.108ZM471.628 196.412L470.676 195.992C470.676 194.293 471.068 192.94 471.852 191.932C472.636 190.924 473.765 190.42 475.24 190.42C475.912 190.42 476.518 190.541 477.06 190.784C477.601 191.008 478.105 191.391 478.572 191.932L476.92 193.64C476.64 193.341 476.332 193.127 475.996 192.996C475.66 192.865 475.268 192.8 474.82 192.8C473.886 192.8 473.121 193.099 472.524 193.696C471.926 194.293 471.628 195.199 471.628 196.412ZM496.07 204V196.244C496.07 195.236 495.753 194.405 495.118 193.752C494.484 193.099 493.662 192.772 492.654 192.772C491.982 192.772 491.385 192.921 490.862 193.22C490.34 193.519 489.929 193.929 489.63 194.452C489.332 194.975 489.182 195.572 489.182 196.244L488.146 195.656C488.146 194.648 488.37 193.752 488.818 192.968C489.266 192.184 489.892 191.568 490.694 191.12C491.497 190.653 492.402 190.42 493.41 190.42C494.418 190.42 495.305 190.644 496.07 191.092C496.854 191.54 497.47 192.165 497.918 192.968C498.366 193.771 498.59 194.695 498.59 195.74V204H496.07ZM486.662 204V184.008H489.182V204H486.662ZM507.658 204.28C506.445 204.28 505.344 203.981 504.354 203.384C503.365 202.768 502.581 201.937 502.002 200.892C501.442 199.847 501.162 198.671 501.162 197.364C501.162 196.057 501.442 194.881 502.002 193.836C502.581 192.791 503.356 191.96 504.326 191.344C505.316 190.728 506.426 190.42 507.658 190.42C508.666 190.42 509.562 190.635 510.346 191.064C511.149 191.475 511.793 192.053 512.278 192.8C512.764 193.528 513.034 194.377 513.09 195.348V199.352C513.034 200.304 512.764 201.153 512.278 201.9C511.812 202.647 511.177 203.235 510.374 203.664C509.59 204.075 508.685 204.28 507.658 204.28ZM508.078 201.9C509.329 201.9 510.337 201.48 511.102 200.64C511.868 199.781 512.25 198.689 512.25 197.364C512.25 196.449 512.073 195.656 511.718 194.984C511.382 194.293 510.897 193.761 510.262 193.388C509.628 192.996 508.89 192.8 508.05 192.8C507.21 192.8 506.464 192.996 505.81 193.388C505.176 193.78 504.672 194.321 504.298 195.012C503.944 195.684 503.766 196.459 503.766 197.336C503.766 198.232 503.944 199.025 504.298 199.716C504.672 200.388 505.185 200.92 505.838 201.312C506.492 201.704 507.238 201.9 508.078 201.9ZM512.082 204V200.416L512.558 197.168L512.082 193.948V190.7H514.63V204H512.082ZM522.863 204L516.759 190.7H519.559L524.459 201.928H522.835L527.763 190.7H530.451L524.347 204H522.863ZM532.628 204V190.7H535.148V204H532.628ZM533.888 188.04C533.421 188.04 533.039 187.891 532.74 187.592C532.441 187.275 532.292 186.883 532.292 186.416C532.292 185.968 532.441 185.595 532.74 185.296C533.039 184.979 533.421 184.82 533.888 184.82C534.355 184.82 534.737 184.979 535.036 185.296C535.335 185.595 535.484 185.968 535.484 186.416C535.484 186.883 535.335 187.275 535.036 187.592C534.737 187.891 534.355 188.04 533.888 188.04ZM548.27 204V196.244C548.27 195.236 547.952 194.405 547.318 193.752C546.683 193.099 545.862 192.772 544.854 192.772C544.182 192.772 543.584 192.921 543.062 193.22C542.539 193.519 542.128 193.929 541.83 194.452C541.531 194.975 541.382 195.572 541.382 196.244L540.346 195.656C540.346 194.648 540.57 193.752 541.018 192.968C541.466 192.184 542.091 191.568 542.894 191.12C543.696 190.653 544.602 190.42 545.61 190.42C546.618 190.42 547.504 190.672 548.27 191.176C549.054 191.68 549.67 192.343 550.118 193.164C550.566 193.967 550.79 194.825 550.79 195.74V204H548.27ZM538.862 204V190.7H541.382V204H538.862ZM559.718 209.852C558.355 209.852 557.142 209.6 556.078 209.096C555.032 208.592 554.192 207.883 553.558 206.968L555.182 205.316C555.723 206.007 556.367 206.529 557.114 206.884C557.86 207.257 558.747 207.444 559.774 207.444C561.136 207.444 562.21 207.08 562.994 206.352C563.796 205.643 564.198 204.681 564.198 203.468V200.164L564.646 197.168L564.198 194.2V190.7H566.718V203.468C566.718 204.737 566.419 205.848 565.822 206.8C565.243 207.752 564.422 208.499 563.358 209.04C562.312 209.581 561.099 209.852 559.718 209.852ZM559.718 203.776C558.504 203.776 557.412 203.487 556.442 202.908C555.49 202.329 554.734 201.536 554.174 200.528C553.614 199.501 553.334 198.353 553.334 197.084C553.334 195.815 553.614 194.685 554.174 193.696C554.734 192.688 555.49 191.895 556.442 191.316C557.412 190.719 558.504 190.42 559.718 190.42C560.763 190.42 561.687 190.625 562.49 191.036C563.292 191.447 563.927 192.025 564.394 192.772C564.879 193.5 565.14 194.359 565.178 195.348V198.876C565.122 199.847 564.851 200.705 564.366 201.452C563.899 202.18 563.264 202.749 562.462 203.16C561.659 203.571 560.744 203.776 559.718 203.776ZM560.222 201.396C561.043 201.396 561.762 201.219 562.378 200.864C563.012 200.509 563.498 200.015 563.834 199.38C564.17 198.727 564.338 197.971 564.338 197.112C564.338 196.253 564.16 195.507 563.806 194.872C563.47 194.219 562.994 193.715 562.378 193.36C561.762 192.987 561.034 192.8 560.194 192.8C559.354 192.8 558.616 192.987 557.982 193.36C557.347 193.715 556.843 194.219 556.47 194.872C556.115 195.507 555.938 196.244 555.938 197.084C555.938 197.924 556.115 198.671 556.47 199.324C556.843 199.977 557.347 200.491 557.982 200.864C558.635 201.219 559.382 201.396 560.222 201.396ZM581.757 209.852C580.394 209.852 579.181 209.6 578.117 209.096C577.071 208.592 576.231 207.883 575.597 206.968L577.221 205.316C577.762 206.007 578.406 206.529 579.153 206.884C579.899 207.257 580.786 207.444 581.813 207.444C583.175 207.444 584.249 207.08 585.033 206.352C585.835 205.643 586.237 204.681 586.237 203.468V200.164L586.685 197.168L586.237 194.2V190.7H588.757V203.468C588.757 204.737 588.458 205.848 587.861 206.8C587.282 207.752 586.461 208.499 585.397 209.04C584.351 209.581 583.138 209.852 581.757 209.852ZM581.757 203.776C580.543 203.776 579.451 203.487 578.481 202.908C577.529 202.329 576.773 201.536 576.213 200.528C575.653 199.501 575.373 198.353 575.373 197.084C575.373 195.815 575.653 194.685 576.213 193.696C576.773 192.688 577.529 191.895 578.481 191.316C579.451 190.719 580.543 190.42 581.757 190.42C582.802 190.42 583.726 190.625 584.529 191.036C585.331 191.447 585.966 192.025 586.433 192.772C586.918 193.5 587.179 194.359 587.217 195.348V198.876C587.161 199.847 586.89 200.705 586.405 201.452C585.938 202.18 585.303 202.749 584.501 203.16C583.698 203.571 582.783 203.776 581.757 203.776ZM582.261 201.396C583.082 201.396 583.801 201.219 584.417 200.864C585.051 200.509 585.537 200.015 585.873 199.38C586.209 198.727 586.377 197.971 586.377 197.112C586.377 196.253 586.199 195.507 585.845 194.872C585.509 194.219 585.033 193.715 584.417 193.36C583.801 192.987 583.073 192.8 582.233 192.8C581.393 192.8 580.655 192.987 580.021 193.36C579.386 193.715 578.882 194.219 578.509 194.872C578.154 195.507 577.977 196.244 577.977 197.084C577.977 197.924 578.154 198.671 578.509 199.324C578.882 199.977 579.386 200.491 580.021 200.864C580.674 201.219 581.421 201.396 582.261 201.396ZM598.111 204.28C596.898 204.28 595.797 203.981 594.807 203.384C593.818 202.768 593.034 201.937 592.455 200.892C591.895 199.847 591.615 198.671 591.615 197.364C591.615 196.057 591.895 194.881 592.455 193.836C593.034 192.791 593.809 191.96 594.779 191.344C595.769 190.728 596.879 190.42 598.111 190.42C599.119 190.42 600.015 190.635 600.799 191.064C601.602 191.475 602.246 192.053 602.731 192.8C603.217 193.528 603.487 194.377 603.543 195.348V199.352C603.487 200.304 603.217 201.153 602.731 201.9C602.265 202.647 601.63 203.235 600.827 203.664C600.043 204.075 599.138 204.28 598.111 204.28ZM598.531 201.9C599.782 201.9 600.79 201.48 601.555 200.64C602.321 199.781 602.703 198.689 602.703 197.364C602.703 196.449 602.526 195.656 602.171 194.984C601.835 194.293 601.35 193.761 600.715 193.388C600.081 192.996 599.343 192.8 598.503 192.8C597.663 192.8 596.917 192.996 596.263 193.388C595.629 193.78 595.125 194.321 594.751 195.012C594.397 195.684 594.219 196.459 594.219 197.336C594.219 198.232 594.397 199.025 594.751 199.716C595.125 200.388 595.638 200.92 596.291 201.312C596.945 201.704 597.691 201.9 598.531 201.9ZM602.535 204V200.416L603.011 197.168L602.535 193.948V190.7H605.083V204H602.535ZM610.742 204V185.128H613.262V204H610.742ZM607.466 192.996V190.7H616.538V192.996H607.466ZM628.414 204V196.244C628.414 195.236 628.097 194.405 627.462 193.752C626.828 193.099 626.006 192.772 624.998 192.772C624.326 192.772 623.729 192.921 623.206 193.22C622.684 193.519 622.273 193.929 621.974 194.452C621.676 194.975 621.526 195.572 621.526 196.244L620.49 195.656C620.49 194.648 620.714 193.752 621.162 192.968C621.61 192.184 622.236 191.568 623.038 191.12C623.841 190.653 624.746 190.42 625.754 190.42C626.762 190.42 627.649 190.644 628.414 191.092C629.198 191.54 629.814 192.165 630.262 192.968C630.71 193.771 630.934 194.695 630.934 195.74V204H628.414ZM619.006 204V184.008H621.526V204H619.006ZM640.506 204.28C639.181 204.28 637.986 203.981 636.922 203.384C635.858 202.768 635.018 201.937 634.402 200.892C633.786 199.847 633.478 198.661 633.478 197.336C633.478 196.029 633.777 194.853 634.374 193.808C634.99 192.763 635.811 191.941 636.838 191.344C637.883 190.728 639.05 190.42 640.338 190.42C641.57 190.42 642.653 190.7 643.586 191.26C644.538 191.82 645.275 192.595 645.798 193.584C646.339 194.573 646.61 195.693 646.61 196.944C646.61 197.131 646.601 197.336 646.582 197.56C646.563 197.765 646.526 198.008 646.47 198.288H635.242V196.188H645.126L644.202 197C644.202 196.104 644.043 195.348 643.726 194.732C643.409 194.097 642.961 193.612 642.382 193.276C641.803 192.921 641.103 192.744 640.282 192.744C639.423 192.744 638.667 192.931 638.014 193.304C637.361 193.677 636.857 194.2 636.502 194.872C636.147 195.544 635.97 196.337 635.97 197.252C635.97 198.185 636.157 199.007 636.53 199.716C636.903 200.407 637.435 200.948 638.126 201.34C638.817 201.713 639.61 201.9 640.506 201.9C641.253 201.9 641.934 201.769 642.55 201.508C643.185 201.247 643.726 200.855 644.174 200.332L645.798 201.984C645.163 202.731 644.379 203.3 643.446 203.692C642.531 204.084 641.551 204.28 640.506 204.28ZM649.358 204V190.7H651.878V204H649.358ZM651.878 196.412L650.926 195.992C650.926 194.293 651.318 192.94 652.102 191.932C652.886 190.924 654.015 190.42 655.49 190.42C656.162 190.42 656.768 190.541 657.31 190.784C657.851 191.008 658.355 191.391 658.822 191.932L657.17 193.64C656.89 193.341 656.582 193.127 656.246 192.996C655.91 192.865 655.518 192.8 655.07 192.8C654.136 192.8 653.371 193.099 652.774 193.696C652.176 194.293 651.878 195.199 651.878 196.412ZM666.319 204.28C664.993 204.28 663.799 203.981 662.735 203.384C661.671 202.768 660.831 201.937 660.215 200.892C659.599 199.847 659.291 198.661 659.291 197.336C659.291 196.029 659.589 194.853 660.187 193.808C660.803 192.763 661.624 191.941 662.651 191.344C663.696 190.728 664.863 190.42 666.151 190.42C667.383 190.42 668.465 190.7 669.399 191.26C670.351 191.82 671.088 192.595 671.611 193.584C672.152 194.573 672.423 195.693 672.423 196.944C672.423 197.131 672.413 197.336 672.395 197.56C672.376 197.765 672.339 198.008 672.283 198.288H661.055V196.188H670.939L670.015 197C670.015 196.104 669.856 195.348 669.539 194.732C669.221 194.097 668.773 193.612 668.195 193.276C667.616 192.921 666.916 192.744 666.095 192.744C665.236 192.744 664.48 192.931 663.827 193.304C663.173 193.677 662.669 194.2 662.315 194.872C661.96 195.544 661.783 196.337 661.783 197.252C661.783 198.185 661.969 199.007 662.343 199.716C662.716 200.407 663.248 200.948 663.939 201.34C664.629 201.713 665.423 201.9 666.319 201.9C667.065 201.9 667.747 201.769 668.363 201.508C668.997 201.247 669.539 200.855 669.987 200.332L671.611 201.984C670.976 202.731 670.192 203.3 669.259 203.692C668.344 204.084 667.364 204.28 666.319 204.28ZM680.798 204.28C679.566 204.28 678.465 203.981 677.494 203.384C676.524 202.768 675.749 201.937 675.17 200.892C674.61 199.847 674.33 198.671 674.33 197.364C674.33 196.057 674.61 194.881 675.17 193.836C675.749 192.791 676.524 191.96 677.494 191.344C678.465 190.728 679.566 190.42 680.798 190.42C681.788 190.42 682.684 190.635 683.486 191.064C684.289 191.475 684.933 192.053 685.418 192.8C685.922 193.528 686.202 194.377 686.258 195.348V199.352C686.202 200.304 685.932 201.153 685.446 201.9C684.961 202.647 684.317 203.235 683.514 203.664C682.712 204.075 681.806 204.28 680.798 204.28ZM681.218 201.9C682.058 201.9 682.786 201.704 683.402 201.312C684.037 200.92 684.532 200.388 684.886 199.716C685.241 199.025 685.418 198.241 685.418 197.364C685.418 196.449 685.232 195.656 684.858 194.984C684.504 194.312 684.009 193.78 683.374 193.388C682.758 192.996 682.03 192.8 681.19 192.8C680.35 192.8 679.613 192.996 678.978 193.388C678.344 193.78 677.84 194.321 677.466 195.012C677.112 195.684 676.934 196.459 676.934 197.336C676.934 198.232 677.112 199.025 677.466 199.716C677.84 200.388 678.344 200.92 678.978 201.312C679.632 201.704 680.378 201.9 681.218 201.9ZM687.798 204H685.25V200.416L685.726 197.168L685.25 193.948V184.008H687.798V204ZM702.947 204.28C701.734 204.28 700.633 203.981 699.643 203.384C698.654 202.768 697.87 201.937 697.291 200.892C696.731 199.847 696.451 198.671 696.451 197.364C696.451 196.057 696.731 194.881 697.291 193.836C697.87 192.791 698.645 191.96 699.615 191.344C700.605 190.728 701.715 190.42 702.947 190.42C703.955 190.42 704.851 190.635 705.635 191.064C706.438 191.475 707.082 192.053 707.567 192.8C708.053 193.528 708.323 194.377 708.379 195.348V199.352C708.323 200.304 708.053 201.153 707.567 201.9C707.101 202.647 706.466 203.235 705.663 203.664C704.879 204.075 703.974 204.28 702.947 204.28ZM703.367 201.9C704.618 201.9 705.626 201.48 706.391 200.64C707.157 199.781 707.539 198.689 707.539 197.364C707.539 196.449 707.362 195.656 707.007 194.984C706.671 194.293 706.186 193.761 705.551 193.388C704.917 192.996 704.179 192.8 703.339 192.8C702.499 192.8 701.753 192.996 701.099 193.388C700.465 193.78 699.961 194.321 699.587 195.012C699.233 195.684 699.055 196.459 699.055 197.336C699.055 198.232 699.233 199.025 699.587 199.716C699.961 200.388 700.474 200.92 701.127 201.312C701.781 201.704 702.527 201.9 703.367 201.9ZM707.371 204V200.416L707.847 197.168L707.371 193.948V190.7H709.919V204H707.371ZM713.588 204V184.008H716.108V204H713.588ZM719.795 204V184.008H722.315V204H719.795ZM733.871 204V185.128H736.391V204H733.871ZM730.595 192.996V190.7H739.667V192.996H730.595ZM751.543 204V196.244C751.543 195.236 751.226 194.405 750.591 193.752C749.956 193.099 749.135 192.772 748.127 192.772C747.455 192.772 746.858 192.921 746.335 193.22C745.812 193.519 745.402 193.929 745.103 194.452C744.804 194.975 744.655 195.572 744.655 196.244L743.619 195.656C743.619 194.648 743.843 193.752 744.291 192.968C744.739 192.184 745.364 191.568 746.167 191.12C746.97 190.653 747.875 190.42 748.883 190.42C749.891 190.42 750.778 190.644 751.543 191.092C752.327 191.54 752.943 192.165 753.391 192.968C753.839 193.771 754.063 194.695 754.063 195.74V204H751.543ZM742.135 204V184.008H744.655V204H742.135ZM763.635 204.28C762.31 204.28 761.115 203.981 760.051 203.384C758.987 202.768 758.147 201.937 757.531 200.892C756.915 199.847 756.607 198.661 756.607 197.336C756.607 196.029 756.906 194.853 757.503 193.808C758.119 192.763 758.94 191.941 759.967 191.344C761.012 190.728 762.179 190.42 763.467 190.42C764.699 190.42 765.782 190.7 766.715 191.26C767.667 191.82 768.404 192.595 768.927 193.584C769.468 194.573 769.739 195.693 769.739 196.944C769.739 197.131 769.73 197.336 769.711 197.56C769.692 197.765 769.655 198.008 769.599 198.288H758.371V196.188H768.255L767.331 197C767.331 196.104 767.172 195.348 766.855 194.732C766.538 194.097 766.09 193.612 765.511 193.276C764.932 192.921 764.232 192.744 763.411 192.744C762.552 192.744 761.796 192.931 761.143 193.304C760.49 193.677 759.986 194.2 759.631 194.872C759.276 195.544 759.099 196.337 759.099 197.252C759.099 198.185 759.286 199.007 759.659 199.716C760.032 200.407 760.564 200.948 761.255 201.34C761.946 201.713 762.739 201.9 763.635 201.9C764.382 201.9 765.063 201.769 765.679 201.508C766.314 201.247 766.855 200.855 767.303 200.332L768.927 201.984C768.292 202.731 767.508 203.3 766.575 203.692C765.66 204.084 764.68 204.28 763.635 204.28ZM778.339 204V190.7H780.859V204H778.339ZM779.599 188.04C779.132 188.04 778.75 187.891 778.451 187.592C778.152 187.275 778.003 186.883 778.003 186.416C778.003 185.968 778.152 185.595 778.451 185.296C778.75 184.979 779.132 184.82 779.599 184.82C780.066 184.82 780.448 184.979 780.747 185.296C781.046 185.595 781.195 185.968 781.195 186.416C781.195 186.883 781.046 187.275 780.747 187.592C780.448 187.891 780.066 188.04 779.599 188.04ZM793.981 204V196.244C793.981 195.236 793.663 194.405 793.029 193.752C792.394 193.099 791.573 192.772 790.565 192.772C789.893 192.772 789.295 192.921 788.773 193.22C788.25 193.519 787.839 193.929 787.541 194.452C787.242 194.975 787.093 195.572 787.093 196.244L786.057 195.656C786.057 194.648 786.281 193.752 786.729 192.968C787.177 192.184 787.802 191.568 788.605 191.12C789.407 190.653 790.313 190.42 791.321 190.42C792.329 190.42 793.215 190.672 793.981 191.176C794.765 191.68 795.381 192.343 795.829 193.164C796.277 193.967 796.501 194.825 796.501 195.74V204H793.981ZM784.573 204V190.7H787.093V204H784.573ZM801.652 204V188.712C801.652 187.723 801.867 186.864 802.296 186.136C802.726 185.389 803.314 184.801 804.06 184.372C804.826 183.943 805.712 183.728 806.72 183.728C807.486 183.728 808.148 183.859 808.708 184.12C809.268 184.381 809.782 184.764 810.248 185.268L808.596 186.892C808.354 186.631 808.083 186.435 807.784 186.304C807.486 186.155 807.122 186.08 806.692 186.08C805.89 186.08 805.264 186.313 804.816 186.78C804.387 187.247 804.172 187.891 804.172 188.712V204H801.652ZM798.376 192.996V190.7H808.4V192.996H798.376ZM816.242 204.28C814.936 204.28 813.76 203.972 812.714 203.356C811.669 202.74 810.838 201.909 810.222 200.864C809.606 199.8 809.298 198.615 809.298 197.308C809.298 196.02 809.606 194.863 810.222 193.836C810.838 192.791 811.669 191.96 812.714 191.344C813.76 190.728 814.936 190.42 816.242 190.42C817.53 190.42 818.697 190.728 819.742 191.344C820.806 191.941 821.646 192.763 822.262 193.808C822.878 194.853 823.186 196.02 823.186 197.308C823.186 198.615 822.878 199.8 822.262 200.864C821.646 201.909 820.806 202.74 819.742 203.356C818.697 203.972 817.53 204.28 816.242 204.28ZM816.242 201.844C817.082 201.844 817.829 201.648 818.482 201.256C819.136 200.864 819.649 200.332 820.022 199.66C820.396 198.969 820.582 198.185 820.582 197.308C820.582 196.449 820.386 195.684 819.994 195.012C819.621 194.34 819.108 193.817 818.454 193.444C817.82 193.052 817.082 192.856 816.242 192.856C815.402 192.856 814.656 193.052 814.002 193.444C813.349 193.817 812.836 194.34 812.462 195.012C812.089 195.684 811.902 196.449 811.902 197.308C811.902 198.185 812.089 198.969 812.462 199.66C812.836 200.332 813.349 200.864 814.002 201.256C814.656 201.648 815.402 201.844 816.242 201.844ZM841.258 204V196.244C841.258 195.236 840.941 194.405 840.306 193.752C839.671 193.099 838.85 192.772 837.842 192.772C837.17 192.772 836.573 192.921 836.05 193.22C835.527 193.519 835.117 193.929 834.818 194.452C834.519 194.975 834.37 195.572 834.37 196.244L833.334 195.656C833.334 194.648 833.558 193.752 834.006 192.968C834.454 192.184 835.079 191.568 835.882 191.12C836.685 190.653 837.59 190.42 838.598 190.42C839.606 190.42 840.493 190.672 841.258 191.176C842.042 191.68 842.658 192.343 843.106 193.164C843.554 193.967 843.778 194.825 843.778 195.74V204H841.258ZM831.85 204V190.7H834.37V204H831.85ZM853.35 204.28C852.024 204.28 850.83 203.981 849.766 203.384C848.702 202.768 847.862 201.937 847.246 200.892C846.63 199.847 846.322 198.661 846.322 197.336C846.322 196.029 846.62 194.853 847.218 193.808C847.834 192.763 848.655 191.941 849.682 191.344C850.727 190.728 851.894 190.42 853.182 190.42C854.414 190.42 855.496 190.7 856.43 191.26C857.382 191.82 858.119 192.595 858.642 193.584C859.183 194.573 859.454 195.693 859.454 196.944C859.454 197.131 859.444 197.336 859.426 197.56C859.407 197.765 859.37 198.008 859.314 198.288H848.086V196.188H857.97L857.046 197C857.046 196.104 856.887 195.348 856.57 194.732C856.252 194.097 855.804 193.612 855.226 193.276C854.647 192.921 853.947 192.744 853.126 192.744C852.267 192.744 851.511 192.931 850.858 193.304C850.204 193.677 849.7 194.2 849.346 194.872C848.991 195.544 848.814 196.337 848.814 197.252C848.814 198.185 849 199.007 849.374 199.716C849.747 200.407 850.279 200.948 850.97 201.34C851.66 201.713 852.454 201.9 853.35 201.9C854.096 201.9 854.778 201.769 855.394 201.508C856.028 201.247 856.57 200.855 857.018 200.332L858.642 201.984C858.007 202.731 857.223 203.3 856.29 203.692C855.375 204.084 854.395 204.28 853.35 204.28ZM868.362 204.28C867.036 204.28 865.842 203.981 864.778 203.384C863.714 202.768 862.874 201.937 862.258 200.892C861.642 199.847 861.334 198.661 861.334 197.336C861.334 196.029 861.632 194.853 862.23 193.808C862.846 192.763 863.667 191.941 864.694 191.344C865.739 190.728 866.906 190.42 868.194 190.42C869.426 190.42 870.508 190.7 871.442 191.26C872.394 191.82 873.131 192.595 873.654 193.584C874.195 194.573 874.466 195.693 874.466 196.944C874.466 197.131 874.456 197.336 874.438 197.56C874.419 197.765 874.382 198.008 874.326 198.288H863.098V196.188H872.982L872.058 197C872.058 196.104 871.899 195.348 871.582 194.732C871.264 194.097 870.816 193.612 870.238 193.276C869.659 192.921 868.959 192.744 868.138 192.744C867.279 192.744 866.523 192.931 865.87 193.304C865.216 193.677 864.712 194.2 864.358 194.872C864.003 195.544 863.826 196.337 863.826 197.252C863.826 198.185 864.012 199.007 864.386 199.716C864.759 200.407 865.291 200.948 865.982 201.34C866.672 201.713 867.466 201.9 868.362 201.9C869.108 201.9 869.79 201.769 870.406 201.508C871.04 201.247 871.582 200.855 872.03 200.332L873.654 201.984C873.019 202.731 872.235 203.3 871.302 203.692C870.387 204.084 869.407 204.28 868.362 204.28ZM882.841 204.28C881.609 204.28 880.508 203.981 879.537 203.384C878.567 202.768 877.792 201.937 877.213 200.892C876.653 199.847 876.373 198.671 876.373 197.364C876.373 196.057 876.653 194.881 877.213 193.836C877.792 192.791 878.567 191.96 879.537 191.344C880.508 190.728 881.609 190.42 882.841 190.42C883.831 190.42 884.727 190.635 885.529 191.064C886.332 191.475 886.976 192.053 887.461 192.8C887.965 193.528 888.245 194.377 888.301 195.348V199.352C888.245 200.304 887.975 201.153 887.489 201.9C887.004 202.647 886.36 203.235 885.557 203.664C884.755 204.075 883.849 204.28 882.841 204.28ZM883.261 201.9C884.101 201.9 884.829 201.704 885.445 201.312C886.08 200.92 886.575 200.388 886.929 199.716C887.284 199.025 887.461 198.241 887.461 197.364C887.461 196.449 887.275 195.656 886.901 194.984C886.547 194.312 886.052 193.78 885.417 193.388C884.801 192.996 884.073 192.8 883.233 192.8C882.393 192.8 881.656 192.996 881.021 193.388C880.387 193.78 879.883 194.321 879.509 195.012C879.155 195.684 878.977 196.459 878.977 197.336C878.977 198.232 879.155 199.025 879.509 199.716C879.883 200.388 880.387 200.92 881.021 201.312C881.675 201.704 882.421 201.9 883.261 201.9ZM889.841 204H887.293V200.416L887.769 197.168L887.293 193.948V184.008H889.841V204ZM899.67 204.28C898.345 204.28 897.15 203.981 896.086 203.384C895.022 202.768 894.182 201.937 893.566 200.892C892.95 199.847 892.642 198.661 892.642 197.336C892.642 196.029 892.941 194.853 893.538 193.808C894.154 192.763 894.975 191.941 896.002 191.344C897.047 190.728 898.214 190.42 899.502 190.42C900.734 190.42 901.817 190.7 902.75 191.26C903.702 191.82 904.439 192.595 904.962 193.584C905.503 194.573 905.774 195.693 905.774 196.944C905.774 197.131 905.765 197.336 905.746 197.56C905.727 197.765 905.69 198.008 905.634 198.288H894.406V196.188H904.29L903.366 197C903.366 196.104 903.207 195.348 902.89 194.732C902.573 194.097 902.125 193.612 901.546 193.276C900.967 192.921 900.267 192.744 899.446 192.744C898.587 192.744 897.831 192.931 897.178 193.304C896.525 193.677 896.021 194.2 895.666 194.872C895.311 195.544 895.134 196.337 895.134 197.252C895.134 198.185 895.321 199.007 895.694 199.716C896.067 200.407 896.599 200.948 897.29 201.34C897.981 201.713 898.774 201.9 899.67 201.9C900.417 201.9 901.098 201.769 901.714 201.508C902.349 201.247 902.89 200.855 903.338 200.332L904.962 201.984C904.327 202.731 903.543 203.3 902.61 203.692C901.695 204.084 900.715 204.28 899.67 204.28ZM914.15 204.28C912.918 204.28 911.816 203.981 910.846 203.384C909.875 202.768 909.1 201.937 908.522 200.892C907.962 199.847 907.682 198.671 907.682 197.364C907.682 196.057 907.962 194.881 908.522 193.836C909.1 192.791 909.875 191.96 910.846 191.344C911.816 190.728 912.918 190.42 914.15 190.42C915.139 190.42 916.035 190.635 916.838 191.064C917.64 191.475 918.284 192.053 918.77 192.8C919.274 193.528 919.554 194.377 919.61 195.348V199.352C919.554 200.304 919.283 201.153 918.798 201.9C918.312 202.647 917.668 203.235 916.866 203.664C916.063 204.075 915.158 204.28 914.15 204.28ZM914.57 201.9C915.41 201.9 916.138 201.704 916.754 201.312C917.388 200.92 917.883 200.388 918.238 199.716C918.592 199.025 918.77 198.241 918.77 197.364C918.77 196.449 918.583 195.656 918.21 194.984C917.855 194.312 917.36 193.78 916.726 193.388C916.11 192.996 915.382 192.8 914.542 192.8C913.702 192.8 912.964 192.996 912.33 193.388C911.695 193.78 911.191 194.321 910.818 195.012C910.463 195.684 910.286 196.459 910.286 197.336C910.286 198.232 910.463 199.025 910.818 199.716C911.191 200.388 911.695 200.92 912.33 201.312C912.983 201.704 913.73 201.9 914.57 201.9ZM921.15 204H918.602V200.416L919.078 197.168L918.602 193.948V184.008H921.15V204ZM924.959 207.08L926.695 203.748L927.591 203.524C927.497 203.729 927.376 203.897 927.227 204.028C927.096 204.159 926.928 204.224 926.723 204.224C926.331 204.224 925.967 204.065 925.631 203.748C925.313 203.412 925.155 203.001 925.155 202.516C925.155 201.975 925.332 201.527 925.687 201.172C926.041 200.799 926.489 200.612 927.031 200.612C927.516 200.612 927.945 200.799 928.319 201.172C928.692 201.527 928.879 201.975 928.879 202.516C928.879 202.721 928.832 202.973 928.739 203.272C928.664 203.552 928.505 203.916 928.263 204.364L926.415 207.864L924.959 207.08ZM938.382 204V190.7H940.902V204H938.382ZM939.642 188.04C939.175 188.04 938.793 187.891 938.494 187.592C938.195 187.275 938.046 186.883 938.046 186.416C938.046 185.968 938.195 185.595 938.494 185.296C938.793 184.979 939.175 184.82 939.642 184.82C940.109 184.82 940.491 184.979 940.79 185.296C941.089 185.595 941.238 185.968 941.238 186.416C941.238 186.883 941.089 187.275 940.79 187.592C940.491 187.891 940.109 188.04 939.642 188.04ZM946.66 204V185.128H949.18V204H946.66ZM943.384 192.996V190.7H952.456V192.996H943.384ZM960.776 204V190.7H963.296V204H960.776ZM962.036 188.04C961.57 188.04 961.187 187.891 960.888 187.592C960.59 187.275 960.44 186.883 960.44 186.416C960.44 185.968 960.59 185.595 960.888 185.296C961.187 184.979 961.57 184.82 962.036 184.82C962.503 184.82 962.886 184.979 963.184 185.296C963.483 185.595 963.632 185.968 963.632 186.416C963.632 186.883 963.483 187.275 963.184 187.592C962.886 187.891 962.503 188.04 962.036 188.04ZM971.238 204.28C970.491 204.28 969.782 204.187 969.11 204C968.457 203.795 967.85 203.515 967.29 203.16C966.73 202.787 966.245 202.348 965.834 201.844L967.458 200.22C967.943 200.817 968.503 201.265 969.138 201.564C969.773 201.844 970.482 201.984 971.266 201.984C972.05 201.984 972.657 201.853 973.086 201.592C973.515 201.312 973.73 200.929 973.73 200.444C973.73 199.959 973.553 199.585 973.198 199.324C972.862 199.044 972.423 198.82 971.882 198.652C971.341 198.465 970.762 198.288 970.146 198.12C969.549 197.933 968.979 197.7 968.438 197.42C967.897 197.14 967.449 196.757 967.094 196.272C966.758 195.787 966.59 195.143 966.59 194.34C966.59 193.537 966.786 192.847 967.178 192.268C967.57 191.671 968.111 191.213 968.802 190.896C969.511 190.579 970.361 190.42 971.35 190.42C972.395 190.42 973.319 190.607 974.122 190.98C974.943 191.335 975.615 191.876 976.138 192.604L974.514 194.228C974.141 193.743 973.674 193.369 973.114 193.108C972.573 192.847 971.957 192.716 971.266 192.716C970.538 192.716 969.978 192.847 969.586 193.108C969.213 193.351 969.026 193.696 969.026 194.144C969.026 194.592 969.194 194.937 969.53 195.18C969.866 195.423 970.305 195.628 970.846 195.796C971.406 195.964 971.985 196.141 972.582 196.328C973.179 196.496 973.749 196.729 974.29 197.028C974.831 197.327 975.27 197.728 975.606 198.232C975.961 198.736 976.138 199.399 976.138 200.22C976.138 201.471 975.69 202.46 974.794 203.188C973.917 203.916 972.731 204.28 971.238 204.28ZM986.828 204V185.128H989.348V204H986.828ZM983.552 192.996V190.7H992.624V192.996H983.552ZM995.12 204V190.7H997.64V204H995.12ZM996.38 188.04C995.913 188.04 995.531 187.891 995.232 187.592C994.933 187.275 994.784 186.883 994.784 186.416C994.784 185.968 994.933 185.595 995.232 185.296C995.531 184.979 995.913 184.82 996.38 184.82C996.847 184.82 997.229 184.979 997.528 185.296C997.827 185.595 997.976 185.968 997.976 186.416C997.976 186.883 997.827 187.275 997.528 187.592C997.229 187.891 996.847 188.04 996.38 188.04ZM1001.35 204V190.7H1003.87V204H1001.35ZM1010.34 204V195.964C1010.34 194.975 1010.03 194.2 1009.42 193.64C1008.82 193.061 1008.06 192.772 1007.15 192.772C1006.53 192.772 1005.98 192.903 1005.5 193.164C1005.01 193.425 1004.62 193.789 1004.32 194.256C1004.02 194.723 1003.87 195.283 1003.87 195.936L1002.84 195.432C1002.84 194.424 1003.05 193.547 1003.48 192.8C1003.93 192.053 1004.54 191.475 1005.3 191.064C1006.07 190.635 1006.93 190.42 1007.88 190.42C1008.81 190.42 1009.65 190.625 1010.4 191.036C1011.16 191.447 1011.76 192.025 1012.19 192.772C1012.64 193.519 1012.86 194.405 1012.86 195.432V204H1010.34ZM1019.33 204V195.964C1019.33 194.975 1019.02 194.2 1018.41 193.64C1017.81 193.061 1017.06 192.772 1016.17 192.772C1015.55 192.772 1014.99 192.903 1014.49 193.164C1014 193.425 1013.61 193.789 1013.31 194.256C1013.01 194.723 1012.86 195.283 1012.86 195.936L1011.43 195.432C1011.49 194.405 1011.76 193.528 1012.25 192.8C1012.75 192.053 1013.39 191.475 1014.18 191.064C1014.96 190.635 1015.82 190.42 1016.75 190.42C1017.72 190.42 1018.59 190.625 1019.36 191.036C1020.12 191.447 1020.73 192.025 1021.18 192.772C1021.64 193.519 1021.88 194.415 1021.88 195.46V204H1019.33ZM1031.47 204.28C1030.14 204.28 1028.95 203.981 1027.88 203.384C1026.82 202.768 1025.98 201.937 1025.36 200.892C1024.75 199.847 1024.44 198.661 1024.44 197.336C1024.44 196.029 1024.74 194.853 1025.33 193.808C1025.95 192.763 1026.77 191.941 1027.8 191.344C1028.84 190.728 1030.01 190.42 1031.3 190.42C1032.53 190.42 1033.61 190.7 1034.55 191.26C1035.5 191.82 1036.24 192.595 1036.76 193.584C1037.3 194.573 1037.57 195.693 1037.57 196.944C1037.57 197.131 1037.56 197.336 1037.54 197.56C1037.52 197.765 1037.49 198.008 1037.43 198.288H1026.2V196.188H1036.09L1035.16 197C1035.16 196.104 1035 195.348 1034.69 194.732C1034.37 194.097 1033.92 193.612 1033.34 193.276C1032.76 192.921 1032.06 192.744 1031.24 192.744C1030.38 192.744 1029.63 192.931 1028.97 193.304C1028.32 193.677 1027.82 194.2 1027.46 194.872C1027.11 195.544 1026.93 196.337 1026.93 197.252C1026.93 198.185 1027.12 199.007 1027.49 199.716C1027.86 200.407 1028.4 200.948 1029.09 201.34C1029.78 201.713 1030.57 201.9 1031.47 201.9C1032.21 201.9 1032.89 201.769 1033.51 201.508C1034.15 201.247 1034.69 200.855 1035.13 200.332L1036.76 201.984C1036.12 202.731 1035.34 203.3 1034.41 203.692C1033.49 204.084 1032.51 204.28 1031.47 204.28ZM1048.19 204V185.128H1050.71V204H1048.19ZM1044.91 192.996V190.7H1053.98V192.996H1044.91ZM1065.86 204V196.244C1065.86 195.236 1065.54 194.405 1064.91 193.752C1064.27 193.099 1063.45 192.772 1062.44 192.772C1061.77 192.772 1061.17 192.921 1060.65 193.22C1060.13 193.519 1059.72 193.929 1059.42 194.452C1059.12 194.975 1058.97 195.572 1058.97 196.244L1057.94 195.656C1057.94 194.648 1058.16 193.752 1058.61 192.968C1059.06 192.184 1059.68 191.568 1060.48 191.12C1061.29 190.653 1062.19 190.42 1063.2 190.42C1064.21 190.42 1065.09 190.644 1065.86 191.092C1066.64 191.54 1067.26 192.165 1067.71 192.968C1068.16 193.771 1068.38 194.695 1068.38 195.74V204H1065.86ZM1056.45 204V184.008H1058.97V204H1056.45ZM1077.45 204.28C1076.23 204.28 1075.13 203.981 1074.14 203.384C1073.15 202.768 1072.37 201.937 1071.79 200.892C1071.23 199.847 1070.95 198.671 1070.95 197.364C1070.95 196.057 1071.23 194.881 1071.79 193.836C1072.37 192.791 1073.14 191.96 1074.12 191.344C1075.1 190.728 1076.22 190.42 1077.45 190.42C1078.46 190.42 1079.35 190.635 1080.14 191.064C1080.94 191.475 1081.58 192.053 1082.07 192.8C1082.55 193.528 1082.82 194.377 1082.88 195.348V199.352C1082.82 200.304 1082.55 201.153 1082.07 201.9C1081.6 202.647 1080.97 203.235 1080.16 203.664C1079.38 204.075 1078.47 204.28 1077.45 204.28ZM1077.87 201.9C1079.12 201.9 1080.13 201.48 1080.89 200.64C1081.66 199.781 1082.04 198.689 1082.04 197.364C1082.04 196.449 1081.86 195.656 1081.51 194.984C1081.17 194.293 1080.69 193.761 1080.05 193.388C1079.42 192.996 1078.68 192.8 1077.84 192.8C1077 192.8 1076.25 192.996 1075.6 193.388C1074.96 193.78 1074.46 194.321 1074.09 195.012C1073.73 195.684 1073.56 196.459 1073.56 197.336C1073.56 198.232 1073.73 199.025 1074.09 199.716C1074.46 200.388 1074.97 200.92 1075.63 201.312C1076.28 201.704 1077.03 201.9 1077.87 201.9ZM1081.87 204V200.416L1082.35 197.168L1081.87 193.948V190.7H1084.42V204H1081.87ZM1090.08 204V185.128H1092.6V204H1090.08ZM1086.8 192.996V190.7H1095.87V192.996H1086.8ZM1107.97 204L1102.71 190.7H1105.34L1109.15 201.06H1108.31L1112.09 190.7H1113.55L1117.33 201.06H1116.49L1120.29 190.7H1122.93L1117.69 204H1116.21L1112.37 193.948H1113.29L1109.43 204H1107.97ZM1130.94 204.28C1129.62 204.28 1128.42 203.981 1127.36 203.384C1126.3 202.768 1125.46 201.937 1124.84 200.892C1124.22 199.847 1123.92 198.661 1123.92 197.336C1123.92 196.029 1124.21 194.853 1124.81 193.808C1125.43 192.763 1126.25 191.941 1127.28 191.344C1128.32 190.728 1129.49 190.42 1130.78 190.42C1132.01 190.42 1133.09 190.7 1134.02 191.26C1134.98 191.82 1135.71 192.595 1136.24 193.584C1136.78 194.573 1137.05 195.693 1137.05 196.944C1137.05 197.131 1137.04 197.336 1137.02 197.56C1137 197.765 1136.96 198.008 1136.91 198.288H1125.68V196.188H1135.56L1134.64 197C1134.64 196.104 1134.48 195.348 1134.16 194.732C1133.85 194.097 1133.4 193.612 1132.82 193.276C1132.24 192.921 1131.54 192.744 1130.72 192.744C1129.86 192.744 1129.1 192.931 1128.45 193.304C1127.8 193.677 1127.29 194.2 1126.94 194.872C1126.58 195.544 1126.41 196.337 1126.41 197.252C1126.41 198.185 1126.59 199.007 1126.97 199.716C1127.34 200.407 1127.87 200.948 1128.56 201.34C1129.25 201.713 1130.05 201.9 1130.94 201.9C1131.69 201.9 1132.37 201.769 1132.99 201.508C1133.62 201.247 1134.16 200.855 1134.61 200.332L1136.24 201.984C1135.6 202.731 1134.82 203.3 1133.88 203.692C1132.97 204.084 1131.99 204.28 1130.94 204.28ZM1145.62 204V190.7H1148.14V204H1145.62ZM1148.14 196.412L1147.19 195.992C1147.19 194.293 1147.58 192.94 1148.36 191.932C1149.15 190.924 1150.28 190.42 1151.75 190.42C1152.42 190.42 1153.03 190.541 1153.57 190.784C1154.11 191.008 1154.62 191.391 1155.08 191.932L1153.43 193.64C1153.15 193.341 1152.84 193.127 1152.51 192.996C1152.17 192.865 1151.78 192.8 1151.33 192.8C1150.4 192.8 1149.63 193.099 1149.04 193.696C1148.44 194.293 1148.14 195.199 1148.14 196.412ZM1162.58 204.28C1161.25 204.28 1160.06 203.981 1159 203.384C1157.93 202.768 1157.09 201.937 1156.48 200.892C1155.86 199.847 1155.55 198.661 1155.55 197.336C1155.55 196.029 1155.85 194.853 1156.45 193.808C1157.06 192.763 1157.89 191.941 1158.91 191.344C1159.96 190.728 1161.12 190.42 1162.41 190.42C1163.64 190.42 1164.73 190.7 1165.66 191.26C1166.61 191.82 1167.35 192.595 1167.87 193.584C1168.41 194.573 1168.68 195.693 1168.68 196.944C1168.68 197.131 1168.67 197.336 1168.66 197.56C1168.64 197.765 1168.6 198.008 1168.54 198.288H1157.32V196.188H1167.2L1166.28 197C1166.28 196.104 1166.12 195.348 1165.8 194.732C1165.48 194.097 1165.03 193.612 1164.46 193.276C1163.88 192.921 1163.18 192.744 1162.36 192.744C1161.5 192.744 1160.74 192.931 1160.09 193.304C1159.43 193.677 1158.93 194.2 1158.58 194.872C1158.22 195.544 1158.04 196.337 1158.04 197.252C1158.04 198.185 1158.23 199.007 1158.6 199.716C1158.98 200.407 1159.51 200.948 1160.2 201.34C1160.89 201.713 1161.68 201.9 1162.58 201.9C1163.33 201.9 1164.01 201.769 1164.62 201.508C1165.26 201.247 1165.8 200.855 1166.25 200.332L1167.87 201.984C1167.24 202.731 1166.45 203.3 1165.52 203.692C1164.61 204.084 1163.63 204.28 1162.58 204.28ZM1172.93 204V188.292C1172.93 187.415 1173.11 186.64 1173.49 185.968C1173.88 185.277 1174.42 184.736 1175.11 184.344C1175.8 183.933 1176.59 183.728 1177.49 183.728C1178.18 183.728 1178.79 183.849 1179.31 184.092C1179.83 184.316 1180.32 184.633 1180.77 185.044L1179.11 186.696C1178.87 186.491 1178.62 186.341 1178.36 186.248C1178.1 186.136 1177.81 186.08 1177.49 186.08C1176.84 186.08 1176.33 186.285 1175.98 186.696C1175.62 187.088 1175.45 187.62 1175.45 188.292V204H1172.93ZM1169.65 192.996V190.7H1182.28V192.996H1169.65ZM1180.82 204V190.7H1183.37V204H1180.82ZM1182.08 189.3C1181.63 189.3 1181.26 189.151 1180.96 188.852C1180.66 188.535 1180.51 188.143 1180.51 187.676C1180.51 187.228 1180.66 186.855 1180.96 186.556C1181.26 186.239 1181.63 186.08 1182.08 186.08C1182.57 186.08 1182.95 186.239 1183.23 186.556C1183.53 186.855 1183.68 187.228 1183.68 187.676C1183.68 188.143 1183.53 188.535 1183.23 188.852C1182.95 189.151 1182.57 189.3 1182.08 189.3ZM1196.48 204V196.244C1196.48 195.236 1196.16 194.405 1195.53 193.752C1194.89 193.099 1194.07 192.772 1193.06 192.772C1192.39 192.772 1191.8 192.921 1191.27 193.22C1190.75 193.519 1190.34 193.929 1190.04 194.452C1189.74 194.975 1189.59 195.572 1189.59 196.244L1188.56 195.656C1188.56 194.648 1188.78 193.752 1189.23 192.968C1189.68 192.184 1190.3 191.568 1191.1 191.12C1191.91 190.653 1192.81 190.42 1193.82 190.42C1194.83 190.42 1195.72 190.672 1196.48 191.176C1197.26 191.68 1197.88 192.343 1198.33 193.164C1198.78 193.967 1199 194.825 1199 195.74V204H1196.48ZM1187.07 204V190.7H1189.59V204H1187.07ZM1208.57 204.28C1207.25 204.28 1206.05 203.981 1204.99 203.384C1203.92 202.768 1203.08 201.937 1202.47 200.892C1201.85 199.847 1201.54 198.661 1201.54 197.336C1201.54 196.029 1201.84 194.853 1202.44 193.808C1203.06 192.763 1203.88 191.941 1204.9 191.344C1205.95 190.728 1207.12 190.42 1208.4 190.42C1209.64 190.42 1210.72 190.7 1211.65 191.26C1212.6 191.82 1213.34 192.595 1213.86 193.584C1214.41 194.573 1214.68 195.693 1214.68 196.944C1214.68 197.131 1214.67 197.336 1214.65 197.56C1214.63 197.765 1214.59 198.008 1214.54 198.288H1203.31V196.188H1213.19L1212.27 197C1212.27 196.104 1212.11 195.348 1211.79 194.732C1211.48 194.097 1211.03 193.612 1210.45 193.276C1209.87 192.921 1209.17 192.744 1208.35 192.744C1207.49 192.744 1206.73 192.931 1206.08 193.304C1205.43 193.677 1204.92 194.2 1204.57 194.872C1204.21 195.544 1204.04 196.337 1204.04 197.252C1204.04 198.185 1204.22 199.007 1204.6 199.716C1204.97 200.407 1205.5 200.948 1206.19 201.34C1206.88 201.713 1207.68 201.9 1208.57 201.9C1209.32 201.9 1210 201.769 1210.62 201.508C1211.25 201.247 1211.79 200.855 1212.24 200.332L1213.86 201.984C1213.23 202.731 1212.45 203.3 1211.51 203.692C1210.6 204.084 1209.62 204.28 1208.57 204.28ZM1228.9 204.28C1227.69 204.28 1226.59 203.981 1225.6 203.384C1224.61 202.768 1223.83 201.937 1223.25 200.892C1222.69 199.847 1222.41 198.671 1222.41 197.364C1222.41 196.057 1222.69 194.881 1223.25 193.836C1223.83 192.791 1224.6 191.96 1225.57 191.344C1226.56 190.728 1227.67 190.42 1228.9 190.42C1229.91 190.42 1230.81 190.635 1231.59 191.064C1232.4 191.475 1233.04 192.053 1233.52 192.8C1234.01 193.528 1234.28 194.377 1234.34 195.348V199.352C1234.28 200.304 1234.01 201.153 1233.52 201.9C1233.06 202.647 1232.42 203.235 1231.62 203.664C1230.84 204.075 1229.93 204.28 1228.9 204.28ZM1229.32 201.9C1230.58 201.9 1231.58 201.48 1232.35 200.64C1233.11 199.781 1233.5 198.689 1233.5 197.364C1233.5 196.449 1233.32 195.656 1232.96 194.984C1232.63 194.293 1232.14 193.761 1231.51 193.388C1230.87 192.996 1230.14 192.8 1229.3 192.8C1228.46 192.8 1227.71 192.996 1227.06 193.388C1226.42 193.78 1225.92 194.321 1225.54 195.012C1225.19 195.684 1225.01 196.459 1225.01 197.336C1225.01 198.232 1225.19 199.025 1225.54 199.716C1225.92 200.388 1226.43 200.92 1227.08 201.312C1227.74 201.704 1228.48 201.9 1229.32 201.9ZM1233.33 204V200.416L1233.8 197.168L1233.33 193.948V190.7H1235.88V204H1233.33ZM1248.95 204V196.244C1248.95 195.236 1248.64 194.405 1248 193.752C1247.37 193.099 1246.55 192.772 1245.54 192.772C1244.87 192.772 1244.27 192.921 1243.75 193.22C1243.22 193.519 1242.81 193.929 1242.51 194.452C1242.21 194.975 1242.07 195.572 1242.07 196.244L1241.03 195.656C1241.03 194.648 1241.25 193.752 1241.7 192.968C1242.15 192.184 1242.77 191.568 1243.58 191.12C1244.38 190.653 1245.29 190.42 1246.29 190.42C1247.3 190.42 1248.19 190.672 1248.95 191.176C1249.74 191.68 1250.35 192.343 1250.8 193.164C1251.25 193.967 1251.47 194.825 1251.47 195.74V204H1248.95ZM1239.55 204V190.7H1242.07V204H1239.55ZM1260.51 204.28C1259.28 204.28 1258.18 203.981 1257.21 203.384C1256.24 202.768 1255.46 201.937 1254.89 200.892C1254.33 199.847 1254.05 198.671 1254.05 197.364C1254.05 196.057 1254.33 194.881 1254.89 193.836C1255.46 192.791 1256.24 191.96 1257.21 191.344C1258.18 190.728 1259.28 190.42 1260.51 190.42C1261.5 190.42 1262.4 190.635 1263.2 191.064C1264 191.475 1264.65 192.053 1265.13 192.8C1265.64 193.528 1265.92 194.377 1265.97 195.348V199.352C1265.92 200.304 1265.65 201.153 1265.16 201.9C1264.68 202.647 1264.03 203.235 1263.23 203.664C1262.43 204.075 1261.52 204.28 1260.51 204.28ZM1260.93 201.9C1261.77 201.9 1262.5 201.704 1263.12 201.312C1263.75 200.92 1264.25 200.388 1264.6 199.716C1264.96 199.025 1265.13 198.241 1265.13 197.364C1265.13 196.449 1264.95 195.656 1264.57 194.984C1264.22 194.312 1263.72 193.78 1263.09 193.388C1262.47 192.996 1261.75 192.8 1260.91 192.8C1260.07 192.8 1259.33 192.996 1258.69 193.388C1258.06 193.78 1257.55 194.321 1257.18 195.012C1256.83 195.684 1256.65 196.459 1256.65 197.336C1256.65 198.232 1256.83 199.025 1257.18 199.716C1257.55 200.388 1258.06 200.92 1258.69 201.312C1259.35 201.704 1260.09 201.9 1260.93 201.9ZM1267.51 204H1264.97V200.416L1265.44 197.168L1264.97 193.948V184.008H1267.51V204ZM486.379 239.28C485.632 239.28 484.923 239.187 484.251 239C483.597 238.795 482.991 238.515 482.431 238.16C481.871 237.787 481.385 237.348 480.975 236.844L482.599 235.22C483.084 235.817 483.644 236.265 484.279 236.564C484.913 236.844 485.623 236.984 486.407 236.984C487.191 236.984 487.797 236.853 488.227 236.592C488.656 236.312 488.871 235.929 488.871 235.444C488.871 234.959 488.693 234.585 488.339 234.324C488.003 234.044 487.564 233.82 487.023 233.652C486.481 233.465 485.903 233.288 485.287 233.12C484.689 232.933 484.12 232.7 483.579 232.42C483.037 232.14 482.589 231.757 482.235 231.272C481.899 230.787 481.731 230.143 481.731 229.34C481.731 228.537 481.927 227.847 482.319 227.268C482.711 226.671 483.252 226.213 483.943 225.896C484.652 225.579 485.501 225.42 486.491 225.42C487.536 225.42 488.46 225.607 489.263 225.98C490.084 226.335 490.756 226.876 491.279 227.604L489.655 229.228C489.281 228.743 488.815 228.369 488.255 228.108C487.713 227.847 487.097 227.716 486.407 227.716C485.679 227.716 485.119 227.847 484.727 228.108C484.353 228.351 484.167 228.696 484.167 229.144C484.167 229.592 484.335 229.937 484.671 230.18C485.007 230.423 485.445 230.628 485.987 230.796C486.547 230.964 487.125 231.141 487.723 231.328C488.32 231.496 488.889 231.729 489.431 232.028C489.972 232.327 490.411 232.728 490.747 233.232C491.101 233.736 491.279 234.399 491.279 235.22C491.279 236.471 490.831 237.46 489.935 238.188C489.057 238.916 487.872 239.28 486.379 239.28ZM496.144 239V220.128H498.664V239H496.144ZM492.868 227.996V225.7H501.94V227.996H492.868ZM504.409 239V225.7H506.929V239H504.409ZM506.929 231.412L505.977 230.992C505.977 229.293 506.369 227.94 507.153 226.932C507.937 225.924 509.066 225.42 510.541 225.42C511.213 225.42 511.819 225.541 512.361 225.784C512.902 226.008 513.406 226.391 513.873 226.932L512.221 228.64C511.941 228.341 511.633 228.127 511.297 227.996C510.961 227.865 510.569 227.8 510.121 227.8C509.187 227.8 508.422 228.099 507.825 228.696C507.227 229.293 506.929 230.199 506.929 231.412ZM520.995 239.28C519.912 239.28 518.932 239.037 518.055 238.552C517.196 238.048 516.524 237.357 516.039 236.48C515.553 235.603 515.311 234.585 515.311 233.428V225.7H517.831V233.316C517.831 234.044 517.952 234.679 518.195 235.22C518.456 235.743 518.829 236.144 519.315 236.424C519.8 236.704 520.369 236.844 521.023 236.844C522.012 236.844 522.787 236.536 523.347 235.92C523.907 235.285 524.187 234.417 524.187 233.316V225.7H526.707V233.428C526.707 234.585 526.464 235.603 525.979 236.48C525.493 237.357 524.821 238.048 523.963 238.552C523.123 239.037 522.133 239.28 520.995 239.28ZM536.16 239.28C534.854 239.28 533.668 238.972 532.604 238.356C531.559 237.74 530.728 236.909 530.112 235.864C529.515 234.8 529.216 233.624 529.216 232.336C529.216 231.029 529.515 229.853 530.112 228.808C530.728 227.763 531.559 226.941 532.604 226.344C533.668 225.728 534.854 225.42 536.16 225.42C537.187 225.42 538.139 225.616 539.016 226.008C539.894 226.381 540.65 226.932 541.284 227.66L539.604 229.34C539.194 228.855 538.69 228.491 538.092 228.248C537.514 227.987 536.87 227.856 536.16 227.856C535.32 227.856 534.574 228.052 533.92 228.444C533.267 228.817 532.754 229.34 532.38 230.012C532.007 230.684 531.82 231.459 531.82 232.336C531.82 233.213 532.007 233.988 532.38 234.66C532.754 235.332 533.267 235.864 533.92 236.256C534.574 236.648 535.32 236.844 536.16 236.844C536.87 236.844 537.514 236.723 538.092 236.48C538.69 236.219 539.203 235.845 539.632 235.36L541.284 237.04C540.668 237.749 539.912 238.3 539.016 238.692C538.139 239.084 537.187 239.28 536.16 239.28ZM545.663 239V220.128H548.183V239H545.663ZM542.387 227.996V225.7H551.459V227.996H542.387ZM559.276 239.28C558.193 239.28 557.213 239.037 556.336 238.552C555.477 238.048 554.805 237.357 554.32 236.48C553.835 235.603 553.592 234.585 553.592 233.428V225.7H556.112V233.316C556.112 234.044 556.233 234.679 556.476 235.22C556.737 235.743 557.111 236.144 557.596 236.424C558.081 236.704 558.651 236.844 559.304 236.844C560.293 236.844 561.068 236.536 561.628 235.92C562.188 235.285 562.468 234.417 562.468 233.316V225.7H564.988V233.428C564.988 234.585 564.745 235.603 564.26 236.48C563.775 237.357 563.103 238.048 562.244 238.552C561.404 239.037 560.415 239.28 559.276 239.28ZM568.366 239V225.7H570.886V239H568.366ZM570.886 231.412L569.934 230.992C569.934 229.293 570.326 227.94 571.11 226.932C571.894 225.924 573.023 225.42 574.498 225.42C575.17 225.42 575.776 225.541 576.318 225.784C576.859 226.008 577.363 226.391 577.83 226.932L576.178 228.64C575.898 228.341 575.59 228.127 575.254 227.996C574.918 227.865 574.526 227.8 574.078 227.8C573.144 227.8 572.379 228.099 571.782 228.696C571.184 229.293 570.886 230.199 570.886 231.412ZM585.326 239.28C584.001 239.28 582.806 238.981 581.742 238.384C580.678 237.768 579.838 236.937 579.222 235.892C578.606 234.847 578.298 233.661 578.298 232.336C578.298 231.029 578.597 229.853 579.194 228.808C579.81 227.763 580.632 226.941 581.658 226.344C582.704 225.728 583.87 225.42 585.158 225.42C586.39 225.42 587.473 225.7 588.406 226.26C589.358 226.82 590.096 227.595 590.618 228.584C591.16 229.573 591.43 230.693 591.43 231.944C591.43 232.131 591.421 232.336 591.402 232.56C591.384 232.765 591.346 233.008 591.29 233.288H580.062V231.188H589.946L589.022 232C589.022 231.104 588.864 230.348 588.546 229.732C588.229 229.097 587.781 228.612 587.202 228.276C586.624 227.921 585.924 227.744 585.102 227.744C584.244 227.744 583.488 227.931 582.834 228.304C582.181 228.677 581.677 229.2 581.322 229.872C580.968 230.544 580.79 231.337 580.79 232.252C580.79 233.185 580.977 234.007 581.35 234.716C581.724 235.407 582.256 235.948 582.946 236.34C583.637 236.713 584.43 236.9 585.326 236.9C586.073 236.9 586.754 236.769 587.37 236.508C588.005 236.247 588.546 235.855 588.994 235.332L590.618 236.984C589.984 237.731 589.2 238.3 588.266 238.692C587.352 239.084 586.372 239.28 585.326 239.28ZM606.078 239.28C604.772 239.28 603.596 238.972 602.55 238.356C601.505 237.74 600.674 236.909 600.058 235.864C599.442 234.8 599.134 233.615 599.134 232.308C599.134 231.02 599.442 229.863 600.058 228.836C600.674 227.791 601.505 226.96 602.55 226.344C603.596 225.728 604.772 225.42 606.078 225.42C607.366 225.42 608.533 225.728 609.578 226.344C610.642 226.941 611.482 227.763 612.098 228.808C612.714 229.853 613.022 231.02 613.022 232.308C613.022 233.615 612.714 234.8 612.098 235.864C611.482 236.909 610.642 237.74 609.578 238.356C608.533 238.972 607.366 239.28 606.078 239.28ZM606.078 236.844C606.918 236.844 607.665 236.648 608.318 236.256C608.972 235.864 609.485 235.332 609.858 234.66C610.232 233.969 610.418 233.185 610.418 232.308C610.418 231.449 610.222 230.684 609.83 230.012C609.457 229.34 608.944 228.817 608.29 228.444C607.656 228.052 606.918 227.856 606.078 227.856C605.238 227.856 604.492 228.052 603.838 228.444C603.185 228.817 602.672 229.34 602.298 230.012C601.925 230.684 601.738 231.449 601.738 232.308C601.738 233.185 601.925 233.969 602.298 234.66C602.672 235.332 603.185 235.864 603.838 236.256C604.492 236.648 605.238 236.844 606.078 236.844ZM621.21 239.28C620.127 239.28 619.147 239.037 618.27 238.552C617.411 238.048 616.739 237.357 616.254 236.48C615.768 235.603 615.526 234.585 615.526 233.428V225.7H618.046V233.316C618.046 234.044 618.167 234.679 618.41 235.22C618.671 235.743 619.044 236.144 619.53 236.424C620.015 236.704 620.584 236.844 621.238 236.844C622.227 236.844 623.002 236.536 623.562 235.92C624.122 235.285 624.402 234.417 624.402 233.316V225.7H626.922V233.428C626.922 234.585 626.679 235.603 626.194 236.48C625.708 237.357 625.036 238.048 624.178 238.552C623.338 239.037 622.348 239.28 621.21 239.28ZM630.299 239V225.7H632.819V239H630.299ZM632.819 231.412L631.867 230.992C631.867 229.293 632.259 227.94 633.043 226.932C633.827 225.924 634.957 225.42 636.431 225.42C637.103 225.42 637.71 225.541 638.251 225.784C638.793 226.008 639.297 226.391 639.763 226.932L638.111 228.64C637.831 228.341 637.523 228.127 637.187 227.996C636.851 227.865 636.459 227.8 636.011 227.8C635.078 227.8 634.313 228.099 633.715 228.696C633.118 229.293 632.819 230.199 632.819 231.412ZM647.882 239V225.7H650.402V239H647.882ZM649.142 223.04C648.675 223.04 648.293 222.891 647.994 222.592C647.695 222.275 647.546 221.883 647.546 221.416C647.546 220.968 647.695 220.595 647.994 220.296C648.293 219.979 648.675 219.82 649.142 219.82C649.609 219.82 649.991 219.979 650.29 220.296C650.589 220.595 650.738 220.968 650.738 221.416C650.738 221.883 650.589 222.275 650.29 222.592C649.991 222.891 649.609 223.04 649.142 223.04ZM659.744 239.28C658.512 239.28 657.41 238.981 656.44 238.384C655.469 237.768 654.694 236.937 654.116 235.892C653.556 234.847 653.276 233.671 653.276 232.364C653.276 231.057 653.556 229.881 654.116 228.836C654.694 227.791 655.469 226.96 656.44 226.344C657.41 225.728 658.512 225.42 659.744 225.42C660.733 225.42 661.629 225.635 662.432 226.064C663.234 226.475 663.878 227.053 664.364 227.8C664.868 228.528 665.148 229.377 665.204 230.348V234.352C665.148 235.304 664.877 236.153 664.392 236.9C663.906 237.647 663.262 238.235 662.46 238.664C661.657 239.075 660.752 239.28 659.744 239.28ZM660.164 236.9C661.004 236.9 661.732 236.704 662.348 236.312C662.982 235.92 663.477 235.388 663.832 234.716C664.186 234.025 664.364 233.241 664.364 232.364C664.364 231.449 664.177 230.656 663.804 229.984C663.449 229.312 662.954 228.78 662.32 228.388C661.704 227.996 660.976 227.8 660.136 227.8C659.296 227.8 658.558 227.996 657.924 228.388C657.289 228.78 656.785 229.321 656.412 230.012C656.057 230.684 655.88 231.459 655.88 232.336C655.88 233.232 656.057 234.025 656.412 234.716C656.785 235.388 657.289 235.92 657.924 236.312C658.577 236.704 659.324 236.9 660.164 236.9ZM666.744 239H664.196V235.416L664.672 232.168L664.196 228.948V219.008H666.744V239ZM676.572 239.28C675.247 239.28 674.052 238.981 672.988 238.384C671.924 237.768 671.084 236.937 670.468 235.892C669.852 234.847 669.544 233.661 669.544 232.336C669.544 231.029 669.843 229.853 670.44 228.808C671.056 227.763 671.878 226.941 672.904 226.344C673.95 225.728 675.116 225.42 676.404 225.42C677.636 225.42 678.719 225.7 679.652 226.26C680.604 226.82 681.342 227.595 681.864 228.584C682.406 229.573 682.676 230.693 682.676 231.944C682.676 232.131 682.667 232.336 682.648 232.56C682.63 232.765 682.592 233.008 682.536 233.288H671.308V231.188H681.192L680.268 232C680.268 231.104 680.11 230.348 679.792 229.732C679.475 229.097 679.027 228.612 678.448 228.276C677.87 227.921 677.17 227.744 676.348 227.744C675.49 227.744 674.734 227.931 674.08 228.304C673.427 228.677 672.923 229.2 672.568 229.872C672.214 230.544 672.036 231.337 672.036 232.252C672.036 233.185 672.223 234.007 672.596 234.716C672.97 235.407 673.502 235.948 674.192 236.34C674.883 236.713 675.676 236.9 676.572 236.9C677.319 236.9 678 236.769 678.616 236.508C679.251 236.247 679.792 235.855 680.24 235.332L681.864 236.984C681.23 237.731 680.446 238.3 679.512 238.692C678.598 239.084 677.618 239.28 676.572 239.28ZM691.08 239.28C689.867 239.28 688.766 238.981 687.776 238.384C686.787 237.768 686.003 236.937 685.424 235.892C684.864 234.847 684.584 233.671 684.584 232.364C684.584 231.057 684.864 229.881 685.424 228.836C686.003 227.791 686.778 226.96 687.748 226.344C688.738 225.728 689.848 225.42 691.08 225.42C692.088 225.42 692.984 225.635 693.768 226.064C694.571 226.475 695.215 227.053 695.7 227.8C696.186 228.528 696.456 229.377 696.512 230.348V234.352C696.456 235.304 696.186 236.153 695.7 236.9C695.234 237.647 694.599 238.235 693.796 238.664C693.012 239.075 692.107 239.28 691.08 239.28ZM691.5 236.9C692.751 236.9 693.759 236.48 694.524 235.64C695.29 234.781 695.672 233.689 695.672 232.364C695.672 231.449 695.495 230.656 695.14 229.984C694.804 229.293 694.319 228.761 693.684 228.388C693.05 227.996 692.312 227.8 691.472 227.8C690.632 227.8 689.886 227.996 689.232 228.388C688.598 228.78 688.094 229.321 687.72 230.012C687.366 230.684 687.188 231.459 687.188 232.336C687.188 233.232 687.366 234.025 687.72 234.716C688.094 235.388 688.607 235.92 689.26 236.312C689.914 236.704 690.66 236.9 691.5 236.9ZM695.504 239V235.416L695.98 232.168L695.504 228.948V225.7H698.052V239H695.504ZM705.949 239.28C705.202 239.28 704.493 239.187 703.821 239C703.168 238.795 702.561 238.515 702.001 238.16C701.441 237.787 700.956 237.348 700.545 236.844L702.169 235.22C702.654 235.817 703.214 236.265 703.849 236.564C704.484 236.844 705.193 236.984 705.977 236.984C706.761 236.984 707.368 236.853 707.797 236.592C708.226 236.312 708.441 235.929 708.441 235.444C708.441 234.959 708.264 234.585 707.909 234.324C707.573 234.044 707.134 233.82 706.593 233.652C706.052 233.465 705.473 233.288 704.857 233.12C704.26 232.933 703.69 232.7 703.149 232.42C702.608 232.14 702.16 231.757 701.805 231.272C701.469 230.787 701.301 230.143 701.301 229.34C701.301 228.537 701.497 227.847 701.889 227.268C702.281 226.671 702.822 226.213 703.513 225.896C704.222 225.579 705.072 225.42 706.061 225.42C707.106 225.42 708.03 225.607 708.833 225.98C709.654 226.335 710.326 226.876 710.849 227.604L709.225 229.228C708.852 228.743 708.385 228.369 707.825 228.108C707.284 227.847 706.668 227.716 705.977 227.716C705.249 227.716 704.689 227.847 704.297 228.108C703.924 228.351 703.737 228.696 703.737 229.144C703.737 229.592 703.905 229.937 704.241 230.18C704.577 230.423 705.016 230.628 705.557 230.796C706.117 230.964 706.696 231.141 707.293 231.328C707.89 231.496 708.46 231.729 709.001 232.028C709.542 232.327 709.981 232.728 710.317 233.232C710.672 233.736 710.849 234.399 710.849 235.22C710.849 236.471 710.401 237.46 709.505 238.188C708.628 238.916 707.442 239.28 705.949 239.28ZM719.522 239V225.7H722.042V239H719.522ZM720.782 223.04C720.316 223.04 719.933 222.891 719.634 222.592C719.336 222.275 719.186 221.883 719.186 221.416C719.186 220.968 719.336 220.595 719.634 220.296C719.933 219.979 720.316 219.82 720.782 219.82C721.249 219.82 721.632 219.979 721.93 220.296C722.229 220.595 722.378 220.968 722.378 221.416C722.378 221.883 722.229 222.275 721.93 222.592C721.632 222.891 721.249 223.04 720.782 223.04ZM735.164 239V231.244C735.164 230.236 734.847 229.405 734.212 228.752C733.578 228.099 732.756 227.772 731.748 227.772C731.076 227.772 730.479 227.921 729.956 228.22C729.434 228.519 729.023 228.929 728.724 229.452C728.426 229.975 728.276 230.572 728.276 231.244L727.24 230.656C727.24 229.648 727.464 228.752 727.912 227.968C728.36 227.184 728.986 226.568 729.788 226.12C730.591 225.653 731.496 225.42 732.504 225.42C733.512 225.42 734.399 225.672 735.164 226.176C735.948 226.68 736.564 227.343 737.012 228.164C737.46 228.967 737.684 229.825 737.684 230.74V239H735.164ZM725.756 239V225.7H728.276V239H725.756ZM742.976 239V220.128H745.496V239H742.976ZM739.7 227.996V225.7H748.772V227.996H739.7ZM756.906 239.28C755.6 239.28 754.424 238.972 753.378 238.356C752.333 237.74 751.502 236.909 750.886 235.864C750.27 234.8 749.962 233.615 749.962 232.308C749.962 231.02 750.27 229.863 750.886 228.836C751.502 227.791 752.333 226.96 753.378 226.344C754.424 225.728 755.6 225.42 756.906 225.42C758.194 225.42 759.361 225.728 760.406 226.344C761.47 226.941 762.31 227.763 762.926 228.808C763.542 229.853 763.85 231.02 763.85 232.308C763.85 233.615 763.542 234.8 762.926 235.864C762.31 236.909 761.47 237.74 760.406 238.356C759.361 238.972 758.194 239.28 756.906 239.28ZM756.906 236.844C757.746 236.844 758.493 236.648 759.146 236.256C759.8 235.864 760.313 235.332 760.686 234.66C761.06 233.969 761.246 233.185 761.246 232.308C761.246 231.449 761.05 230.684 760.658 230.012C760.285 229.34 759.772 228.817 759.118 228.444C758.484 228.052 757.746 227.856 756.906 227.856C756.066 227.856 755.32 228.052 754.666 228.444C754.013 228.817 753.5 229.34 753.126 230.012C752.753 230.684 752.566 231.449 752.566 232.308C752.566 233.185 752.753 233.969 753.126 234.66C753.5 235.332 754.013 235.864 754.666 236.256C755.32 236.648 756.066 236.844 756.906 236.844ZM774.418 239V223.712C774.418 222.723 774.633 221.864 775.062 221.136C775.491 220.389 776.079 219.801 776.826 219.372C777.591 218.943 778.478 218.728 779.486 218.728C780.251 218.728 780.914 218.859 781.474 219.12C782.034 219.381 782.547 219.764 783.014 220.268L781.362 221.892C781.119 221.631 780.849 221.435 780.55 221.304C780.251 221.155 779.887 221.08 779.458 221.08C778.655 221.08 778.03 221.313 777.582 221.78C777.153 222.247 776.938 222.891 776.938 223.712V239H774.418ZM771.142 227.996V225.7H781.166V227.996H771.142ZM789.092 239.28C787.767 239.28 786.572 238.981 785.508 238.384C784.444 237.768 783.604 236.937 782.988 235.892C782.372 234.847 782.064 233.661 782.064 232.336C782.064 231.029 782.363 229.853 782.96 228.808C783.576 227.763 784.397 226.941 785.424 226.344C786.469 225.728 787.636 225.42 788.924 225.42C790.156 225.42 791.239 225.7 792.172 226.26C793.124 226.82 793.861 227.595 794.384 228.584C794.925 229.573 795.196 230.693 795.196 231.944C795.196 232.131 795.187 232.336 795.168 232.56C795.149 232.765 795.112 233.008 795.056 233.288H783.828V231.188H793.712L792.788 232C792.788 231.104 792.629 230.348 792.312 229.732C791.995 229.097 791.547 228.612 790.968 228.276C790.389 227.921 789.689 227.744 788.868 227.744C788.009 227.744 787.253 227.931 786.6 228.304C785.947 228.677 785.443 229.2 785.088 229.872C784.733 230.544 784.556 231.337 784.556 232.252C784.556 233.185 784.743 234.007 785.116 234.716C785.489 235.407 786.021 235.948 786.712 236.34C787.403 236.713 788.196 236.9 789.092 236.9C789.839 236.9 790.52 236.769 791.136 236.508C791.771 236.247 792.312 235.855 792.76 235.332L794.384 236.984C793.749 237.731 792.965 238.3 792.032 238.692C791.117 239.084 790.137 239.28 789.092 239.28ZM803.6 239.28C802.386 239.28 801.285 238.981 800.296 238.384C799.306 237.768 798.522 236.937 797.944 235.892C797.384 234.847 797.104 233.671 797.104 232.364C797.104 231.057 797.384 229.881 797.944 228.836C798.522 227.791 799.297 226.96 800.268 226.344C801.257 225.728 802.368 225.42 803.6 225.42C804.608 225.42 805.504 225.635 806.288 226.064C807.09 226.475 807.734 227.053 808.22 227.8C808.705 228.528 808.976 229.377 809.032 230.348V234.352C808.976 235.304 808.705 236.153 808.22 236.9C807.753 237.647 807.118 238.235 806.316 238.664C805.532 239.075 804.626 239.28 803.6 239.28ZM804.02 236.9C805.27 236.9 806.278 236.48 807.044 235.64C807.809 234.781 808.192 233.689 808.192 232.364C808.192 231.449 808.014 230.656 807.66 229.984C807.324 229.293 806.838 228.761 806.204 228.388C805.569 227.996 804.832 227.8 803.992 227.8C803.152 227.8 802.405 227.996 801.752 228.388C801.117 228.78 800.613 229.321 800.24 230.012C799.885 230.684 799.708 231.459 799.708 232.336C799.708 233.232 799.885 234.025 800.24 234.716C800.613 235.388 801.126 235.92 801.78 236.312C802.433 236.704 803.18 236.9 804.02 236.9ZM808.024 239V235.416L808.5 232.168L808.024 228.948V225.7H810.572V239H808.024ZM818.469 239.28C817.722 239.28 817.013 239.187 816.341 239C815.687 238.795 815.081 238.515 814.521 238.16C813.961 237.787 813.475 237.348 813.065 236.844L814.689 235.22C815.174 235.817 815.734 236.265 816.369 236.564C817.003 236.844 817.713 236.984 818.497 236.984C819.281 236.984 819.887 236.853 820.317 236.592C820.746 236.312 820.961 235.929 820.961 235.444C820.961 234.959 820.783 234.585 820.429 234.324C820.093 234.044 819.654 233.82 819.113 233.652C818.571 233.465 817.993 233.288 817.377 233.12C816.779 232.933 816.21 232.7 815.669 232.42C815.127 232.14 814.679 231.757 814.325 231.272C813.989 230.787 813.821 230.143 813.821 229.34C813.821 228.537 814.017 227.847 814.409 227.268C814.801 226.671 815.342 226.213 816.033 225.896C816.742 225.579 817.591 225.42 818.581 225.42C819.626 225.42 820.55 225.607 821.353 225.98C822.174 226.335 822.846 226.876 823.369 227.604L821.745 229.228C821.371 228.743 820.905 228.369 820.345 228.108C819.803 227.847 819.187 227.716 818.497 227.716C817.769 227.716 817.209 227.847 816.817 228.108C816.443 228.351 816.257 228.696 816.257 229.144C816.257 229.592 816.425 229.937 816.761 230.18C817.097 230.423 817.535 230.628 818.077 230.796C818.637 230.964 819.215 231.141 819.813 231.328C820.41 231.496 820.979 231.729 821.521 232.028C822.062 232.327 822.501 232.728 822.837 233.232C823.191 233.736 823.369 234.399 823.369 235.22C823.369 236.471 822.921 237.46 822.025 238.188C821.147 238.916 819.962 239.28 818.469 239.28ZM826.218 239V225.7H828.738V239H826.218ZM827.478 223.04C827.011 223.04 826.628 222.891 826.33 222.592C826.031 222.275 825.882 221.883 825.882 221.416C825.882 220.968 826.031 220.595 826.33 220.296C826.628 219.979 827.011 219.82 827.478 219.82C827.944 219.82 828.327 219.979 828.626 220.296C828.924 220.595 829.074 220.968 829.074 221.416C829.074 221.883 828.924 222.275 828.626 222.592C828.327 222.891 827.944 223.04 827.478 223.04ZM839.452 239.28C838.444 239.28 837.529 239.075 836.708 238.664C835.905 238.235 835.261 237.647 834.776 236.9C834.29 236.153 834.02 235.304 833.964 234.352V230.348C834.02 229.377 834.29 228.528 834.776 227.8C835.28 227.053 835.933 226.475 836.736 226.064C837.557 225.635 838.462 225.42 839.452 225.42C840.665 225.42 841.757 225.728 842.728 226.344C843.717 226.96 844.492 227.791 845.052 228.836C845.612 229.881 845.892 231.057 845.892 232.364C845.892 233.671 845.612 234.847 845.052 235.892C844.492 236.937 843.717 237.768 842.728 238.384C841.757 238.981 840.665 239.28 839.452 239.28ZM839.032 236.9C839.872 236.9 840.609 236.704 841.244 236.312C841.878 235.92 842.382 235.388 842.756 234.716C843.129 234.025 843.316 233.232 843.316 232.336C843.316 231.459 843.129 230.675 842.756 229.984C842.382 229.293 841.878 228.761 841.244 228.388C840.609 227.996 839.881 227.8 839.06 227.8C838.22 227.8 837.482 227.996 836.848 228.388C836.213 228.761 835.718 229.293 835.364 229.984C835.009 230.675 834.832 231.468 834.832 232.364C834.832 233.241 835 234.025 835.336 234.716C835.69 235.388 836.185 235.92 836.82 236.312C837.473 236.704 838.21 236.9 839.032 236.9ZM832.452 239V219.008H834.972V228.948L834.496 232.168L834.972 235.416V239H832.452ZM848.748 239V219.008H851.268V239H848.748ZM861.115 239.28C859.79 239.28 858.595 238.981 857.531 238.384C856.467 237.768 855.627 236.937 855.011 235.892C854.395 234.847 854.087 233.661 854.087 232.336C854.087 231.029 854.386 229.853 854.983 228.808C855.599 227.763 856.421 226.941 857.447 226.344C858.493 225.728 859.659 225.42 860.947 225.42C862.179 225.42 863.262 225.7 864.195 226.26C865.147 226.82 865.885 227.595 866.407 228.584C866.949 229.573 867.219 230.693 867.219 231.944C867.219 232.131 867.21 232.336 867.191 232.56C867.173 232.765 867.135 233.008 867.079 233.288H855.851V231.188H865.735L864.811 232C864.811 231.104 864.653 230.348 864.335 229.732C864.018 229.097 863.57 228.612 862.991 228.276C862.413 227.921 861.713 227.744 860.891 227.744C860.033 227.744 859.277 227.931 858.623 228.304C857.97 228.677 857.466 229.2 857.111 229.872C856.757 230.544 856.579 231.337 856.579 232.252C856.579 233.185 856.766 234.007 857.139 234.716C857.513 235.407 858.045 235.948 858.735 236.34C859.426 236.713 860.219 236.9 861.115 236.9C861.862 236.9 862.543 236.769 863.159 236.508C863.794 236.247 864.335 235.855 864.783 235.332L866.407 236.984C865.773 237.731 864.989 238.3 864.055 238.692C863.141 239.084 862.161 239.28 861.115 239.28ZM881.447 239.28C880.234 239.28 879.133 238.981 878.143 238.384C877.154 237.768 876.37 236.937 875.791 235.892C875.231 234.847 874.951 233.671 874.951 232.364C874.951 231.057 875.231 229.881 875.791 228.836C876.37 227.791 877.145 226.96 878.115 226.344C879.105 225.728 880.215 225.42 881.447 225.42C882.455 225.42 883.351 225.635 884.135 226.064C884.938 226.475 885.582 227.053 886.067 227.8C886.553 228.528 886.823 229.377 886.879 230.348V234.352C886.823 235.304 886.553 236.153 886.067 236.9C885.601 237.647 884.966 238.235 884.163 238.664C883.379 239.075 882.474 239.28 881.447 239.28ZM881.867 236.9C883.118 236.9 884.126 236.48 884.891 235.64C885.657 234.781 886.039 233.689 886.039 232.364C886.039 231.449 885.862 230.656 885.507 229.984C885.171 229.293 884.686 228.761 884.051 228.388C883.417 227.996 882.679 227.8 881.839 227.8C880.999 227.8 880.253 227.996 879.599 228.388C878.965 228.78 878.461 229.321 878.087 230.012C877.733 230.684 877.555 231.459 877.555 232.336C877.555 233.232 877.733 234.025 878.087 234.716C878.461 235.388 878.974 235.92 879.627 236.312C880.281 236.704 881.027 236.9 881.867 236.9ZM885.871 239V235.416L886.347 232.168L885.871 228.948V225.7H888.419V239H885.871ZM898.164 239.28C896.858 239.28 895.672 238.972 894.608 238.356C893.563 237.74 892.732 236.909 892.116 235.864C891.519 234.8 891.22 233.624 891.22 232.336C891.22 231.029 891.519 229.853 892.116 228.808C892.732 227.763 893.563 226.941 894.608 226.344C895.672 225.728 896.858 225.42 898.164 225.42C899.191 225.42 900.143 225.616 901.02 226.008C901.898 226.381 902.654 226.932 903.288 227.66L901.608 229.34C901.198 228.855 900.694 228.491 900.096 228.248C899.518 227.987 898.874 227.856 898.164 227.856C897.324 227.856 896.578 228.052 895.924 228.444C895.271 228.817 894.758 229.34 894.384 230.012C894.011 230.684 893.824 231.459 893.824 232.336C893.824 233.213 894.011 233.988 894.384 234.66C894.758 235.332 895.271 235.864 895.924 236.256C896.578 236.648 897.324 236.844 898.164 236.844C898.874 236.844 899.518 236.723 900.096 236.48C900.694 236.219 901.207 235.845 901.636 235.36L903.288 237.04C902.672 237.749 901.916 238.3 901.02 238.692C900.143 239.084 899.191 239.28 898.164 239.28ZM907.667 239V220.128H910.187V239H907.667ZM904.391 227.996V225.7H913.463V227.996H904.391ZM915.96 239V225.7H918.48V239H915.96ZM917.22 223.04C916.753 223.04 916.371 222.891 916.072 222.592C915.773 222.275 915.624 221.883 915.624 221.416C915.624 220.968 915.773 220.595 916.072 220.296C916.371 219.979 916.753 219.82 917.22 219.82C917.687 219.82 918.069 219.979 918.368 220.296C918.667 220.595 918.816 220.968 918.816 221.416C918.816 221.883 918.667 222.275 918.368 222.592C918.069 222.891 917.687 223.04 917.22 223.04ZM928.27 239.28C926.963 239.28 925.787 238.972 924.742 238.356C923.696 237.74 922.866 236.909 922.25 235.864C921.634 234.8 921.326 233.615 921.326 232.308C921.326 231.02 921.634 229.863 922.25 228.836C922.866 227.791 923.696 226.96 924.742 226.344C925.787 225.728 926.963 225.42 928.27 225.42C929.558 225.42 930.724 225.728 931.77 226.344C932.834 226.941 933.674 227.763 934.29 228.808C934.906 229.853 935.214 231.02 935.214 232.308C935.214 233.615 934.906 234.8 934.29 235.864C933.674 236.909 932.834 237.74 931.77 238.356C930.724 238.972 929.558 239.28 928.27 239.28ZM928.27 236.844C929.11 236.844 929.856 236.648 930.51 236.256C931.163 235.864 931.676 235.332 932.05 234.66C932.423 233.969 932.61 233.185 932.61 232.308C932.61 231.449 932.414 230.684 932.022 230.012C931.648 229.34 931.135 228.817 930.482 228.444C929.847 228.052 929.11 227.856 928.27 227.856C927.43 227.856 926.683 228.052 926.03 228.444C925.376 228.817 924.863 229.34 924.49 230.012C924.116 230.684 923.93 231.449 923.93 232.308C923.93 233.185 924.116 233.969 924.49 234.66C924.863 235.332 925.376 235.864 926.03 236.256C926.683 236.648 927.43 236.844 928.27 236.844ZM947.461 239V231.244C947.461 230.236 947.144 229.405 946.509 228.752C945.874 228.099 945.053 227.772 944.045 227.772C943.373 227.772 942.776 227.921 942.253 228.22C941.73 228.519 941.32 228.929 941.021 229.452C940.722 229.975 940.573 230.572 940.573 231.244L939.537 230.656C939.537 229.648 939.761 228.752 940.209 227.968C940.657 227.184 941.282 226.568 942.085 226.12C942.888 225.653 943.793 225.42 944.801 225.42C945.809 225.42 946.696 225.672 947.461 226.176C948.245 226.68 948.861 227.343 949.309 228.164C949.757 228.967 949.981 229.825 949.981 230.74V239H947.461ZM938.053 239V225.7H940.573V239H938.053ZM966.217 239.28C965.209 239.28 964.294 239.075 963.473 238.664C962.67 238.235 962.026 237.647 961.541 236.9C961.056 236.153 960.785 235.304 960.729 234.352V230.348C960.785 229.377 961.056 228.528 961.541 227.8C962.045 227.053 962.698 226.475 963.501 226.064C964.322 225.635 965.228 225.42 966.217 225.42C967.43 225.42 968.522 225.728 969.493 226.344C970.482 226.96 971.257 227.791 971.817 228.836C972.377 229.881 972.657 231.057 972.657 232.364C972.657 233.671 972.377 234.847 971.817 235.892C971.257 236.937 970.482 237.768 969.493 238.384C968.522 238.981 967.43 239.28 966.217 239.28ZM965.797 236.9C966.637 236.9 967.374 236.704 968.009 236.312C968.644 235.92 969.148 235.388 969.521 234.716C969.894 234.025 970.081 233.232 970.081 232.336C970.081 231.459 969.894 230.675 969.521 229.984C969.148 229.293 968.644 228.761 968.009 228.388C967.374 227.996 966.646 227.8 965.825 227.8C964.985 227.8 964.248 227.996 963.613 228.388C962.978 228.761 962.484 229.293 962.129 229.984C961.774 230.675 961.597 231.468 961.597 232.364C961.597 233.241 961.765 234.025 962.101 234.716C962.456 235.388 962.95 235.92 963.585 236.312C964.238 236.704 964.976 236.9 965.797 236.9ZM959.217 244.572V225.7H961.737V229.2L961.261 232.42L961.737 235.668V244.572H959.217ZM975.514 239V219.008H978.034V239H975.514ZM987.377 239.28C986.164 239.28 985.062 238.981 984.073 238.384C983.084 237.768 982.3 236.937 981.721 235.892C981.161 234.847 980.881 233.671 980.881 232.364C980.881 231.057 981.161 229.881 981.721 228.836C982.3 227.791 983.074 226.96 984.045 226.344C985.034 225.728 986.145 225.42 987.377 225.42C988.385 225.42 989.281 225.635 990.065 226.064C990.868 226.475 991.512 227.053 991.997 227.8C992.482 228.528 992.753 229.377 992.809 230.348V234.352C992.753 235.304 992.482 236.153 991.997 236.9C991.53 237.647 990.896 238.235 990.093 238.664C989.309 239.075 988.404 239.28 987.377 239.28ZM987.797 236.9C989.048 236.9 990.056 236.48 990.821 235.64C991.586 234.781 991.969 233.689 991.969 232.364C991.969 231.449 991.792 230.656 991.437 229.984C991.101 229.293 990.616 228.761 989.981 228.388C989.346 227.996 988.609 227.8 987.769 227.8C986.929 227.8 986.182 227.996 985.529 228.388C984.894 228.78 984.39 229.321 984.017 230.012C983.662 230.684 983.485 231.459 983.485 232.336C983.485 233.232 983.662 234.025 984.017 234.716C984.39 235.388 984.904 235.92 985.557 236.312C986.21 236.704 986.957 236.9 987.797 236.9ZM991.801 239V235.416L992.277 232.168L991.801 228.948V225.7H994.349V239H991.801ZM1007.43 239V231.244C1007.43 230.236 1007.11 229.405 1006.47 228.752C1005.84 228.099 1005.02 227.772 1004.01 227.772C1003.34 227.772 1002.74 227.921 1002.22 228.22C1001.7 228.519 1001.28 228.929 1000.99 229.452C1000.69 229.975 1000.54 230.572 1000.54 231.244L999.502 230.656C999.502 229.648 999.726 228.752 1000.17 227.968C1000.62 227.184 1001.25 226.568 1002.05 226.12C1002.85 225.653 1003.76 225.42 1004.77 225.42C1005.77 225.42 1006.66 225.672 1007.43 226.176C1008.21 226.68 1008.83 227.343 1009.27 228.164C1009.72 228.967 1009.95 229.825 1009.95 230.74V239H1007.43ZM998.018 239V225.7H1000.54V239H998.018ZM1021.09 239V223.712C1021.09 222.723 1021.3 221.864 1021.73 221.136C1022.16 220.389 1022.75 219.801 1023.49 219.372C1024.26 218.943 1025.15 218.728 1026.15 218.728C1026.92 218.728 1027.58 218.859 1028.14 219.12C1028.7 219.381 1029.22 219.764 1029.68 220.268L1028.03 221.892C1027.79 221.631 1027.52 221.435 1027.22 221.304C1026.92 221.155 1026.56 221.08 1026.13 221.08C1025.32 221.08 1024.7 221.313 1024.25 221.78C1023.82 222.247 1023.61 222.891 1023.61 223.712V239H1021.09ZM1017.81 227.996V225.7H1027.83V227.996H1017.81ZM1035.68 239.28C1034.37 239.28 1033.19 238.972 1032.15 238.356C1031.1 237.74 1030.27 236.909 1029.66 235.864C1029.04 234.8 1028.73 233.615 1028.73 232.308C1028.73 231.02 1029.04 229.863 1029.66 228.836C1030.27 227.791 1031.1 226.96 1032.15 226.344C1033.19 225.728 1034.37 225.42 1035.68 225.42C1036.96 225.42 1038.13 225.728 1039.18 226.344C1040.24 226.941 1041.08 227.763 1041.7 228.808C1042.31 229.853 1042.62 231.02 1042.62 232.308C1042.62 233.615 1042.31 234.8 1041.7 235.864C1041.08 236.909 1040.24 237.74 1039.18 238.356C1038.13 238.972 1036.96 239.28 1035.68 239.28ZM1035.68 236.844C1036.52 236.844 1037.26 236.648 1037.92 236.256C1038.57 235.864 1039.08 235.332 1039.46 234.66C1039.83 233.969 1040.02 233.185 1040.02 232.308C1040.02 231.449 1039.82 230.684 1039.43 230.012C1039.05 229.34 1038.54 228.817 1037.89 228.444C1037.25 228.052 1036.52 227.856 1035.68 227.856C1034.84 227.856 1034.09 228.052 1033.44 228.444C1032.78 228.817 1032.27 229.34 1031.9 230.012C1031.52 230.684 1031.34 231.449 1031.34 232.308C1031.34 233.185 1031.52 233.969 1031.9 234.66C1032.27 235.332 1032.78 235.864 1033.44 236.256C1034.09 236.648 1034.84 236.844 1035.68 236.844ZM1045.46 239V225.7H1047.98V239H1045.46ZM1047.98 231.412L1047.03 230.992C1047.03 229.293 1047.42 227.94 1048.2 226.932C1048.99 225.924 1050.12 225.42 1051.59 225.42C1052.26 225.42 1052.87 225.541 1053.41 225.784C1053.95 226.008 1054.46 226.391 1054.92 226.932L1053.27 228.64C1052.99 228.341 1052.68 228.127 1052.35 227.996C1052.01 227.865 1051.62 227.8 1051.17 227.8C1050.24 227.8 1049.47 228.099 1048.88 228.696C1048.28 229.293 1047.98 230.199 1047.98 231.412ZM1065.06 239V220.128H1067.58V239H1065.06ZM1061.78 227.996V225.7H1070.85V227.996H1061.78ZM1082.73 239V231.244C1082.73 230.236 1082.41 229.405 1081.78 228.752C1081.14 228.099 1080.32 227.772 1079.31 227.772C1078.64 227.772 1078.05 227.921 1077.52 228.22C1077 228.519 1076.59 228.929 1076.29 229.452C1075.99 229.975 1075.84 230.572 1075.84 231.244L1074.81 230.656C1074.81 229.648 1075.03 228.752 1075.48 227.968C1075.93 227.184 1076.55 226.568 1077.35 226.12C1078.16 225.653 1079.06 225.42 1080.07 225.42C1081.08 225.42 1081.97 225.644 1082.73 226.092C1083.51 226.54 1084.13 227.165 1084.58 227.968C1085.03 228.771 1085.25 229.695 1085.25 230.74V239H1082.73ZM1073.32 239V219.008H1075.84V239H1073.32ZM1094.82 239.28C1093.5 239.28 1092.3 238.981 1091.24 238.384C1090.17 237.768 1089.33 236.937 1088.72 235.892C1088.1 234.847 1087.79 233.661 1087.79 232.336C1087.79 231.029 1088.09 229.853 1088.69 228.808C1089.31 227.763 1090.13 226.941 1091.15 226.344C1092.2 225.728 1093.37 225.42 1094.65 225.42C1095.89 225.42 1096.97 225.7 1097.9 226.26C1098.85 226.82 1099.59 227.595 1100.11 228.584C1100.66 229.573 1100.93 230.693 1100.93 231.944C1100.93 232.131 1100.92 232.336 1100.9 232.56C1100.88 232.765 1100.84 233.008 1100.79 233.288H1089.56V231.188H1099.44L1098.52 232C1098.52 231.104 1098.36 230.348 1098.04 229.732C1097.73 229.097 1097.28 228.612 1096.7 228.276C1096.12 227.921 1095.42 227.744 1094.6 227.744C1093.74 227.744 1092.98 227.931 1092.33 228.304C1091.68 228.677 1091.17 229.2 1090.82 229.872C1090.46 230.544 1090.29 231.337 1090.29 232.252C1090.29 233.185 1090.47 234.007 1090.85 234.716C1091.22 235.407 1091.75 235.948 1092.44 236.34C1093.13 236.713 1093.93 236.9 1094.82 236.9C1095.57 236.9 1096.25 236.769 1096.87 236.508C1097.5 236.247 1098.04 235.855 1098.49 235.332L1100.11 236.984C1099.48 237.731 1098.7 238.3 1097.76 238.692C1096.85 239.084 1095.87 239.28 1094.82 239.28ZM1113.31 239L1108.04 225.7H1110.67L1114.48 236.06H1113.64L1117.42 225.7H1118.88L1122.66 236.06H1121.82L1125.63 225.7H1128.26L1123.02 239H1121.54L1117.7 228.948H1118.63L1114.76 239H1113.31ZM1136.28 239.28C1134.95 239.28 1133.76 238.981 1132.69 238.384C1131.63 237.768 1130.79 236.937 1130.17 235.892C1129.56 234.847 1129.25 233.661 1129.25 232.336C1129.25 231.029 1129.55 229.853 1130.14 228.808C1130.76 227.763 1131.58 226.941 1132.61 226.344C1133.65 225.728 1134.82 225.42 1136.11 225.42C1137.34 225.42 1138.42 225.7 1139.36 226.26C1140.31 226.82 1141.04 227.595 1141.57 228.584C1142.11 229.573 1142.38 230.693 1142.38 231.944C1142.38 232.131 1142.37 232.336 1142.35 232.56C1142.33 232.765 1142.3 233.008 1142.24 233.288H1131.01V231.188H1140.9L1139.97 232C1139.97 231.104 1139.81 230.348 1139.5 229.732C1139.18 229.097 1138.73 228.612 1138.15 228.276C1137.57 227.921 1136.87 227.744 1136.05 227.744C1135.19 227.744 1134.44 227.931 1133.78 228.304C1133.13 228.677 1132.63 229.2 1132.27 229.872C1131.92 230.544 1131.74 231.337 1131.74 232.252C1131.74 233.185 1131.93 234.007 1132.3 234.716C1132.67 235.407 1133.2 235.948 1133.9 236.34C1134.59 236.713 1135.38 236.9 1136.28 236.9C1137.02 236.9 1137.7 236.769 1138.32 236.508C1138.95 236.247 1139.5 235.855 1139.94 235.332L1141.57 236.984C1140.93 237.731 1140.15 238.3 1139.22 238.692C1138.3 239.084 1137.32 239.28 1136.28 239.28ZM1152.13 239.28C1151.12 239.28 1150.2 239.075 1149.38 238.664C1148.58 238.235 1147.94 237.647 1147.45 236.9C1146.97 236.153 1146.7 235.304 1146.64 234.352V230.348C1146.7 229.377 1146.97 228.528 1147.45 227.8C1147.96 227.053 1148.61 226.475 1149.41 226.064C1150.23 225.635 1151.14 225.42 1152.13 225.42C1153.34 225.42 1154.43 225.728 1155.4 226.344C1156.39 226.96 1157.17 227.791 1157.73 228.836C1158.29 229.881 1158.57 231.057 1158.57 232.364C1158.57 233.671 1158.29 234.847 1157.73 235.892C1157.17 236.937 1156.39 237.768 1155.4 238.384C1154.43 238.981 1153.34 239.28 1152.13 239.28ZM1151.71 236.9C1152.55 236.9 1153.28 236.704 1153.92 236.312C1154.55 235.92 1155.06 235.388 1155.43 234.716C1155.8 234.025 1155.99 233.232 1155.99 232.336C1155.99 231.459 1155.8 230.675 1155.43 229.984C1155.06 229.293 1154.55 228.761 1153.92 228.388C1153.28 227.996 1152.56 227.8 1151.74 227.8C1150.9 227.8 1150.16 227.996 1149.52 228.388C1148.89 228.761 1148.39 229.293 1148.04 229.984C1147.68 230.675 1147.51 231.468 1147.51 232.364C1147.51 233.241 1147.68 234.025 1148.01 234.716C1148.37 235.388 1148.86 235.92 1149.5 236.312C1150.15 236.704 1150.89 236.9 1151.71 236.9ZM1145.13 239V219.008H1147.65V228.948L1147.17 232.168L1147.65 235.416V239H1145.13ZM1165.65 239.28C1164.91 239.28 1164.2 239.187 1163.52 239C1162.87 238.795 1162.26 238.515 1161.7 238.16C1161.14 237.787 1160.66 237.348 1160.25 236.844L1161.87 235.22C1162.36 235.817 1162.92 236.265 1163.55 236.564C1164.19 236.844 1164.9 236.984 1165.68 236.984C1166.46 236.984 1167.07 236.853 1167.5 236.592C1167.93 236.312 1168.14 235.929 1168.14 235.444C1168.14 234.959 1167.97 234.585 1167.61 234.324C1167.28 234.044 1166.84 233.82 1166.3 233.652C1165.75 233.465 1165.18 233.288 1164.56 233.12C1163.96 232.933 1163.39 232.7 1162.85 232.42C1162.31 232.14 1161.86 231.757 1161.51 231.272C1161.17 230.787 1161 230.143 1161 229.34C1161 228.537 1161.2 227.847 1161.59 227.268C1161.98 226.671 1162.53 226.213 1163.22 225.896C1163.93 225.579 1164.77 225.42 1165.76 225.42C1166.81 225.42 1167.73 225.607 1168.54 225.98C1169.36 226.335 1170.03 226.876 1170.55 227.604L1168.93 229.228C1168.55 228.743 1168.09 228.369 1167.53 228.108C1166.99 227.847 1166.37 227.716 1165.68 227.716C1164.95 227.716 1164.39 227.847 1164 228.108C1163.63 228.351 1163.44 228.696 1163.44 229.144C1163.44 229.592 1163.61 229.937 1163.94 230.18C1164.28 230.423 1164.72 230.628 1165.26 230.796C1165.82 230.964 1166.4 231.141 1167 231.328C1167.59 231.496 1168.16 231.729 1168.7 232.028C1169.25 232.327 1169.68 232.728 1170.02 233.232C1170.37 233.736 1170.55 234.399 1170.55 235.22C1170.55 236.471 1170.1 237.46 1169.21 238.188C1168.33 238.916 1167.15 239.28 1165.65 239.28ZM1173.4 239V225.7H1175.92V239H1173.4ZM1174.66 223.04C1174.19 223.04 1173.81 222.891 1173.51 222.592C1173.21 222.275 1173.07 221.883 1173.07 221.416C1173.07 220.968 1173.21 220.595 1173.51 220.296C1173.81 219.979 1174.19 219.82 1174.66 219.82C1175.13 219.82 1175.51 219.979 1175.81 220.296C1176.11 220.595 1176.26 220.968 1176.26 221.416C1176.26 221.883 1176.11 222.275 1175.81 222.592C1175.51 222.891 1175.13 223.04 1174.66 223.04ZM1181.68 239V220.128H1184.2V239H1181.68ZM1178.4 227.996V225.7H1187.48V227.996H1178.4ZM1195.69 239.28C1194.37 239.28 1193.17 238.981 1192.11 238.384C1191.05 237.768 1190.21 236.937 1189.59 235.892C1188.97 234.847 1188.67 233.661 1188.67 232.336C1188.67 231.029 1188.96 229.853 1189.56 228.808C1190.18 227.763 1191 226.941 1192.03 226.344C1193.07 225.728 1194.24 225.42 1195.53 225.42C1196.76 225.42 1197.84 225.7 1198.77 226.26C1199.73 226.82 1200.46 227.595 1200.99 228.584C1201.53 229.573 1201.8 230.693 1201.8 231.944C1201.8 232.131 1201.79 232.336 1201.77 232.56C1201.75 232.765 1201.71 233.008 1201.66 233.288H1190.43V231.188H1200.31L1199.39 232C1199.39 231.104 1199.23 230.348 1198.91 229.732C1198.6 229.097 1198.15 228.612 1197.57 228.276C1196.99 227.921 1196.29 227.744 1195.47 227.744C1194.61 227.744 1193.85 227.931 1193.2 228.304C1192.55 228.677 1192.04 229.2 1191.69 229.872C1191.33 230.544 1191.16 231.337 1191.16 232.252C1191.16 233.185 1191.34 234.007 1191.72 234.716C1192.09 235.407 1192.62 235.948 1193.31 236.34C1194 236.713 1194.8 236.9 1195.69 236.9C1196.44 236.9 1197.12 236.769 1197.74 236.508C1198.37 236.247 1198.91 235.855 1199.36 235.332L1200.99 236.984C1200.35 237.731 1199.57 238.3 1198.63 238.692C1197.72 239.084 1196.74 239.28 1195.69 239.28Z" fill="#FEFAE0"/>
</svg>
