<svg width="392" height="763" viewBox="0 0 392 763" fill="none" xmlns="http://www.w3.org/2000/svg">
<path d="M16 165.46H57.76V174.88H16V165.46ZM50.14 152.2H58.36V188.14H50.14V152.2ZM16 193.4H58.36V202.82H16V193.4ZM16 219.62H58.36V229.1H16V219.62ZM33.7 199.04H41.86V222.74H33.7V199.04ZM16 237.228H58.36V246.648H16V237.228ZM16 244.428H24.16V267.648H16V244.428ZM33.7 244.428H41.56V265.548H33.7V244.428ZM50.26 244.428H58.36V267.348H50.26V244.428ZM15.34 305.668C15.34 302.508 15.88 299.568 16.96 296.848C18.08 294.168 19.64 291.808 21.64 289.768C23.64 287.768 25.96 286.208 28.6 285.088C31.28 283.968 34.16 283.408 37.24 283.408C40.32 283.408 43.18 283.968 45.82 285.088C48.5 286.208 50.82 287.768 52.78 289.768C54.74 291.768 56.26 294.108 57.34 296.788C58.46 299.508 59.02 302.448 59.02 305.608C59.02 308.968 58.48 311.948 57.4 314.548C56.32 317.188 54.84 319.488 52.96 321.448L46.6 315.148C47.8 314.028 48.74 312.668 49.42 311.068C50.1 309.508 50.44 307.688 50.44 305.608C50.44 303.768 50.12 302.068 49.48 300.508C48.88 298.988 48 297.668 46.84 296.548C45.68 295.468 44.28 294.608 42.64 293.968C41 293.368 39.2 293.068 37.24 293.068C35.24 293.068 33.42 293.368 31.78 293.968C30.14 294.608 28.74 295.468 27.58 296.548C26.42 297.668 25.52 298.988 24.88 300.508C24.24 302.068 23.92 303.768 23.92 305.608C23.92 307.768 24.26 309.648 24.94 311.248C25.62 312.848 26.56 314.228 27.76 315.388L21.4 321.748C19.52 319.708 18.04 317.368 16.96 314.728C15.88 312.128 15.34 309.108 15.34 305.668ZM16 326.935H58.36V336.355H16V326.935ZM16 334.195H24.28V355.135H16V334.195ZM15.28 378.445C15.28 375.245 15.84 372.285 16.96 369.565C18.08 366.885 19.64 364.525 21.64 362.485C23.64 360.445 25.96 358.865 28.6 357.745C31.28 356.625 34.16 356.065 37.24 356.065C40.36 356.065 43.24 356.625 45.88 357.745C48.52 358.865 50.82 360.425 52.78 362.425C54.78 364.425 56.32 366.765 57.4 369.445C58.52 372.165 59.08 375.125 59.08 378.325C59.08 381.485 58.52 384.405 57.4 387.085C56.32 389.805 54.78 392.165 52.78 394.165C50.82 396.205 48.5 397.785 45.82 398.905C43.18 400.025 40.3 400.585 37.18 400.585C34.1 400.585 31.22 400.025 28.54 398.905C25.9 397.785 23.58 396.225 21.58 394.225C19.62 392.225 18.08 389.865 16.96 387.145C15.84 384.465 15.28 381.565 15.28 378.445ZM23.86 378.325C23.86 380.845 24.42 383.045 25.54 384.925C26.66 386.845 28.22 388.325 30.22 389.365C32.26 390.405 34.6 390.925 37.24 390.925C39.24 390.925 41.04 390.625 42.64 390.025C44.28 389.425 45.68 388.565 46.84 387.445C48.04 386.325 48.94 384.985 49.54 383.425C50.18 381.905 50.5 380.205 50.5 378.325C50.5 375.805 49.94 373.585 48.82 371.665C47.74 369.785 46.2 368.325 44.2 367.285C42.24 366.245 39.92 365.725 37.24 365.725C35.24 365.725 33.42 366.025 31.78 366.625C30.14 367.225 28.72 368.065 27.52 369.145C26.36 370.265 25.46 371.605 24.82 373.165C24.18 374.725 23.86 376.445 23.86 378.325ZM16 414.718H57.76V424.138H16V414.718ZM50.14 401.458H58.36V437.398H50.14V401.458ZM16 442.658H58.36V452.078H16V442.658ZM16 468.878H58.36V478.358H16V468.878ZM33.7 448.298H41.86V471.998H33.7V448.298ZM16 486.486H58.36V495.906H16V486.486ZM16 504.064H58.36L58.36 510.664L49.9 513.484H16V504.064ZM16 533.284L47.98 508.324L58.36 510.664L26.38 535.624L16 533.284ZM16 533.284L24.46 530.764H58.36V540.184H16V533.284ZM15.34 568.341C15.34 565.261 15.9 562.361 17.02 559.641C18.14 556.961 19.68 554.621 21.64 552.621C23.64 550.621 25.96 549.041 28.6 547.881C31.28 546.761 34.16 546.201 37.24 546.201C40.32 546.201 43.18 546.781 45.82 547.941C48.46 549.101 50.76 550.701 52.72 552.741C54.72 554.821 56.26 557.241 57.34 560.001C58.46 562.761 59.02 565.721 59.02 568.881C59.02 572.521 58.36 575.821 57.04 578.781C55.72 581.781 53.9 584.261 51.58 586.221L45.16 579.801C46.92 578.441 48.24 576.841 49.12 575.001C50 573.161 50.44 571.081 50.44 568.761C50.44 566.281 49.88 564.061 48.76 562.101C47.68 560.141 46.14 558.601 44.14 557.481C42.18 556.401 39.88 555.861 37.24 555.861C34.6 555.861 32.28 556.401 30.28 557.481C28.28 558.561 26.72 560.041 25.6 561.921C24.48 563.801 23.92 565.961 23.92 568.401C23.92 570.881 24.38 572.981 25.3 574.701C26.26 576.461 27.62 577.801 29.38 578.721C31.18 579.681 33.36 580.161 35.92 580.161L31.72 586.401L32.02 567.501H40L40 589.761H38.62C33.54 589.761 29.26 588.841 25.78 587.001C22.34 585.201 19.74 582.681 17.98 579.441C16.22 576.241 15.34 572.541 15.34 568.341ZM15.34 626.996C15.34 623.836 15.88 620.896 16.96 618.176C18.08 615.496 19.64 613.136 21.64 611.096C23.64 609.096 25.96 607.536 28.6 606.416C31.28 605.296 34.16 604.736 37.24 604.736C40.32 604.736 43.18 605.296 45.82 606.416C48.5 607.536 50.82 609.096 52.78 611.096C54.74 613.096 56.26 615.436 57.34 618.116C58.46 620.836 59.02 623.776 59.02 626.936C59.02 630.296 58.48 633.276 57.4 635.876C56.32 638.516 54.84 640.816 52.96 642.776L46.6 636.476C47.8 635.356 48.74 633.996 49.42 632.396C50.1 630.836 50.44 629.016 50.44 626.936C50.44 625.096 50.12 623.396 49.48 621.836C48.88 620.316 48 618.996 46.84 617.876C45.68 616.796 44.28 615.936 42.64 615.296C41 614.696 39.2 614.396 37.24 614.396C35.24 614.396 33.42 614.696 31.78 615.296C30.14 615.936 28.74 616.796 27.58 617.876C26.42 618.996 25.52 620.316 24.88 621.836C24.24 623.396 23.92 625.096 23.92 626.936C23.92 629.096 24.26 630.976 24.94 632.576C25.62 634.176 26.56 635.556 27.76 636.716L21.4 643.076C19.52 641.036 18.04 638.696 16.96 636.056C15.88 633.456 15.34 630.436 15.34 626.996ZM16 648.264H58.36V657.684H16V648.264ZM16 655.524H24.28V676.464H16V655.524ZM15.34 697.472C15.34 693.992 16.08 690.912 17.56 688.232C19.04 685.592 21.08 683.512 23.68 681.992C26.32 680.512 29.32 679.772 32.68 679.772H58.36V689.252H32.14C30.46 689.252 29 689.612 27.76 690.332C26.52 691.052 25.56 692.032 24.88 693.272C24.24 694.552 23.92 695.952 23.92 697.472C23.92 699.072 24.24 700.472 24.88 701.672C25.56 702.872 26.5 703.812 27.7 704.492C28.94 705.212 30.4 705.572 32.08 705.572H58.36V715.052H32.62C29.26 715.052 26.28 714.312 23.68 712.832C21.08 711.352 19.04 709.292 17.56 706.652C16.08 704.012 15.34 700.952 15.34 697.472ZM16 729.76H23.32V739.72C23.32 741.56 23.86 743 24.94 744.04C26.02 745.08 27.34 745.6 28.9 745.6C29.98 745.6 30.94 745.36 31.78 744.88C32.62 744.4 33.28 743.72 33.76 742.84C34.24 742 34.48 740.96 34.48 739.72V729.76H41.62V738.94C41.62 740.5 42 741.76 42.76 742.72C43.56 743.68 44.76 744.16 46.36 744.16C47.92 744.16 49.08 743.68 49.84 742.72C50.64 741.76 51.04 740.5 51.04 738.94V729.76H58.36V740.74C58.36 743.46 57.86 745.76 56.86 747.64C55.86 749.56 54.52 751.02 52.84 752.02C51.16 753.02 49.3 753.52 47.26 753.52C44.66 753.52 42.46 752.68 40.66 751C38.86 749.32 37.62 746.84 36.94 743.56L40.12 743.8C39.44 747.36 38.06 750.1 35.98 752.02C33.9 753.98 31.34 754.96 28.3 754.96C25.98 754.96 23.88 754.38 22 753.22C20.16 752.1 18.7 750.46 17.62 748.3C16.54 746.18 16 743.62 16 740.62V729.76ZM16 722.56H58.36V731.86H16V722.56Z" fill="#FEFAE0"/>
<g filter="url(#filter0_d_396_5407)">
<path d="M180.512 5.41992L279.535 5.41992V204.053L180.512 204.053V154.248H56V55.2246L180.512 55.2246V5.41992ZM259.467 433L180.512 391.545C184.711 379.435 186.811 366.056 186.811 351.408C186.811 330.412 181.098 319.914 169.672 319.914C164.203 319.914 159.906 322.843 156.781 328.703C153.754 334.562 152.24 342.912 152.24 353.752C152.24 368.4 154.877 380.998 160.15 391.545L75.4824 433C68.4512 421.281 62.8359 407.121 58.6367 390.519C54.4375 373.918 52.3379 358.048 52.3379 342.912C52.3379 304.923 63.2754 274.65 85.1504 252.091C107.123 229.63 134.125 218.4 166.156 218.4C200.043 218.4 227.973 230.119 249.945 253.556C272.016 276.994 283.051 306.779 283.051 342.912C283.051 358.537 280.902 374.65 276.605 391.252C272.406 407.951 266.693 421.867 259.467 433ZM259.467 660.775L180.512 619.32C184.711 607.21 186.811 593.831 186.811 579.183C186.811 558.187 181.098 547.689 169.672 547.689C164.203 547.689 159.906 550.618 156.781 556.478C153.754 562.337 152.24 570.687 152.24 581.527C152.24 596.175 154.877 608.773 160.15 619.32L75.4824 660.775C68.4512 649.056 62.8359 634.896 58.6367 618.294C54.4375 601.693 52.3379 585.823 52.3379 570.687C52.3379 532.698 63.2754 502.425 85.1504 479.866C107.123 457.405 134.125 446.175 166.156 446.175C200.043 446.175 227.973 457.894 249.945 481.331C272.016 504.769 283.051 534.554 283.051 570.687C283.051 586.312 280.902 602.425 276.605 619.027C272.406 635.726 266.693 649.642 259.467 660.775Z" fill="#357677"/>
<path d="M180.512 5.41992V0.419922L175.512 0.419922V5.41992H180.512ZM279.535 5.41992L284.535 5.41992V0.419922L279.535 0.419922V5.41992ZM279.535 204.053V209.053H284.535V204.053H279.535ZM180.512 204.053H175.512V209.053H180.512V204.053ZM180.512 154.248H185.512V149.248H180.512V154.248ZM56 154.248H51V159.248H56V154.248ZM56 55.2246V50.2246H51V55.2246H56ZM180.512 55.2246V60.2246H185.512V55.2246H180.512ZM180.512 10.4199L279.535 10.4199V0.419922L180.512 0.419922V10.4199ZM274.535 5.41992V204.053H284.535V5.41992L274.535 5.41992ZM279.535 199.053L180.512 199.053V209.053L279.535 209.053V199.053ZM185.512 204.053V154.248H175.512V204.053H185.512ZM180.512 149.248H56V159.248H180.512V149.248ZM61 154.248V55.2246H51V154.248H61ZM56 60.2246L180.512 60.2246V50.2246L56 50.2246V60.2246ZM185.512 55.2246V5.41992L175.512 5.41992V55.2246H185.512ZM259.467 433L257.142 437.427L261.179 439.546L263.661 435.722L259.467 433ZM180.512 391.545L175.788 389.906L174.378 393.971L178.187 395.971L180.512 391.545ZM156.781 328.703L152.369 326.35L152.354 326.379L152.339 326.408L156.781 328.703ZM160.15 391.545L162.349 396.035L166.877 393.818L164.623 389.308L160.15 391.545ZM75.4824 433L71.195 435.572L73.5573 439.509L77.6811 437.49L75.4824 433ZM85.1504 252.091L81.5762 248.595L81.5685 248.603L81.5609 248.611L85.1504 252.091ZM249.945 253.556L246.298 256.976L246.305 256.984L249.945 253.556ZM276.605 391.252L271.765 389.999L271.761 390.015L271.756 390.032L276.605 391.252ZM261.791 428.573L182.836 387.118L178.187 395.971L257.142 437.427L261.791 428.573ZM185.236 393.183C189.642 380.477 191.811 366.535 191.811 351.408H181.811C181.811 365.577 179.78 378.393 175.788 389.906L185.236 393.183ZM191.811 351.408C191.811 340.62 190.371 331.743 186.918 325.397C185.15 322.149 182.802 319.468 179.782 317.618C176.75 315.761 173.321 314.914 169.672 314.914V324.914C171.736 324.914 173.305 325.378 174.558 326.146C175.823 326.92 177.045 328.176 178.134 330.177C180.394 334.329 181.811 341.2 181.811 351.408H191.811ZM169.672 314.914C161.928 314.914 156.141 319.278 152.369 326.35L161.193 331.056C163.671 326.409 166.479 324.914 169.672 324.914V314.914ZM152.339 326.408C148.782 333.293 147.24 342.568 147.24 353.752H157.24C157.24 343.256 158.726 335.831 161.223 330.998L152.339 326.408ZM147.24 353.752C147.24 368.992 149.984 382.392 155.678 393.781L164.623 389.308C159.77 379.604 157.24 367.808 157.24 353.752H147.24ZM157.952 387.054L73.2837 428.509L77.6811 437.49L162.349 396.035L157.952 387.054ZM79.7699 430.427C73.0442 419.218 67.5923 405.535 63.4841 389.293L53.7894 391.745C58.0795 408.706 63.8581 423.344 71.195 435.572L79.7699 430.427ZM63.4841 389.293C59.3732 373.041 57.3379 357.585 57.3379 342.912H47.3379C47.3379 358.512 49.5018 374.794 53.7894 391.745L63.4841 389.293ZM57.3379 342.912C57.3379 305.934 67.9522 277.009 88.7399 255.572L81.5609 248.611C58.5986 272.291 47.3379 303.913 47.3379 342.912H57.3379ZM88.7246 255.588C109.736 234.109 135.441 223.4 166.156 223.4V213.4C132.809 213.4 104.51 225.152 81.5762 248.595L88.7246 255.588ZM166.156 223.4C198.746 223.4 225.327 234.607 246.298 256.976L253.593 250.137C230.618 225.63 201.34 213.4 166.156 213.4V223.4ZM246.305 256.984C267.393 279.378 278.051 307.884 278.051 342.912H288.051C288.051 305.674 276.638 274.61 253.585 250.128L246.305 256.984ZM278.051 342.912C278.051 358.075 275.966 373.767 271.765 389.999L281.446 392.504C285.839 375.533 288.051 358.998 288.051 342.912H278.051ZM271.756 390.032C267.654 406.348 262.126 419.72 255.273 430.277L263.661 435.722C271.261 424.014 277.159 409.554 281.455 392.471L271.756 390.032ZM259.467 660.775L257.142 665.202L261.179 667.321L263.661 663.497L259.467 660.775ZM180.512 619.32L175.788 617.681L174.378 621.746L178.187 623.746L180.512 619.32ZM156.781 556.478L152.369 554.125L152.354 554.154L152.339 554.183L156.781 556.478ZM160.15 619.32L162.349 623.81L166.877 621.593L164.623 617.083L160.15 619.32ZM75.4824 660.775L71.195 663.347L73.5573 667.284L77.6811 665.265L75.4824 660.775ZM85.1504 479.866L81.5762 476.37L81.5685 476.378L81.5609 476.386L85.1504 479.866ZM249.945 481.331L246.298 484.751L246.305 484.759L249.945 481.331ZM276.605 619.027L271.765 617.774L271.761 617.79L271.756 617.807L276.605 619.027ZM261.791 656.348L182.836 614.893L178.187 623.746L257.142 665.202L261.791 656.348ZM185.236 620.958C189.642 608.252 191.811 594.31 191.811 579.183H181.811C181.811 593.352 179.78 606.168 175.788 617.681L185.236 620.958ZM191.811 579.183C191.811 568.395 190.371 559.518 186.918 553.172C185.15 549.924 182.802 547.243 179.782 545.393C176.75 543.536 173.321 542.689 169.672 542.689V552.689C171.736 552.689 173.305 553.153 174.558 553.921C175.823 554.695 177.045 555.951 178.134 557.952C180.394 562.104 181.811 568.975 181.811 579.183H191.811ZM169.672 542.689C161.928 542.689 156.141 547.053 152.369 554.125L161.193 558.831C163.671 554.184 166.479 552.689 169.672 552.689V542.689ZM152.339 554.183C148.782 561.068 147.24 570.343 147.24 581.527H157.24C157.24 571.031 158.726 563.606 161.223 558.773L152.339 554.183ZM147.24 581.527C147.24 596.767 149.984 610.167 155.678 621.556L164.623 617.083C159.77 607.379 157.24 595.583 157.24 581.527H147.24ZM157.952 614.829L73.2837 656.284L77.6811 665.265L162.349 623.81L157.952 614.829ZM79.7699 658.202C73.0442 646.993 67.5923 633.31 63.4841 617.068L53.7894 619.52C58.0795 636.481 63.8581 651.119 71.195 663.347L79.7699 658.202ZM63.4841 617.068C59.3732 600.816 57.3379 585.36 57.3379 570.687H47.3379C47.3379 586.287 49.5018 602.569 53.7894 619.52L63.4841 617.068ZM57.3379 570.687C57.3379 533.709 67.9522 504.784 88.7399 483.347L81.5609 476.386C58.5986 500.066 47.3379 531.688 47.3379 570.687H57.3379ZM88.7246 483.363C109.736 461.884 135.441 451.175 166.156 451.175V441.175C132.809 441.175 104.51 452.927 81.5762 476.37L88.7246 483.363ZM166.156 451.175C198.746 451.175 225.327 462.382 246.298 484.751L253.593 477.912C230.618 453.405 201.34 441.175 166.156 441.175V451.175ZM246.305 484.759C267.393 507.153 278.051 535.659 278.051 570.687H288.051C288.051 533.449 276.638 502.385 253.585 477.903L246.305 484.759ZM278.051 570.687C278.051 585.85 275.966 601.542 271.765 617.774L281.446 620.279C285.839 603.308 288.051 586.773 288.051 570.687H278.051ZM271.756 617.807C267.654 634.123 262.126 647.495 255.273 658.052L263.661 663.497C271.261 651.789 277.159 637.329 281.455 620.246L271.756 617.807Z" fill="#242424"/>
</g>
<defs>
<filter id="filter0_d_396_5407" x="52.3379" y="5.41992" width="266.713" height="674.355" filterUnits="userSpaceOnUse" color-interpolation-filters="sRGB">
<feFlood flood-opacity="0" result="BackgroundImageFix"/>
<feColorMatrix in="SourceAlpha" type="matrix" values="0 0 0 0 0 0 0 0 0 0 0 0 0 0 0 0 0 0 127 0" result="hardAlpha"/>
<feOffset dx="36" dy="19"/>
<feComposite in2="hardAlpha" operator="out"/>
<feColorMatrix type="matrix" values="0 0 0 0 0.996078 0 0 0 0 0.980392 0 0 0 0 0.878431 0 0 0 1 0"/>
<feBlend mode="normal" in2="BackgroundImageFix" result="effect1_dropShadow_396_5407"/>
<feBlend mode="normal" in="SourceGraphic" in2="effect1_dropShadow_396_5407" result="shape"/>
</filter>
</defs>
</svg>
