<svg width="1683" height="533" viewBox="0 0 1683 533" fill="none" xmlns="http://www.w3.org/2000/svg">
<path d="M50.3625 38.4648H160.372C200.021 38.4648 230.636 49.4512 252.218 71.4238C273.8 93.2988 284.591 119.715 284.591 150.672C284.591 170.398 279.659 189.051 269.796 206.629C260.03 224.109 245.675 237.732 226.73 247.498C207.784 257.166 184.884 262 158.029 262H50.3625V38.4648ZM149.239 124.012V176.453H151.73C163.644 176.453 172.237 174.402 177.511 170.301C182.882 166.102 185.568 159.266 185.568 149.793C185.568 132.605 175.558 124.012 155.538 124.012H149.239ZM494.495 205.896V262H308.899V38.4648H494.495V94.5684H407.776V122.254H468.128V178.357H407.776V205.896H494.495ZM746.733 38.4648L670.854 262H574.907L498.881 38.4648H597.612L622.807 113.758L648.002 38.4648H746.733ZM950.631 205.896V262H765.035V38.4648H950.631V94.5684H863.912V122.254H924.264V178.357H863.912V205.896H950.631ZM973.914 262V38.4648H1072.94V205.896H1159.66V262H973.914ZM1283.28 265.662C1251.35 265.662 1224.25 254.48 1201.98 232.117C1179.81 209.656 1168.73 182.312 1168.73 150.086C1168.73 117.957 1179.81 90.7598 1201.98 68.4941C1224.25 46.1309 1251.35 34.9492 1283.28 34.9492C1315.31 34.9492 1342.41 46.1309 1364.58 68.4941C1386.84 90.7598 1397.98 117.957 1397.98 150.086C1397.98 182.312 1386.84 209.656 1364.58 232.117C1342.41 254.48 1315.31 265.662 1283.28 265.662ZM1283.28 120.643C1276.93 120.643 1271.66 122.889 1267.46 127.381C1263.26 131.775 1261.16 137.342 1261.16 144.08C1261.16 150.818 1263.26 156.434 1267.46 160.926C1271.66 165.32 1276.93 167.518 1283.28 167.518C1289.73 167.518 1295.05 165.32 1299.25 160.926C1303.45 156.434 1305.55 150.818 1305.55 144.08C1305.55 137.342 1303.45 131.775 1299.25 127.381C1295.05 122.889 1289.73 120.643 1283.28 120.643ZM1427.56 38.4648H1563.06C1591.67 38.4648 1613.64 45.7402 1628.98 60.291C1644.31 74.7441 1651.97 92.6641 1651.97 114.051C1651.97 134.949 1644.7 152.723 1630.15 167.371C1615.6 182.02 1598.07 189.344 1577.56 189.344C1560.47 189.344 1543.43 182.85 1526.44 169.861V262H1427.56V38.4648ZM1526.44 86.8047V135.438C1529.37 136.219 1532.1 136.609 1534.64 136.609C1542.06 136.609 1548.07 134.266 1552.66 129.578C1557.25 124.891 1559.54 118.738 1559.54 111.121C1559.54 103.602 1557.59 97.6934 1553.68 93.3965C1549.78 89.002 1544.21 86.8047 1536.98 86.8047H1526.44Z" fill="#FEFAE0" fill-opacity="0.2"/>
<path d="M547.145 314L554.529 295.956H556.297L563.655 314H561.003L554.945 298.738H555.855L549.745 314H547.145ZM550.655 309.918V307.786H560.145V309.918H550.655ZM566.809 314V299.804C566.809 298.885 567.009 298.088 567.407 297.412C567.806 296.719 568.352 296.173 569.045 295.774C569.756 295.375 570.579 295.176 571.515 295.176C572.226 295.176 572.841 295.297 573.361 295.54C573.881 295.783 574.358 296.138 574.791 296.606L573.257 298.114C573.032 297.871 572.781 297.689 572.503 297.568C572.226 297.429 571.888 297.36 571.489 297.36C570.744 297.36 570.163 297.577 569.747 298.01C569.349 298.443 569.149 299.041 569.149 299.804V314H566.809ZM563.767 303.782V301.65H573.075V303.782H563.767ZM576.588 314V296.476H578.928V314H576.588ZM573.546 303.782V301.65H581.97V303.782H573.546ZM589.601 314.26C588.37 314.26 587.261 313.983 586.273 313.428C585.285 312.856 584.505 312.085 583.933 311.114C583.361 310.143 583.075 309.043 583.075 307.812C583.075 306.599 583.352 305.507 583.907 304.536C584.479 303.565 585.242 302.803 586.195 302.248C587.166 301.676 588.249 301.39 589.445 301.39C590.589 301.39 591.594 301.65 592.461 302.17C593.345 302.69 594.03 303.409 594.515 304.328C595.018 305.247 595.269 306.287 595.269 307.448C595.269 307.621 595.26 307.812 595.243 308.02C595.226 308.211 595.191 308.436 595.139 308.696H584.713V306.746H593.891L593.033 307.5C593.033 306.668 592.886 305.966 592.591 305.394C592.296 304.805 591.88 304.354 591.343 304.042C590.806 303.713 590.156 303.548 589.393 303.548C588.596 303.548 587.894 303.721 587.287 304.068C586.68 304.415 586.212 304.9 585.883 305.524C585.554 306.148 585.389 306.885 585.389 307.734C585.389 308.601 585.562 309.363 585.909 310.022C586.256 310.663 586.75 311.166 587.391 311.53C588.032 311.877 588.769 312.05 589.601 312.05C590.294 312.05 590.927 311.929 591.499 311.686C592.088 311.443 592.591 311.079 593.007 310.594L594.515 312.128C593.926 312.821 593.198 313.35 592.331 313.714C591.482 314.078 590.572 314.26 589.601 314.26ZM597.82 314V301.65H600.16V314H597.82ZM600.16 306.954L599.276 306.564C599.276 304.987 599.64 303.73 600.368 302.794C601.096 301.858 602.145 301.39 603.514 301.39C604.138 301.39 604.702 301.503 605.204 301.728C605.707 301.936 606.175 302.291 606.608 302.794L605.074 304.38C604.814 304.103 604.528 303.903 604.216 303.782C603.904 303.661 603.54 303.6 603.124 303.6C602.258 303.6 601.547 303.877 600.992 304.432C600.438 304.987 600.16 305.827 600.16 306.954ZM615.889 314V299.414C615.889 298.599 616.063 297.88 616.409 297.256C616.773 296.615 617.276 296.112 617.917 295.748C618.559 295.367 619.295 295.176 620.127 295.176C620.769 295.176 621.332 295.289 621.817 295.514C622.303 295.722 622.753 296.017 623.169 296.398L621.635 297.932C621.41 297.741 621.176 297.603 620.933 297.516C620.691 297.412 620.422 297.36 620.127 297.36C619.521 297.36 619.053 297.551 618.723 297.932C618.394 298.296 618.229 298.79 618.229 299.414V314H615.889ZM612.847 303.782V301.65H624.573V303.782H612.847ZM623.221 314V301.65H625.587V314H623.221ZM624.391 300.35C623.975 300.35 623.629 300.211 623.351 299.934C623.074 299.639 622.935 299.275 622.935 298.842C622.935 298.426 623.074 298.079 623.351 297.802C623.629 297.507 623.975 297.36 624.391 297.36C624.842 297.36 625.197 297.507 625.457 297.802C625.735 298.079 625.873 298.426 625.873 298.842C625.873 299.275 625.735 299.639 625.457 299.934C625.197 300.211 624.842 300.35 624.391 300.35ZM637.762 314V306.798C637.762 305.862 637.467 305.091 636.878 304.484C636.288 303.877 635.526 303.574 634.59 303.574C633.966 303.574 633.411 303.713 632.926 303.99C632.44 304.267 632.059 304.649 631.782 305.134C631.504 305.619 631.366 306.174 631.366 306.798L630.404 306.252C630.404 305.316 630.612 304.484 631.028 303.756C631.444 303.028 632.024 302.456 632.77 302.04C633.515 301.607 634.356 301.39 635.292 301.39C636.228 301.39 637.051 301.624 637.762 302.092C638.49 302.56 639.062 303.175 639.478 303.938C639.894 304.683 640.102 305.481 640.102 306.33V314H637.762ZM629.026 314V301.65H631.366V314H629.026ZM648.522 314.26C647.395 314.26 646.372 313.983 645.454 313.428C644.535 312.856 643.807 312.085 643.27 311.114C642.75 310.143 642.49 309.051 642.49 307.838C642.49 306.625 642.75 305.533 643.27 304.562C643.807 303.591 644.526 302.82 645.428 302.248C646.346 301.676 647.378 301.39 648.522 301.39C649.458 301.39 650.29 301.589 651.018 301.988C651.763 302.369 652.361 302.907 652.812 303.6C653.262 304.276 653.514 305.065 653.566 305.966V309.684C653.514 310.568 653.262 311.357 652.812 312.05C652.378 312.743 651.789 313.289 651.044 313.688C650.316 314.069 649.475 314.26 648.522 314.26ZM648.912 312.05C650.073 312.05 651.009 311.66 651.72 310.88C652.43 310.083 652.786 309.069 652.786 307.838C652.786 306.989 652.621 306.252 652.292 305.628C651.98 304.987 651.529 304.493 650.94 304.146C650.35 303.782 649.666 303.6 648.886 303.6C648.106 303.6 647.412 303.782 646.806 304.146C646.216 304.51 645.748 305.013 645.402 305.654C645.072 306.278 644.908 306.997 644.908 307.812C644.908 308.644 645.072 309.381 645.402 310.022C645.748 310.646 646.225 311.14 646.832 311.504C647.438 311.868 648.132 312.05 648.912 312.05ZM652.63 314V310.672L653.072 307.656L652.63 304.666V301.65H654.996V314H652.63ZM658.403 314V295.436H660.743V314H658.403ZM664.192 314V301.65H666.532V314H664.192ZM665.362 299.18C664.929 299.18 664.574 299.041 664.296 298.764C664.019 298.469 663.88 298.105 663.88 297.672C663.88 297.256 664.019 296.909 664.296 296.632C664.574 296.337 664.929 296.19 665.362 296.19C665.796 296.19 666.151 296.337 666.428 296.632C666.706 296.909 666.844 297.256 666.844 297.672C666.844 298.105 666.706 298.469 666.428 298.764C666.151 299.041 665.796 299.18 665.362 299.18ZM668.993 312.726L676.325 302.924H679.081L671.749 312.726H668.993ZM668.993 314V312.726L671.073 311.868H678.925V314H668.993ZM669.435 303.782V301.65H679.081V302.924L676.923 303.782H669.435ZM681.636 314V301.65H683.976V314H681.636ZM682.806 299.18C682.372 299.18 682.017 299.041 681.74 298.764C681.462 298.469 681.324 298.105 681.324 297.672C681.324 297.256 681.462 296.909 681.74 296.632C682.017 296.337 682.372 296.19 682.806 296.19C683.239 296.19 683.594 296.337 683.872 296.632C684.149 296.909 684.288 297.256 684.288 297.672C684.288 298.105 684.149 298.469 683.872 298.764C683.594 299.041 683.239 299.18 682.806 299.18ZM696.16 314V306.798C696.16 305.862 695.865 305.091 695.276 304.484C694.687 303.877 693.924 303.574 692.988 303.574C692.364 303.574 691.809 303.713 691.324 303.99C690.839 304.267 690.457 304.649 690.18 305.134C689.903 305.619 689.764 306.174 689.764 306.798L688.802 306.252C688.802 305.316 689.01 304.484 689.426 303.756C689.842 303.028 690.423 302.456 691.168 302.04C691.913 301.607 692.754 301.39 693.69 301.39C694.626 301.39 695.449 301.624 696.16 302.092C696.888 302.56 697.46 303.175 697.876 303.938C698.292 304.683 698.5 305.481 698.5 306.33V314H696.16ZM687.424 314V301.65H689.764V314H687.424ZM706.79 319.434C705.525 319.434 704.398 319.2 703.41 318.732C702.439 318.264 701.659 317.605 701.07 316.756L702.578 315.222C703.081 315.863 703.679 316.349 704.372 316.678C705.065 317.025 705.889 317.198 706.842 317.198C708.107 317.198 709.104 316.86 709.832 316.184C710.577 315.525 710.95 314.633 710.95 313.506V310.438L711.366 307.656L710.95 304.9V301.65H713.29V313.506C713.29 314.685 713.013 315.716 712.458 316.6C711.921 317.484 711.158 318.177 710.17 318.68C709.199 319.183 708.073 319.434 706.79 319.434ZM706.79 313.792C705.663 313.792 704.649 313.523 703.748 312.986C702.864 312.449 702.162 311.712 701.642 310.776C701.122 309.823 700.862 308.757 700.862 307.578C700.862 306.399 701.122 305.351 701.642 304.432C702.162 303.496 702.864 302.759 703.748 302.222C704.649 301.667 705.663 301.39 706.79 301.39C707.761 301.39 708.619 301.581 709.364 301.962C710.109 302.343 710.699 302.881 711.132 303.574C711.583 304.25 711.825 305.047 711.86 305.966V309.242C711.808 310.143 711.557 310.941 711.106 311.634C710.673 312.31 710.083 312.839 709.338 313.22C708.593 313.601 707.743 313.792 706.79 313.792ZM707.258 311.582C708.021 311.582 708.688 311.417 709.26 311.088C709.849 310.759 710.3 310.299 710.612 309.71C710.924 309.103 711.08 308.401 711.08 307.604C711.08 306.807 710.915 306.113 710.586 305.524C710.274 304.917 709.832 304.449 709.26 304.12C708.688 303.773 708.012 303.6 707.232 303.6C706.452 303.6 705.767 303.773 705.178 304.12C704.589 304.449 704.121 304.917 703.774 305.524C703.445 306.113 703.28 306.798 703.28 307.578C703.28 308.358 703.445 309.051 703.774 309.658C704.121 310.265 704.589 310.741 705.178 311.088C705.785 311.417 706.478 311.582 707.258 311.582ZM724.031 314V296.476H726.371V314H724.031ZM720.989 303.782V301.65H729.413V303.782H720.989ZM740.441 314V306.798C740.441 305.862 740.147 305.091 739.557 304.484C738.968 303.877 738.205 303.574 737.269 303.574C736.645 303.574 736.091 303.713 735.605 303.99C735.12 304.267 734.739 304.649 734.461 305.134C734.184 305.619 734.045 306.174 734.045 306.798L733.083 306.252C733.083 305.316 733.291 304.484 733.707 303.756C734.123 303.028 734.704 302.456 735.449 302.04C736.195 301.607 737.035 301.39 737.971 301.39C738.907 301.39 739.731 301.598 740.441 302.014C741.169 302.43 741.741 303.011 742.157 303.756C742.573 304.501 742.781 305.359 742.781 306.33V314H740.441ZM731.705 314V295.436H734.045V314H731.705ZM751.669 314.26C750.439 314.26 749.329 313.983 748.341 313.428C747.353 312.856 746.573 312.085 746.001 311.114C745.429 310.143 745.143 309.043 745.143 307.812C745.143 306.599 745.421 305.507 745.975 304.536C746.547 303.565 747.31 302.803 748.263 302.248C749.234 301.676 750.317 301.39 751.513 301.39C752.657 301.39 753.663 301.65 754.529 302.17C755.413 302.69 756.098 303.409 756.583 304.328C757.086 305.247 757.337 306.287 757.337 307.448C757.337 307.621 757.329 307.812 757.311 308.02C757.294 308.211 757.259 308.436 757.207 308.696H746.781V306.746H755.959L755.101 307.5C755.101 306.668 754.954 305.966 754.659 305.394C754.365 304.805 753.949 304.354 753.411 304.042C752.874 303.713 752.224 303.548 751.461 303.548C750.664 303.548 749.962 303.721 749.355 304.068C748.749 304.415 748.281 304.9 747.951 305.524C747.622 306.148 747.457 306.885 747.457 307.734C747.457 308.601 747.631 309.363 747.977 310.022C748.324 310.663 748.818 311.166 749.459 311.53C750.101 311.877 750.837 312.05 751.669 312.05C752.363 312.05 752.995 311.929 753.567 311.686C754.157 311.443 754.659 311.079 755.075 310.594L756.583 312.128C755.994 312.821 755.266 313.35 754.399 313.714C753.55 314.078 752.64 314.26 751.669 314.26ZM770.523 314.26C769.379 314.26 768.356 313.983 767.455 313.428C766.554 312.856 765.834 312.085 765.297 311.114C764.777 310.143 764.517 309.051 764.517 307.838C764.517 306.625 764.777 305.533 765.297 304.562C765.834 303.591 766.554 302.82 767.455 302.248C768.356 301.676 769.379 301.39 770.523 301.39C771.442 301.39 772.274 301.589 773.019 301.988C773.764 302.369 774.362 302.907 774.813 303.6C775.281 304.276 775.541 305.065 775.593 305.966V309.684C775.541 310.568 775.29 311.357 774.839 312.05C774.388 312.743 773.79 313.289 773.045 313.688C772.3 314.069 771.459 314.26 770.523 314.26ZM770.913 312.05C771.693 312.05 772.369 311.868 772.941 311.504C773.53 311.14 773.99 310.646 774.319 310.022C774.648 309.381 774.813 308.653 774.813 307.838C774.813 306.989 774.64 306.252 774.293 305.628C773.964 305.004 773.504 304.51 772.915 304.146C772.343 303.782 771.667 303.6 770.887 303.6C770.107 303.6 769.422 303.782 768.833 304.146C768.244 304.51 767.776 305.013 767.429 305.654C767.1 306.278 766.935 306.997 766.935 307.812C766.935 308.644 767.1 309.381 767.429 310.022C767.776 310.646 768.244 311.14 768.833 311.504C769.44 311.868 770.133 312.05 770.913 312.05ZM777.023 314H774.657V310.672L775.099 307.656L774.657 304.666V295.436H777.023V314ZM786.15 314.26C784.919 314.26 783.81 313.983 782.822 313.428C781.834 312.856 781.054 312.085 780.482 311.114C779.91 310.143 779.624 309.043 779.624 307.812C779.624 306.599 779.901 305.507 780.456 304.536C781.028 303.565 781.791 302.803 782.744 302.248C783.715 301.676 784.798 301.39 785.994 301.39C787.138 301.39 788.143 301.65 789.01 302.17C789.894 302.69 790.579 303.409 791.064 304.328C791.567 305.247 791.818 306.287 791.818 307.448C791.818 307.621 791.809 307.812 791.792 308.02C791.775 308.211 791.74 308.436 791.688 308.696H781.262V306.746H790.44L789.582 307.5C789.582 306.668 789.435 305.966 789.14 305.394C788.845 304.805 788.429 304.354 787.892 304.042C787.355 303.713 786.705 303.548 785.942 303.548C785.145 303.548 784.443 303.721 783.836 304.068C783.229 304.415 782.761 304.9 782.432 305.524C782.103 306.148 781.938 306.885 781.938 307.734C781.938 308.601 782.111 309.363 782.458 310.022C782.805 310.663 783.299 311.166 783.94 311.53C784.581 311.877 785.318 312.05 786.15 312.05C786.843 312.05 787.476 311.929 788.048 311.686C788.637 311.443 789.14 311.079 789.556 310.594L791.064 312.128C790.475 312.821 789.747 313.35 788.88 313.714C788.031 314.078 787.121 314.26 786.15 314.26ZM798.295 314.26C797.602 314.26 796.943 314.173 796.319 314C795.713 313.809 795.149 313.549 794.629 313.22C794.109 312.873 793.659 312.466 793.277 311.998L794.785 310.49C795.236 311.045 795.756 311.461 796.345 311.738C796.935 311.998 797.593 312.128 798.321 312.128C799.049 312.128 799.613 312.007 800.011 311.764C800.41 311.504 800.609 311.149 800.609 310.698C800.609 310.247 800.445 309.901 800.115 309.658C799.803 309.398 799.396 309.19 798.893 309.034C798.391 308.861 797.853 308.696 797.281 308.54C796.727 308.367 796.198 308.15 795.695 307.89C795.193 307.63 794.777 307.275 794.447 306.824C794.135 306.373 793.979 305.775 793.979 305.03C793.979 304.285 794.161 303.643 794.525 303.106C794.889 302.551 795.392 302.127 796.033 301.832C796.692 301.537 797.481 301.39 798.399 301.39C799.37 301.39 800.228 301.563 800.973 301.91C801.736 302.239 802.36 302.742 802.845 303.418L801.337 304.926C800.991 304.475 800.557 304.129 800.037 303.886C799.535 303.643 798.963 303.522 798.321 303.522C797.645 303.522 797.125 303.643 796.761 303.886C796.415 304.111 796.241 304.432 796.241 304.848C796.241 305.264 796.397 305.585 796.709 305.81C797.021 306.035 797.429 306.226 797.931 306.382C798.451 306.538 798.989 306.703 799.543 306.876C800.098 307.032 800.627 307.249 801.129 307.526C801.632 307.803 802.039 308.176 802.351 308.644C802.681 309.112 802.845 309.727 802.845 310.49C802.845 311.651 802.429 312.57 801.597 313.246C800.783 313.922 799.682 314.26 798.295 314.26ZM805.491 314V301.65H807.831V314H805.491ZM806.661 299.18C806.228 299.18 805.872 299.041 805.595 298.764C805.318 298.469 805.179 298.105 805.179 297.672C805.179 297.256 805.318 296.909 805.595 296.632C805.872 296.337 806.228 296.19 806.661 296.19C807.094 296.19 807.45 296.337 807.727 296.632C808.004 296.909 808.143 297.256 808.143 297.672C808.143 298.105 808.004 298.469 807.727 298.764C807.45 299.041 807.094 299.18 806.661 299.18ZM816.401 319.434C815.136 319.434 814.009 319.2 813.021 318.732C812.051 318.264 811.271 317.605 810.681 316.756L812.189 315.222C812.692 315.863 813.29 316.349 813.983 316.678C814.677 317.025 815.5 317.198 816.453 317.198C817.719 317.198 818.715 316.86 819.443 316.184C820.189 315.525 820.561 314.633 820.561 313.506V310.438L820.977 307.656L820.561 304.9V301.65H822.901V313.506C822.901 314.685 822.624 315.716 822.069 316.6C821.532 317.484 820.769 318.177 819.781 318.68C818.811 319.183 817.684 319.434 816.401 319.434ZM816.401 313.792C815.275 313.792 814.261 313.523 813.359 312.986C812.475 312.449 811.773 311.712 811.253 310.776C810.733 309.823 810.473 308.757 810.473 307.578C810.473 306.399 810.733 305.351 811.253 304.432C811.773 303.496 812.475 302.759 813.359 302.222C814.261 301.667 815.275 301.39 816.401 301.39C817.372 301.39 818.23 301.581 818.975 301.962C819.721 302.343 820.31 302.881 820.743 303.574C821.194 304.25 821.437 305.047 821.471 305.966V309.242C821.419 310.143 821.168 310.941 820.717 311.634C820.284 312.31 819.695 312.839 818.949 313.22C818.204 313.601 817.355 313.792 816.401 313.792ZM816.869 311.582C817.632 311.582 818.299 311.417 818.871 311.088C819.461 310.759 819.911 310.299 820.223 309.71C820.535 309.103 820.691 308.401 820.691 307.604C820.691 306.807 820.527 306.113 820.197 305.524C819.885 304.917 819.443 304.449 818.871 304.12C818.299 303.773 817.623 303.6 816.843 303.6C816.063 303.6 815.379 303.773 814.789 304.12C814.2 304.449 813.732 304.917 813.385 305.524C813.056 306.113 812.891 306.798 812.891 307.578C812.891 308.358 813.056 309.051 813.385 309.658C813.732 310.265 814.2 310.741 814.789 311.088C815.396 311.417 816.089 311.582 816.869 311.582ZM835.072 314V306.798C835.072 305.862 834.777 305.091 834.188 304.484C833.599 303.877 832.836 303.574 831.9 303.574C831.276 303.574 830.721 303.713 830.236 303.99C829.751 304.267 829.369 304.649 829.092 305.134C828.815 305.619 828.676 306.174 828.676 306.798L827.714 306.252C827.714 305.316 827.922 304.484 828.338 303.756C828.754 303.028 829.335 302.456 830.08 302.04C830.825 301.607 831.666 301.39 832.602 301.39C833.538 301.39 834.361 301.624 835.072 302.092C835.8 302.56 836.372 303.175 836.788 303.938C837.204 304.683 837.412 305.481 837.412 306.33V314H835.072ZM826.336 314V301.65H828.676V314H826.336ZM846.014 314V301.65H848.354V314H846.014ZM847.184 299.18C846.751 299.18 846.396 299.041 846.118 298.764C845.841 298.469 845.702 298.105 845.702 297.672C845.702 297.256 845.841 296.909 846.118 296.632C846.396 296.337 846.751 296.19 847.184 296.19C847.618 296.19 847.973 296.337 848.25 296.632C848.528 296.909 848.666 297.256 848.666 297.672C848.666 298.105 848.528 298.469 848.25 298.764C847.973 299.041 847.618 299.18 847.184 299.18ZM853.701 314V296.476H856.041V314H853.701ZM850.659 303.782V301.65H859.083V303.782H850.659ZM870.319 314L865.431 301.65H867.875L871.411 311.27H870.631L874.141 301.65H875.493L879.003 311.27H878.223L881.759 301.65H884.203L879.341 314H877.963L874.401 304.666H875.259L871.671 314H870.319ZM891.18 314.26C890.053 314.26 889.031 313.983 888.112 313.428C887.193 312.856 886.465 312.085 885.928 311.114C885.408 310.143 885.148 309.051 885.148 307.838C885.148 306.625 885.408 305.533 885.928 304.562C886.465 303.591 887.185 302.82 888.086 302.248C889.005 301.676 890.036 301.39 891.18 301.39C892.116 301.39 892.948 301.589 893.676 301.988C894.421 302.369 895.019 302.907 895.47 303.6C895.921 304.276 896.172 305.065 896.224 305.966V309.684C896.172 310.568 895.921 311.357 895.47 312.05C895.037 312.743 894.447 313.289 893.702 313.688C892.974 314.069 892.133 314.26 891.18 314.26ZM891.57 312.05C892.731 312.05 893.667 311.66 894.378 310.88C895.089 310.083 895.444 309.069 895.444 307.838C895.444 306.989 895.279 306.252 894.95 305.628C894.638 304.987 894.187 304.493 893.598 304.146C893.009 303.782 892.324 303.6 891.544 303.6C890.764 303.6 890.071 303.782 889.464 304.146C888.875 304.51 888.407 305.013 888.06 305.654C887.731 306.278 887.566 306.997 887.566 307.812C887.566 308.644 887.731 309.381 888.06 310.022C888.407 310.646 888.883 311.14 889.49 311.504C890.097 311.868 890.79 312.05 891.57 312.05ZM895.288 314V310.672L895.73 307.656L895.288 304.666V301.65H897.654V314H895.288ZM904.987 314.26C904.293 314.26 903.635 314.173 903.011 314C902.404 313.809 901.841 313.549 901.321 313.22C900.801 312.873 900.35 312.466 899.969 311.998L901.477 310.49C901.927 311.045 902.447 311.461 903.037 311.738C903.626 311.998 904.285 312.128 905.013 312.128C905.741 312.128 906.304 312.007 906.703 311.764C907.101 311.504 907.301 311.149 907.301 310.698C907.301 310.247 907.136 309.901 906.807 309.658C906.495 309.398 906.087 309.19 905.585 309.034C905.082 308.861 904.545 308.696 903.973 308.54C903.418 308.367 902.889 308.15 902.387 307.89C901.884 307.63 901.468 307.275 901.139 306.824C900.827 306.373 900.671 305.775 900.671 305.03C900.671 304.285 900.853 303.643 901.217 303.106C901.581 302.551 902.083 302.127 902.725 301.832C903.383 301.537 904.172 301.39 905.091 301.39C906.061 301.39 906.919 301.563 907.665 301.91C908.427 302.239 909.051 302.742 909.537 303.418L908.029 304.926C907.682 304.475 907.249 304.129 906.729 303.886C906.226 303.643 905.654 303.522 905.013 303.522C904.337 303.522 903.817 303.643 903.453 303.886C903.106 304.111 902.933 304.432 902.933 304.848C902.933 305.264 903.089 305.585 903.401 305.81C903.713 306.035 904.12 306.226 904.623 306.382C905.143 306.538 905.68 306.703 906.235 306.876C906.789 307.032 907.318 307.249 907.821 307.526C908.323 307.803 908.731 308.176 909.043 308.644C909.372 309.112 909.537 309.727 909.537 310.49C909.537 311.651 909.121 312.57 908.289 313.246C907.474 313.922 906.373 314.26 904.987 314.26ZM919.463 314V296.476H921.803V314H919.463ZM916.421 303.782V301.65H924.845V303.782H916.421ZM927.163 314V301.65H929.503V314H927.163ZM928.333 299.18C927.9 299.18 927.544 299.041 927.267 298.764C926.99 298.469 926.851 298.105 926.851 297.672C926.851 297.256 926.99 296.909 927.267 296.632C927.544 296.337 927.9 296.19 928.333 296.19C928.766 296.19 929.122 296.337 929.399 296.632C929.676 296.909 929.815 297.256 929.815 297.672C929.815 298.105 929.676 298.469 929.399 298.764C929.122 299.041 928.766 299.18 928.333 299.18ZM932.951 314V301.65H935.291V314H932.951ZM941.297 314V306.538C941.297 305.619 941.011 304.9 940.439 304.38C939.885 303.843 939.183 303.574 938.333 303.574C937.761 303.574 937.25 303.695 936.799 303.938C936.349 304.181 935.985 304.519 935.707 304.952C935.43 305.385 935.291 305.905 935.291 306.512L934.329 306.044C934.329 305.108 934.529 304.293 934.927 303.6C935.343 302.907 935.907 302.369 936.617 301.988C937.328 301.589 938.125 301.39 939.009 301.39C939.876 301.39 940.656 301.581 941.349 301.962C942.06 302.343 942.615 302.881 943.013 303.574C943.429 304.267 943.637 305.091 943.637 306.044V314H941.297ZM949.643 314V306.538C949.643 305.619 949.357 304.9 948.785 304.38C948.231 303.843 947.537 303.574 946.705 303.574C946.133 303.574 945.613 303.695 945.145 303.938C944.695 304.181 944.331 304.519 944.053 304.952C943.776 305.385 943.637 305.905 943.637 306.512L942.311 306.044C942.363 305.091 942.615 304.276 943.065 303.6C943.533 302.907 944.131 302.369 944.859 301.988C945.587 301.589 946.385 301.39 947.251 301.39C948.153 301.39 948.959 301.581 949.669 301.962C950.38 302.343 950.943 302.881 951.359 303.574C951.793 304.267 952.009 305.099 952.009 306.07V314H949.643ZM960.914 314.26C959.683 314.26 958.574 313.983 957.586 313.428C956.598 312.856 955.818 312.085 955.246 311.114C954.674 310.143 954.388 309.043 954.388 307.812C954.388 306.599 954.665 305.507 955.22 304.536C955.792 303.565 956.554 302.803 957.508 302.248C958.478 301.676 959.562 301.39 960.758 301.39C961.902 301.39 962.907 301.65 963.774 302.17C964.658 302.69 965.342 303.409 965.828 304.328C966.33 305.247 966.582 306.287 966.582 307.448C966.582 307.621 966.573 307.812 966.556 308.02C966.538 308.211 966.504 308.436 966.452 308.696H956.026V306.746H965.204L964.346 307.5C964.346 306.668 964.198 305.966 963.904 305.394C963.609 304.805 963.193 304.354 962.656 304.042C962.118 303.713 961.468 303.548 960.706 303.548C959.908 303.548 959.206 303.721 958.6 304.068C957.993 304.415 957.525 304.9 957.196 305.524C956.866 306.148 956.702 306.885 956.702 307.734C956.702 308.601 956.875 309.363 957.222 310.022C957.568 310.663 958.062 311.166 958.704 311.53C959.345 311.877 960.082 312.05 960.914 312.05C961.607 312.05 962.24 311.929 962.812 311.686C963.401 311.443 963.904 311.079 964.32 310.594L965.828 312.128C965.238 312.821 964.51 313.35 963.644 313.714C962.794 314.078 961.884 314.26 960.914 314.26ZM976.439 314V296.476H978.779V314H976.439ZM973.397 303.782V301.65H981.821V303.782H973.397ZM989.375 314.26C988.161 314.26 987.069 313.974 986.099 313.402C985.128 312.83 984.357 312.059 983.785 311.088C983.213 310.1 982.927 308.999 982.927 307.786C982.927 306.59 983.213 305.515 983.785 304.562C984.357 303.591 985.128 302.82 986.099 302.248C987.069 301.676 988.161 301.39 989.375 301.39C990.571 301.39 991.654 301.676 992.625 302.248C993.613 302.803 994.393 303.565 994.965 304.536C995.537 305.507 995.823 306.59 995.823 307.786C995.823 308.999 995.537 310.1 994.965 311.088C994.393 312.059 993.613 312.83 992.625 313.402C991.654 313.974 990.571 314.26 989.375 314.26ZM989.375 311.998C990.155 311.998 990.848 311.816 991.455 311.452C992.061 311.088 992.538 310.594 992.885 309.97C993.231 309.329 993.405 308.601 993.405 307.786C993.405 306.989 993.223 306.278 992.859 305.654C992.512 305.03 992.035 304.545 991.429 304.198C990.839 303.834 990.155 303.652 989.375 303.652C988.595 303.652 987.901 303.834 987.295 304.198C986.688 304.545 986.211 305.03 985.865 305.654C985.518 306.278 985.345 306.989 985.345 307.786C985.345 308.601 985.518 309.329 985.865 309.97C986.211 310.594 986.688 311.088 987.295 311.452C987.901 311.816 988.595 311.998 989.375 311.998ZM1005.64 314V299.414C1005.64 298.599 1005.81 297.88 1006.16 297.256C1006.52 296.615 1007.02 296.112 1007.66 295.748C1008.3 295.367 1009.04 295.176 1009.87 295.176C1010.51 295.176 1011.08 295.289 1011.56 295.514C1012.05 295.722 1012.5 296.017 1012.92 296.398L1011.38 297.932C1011.16 297.741 1010.92 297.603 1010.68 297.516C1010.44 297.412 1010.17 297.36 1009.87 297.36C1009.27 297.36 1008.8 297.551 1008.47 297.932C1008.14 298.296 1007.98 298.79 1007.98 299.414V314H1005.64ZM1002.59 303.782V301.65H1014.32V303.782H1002.59ZM1012.97 314V301.65H1015.33V314H1012.97ZM1014.14 300.35C1013.72 300.35 1013.37 300.211 1013.1 299.934C1012.82 299.639 1012.68 299.275 1012.68 298.842C1012.68 298.426 1012.82 298.079 1013.1 297.802C1013.37 297.507 1013.72 297.36 1014.14 297.36C1014.59 297.36 1014.94 297.507 1015.2 297.802C1015.48 298.079 1015.62 298.426 1015.62 298.842C1015.62 299.275 1015.48 299.639 1015.2 299.934C1014.94 300.211 1014.59 300.35 1014.14 300.35ZM1018.77 314V295.436H1021.11V314H1018.77ZM1024.54 314V295.436H1026.88V314H1024.54ZM1035.73 314V301.65H1038.07V314H1035.73ZM1036.9 299.18C1036.47 299.18 1036.11 299.041 1035.84 298.764C1035.56 298.469 1035.42 298.105 1035.42 297.672C1035.42 297.256 1035.56 296.909 1035.84 296.632C1036.11 296.337 1036.47 296.19 1036.9 296.19C1037.34 296.19 1037.69 296.337 1037.97 296.632C1038.25 296.909 1038.39 297.256 1038.39 297.672C1038.39 298.105 1038.25 298.469 1037.97 298.764C1037.69 299.041 1037.34 299.18 1036.9 299.18ZM1043.42 314V296.476H1045.76V314H1043.42ZM1040.38 303.782V301.65H1048.8V303.782H1040.38ZM1061.47 314.26C1060.46 314.26 1059.55 314.035 1058.74 313.584C1057.94 313.116 1057.32 312.475 1056.87 311.66C1056.42 310.845 1056.19 309.901 1056.19 308.826V301.65H1058.53V308.722C1058.53 309.398 1058.64 309.987 1058.87 310.49C1059.11 310.975 1059.46 311.348 1059.91 311.608C1060.36 311.868 1060.89 311.998 1061.49 311.998C1062.41 311.998 1063.13 311.712 1063.65 311.14C1064.17 310.551 1064.43 309.745 1064.43 308.722V301.65H1066.77V308.826C1066.77 309.901 1066.55 310.845 1066.1 311.66C1065.65 312.475 1065.02 313.116 1064.22 313.584C1063.44 314.035 1062.53 314.26 1061.47 314.26ZM1076.41 314.26C1075.47 314.26 1074.62 314.069 1073.86 313.688C1073.12 313.289 1072.52 312.743 1072.07 312.05C1071.62 311.357 1071.36 310.568 1071.31 309.684V305.966C1071.36 305.065 1071.62 304.276 1072.07 303.6C1072.53 302.907 1073.14 302.369 1073.89 301.988C1074.65 301.589 1075.49 301.39 1076.41 301.39C1077.54 301.39 1078.55 301.676 1079.45 302.248C1080.37 302.82 1081.09 303.591 1081.61 304.562C1082.13 305.533 1082.39 306.625 1082.39 307.838C1082.39 309.051 1082.13 310.143 1081.61 311.114C1081.09 312.085 1080.37 312.856 1079.45 313.428C1078.55 313.983 1077.54 314.26 1076.41 314.26ZM1076.02 312.05C1076.8 312.05 1077.48 311.868 1078.07 311.504C1078.66 311.14 1079.13 310.646 1079.48 310.022C1079.82 309.381 1080 308.644 1080 307.812C1080 306.997 1079.82 306.269 1079.48 305.628C1079.13 304.987 1078.66 304.493 1078.07 304.146C1077.48 303.782 1076.81 303.6 1076.04 303.6C1075.26 303.6 1074.58 303.782 1073.99 304.146C1073.4 304.493 1072.94 304.987 1072.61 305.628C1072.28 306.269 1072.12 307.006 1072.12 307.838C1072.12 308.653 1072.27 309.381 1072.59 310.022C1072.92 310.646 1073.38 311.14 1073.96 311.504C1074.57 311.868 1075.26 312.05 1076.02 312.05ZM1069.91 319.174V301.65H1072.25V304.9L1071.81 307.89L1072.25 310.906V319.174H1069.91ZM1093.99 314L1089.1 301.65H1091.54L1095.08 311.27H1094.3L1097.81 301.65H1099.16L1102.67 311.27H1101.89L1105.43 301.65H1107.87L1103.01 314H1101.63L1098.07 304.666H1098.93L1095.34 314H1093.99ZM1109.77 314V301.65H1112.11V314H1109.77ZM1110.94 299.18C1110.51 299.18 1110.15 299.041 1109.88 298.764C1109.6 298.469 1109.46 298.105 1109.46 297.672C1109.46 297.256 1109.6 296.909 1109.88 296.632C1110.15 296.337 1110.51 296.19 1110.94 296.19C1111.38 296.19 1111.73 296.337 1112.01 296.632C1112.29 296.909 1112.42 297.256 1112.42 297.672C1112.42 298.105 1112.29 298.469 1112.01 298.764C1111.73 299.041 1111.38 299.18 1110.94 299.18ZM1117.46 314V296.476H1119.8V314H1117.46ZM1114.42 303.782V301.65H1122.84V303.782H1114.42ZM1133.87 314V306.798C1133.87 305.862 1133.57 305.091 1132.98 304.484C1132.4 303.877 1131.63 303.574 1130.7 303.574C1130.07 303.574 1129.52 303.713 1129.03 303.99C1128.55 304.267 1128.17 304.649 1127.89 305.134C1127.61 305.619 1127.47 306.174 1127.47 306.798L1126.51 306.252C1126.51 305.316 1126.72 304.484 1127.13 303.756C1127.55 303.028 1128.13 302.456 1128.88 302.04C1129.62 301.607 1130.46 301.39 1131.4 301.39C1132.33 301.39 1133.16 301.598 1133.87 302.014C1134.6 302.43 1135.17 303.011 1135.58 303.756C1136 304.501 1136.21 305.359 1136.21 306.33V314H1133.87ZM1125.13 314V295.436H1127.47V314H1125.13ZM593.205 347.26C591.991 347.26 590.891 346.974 589.903 346.402C588.932 345.83 588.161 345.059 587.589 344.088C587.034 343.1 586.757 342.008 586.757 340.812C586.757 339.599 587.034 338.507 587.589 337.536C588.161 336.565 588.932 335.803 589.903 335.248C590.891 334.676 591.991 334.39 593.205 334.39C594.158 334.39 595.042 334.572 595.857 334.936C596.671 335.283 597.373 335.794 597.963 336.47L596.403 338.03C596.021 337.579 595.553 337.241 594.999 337.016C594.461 336.773 593.863 336.652 593.205 336.652C592.425 336.652 591.731 336.834 591.125 337.198C590.518 337.545 590.041 338.03 589.695 338.654C589.348 339.278 589.175 339.997 589.175 340.812C589.175 341.627 589.348 342.346 589.695 342.97C590.041 343.594 590.518 344.088 591.125 344.452C591.731 344.816 592.425 344.998 593.205 344.998C593.863 344.998 594.461 344.885 594.999 344.66C595.553 344.417 596.03 344.071 596.429 343.62L597.963 345.18C597.391 345.839 596.689 346.35 595.857 346.714C595.042 347.078 594.158 347.26 593.205 347.26ZM605.671 347.26C604.458 347.26 603.366 346.974 602.395 346.402C601.425 345.83 600.653 345.059 600.081 344.088C599.509 343.1 599.223 341.999 599.223 340.786C599.223 339.59 599.509 338.515 600.081 337.562C600.653 336.591 601.425 335.82 602.395 335.248C603.366 334.676 604.458 334.39 605.671 334.39C606.867 334.39 607.951 334.676 608.921 335.248C609.909 335.803 610.689 336.565 611.261 337.536C611.833 338.507 612.119 339.59 612.119 340.786C612.119 341.999 611.833 343.1 611.261 344.088C610.689 345.059 609.909 345.83 608.921 346.402C607.951 346.974 606.867 347.26 605.671 347.26ZM605.671 344.998C606.451 344.998 607.145 344.816 607.751 344.452C608.358 344.088 608.835 343.594 609.181 342.97C609.528 342.329 609.701 341.601 609.701 340.786C609.701 339.989 609.519 339.278 609.155 338.654C608.809 338.03 608.332 337.545 607.725 337.198C607.136 336.834 606.451 336.652 605.671 336.652C604.891 336.652 604.198 336.834 603.591 337.198C602.985 337.545 602.508 338.03 602.161 338.654C601.815 339.278 601.641 339.989 601.641 340.786C601.641 341.601 601.815 342.329 602.161 342.97C602.508 343.594 602.985 344.088 603.591 344.452C604.198 344.816 604.891 344.998 605.671 344.998ZM623.492 347V339.798C623.492 338.862 623.197 338.091 622.608 337.484C622.019 336.877 621.256 336.574 620.32 336.574C619.696 336.574 619.141 336.713 618.656 336.99C618.171 337.267 617.789 337.649 617.512 338.134C617.235 338.619 617.096 339.174 617.096 339.798L616.134 339.252C616.134 338.316 616.342 337.484 616.758 336.756C617.174 336.028 617.755 335.456 618.5 335.04C619.245 334.607 620.086 334.39 621.022 334.39C621.958 334.39 622.781 334.624 623.492 335.092C624.22 335.56 624.792 336.175 625.208 336.938C625.624 337.683 625.832 338.481 625.832 339.33V347H623.492ZM614.756 347V334.65H617.096V347H614.756ZM630.746 347V329.476H633.086V347H630.746ZM627.704 336.782V334.65H636.128V336.782H627.704ZM643.759 347.26C642.529 347.26 641.419 346.983 640.431 346.428C639.443 345.856 638.663 345.085 638.091 344.114C637.519 343.143 637.233 342.043 637.233 340.812C637.233 339.599 637.511 338.507 638.065 337.536C638.637 336.565 639.4 335.803 640.353 335.248C641.324 334.676 642.407 334.39 643.603 334.39C644.747 334.39 645.753 334.65 646.619 335.17C647.503 335.69 648.188 336.409 648.673 337.328C649.176 338.247 649.427 339.287 649.427 340.448C649.427 340.621 649.419 340.812 649.401 341.02C649.384 341.211 649.349 341.436 649.297 341.696H638.871V339.746H648.049L647.191 340.5C647.191 339.668 647.044 338.966 646.749 338.394C646.455 337.805 646.039 337.354 645.501 337.042C644.964 336.713 644.314 336.548 643.551 336.548C642.754 336.548 642.052 336.721 641.445 337.068C640.839 337.415 640.371 337.9 640.041 338.524C639.712 339.148 639.547 339.885 639.547 340.734C639.547 341.601 639.721 342.363 640.067 343.022C640.414 343.663 640.908 344.166 641.549 344.53C642.191 344.877 642.927 345.05 643.759 345.05C644.453 345.05 645.085 344.929 645.657 344.686C646.247 344.443 646.749 344.079 647.165 343.594L648.673 345.128C648.084 345.821 647.356 346.35 646.489 346.714C645.64 347.078 644.73 347.26 643.759 347.26ZM660.715 347V339.798C660.715 338.862 660.42 338.091 659.831 337.484C659.241 336.877 658.479 336.574 657.543 336.574C656.919 336.574 656.364 336.713 655.879 336.99C655.393 337.267 655.012 337.649 654.735 338.134C654.457 338.619 654.319 339.174 654.319 339.798L653.357 339.252C653.357 338.316 653.565 337.484 653.981 336.756C654.397 336.028 654.977 335.456 655.723 335.04C656.468 334.607 657.309 334.39 658.245 334.39C659.181 334.39 660.004 334.624 660.715 335.092C661.443 335.56 662.015 336.175 662.431 336.938C662.847 337.683 663.055 338.481 663.055 339.33V347H660.715ZM651.979 347V334.65H654.319V347H651.979ZM667.968 347V329.476H670.308V347H667.968ZM664.926 336.782V334.65H673.35V336.782H664.926ZM686.303 347.26C685.176 347.26 684.154 346.983 683.235 346.428C682.316 345.856 681.588 345.085 681.051 344.114C680.531 343.143 680.271 342.051 680.271 340.838C680.271 339.625 680.531 338.533 681.051 337.562C681.588 336.591 682.308 335.82 683.209 335.248C684.128 334.676 685.159 334.39 686.303 334.39C687.239 334.39 688.071 334.589 688.799 334.988C689.544 335.369 690.142 335.907 690.593 336.6C691.044 337.276 691.295 338.065 691.347 338.966V342.684C691.295 343.568 691.044 344.357 690.593 345.05C690.16 345.743 689.57 346.289 688.825 346.688C688.097 347.069 687.256 347.26 686.303 347.26ZM686.693 345.05C687.854 345.05 688.79 344.66 689.501 343.88C690.212 343.083 690.567 342.069 690.567 340.838C690.567 339.989 690.402 339.252 690.073 338.628C689.761 337.987 689.31 337.493 688.721 337.146C688.132 336.782 687.447 336.6 686.667 336.6C685.887 336.6 685.194 336.782 684.587 337.146C683.998 337.51 683.53 338.013 683.183 338.654C682.854 339.278 682.689 339.997 682.689 340.812C682.689 341.644 682.854 342.381 683.183 343.022C683.53 343.646 684.006 344.14 684.613 344.504C685.22 344.868 685.913 345.05 686.693 345.05ZM690.411 347V343.672L690.853 340.656L690.411 337.666V334.65H692.777V347H690.411ZM704.92 347V339.798C704.92 338.862 704.625 338.091 704.036 337.484C703.446 336.877 702.684 336.574 701.748 336.574C701.124 336.574 700.569 336.713 700.084 336.99C699.598 337.267 699.217 337.649 698.94 338.134C698.662 338.619 698.524 339.174 698.524 339.798L697.562 339.252C697.562 338.316 697.77 337.484 698.186 336.756C698.602 336.028 699.182 335.456 699.928 335.04C700.673 334.607 701.514 334.39 702.45 334.39C703.386 334.39 704.209 334.624 704.92 335.092C705.648 335.56 706.22 336.175 706.636 336.938C707.052 337.683 707.26 338.481 707.26 339.33V347H704.92ZM696.184 347V334.65H698.524V347H696.184ZM715.654 347.26C714.51 347.26 713.487 346.983 712.586 346.428C711.685 345.856 710.965 345.085 710.428 344.114C709.908 343.143 709.648 342.051 709.648 340.838C709.648 339.625 709.908 338.533 710.428 337.562C710.965 336.591 711.685 335.82 712.586 335.248C713.487 334.676 714.51 334.39 715.654 334.39C716.573 334.39 717.405 334.589 718.15 334.988C718.895 335.369 719.493 335.907 719.944 336.6C720.412 337.276 720.672 338.065 720.724 338.966V342.684C720.672 343.568 720.421 344.357 719.97 345.05C719.519 345.743 718.921 346.289 718.176 346.688C717.431 347.069 716.59 347.26 715.654 347.26ZM716.044 345.05C716.824 345.05 717.5 344.868 718.072 344.504C718.661 344.14 719.121 343.646 719.45 343.022C719.779 342.381 719.944 341.653 719.944 340.838C719.944 339.989 719.771 339.252 719.424 338.628C719.095 338.004 718.635 337.51 718.046 337.146C717.474 336.782 716.798 336.6 716.018 336.6C715.238 336.6 714.553 336.782 713.964 337.146C713.375 337.51 712.907 338.013 712.56 338.654C712.231 339.278 712.066 339.997 712.066 340.812C712.066 341.644 712.231 342.381 712.56 343.022C712.907 343.646 713.375 344.14 713.964 344.504C714.571 344.868 715.264 345.05 716.044 345.05ZM722.154 347H719.788V343.672L720.23 340.656L719.788 337.666V328.436H722.154V347ZM732.737 347V332.414C732.737 331.599 732.91 330.88 733.257 330.256C733.621 329.615 734.124 329.112 734.765 328.748C735.406 328.367 736.143 328.176 736.975 328.176C737.616 328.176 738.18 328.289 738.665 328.514C739.15 328.722 739.601 329.017 740.017 329.398L738.483 330.932C738.258 330.741 738.024 330.603 737.781 330.516C737.538 330.412 737.27 330.36 736.975 330.36C736.368 330.36 735.9 330.551 735.571 330.932C735.242 331.296 735.077 331.79 735.077 332.414V347H732.737ZM729.695 336.782V334.65H741.421V336.782H729.695ZM740.069 347V334.65H742.435V347H740.069ZM741.239 333.35C740.823 333.35 740.476 333.211 740.199 332.934C739.922 332.639 739.783 332.275 739.783 331.842C739.783 331.426 739.922 331.079 740.199 330.802C740.476 330.507 740.823 330.36 741.239 330.36C741.69 330.36 742.045 330.507 742.305 330.802C742.582 331.079 742.721 331.426 742.721 331.842C742.721 332.275 742.582 332.639 742.305 332.934C742.045 333.211 741.69 333.35 741.239 333.35ZM754.609 347V339.798C754.609 338.862 754.315 338.091 753.725 337.484C753.136 336.877 752.373 336.574 751.437 336.574C750.813 336.574 750.259 336.713 749.773 336.99C749.288 337.267 748.907 337.649 748.629 338.134C748.352 338.619 748.213 339.174 748.213 339.798L747.251 339.252C747.251 338.316 747.459 337.484 747.875 336.756C748.291 336.028 748.872 335.456 749.617 335.04C750.363 334.607 751.203 334.39 752.139 334.39C753.075 334.39 753.899 334.624 754.609 335.092C755.337 335.56 755.909 336.175 756.325 336.938C756.741 337.683 756.949 338.481 756.949 339.33V347H754.609ZM745.873 347V334.65H748.213V347H745.873ZM765.369 347.26C764.243 347.26 763.22 346.983 762.301 346.428C761.383 345.856 760.655 345.085 760.117 344.114C759.597 343.143 759.337 342.051 759.337 340.838C759.337 339.625 759.597 338.533 760.117 337.562C760.655 336.591 761.374 335.82 762.275 335.248C763.194 334.676 764.225 334.39 765.369 334.39C766.305 334.39 767.137 334.589 767.865 334.988C768.611 335.369 769.209 335.907 769.659 336.6C770.11 337.276 770.361 338.065 770.413 338.966V342.684C770.361 343.568 770.11 344.357 769.659 345.05C769.226 345.743 768.637 346.289 767.891 346.688C767.163 347.069 766.323 347.26 765.369 347.26ZM765.759 345.05C766.921 345.05 767.857 344.66 768.567 343.88C769.278 343.083 769.633 342.069 769.633 340.838C769.633 339.989 769.469 339.252 769.139 338.628C768.827 337.987 768.377 337.493 767.787 337.146C767.198 336.782 766.513 336.6 765.733 336.6C764.953 336.6 764.26 336.782 763.653 337.146C763.064 337.51 762.596 338.013 762.249 338.654C761.92 339.278 761.755 339.997 761.755 340.812C761.755 341.644 761.92 342.381 762.249 343.022C762.596 343.646 763.073 344.14 763.679 344.504C764.286 344.868 764.979 345.05 765.759 345.05ZM769.477 347V343.672L769.919 340.656L769.477 337.666V334.65H771.843V347H769.477ZM775.25 347V328.436H777.59V347H775.25ZM781.014 347V328.436H783.354V347H781.014ZM790.834 347.104L785.478 334.65H788.078L792.056 344.4H791.224L795.41 334.65H798.01L792.238 347.104H790.834ZM787.298 352.174L790.938 344.712L792.238 347.104L789.898 352.174H787.298ZM810.767 347.26C809.623 347.26 808.601 346.983 807.699 346.428C806.798 345.856 806.079 345.085 805.541 344.114C805.021 343.143 804.761 342.051 804.761 340.838C804.761 339.625 805.021 338.533 805.541 337.562C806.079 336.591 806.798 335.82 807.699 335.248C808.601 334.676 809.623 334.39 810.767 334.39C811.686 334.39 812.518 334.589 813.263 334.988C814.009 335.369 814.607 335.907 815.057 336.6C815.525 337.276 815.785 338.065 815.837 338.966V342.684C815.785 343.568 815.534 344.357 815.083 345.05C814.633 345.743 814.035 346.289 813.289 346.688C812.544 347.069 811.703 347.26 810.767 347.26ZM811.157 345.05C811.937 345.05 812.613 344.868 813.185 344.504C813.775 344.14 814.234 343.646 814.563 343.022C814.893 342.381 815.057 341.653 815.057 340.838C815.057 339.989 814.884 339.252 814.537 338.628C814.208 338.004 813.749 337.51 813.159 337.146C812.587 336.782 811.911 336.6 811.131 336.6C810.351 336.6 809.667 336.782 809.077 337.146C808.488 337.51 808.02 338.013 807.673 338.654C807.344 339.278 807.179 339.997 807.179 340.812C807.179 341.644 807.344 342.381 807.673 343.022C808.02 343.646 808.488 344.14 809.077 344.504C809.684 344.868 810.377 345.05 811.157 345.05ZM817.267 347H814.901V343.672L815.343 340.656L814.901 337.666V328.436H817.267V347ZM826.394 347.26C825.163 347.26 824.054 346.983 823.066 346.428C822.078 345.856 821.298 345.085 820.726 344.114C820.154 343.143 819.868 342.043 819.868 340.812C819.868 339.599 820.145 338.507 820.7 337.536C821.272 336.565 822.035 335.803 822.988 335.248C823.959 334.676 825.042 334.39 826.238 334.39C827.382 334.39 828.387 334.65 829.254 335.17C830.138 335.69 830.823 336.409 831.308 337.328C831.811 338.247 832.062 339.287 832.062 340.448C832.062 340.621 832.053 340.812 832.036 341.02C832.019 341.211 831.984 341.436 831.932 341.696H821.506V339.746H830.684L829.826 340.5C829.826 339.668 829.679 338.966 829.384 338.394C829.089 337.805 828.673 337.354 828.136 337.042C827.599 336.713 826.949 336.548 826.186 336.548C825.389 336.548 824.687 336.721 824.08 337.068C823.473 337.415 823.005 337.9 822.676 338.524C822.347 339.148 822.182 339.885 822.182 340.734C822.182 341.601 822.355 342.363 822.702 343.022C823.049 343.663 823.543 344.166 824.184 344.53C824.825 344.877 825.562 345.05 826.394 345.05C827.087 345.05 827.72 344.929 828.292 344.686C828.881 344.443 829.384 344.079 829.8 343.594L831.308 345.128C830.719 345.821 829.991 346.35 829.124 346.714C828.275 347.078 827.365 347.26 826.394 347.26ZM838.648 347L832.98 334.65H835.58L840.13 345.076H838.622L843.198 334.65H845.694L840.026 347H838.648ZM852.927 347.26C851.697 347.26 850.587 346.983 849.599 346.428C848.611 345.856 847.831 345.085 847.259 344.114C846.687 343.143 846.401 342.043 846.401 340.812C846.401 339.599 846.679 338.507 847.233 337.536C847.805 336.565 848.568 335.803 849.521 335.248C850.492 334.676 851.575 334.39 852.771 334.39C853.915 334.39 854.921 334.65 855.787 335.17C856.671 335.69 857.356 336.409 857.841 337.328C858.344 338.247 858.595 339.287 858.595 340.448C858.595 340.621 858.587 340.812 858.569 341.02C858.552 341.211 858.517 341.436 858.465 341.696H848.039V339.746H857.217L856.359 340.5C856.359 339.668 856.212 338.966 855.917 338.394C855.623 337.805 855.207 337.354 854.669 337.042C854.132 336.713 853.482 336.548 852.719 336.548C851.922 336.548 851.22 336.721 850.613 337.068C850.007 337.415 849.539 337.9 849.209 338.524C848.88 339.148 848.715 339.885 848.715 340.734C848.715 341.601 848.889 342.363 849.235 343.022C849.582 343.663 850.076 344.166 850.717 344.53C851.359 344.877 852.095 345.05 852.927 345.05C853.621 345.05 854.253 344.929 854.825 344.686C855.415 344.443 855.917 344.079 856.333 343.594L857.841 345.128C857.252 345.821 856.524 346.35 855.657 346.714C854.808 347.078 853.898 347.26 852.927 347.26ZM861.147 347V328.436H863.487V347H861.147ZM872.552 347.26C871.339 347.26 870.247 346.974 869.276 346.402C868.306 345.83 867.534 345.059 866.962 344.088C866.39 343.1 866.104 341.999 866.104 340.786C866.104 339.59 866.39 338.515 866.962 337.562C867.534 336.591 868.306 335.82 869.276 335.248C870.247 334.676 871.339 334.39 872.552 334.39C873.748 334.39 874.832 334.676 875.802 335.248C876.79 335.803 877.57 336.565 878.142 337.536C878.714 338.507 879 339.59 879 340.786C879 341.999 878.714 343.1 878.142 344.088C877.57 345.059 876.79 345.83 875.802 346.402C874.832 346.974 873.748 347.26 872.552 347.26ZM872.552 344.998C873.332 344.998 874.026 344.816 874.632 344.452C875.239 344.088 875.716 343.594 876.062 342.97C876.409 342.329 876.582 341.601 876.582 340.786C876.582 339.989 876.4 339.278 876.036 338.654C875.69 338.03 875.213 337.545 874.606 337.198C874.017 336.834 873.332 336.652 872.552 336.652C871.772 336.652 871.079 336.834 870.472 337.198C869.866 337.545 869.389 338.03 869.042 338.654C868.696 339.278 868.522 339.989 868.522 340.786C868.522 341.601 868.696 342.329 869.042 342.97C869.389 343.594 869.866 344.088 870.472 344.452C871.079 344.816 871.772 344.998 872.552 344.998ZM888.137 347.26C887.201 347.26 886.352 347.069 885.589 346.688C884.844 346.289 884.246 345.743 883.795 345.05C883.344 344.357 883.093 343.568 883.041 342.684V338.966C883.093 338.065 883.344 337.276 883.795 336.6C884.263 335.907 884.87 335.369 885.615 334.988C886.378 334.589 887.218 334.39 888.137 334.39C889.264 334.39 890.278 334.676 891.179 335.248C892.098 335.82 892.817 336.591 893.337 337.562C893.857 338.533 894.117 339.625 894.117 340.838C894.117 342.051 893.857 343.143 893.337 344.114C892.817 345.085 892.098 345.856 891.179 346.428C890.278 346.983 889.264 347.26 888.137 347.26ZM887.747 345.05C888.527 345.05 889.212 344.868 889.801 344.504C890.39 344.14 890.858 343.646 891.205 343.022C891.552 342.381 891.725 341.644 891.725 340.812C891.725 339.997 891.552 339.269 891.205 338.628C890.858 337.987 890.39 337.493 889.801 337.146C889.212 336.782 888.536 336.6 887.773 336.6C886.993 336.6 886.308 336.782 885.719 337.146C885.13 337.493 884.67 337.987 884.341 338.628C884.012 339.269 883.847 340.006 883.847 340.838C883.847 341.653 884.003 342.381 884.315 343.022C884.644 343.646 885.104 344.14 885.693 344.504C886.3 344.868 886.984 345.05 887.747 345.05ZM881.637 352.174V334.65H883.977V337.9L883.535 340.89L883.977 343.906V352.174H881.637ZM902.204 347V334.65H904.544V347H902.204ZM903.374 332.18C902.941 332.18 902.585 332.041 902.308 331.764C902.031 331.469 901.892 331.105 901.892 330.672C901.892 330.256 902.031 329.909 902.308 329.632C902.585 329.337 902.941 329.19 903.374 329.19C903.807 329.19 904.163 329.337 904.44 329.632C904.717 329.909 904.856 330.256 904.856 330.672C904.856 331.105 904.717 331.469 904.44 331.764C904.163 332.041 903.807 332.18 903.374 332.18ZM909.89 347V329.476H912.23V347H909.89ZM906.848 336.782V334.65H915.272V336.782H906.848ZM916.806 349.86L918.418 346.766L919.25 346.558C919.163 346.749 919.051 346.905 918.912 347.026C918.791 347.147 918.635 347.208 918.444 347.208C918.08 347.208 917.742 347.061 917.43 346.766C917.135 346.454 916.988 346.073 916.988 345.622C916.988 345.119 917.153 344.703 917.482 344.374C917.811 344.027 918.227 343.854 918.73 343.854C919.181 343.854 919.579 344.027 919.926 344.374C920.273 344.703 920.446 345.119 920.446 345.622C920.446 345.813 920.403 346.047 920.316 346.324C920.247 346.584 920.099 346.922 919.874 347.338L918.158 350.588L916.806 349.86ZM932.78 347L927.892 334.65H930.336L933.872 344.27H933.092L936.602 334.65H937.954L941.464 344.27H940.684L944.22 334.65H946.664L941.802 347H940.424L936.862 337.666H937.72L934.132 347H932.78ZM954.109 347.26C952.878 347.26 951.769 346.983 950.781 346.428C949.793 345.856 949.013 345.085 948.441 344.114C947.869 343.143 947.583 342.043 947.583 340.812C947.583 339.599 947.86 338.507 948.415 337.536C948.987 336.565 949.75 335.803 950.703 335.248C951.674 334.676 952.757 334.39 953.953 334.39C955.097 334.39 956.102 334.65 956.969 335.17C957.853 335.69 958.538 336.409 959.023 337.328C959.526 338.247 959.777 339.287 959.777 340.448C959.777 340.621 959.768 340.812 959.751 341.02C959.734 341.211 959.699 341.436 959.647 341.696H949.221V339.746H958.399L957.541 340.5C957.541 339.668 957.394 338.966 957.099 338.394C956.804 337.805 956.388 337.354 955.851 337.042C955.314 336.713 954.664 336.548 953.901 336.548C953.104 336.548 952.402 336.721 951.795 337.068C951.188 337.415 950.72 337.9 950.391 338.524C950.062 339.148 949.897 339.885 949.897 340.734C949.897 341.601 950.07 342.363 950.417 343.022C950.764 343.663 951.258 344.166 951.899 344.53C952.54 344.877 953.277 345.05 954.109 345.05C954.802 345.05 955.435 344.929 956.007 344.686C956.596 344.443 957.099 344.079 957.515 343.594L959.023 345.128C958.434 345.821 957.706 346.35 956.839 346.714C955.99 347.078 955.08 347.26 954.109 347.26ZM969.505 347V332.804C969.505 331.885 969.704 331.088 970.103 330.412C970.501 329.719 971.047 329.173 971.741 328.774C972.451 328.375 973.275 328.176 974.211 328.176C974.921 328.176 975.537 328.297 976.057 328.54C976.577 328.783 977.053 329.138 977.487 329.606L975.953 331.114C975.727 330.871 975.476 330.689 975.199 330.568C974.921 330.429 974.583 330.36 974.185 330.36C973.439 330.36 972.859 330.577 972.443 331.01C972.044 331.443 971.845 332.041 971.845 332.804V347H969.505ZM966.463 336.782V334.65H975.771V336.782H966.463ZM983.052 347.26C981.839 347.26 980.747 346.974 979.776 346.402C978.806 345.83 978.034 345.059 977.462 344.088C976.89 343.1 976.604 341.999 976.604 340.786C976.604 339.59 976.89 338.515 977.462 337.562C978.034 336.591 978.806 335.82 979.776 335.248C980.747 334.676 981.839 334.39 983.052 334.39C984.248 334.39 985.332 334.676 986.302 335.248C987.29 335.803 988.07 336.565 988.642 337.536C989.214 338.507 989.5 339.59 989.5 340.786C989.5 341.999 989.214 343.1 988.642 344.088C988.07 345.059 987.29 345.83 986.302 346.402C985.332 346.974 984.248 347.26 983.052 347.26ZM983.052 344.998C983.832 344.998 984.526 344.816 985.132 344.452C985.739 344.088 986.216 343.594 986.562 342.97C986.909 342.329 987.082 341.601 987.082 340.786C987.082 339.989 986.9 339.278 986.536 338.654C986.19 338.03 985.713 337.545 985.106 337.198C984.517 336.834 983.832 336.652 983.052 336.652C982.272 336.652 981.579 336.834 980.972 337.198C980.366 337.545 979.889 338.03 979.542 338.654C979.196 339.278 979.022 339.989 979.022 340.786C979.022 341.601 979.196 342.329 979.542 342.97C979.889 343.594 980.366 344.088 980.972 344.452C981.579 344.816 982.272 344.998 983.052 344.998ZM997.779 347.26C996.566 347.26 995.465 346.974 994.477 346.402C993.506 345.83 992.735 345.059 992.163 344.088C991.608 343.1 991.331 342.008 991.331 340.812C991.331 339.599 991.608 338.507 992.163 337.536C992.735 336.565 993.506 335.803 994.477 335.248C995.465 334.676 996.566 334.39 997.779 334.39C998.732 334.39 999.616 334.572 1000.43 334.936C1001.25 335.283 1001.95 335.794 1002.54 336.47L1000.98 338.03C1000.6 337.579 1000.13 337.241 999.573 337.016C999.036 336.773 998.438 336.652 997.779 336.652C996.999 336.652 996.306 336.834 995.699 337.198C995.092 337.545 994.616 338.03 994.269 338.654C993.922 339.278 993.749 339.997 993.749 340.812C993.749 341.627 993.922 342.346 994.269 342.97C994.616 343.594 995.092 344.088 995.699 344.452C996.306 344.816 996.999 344.998 997.779 344.998C998.438 344.998 999.036 344.885 999.573 344.66C1000.13 344.417 1000.6 344.071 1001 343.62L1002.54 345.18C1001.96 345.839 1001.26 346.35 1000.43 346.714C999.616 347.078 998.732 347.26 997.779 347.26ZM1009.82 347.26C1008.82 347.26 1007.91 347.035 1007.09 346.584C1006.3 346.116 1005.67 345.475 1005.22 344.66C1004.77 343.845 1004.55 342.901 1004.55 341.826V334.65H1006.89V341.722C1006.89 342.398 1007 342.987 1007.22 343.49C1007.47 343.975 1007.81 344.348 1008.26 344.608C1008.71 344.868 1009.24 344.998 1009.85 344.998C1010.77 344.998 1011.49 344.712 1012.01 344.14C1012.53 343.551 1012.79 342.745 1012.79 341.722V334.65H1015.13V341.826C1015.13 342.901 1014.9 343.845 1014.45 344.66C1014 345.475 1013.38 346.116 1012.58 346.584C1011.8 347.035 1010.88 347.26 1009.82 347.26ZM1022.19 347.26C1021.5 347.26 1020.84 347.173 1020.21 347C1019.61 346.809 1019.04 346.549 1018.52 346.22C1018 345.873 1017.55 345.466 1017.17 344.998L1018.68 343.49C1019.13 344.045 1019.65 344.461 1020.24 344.738C1020.83 344.998 1021.49 345.128 1022.22 345.128C1022.94 345.128 1023.51 345.007 1023.91 344.764C1024.3 344.504 1024.5 344.149 1024.5 343.698C1024.5 343.247 1024.34 342.901 1024.01 342.658C1023.7 342.398 1023.29 342.19 1022.79 342.034C1022.29 341.861 1021.75 341.696 1021.18 341.54C1020.62 341.367 1020.09 341.15 1019.59 340.89C1019.09 340.63 1018.67 340.275 1018.34 339.824C1018.03 339.373 1017.87 338.775 1017.87 338.03C1017.87 337.285 1018.06 336.643 1018.42 336.106C1018.78 335.551 1019.29 335.127 1019.93 334.832C1020.59 334.537 1021.38 334.39 1022.29 334.39C1023.26 334.39 1024.12 334.563 1024.87 334.91C1025.63 335.239 1026.25 335.742 1026.74 336.418L1025.23 337.926C1024.89 337.475 1024.45 337.129 1023.93 336.886C1023.43 336.643 1022.86 336.522 1022.22 336.522C1021.54 336.522 1021.02 336.643 1020.66 336.886C1020.31 337.111 1020.14 337.432 1020.14 337.848C1020.14 338.264 1020.29 338.585 1020.6 338.81C1020.92 339.035 1021.32 339.226 1021.83 339.382C1022.35 339.538 1022.88 339.703 1023.44 339.876C1023.99 340.032 1024.52 340.249 1025.02 340.526C1025.53 340.803 1025.93 341.176 1026.25 341.644C1026.58 342.112 1026.74 342.727 1026.74 343.49C1026.74 344.651 1026.32 345.57 1025.49 346.246C1024.68 346.922 1023.58 347.26 1022.19 347.26ZM1035.08 347.26C1033.85 347.26 1032.74 346.983 1031.75 346.428C1030.76 345.856 1029.98 345.085 1029.41 344.114C1028.84 343.143 1028.55 342.043 1028.55 340.812C1028.55 339.599 1028.83 338.507 1029.39 337.536C1029.96 336.565 1030.72 335.803 1031.67 335.248C1032.64 334.676 1033.73 334.39 1034.92 334.39C1036.07 334.39 1037.07 334.65 1037.94 335.17C1038.82 335.69 1039.51 336.409 1039.99 337.328C1040.5 338.247 1040.75 339.287 1040.75 340.448C1040.75 340.621 1040.74 340.812 1040.72 341.02C1040.7 341.211 1040.67 341.436 1040.62 341.696H1030.19V339.746H1039.37L1038.51 340.5C1038.51 339.668 1038.36 338.966 1038.07 338.394C1037.77 337.805 1037.36 337.354 1036.82 337.042C1036.28 336.713 1035.63 336.548 1034.87 336.548C1034.07 336.548 1033.37 336.721 1032.77 337.068C1032.16 337.415 1031.69 337.9 1031.36 338.524C1031.03 339.148 1030.87 339.885 1030.87 340.734C1030.87 341.601 1031.04 342.363 1031.39 343.022C1031.73 343.663 1032.23 344.166 1032.87 344.53C1033.51 344.877 1034.25 345.05 1035.08 345.05C1035.77 345.05 1036.41 344.929 1036.98 344.686C1037.57 344.443 1038.07 344.079 1038.49 343.594L1039.99 345.128C1039.4 345.821 1038.68 346.35 1037.81 346.714C1036.96 347.078 1036.05 347.26 1035.08 347.26ZM1048.53 347.26C1047.38 347.26 1046.36 346.983 1045.46 346.428C1044.56 345.856 1043.84 345.085 1043.3 344.114C1042.78 343.143 1042.52 342.051 1042.52 340.838C1042.52 339.625 1042.78 338.533 1043.3 337.562C1043.84 336.591 1044.56 335.82 1045.46 335.248C1046.36 334.676 1047.38 334.39 1048.53 334.39C1049.44 334.39 1050.28 334.589 1051.02 334.988C1051.77 335.369 1052.36 335.907 1052.82 336.6C1053.28 337.276 1053.54 338.065 1053.6 338.966V342.684C1053.54 343.568 1053.29 344.357 1052.84 345.05C1052.39 345.743 1051.79 346.289 1051.05 346.688C1050.3 347.069 1049.46 347.26 1048.53 347.26ZM1048.92 345.05C1049.7 345.05 1050.37 344.868 1050.94 344.504C1051.53 344.14 1051.99 343.646 1052.32 343.022C1052.65 342.381 1052.82 341.653 1052.82 340.838C1052.82 339.989 1052.64 339.252 1052.3 338.628C1051.97 338.004 1051.51 337.51 1050.92 337.146C1050.35 336.782 1049.67 336.6 1048.89 336.6C1048.11 336.6 1047.42 336.782 1046.84 337.146C1046.25 337.51 1045.78 338.013 1045.43 338.654C1045.1 339.278 1044.94 339.997 1044.94 340.812C1044.94 341.644 1045.1 342.381 1045.43 343.022C1045.78 343.646 1046.25 344.14 1046.84 344.504C1047.44 344.868 1048.14 345.05 1048.92 345.05ZM1055.03 347H1052.66V343.672L1053.1 340.656L1052.66 337.666V328.436H1055.03V347ZM1069.48 347.26C1068.27 347.26 1067.18 346.974 1066.21 346.402C1065.24 345.83 1064.46 345.059 1063.89 344.088C1063.32 343.1 1063.03 341.999 1063.03 340.786C1063.03 339.59 1063.32 338.515 1063.89 337.562C1064.46 336.591 1065.24 335.82 1066.21 335.248C1067.18 334.676 1068.27 334.39 1069.48 334.39C1070.68 334.39 1071.76 334.676 1072.73 335.248C1073.72 335.803 1074.5 336.565 1075.07 337.536C1075.64 338.507 1075.93 339.59 1075.93 340.786C1075.93 341.999 1075.64 343.1 1075.07 344.088C1074.5 345.059 1073.72 345.83 1072.73 346.402C1071.76 346.974 1070.68 347.26 1069.48 347.26ZM1069.48 344.998C1070.26 344.998 1070.96 344.816 1071.56 344.452C1072.17 344.088 1072.65 343.594 1072.99 342.97C1073.34 342.329 1073.51 341.601 1073.51 340.786C1073.51 339.989 1073.33 339.278 1072.97 338.654C1072.62 338.03 1072.14 337.545 1071.54 337.198C1070.95 336.834 1070.26 336.652 1069.48 336.652C1068.7 336.652 1068.01 336.834 1067.4 337.198C1066.8 337.545 1066.32 338.03 1065.97 338.654C1065.63 339.278 1065.45 339.989 1065.45 340.786C1065.45 341.601 1065.63 342.329 1065.97 342.97C1066.32 343.594 1066.8 344.088 1067.4 344.452C1068.01 344.816 1068.7 344.998 1069.48 344.998ZM1087.3 347V339.798C1087.3 338.862 1087.01 338.091 1086.42 337.484C1085.83 336.877 1085.07 336.574 1084.13 336.574C1083.51 336.574 1082.95 336.713 1082.47 336.99C1081.98 337.267 1081.6 337.649 1081.32 338.134C1081.05 338.619 1080.91 339.174 1080.91 339.798L1079.94 339.252C1079.94 338.316 1080.15 337.484 1080.57 336.756C1080.98 336.028 1081.57 335.456 1082.31 335.04C1083.06 334.607 1083.9 334.39 1084.83 334.39C1085.77 334.39 1086.59 334.624 1087.3 335.092C1088.03 335.56 1088.6 336.175 1089.02 336.938C1089.43 337.683 1089.64 338.481 1089.64 339.33V347H1087.3ZM1078.57 347V334.65H1080.91V347H1078.57ZM1094.6 347.26C1094.12 347.26 1093.71 347.095 1093.38 346.766C1093.07 346.419 1092.91 346.021 1092.91 345.57C1092.91 345.067 1093.07 344.66 1093.38 344.348C1093.71 344.019 1094.12 343.854 1094.6 343.854C1095.09 343.854 1095.49 344.019 1095.8 344.348C1096.13 344.66 1096.29 345.067 1096.29 345.57C1096.29 346.021 1096.13 346.419 1095.8 346.766C1095.49 347.095 1095.09 347.26 1094.6 347.26ZM1094.6 339.148C1094.12 339.148 1093.71 338.983 1093.38 338.654C1093.07 338.325 1092.91 337.926 1092.91 337.458C1092.91 336.955 1093.07 336.548 1093.38 336.236C1093.71 335.907 1094.12 335.742 1094.6 335.742C1095.09 335.742 1095.49 335.907 1095.8 336.236C1096.13 336.548 1096.29 336.955 1096.29 337.458C1096.29 337.926 1096.13 338.325 1095.8 338.654C1095.49 338.983 1095.09 339.148 1094.6 339.148ZM770.82 413.26C769.399 413.26 768.185 413 767.18 412.48C766.175 411.96 765.282 411.206 764.502 410.218L766.166 408.554C766.738 409.351 767.397 409.958 768.142 410.374C768.887 410.773 769.806 410.972 770.898 410.972C771.973 410.972 772.831 410.738 773.472 410.27C774.131 409.802 774.46 409.161 774.46 408.346C774.46 407.67 774.304 407.124 773.992 406.708C773.68 406.292 773.255 405.954 772.718 405.694C772.198 405.417 771.626 405.174 771.002 404.966C770.378 404.741 769.754 404.507 769.13 404.264C768.506 404.004 767.934 403.692 767.414 403.328C766.894 402.947 766.469 402.453 766.14 401.846C765.828 401.239 765.672 400.477 765.672 399.558C765.672 398.535 765.915 397.669 766.4 396.958C766.903 396.23 767.579 395.675 768.428 395.294C769.295 394.895 770.265 394.696 771.34 394.696C772.519 394.696 773.576 394.93 774.512 395.398C775.448 395.849 776.211 396.447 776.8 397.192L775.136 398.856C774.599 398.232 774.018 397.764 773.394 397.452C772.787 397.14 772.085 396.984 771.288 396.984C770.317 396.984 769.546 397.201 768.974 397.634C768.402 398.05 768.116 398.639 768.116 399.402C768.116 400.009 768.272 400.503 768.584 400.884C768.913 401.248 769.338 401.56 769.858 401.82C770.378 402.08 770.95 402.323 771.574 402.548C772.215 402.756 772.848 402.99 773.472 403.25C774.096 403.51 774.668 403.839 775.188 404.238C775.708 404.637 776.124 405.157 776.436 405.798C776.765 406.422 776.93 407.211 776.93 408.164C776.93 409.759 776.375 411.007 775.266 411.908C774.174 412.809 772.692 413.26 770.82 413.26ZM784.547 413L778.645 394.956H781.089L785.769 409.672H785.067L789.669 394.956H791.437L796.039 409.672H795.363L800.043 394.956H802.461L796.585 413H794.843L790.215 398.31H790.891L786.289 413H784.547ZM805.462 413V394.956H807.906V413H805.462ZM807.126 413V410.764H817.474V413H807.126ZM807.126 404.836V402.704H816.616V404.836H807.126ZM807.126 397.192V394.956H817.344V397.192H807.126ZM820.798 413V394.956H823.242V413H820.798ZM822.462 413V410.764H832.81V413H822.462ZM822.462 404.836V402.704H831.952V404.836H822.462ZM822.462 397.192V394.956H832.68V397.192H822.462ZM840.232 413V395.476H842.676V413H840.232ZM834.096 397.192V394.956H848.786V397.192H834.096ZM861.718 413.26C860.297 413.26 859.084 413 858.078 412.48C857.073 411.96 856.18 411.206 855.4 410.218L857.064 408.554C857.636 409.351 858.295 409.958 859.04 410.374C859.786 410.773 860.704 410.972 861.796 410.972C862.871 410.972 863.729 410.738 864.37 410.27C865.029 409.802 865.358 409.161 865.358 408.346C865.358 407.67 865.202 407.124 864.89 406.708C864.578 406.292 864.154 405.954 863.616 405.694C863.096 405.417 862.524 405.174 861.9 404.966C861.276 404.741 860.652 404.507 860.028 404.264C859.404 404.004 858.832 403.692 858.312 403.328C857.792 402.947 857.368 402.453 857.038 401.846C856.726 401.239 856.57 400.477 856.57 399.558C856.57 398.535 856.813 397.669 857.298 396.958C857.801 396.23 858.477 395.675 859.326 395.294C860.193 394.895 861.164 394.696 862.238 394.696C863.417 394.696 864.474 394.93 865.41 395.398C866.346 395.849 867.109 396.447 867.698 397.192L866.034 398.856C865.497 398.232 864.916 397.764 864.292 397.452C863.686 397.14 862.984 396.984 862.186 396.984C861.216 396.984 860.444 397.201 859.872 397.634C859.3 398.05 859.014 398.639 859.014 399.402C859.014 400.009 859.17 400.503 859.482 400.884C859.812 401.248 860.236 401.56 860.756 401.82C861.276 402.08 861.848 402.323 862.472 402.548C863.114 402.756 863.746 402.99 864.37 403.25C864.994 403.51 865.566 403.839 866.086 404.238C866.606 404.637 867.022 405.157 867.334 405.798C867.664 406.422 867.828 407.211 867.828 408.164C867.828 409.759 867.274 411.007 866.164 411.908C865.072 412.809 863.59 413.26 861.718 413.26ZM872.76 405.98V403.848H877.674C878.35 403.848 878.948 403.709 879.468 403.432C880.006 403.155 880.422 402.765 880.716 402.262C881.028 401.759 881.184 401.161 881.184 400.468C881.184 399.775 881.028 399.177 880.716 398.674C880.422 398.171 880.006 397.781 879.468 397.504C878.948 397.227 878.35 397.088 877.674 397.088H872.76V394.956H877.83C878.94 394.956 879.928 395.181 880.794 395.632C881.678 396.083 882.372 396.724 882.874 397.556C883.394 398.371 883.654 399.341 883.654 400.468C883.654 401.577 883.394 402.548 882.874 403.38C882.372 404.195 881.678 404.836 880.794 405.304C879.928 405.755 878.94 405.98 877.83 405.98H872.76ZM871.122 413V394.956H873.566V413H871.122ZM895.106 413.26C893.823 413.26 892.627 413.026 891.518 412.558C890.408 412.073 889.438 411.405 888.606 410.556C887.774 409.689 887.124 408.693 886.656 407.566C886.205 406.439 885.98 405.235 885.98 403.952C885.98 402.652 886.205 401.447 886.656 400.338C887.124 399.211 887.765 398.223 888.58 397.374C889.412 396.525 890.374 395.866 891.466 395.398C892.575 394.93 893.771 394.696 895.054 394.696C896.336 394.696 897.524 394.93 898.616 395.398C899.725 395.866 900.696 396.525 901.528 397.374C902.36 398.223 903.01 399.211 903.478 400.338C903.946 401.465 904.18 402.678 904.18 403.978C904.18 405.261 903.946 406.465 903.478 407.592C903.01 408.719 902.36 409.707 901.528 410.556C900.713 411.405 899.751 412.073 898.642 412.558C897.55 413.026 896.371 413.26 895.106 413.26ZM895.054 410.92C896.354 410.92 897.489 410.625 898.46 410.036C899.448 409.429 900.228 408.606 900.8 407.566C901.372 406.509 901.658 405.304 901.658 403.952C901.658 402.947 901.493 402.028 901.164 401.196C900.834 400.347 900.375 399.61 899.786 398.986C899.196 398.362 898.503 397.885 897.706 397.556C896.908 397.209 896.024 397.036 895.054 397.036C893.771 397.036 892.636 397.331 891.648 397.92C890.677 398.509 889.906 399.324 889.334 400.364C888.779 401.404 888.502 402.6 888.502 403.952C888.502 404.957 888.658 405.893 888.97 406.76C889.299 407.609 889.75 408.346 890.322 408.97C890.911 409.577 891.604 410.053 892.402 410.4C893.216 410.747 894.1 410.92 895.054 410.92ZM910.996 413V395.476H913.44V413H910.996ZM904.86 397.192V394.956H919.55V397.192H904.86ZM752.533 446V428.476H754.977V446H752.533ZM746.397 430.192V427.956H761.087V430.192H746.397ZM770.895 446.26C769.612 446.26 768.416 446.026 767.307 445.558C766.198 445.073 765.227 444.405 764.395 443.556C763.563 442.689 762.913 441.693 762.445 440.566C761.994 439.439 761.769 438.235 761.769 436.952C761.769 435.652 761.994 434.447 762.445 433.338C762.913 432.211 763.554 431.223 764.369 430.374C765.201 429.525 766.163 428.866 767.255 428.398C768.364 427.93 769.56 427.696 770.843 427.696C772.126 427.696 773.313 427.93 774.405 428.398C775.514 428.866 776.485 429.525 777.317 430.374C778.149 431.223 778.799 432.211 779.267 433.338C779.735 434.465 779.969 435.678 779.969 436.978C779.969 438.261 779.735 439.465 779.267 440.592C778.799 441.719 778.149 442.707 777.317 443.556C776.502 444.405 775.54 445.073 774.431 445.558C773.339 446.026 772.16 446.26 770.895 446.26ZM770.843 443.92C772.143 443.92 773.278 443.625 774.249 443.036C775.237 442.429 776.017 441.606 776.589 440.566C777.161 439.509 777.447 438.304 777.447 436.952C777.447 435.947 777.282 435.028 776.953 434.196C776.624 433.347 776.164 432.61 775.575 431.986C774.986 431.362 774.292 430.885 773.495 430.556C772.698 430.209 771.814 430.036 770.843 430.036C769.56 430.036 768.425 430.331 767.437 430.92C766.466 431.509 765.695 432.324 765.123 433.364C764.568 434.404 764.291 435.6 764.291 436.952C764.291 437.957 764.447 438.893 764.759 439.76C765.088 440.609 765.539 441.346 766.111 441.97C766.7 442.577 767.394 443.053 768.191 443.4C769.006 443.747 769.89 443.92 770.843 443.92ZM783.321 446V427.956H785.037L785.765 430.79V446H783.321ZM795.801 446L784.725 431.206L785.037 427.956L796.139 442.724L795.801 446ZM795.801 446L795.073 443.322V427.956H797.517V446H795.801ZM801.78 446V427.956H804.224V446H801.78ZM803.444 446V443.764H813.792V446H803.444ZM803.444 437.836V435.704H812.934V437.836H803.444ZM803.444 430.192V427.956H813.662V430.192H803.444ZM830.741 446.26C829.458 446.26 828.262 446.026 827.153 445.558C826.043 445.073 825.073 444.405 824.241 443.556C823.409 442.689 822.759 441.693 822.291 440.566C821.84 439.439 821.615 438.235 821.615 436.952C821.615 435.652 821.84 434.447 822.291 433.338C822.759 432.211 823.4 431.223 824.215 430.374C825.047 429.525 826.009 428.866 827.101 428.398C828.21 427.93 829.406 427.696 830.689 427.696C831.971 427.696 833.159 427.93 834.251 428.398C835.36 428.866 836.331 429.525 837.163 430.374C837.995 431.223 838.645 432.211 839.113 433.338C839.581 434.465 839.815 435.678 839.815 436.978C839.815 438.261 839.581 439.465 839.113 440.592C838.645 441.719 837.995 442.707 837.163 443.556C836.348 444.405 835.386 445.073 834.277 445.558C833.185 446.026 832.006 446.26 830.741 446.26ZM830.689 443.92C831.989 443.92 833.124 443.625 834.095 443.036C835.083 442.429 835.863 441.606 836.435 440.566C837.007 439.509 837.293 438.304 837.293 436.952C837.293 435.947 837.128 435.028 836.799 434.196C836.469 433.347 836.01 432.61 835.421 431.986C834.831 431.362 834.138 430.885 833.341 430.556C832.543 430.209 831.659 430.036 830.689 430.036C829.406 430.036 828.271 430.331 827.283 430.92C826.312 431.509 825.541 432.324 824.969 433.364C824.414 434.404 824.137 435.6 824.137 436.952C824.137 437.957 824.293 438.893 824.605 439.76C824.934 440.609 825.385 441.346 825.957 441.97C826.546 442.577 827.239 443.053 828.037 443.4C828.851 443.747 829.735 443.92 830.689 443.92ZM843.167 446V427.956H845.611V446H843.167ZM844.831 438.07V435.834H854.243V438.07H844.831ZM844.831 430.192V427.956H854.685V430.192H844.831ZM868.95 446L861.722 427.956H864.374L870.328 443.218H869.366L875.372 427.956H877.998L870.718 446H868.95ZM888.149 446.26C886.866 446.26 885.67 446.026 884.561 445.558C883.451 445.073 882.481 444.405 881.649 443.556C880.817 442.689 880.167 441.693 879.699 440.566C879.248 439.439 879.023 438.235 879.023 436.952C879.023 435.652 879.248 434.447 879.699 433.338C880.167 432.211 880.808 431.223 881.623 430.374C882.455 429.525 883.417 428.866 884.509 428.398C885.618 427.93 886.814 427.696 888.097 427.696C889.379 427.696 890.567 427.93 891.659 428.398C892.768 428.866 893.739 429.525 894.571 430.374C895.403 431.223 896.053 432.211 896.521 433.338C896.989 434.465 897.223 435.678 897.223 436.978C897.223 438.261 896.989 439.465 896.521 440.592C896.053 441.719 895.403 442.707 894.571 443.556C893.756 444.405 892.794 445.073 891.685 445.558C890.593 446.026 889.414 446.26 888.149 446.26ZM888.097 443.92C889.397 443.92 890.532 443.625 891.503 443.036C892.491 442.429 893.271 441.606 893.843 440.566C894.415 439.509 894.701 438.304 894.701 436.952C894.701 435.947 894.536 435.028 894.207 434.196C893.877 433.347 893.418 432.61 892.829 431.986C892.239 431.362 891.546 430.885 890.749 430.556C889.951 430.209 889.067 430.036 888.097 430.036C886.814 430.036 885.679 430.331 884.691 430.92C883.72 431.509 882.949 432.324 882.377 433.364C881.822 434.404 881.545 435.6 881.545 436.952C881.545 437.957 881.701 438.893 882.013 439.76C882.342 440.609 882.793 441.346 883.365 441.97C883.954 442.577 884.647 443.053 885.445 443.4C886.259 443.747 887.143 443.92 888.097 443.92ZM900.575 446V427.956H903.019V446H900.575ZM915.468 446.26C914.168 446.26 912.964 446.026 911.854 445.558C910.745 445.073 909.774 444.405 908.942 443.556C908.128 442.707 907.495 441.719 907.044 440.592C906.594 439.465 906.368 438.261 906.368 436.978C906.368 435.678 906.594 434.465 907.044 433.338C907.495 432.211 908.128 431.232 908.942 430.4C909.774 429.551 910.736 428.892 911.828 428.424C912.938 427.939 914.142 427.696 915.442 427.696C916.864 427.696 918.112 427.939 919.186 428.424C920.261 428.909 921.214 429.568 922.046 430.4L920.356 432.09C919.784 431.449 919.082 430.946 918.25 430.582C917.436 430.218 916.5 430.036 915.442 430.036C914.489 430.036 913.614 430.209 912.816 430.556C912.019 430.885 911.326 431.362 910.736 431.986C910.147 432.61 909.688 433.347 909.358 434.196C909.046 435.045 908.89 435.973 908.89 436.978C908.89 437.983 909.046 438.911 909.358 439.76C909.688 440.609 910.147 441.346 910.736 441.97C911.326 442.594 912.019 443.079 912.816 443.426C913.614 443.755 914.489 443.92 915.442 443.92C916.569 443.92 917.548 443.738 918.38 443.374C919.212 442.993 919.914 442.481 920.486 441.84L922.176 443.504C921.344 444.371 920.365 445.047 919.238 445.532C918.129 446.017 916.872 446.26 915.468 446.26ZM925.179 446V427.956H927.623V446H925.179ZM926.843 446V443.764H937.191V446H926.843ZM926.843 437.836V435.704H936.333V437.836H926.843ZM926.843 430.192V427.956H937.061V430.192H926.843ZM771.013 479L765.111 460.956H767.555L772.235 475.672H771.533L776.135 460.956H777.903L782.505 475.672H781.829L786.509 460.956H788.927L783.051 479H781.309L776.681 464.31H777.357L772.755 479H771.013ZM799.307 479.26C798.024 479.26 796.828 479.026 795.719 478.558C794.61 478.073 793.639 477.405 792.807 476.556C791.975 475.689 791.325 474.693 790.857 473.566C790.406 472.439 790.181 471.235 790.181 469.952C790.181 468.652 790.406 467.447 790.857 466.338C791.325 465.211 791.966 464.223 792.781 463.374C793.613 462.525 794.575 461.866 795.667 461.398C796.776 460.93 797.972 460.696 799.255 460.696C800.538 460.696 801.725 460.93 802.817 461.398C803.926 461.866 804.897 462.525 805.729 463.374C806.561 464.223 807.211 465.211 807.679 466.338C808.147 467.465 808.381 468.678 808.381 469.978C808.381 471.261 808.147 472.465 807.679 473.592C807.211 474.719 806.561 475.707 805.729 476.556C804.914 477.405 803.952 478.073 802.843 478.558C801.751 479.026 800.572 479.26 799.307 479.26ZM799.255 476.92C800.555 476.92 801.69 476.625 802.661 476.036C803.649 475.429 804.429 474.606 805.001 473.566C805.573 472.509 805.859 471.304 805.859 469.952C805.859 468.947 805.694 468.028 805.365 467.196C805.036 466.347 804.576 465.61 803.987 464.986C803.398 464.362 802.704 463.885 801.907 463.556C801.11 463.209 800.226 463.036 799.255 463.036C797.972 463.036 796.837 463.331 795.849 463.92C794.878 464.509 794.107 465.324 793.535 466.364C792.98 467.404 792.703 468.6 792.703 469.952C792.703 470.957 792.859 471.893 793.171 472.76C793.5 473.609 793.951 474.346 794.523 474.97C795.112 475.577 795.806 476.053 796.603 476.4C797.418 476.747 798.302 476.92 799.255 476.92ZM813.372 471.148V469.094H818.26C819.317 469.094 820.132 468.825 820.704 468.288C821.276 467.751 821.562 467.023 821.562 466.104C821.562 465.237 821.276 464.518 820.704 463.946C820.149 463.374 819.343 463.088 818.286 463.088H813.372V460.956H818.364C819.508 460.956 820.504 461.181 821.354 461.632C822.203 462.065 822.853 462.663 823.304 463.426C823.772 464.189 824.006 465.064 824.006 466.052C824.006 467.075 823.772 467.967 823.304 468.73C822.853 469.493 822.203 470.091 821.354 470.524C820.504 470.94 819.508 471.148 818.364 471.148H813.372ZM811.734 479V460.956H814.178V479H811.734ZM822.134 479L815.582 470.914L817.896 470.108L825.228 479H822.134ZM829.367 479V476.764H834.385C835.72 476.764 836.89 476.478 837.895 475.906C838.9 475.317 839.68 474.511 840.235 473.488C840.807 472.465 841.093 471.287 841.093 469.952C841.093 468.635 840.807 467.465 840.235 466.442C839.663 465.419 838.874 464.622 837.869 464.05C836.864 463.478 835.702 463.192 834.385 463.192H829.393V460.956H834.437C835.754 460.956 836.968 461.181 838.077 461.632C839.204 462.083 840.174 462.715 840.989 463.53C841.821 464.345 842.462 465.298 842.913 466.39C843.381 467.482 843.615 468.678 843.615 469.978C843.615 471.261 843.381 472.457 842.913 473.566C842.462 474.658 841.83 475.611 841.015 476.426C840.2 477.241 839.23 477.873 838.103 478.324C836.994 478.775 835.789 479 834.489 479H829.367ZM827.755 479V460.956H830.199V479H827.755ZM848.639 471.98V469.848H853.553C854.229 469.848 854.827 469.709 855.347 469.432C855.884 469.155 856.3 468.765 856.595 468.262C856.907 467.759 857.063 467.161 857.063 466.468C857.063 465.775 856.907 465.177 856.595 464.674C856.3 464.171 855.884 463.781 855.347 463.504C854.827 463.227 854.229 463.088 853.553 463.088H848.639V460.956H853.709C854.818 460.956 855.806 461.181 856.673 461.632C857.557 462.083 858.25 462.724 858.753 463.556C859.273 464.371 859.533 465.341 859.533 466.468C859.533 467.577 859.273 468.548 858.753 469.38C858.25 470.195 857.557 470.836 856.673 471.304C855.806 471.755 854.818 471.98 853.709 471.98H848.639ZM847.001 479V460.956H849.445V479H847.001ZM864.204 471.148V469.094H869.092C870.149 469.094 870.964 468.825 871.536 468.288C872.108 467.751 872.394 467.023 872.394 466.104C872.394 465.237 872.108 464.518 871.536 463.946C870.981 463.374 870.175 463.088 869.118 463.088H864.204V460.956H869.196C870.34 460.956 871.336 461.181 872.186 461.632C873.035 462.065 873.685 462.663 874.136 463.426C874.604 464.189 874.838 465.064 874.838 466.052C874.838 467.075 874.604 467.967 874.136 468.73C873.685 469.493 873.035 470.091 872.186 470.524C871.336 470.94 870.34 471.148 869.196 471.148H864.204ZM862.566 479V460.956H865.01V479H862.566ZM872.966 479L866.414 470.914L868.728 470.108L876.06 479H872.966ZM878.587 479V460.956H881.031V479H878.587ZM880.251 479V476.764H890.599V479H880.251ZM880.251 470.836V468.704H889.741V470.836H880.251ZM880.251 463.192V460.956H890.469V463.192H880.251ZM898.484 479.26C897.063 479.26 895.849 479 894.844 478.48C893.839 477.96 892.946 477.206 892.166 476.218L893.83 474.554C894.402 475.351 895.061 475.958 895.806 476.374C896.551 476.773 897.47 476.972 898.562 476.972C899.637 476.972 900.495 476.738 901.136 476.27C901.795 475.802 902.124 475.161 902.124 474.346C902.124 473.67 901.968 473.124 901.656 472.708C901.344 472.292 900.919 471.954 900.382 471.694C899.862 471.417 899.29 471.174 898.666 470.966C898.042 470.741 897.418 470.507 896.794 470.264C896.17 470.004 895.598 469.692 895.078 469.328C894.558 468.947 894.133 468.453 893.804 467.846C893.492 467.239 893.336 466.477 893.336 465.558C893.336 464.535 893.579 463.669 894.064 462.958C894.567 462.23 895.243 461.675 896.092 461.294C896.959 460.895 897.929 460.696 899.004 460.696C900.183 460.696 901.24 460.93 902.176 461.398C903.112 461.849 903.875 462.447 904.464 463.192L902.8 464.856C902.263 464.232 901.682 463.764 901.058 463.452C900.451 463.14 899.749 462.984 898.952 462.984C897.981 462.984 897.21 463.201 896.638 463.634C896.066 464.05 895.78 464.639 895.78 465.402C895.78 466.009 895.936 466.503 896.248 466.884C896.577 467.248 897.002 467.56 897.522 467.82C898.042 468.08 898.614 468.323 899.238 468.548C899.879 468.756 900.512 468.99 901.136 469.25C901.76 469.51 902.332 469.839 902.852 470.238C903.372 470.637 903.788 471.157 904.1 471.798C904.429 472.422 904.594 473.211 904.594 474.164C904.594 475.759 904.039 477.007 902.93 477.908C901.838 478.809 900.356 479.26 898.484 479.26ZM912.449 479.26C911.027 479.26 909.814 479 908.809 478.48C907.803 477.96 906.911 477.206 906.131 476.218L907.795 474.554C908.367 475.351 909.025 475.958 909.771 476.374C910.516 476.773 911.435 476.972 912.527 476.972C913.601 476.972 914.459 476.738 915.101 476.27C915.759 475.802 916.089 475.161 916.089 474.346C916.089 473.67 915.933 473.124 915.621 472.708C915.309 472.292 914.884 471.954 914.347 471.694C913.827 471.417 913.255 471.174 912.631 470.966C912.007 470.741 911.383 470.507 910.759 470.264C910.135 470.004 909.563 469.692 909.043 469.328C908.523 468.947 908.098 468.453 907.769 467.846C907.457 467.239 907.301 466.477 907.301 465.558C907.301 464.535 907.543 463.669 908.029 462.958C908.531 462.23 909.207 461.675 910.057 461.294C910.923 460.895 911.894 460.696 912.969 460.696C914.147 460.696 915.205 460.93 916.141 461.398C917.077 461.849 917.839 462.447 918.429 463.192L916.765 464.856C916.227 464.232 915.647 463.764 915.023 463.452C914.416 463.14 913.714 462.984 912.917 462.984C911.946 462.984 911.175 463.201 910.603 463.634C910.031 464.05 909.745 464.639 909.745 465.402C909.745 466.009 909.901 466.503 910.213 466.884C910.542 467.248 910.967 467.56 911.487 467.82C912.007 468.08 912.579 468.323 913.203 468.548C913.844 468.756 914.477 468.99 915.101 469.25C915.725 469.51 916.297 469.839 916.817 470.238C917.337 470.637 917.753 471.157 918.065 471.798C918.394 472.422 918.559 473.211 918.559 474.164C918.559 475.759 918.004 477.007 916.895 477.908C915.803 478.809 914.321 479.26 912.449 479.26ZM824.14 512.26C822.719 512.26 821.506 512 820.5 511.48C819.495 510.96 818.602 510.206 817.822 509.218L819.486 507.554C820.058 508.351 820.717 508.958 821.462 509.374C822.208 509.773 823.126 509.972 824.218 509.972C825.293 509.972 826.151 509.738 826.792 509.27C827.451 508.802 827.78 508.161 827.78 507.346C827.78 506.67 827.624 506.124 827.312 505.708C827 505.292 826.576 504.954 826.038 504.694C825.518 504.417 824.946 504.174 824.322 503.966C823.698 503.741 823.074 503.507 822.45 503.264C821.826 503.004 821.254 502.692 820.734 502.328C820.214 501.947 819.79 501.453 819.46 500.846C819.148 500.239 818.992 499.477 818.992 498.558C818.992 497.535 819.235 496.669 819.72 495.958C820.223 495.23 820.899 494.675 821.748 494.294C822.615 493.895 823.586 493.696 824.66 493.696C825.839 493.696 826.896 493.93 827.832 494.398C828.768 494.849 829.531 495.447 830.12 496.192L828.456 497.856C827.919 497.232 827.338 496.764 826.714 496.452C826.108 496.14 825.406 495.984 824.608 495.984C823.638 495.984 822.866 496.201 822.294 496.634C821.722 497.05 821.436 497.639 821.436 498.402C821.436 499.009 821.592 499.503 821.904 499.884C822.234 500.248 822.658 500.56 823.178 500.82C823.698 501.08 824.27 501.323 824.894 501.548C825.536 501.756 826.168 501.99 826.792 502.25C827.416 502.51 827.988 502.839 828.508 503.238C829.028 503.637 829.444 504.157 829.756 504.798C830.086 505.422 830.25 506.211 830.25 507.164C830.25 508.759 829.696 510.007 828.586 510.908C827.494 511.809 826.012 512.26 824.14 512.26ZM833.544 512V493.956H835.988V512H833.544ZM835.208 512V509.764H845.556V512H835.208ZM835.208 503.836V501.704H844.698V503.836H835.208ZM835.208 496.192V493.956H845.426V496.192H835.208ZM856.715 512.26C855.433 512.26 854.237 512.026 853.127 511.558C852.018 511.073 851.047 510.405 850.215 509.556C849.383 508.689 848.733 507.693 848.265 506.566C847.815 505.439 847.589 504.235 847.589 502.952C847.589 501.652 847.815 500.447 848.265 499.338C848.733 498.211 849.375 497.223 850.189 496.374C851.021 495.525 851.983 494.866 853.075 494.398C854.185 493.93 855.381 493.696 856.663 493.696C857.946 493.696 859.133 493.93 860.225 494.398C861.335 494.866 862.305 495.525 863.137 496.374C863.969 497.223 864.619 498.211 865.087 499.338C865.555 500.465 865.789 501.678 865.789 502.978C865.789 504.261 865.555 505.465 865.087 506.592C864.619 507.719 863.969 508.707 863.137 509.556C862.323 510.405 861.361 511.073 860.251 511.558C859.159 512.026 857.981 512.26 856.715 512.26ZM856.663 509.92C857.963 509.92 859.099 509.625 860.069 509.036C861.057 508.429 861.837 507.606 862.409 506.566C862.981 505.509 863.267 504.304 863.267 502.952C863.267 501.947 863.103 501.028 862.773 500.196C862.444 499.347 861.985 498.61 861.395 497.986C860.806 497.362 860.113 496.885 859.315 496.556C858.518 496.209 857.634 496.036 856.663 496.036C855.381 496.036 854.245 496.331 853.257 496.92C852.287 497.509 851.515 498.324 850.943 499.364C850.389 500.404 850.111 501.6 850.111 502.952C850.111 503.957 850.267 504.893 850.579 505.76C850.909 506.609 851.359 507.346 851.931 507.97C852.521 508.577 853.214 509.053 854.011 509.4C854.826 509.747 855.71 509.92 856.663 509.92Z" fill="#FEFAE0"/>
</svg>
