<svg width="1629" height="178" viewBox="0 0 1629 178" fill="none" xmlns="http://www.w3.org/2000/svg">
<path d="M0.712402 3.62305H112.68C132.071 3.62305 147.307 8.52702 158.388 18.335C169.469 28.068 175.009 40.2718 175.009 54.9463C175.009 71.1182 168.496 83.7712 155.468 92.9053C173.961 114.019 185.004 141.383 188.598 175H109.873C108.45 153.363 105.193 137.378 100.102 127.046C95.0858 116.714 87.2244 111.548 76.5181 111.548V175H0.712402V3.62305ZM76.5181 38.8867V71.9043H78.6519C92.2782 71.9043 99.0913 66.5511 99.0913 55.8447C99.0913 51.3525 97.7062 47.4219 94.936 44.0527C92.1659 40.6087 87.5614 38.8867 81.1226 38.8867H76.5181ZM344.134 131.987V175H201.844V3.62305H344.134V46.6357H277.649V67.8613H323.919V110.874H277.649V131.987H344.134ZM362.321 175V3.62305H503.263V46.6357H438.127V77.7441H486.418V120.757H438.127V175H362.321ZM515.274 175V3.62305H591.192V131.987H657.676V175H515.274ZM813.436 131.987V175H671.146V3.62305H813.436V46.6357H746.952V67.8613H793.221V110.874H746.952V131.987H813.436ZM991.208 19.0088L959.426 79.541C950.142 76.3216 939.885 74.7119 928.655 74.7119C912.558 74.7119 904.509 79.0918 904.509 87.8516C904.509 92.0443 906.755 95.3385 911.247 97.7344C915.74 100.055 922.141 101.216 930.451 101.216C941.682 101.216 951.34 99.1943 959.426 95.1514L991.208 160.063C982.224 165.454 971.368 169.759 958.64 172.979C945.912 176.198 933.746 177.808 922.141 177.808C893.017 177.808 869.807 169.422 852.512 152.651C835.292 135.806 826.682 115.104 826.682 90.5469C826.682 64.5671 835.666 43.1543 853.635 26.3086C871.604 9.38802 894.439 0.927734 922.141 0.927734C934.12 0.927734 946.474 2.57487 959.201 5.86914C972.004 9.08854 982.673 13.4684 991.208 19.0088ZM993.56 79.541V3.62305H1145.85V79.541H1107.66V175H1031.74V79.541H993.56ZM1162.24 175V3.62305H1238.04V175H1162.24ZM1348.32 177.808C1323.84 177.808 1303.06 169.235 1285.99 152.09C1268.99 134.87 1260.5 113.906 1260.5 89.1992C1260.5 64.5671 1268.99 43.7158 1285.99 26.6455C1303.06 9.50033 1323.84 0.927734 1348.32 0.927734C1372.88 0.927734 1393.65 9.50033 1410.65 26.6455C1427.72 43.7158 1436.25 64.5671 1436.25 89.1992C1436.25 113.906 1427.72 134.87 1410.65 152.09C1393.65 169.235 1372.88 177.808 1348.32 177.808ZM1348.32 66.626C1343.45 66.626 1339.41 68.348 1336.19 71.792C1332.97 75.1611 1331.36 79.4287 1331.36 84.5947C1331.36 89.7607 1332.97 94.0658 1336.19 97.5098C1339.41 100.879 1343.45 102.563 1348.32 102.563C1353.26 102.563 1357.34 100.879 1360.56 97.5098C1363.78 94.0658 1365.39 89.7607 1365.39 84.5947C1365.39 79.4287 1363.78 75.1611 1360.56 71.792C1357.34 68.348 1353.26 66.626 1348.32 66.626ZM1628.62 176.348H1571.12L1534.29 122.329V175H1458.48V3.62305H1512.73L1552.71 61.5723V3.62305H1628.62V176.348Z" fill="#FEFAE0" fill-opacity="0.2"/>
</svg>
