<svg width="762" height="183" viewBox="0 0 762 183" fill="none" xmlns="http://www.w3.org/2000/svg">
<g filter="url(#filter0_ddd_406_5941)">
<rect width="163" height="163" transform="translate(10 2)" fill="#8BADAF"/>
<path d="M27.8993 33.5684V22.5946H29.4297V33.5684H27.8993ZM24.0568 23.6692V22.269H33.2559V23.6692H24.0568ZM40.1104 33.5684V29.0584C40.1104 28.4722 39.9259 27.9892 39.5569 27.6093C39.1878 27.2294 38.7102 27.0395 38.1241 27.0395C37.7333 27.0395 37.386 27.1263 37.0821 27.3C36.7781 27.4736 36.5393 27.7124 36.3657 28.0163C36.192 28.3203 36.1052 28.6676 36.1052 29.0584L35.5027 28.7165C35.5027 28.1303 35.633 27.6093 35.8935 27.1534C36.154 26.6975 36.5176 26.3393 36.9844 26.0788C37.4511 25.8075 37.9775 25.6718 38.5637 25.6718C39.1498 25.6718 39.6654 25.8021 40.1104 26.0626C40.5663 26.3231 40.9245 26.6867 41.185 27.1534C41.4455 27.6202 41.5758 28.1575 41.5758 28.7653V33.5684H40.1104ZM34.6398 33.5684V21.9433H36.1052V33.5684H34.6398ZM46.9625 33.7312C46.1919 33.7312 45.4972 33.5575 44.8785 33.2102C44.2598 32.852 43.7714 32.369 43.4132 31.7611C43.055 31.1533 42.8759 30.464 42.8759 29.6933C42.8759 28.9335 43.0495 28.2497 43.3969 27.6419C43.7551 27.034 44.2327 26.5564 44.8297 26.2091C45.4375 25.8509 46.1159 25.6718 46.8649 25.6718C47.5812 25.6718 48.2108 25.8346 48.7535 26.1602C49.3071 26.4859 49.7358 26.9363 50.0398 27.5116C50.3545 28.0869 50.5119 28.7382 50.5119 29.4654C50.5119 29.5739 50.5065 29.6933 50.4956 29.8236C50.4848 29.943 50.4631 30.0841 50.4305 30.2469H43.9016V29.0258H49.649L49.1117 29.498C49.1117 28.977 49.0194 28.5374 48.8349 28.1792C48.6504 27.8101 48.3899 27.5279 48.0534 27.3325C47.7169 27.1263 47.3099 27.0232 46.8323 27.0232C46.333 27.0232 45.8934 27.1317 45.5135 27.3488C45.1336 27.5659 44.8405 27.8698 44.6343 28.2606C44.428 28.6513 44.3249 29.1126 44.3249 29.6445C44.3249 30.1872 44.4335 30.6648 44.6506 31.0773C44.8677 31.4789 45.177 31.7937 45.5786 32.0216C45.9802 32.2387 46.4415 32.3472 46.9625 32.3472C47.3967 32.3472 47.7929 32.2713 48.1511 32.1193C48.5201 31.9673 48.8349 31.7394 49.0954 31.4355L50.0398 32.3961C49.6707 32.8303 49.2148 33.1613 48.6721 33.3893C48.1402 33.6172 47.5704 33.7312 46.9625 33.7312ZM58.6713 33.7312C57.9115 33.7312 57.2222 33.5521 56.6035 33.1939C55.9957 32.8357 55.5127 32.3527 55.1545 31.7448C54.8071 31.1261 54.6335 30.4423 54.6335 29.6933C54.6335 28.9335 54.8071 28.2497 55.1545 27.6419C55.5127 27.034 55.9957 26.5564 56.6035 26.2091C57.2222 25.8509 57.9115 25.6718 58.6713 25.6718C59.2683 25.6718 59.8218 25.7858 60.332 26.0137C60.8422 26.2308 61.2818 26.551 61.6508 26.9743L60.6739 27.9512C60.4351 27.669 60.142 27.4573 59.7947 27.3162C59.4582 27.1643 59.0837 27.0883 58.6713 27.0883C58.1828 27.0883 57.7487 27.2023 57.3688 27.4302C56.9889 27.6473 56.6904 27.9512 56.4733 28.342C56.2562 28.7327 56.1476 29.1832 56.1476 29.6933C56.1476 30.2035 56.2562 30.654 56.4733 31.0447C56.6904 31.4355 56.9889 31.7448 57.3688 31.9728C57.7487 32.2007 58.1828 32.3147 58.6713 32.3147C59.0837 32.3147 59.4582 32.2441 59.7947 32.103C60.142 31.9511 60.4405 31.734 60.6902 31.4518L61.6508 32.4287C61.2926 32.8411 60.853 33.1613 60.332 33.3893C59.8218 33.6172 59.2683 33.7312 58.6713 33.7312ZM66.2991 33.7312C65.5393 33.7312 64.8554 33.5521 64.2476 33.1939C63.6397 32.8357 63.1567 32.3527 62.7985 31.7448C62.4403 31.1261 62.2612 30.4369 62.2612 29.6771C62.2612 28.9281 62.4403 28.2551 62.7985 27.6582C63.1567 27.0503 63.6397 26.5673 64.2476 26.2091C64.8554 25.8509 65.5393 25.6718 66.2991 25.6718C67.048 25.6718 67.7264 25.8509 68.3343 26.2091C68.953 26.5564 69.4414 27.034 69.7996 27.6419C70.1578 28.2497 70.3369 28.9281 70.3369 29.6771C70.3369 30.4369 70.1578 31.1261 69.7996 31.7448C69.4414 32.3527 68.953 32.8357 68.3343 33.1939C67.7264 33.5521 67.048 33.7312 66.2991 33.7312ZM66.2991 32.3147C66.7875 32.3147 67.2217 32.2007 67.6016 31.9728C67.9815 31.7448 68.28 31.4355 68.4971 31.0447C68.7142 30.6431 68.8227 30.1872 68.8227 29.6771C68.8227 29.1778 68.7087 28.7327 68.4808 28.342C68.2637 27.9512 67.9652 27.6473 67.5853 27.4302C67.2163 27.2023 66.7875 27.0883 66.2991 27.0883C65.8106 27.0883 65.3764 27.2023 64.9965 27.4302C64.6166 27.6473 64.3181 27.9512 64.1011 28.342C63.884 28.7327 63.7754 29.1778 63.7754 29.6771C63.7754 30.1872 63.884 30.6431 64.1011 31.0447C64.3181 31.4355 64.6166 31.7448 64.9965 31.9728C65.3764 32.2007 65.8106 32.3147 66.2991 32.3147ZM77.2794 33.5684V29.0584C77.2794 28.4722 77.0949 27.9892 76.7259 27.6093C76.3568 27.2294 75.8792 27.0395 75.2931 27.0395C74.9023 27.0395 74.555 27.1263 74.2511 27.3C73.9472 27.4736 73.7084 27.7124 73.5347 28.0163C73.361 28.3203 73.2742 28.6676 73.2742 29.0584L72.6718 28.7165C72.6718 28.1303 72.802 27.6093 73.0625 27.1534C73.323 26.6975 73.6867 26.3393 74.1534 26.0788C74.6201 25.8075 75.1466 25.6718 75.7327 25.6718C76.3188 25.6718 76.8344 25.8183 77.2794 26.1114C77.7353 26.4045 78.0935 26.7898 78.354 27.2674C78.6145 27.7341 78.7448 28.2334 78.7448 28.7653V33.5684H77.2794ZM71.8088 33.5684V25.8346H73.2742V33.5684H71.8088ZM84.0827 33.7312C83.3229 33.7312 82.6337 33.5521 82.015 33.1939C81.4071 32.8357 80.9241 32.3527 80.5659 31.7448C80.2186 31.1261 80.0449 30.4423 80.0449 29.6933C80.0449 28.9335 80.2186 28.2497 80.5659 27.6419C80.9241 27.034 81.4071 26.5564 82.015 26.2091C82.6337 25.8509 83.3229 25.6718 84.0827 25.6718C84.6797 25.6718 85.2333 25.7858 85.7434 26.0137C86.2536 26.2308 86.6932 26.551 87.0623 26.9743L86.0854 27.9512C85.8466 27.669 85.5535 27.4573 85.2062 27.3162C84.8697 27.1643 84.4952 27.0883 84.0827 27.0883C83.5943 27.0883 83.1601 27.2023 82.7802 27.4302C82.4003 27.6473 82.1018 27.9512 81.8847 28.342C81.6676 28.7327 81.5591 29.1832 81.5591 29.6933C81.5591 30.2035 81.6676 30.654 81.8847 31.0447C82.1018 31.4355 82.4003 31.7448 82.7802 31.9728C83.1601 32.2007 83.5943 32.3147 84.0827 32.3147C84.4952 32.3147 84.8697 32.2441 85.2062 32.103C85.5535 31.9511 85.852 31.734 86.1016 31.4518L87.0623 32.4287C86.7041 32.8411 86.2645 33.1613 85.7434 33.3893C85.2333 33.6172 84.6797 33.7312 84.0827 33.7312ZM91.7594 33.7312C90.9887 33.7312 90.294 33.5575 89.6753 33.2102C89.0566 32.852 88.5682 32.369 88.21 31.7611C87.8518 31.1533 87.6727 30.464 87.6727 29.6933C87.6727 28.9335 87.8464 28.2497 88.1937 27.6419C88.5519 27.034 89.0295 26.5564 89.6265 26.2091C90.2343 25.8509 90.9127 25.6718 91.6617 25.6718C92.3781 25.6718 93.0076 25.8346 93.5503 26.1602C94.1039 26.4859 94.5326 26.9363 94.8366 27.5116C95.1513 28.0869 95.3087 28.7382 95.3087 29.4654C95.3087 29.5739 95.3033 29.6933 95.2925 29.8236C95.2816 29.943 95.2599 30.0841 95.2273 30.2469H88.6984V29.0258H94.4458L93.9085 29.498C93.9085 28.977 93.8163 28.5374 93.6317 28.1792C93.4472 27.8101 93.1867 27.5279 92.8502 27.3325C92.5137 27.1263 92.1067 27.0232 91.6291 27.0232C91.1298 27.0232 90.6902 27.1317 90.3103 27.3488C89.9304 27.5659 89.6373 27.8698 89.4311 28.2606C89.2249 28.6513 89.1217 29.1126 89.1217 29.6445C89.1217 30.1872 89.2303 30.6648 89.4474 31.0773C89.6645 31.4789 89.9738 31.7937 90.3754 32.0216C90.777 32.2387 91.2383 32.3472 91.7594 32.3472C92.1935 32.3472 92.5897 32.2713 92.9479 32.1193C93.317 31.9673 93.6317 31.7394 93.8922 31.4355L94.8366 32.3961C94.4675 32.8303 94.0116 33.1613 93.4689 33.3893C92.9371 33.6172 92.3672 33.7312 91.7594 33.7312ZM100.798 33.7312C100.212 33.7312 99.6798 33.6118 99.2022 33.373C98.7355 33.1233 98.361 32.7814 98.0788 32.3472C97.7965 31.9131 97.6392 31.4192 97.6066 30.8656V28.5374C97.6392 27.9729 97.7965 27.4791 98.0788 27.0557C98.3718 26.6216 98.7517 26.2851 99.2185 26.0463C99.6961 25.7966 100.223 25.6718 100.798 25.6718C101.503 25.6718 102.138 25.8509 102.703 26.2091C103.278 26.5673 103.728 27.0503 104.054 27.6582C104.38 28.266 104.543 28.9498 104.543 29.7096C104.543 30.4694 104.38 31.1533 104.054 31.7611C103.728 32.369 103.278 32.852 102.703 33.2102C102.138 33.5575 101.503 33.7312 100.798 33.7312ZM100.554 32.3472C101.042 32.3472 101.471 32.2333 101.84 32.0053C102.209 31.7774 102.502 31.468 102.719 31.0773C102.936 30.6757 103.045 30.2144 103.045 29.6933C103.045 29.1832 102.936 28.7273 102.719 28.3257C102.502 27.9241 102.209 27.6147 101.84 27.3976C101.471 27.1697 101.047 27.0557 100.57 27.0557C100.081 27.0557 99.6526 27.1697 99.2836 27.3976C98.9145 27.6147 98.6269 27.9241 98.4207 28.3257C98.2144 28.7273 98.1113 29.1886 98.1113 29.7096C98.1113 30.2198 98.209 30.6757 98.4044 31.0773C98.6106 31.468 98.8983 31.7774 99.2673 32.0053C99.6472 32.2333 100.076 32.3472 100.554 32.3472ZM96.7274 36.8084V25.8346H98.1927V27.8698L97.9159 29.7422L98.1927 31.6309V36.8084H96.7274ZM106.975 33.5684V22.5946H108.44V33.5684H106.975ZM105.07 27.1697V25.8346H110.345V27.1697H105.07ZM114.825 33.5684V25.8346H116.291V33.5684H114.825ZM115.558 24.2879C115.287 24.2879 115.064 24.201 114.89 24.0274C114.717 23.8428 114.63 23.6149 114.63 23.3435C114.63 23.083 114.717 22.8659 114.89 22.6923C115.064 22.5078 115.287 22.4155 115.558 22.4155C115.829 22.4155 116.052 22.5078 116.225 22.6923C116.399 22.8659 116.486 23.083 116.486 23.3435C116.486 23.6149 116.399 23.8428 116.225 24.0274C116.052 24.201 115.829 24.2879 115.558 24.2879ZM120.729 33.7312C120.295 33.7312 119.883 33.6769 119.492 33.5684C119.112 33.449 118.759 33.2861 118.434 33.0799C118.108 32.8628 117.826 32.6077 117.587 32.3147L118.531 31.3703C118.814 31.7177 119.139 31.9782 119.508 32.1519C119.877 32.3147 120.29 32.3961 120.746 32.3961C121.202 32.3961 121.554 32.3201 121.804 32.1681C122.054 32.0053 122.179 31.7828 122.179 31.5006C122.179 31.2184 122.075 31.0013 121.869 30.8493C121.674 30.6865 121.419 30.5563 121.104 30.4586C120.789 30.35 120.453 30.2469 120.094 30.1492C119.747 30.0407 119.416 29.905 119.101 29.7422C118.787 29.5794 118.526 29.3569 118.32 29.0746C118.124 28.7924 118.027 28.418 118.027 27.9512C118.027 27.4845 118.141 27.0829 118.369 26.7464C118.597 26.399 118.911 26.1331 119.313 25.9486C119.725 25.7641 120.219 25.6718 120.795 25.6718C121.402 25.6718 121.94 25.7803 122.406 25.9974C122.884 26.2037 123.275 26.5184 123.579 26.9418L122.634 27.8861C122.417 27.6039 122.146 27.3868 121.82 27.2348C121.506 27.0829 121.147 27.0069 120.746 27.0069C120.322 27.0069 119.997 27.0829 119.769 27.2348C119.552 27.3759 119.443 27.5767 119.443 27.8372C119.443 28.0978 119.541 28.2986 119.736 28.4397C119.932 28.5808 120.187 28.7002 120.502 28.7979C120.827 28.8956 121.164 28.9987 121.511 29.1072C121.858 29.2049 122.189 29.3406 122.504 29.5143C122.819 29.6879 123.074 29.9213 123.269 30.2144C123.476 30.5074 123.579 30.8928 123.579 31.3703C123.579 32.0976 123.318 32.6729 122.797 33.0962C122.287 33.5195 121.598 33.7312 120.729 33.7312ZM24.6592 57.5684V49.8346H26.1246V57.5684H24.6592ZM25.3919 48.2879C25.1205 48.2879 24.898 48.201 24.7244 48.0274C24.5507 47.8428 24.4638 47.6149 24.4638 47.3435C24.4638 47.083 24.5507 46.8659 24.7244 46.6923C24.898 46.5078 25.1205 46.4155 25.3919 46.4155C25.6633 46.4155 25.8858 46.5078 26.0594 46.6923C26.2331 46.8659 26.3199 47.083 26.3199 47.3435C26.3199 47.6149 26.2331 47.8428 26.0594 48.0274C25.8858 48.201 25.6633 48.2879 25.3919 48.2879ZM33.5755 57.5684V53.0584C33.5755 52.4722 33.391 51.9892 33.022 51.6093C32.6529 51.2294 32.1753 51.0395 31.5892 51.0395C31.1984 51.0395 30.8511 51.1263 30.5472 51.3C30.2432 51.4736 30.0045 51.7124 29.8308 52.0163C29.6571 52.3203 29.5703 52.6676 29.5703 53.0584L28.9679 52.7165C28.9679 52.1303 29.0981 51.6093 29.3586 51.1534C29.6191 50.6975 29.9827 50.3393 30.4495 50.0788C30.9162 49.8075 31.4427 49.6718 32.0288 49.6718C32.6149 49.6718 33.1305 49.8183 33.5755 50.1114C34.0314 50.4045 34.3896 50.7898 34.6501 51.2674C34.9106 51.7341 35.0409 52.2334 35.0409 52.7653V57.5684H33.5755ZM28.1049 57.5684V49.8346H29.5703V57.5684H28.1049ZM37.9389 57.5684V46.5946H39.4042V57.5684H37.9389ZM36.0339 51.1697V49.8346H41.3092V51.1697H36.0339ZM45.909 57.7312C45.1383 57.7312 44.4436 57.5575 43.8249 57.2102C43.2062 56.852 42.7178 56.369 42.3596 55.7611C42.0014 55.1533 41.8223 54.464 41.8223 53.6933C41.8223 52.9335 41.9959 52.2497 42.3433 51.6419C42.7015 51.034 43.1791 50.5564 43.7761 50.2091C44.3839 49.8509 45.0623 49.6718 45.8113 49.6718C46.5277 49.6718 47.1572 49.8346 47.6999 50.1602C48.2535 50.4859 48.6822 50.9363 48.9862 51.5116C49.3009 52.0869 49.4583 52.7382 49.4583 53.4654C49.4583 53.5739 49.4529 53.6933 49.442 53.8236C49.4312 53.943 49.4095 54.0841 49.3769 54.2469H42.848V53.0258H48.5954L48.0581 53.498C48.0581 52.977 47.9659 52.5374 47.7813 52.1792C47.5968 51.8101 47.3363 51.5279 46.9998 51.3325C46.6633 51.1263 46.2563 51.0232 45.7787 51.0232C45.2794 51.0232 44.8398 51.1317 44.4599 51.3488C44.08 51.5659 43.7869 51.8698 43.5807 52.2606C43.3745 52.6513 43.2713 53.1126 43.2713 53.6445C43.2713 54.1872 43.3799 54.6648 43.597 55.0773C43.8141 55.4789 44.1234 55.7937 44.525 56.0216C44.9266 56.2387 45.3879 56.3472 45.909 56.3472C46.3431 56.3472 46.7393 56.2713 47.0975 56.1193C47.4666 55.9673 47.7813 55.7394 48.0418 55.4355L48.9862 56.3961C48.6171 56.8303 48.1612 57.1613 47.6185 57.3893C47.0867 57.6172 46.5168 57.7312 45.909 57.7312ZM50.877 57.5684V49.8346H52.3423V57.5684H50.877ZM52.3423 53.1561L51.7888 52.9118C51.7888 51.9241 52.0167 51.1371 52.4726 50.551C52.9285 49.9649 53.5852 49.6718 54.4427 49.6718C54.8334 49.6718 55.1862 49.7424 55.501 49.8835C55.8157 50.0137 56.1088 50.2362 56.3802 50.551L55.4195 51.5442C55.2567 51.3705 55.0776 51.2457 54.8823 51.1697C54.6869 51.0937 54.4589 51.0557 54.1984 51.0557C53.6557 51.0557 53.2107 51.2294 52.8633 51.5767C52.516 51.9241 52.3423 52.4505 52.3423 53.1561ZM60.5603 57.7312C59.7897 57.7312 59.095 57.5575 58.4763 57.2102C57.8576 56.852 57.3691 56.369 57.0109 55.7611C56.6527 55.1533 56.4736 54.464 56.4736 53.6933C56.4736 52.9335 56.6473 52.2497 56.9947 51.6419C57.3529 51.034 57.8304 50.5564 58.4274 50.2091C59.0353 49.8509 59.7137 49.6718 60.4626 49.6718C61.179 49.6718 61.8086 49.8346 62.3513 50.1602C62.9049 50.4859 63.3336 50.9363 63.6375 51.5116C63.9523 52.0869 64.1097 52.7382 64.1097 53.4654C64.1097 53.5739 64.1043 53.6933 64.0934 53.8236C64.0826 53.943 64.0609 54.0841 64.0283 54.2469H57.4994V53.0258H63.2468L62.7095 53.498C62.7095 52.977 62.6172 52.5374 62.4327 52.1792C62.2482 51.8101 61.9877 51.5279 61.6512 51.3325C61.3147 51.1263 60.9077 51.0232 60.4301 51.0232C59.9308 51.0232 59.4912 51.1317 59.1113 51.3488C58.7314 51.5659 58.4383 51.8698 58.2321 52.2606C58.0258 52.6513 57.9227 53.1126 57.9227 53.6445C57.9227 54.1872 58.0313 54.6648 58.2483 55.0773C58.4654 55.4789 58.7748 55.7937 59.1764 56.0216C59.578 56.2387 60.0393 56.3472 60.5603 56.3472C60.9945 56.3472 61.3907 56.2713 61.7489 56.1193C62.1179 55.9673 62.4327 55.7394 62.6932 55.4355L63.6375 56.3961C63.2685 56.8303 62.8126 57.1613 62.2699 57.3893C61.738 57.6172 61.1682 57.7312 60.5603 57.7312ZM67.9869 57.7312C67.5527 57.7312 67.1402 57.6769 66.7495 57.5684C66.3696 57.449 66.0168 57.2861 65.6912 57.0799C65.3655 56.8628 65.0833 56.6077 64.8445 56.3147L65.7889 55.3703C66.0711 55.7177 66.3967 55.9782 66.7658 56.1519C67.1348 56.3147 67.5473 56.3961 68.0032 56.3961C68.459 56.3961 68.8118 56.3201 69.0615 56.1681C69.3111 56.0053 69.4359 55.7828 69.4359 55.5006C69.4359 55.2184 69.3328 55.0013 69.1266 54.8493C68.9312 54.6865 68.6761 54.5563 68.3614 54.4586C68.0466 54.35 67.7101 54.2469 67.3519 54.1492C67.0046 54.0407 66.6735 53.905 66.3587 53.7422C66.0439 53.5794 65.7834 53.3569 65.5772 53.0746C65.3818 52.7924 65.2841 52.418 65.2841 51.9512C65.2841 51.4845 65.3981 51.0829 65.626 50.7464C65.854 50.399 66.1688 50.1331 66.5704 49.9486C66.9828 49.7641 67.4767 49.6718 68.052 49.6718C68.6598 49.6718 69.1971 49.7803 69.6639 49.9974C70.1415 50.2037 70.5322 50.5184 70.8361 50.9418L69.8918 51.8861C69.6747 51.6039 69.4034 51.3868 69.0777 51.2348C68.763 51.0829 68.4048 51.0069 68.0032 51.0069C67.5798 51.0069 67.2542 51.0829 67.0263 51.2348C66.8092 51.3759 66.7006 51.5767 66.7006 51.8372C66.7006 52.0978 66.7983 52.2986 66.9937 52.4397C67.1891 52.5808 67.4442 52.7002 67.7589 52.7979C68.0846 52.8956 68.4211 52.9987 68.7684 53.1072C69.1157 53.2049 69.4468 53.3406 69.7616 53.5143C70.0763 53.6879 70.3314 53.9213 70.5268 54.2144C70.733 54.5074 70.8361 54.8928 70.8361 55.3703C70.8361 56.0976 70.5756 56.6729 70.0546 57.0962C69.5445 57.5195 68.8552 57.7312 67.9869 57.7312ZM73.4861 57.5684V46.5946H74.9514V57.5684H73.4861ZM71.5812 51.1697V49.8346H76.8564V51.1697H71.5812ZM78.129 57.5684V49.8346H79.5944V57.5684H78.129ZM78.8617 48.2879C78.5903 48.2879 78.3678 48.201 78.1941 48.0274C78.0205 47.8428 77.9336 47.6149 77.9336 47.3435C77.9336 47.083 78.0205 46.8659 78.1941 46.6923C78.3678 46.5078 78.5903 46.4155 78.8617 46.4155C79.133 46.4155 79.3556 46.5078 79.5292 46.6923C79.7029 46.8659 79.7897 47.083 79.7897 47.3435C79.7897 47.6149 79.7029 47.8428 79.5292 48.0274C79.3556 48.201 79.133 48.2879 78.8617 48.2879ZM87.0453 57.5684V53.0584C87.0453 52.4722 86.8608 51.9892 86.4918 51.6093C86.1227 51.2294 85.6451 51.0395 85.059 51.0395C84.6682 51.0395 84.3209 51.1263 84.017 51.3C83.713 51.4736 83.4742 51.7124 83.3006 52.0163C83.1269 52.3203 83.0401 52.6676 83.0401 53.0584L82.4377 52.7165C82.4377 52.1303 82.5679 51.6093 82.8284 51.1534C83.0889 50.6975 83.4525 50.3393 83.9193 50.0788C84.386 49.8075 84.9124 49.6718 85.4986 49.6718C86.0847 49.6718 86.6003 49.8183 87.0453 50.1114C87.5012 50.4045 87.8594 50.7898 88.1199 51.2674C88.3804 51.7341 88.5107 52.2334 88.5107 52.7653V57.5684H87.0453ZM81.5747 57.5684V49.8346H83.0401V57.5684H81.5747ZM93.523 60.9712C92.7306 60.9712 92.0251 60.8247 91.4064 60.5316C90.7985 60.2385 90.3101 59.8261 89.941 59.2942L90.8854 58.3336C91.2001 58.7352 91.5746 59.0391 92.0088 59.2454C92.443 59.4624 92.9586 59.571 93.5555 59.571C94.3479 59.571 94.972 59.3593 95.4279 58.936C95.8947 58.5235 96.128 57.9645 96.128 57.259V55.3378L96.3885 53.5957L96.128 51.8698V49.8346H97.5934V57.259C97.5934 57.9971 97.4197 58.6429 97.0724 59.1965C96.7359 59.7501 96.2583 60.1843 95.6396 60.499C95.0317 60.8138 94.3262 60.9712 93.523 60.9712ZM93.523 57.4381C92.8174 57.4381 92.1825 57.2699 91.618 56.9334C91.0645 56.5969 90.6249 56.1356 90.2992 55.5494C89.9736 54.9525 89.8108 54.2849 89.8108 53.5468C89.8108 52.8087 89.9736 52.152 90.2992 51.5767C90.6249 50.9906 91.0645 50.5293 91.618 50.1928C92.1825 49.8455 92.8174 49.6718 93.523 49.6718C94.1308 49.6718 94.6681 49.7912 95.1349 50.03C95.6016 50.2688 95.9706 50.6053 96.242 51.0395C96.5242 51.4628 96.6762 51.9621 96.6979 52.5374V54.5888C96.6653 55.1533 96.5079 55.6526 96.2257 56.0867C95.9544 56.5101 95.5853 56.8411 95.1186 57.0799C94.6518 57.3187 94.12 57.4381 93.523 57.4381ZM93.816 56.0542C94.2936 56.0542 94.7115 55.9511 95.0697 55.7448C95.4388 55.5386 95.721 55.251 95.9164 54.8819C96.1117 54.502 96.2094 54.0624 96.2094 53.5631C96.2094 53.0638 96.1063 52.6296 95.9001 52.2606C95.7047 51.8807 95.4279 51.5876 95.0697 51.3814C94.7115 51.1643 94.2882 51.0557 93.7998 51.0557C93.3113 51.0557 92.8826 51.1643 92.5135 51.3814C92.1445 51.5876 91.8514 51.8807 91.6343 52.2606C91.4281 52.6296 91.325 53.0584 91.325 53.5468C91.325 54.0353 91.4281 54.4694 91.6343 54.8493C91.8514 55.2292 92.1445 55.5277 92.5135 55.7448C92.8934 55.9511 93.3276 56.0542 93.816 56.0542ZM106.062 57.7312C105.356 57.7312 104.716 57.5575 104.14 57.2102C103.565 56.852 103.109 56.369 102.773 55.7611C102.447 55.1533 102.284 54.4694 102.284 53.7096C102.284 52.9498 102.447 52.266 102.773 51.6582C103.109 51.0503 103.56 50.5673 104.124 50.2091C104.699 49.8509 105.345 49.6718 106.062 49.6718C106.648 49.6718 107.169 49.7966 107.625 50.0463C108.091 50.2851 108.466 50.6216 108.748 51.0557C109.03 51.4791 109.188 51.9729 109.22 52.5374V54.8656C109.188 55.4192 109.03 55.9131 108.748 56.3472C108.477 56.7814 108.108 57.1233 107.641 57.373C107.185 57.6118 106.659 57.7312 106.062 57.7312ZM106.306 56.3472C107.033 56.3472 107.619 56.103 108.064 55.6146C108.509 55.1153 108.732 54.4803 108.732 53.7096C108.732 53.1778 108.629 52.7165 108.422 52.3257C108.227 51.9241 107.945 51.6147 107.576 51.3976C107.207 51.1697 106.778 51.0557 106.29 51.0557C105.801 51.0557 105.367 51.1697 104.987 51.3976C104.618 51.6256 104.325 51.9404 104.108 52.342C103.902 52.7327 103.798 53.1832 103.798 53.6933C103.798 54.2144 103.902 54.6757 104.108 55.0773C104.325 55.468 104.623 55.7774 105.003 56.0053C105.383 56.2333 105.817 56.3472 106.306 56.3472ZM108.634 57.5684V55.4843L108.911 53.5957L108.634 51.7233V49.8346H110.116V57.5684H108.634ZM117.541 57.5684V53.0584C117.541 52.4722 117.356 51.9892 116.987 51.6093C116.618 51.2294 116.14 51.0395 115.554 51.0395C115.163 51.0395 114.816 51.1263 114.512 51.3C114.208 51.4736 113.969 51.7124 113.796 52.0163C113.622 52.3203 113.535 52.6676 113.535 53.0584L112.933 52.7165C112.933 52.1303 113.063 51.6093 113.324 51.1534C113.584 50.6975 113.948 50.3393 114.415 50.0788C114.881 49.8075 115.408 49.6718 115.994 49.6718C116.58 49.6718 117.096 49.8183 117.541 50.1114C117.996 50.4045 118.355 50.7898 118.615 51.2674C118.876 51.7341 119.006 52.2334 119.006 52.7653V57.5684H117.541ZM112.07 57.5684V49.8346H113.535V57.5684H112.07ZM124.083 57.7312C123.367 57.7312 122.727 57.5575 122.162 57.2102C121.598 56.852 121.147 56.369 120.811 55.7611C120.485 55.1533 120.322 54.4694 120.322 53.7096C120.322 52.9498 120.485 52.266 120.811 51.6582C121.147 51.0503 121.598 50.5673 122.162 50.2091C122.727 49.8509 123.367 49.6718 124.083 49.6718C124.659 49.6718 125.18 49.7966 125.646 50.0463C126.113 50.2851 126.488 50.6216 126.77 51.0557C127.063 51.4791 127.226 51.9729 127.258 52.5374V54.8656C127.226 55.4192 127.068 55.9131 126.786 56.3472C126.504 56.7814 126.129 57.1233 125.663 57.373C125.196 57.6118 124.669 57.7312 124.083 57.7312ZM124.328 56.3472C124.816 56.3472 125.239 56.2333 125.598 56.0053C125.967 55.7774 126.254 55.468 126.46 55.0773C126.667 54.6757 126.77 54.2198 126.77 53.7096C126.77 53.1778 126.661 52.7165 126.444 52.3257C126.238 51.9349 125.95 51.6256 125.581 51.3976C125.223 51.1697 124.8 51.0557 124.311 51.0557C123.823 51.0557 123.394 51.1697 123.025 51.3976C122.656 51.6256 122.363 51.9404 122.146 52.342C121.94 52.7327 121.836 53.1832 121.836 53.6933C121.836 54.2144 121.94 54.6757 122.146 55.0773C122.363 55.468 122.656 55.7774 123.025 56.0053C123.405 56.2333 123.839 56.3472 124.328 56.3472ZM128.154 57.5684H126.672V55.4843L126.949 53.5957L126.672 51.7233V45.9433H128.154V57.5684ZM27.7527 81.7312C27.1232 81.7312 26.5533 81.5901 26.0432 81.3079C25.5439 81.0148 25.1531 80.6132 24.8709 80.103C24.5887 79.5929 24.4476 79.0013 24.4476 78.3283V73.8346H25.9129V78.2632C25.9129 78.6865 25.9835 79.0556 26.1246 79.3703C26.2765 79.6743 26.4936 79.9076 26.7758 80.0705C27.058 80.2333 27.3891 80.3147 27.769 80.3147C28.3443 80.3147 28.7947 80.1356 29.1204 79.7774C29.446 79.4083 29.6088 78.9036 29.6088 78.2632V73.8346H31.0742V78.3283C31.0742 79.0013 30.9331 79.5929 30.6508 80.103C30.3686 80.6132 29.9779 81.0148 29.4786 81.3079C28.9901 81.5901 28.4148 81.7312 27.7527 81.7312ZM38.3296 81.5684V77.0584C38.3296 76.4722 38.1451 75.9892 37.7761 75.6093C37.407 75.2294 36.9294 75.0395 36.3433 75.0395C35.9525 75.0395 35.6052 75.1263 35.3013 75.3C34.9973 75.4736 34.7585 75.7124 34.5849 76.0163C34.4112 76.3203 34.3244 76.6676 34.3244 77.0584L33.7219 76.7165C33.7219 76.1303 33.8522 75.6093 34.1127 75.1534C34.3732 74.6975 34.7368 74.3393 35.2036 74.0788C35.6703 73.8075 36.1967 73.6718 36.7829 73.6718C37.369 73.6718 37.8846 73.8183 38.3296 74.1114C38.7855 74.4045 39.1437 74.7898 39.4042 75.2674C39.6647 75.7341 39.795 76.2334 39.795 76.7653V81.5684H38.3296ZM32.859 81.5684V73.8346H34.3244V81.5684H32.859ZM41.6161 81.5684V73.8346H43.0814V81.5684H41.6161ZM42.3488 72.2879C42.0774 72.2879 41.8549 72.201 41.6812 72.0274C41.5075 71.8428 41.4207 71.6149 41.4207 71.3435C41.4207 71.083 41.5075 70.8659 41.6812 70.6923C41.8549 70.5078 42.0774 70.4155 42.3488 70.4155C42.6201 70.4155 42.8426 70.5078 43.0163 70.6923C43.19 70.8659 43.2768 71.083 43.2768 71.3435C43.2768 71.6149 43.19 71.8428 43.0163 72.0274C42.8426 72.201 42.6201 72.2879 42.3488 72.2879ZM48.367 81.7312C47.6506 81.7312 47.0047 81.5575 46.4295 81.2102C45.8542 80.852 45.3983 80.369 45.0618 79.7611C44.7362 79.1533 44.5734 78.4694 44.5734 77.7096C44.5734 76.9498 44.7362 76.266 45.0618 75.6582C45.3983 75.0503 45.8542 74.5673 46.4295 74.2091C47.0047 73.8509 47.6451 73.6718 48.3507 73.6718C48.9477 73.6718 49.4741 73.7966 49.93 74.0463C50.3967 74.2851 50.7658 74.6216 51.0371 75.0557C51.3193 75.4791 51.4767 75.9729 51.5093 76.5374V78.8656C51.4767 79.4192 51.3193 79.9131 51.0371 80.3472C50.7658 80.7814 50.3967 81.1233 49.93 81.373C49.4741 81.6118 48.9531 81.7312 48.367 81.7312ZM48.5949 80.3472C49.3221 80.3472 49.9083 80.103 50.3533 79.6146C50.7983 79.1153 51.0209 78.4803 51.0209 77.7096C51.0209 77.1778 50.9177 76.7165 50.7115 76.3257C50.5161 75.9241 50.2339 75.6147 49.8649 75.3976C49.5067 75.1697 49.0833 75.0557 48.5949 75.0557C48.1065 75.0557 47.6723 75.1697 47.2924 75.3976C46.9233 75.6256 46.6303 75.9404 46.4132 76.342C46.1961 76.7327 46.0875 77.1832 46.0875 77.6933C46.0875 78.2144 46.1961 78.6757 46.4132 79.0773C46.6303 79.468 46.9233 79.7774 47.2924 80.0053C47.6723 80.2333 48.1065 80.3472 48.5949 80.3472ZM50.9394 84.8084V79.6309L51.1999 77.7422L50.9394 75.8698V73.8346H52.4048V84.8084H50.9394ZM57.4848 81.7312C56.8552 81.7312 56.2854 81.5901 55.7752 81.3079C55.2759 81.0148 54.8851 80.6132 54.6029 80.103C54.3207 79.5929 54.1796 79.0013 54.1796 78.3283V73.8346H55.6449V78.2632C55.6449 78.6865 55.7155 79.0556 55.8566 79.3703C56.0086 79.6743 56.2257 79.9076 56.5079 80.0705C56.7901 80.2333 57.1211 80.3147 57.501 80.3147C58.0763 80.3147 58.5268 80.1356 58.8524 79.7774C59.178 79.4083 59.3409 78.9036 59.3409 78.2632V73.8346H60.8062V78.3283C60.8062 79.0013 60.6651 79.5929 60.3829 80.103C60.1007 80.6132 59.7099 81.0148 59.2106 81.3079C58.7222 81.5901 58.1469 81.7312 57.4848 81.7312ZM66.173 81.7312C65.4023 81.7312 64.7077 81.5575 64.089 81.2102C63.4703 80.852 62.9818 80.369 62.6236 79.7611C62.2654 79.1533 62.0863 78.464 62.0863 77.6933C62.0863 76.9335 62.26 76.2497 62.6073 75.6419C62.9655 75.034 63.4431 74.5564 64.0401 74.2091C64.648 73.8509 65.3264 73.6718 66.0753 73.6718C66.7917 73.6718 67.4213 73.8346 67.964 74.1602C68.5176 74.4859 68.9463 74.9363 69.2502 75.5116C69.565 76.0869 69.7224 76.7382 69.7224 77.4654C69.7224 77.5739 69.717 77.6933 69.7061 77.8236C69.6953 77.943 69.6735 78.0841 69.641 78.2469H63.1121V77.0258H68.8595L68.3222 77.498C68.3222 76.977 68.2299 76.5374 68.0454 76.1792C67.8609 75.8101 67.6004 75.5279 67.2639 75.3325C66.9274 75.1263 66.5203 75.0232 66.0428 75.0232C65.5435 75.0232 65.1039 75.1317 64.7239 75.3488C64.344 75.5659 64.051 75.8698 63.8447 76.2606C63.6385 76.6513 63.5354 77.1126 63.5354 77.6445C63.5354 78.1872 63.6439 78.6648 63.861 79.0773C64.0781 79.4789 64.3875 79.7937 64.7891 80.0216C65.1907 80.2387 65.652 80.3472 66.173 80.3472C66.6072 80.3472 67.0034 80.2713 67.3616 80.1193C67.7306 79.9673 68.0454 79.7394 68.3059 79.4355L69.2502 80.3961C68.8812 80.8303 68.4253 81.1613 67.8826 81.3893C67.3507 81.6172 66.7809 81.7312 66.173 81.7312Z" fill="#242424"/>
<path d="M24.2188 148.578V142.658H27.9307V143.427H25.1121V145.23H27.737V145.997H25.1121V147.809H27.9654V148.578H24.2188ZM32.6741 144.138L31.0639 148.578H30.1388L28.5257 144.138H29.4537L30.5782 147.555H30.6245L31.7461 144.138H32.6741ZM35.0181 150.336C34.6654 150.336 34.3618 150.29 34.1074 150.197C33.8549 150.105 33.6487 149.982 33.4888 149.83C33.3288 149.678 33.2093 149.511 33.1303 149.33L33.8733 149.023C33.9253 149.108 33.9947 149.198 34.0814 149.292C34.1701 149.389 34.2895 149.47 34.4399 149.538C34.5921 149.605 34.7877 149.639 35.0267 149.639C35.3544 149.639 35.6251 149.559 35.8391 149.399C36.053 149.241 36.16 148.989 36.16 148.642V147.769H36.105C36.053 147.863 35.9778 147.968 35.8795 148.084C35.7832 148.199 35.6502 148.3 35.4806 148.384C35.311 148.469 35.0903 148.512 34.8186 148.512C34.4678 148.512 34.1517 148.43 33.8704 148.266C33.5909 148.1 33.3693 147.856 33.2055 147.535C33.0436 147.211 32.9626 146.813 32.9626 146.341C32.9626 145.868 33.0426 145.464 33.2026 145.126C33.3645 144.789 33.5861 144.531 33.8675 144.352C34.1489 144.17 34.4678 144.08 34.8244 144.08C35.1 144.08 35.3226 144.126 35.4922 144.219C35.6618 144.309 35.7938 144.415 35.8882 144.537C35.9846 144.658 36.0588 144.765 36.1108 144.858H36.1744V144.138H37.0215V148.676C37.0215 149.058 36.9328 149.371 36.7555 149.616C36.5782 149.861 36.3382 150.042 36.0357 150.159C35.735 150.277 35.3958 150.336 35.0181 150.336ZM35.0094 147.795C35.258 147.795 35.4681 147.737 35.6396 147.621C35.8131 147.504 35.9441 147.336 36.0328 147.118C36.1233 146.899 36.1686 146.635 36.1686 146.329C36.1686 146.03 36.1243 145.767 36.0357 145.54C35.947 145.312 35.8169 145.135 35.6454 145.008C35.4739 144.879 35.2619 144.814 35.0094 144.814C34.7492 144.814 34.5324 144.882 34.3589 145.017C34.1855 145.15 34.0544 145.331 33.9658 145.56C33.879 145.789 33.8357 146.046 33.8357 146.329C33.8357 146.62 33.88 146.875 33.9687 147.095C34.0573 147.315 34.1884 147.486 34.3618 147.61C34.5372 147.733 34.7531 147.795 35.0094 147.795ZM39.9154 148.668C39.4779 148.668 39.1011 148.574 38.785 148.387C38.4709 148.198 38.2281 147.933 38.0565 147.592C37.8869 147.249 37.8021 146.847 37.8021 146.387C37.8021 145.932 37.8869 145.531 38.0565 145.184C38.2281 144.837 38.467 144.567 38.7735 144.372C39.0818 144.177 39.4422 144.08 39.8547 144.08C40.1052 144.08 40.3481 144.121 40.5832 144.204C40.8183 144.287 41.0293 144.417 41.2163 144.594C41.4032 144.772 41.5507 145.002 41.6586 145.285C41.7665 145.567 41.8205 145.909 41.8205 146.312V146.618H38.2907V145.971H40.9735C40.9735 145.743 40.9272 145.542 40.8347 145.366C40.7422 145.189 40.6121 145.049 40.4444 144.947C40.2787 144.845 40.084 144.794 39.8605 144.794C39.6176 144.794 39.4056 144.854 39.2245 144.973C39.0452 145.091 38.9065 145.245 38.8082 145.436C38.7118 145.625 38.6636 145.83 38.6636 146.051V146.557C38.6636 146.854 38.7157 147.107 38.8197 147.315C38.9257 147.523 39.0732 147.682 39.262 147.792C39.4509 147.9 39.6716 147.954 39.9241 147.954C40.0879 147.954 40.2372 147.931 40.3721 147.884C40.5071 147.836 40.6237 147.765 40.7219 147.67C40.8202 147.576 40.8954 147.459 40.9474 147.321L41.7656 147.468C41.7 147.709 41.5825 147.92 41.4129 148.101C41.2452 148.28 41.0342 148.42 40.7798 148.52C40.5273 148.619 40.2392 148.668 39.9154 148.668ZM43.4648 145.942V148.578H42.6004V144.138H43.4301V144.86H43.4851C43.5872 144.625 43.7472 144.436 43.965 144.294C44.1847 144.151 44.4612 144.08 44.7946 144.08C45.0972 144.08 45.3622 144.143 45.5896 144.271C45.8171 144.396 45.9934 144.583 46.1187 144.832C46.2439 145.08 46.3066 145.388 46.3066 145.754V148.578H45.4422V145.858C45.4422 145.536 45.3584 145.284 45.1907 145.103C45.023 144.92 44.7927 144.829 44.4998 144.829C44.2993 144.829 44.1211 144.872 43.965 144.959C43.8108 145.045 43.6884 145.173 43.5978 145.34C43.5092 145.506 43.4648 145.706 43.4648 145.942ZM47.2867 148.578V144.138H48.1511V148.578H47.2867ZM47.7233 143.453C47.5729 143.453 47.4438 143.402 47.3359 143.302C47.2299 143.2 47.1769 143.079 47.1769 142.938C47.1769 142.795 47.2299 142.674 47.3359 142.574C47.4438 142.472 47.5729 142.421 47.7233 142.421C47.8736 142.421 48.0018 142.472 48.1078 142.574C48.2157 142.674 48.2696 142.795 48.2696 142.938C48.2696 143.079 48.2157 143.2 48.1078 143.302C48.0018 143.402 47.8736 143.453 47.7233 143.453ZM50.4271 148.676C50.1457 148.676 49.8913 148.624 49.6639 148.52C49.4365 148.414 49.2563 148.261 49.1233 148.061C48.9923 147.86 48.9267 147.614 48.9267 147.323C48.9267 147.073 48.9749 146.867 49.0713 146.705C49.1676 146.543 49.2977 146.415 49.4616 146.32C49.6254 146.226 49.8085 146.155 50.0108 146.106C50.2132 146.058 50.4194 146.022 50.6295 145.997C50.8954 145.966 51.1113 145.941 51.277 145.921C51.4428 145.9 51.5632 145.866 51.6384 145.82C51.7136 145.774 51.7512 145.699 51.7512 145.595V145.574C51.7512 145.322 51.6798 145.126 51.5372 144.988C51.3965 144.849 51.1865 144.779 50.907 144.779C50.616 144.779 50.3866 144.844 50.219 144.973C50.0532 145.1 49.9386 145.242 49.875 145.398L49.0626 145.213C49.159 144.943 49.2997 144.726 49.4847 144.56C49.6716 144.392 49.8865 144.271 50.1294 144.196C50.3722 144.118 50.6276 144.08 50.8954 144.08C51.0728 144.08 51.2607 144.101 51.4592 144.143C51.6596 144.184 51.8466 144.259 52.02 144.369C52.1954 144.479 52.339 144.636 52.4508 144.84C52.5625 145.043 52.6184 145.306 52.6184 145.629V148.578H51.7743V147.971H51.7396C51.6837 148.083 51.5999 148.193 51.4881 148.301C51.3763 148.409 51.2327 148.498 51.0573 148.569C50.882 148.641 50.6719 148.676 50.4271 148.676ZM50.615 147.983C50.854 147.983 51.0583 147.935 51.2279 147.841C51.3994 147.747 51.5295 147.623 51.6182 147.471C51.7088 147.317 51.754 147.152 51.754 146.977V146.404C51.7232 146.435 51.6635 146.464 51.5748 146.491C51.4881 146.516 51.3888 146.538 51.277 146.557C51.1653 146.575 51.0564 146.591 50.9504 146.607C50.8444 146.62 50.7557 146.632 50.6844 146.641C50.5167 146.662 50.3635 146.698 50.2248 146.748C50.0879 146.798 49.9781 146.871 49.8952 146.965C49.8142 147.058 49.7738 147.181 49.7738 147.335C49.7738 147.549 49.8528 147.711 50.0108 147.821C50.1689 147.929 50.3703 147.983 50.615 147.983Z" fill="black" fill-opacity="0.4"/>
</g>
<g filter="url(#filter1_ddd_406_5941)">
<rect width="163" height="163" transform="translate(203 2)" fill="#A2CFD2"/>
<path d="M221.046 33.7312C220.156 33.7312 219.396 33.5684 218.766 33.2427C218.137 32.9171 217.578 32.4449 217.089 31.8262L218.131 30.7842C218.49 31.2835 218.902 31.6634 219.369 31.9239C219.836 32.1736 220.411 32.2984 221.095 32.2984C221.768 32.2984 222.305 32.1519 222.707 31.8588C223.119 31.5657 223.325 31.1641 223.325 30.654C223.325 30.2306 223.228 29.8887 223.032 29.6282C222.837 29.3677 222.571 29.1561 222.234 28.9932C221.909 28.8196 221.551 28.6676 221.16 28.5374C220.769 28.3962 220.378 28.2497 219.987 28.0978C219.597 27.9349 219.239 27.7396 218.913 27.5116C218.587 27.2728 218.321 26.9635 218.115 26.5836C217.92 26.2037 217.822 25.7261 217.822 25.1508C217.822 24.5104 217.974 23.9677 218.278 23.5226C218.593 23.0668 219.016 22.7194 219.548 22.4806C220.091 22.231 220.698 22.1061 221.371 22.1061C222.11 22.1061 222.772 22.2527 223.358 22.5457C223.944 22.828 224.421 23.2024 224.791 23.6692L223.749 24.7112C223.412 24.3204 223.048 24.0274 222.658 23.832C222.278 23.6366 221.838 23.5389 221.339 23.5389C220.731 23.5389 220.248 23.6746 219.89 23.946C219.532 24.2065 219.353 24.5755 219.353 25.0531C219.353 25.433 219.45 25.7424 219.646 25.9812C219.852 26.2091 220.118 26.4045 220.443 26.5673C220.769 26.7301 221.127 26.8821 221.518 27.0232C221.92 27.1534 222.316 27.3 222.707 27.4628C223.097 27.6256 223.455 27.8318 223.781 28.0815C224.107 28.3311 224.367 28.6568 224.563 29.0584C224.769 29.4491 224.872 29.943 224.872 30.54C224.872 31.5386 224.525 32.3201 223.83 32.8845C223.146 33.449 222.218 33.7312 221.046 33.7312ZM229.673 33.7312C228.967 33.7312 228.327 33.5575 227.751 33.2102C227.176 32.852 226.72 32.369 226.384 31.7611C226.058 31.1533 225.895 30.4694 225.895 29.7096C225.895 28.9498 226.058 28.266 226.384 27.6582C226.72 27.0503 227.171 26.5673 227.735 26.2091C228.31 25.8509 228.956 25.6718 229.673 25.6718C230.259 25.6718 230.78 25.7966 231.236 26.0463C231.702 26.2851 232.077 26.6216 232.359 27.0557C232.641 27.4791 232.799 27.9729 232.831 28.5374V30.8656C232.799 31.4192 232.641 31.9131 232.359 32.3472C232.088 32.7814 231.719 33.1233 231.252 33.373C230.796 33.6118 230.27 33.7312 229.673 33.7312ZM229.917 32.3472C230.644 32.3472 231.23 32.103 231.675 31.6146C232.12 31.1153 232.343 30.4803 232.343 29.7096C232.343 29.1778 232.24 28.7165 232.033 28.3257C231.838 27.9241 231.556 27.6147 231.187 27.3976C230.818 27.1697 230.389 27.0557 229.901 27.0557C229.412 27.0557 228.978 27.1697 228.598 27.3976C228.229 27.6256 227.936 27.9404 227.719 28.342C227.513 28.7327 227.409 29.1832 227.409 29.6933C227.409 30.2144 227.513 30.6757 227.719 31.0773C227.936 31.468 228.234 31.7774 228.614 32.0053C228.994 32.2333 229.428 32.3472 229.917 32.3472ZM232.245 33.5684V31.4843L232.522 29.5957L232.245 27.7233V25.8346H233.727V33.5684H232.245ZM238.335 33.5684L234.786 25.8346H236.414L239.263 32.3635H238.319L241.184 25.8346H242.747L239.198 33.5684H238.335ZM247.097 33.7312C246.327 33.7312 245.632 33.5575 245.013 33.2102C244.395 32.852 243.906 32.369 243.548 31.7611C243.19 31.1533 243.011 30.464 243.011 29.6933C243.011 28.9335 243.184 28.2497 243.532 27.6419C243.89 27.034 244.368 26.5564 244.965 26.2091C245.572 25.8509 246.251 25.6718 247 25.6718C247.716 25.6718 248.346 25.8346 248.888 26.1602C249.442 26.4859 249.871 26.9363 250.175 27.5116C250.489 28.0869 250.647 28.7382 250.647 29.4654C250.647 29.5739 250.641 29.6933 250.631 29.8236C250.62 29.943 250.598 30.0841 250.565 30.2469H244.036V29.0258H249.784L249.247 29.498C249.247 28.977 249.154 28.5374 248.97 28.1792C248.785 27.8101 248.525 27.5279 248.188 27.3325C247.852 27.1263 247.445 27.0232 246.967 27.0232C246.468 27.0232 246.028 27.1317 245.648 27.3488C245.268 27.5659 244.975 27.8698 244.769 28.2606C244.563 28.6513 244.46 29.1126 244.46 29.6445C244.46 30.1872 244.568 30.6648 244.785 31.0773C245.003 31.4789 245.312 31.7937 245.713 32.0216C246.115 32.2387 246.576 32.3472 247.097 32.3472C247.532 32.3472 247.928 32.2713 248.286 32.1193C248.655 31.9673 248.97 31.7394 249.23 31.4355L250.175 32.3961C249.806 32.8303 249.35 33.1613 248.807 33.3893C248.275 33.6172 247.705 33.7312 247.097 33.7312ZM255.273 33.5684V25.8346H256.738V33.5684H255.273ZM260.499 33.5684V28.8956C260.499 28.3203 260.32 27.8698 259.962 27.5442C259.615 27.2077 259.175 27.0395 258.643 27.0395C258.285 27.0395 257.965 27.1154 257.683 27.2674C257.401 27.4194 257.173 27.631 256.999 27.9024C256.825 28.1737 256.738 28.4994 256.738 28.8793L256.136 28.5862C256.136 28.0001 256.261 27.4899 256.51 27.0557C256.771 26.6216 257.124 26.2851 257.569 26.0463C258.014 25.7966 258.513 25.6718 259.067 25.6718C259.609 25.6718 260.098 25.7912 260.532 26.03C260.977 26.2688 261.324 26.6053 261.574 27.0395C261.835 27.4736 261.965 27.9892 261.965 28.5862V33.5684H260.499ZM265.726 33.5684V28.8956C265.726 28.3203 265.547 27.8698 265.189 27.5442C264.841 27.2077 264.407 27.0395 263.886 27.0395C263.528 27.0395 263.202 27.1154 262.909 27.2674C262.627 27.4194 262.399 27.631 262.225 27.9024C262.052 28.1737 261.965 28.4994 261.965 28.8793L261.134 28.5862C261.167 27.9892 261.324 27.4791 261.607 27.0557C261.9 26.6216 262.274 26.2851 262.73 26.0463C263.186 25.7966 263.685 25.6718 264.228 25.6718C264.792 25.6718 265.297 25.7912 265.742 26.03C266.187 26.2688 266.54 26.6053 266.8 27.0395C267.072 27.4736 267.207 27.9946 267.207 28.6025V33.5684H265.726ZM272.555 33.7312C271.796 33.7312 271.112 33.5521 270.504 33.1939C269.896 32.8357 269.413 32.3527 269.055 31.7448C268.697 31.1261 268.518 30.4369 268.518 29.6771C268.518 28.9281 268.697 28.2551 269.055 27.6582C269.413 27.0503 269.896 26.5673 270.504 26.2091C271.112 25.8509 271.796 25.6718 272.555 25.6718C273.304 25.6718 273.983 25.8509 274.591 26.2091C275.209 26.5564 275.698 27.034 276.056 27.6419C276.414 28.2497 276.593 28.9281 276.593 29.6771C276.593 30.4369 276.414 31.1261 276.056 31.7448C275.698 32.3527 275.209 32.8357 274.591 33.1939C273.983 33.5521 273.304 33.7312 272.555 33.7312ZM272.555 32.3147C273.044 32.3147 273.478 32.2007 273.858 31.9728C274.238 31.7448 274.536 31.4355 274.753 31.0447C274.971 30.6431 275.079 30.1872 275.079 29.6771C275.079 29.1778 274.965 28.7327 274.737 28.342C274.52 27.9512 274.222 27.6473 273.842 27.4302C273.473 27.2023 273.044 27.0883 272.555 27.0883C272.067 27.0883 271.633 27.2023 271.253 27.4302C270.873 27.6473 270.575 27.9512 270.357 28.342C270.14 28.7327 270.032 29.1778 270.032 29.6771C270.032 30.1872 270.14 30.6431 270.357 31.0447C270.575 31.4355 270.873 31.7448 271.253 31.9728C271.633 32.2007 272.067 32.3147 272.555 32.3147ZM283.536 33.5684V29.0584C283.536 28.4722 283.351 27.9892 282.982 27.6093C282.613 27.2294 282.136 27.0395 281.549 27.0395C281.159 27.0395 280.811 27.1263 280.507 27.3C280.204 27.4736 279.965 27.7124 279.791 28.0163C279.617 28.3203 279.531 28.6676 279.531 29.0584L278.928 28.7165C278.928 28.1303 279.058 27.6093 279.319 27.1534C279.579 26.6975 279.943 26.3393 280.41 26.0788C280.876 25.8075 281.403 25.6718 281.989 25.6718C282.575 25.6718 283.091 25.8183 283.536 26.1114C283.992 26.4045 284.35 26.7898 284.61 27.2674C284.871 27.7341 285.001 28.2334 285.001 28.7653V33.5684H283.536ZM278.065 33.5684V25.8346H279.531V33.5684H278.065ZM290.388 33.7312C289.617 33.7312 288.923 33.5575 288.304 33.2102C287.685 32.852 287.197 32.369 286.839 31.7611C286.48 31.1533 286.301 30.464 286.301 29.6933C286.301 28.9335 286.475 28.2497 286.822 27.6419C287.18 27.034 287.658 26.5564 288.255 26.2091C288.863 25.8509 289.541 25.6718 290.29 25.6718C291.007 25.6718 291.636 25.8346 292.179 26.1602C292.732 26.4859 293.161 26.9363 293.465 27.5116C293.78 28.0869 293.937 28.7382 293.937 29.4654C293.937 29.5739 293.932 29.6933 293.921 29.8236C293.91 29.943 293.888 30.0841 293.856 30.2469H287.327V29.0258H293.074L292.537 29.498C292.537 28.977 292.445 28.5374 292.26 28.1792C292.076 27.8101 291.815 27.5279 291.479 27.3325C291.142 27.1263 290.735 27.0232 290.258 27.0232C289.758 27.0232 289.319 27.1317 288.939 27.3488C288.559 27.5659 288.266 27.8698 288.06 28.2606C287.853 28.6513 287.75 29.1126 287.75 29.6445C287.75 30.1872 287.859 30.6648 288.076 31.0773C288.293 31.4789 288.602 31.7937 289.004 32.0216C289.406 32.2387 289.867 32.3472 290.388 32.3472C290.822 32.3472 291.218 32.2713 291.576 32.1193C291.946 31.9673 292.26 31.7394 292.521 31.4355L293.465 32.3961C293.096 32.8303 292.64 33.1613 292.098 33.3893C291.566 33.6172 290.996 33.7312 290.388 33.7312ZM297.769 33.6335L294.415 25.8346H296.043L298.534 31.9402H298.013L300.634 25.8346H302.262L298.648 33.6335H297.769ZM295.554 36.8084L297.834 32.1356L298.648 33.6335L297.183 36.8084H295.554Z" fill="#242424"/>
<path d="M217.219 148.578V142.658H220.931V143.427H218.112V145.23H220.737V145.997H218.112V147.809H220.965V148.578H217.219ZM225.674 144.138L224.064 148.578H223.139L221.526 144.138H222.454L223.578 147.555H223.624L224.746 144.138H225.674ZM228.018 150.336C227.665 150.336 227.362 150.29 227.107 150.197C226.855 150.105 226.649 149.982 226.489 149.83C226.329 149.678 226.209 149.511 226.13 149.33L226.873 149.023C226.925 149.108 226.995 149.198 227.081 149.292C227.17 149.389 227.29 149.47 227.44 149.538C227.592 149.605 227.788 149.639 228.027 149.639C228.354 149.639 228.625 149.559 228.839 149.399C229.053 149.241 229.16 148.989 229.16 148.642V147.769H229.105C229.053 147.863 228.978 147.968 228.88 148.084C228.783 148.199 228.65 148.3 228.481 148.384C228.311 148.469 228.09 148.512 227.819 148.512C227.468 148.512 227.152 148.43 226.87 148.266C226.591 148.1 226.369 147.856 226.205 147.535C226.044 147.211 225.963 146.813 225.963 146.341C225.963 145.868 226.043 145.464 226.203 145.126C226.364 144.789 226.586 144.531 226.867 144.352C227.149 144.17 227.468 144.08 227.824 144.08C228.1 144.08 228.323 144.126 228.492 144.219C228.662 144.309 228.794 144.415 228.888 144.537C228.985 144.658 229.059 144.765 229.111 144.858H229.174V144.138H230.021V148.676C230.021 149.058 229.933 149.371 229.755 149.616C229.578 149.861 229.338 150.042 229.036 150.159C228.735 150.277 228.396 150.336 228.018 150.336ZM228.009 147.795C228.258 147.795 228.468 147.737 228.64 147.621C228.813 147.504 228.944 147.336 229.033 147.118C229.123 146.899 229.169 146.635 229.169 146.329C229.169 146.03 229.124 145.767 229.036 145.54C228.947 145.312 228.817 145.135 228.645 145.008C228.474 144.879 228.262 144.814 228.009 144.814C227.749 144.814 227.532 144.882 227.359 145.017C227.185 145.15 227.054 145.331 226.966 145.56C226.879 145.789 226.836 146.046 226.836 146.329C226.836 146.62 226.88 146.875 226.969 147.095C227.057 147.315 227.188 147.486 227.362 147.61C227.537 147.733 227.753 147.795 228.009 147.795ZM232.915 148.668C232.478 148.668 232.101 148.574 231.785 148.387C231.471 148.198 231.228 147.933 231.057 147.592C230.887 147.249 230.802 146.847 230.802 146.387C230.802 145.932 230.887 145.531 231.057 145.184C231.228 144.837 231.467 144.567 231.773 144.372C232.082 144.177 232.442 144.08 232.855 144.08C233.105 144.08 233.348 144.121 233.583 144.204C233.818 144.287 234.029 144.417 234.216 144.594C234.403 144.772 234.551 145.002 234.659 145.285C234.767 145.567 234.82 145.909 234.82 146.312V146.618H231.291V145.971H233.973C233.973 145.743 233.927 145.542 233.835 145.366C233.742 145.189 233.612 145.049 233.444 144.947C233.279 144.845 233.084 144.794 232.86 144.794C232.618 144.794 232.406 144.854 232.224 144.973C232.045 145.091 231.906 145.245 231.808 145.436C231.712 145.625 231.664 145.83 231.664 146.051V146.557C231.664 146.854 231.716 147.107 231.82 147.315C231.926 147.523 232.073 147.682 232.262 147.792C232.451 147.9 232.672 147.954 232.924 147.954C233.088 147.954 233.237 147.931 233.372 147.884C233.507 147.836 233.624 147.765 233.722 147.67C233.82 147.576 233.895 147.459 233.947 147.321L234.766 147.468C234.7 147.709 234.582 147.92 234.413 148.101C234.245 148.28 234.034 148.42 233.78 148.52C233.527 148.619 233.239 148.668 232.915 148.668ZM236.465 145.942V148.578H235.6V144.138H236.43V144.86H236.485C236.587 144.625 236.747 144.436 236.965 144.294C237.185 144.151 237.461 144.08 237.795 144.08C238.097 144.08 238.362 144.143 238.59 144.271C238.817 144.396 238.993 144.583 239.119 144.832C239.244 145.08 239.307 145.388 239.307 145.754V148.578H238.442V145.858C238.442 145.536 238.358 145.284 238.191 145.103C238.023 144.92 237.793 144.829 237.5 144.829C237.299 144.829 237.121 144.872 236.965 144.959C236.811 145.045 236.688 145.173 236.598 145.34C236.509 145.506 236.465 145.706 236.465 145.942ZM240.287 148.578V144.138H241.151V148.578H240.287ZM240.723 143.453C240.573 143.453 240.444 143.402 240.336 143.302C240.23 143.2 240.177 143.079 240.177 142.938C240.177 142.795 240.23 142.674 240.336 142.574C240.444 142.472 240.573 142.421 240.723 142.421C240.874 142.421 241.002 142.472 241.108 142.574C241.216 142.674 241.27 142.795 241.27 142.938C241.27 143.079 241.216 143.2 241.108 143.302C241.002 143.402 240.874 143.453 240.723 143.453ZM243.427 148.676C243.146 148.676 242.891 148.624 242.664 148.52C242.437 148.414 242.256 148.261 242.123 148.061C241.992 147.86 241.927 147.614 241.927 147.323C241.927 147.073 241.975 146.867 242.071 146.705C242.168 146.543 242.298 146.415 242.462 146.32C242.625 146.226 242.808 146.155 243.011 146.106C243.213 146.058 243.419 146.022 243.629 145.997C243.895 145.966 244.111 145.941 244.277 145.921C244.443 145.9 244.563 145.866 244.638 145.82C244.714 145.774 244.751 145.699 244.751 145.595V145.574C244.751 145.322 244.68 145.126 244.537 144.988C244.397 144.849 244.186 144.779 243.907 144.779C243.616 144.779 243.387 144.844 243.219 144.973C243.053 145.1 242.939 145.242 242.875 145.398L242.063 145.213C242.159 144.943 242.3 144.726 242.485 144.56C242.672 144.392 242.887 144.271 243.129 144.196C243.372 144.118 243.628 144.08 243.895 144.08C244.073 144.08 244.261 144.101 244.459 144.143C244.66 144.184 244.847 144.259 245.02 144.369C245.195 144.479 245.339 144.636 245.451 144.84C245.563 145.043 245.618 145.306 245.618 145.629V148.578H244.774V147.971H244.74C244.684 148.083 244.6 148.193 244.488 148.301C244.376 148.409 244.233 148.498 244.057 148.569C243.882 148.641 243.672 148.676 243.427 148.676ZM243.615 147.983C243.854 147.983 244.058 147.935 244.228 147.841C244.399 147.747 244.53 147.623 244.618 147.471C244.709 147.317 244.754 147.152 244.754 146.977V146.404C244.723 146.435 244.663 146.464 244.575 146.491C244.488 146.516 244.389 146.538 244.277 146.557C244.165 146.575 244.056 146.591 243.95 146.607C243.844 146.62 243.756 146.632 243.684 146.641C243.517 146.662 243.364 146.698 243.225 146.748C243.088 146.798 242.978 146.871 242.895 146.965C242.814 147.058 242.774 147.181 242.774 147.335C242.774 147.549 242.853 147.711 243.011 147.821C243.169 147.929 243.37 147.983 243.615 147.983Z" fill="black" fill-opacity="0.4"/>
</g>
<g filter="url(#filter2_ddd_406_5941)">
<rect width="163" height="163" transform="translate(396 2)" fill="#A2CFD2"/>
<path d="M410.903 33.5684V22.269H412.434V33.5684H410.903ZM411.945 33.5684V32.1681H418.426V33.5684H411.945ZM411.945 28.4559V27.1209H417.888V28.4559H411.945ZM411.945 23.6692V22.269H418.344V23.6692H411.945ZM425.538 33.5684V29.0584C425.538 28.4722 425.354 27.9892 424.984 27.6093C424.615 27.2294 424.138 27.0395 423.552 27.0395C423.161 27.0395 422.814 27.1263 422.51 27.3C422.206 27.4736 421.967 27.7124 421.793 28.0163C421.62 28.3203 421.533 28.6676 421.533 29.0584L420.93 28.7165C420.93 28.1303 421.061 27.6093 421.321 27.1534C421.582 26.6975 421.945 26.3393 422.412 26.0788C422.879 25.8075 423.405 25.6718 423.991 25.6718C424.577 25.6718 425.093 25.8183 425.538 26.1114C425.994 26.4045 426.352 26.7898 426.613 27.2674C426.873 27.7341 427.003 28.2334 427.003 28.7653V33.5684H425.538ZM420.067 33.5684V25.8346H421.533V33.5684H420.067ZM431.462 33.5684L427.913 25.8346H429.541L432.39 32.3635H431.446L434.311 25.8346H435.874L432.325 33.5684H431.462ZM436.961 33.5684V25.8346H438.426V33.5684H436.961ZM437.694 24.2879C437.422 24.2879 437.2 24.201 437.026 24.0274C436.853 23.8428 436.766 23.6149 436.766 23.3435C436.766 23.083 436.853 22.8659 437.026 22.6923C437.2 22.5078 437.422 22.4155 437.694 22.4155C437.965 22.4155 438.188 22.5078 438.361 22.6923C438.535 22.8659 438.622 23.083 438.622 23.3435C438.622 23.6149 438.535 23.8428 438.361 24.0274C438.188 24.201 437.965 24.2879 437.694 24.2879ZM440.407 33.5684V25.8346H441.872V33.5684H440.407ZM441.872 29.1561L441.319 28.9118C441.319 27.9241 441.546 27.1371 442.002 26.551C442.458 25.9649 443.115 25.6718 443.972 25.6718C444.363 25.6718 444.716 25.7424 445.031 25.8835C445.346 26.0137 445.639 26.2362 445.91 26.551L444.949 27.5442C444.787 27.3705 444.607 27.2457 444.412 27.1697C444.217 27.0937 443.989 27.0557 443.728 27.0557C443.186 27.0557 442.74 27.2294 442.393 27.5767C442.046 27.9241 441.872 28.4505 441.872 29.1561ZM450.041 33.7312C449.281 33.7312 448.598 33.5521 447.99 33.1939C447.382 32.8357 446.899 32.3527 446.541 31.7448C446.183 31.1261 446.003 30.4369 446.003 29.6771C446.003 28.9281 446.183 28.2551 446.541 27.6582C446.899 27.0503 447.382 26.5673 447.99 26.2091C448.598 25.8509 449.281 25.6718 450.041 25.6718C450.79 25.6718 451.469 25.8509 452.076 26.2091C452.695 26.5564 453.184 27.034 453.542 27.6419C453.9 28.2497 454.079 28.9281 454.079 29.6771C454.079 30.4369 453.9 31.1261 453.542 31.7448C453.184 32.3527 452.695 32.8357 452.076 33.1939C451.469 33.5521 450.79 33.7312 450.041 33.7312ZM450.041 32.3147C450.53 32.3147 450.964 32.2007 451.344 31.9728C451.724 31.7448 452.022 31.4355 452.239 31.0447C452.456 30.6431 452.565 30.1872 452.565 29.6771C452.565 29.1778 452.451 28.7327 452.223 28.342C452.006 27.9512 451.707 27.6473 451.328 27.4302C450.958 27.2023 450.53 27.0883 450.041 27.0883C449.553 27.0883 449.119 27.2023 448.739 27.4302C448.359 27.6473 448.06 27.9512 447.843 28.342C447.626 28.7327 447.518 29.1778 447.518 29.6771C447.518 30.1872 447.626 30.6431 447.843 31.0447C448.06 31.4355 448.359 31.7448 448.739 31.9728C449.119 32.2007 449.553 32.3147 450.041 32.3147ZM461.022 33.5684V29.0584C461.022 28.4722 460.837 27.9892 460.468 27.6093C460.099 27.2294 459.621 27.0395 459.035 27.0395C458.645 27.0395 458.297 27.1263 457.993 27.3C457.689 27.4736 457.451 27.7124 457.277 28.0163C457.103 28.3203 457.016 28.6676 457.016 29.0584L456.414 28.7165C456.414 28.1303 456.544 27.6093 456.805 27.1534C457.065 26.6975 457.429 26.3393 457.896 26.0788C458.362 25.8075 458.889 25.6718 459.475 25.6718C460.061 25.6718 460.577 25.8183 461.022 26.1114C461.478 26.4045 461.836 26.7898 462.096 27.2674C462.357 27.7341 462.487 28.2334 462.487 28.7653V33.5684H461.022ZM455.551 33.5684V25.8346H457.016V33.5684H455.551ZM464.292 33.5684V25.8346H465.757V33.5684H464.292ZM469.518 33.5684V28.8956C469.518 28.3203 469.339 27.8698 468.981 27.5442C468.634 27.2077 468.194 27.0395 467.662 27.0395C467.304 27.0395 466.984 27.1154 466.702 27.2674C466.419 27.4194 466.191 27.631 466.018 27.9024C465.844 28.1737 465.757 28.4994 465.757 28.8793L465.155 28.5862C465.155 28.0001 465.28 27.4899 465.529 27.0557C465.79 26.6216 466.143 26.2851 466.588 26.0463C467.033 25.7966 467.532 25.6718 468.085 25.6718C468.628 25.6718 469.117 25.7912 469.551 26.03C469.996 26.2688 470.343 26.6053 470.593 27.0395C470.853 27.4736 470.984 27.9892 470.984 28.5862V33.5684H469.518ZM474.745 33.5684V28.8956C474.745 28.3203 474.565 27.8698 474.207 27.5442C473.86 27.2077 473.426 27.0395 472.905 27.0395C472.547 27.0395 472.221 27.1154 471.928 27.2674C471.646 27.4194 471.418 27.631 471.244 27.9024C471.07 28.1737 470.984 28.4994 470.984 28.8793L470.153 28.5862C470.186 27.9892 470.343 27.4791 470.625 27.0557C470.918 26.6216 471.293 26.2851 471.749 26.0463C472.205 25.7966 472.704 25.6718 473.247 25.6718C473.811 25.6718 474.316 25.7912 474.761 26.03C475.206 26.2688 475.559 26.6053 475.819 27.0395C476.091 27.4736 476.226 27.9946 476.226 28.6025V33.5684H474.745ZM481.623 33.7312C480.852 33.7312 480.158 33.5575 479.539 33.2102C478.92 32.852 478.432 32.369 478.074 31.7611C477.715 31.1533 477.536 30.464 477.536 29.6933C477.536 28.9335 477.71 28.2497 478.057 27.6419C478.416 27.034 478.893 26.5564 479.49 26.2091C480.098 25.8509 480.776 25.6718 481.525 25.6718C482.242 25.6718 482.871 25.8346 483.414 26.1602C483.968 26.4859 484.396 26.9363 484.7 27.5116C485.015 28.0869 485.172 28.7382 485.172 29.4654C485.172 29.5739 485.167 29.6933 485.156 29.8236C485.145 29.943 485.124 30.0841 485.091 30.2469H478.562V29.0258H484.31L483.772 29.498C483.772 28.977 483.68 28.5374 483.495 28.1792C483.311 27.8101 483.05 27.5279 482.714 27.3325C482.377 27.1263 481.97 27.0232 481.493 27.0232C480.993 27.0232 480.554 27.1317 480.174 27.3488C479.794 27.5659 479.501 27.8698 479.295 28.2606C479.089 28.6513 478.985 29.1126 478.985 29.6445C478.985 30.1872 479.094 30.6648 479.311 31.0773C479.528 31.4789 479.838 31.7937 480.239 32.0216C480.641 32.2387 481.102 32.3472 481.623 32.3472C482.057 32.3472 482.453 32.2713 482.812 32.1193C483.181 31.9673 483.495 31.7394 483.756 31.4355L484.7 32.3961C484.331 32.8303 483.875 33.1613 483.333 33.3893C482.801 33.6172 482.231 33.7312 481.623 33.7312ZM492.062 33.5684V29.0584C492.062 28.4722 491.877 27.9892 491.508 27.6093C491.139 27.2294 490.661 27.0395 490.075 27.0395C489.685 27.0395 489.337 27.1263 489.033 27.3C488.729 27.4736 488.491 27.7124 488.317 28.0163C488.143 28.3203 488.056 28.6676 488.056 29.0584L487.454 28.7165C487.454 28.1303 487.584 27.6093 487.845 27.1534C488.105 26.6975 488.469 26.3393 488.936 26.0788C489.402 25.8075 489.929 25.6718 490.515 25.6718C491.101 25.6718 491.617 25.8183 492.062 26.1114C492.518 26.4045 492.876 26.7898 493.136 27.2674C493.397 27.7341 493.527 28.2334 493.527 28.7653V33.5684H492.062ZM486.591 33.5684V25.8346H488.056V33.5684H486.591ZM496.425 33.5684V22.5946H497.89V33.5684H496.425ZM494.52 27.1697V25.8346H499.795V27.1697H494.52ZM504.102 33.7312C503.396 33.7312 502.756 33.5575 502.181 33.2102C501.606 32.852 501.15 32.369 500.813 31.7611C500.488 31.1533 500.325 30.4694 500.325 29.7096C500.325 28.9498 500.488 28.266 500.813 27.6582C501.15 27.0503 501.6 26.5673 502.165 26.2091C502.74 25.8509 503.386 25.6718 504.102 25.6718C504.688 25.6718 505.209 25.7966 505.665 26.0463C506.132 26.2851 506.506 26.6216 506.788 27.0557C507.071 27.4791 507.228 27.9729 507.261 28.5374V30.8656C507.228 31.4192 507.071 31.9131 506.788 32.3472C506.517 32.7814 506.148 33.1233 505.681 33.373C505.225 33.6118 504.699 33.7312 504.102 33.7312ZM504.346 32.3472C505.073 32.3472 505.66 32.103 506.105 31.6146C506.55 31.1153 506.772 30.4803 506.772 29.7096C506.772 29.1778 506.669 28.7165 506.463 28.3257C506.267 27.9241 505.985 27.6147 505.616 27.3976C505.247 27.1697 504.818 27.0557 504.33 27.0557C503.842 27.0557 503.407 27.1697 503.027 27.3976C502.658 27.6256 502.365 27.9404 502.148 28.342C501.942 28.7327 501.839 29.1832 501.839 29.6933C501.839 30.2144 501.942 30.6757 502.148 31.0773C502.365 31.468 502.664 31.7774 503.044 32.0053C503.424 32.2333 503.858 32.3472 504.346 32.3472ZM506.675 33.5684V31.4843L506.951 29.5957L506.675 27.7233V25.8346H508.156V33.5684H506.675ZM510.11 33.5684V21.9433H511.576V33.5684H510.11ZM413.932 57.7312C413.226 57.7312 412.586 57.5575 412.011 57.2102C411.435 56.852 410.979 56.369 410.643 55.7611C410.317 55.1533 410.154 54.4694 410.154 53.7096C410.154 52.9498 410.317 52.266 410.643 51.6582C410.979 51.0503 411.43 50.5673 411.994 50.2091C412.57 49.8509 413.215 49.6718 413.932 49.6718C414.518 49.6718 415.039 49.7966 415.495 50.0463C415.962 50.2851 416.336 50.6216 416.618 51.0557C416.9 51.4791 417.058 51.9729 417.09 52.5374V54.8656C417.058 55.4192 416.9 55.9131 416.618 56.3472C416.347 56.7814 415.978 57.1233 415.511 57.373C415.055 57.6118 414.529 57.7312 413.932 57.7312ZM414.176 56.3472C414.903 56.3472 415.489 56.103 415.934 55.6146C416.379 55.1153 416.602 54.4803 416.602 53.7096C416.602 53.1778 416.499 52.7165 416.293 52.3257C416.097 51.9241 415.815 51.6147 415.446 51.3976C415.077 51.1697 414.648 51.0557 414.16 51.0557C413.671 51.0557 413.237 51.1697 412.857 51.3976C412.488 51.6256 412.195 51.9404 411.978 52.342C411.772 52.7327 411.669 53.1832 411.669 53.6933C411.669 54.2144 411.772 54.6757 411.978 55.0773C412.195 55.468 412.494 55.7774 412.874 56.0053C413.253 56.2333 413.688 56.3472 414.176 56.3472ZM416.504 57.5684V55.4843L416.781 53.5957L416.504 51.7233V49.8346H417.986V57.5684H416.504ZM422.399 57.7312C421.965 57.7312 421.552 57.6769 421.161 57.5684C420.781 57.449 420.429 57.2861 420.103 57.0799C419.777 56.8628 419.495 56.6077 419.256 56.3147L420.201 55.3703C420.483 55.7177 420.809 55.9782 421.178 56.1519C421.547 56.3147 421.959 56.3961 422.415 56.3961C422.871 56.3961 423.224 56.3201 423.473 56.1681C423.723 56.0053 423.848 55.7828 423.848 55.5006C423.848 55.2184 423.745 55.0013 423.538 54.8493C423.343 54.6865 423.088 54.5563 422.773 54.4586C422.458 54.35 422.122 54.2469 421.764 54.1492C421.416 54.0407 421.085 53.905 420.771 53.7422C420.456 53.5794 420.195 53.3569 419.989 53.0746C419.794 52.7924 419.696 52.418 419.696 51.9512C419.696 51.4845 419.81 51.0829 420.038 50.7464C420.266 50.399 420.581 50.1331 420.982 49.9486C421.395 49.7641 421.889 49.6718 422.464 49.6718C423.072 49.6718 423.609 49.7803 424.076 49.9974C424.553 50.2037 424.944 50.5184 425.248 50.9418L424.304 51.8861C424.087 51.6039 423.815 51.3868 423.49 51.2348C423.175 51.0829 422.817 51.0069 422.415 51.0069C421.992 51.0069 421.666 51.0829 421.438 51.2348C421.221 51.3759 421.112 51.5767 421.112 51.8372C421.112 52.0978 421.21 52.2986 421.406 52.4397C421.601 52.5808 421.856 52.7002 422.171 52.7979C422.496 52.8956 422.833 52.9987 423.18 53.1072C423.528 53.2049 423.859 53.3406 424.173 53.5143C424.488 53.6879 424.743 53.9213 424.939 54.2144C425.145 54.5074 425.248 54.8928 425.248 55.3703C425.248 56.0976 424.988 56.6729 424.466 57.0962C423.956 57.5195 423.267 57.7312 422.399 57.7312ZM430.78 57.7312C430.194 57.7312 429.662 57.6118 429.184 57.373C428.717 57.1233 428.343 56.7814 428.061 56.3472C427.779 55.9131 427.621 55.4192 427.589 54.8656V52.5374C427.621 51.9729 427.779 51.4791 428.061 51.0557C428.354 50.6216 428.734 50.2851 429.2 50.0463C429.678 49.7966 430.205 49.6718 430.78 49.6718C431.485 49.6718 432.12 49.8509 432.685 50.2091C433.26 50.5673 433.71 51.0503 434.036 51.6582C434.362 52.266 434.525 52.9498 434.525 53.7096C434.525 54.4694 434.362 55.1533 434.036 55.7611C433.71 56.369 433.26 56.852 432.685 57.2102C432.12 57.5575 431.485 57.7312 430.78 57.7312ZM430.536 56.3472C431.024 56.3472 431.453 56.2333 431.822 56.0053C432.191 55.7774 432.484 55.468 432.701 55.0773C432.918 54.6757 433.027 54.2144 433.027 53.6933C433.027 53.1832 432.918 52.7273 432.701 52.3257C432.484 51.9241 432.191 51.6147 431.822 51.3976C431.453 51.1697 431.029 51.0557 430.552 51.0557C430.063 51.0557 429.635 51.1697 429.266 51.3976C428.897 51.6147 428.609 51.9241 428.403 52.3257C428.196 52.7273 428.093 53.1886 428.093 53.7096C428.093 54.2198 428.191 54.6757 428.386 55.0773C428.593 55.468 428.88 55.7774 429.249 56.0053C429.629 56.2333 430.058 56.3472 430.536 56.3472ZM426.709 60.8084V49.8346H428.175V51.8698L427.898 53.7422L428.175 55.6309V60.8084H426.709ZM439.589 57.7312C438.818 57.7312 438.123 57.5575 437.505 57.2102C436.886 56.852 436.397 56.369 436.039 55.7611C435.681 55.1533 435.502 54.464 435.502 53.6933C435.502 52.9335 435.676 52.2497 436.023 51.6419C436.381 51.034 436.859 50.5564 437.456 50.2091C438.064 49.8509 438.742 49.6718 439.491 49.6718C440.207 49.6718 440.837 49.8346 441.38 50.1602C441.933 50.4859 442.362 50.9363 442.666 51.5116C442.981 52.0869 443.138 52.7382 443.138 53.4654C443.138 53.5739 443.133 53.6933 443.122 53.8236C443.111 53.943 443.089 54.0841 443.057 54.2469H436.528V53.0258H442.275L441.738 53.498C441.738 52.977 441.646 52.5374 441.461 52.1792C441.276 51.8101 441.016 51.5279 440.679 51.3325C440.343 51.1263 439.936 51.0232 439.458 51.0232C438.959 51.0232 438.519 51.1317 438.14 51.3488C437.76 51.5659 437.467 51.8698 437.26 52.2606C437.054 52.6513 436.951 53.1126 436.951 53.6445C436.951 54.1872 437.06 54.6648 437.277 55.0773C437.494 55.4789 437.803 55.7937 438.205 56.0216C438.606 56.2387 439.068 56.3472 439.589 56.3472C440.023 56.3472 440.419 56.2713 440.777 56.1193C441.146 55.9673 441.461 55.7394 441.722 55.4355L442.666 56.3961C442.297 56.8303 441.841 57.1613 441.298 57.3893C440.766 57.6172 440.196 57.7312 439.589 57.7312ZM448.09 57.7312C447.33 57.7312 446.641 57.5521 446.022 57.1939C445.414 56.8357 444.931 56.3527 444.573 55.7448C444.226 55.1261 444.052 54.4423 444.052 53.6933C444.052 52.9335 444.226 52.2497 444.573 51.6419C444.931 51.034 445.414 50.5564 446.022 50.2091C446.641 49.8509 447.33 49.6718 448.09 49.6718C448.687 49.6718 449.24 49.7858 449.75 50.0137C450.261 50.2308 450.7 50.551 451.069 50.9743L450.092 51.9512C449.854 51.669 449.561 51.4573 449.213 51.3162C448.877 51.1643 448.502 51.0883 448.09 51.0883C447.601 51.0883 447.167 51.2023 446.787 51.4302C446.407 51.6473 446.109 51.9512 445.892 52.342C445.675 52.7327 445.566 53.1832 445.566 53.6933C445.566 54.2035 445.675 54.654 445.892 55.0447C446.109 55.4355 446.407 55.7448 446.787 55.9728C447.167 56.2007 447.601 56.3147 448.09 56.3147C448.502 56.3147 448.877 56.2441 449.213 56.103C449.561 55.9511 449.859 55.734 450.109 55.4518L451.069 56.4287C450.711 56.8411 450.271 57.1613 449.75 57.3893C449.24 57.6172 448.687 57.7312 448.09 57.7312ZM453.437 57.5684V46.5946H454.902V57.5684H453.437ZM451.532 51.1697V49.8346H456.807V51.1697H451.532Z" fill="#242424"/>
<path d="M410.219 148.578V142.658H413.931V143.427H411.112V145.23H413.737V145.997H411.112V147.809H413.965V148.578H410.219ZM418.674 144.138L417.064 148.578H416.139L414.526 144.138H415.454L416.578 147.555H416.624L417.746 144.138H418.674ZM421.018 150.336C420.665 150.336 420.362 150.29 420.107 150.197C419.855 150.105 419.649 149.982 419.489 149.83C419.329 149.678 419.209 149.511 419.13 149.33L419.873 149.023C419.925 149.108 419.995 149.198 420.081 149.292C420.17 149.389 420.29 149.47 420.44 149.538C420.592 149.605 420.788 149.639 421.027 149.639C421.354 149.639 421.625 149.559 421.839 149.399C422.053 149.241 422.16 148.989 422.16 148.642V147.769H422.105C422.053 147.863 421.978 147.968 421.88 148.084C421.783 148.199 421.65 148.3 421.481 148.384C421.311 148.469 421.09 148.512 420.819 148.512C420.468 148.512 420.152 148.43 419.87 148.266C419.591 148.1 419.369 147.856 419.205 147.535C419.044 147.211 418.963 146.813 418.963 146.341C418.963 145.868 419.043 145.464 419.203 145.126C419.364 144.789 419.586 144.531 419.867 144.352C420.149 144.17 420.468 144.08 420.824 144.08C421.1 144.08 421.323 144.126 421.492 144.219C421.662 144.309 421.794 144.415 421.888 144.537C421.985 144.658 422.059 144.765 422.111 144.858H422.174V144.138H423.021V148.676C423.021 149.058 422.933 149.371 422.755 149.616C422.578 149.861 422.338 150.042 422.036 150.159C421.735 150.277 421.396 150.336 421.018 150.336ZM421.009 147.795C421.258 147.795 421.468 147.737 421.64 147.621C421.813 147.504 421.944 147.336 422.033 147.118C422.123 146.899 422.169 146.635 422.169 146.329C422.169 146.03 422.124 145.767 422.036 145.54C421.947 145.312 421.817 145.135 421.645 145.008C421.474 144.879 421.262 144.814 421.009 144.814C420.749 144.814 420.532 144.882 420.359 145.017C420.185 145.15 420.054 145.331 419.966 145.56C419.879 145.789 419.836 146.046 419.836 146.329C419.836 146.62 419.88 146.875 419.969 147.095C420.057 147.315 420.188 147.486 420.362 147.61C420.537 147.733 420.753 147.795 421.009 147.795ZM425.915 148.668C425.478 148.668 425.101 148.574 424.785 148.387C424.471 148.198 424.228 147.933 424.057 147.592C423.887 147.249 423.802 146.847 423.802 146.387C423.802 145.932 423.887 145.531 424.057 145.184C424.228 144.837 424.467 144.567 424.773 144.372C425.082 144.177 425.442 144.08 425.855 144.08C426.105 144.08 426.348 144.121 426.583 144.204C426.818 144.287 427.029 144.417 427.216 144.594C427.403 144.772 427.551 145.002 427.659 145.285C427.767 145.567 427.82 145.909 427.82 146.312V146.618H424.291V145.971H426.973C426.973 145.743 426.927 145.542 426.835 145.366C426.742 145.189 426.612 145.049 426.444 144.947C426.279 144.845 426.084 144.794 425.86 144.794C425.618 144.794 425.406 144.854 425.224 144.973C425.045 145.091 424.906 145.245 424.808 145.436C424.712 145.625 424.664 145.83 424.664 146.051V146.557C424.664 146.854 424.716 147.107 424.82 147.315C424.926 147.523 425.073 147.682 425.262 147.792C425.451 147.9 425.672 147.954 425.924 147.954C426.088 147.954 426.237 147.931 426.372 147.884C426.507 147.836 426.624 147.765 426.722 147.67C426.82 147.576 426.895 147.459 426.947 147.321L427.766 147.468C427.7 147.709 427.582 147.92 427.413 148.101C427.245 148.28 427.034 148.42 426.78 148.52C426.527 148.619 426.239 148.668 425.915 148.668ZM429.465 145.942V148.578H428.6V144.138H429.43V144.86H429.485C429.587 144.625 429.747 144.436 429.965 144.294C430.185 144.151 430.461 144.08 430.795 144.08C431.097 144.08 431.362 144.143 431.59 144.271C431.817 144.396 431.993 144.583 432.119 144.832C432.244 145.08 432.307 145.388 432.307 145.754V148.578H431.442V145.858C431.442 145.536 431.358 145.284 431.191 145.103C431.023 144.92 430.793 144.829 430.5 144.829C430.299 144.829 430.121 144.872 429.965 144.959C429.811 145.045 429.688 145.173 429.598 145.34C429.509 145.506 429.465 145.706 429.465 145.942ZM433.287 148.578V144.138H434.151V148.578H433.287ZM433.723 143.453C433.573 143.453 433.444 143.402 433.336 143.302C433.23 143.2 433.177 143.079 433.177 142.938C433.177 142.795 433.23 142.674 433.336 142.574C433.444 142.472 433.573 142.421 433.723 142.421C433.874 142.421 434.002 142.472 434.108 142.574C434.216 142.674 434.27 142.795 434.27 142.938C434.27 143.079 434.216 143.2 434.108 143.302C434.002 143.402 433.874 143.453 433.723 143.453ZM436.427 148.676C436.146 148.676 435.891 148.624 435.664 148.52C435.437 148.414 435.256 148.261 435.123 148.061C434.992 147.86 434.927 147.614 434.927 147.323C434.927 147.073 434.975 146.867 435.071 146.705C435.168 146.543 435.298 146.415 435.462 146.32C435.625 146.226 435.808 146.155 436.011 146.106C436.213 146.058 436.419 146.022 436.629 145.997C436.895 145.966 437.111 145.941 437.277 145.921C437.443 145.9 437.563 145.866 437.638 145.82C437.714 145.774 437.751 145.699 437.751 145.595V145.574C437.751 145.322 437.68 145.126 437.537 144.988C437.397 144.849 437.186 144.779 436.907 144.779C436.616 144.779 436.387 144.844 436.219 144.973C436.053 145.1 435.939 145.242 435.875 145.398L435.063 145.213C435.159 144.943 435.3 144.726 435.485 144.56C435.672 144.392 435.887 144.271 436.129 144.196C436.372 144.118 436.628 144.08 436.895 144.08C437.073 144.08 437.261 144.101 437.459 144.143C437.66 144.184 437.847 144.259 438.02 144.369C438.195 144.479 438.339 144.636 438.451 144.84C438.563 145.043 438.618 145.306 438.618 145.629V148.578H437.774V147.971H437.74C437.684 148.083 437.6 148.193 437.488 148.301C437.376 148.409 437.233 148.498 437.057 148.569C436.882 148.641 436.672 148.676 436.427 148.676ZM436.615 147.983C436.854 147.983 437.058 147.935 437.228 147.841C437.399 147.747 437.53 147.623 437.618 147.471C437.709 147.317 437.754 147.152 437.754 146.977V146.404C437.723 146.435 437.663 146.464 437.575 146.491C437.488 146.516 437.389 146.538 437.277 146.557C437.165 146.575 437.056 146.591 436.95 146.607C436.844 146.62 436.756 146.632 436.684 146.641C436.517 146.662 436.364 146.698 436.225 146.748C436.088 146.798 435.978 146.871 435.895 146.965C435.814 147.058 435.774 147.181 435.774 147.335C435.774 147.549 435.853 147.711 436.011 147.821C436.169 147.929 436.37 147.983 436.615 147.983Z" fill="black" fill-opacity="0.4"/>
</g>
<g filter="url(#filter3_ddd_406_5941)">
<rect width="163" height="163" transform="translate(589 2)" fill="#A2CFD2"/>
<path d="M603.903 33.5684V22.269H605.434V33.5684H603.903ZM604.945 33.5684V32.1681H611.426V33.5684H604.945ZM604.945 28.4559V27.1209H610.888V28.4559H604.945ZM604.945 23.6692V22.269H611.344V23.6692H604.945ZM618.147 33.5684L615.738 30.1818L615.461 29.9213L612.416 25.8346H614.191L616.389 28.8467L616.666 29.0746L619.922 33.5684H618.147ZM612.27 33.5684L615.461 29.27L616.291 30.3446L613.995 33.5684H612.27ZM616.78 29.905L615.933 28.863L618.066 25.8346H619.775L616.78 29.905ZM625.163 33.7312C624.577 33.7312 624.045 33.6118 623.568 33.373C623.101 33.1233 622.726 32.7814 622.444 32.3472C622.162 31.9131 622.004 31.4192 621.972 30.8656V28.5374C622.004 27.9729 622.162 27.4791 622.444 27.0557C622.737 26.6216 623.117 26.2851 623.584 26.0463C624.061 25.7966 624.588 25.6718 625.163 25.6718C625.869 25.6718 626.504 25.8509 627.068 26.2091C627.643 26.5673 628.094 27.0503 628.419 27.6582C628.745 28.266 628.908 28.9498 628.908 29.7096C628.908 30.4694 628.745 31.1533 628.419 31.7611C628.094 32.369 627.643 32.852 627.068 33.2102C626.504 33.5575 625.869 33.7312 625.163 33.7312ZM624.919 32.3472C625.407 32.3472 625.836 32.2333 626.205 32.0053C626.574 31.7774 626.867 31.468 627.084 31.0773C627.301 30.6757 627.41 30.2144 627.41 29.6933C627.41 29.1832 627.301 28.7273 627.084 28.3257C626.867 27.9241 626.574 27.6147 626.205 27.3976C625.836 27.1697 625.413 27.0557 624.935 27.0557C624.447 27.0557 624.018 27.1697 623.649 27.3976C623.28 27.6147 622.992 27.9241 622.786 28.3257C622.58 28.7273 622.477 29.1886 622.477 29.7096C622.477 30.2198 622.574 30.6757 622.77 31.0773C622.976 31.468 623.264 31.7774 623.633 32.0053C624.013 32.2333 624.441 32.3472 624.919 32.3472ZM621.093 36.8084V25.8346H622.558V27.8698L622.281 29.7422L622.558 31.6309V36.8084H621.093ZM633.972 33.7312C633.201 33.7312 632.507 33.5575 631.888 33.2102C631.269 32.852 630.781 32.369 630.423 31.7611C630.064 31.1533 629.885 30.464 629.885 29.6933C629.885 28.9335 630.059 28.2497 630.406 27.6419C630.764 27.034 631.242 26.5564 631.839 26.2091C632.447 25.8509 633.125 25.6718 633.874 25.6718C634.591 25.6718 635.22 25.8346 635.763 26.1602C636.316 26.4859 636.745 26.9363 637.049 27.5116C637.364 28.0869 637.521 28.7382 637.521 29.4654C637.521 29.5739 637.516 29.6933 637.505 29.8236C637.494 29.943 637.472 30.0841 637.44 30.2469H630.911V29.0258H636.658L636.121 29.498C636.121 28.977 636.029 28.5374 635.844 28.1792C635.66 27.8101 635.399 27.5279 635.063 27.3325C634.726 27.1263 634.319 27.0232 633.842 27.0232C633.342 27.0232 632.903 27.1317 632.523 27.3488C632.143 27.5659 631.85 27.8698 631.644 28.2606C631.437 28.6513 631.334 29.1126 631.334 29.6445C631.334 30.1872 631.443 30.6648 631.66 31.0773C631.877 31.4789 632.186 31.7937 632.588 32.0216C632.99 32.2387 633.451 32.3472 633.972 32.3472C634.406 32.3472 634.802 32.2713 635.16 32.1193C635.53 31.9673 635.844 31.7394 636.105 31.4355L637.049 32.3961C636.68 32.8303 636.224 33.1613 635.681 33.3893C635.15 33.6172 634.58 33.7312 633.972 33.7312ZM638.94 33.5684V25.8346H640.405V33.5684H638.94ZM640.405 29.1561L639.852 28.9118C639.852 27.9241 640.08 27.1371 640.536 26.551C640.991 25.9649 641.648 25.6718 642.506 25.6718C642.896 25.6718 643.249 25.7424 643.564 25.8835C643.879 26.0137 644.172 26.2362 644.443 26.551L643.483 27.5442C643.32 27.3705 643.141 27.2457 642.945 27.1697C642.75 27.0937 642.522 27.0557 642.261 27.0557C641.719 27.0557 641.274 27.2294 640.926 27.5767C640.579 27.9241 640.405 28.4505 640.405 29.1561ZM645.312 33.5684V25.8346H646.777V33.5684H645.312ZM646.045 24.2879C645.773 24.2879 645.551 24.201 645.377 24.0274C645.203 23.8428 645.117 23.6149 645.117 23.3435C645.117 23.083 645.203 22.8659 645.377 22.6923C645.551 22.5078 645.773 22.4155 646.045 22.4155C646.316 22.4155 646.539 22.5078 646.712 22.6923C646.886 22.8659 646.973 23.083 646.973 23.3435C646.973 23.6149 646.886 23.8428 646.712 24.0274C646.539 24.201 646.316 24.2879 646.045 24.2879ZM648.758 33.5684V25.8346H650.223V33.5684H648.758ZM653.984 33.5684V28.8956C653.984 28.3203 653.805 27.8698 653.447 27.5442C653.099 27.2077 652.66 27.0395 652.128 27.0395C651.77 27.0395 651.45 27.1154 651.167 27.2674C650.885 27.4194 650.657 27.631 650.484 27.9024C650.31 28.1737 650.223 28.4994 650.223 28.8793L649.621 28.5862C649.621 28.0001 649.745 27.4899 649.995 27.0557C650.256 26.6216 650.608 26.2851 651.053 26.0463C651.498 25.7966 651.998 25.6718 652.551 25.6718C653.094 25.6718 653.583 25.7912 654.017 26.03C654.462 26.2688 654.809 26.6053 655.059 27.0395C655.319 27.4736 655.449 27.9892 655.449 28.5862V33.5684H653.984ZM659.211 33.5684V28.8956C659.211 28.3203 659.031 27.8698 658.673 27.5442C658.326 27.2077 657.892 27.0395 657.371 27.0395C657.013 27.0395 656.687 27.1154 656.394 27.2674C656.112 27.4194 655.884 27.631 655.71 27.9024C655.536 28.1737 655.449 28.4994 655.449 28.8793L654.619 28.5862C654.652 27.9892 654.809 27.4791 655.091 27.0557C655.384 26.6216 655.759 26.2851 656.215 26.0463C656.671 25.7966 657.17 25.6718 657.713 25.6718C658.277 25.6718 658.782 25.7912 659.227 26.03C659.672 26.2688 660.025 26.6053 660.285 27.0395C660.556 27.4736 660.692 27.9946 660.692 28.6025V33.5684H659.211ZM666.089 33.7312C665.318 33.7312 664.624 33.5575 664.005 33.2102C663.386 32.852 662.898 32.369 662.54 31.7611C662.181 31.1533 662.002 30.464 662.002 29.6933C662.002 28.9335 662.176 28.2497 662.523 27.6419C662.881 27.034 663.359 26.5564 663.956 26.2091C664.564 25.8509 665.242 25.6718 665.991 25.6718C666.708 25.6718 667.337 25.8346 667.88 26.1602C668.434 26.4859 668.862 26.9363 669.166 27.5116C669.481 28.0869 669.638 28.7382 669.638 29.4654C669.638 29.5739 669.633 29.6933 669.622 29.8236C669.611 29.943 669.589 30.0841 669.557 30.2469H663.028V29.0258H668.775L668.238 29.498C668.238 28.977 668.146 28.5374 667.961 28.1792C667.777 27.8101 667.516 27.5279 667.18 27.3325C666.843 27.1263 666.436 27.0232 665.959 27.0232C665.459 27.0232 665.02 27.1317 664.64 27.3488C664.26 27.5659 663.967 27.8698 663.761 28.2606C663.554 28.6513 663.451 29.1126 663.451 29.6445C663.451 30.1872 663.56 30.6648 663.777 31.0773C663.994 31.4789 664.303 31.7937 664.705 32.0216C665.107 32.2387 665.568 32.3472 666.089 32.3472C666.523 32.3472 666.919 32.2713 667.278 32.1193C667.647 31.9673 667.961 31.7394 668.222 31.4355L669.166 32.3961C668.797 32.8303 668.341 33.1613 667.799 33.3893C667.267 33.6172 666.697 33.7312 666.089 33.7312ZM676.528 33.5684V29.0584C676.528 28.4722 676.343 27.9892 675.974 27.6093C675.605 27.2294 675.127 27.0395 674.541 27.0395C674.15 27.0395 673.803 27.1263 673.499 27.3C673.195 27.4736 672.957 27.7124 672.783 28.0163C672.609 28.3203 672.522 28.6676 672.522 29.0584L671.92 28.7165C671.92 28.1303 672.05 27.6093 672.311 27.1534C672.571 26.6975 672.935 26.3393 673.402 26.0788C673.868 25.8075 674.395 25.6718 674.981 25.6718C675.567 25.6718 676.083 25.8183 676.528 26.1114C676.983 26.4045 677.342 26.7898 677.602 27.2674C677.863 27.7341 677.993 28.2334 677.993 28.7653V33.5684H676.528ZM671.057 33.5684V25.8346H672.522V33.5684H671.057ZM680.891 33.5684V22.5946H682.356V33.5684H680.891ZM678.986 27.1697V25.8346H684.261V27.1697H678.986ZM685.534 33.5684V25.8346H686.999V33.5684H685.534ZM686.267 24.2879C685.995 24.2879 685.773 24.201 685.599 24.0274C685.425 23.8428 685.338 23.6149 685.338 23.3435C685.338 23.083 685.425 22.8659 685.599 22.6923C685.773 22.5078 685.995 22.4155 686.267 22.4155C686.538 22.4155 686.76 22.5078 686.934 22.6923C687.108 22.8659 687.195 23.083 687.195 23.3435C687.195 23.6149 687.108 23.8428 686.934 24.0274C686.76 24.201 686.538 24.2879 686.267 24.2879ZM694.45 33.5684V29.0584C694.45 28.4722 694.266 27.9892 693.897 27.6093C693.528 27.2294 693.05 27.0395 692.464 27.0395C692.073 27.0395 691.726 27.1263 691.422 27.3C691.118 27.4736 690.879 27.7124 690.705 28.0163C690.532 28.3203 690.445 28.6676 690.445 29.0584L689.842 28.7165C689.842 28.1303 689.973 27.6093 690.233 27.1534C690.494 26.6975 690.857 26.3393 691.324 26.0788C691.791 25.8075 692.317 25.6718 692.903 25.6718C693.49 25.6718 694.005 25.8183 694.45 26.1114C694.906 26.4045 695.264 26.7898 695.525 27.2674C695.785 27.7341 695.916 28.2334 695.916 28.7653V33.5684H694.45ZM688.98 33.5684V25.8346H690.445V33.5684H688.98ZM700.928 36.9712C700.135 36.9712 699.43 36.8247 698.811 36.5316C698.203 36.2385 697.715 35.8261 697.346 35.2942L698.29 34.3336C698.605 34.7352 698.979 35.0391 699.414 35.2454C699.848 35.4624 700.363 35.571 700.96 35.571C701.753 35.571 702.377 35.3593 702.833 34.936C703.299 34.5235 703.533 33.9645 703.533 33.259V31.3378L703.793 29.5957L703.533 27.8698V25.8346H704.998V33.259C704.998 33.9971 704.825 34.6429 704.477 35.1965C704.141 35.7501 703.663 36.1843 703.044 36.499C702.437 36.8138 701.731 36.9712 700.928 36.9712ZM700.928 33.4381C700.222 33.4381 699.587 33.2699 699.023 32.9334C698.469 32.5969 698.03 32.1356 697.704 31.5494C697.378 30.9525 697.216 30.2849 697.216 29.5468C697.216 28.8087 697.378 28.152 697.704 27.5767C698.03 26.9906 698.469 26.5293 699.023 26.1928C699.587 25.8455 700.222 25.6718 700.928 25.6718C701.536 25.6718 702.073 25.7912 702.54 26.03C703.006 26.2688 703.375 26.6053 703.647 27.0395C703.929 27.4628 704.081 27.9621 704.103 28.5374V30.5888C704.07 31.1533 703.913 31.6526 703.631 32.0867C703.359 32.5101 702.99 32.8411 702.523 33.0799C702.057 33.3187 701.525 33.4381 700.928 33.4381ZM701.221 32.0542C701.698 32.0542 702.116 31.9511 702.475 31.7448C702.844 31.5386 703.126 31.251 703.321 30.8819C703.517 30.502 703.614 30.0624 703.614 29.5631C703.614 29.0638 703.511 28.6296 703.305 28.2606C703.11 27.8807 702.833 27.5876 702.475 27.3814C702.116 27.1643 701.693 27.0557 701.205 27.0557C700.716 27.0557 700.287 27.1643 699.918 27.3814C699.549 27.5876 699.256 27.8807 699.039 28.2606C698.833 28.6296 698.73 29.0584 698.73 29.5468C698.73 30.0353 698.833 30.4694 699.039 30.8493C699.256 31.2292 699.549 31.5277 699.918 31.7448C700.298 31.9511 700.732 32.0542 701.221 32.0542ZM605.857 57.5684L602.796 49.8346H604.327L606.541 55.8588H606.053L608.251 49.8346H609.097L611.295 55.8588H610.807L613.021 49.8346H614.552L611.507 57.5684H610.644L608.413 51.7233H608.951L606.704 57.5684H605.857ZM615.564 57.5684V49.8346H617.029V57.5684H615.564ZM616.297 48.2879C616.025 48.2879 615.803 48.201 615.629 48.0274C615.456 47.8428 615.369 47.6149 615.369 47.3435C615.369 47.083 615.456 46.8659 615.629 46.6923C615.803 46.5078 616.025 46.4155 616.297 46.4155C616.568 46.4155 616.791 46.5078 616.964 46.6923C617.138 46.8659 617.225 47.083 617.225 47.3435C617.225 47.6149 617.138 47.8428 616.964 48.0274C616.791 48.201 616.568 48.2879 616.297 48.2879ZM620.198 57.5684V46.5946H621.664V57.5684H620.198ZM618.293 51.1697V49.8346H623.569V51.1697H618.293ZM630.296 57.5684V53.0584C630.296 52.4722 630.111 51.9892 629.742 51.6093C629.373 51.2294 628.895 51.0395 628.309 51.0395C627.918 51.0395 627.571 51.1263 627.267 51.3C626.963 51.4736 626.725 51.7124 626.551 52.0163C626.377 52.3203 626.29 52.6676 626.29 53.0584L625.688 52.7165C625.688 52.1303 625.818 51.6093 626.079 51.1534C626.339 50.6975 626.703 50.3393 627.17 50.0788C627.636 49.8075 628.163 49.6718 628.749 49.6718C629.335 49.6718 629.851 49.8021 630.296 50.0626C630.751 50.3231 631.11 50.6867 631.37 51.1534C631.631 51.6202 631.761 52.1575 631.761 52.7653V57.5684H630.296ZM624.825 57.5684V45.9433H626.29V57.5684H624.825ZM637.881 57.5684V48.6786C637.881 48.1033 638.005 47.604 638.255 47.1807C638.505 46.7465 638.847 46.4046 639.281 46.155C639.726 45.9053 640.241 45.7805 640.827 45.7805C641.273 45.7805 641.658 45.8565 641.983 46.0085C642.309 46.1604 642.608 46.3829 642.879 46.676L641.918 47.6203C641.777 47.4684 641.62 47.3544 641.446 47.2784C641.273 47.1916 641.061 47.1482 640.811 47.1482C640.344 47.1482 639.981 47.2838 639.72 47.5552C639.471 47.8266 639.346 48.201 639.346 48.6786V57.5684H637.881ZM635.976 51.1697V49.8346H641.804V51.1697H635.976ZM645.941 57.7312C645.236 57.7312 644.595 57.5575 644.02 57.2102C643.445 56.852 642.989 56.369 642.652 55.7611C642.327 55.1533 642.164 54.4694 642.164 53.7096C642.164 52.9498 642.327 52.266 642.652 51.6582C642.989 51.0503 643.439 50.5673 644.004 50.2091C644.579 49.8509 645.225 49.6718 645.941 49.6718C646.527 49.6718 647.048 49.7966 647.504 50.0463C647.971 50.2851 648.345 50.6216 648.627 51.0557C648.91 51.4791 649.067 51.9729 649.1 52.5374V54.8656C649.067 55.4192 648.91 55.9131 648.627 56.3472C648.356 56.7814 647.987 57.1233 647.52 57.373C647.064 57.6118 646.538 57.7312 645.941 57.7312ZM646.185 56.3472C646.913 56.3472 647.499 56.103 647.944 55.6146C648.389 55.1153 648.611 54.4803 648.611 53.7096C648.611 53.1778 648.508 52.7165 648.302 52.3257C648.106 51.9241 647.824 51.6147 647.455 51.3976C647.086 51.1697 646.657 51.0557 646.169 51.0557C645.681 51.0557 645.246 51.1697 644.866 51.3976C644.497 51.6256 644.204 51.9404 643.987 52.342C643.781 52.7327 643.678 53.1832 643.678 53.6933C643.678 54.2144 643.781 54.6757 643.987 55.0773C644.204 55.468 644.503 55.7774 644.883 56.0053C645.263 56.2333 645.697 56.3472 646.185 56.3472ZM648.514 57.5684V55.4843L648.79 53.5957L648.514 51.7233V49.8346H649.995V57.5684H648.514ZM654.408 57.7312C653.974 57.7312 653.561 57.6769 653.171 57.5684C652.791 57.449 652.438 57.2861 652.112 57.0799C651.787 56.8628 651.504 56.6077 651.266 56.3147L652.21 55.3703C652.492 55.7177 652.818 55.9782 653.187 56.1519C653.556 56.3147 653.968 56.3961 654.424 56.3961C654.88 56.3961 655.233 56.3201 655.483 56.1681C655.732 56.0053 655.857 55.7828 655.857 55.5006C655.857 55.2184 655.754 55.0013 655.548 54.8493C655.352 54.6865 655.097 54.5563 654.782 54.4586C654.468 54.35 654.131 54.2469 653.773 54.1492C653.426 54.0407 653.095 53.905 652.78 53.7422C652.465 53.5794 652.205 53.3569 651.998 53.0746C651.803 52.7924 651.705 52.418 651.705 51.9512C651.705 51.4845 651.819 51.0829 652.047 50.7464C652.275 50.399 652.59 50.1331 652.991 49.9486C653.404 49.7641 653.898 49.6718 654.473 49.6718C655.081 49.6718 655.618 49.7803 656.085 49.9974C656.563 50.2037 656.953 50.5184 657.257 50.9418L656.313 51.8861C656.096 51.6039 655.824 51.3868 655.499 51.2348C655.184 51.0829 654.826 51.0069 654.424 51.0069C654.001 51.0069 653.675 51.0829 653.447 51.2348C653.23 51.3759 653.122 51.5767 653.122 51.8372C653.122 52.0978 653.219 52.2986 653.415 52.4397C653.61 52.5808 653.865 52.7002 654.18 52.7979C654.506 52.8956 654.842 52.9987 655.189 53.1072C655.537 53.2049 655.868 53.3406 656.183 53.5143C656.497 53.6879 656.753 53.9213 656.948 54.2144C657.154 54.5074 657.257 54.8928 657.257 55.3703C657.257 56.0976 656.997 56.6729 656.476 57.0962C655.966 57.5195 655.276 57.7312 654.408 57.7312ZM664.189 57.5684V53.0584C664.189 52.4722 664.005 51.9892 663.636 51.6093C663.267 51.2294 662.789 51.0395 662.203 51.0395C661.812 51.0395 661.465 51.1263 661.161 51.3C660.857 51.4736 660.618 51.7124 660.444 52.0163C660.271 52.3203 660.184 52.6676 660.184 53.0584L659.582 52.7165C659.582 52.1303 659.712 51.6093 659.972 51.1534C660.233 50.6975 660.596 50.3393 661.063 50.0788C661.53 49.8075 662.056 49.6718 662.642 49.6718C663.229 49.6718 663.744 49.8021 664.189 50.0626C664.645 50.3231 665.003 50.6867 665.264 51.1534C665.524 51.6202 665.655 52.1575 665.655 52.7653V57.5684H664.189ZM658.719 57.5684V45.9433H660.184V57.5684H658.719ZM667.476 57.5684V49.8346H668.941V57.5684H667.476ZM668.208 48.2879C667.937 48.2879 667.714 48.201 667.541 48.0274C667.367 47.8428 667.28 47.6149 667.28 47.3435C667.28 47.083 667.367 46.8659 667.541 46.6923C667.714 46.5078 667.937 46.4155 668.208 46.4155C668.48 46.4155 668.702 46.5078 668.876 46.6923C669.05 46.8659 669.136 47.083 669.136 47.3435C669.136 47.6149 669.05 47.8428 668.876 48.0274C668.702 48.201 668.48 48.2879 668.208 48.2879ZM674.455 57.7312C673.695 57.7312 673.011 57.5521 672.403 57.1939C671.795 56.8357 671.312 56.3527 670.954 55.7448C670.596 55.1261 670.417 54.4369 670.417 53.6771C670.417 52.9281 670.596 52.2551 670.954 51.6582C671.312 51.0503 671.795 50.5673 672.403 50.2091C673.011 49.8509 673.695 49.6718 674.455 49.6718C675.203 49.6718 675.882 49.8509 676.49 50.2091C677.108 50.5564 677.597 51.034 677.955 51.6419C678.313 52.2497 678.492 52.9281 678.492 53.6771C678.492 54.4369 678.313 55.1261 677.955 55.7448C677.597 56.3527 677.108 56.8357 676.49 57.1939C675.882 57.5521 675.203 57.7312 674.455 57.7312ZM674.455 56.3147C674.943 56.3147 675.377 56.2007 675.757 55.9728C676.137 55.7448 676.435 55.4355 676.653 55.0447C676.87 54.6431 676.978 54.1872 676.978 53.6771C676.978 53.1778 676.864 52.7327 676.636 52.342C676.419 51.9512 676.121 51.6473 675.741 51.4302C675.372 51.2023 674.943 51.0883 674.455 51.0883C673.966 51.0883 673.532 51.2023 673.152 51.4302C672.772 51.6473 672.474 51.9512 672.256 52.342C672.039 52.7327 671.931 53.1778 671.931 53.6771C671.931 54.1872 672.039 54.6431 672.256 55.0447C672.474 55.4355 672.772 55.7448 673.152 55.9728C673.532 56.2007 673.966 56.3147 674.455 56.3147ZM685.435 57.5684V53.0584C685.435 52.4722 685.25 51.9892 684.881 51.6093C684.512 51.2294 684.035 51.0395 683.449 51.0395C683.058 51.0395 682.71 51.1263 682.407 51.3C682.103 51.4736 681.864 51.7124 681.69 52.0163C681.516 52.3203 681.43 52.6676 681.43 53.0584L680.827 52.7165C680.827 52.1303 680.957 51.6093 681.218 51.1534C681.478 50.6975 681.842 50.3393 682.309 50.0788C682.776 49.8075 683.302 49.6718 683.888 49.6718C684.474 49.6718 684.99 49.8183 685.435 50.1114C685.891 50.4045 686.249 50.7898 686.509 51.2674C686.77 51.7341 686.9 52.2334 686.9 52.7653V57.5684H685.435ZM679.964 57.5684V49.8346H681.43V57.5684H679.964Z" fill="#242424"/>
<path d="M603.219 148.578V142.658H606.931V143.427H604.112V145.23H606.737V145.997H604.112V147.809H606.965V148.578H603.219ZM611.674 144.138L610.064 148.578H609.139L607.526 144.138H608.454L609.578 147.555H609.624L610.746 144.138H611.674ZM614.018 150.336C613.665 150.336 613.362 150.29 613.107 150.197C612.855 150.105 612.649 149.982 612.489 149.83C612.329 149.678 612.209 149.511 612.13 149.33L612.873 149.023C612.925 149.108 612.995 149.198 613.081 149.292C613.17 149.389 613.29 149.47 613.44 149.538C613.592 149.605 613.788 149.639 614.027 149.639C614.354 149.639 614.625 149.559 614.839 149.399C615.053 149.241 615.16 148.989 615.16 148.642V147.769H615.105C615.053 147.863 614.978 147.968 614.88 148.084C614.783 148.199 614.65 148.3 614.481 148.384C614.311 148.469 614.09 148.512 613.819 148.512C613.468 148.512 613.152 148.43 612.87 148.266C612.591 148.1 612.369 147.856 612.205 147.535C612.044 147.211 611.963 146.813 611.963 146.341C611.963 145.868 612.043 145.464 612.203 145.126C612.364 144.789 612.586 144.531 612.867 144.352C613.149 144.17 613.468 144.08 613.824 144.08C614.1 144.08 614.323 144.126 614.492 144.219C614.662 144.309 614.794 144.415 614.888 144.537C614.985 144.658 615.059 144.765 615.111 144.858H615.174V144.138H616.021V148.676C616.021 149.058 615.933 149.371 615.755 149.616C615.578 149.861 615.338 150.042 615.036 150.159C614.735 150.277 614.396 150.336 614.018 150.336ZM614.009 147.795C614.258 147.795 614.468 147.737 614.64 147.621C614.813 147.504 614.944 147.336 615.033 147.118C615.123 146.899 615.169 146.635 615.169 146.329C615.169 146.03 615.124 145.767 615.036 145.54C614.947 145.312 614.817 145.135 614.645 145.008C614.474 144.879 614.262 144.814 614.009 144.814C613.749 144.814 613.532 144.882 613.359 145.017C613.185 145.15 613.054 145.331 612.966 145.56C612.879 145.789 612.836 146.046 612.836 146.329C612.836 146.62 612.88 146.875 612.969 147.095C613.057 147.315 613.188 147.486 613.362 147.61C613.537 147.733 613.753 147.795 614.009 147.795ZM618.915 148.668C618.478 148.668 618.101 148.574 617.785 148.387C617.471 148.198 617.228 147.933 617.057 147.592C616.887 147.249 616.802 146.847 616.802 146.387C616.802 145.932 616.887 145.531 617.057 145.184C617.228 144.837 617.467 144.567 617.773 144.372C618.082 144.177 618.442 144.08 618.855 144.08C619.105 144.08 619.348 144.121 619.583 144.204C619.818 144.287 620.029 144.417 620.216 144.594C620.403 144.772 620.551 145.002 620.659 145.285C620.767 145.567 620.82 145.909 620.82 146.312V146.618H617.291V145.971H619.973C619.973 145.743 619.927 145.542 619.835 145.366C619.742 145.189 619.612 145.049 619.444 144.947C619.279 144.845 619.084 144.794 618.86 144.794C618.618 144.794 618.406 144.854 618.224 144.973C618.045 145.091 617.906 145.245 617.808 145.436C617.712 145.625 617.664 145.83 617.664 146.051V146.557C617.664 146.854 617.716 147.107 617.82 147.315C617.926 147.523 618.073 147.682 618.262 147.792C618.451 147.9 618.672 147.954 618.924 147.954C619.088 147.954 619.237 147.931 619.372 147.884C619.507 147.836 619.624 147.765 619.722 147.67C619.82 147.576 619.895 147.459 619.947 147.321L620.766 147.468C620.7 147.709 620.582 147.92 620.413 148.101C620.245 148.28 620.034 148.42 619.78 148.52C619.527 148.619 619.239 148.668 618.915 148.668ZM622.465 145.942V148.578H621.6V144.138H622.43V144.86H622.485C622.587 144.625 622.747 144.436 622.965 144.294C623.185 144.151 623.461 144.08 623.795 144.08C624.097 144.08 624.362 144.143 624.59 144.271C624.817 144.396 624.993 144.583 625.119 144.832C625.244 145.08 625.307 145.388 625.307 145.754V148.578H624.442V145.858C624.442 145.536 624.358 145.284 624.191 145.103C624.023 144.92 623.793 144.829 623.5 144.829C623.299 144.829 623.121 144.872 622.965 144.959C622.811 145.045 622.688 145.173 622.598 145.34C622.509 145.506 622.465 145.706 622.465 145.942ZM626.287 148.578V144.138H627.151V148.578H626.287ZM626.723 143.453C626.573 143.453 626.444 143.402 626.336 143.302C626.23 143.2 626.177 143.079 626.177 142.938C626.177 142.795 626.23 142.674 626.336 142.574C626.444 142.472 626.573 142.421 626.723 142.421C626.874 142.421 627.002 142.472 627.108 142.574C627.216 142.674 627.27 142.795 627.27 142.938C627.27 143.079 627.216 143.2 627.108 143.302C627.002 143.402 626.874 143.453 626.723 143.453ZM629.427 148.676C629.146 148.676 628.891 148.624 628.664 148.52C628.437 148.414 628.256 148.261 628.123 148.061C627.992 147.86 627.927 147.614 627.927 147.323C627.927 147.073 627.975 146.867 628.071 146.705C628.168 146.543 628.298 146.415 628.462 146.32C628.625 146.226 628.808 146.155 629.011 146.106C629.213 146.058 629.419 146.022 629.629 145.997C629.895 145.966 630.111 145.941 630.277 145.921C630.443 145.9 630.563 145.866 630.638 145.82C630.714 145.774 630.751 145.699 630.751 145.595V145.574C630.751 145.322 630.68 145.126 630.537 144.988C630.397 144.849 630.186 144.779 629.907 144.779C629.616 144.779 629.387 144.844 629.219 144.973C629.053 145.1 628.939 145.242 628.875 145.398L628.063 145.213C628.159 144.943 628.3 144.726 628.485 144.56C628.672 144.392 628.887 144.271 629.129 144.196C629.372 144.118 629.628 144.08 629.895 144.08C630.073 144.08 630.261 144.101 630.459 144.143C630.66 144.184 630.847 144.259 631.02 144.369C631.195 144.479 631.339 144.636 631.451 144.84C631.563 145.043 631.618 145.306 631.618 145.629V148.578H630.774V147.971H630.74C630.684 148.083 630.6 148.193 630.488 148.301C630.376 148.409 630.233 148.498 630.057 148.569C629.882 148.641 629.672 148.676 629.427 148.676ZM629.615 147.983C629.854 147.983 630.058 147.935 630.228 147.841C630.399 147.747 630.53 147.623 630.618 147.471C630.709 147.317 630.754 147.152 630.754 146.977V146.404C630.723 146.435 630.663 146.464 630.575 146.491C630.488 146.516 630.389 146.538 630.277 146.557C630.165 146.575 630.056 146.591 629.95 146.607C629.844 146.62 629.756 146.632 629.684 146.641C629.517 146.662 629.364 146.698 629.225 146.748C629.088 146.798 628.978 146.871 628.895 146.965C628.814 147.058 628.774 147.181 628.774 147.335C628.774 147.549 628.853 147.711 629.011 147.821C629.169 147.929 629.37 147.983 629.615 147.983Z" fill="black" fill-opacity="0.4"/>
</g>
<defs>
<filter id="filter0_ddd_406_5941" x="0" y="0" width="183" height="183" filterUnits="userSpaceOnUse" color-interpolation-filters="sRGB">
<feFlood flood-opacity="0" result="BackgroundImageFix"/>
<feColorMatrix in="SourceAlpha" type="matrix" values="0 0 0 0 0 0 0 0 0 0 0 0 0 0 0 0 0 0 127 0" result="hardAlpha"/>
<feOffset dy="2.5"/>
<feGaussianBlur stdDeviation="1"/>
<feColorMatrix type="matrix" values="0 0 0 0 0 0 0 0 0 0 0 0 0 0 0 0 0 0 0.02 0"/>
<feBlend mode="normal" in2="BackgroundImageFix" result="effect1_dropShadow_406_5941"/>
<feColorMatrix in="SourceAlpha" type="matrix" values="0 0 0 0 0 0 0 0 0 0 0 0 0 0 0 0 0 0 127 0" result="hardAlpha"/>
<feOffset dy="3"/>
<feGaussianBlur stdDeviation="2.5"/>
<feColorMatrix type="matrix" values="0 0 0 0 0 0 0 0 0 0 0 0 0 0 0 0 0 0 0.04 0"/>
<feBlend mode="normal" in2="effect1_dropShadow_406_5941" result="effect2_dropShadow_406_5941"/>
<feColorMatrix in="SourceAlpha" type="matrix" values="0 0 0 0 0 0 0 0 0 0 0 0 0 0 0 0 0 0 127 0" result="hardAlpha"/>
<feOffset dy="8"/>
<feGaussianBlur stdDeviation="5"/>
<feColorMatrix type="matrix" values="0 0 0 0 0 0 0 0 0 0 0 0 0 0 0 0 0 0 0.08 0"/>
<feBlend mode="normal" in2="effect2_dropShadow_406_5941" result="effect3_dropShadow_406_5941"/>
<feBlend mode="normal" in="SourceGraphic" in2="effect3_dropShadow_406_5941" result="shape"/>
</filter>
<filter id="filter1_ddd_406_5941" x="193" y="0" width="183" height="183" filterUnits="userSpaceOnUse" color-interpolation-filters="sRGB">
<feFlood flood-opacity="0" result="BackgroundImageFix"/>
<feColorMatrix in="SourceAlpha" type="matrix" values="0 0 0 0 0 0 0 0 0 0 0 0 0 0 0 0 0 0 127 0" result="hardAlpha"/>
<feOffset dy="2.5"/>
<feGaussianBlur stdDeviation="1"/>
<feColorMatrix type="matrix" values="0 0 0 0 0 0 0 0 0 0 0 0 0 0 0 0 0 0 0.02 0"/>
<feBlend mode="normal" in2="BackgroundImageFix" result="effect1_dropShadow_406_5941"/>
<feColorMatrix in="SourceAlpha" type="matrix" values="0 0 0 0 0 0 0 0 0 0 0 0 0 0 0 0 0 0 127 0" result="hardAlpha"/>
<feOffset dy="3"/>
<feGaussianBlur stdDeviation="2.5"/>
<feColorMatrix type="matrix" values="0 0 0 0 0 0 0 0 0 0 0 0 0 0 0 0 0 0 0.04 0"/>
<feBlend mode="normal" in2="effect1_dropShadow_406_5941" result="effect2_dropShadow_406_5941"/>
<feColorMatrix in="SourceAlpha" type="matrix" values="0 0 0 0 0 0 0 0 0 0 0 0 0 0 0 0 0 0 127 0" result="hardAlpha"/>
<feOffset dy="8"/>
<feGaussianBlur stdDeviation="5"/>
<feColorMatrix type="matrix" values="0 0 0 0 0 0 0 0 0 0 0 0 0 0 0 0 0 0 0.08 0"/>
<feBlend mode="normal" in2="effect2_dropShadow_406_5941" result="effect3_dropShadow_406_5941"/>
<feBlend mode="normal" in="SourceGraphic" in2="effect3_dropShadow_406_5941" result="shape"/>
</filter>
<filter id="filter2_ddd_406_5941" x="386" y="0" width="183" height="183" filterUnits="userSpaceOnUse" color-interpolation-filters="sRGB">
<feFlood flood-opacity="0" result="BackgroundImageFix"/>
<feColorMatrix in="SourceAlpha" type="matrix" values="0 0 0 0 0 0 0 0 0 0 0 0 0 0 0 0 0 0 127 0" result="hardAlpha"/>
<feOffset dy="2.5"/>
<feGaussianBlur stdDeviation="1"/>
<feColorMatrix type="matrix" values="0 0 0 0 0 0 0 0 0 0 0 0 0 0 0 0 0 0 0.02 0"/>
<feBlend mode="normal" in2="BackgroundImageFix" result="effect1_dropShadow_406_5941"/>
<feColorMatrix in="SourceAlpha" type="matrix" values="0 0 0 0 0 0 0 0 0 0 0 0 0 0 0 0 0 0 127 0" result="hardAlpha"/>
<feOffset dy="3"/>
<feGaussianBlur stdDeviation="2.5"/>
<feColorMatrix type="matrix" values="0 0 0 0 0 0 0 0 0 0 0 0 0 0 0 0 0 0 0.04 0"/>
<feBlend mode="normal" in2="effect1_dropShadow_406_5941" result="effect2_dropShadow_406_5941"/>
<feColorMatrix in="SourceAlpha" type="matrix" values="0 0 0 0 0 0 0 0 0 0 0 0 0 0 0 0 0 0 127 0" result="hardAlpha"/>
<feOffset dy="8"/>
<feGaussianBlur stdDeviation="5"/>
<feColorMatrix type="matrix" values="0 0 0 0 0 0 0 0 0 0 0 0 0 0 0 0 0 0 0.08 0"/>
<feBlend mode="normal" in2="effect2_dropShadow_406_5941" result="effect3_dropShadow_406_5941"/>
<feBlend mode="normal" in="SourceGraphic" in2="effect3_dropShadow_406_5941" result="shape"/>
</filter>
<filter id="filter3_ddd_406_5941" x="579" y="0" width="183" height="183" filterUnits="userSpaceOnUse" color-interpolation-filters="sRGB">
<feFlood flood-opacity="0" result="BackgroundImageFix"/>
<feColorMatrix in="SourceAlpha" type="matrix" values="0 0 0 0 0 0 0 0 0 0 0 0 0 0 0 0 0 0 127 0" result="hardAlpha"/>
<feOffset dy="2.5"/>
<feGaussianBlur stdDeviation="1"/>
<feColorMatrix type="matrix" values="0 0 0 0 0 0 0 0 0 0 0 0 0 0 0 0 0 0 0.02 0"/>
<feBlend mode="normal" in2="BackgroundImageFix" result="effect1_dropShadow_406_5941"/>
<feColorMatrix in="SourceAlpha" type="matrix" values="0 0 0 0 0 0 0 0 0 0 0 0 0 0 0 0 0 0 127 0" result="hardAlpha"/>
<feOffset dy="3"/>
<feGaussianBlur stdDeviation="2.5"/>
<feColorMatrix type="matrix" values="0 0 0 0 0 0 0 0 0 0 0 0 0 0 0 0 0 0 0.04 0"/>
<feBlend mode="normal" in2="effect1_dropShadow_406_5941" result="effect2_dropShadow_406_5941"/>
<feColorMatrix in="SourceAlpha" type="matrix" values="0 0 0 0 0 0 0 0 0 0 0 0 0 0 0 0 0 0 127 0" result="hardAlpha"/>
<feOffset dy="8"/>
<feGaussianBlur stdDeviation="5"/>
<feColorMatrix type="matrix" values="0 0 0 0 0 0 0 0 0 0 0 0 0 0 0 0 0 0 0.08 0"/>
<feBlend mode="normal" in2="effect2_dropShadow_406_5941" result="effect3_dropShadow_406_5941"/>
<feBlend mode="normal" in="SourceGraphic" in2="effect3_dropShadow_406_5941" result="shape"/>
</filter>
</defs>
</svg>
