<svg width="1920" height="836" viewBox="0 0 1920 836" fill="none" xmlns="http://www.w3.org/2000/svg">
<rect y="-1" width="1920" height="837" fill="#126363"/>
<path d="M1057.88 461.818C1057.31 461.79 1056.98 461.74 1056.64 461.765C1055.68 461.837 1054.71 461.9 1053.75 462.038C1049.44 462.645 1045.14 463.294 1040.83 463.898C1039.43 464.092 1038.03 464.255 1036.62 463.998C1035.41 463.779 1034.48 463.2 1033.79 462.179C1033.05 461.101 1032.59 459.914 1032.24 458.674C1031.43 455.867 1030.96 453.001 1030.57 450.11C1029.8 444.516 1029.23 438.91 1029.45 433.262C1029.56 430.672 1029.93 428.091 1030.18 425.507C1030.2 425.332 1030.22 425.153 1030.24 424.896C1029.61 425.156 1029.08 425.401 1028.52 425.601C1028.17 425.726 1027.8 425.817 1027.43 425.867C1026.18 426.036 1025.7 425.557 1025.81 424.279C1025.9 423.214 1026.45 422.4 1027.22 421.714C1028.32 420.737 1029.61 420.101 1031 419.666C1031.63 419.465 1032.09 419.139 1032.43 418.566C1032.69 418.146 1033.03 417.755 1033.42 417.442C1034.56 416.508 1035.88 416.674 1036.8 417.818C1036.92 417.962 1037.02 418.112 1037.17 418.303C1037.9 418.222 1038.65 418.14 1039.39 418.059C1045.66 417.379 1051.94 416.937 1058.23 417.605C1060.08 417.802 1061.92 418.256 1063.74 418.698C1064.38 418.854 1065 419.258 1065.54 419.666C1065.89 419.929 1066.19 420.367 1066.34 420.787C1066.65 421.67 1066.12 422.2 1065.19 422.143C1058.97 421.752 1052.76 421.078 1046.52 421.667C1043.84 421.921 1041.17 422.193 1038.49 422.463C1038.18 422.494 1037.89 422.566 1037.56 422.626C1037.04 428.003 1037.37 433.294 1037.64 438.603C1037.86 438.603 1037.95 438.625 1038.04 438.6C1043.09 437.174 1048.27 436.799 1053.48 436.827C1056.23 436.842 1058.98 437.077 1061.63 437.979C1062.56 438.299 1063.44 438.715 1064.08 439.483C1064.45 439.928 1064.77 440.463 1064.94 441.014C1065.29 442.195 1064.71 443.332 1063.54 443.73C1062.87 443.956 1062.14 444.071 1061.43 444.062C1059.02 444.034 1056.61 443.924 1054.2 443.849C1049.83 443.711 1045.51 444.169 1041.21 444.911C1040.26 445.077 1039.3 445.196 1038.25 445.353C1038.68 448.804 1039.11 452.203 1039.54 455.629C1039.79 455.654 1039.95 455.711 1040.08 455.679C1043.15 454.981 1046.27 454.762 1049.39 454.477C1053.38 454.113 1057.37 453.556 1061.39 453.737C1065.98 453.944 1070.58 454.182 1075.17 454.511C1077.35 454.668 1079.52 455.025 1081.68 455.382C1082.72 455.554 1083.76 455.864 1084.75 456.252C1085.46 456.534 1086.15 456.96 1086.72 457.477C1087.59 458.273 1087.88 459.331 1087.49 460.484C1087.1 461.624 1086.15 462.053 1085.07 462.094C1083.53 462.147 1082 462.085 1080.46 462.038C1075.8 461.897 1071.14 461.731 1066.48 461.593C1065.35 461.558 1065.35 461.677 1064.97 462.702C1064.14 464.9 1063.29 467.09 1062.35 469.238C1061.07 472.164 1059.71 475.052 1058.36 477.949C1057.26 480.32 1055.91 482.513 1054.16 484.48C1051.31 487.687 1048.59 491.001 1045.72 494.189C1042.64 497.613 1039.28 500.748 1035.85 503.836C1032.68 506.696 1028.99 508.76 1025.55 511.197C1019.11 515.754 1012.16 519.447 1005 522.695C1001.58 524.243 997.957 525.307 994.415 526.557C989.159 528.411 983.684 529.285 978.203 530.112C975.449 530.529 972.706 531.064 969.937 531.324C960.525 532.208 951.106 532.446 941.76 530.673C938.349 530.028 934.96 529.198 931.63 528.22C927.095 526.892 922.569 525.495 918.143 523.845C913.21 522.003 908.593 519.447 904.052 516.779C902.244 515.717 900.365 514.771 898.58 513.678C896.578 512.453 894.639 511.131 892.685 509.835C891.642 509.142 890.583 508.463 889.603 507.683C887.179 505.756 884.761 503.818 882.408 501.807C878.202 498.208 874.543 494.08 871.226 489.67C869.028 486.744 867.036 483.662 864.925 480.671C863.847 479.146 862.926 477.507 861.592 476.157C860.984 475.544 860.568 474.745 860.067 474.024C859.083 472.615 858.106 471.199 857.11 469.799C856.602 469.085 856.032 468.415 855.544 467.688C854.895 466.717 854.563 465.605 854.839 464.468C855.03 463.682 855.512 462.968 855.894 462.166C855.797 462.153 855.575 462.091 855.356 462.094C853.567 462.125 851.807 461.941 850.028 461.731C848.02 461.493 845.969 461.652 843.936 461.634C841.371 461.612 838.802 461.602 836.237 461.543C835.717 461.53 835.175 461.386 834.693 461.183C832.776 460.365 832.419 457.919 833.972 456.531C835.385 455.269 837.004 454.624 838.918 454.589C845.493 454.47 852.064 454.238 858.641 454.179C864.214 454.129 869.789 454.245 875.364 454.307C881.29 454.373 887.197 454.091 893.092 453.502C895.322 453.28 897.48 452.795 899.485 451.758C899.789 451.601 900.105 451.451 900.381 451.25C901.251 450.621 901.483 449.991 901.148 448.98C900.462 446.894 899.09 445.306 897.048 444.613C894 443.58 890.887 442.709 887.752 441.982C885.29 441.412 882.765 441.155 880.206 441.162C878.149 441.165 876.091 440.823 874.033 440.654C872.661 440.542 871.286 440.379 869.914 440.394C865.551 440.448 861.213 440.119 856.894 439.571C854.375 439.251 851.907 438.647 849.68 437.322C849.282 437.087 848.819 436.961 848.38 436.799C847.911 436.626 847.422 436.501 846.965 436.301C843.278 434.687 841.8 430.672 843.544 427.036C844.149 425.78 844.941 424.649 846.003 423.747C846.836 423.039 847.682 422.303 848.637 421.792C851.779 420.117 854.967 418.598 858.494 417.771C863.318 416.637 868.173 416.433 873.053 416.85C875.815 417.085 878.559 417.63 881.052 419.036C882.568 419.894 883.605 421.003 883.783 422.81C883.84 423.362 884.09 423.891 884.228 424.433C884.723 426.372 883.909 427.922 882.098 428.398C881.66 428.514 881.133 428.567 880.714 428.439C879.492 428.063 878.236 427.706 877.112 427.117C874.174 425.567 871.057 424.746 867.762 424.574C863.907 424.37 860.057 424.445 856.267 425.294C854.601 425.667 853.05 426.312 851.726 427.43C851.055 427.997 850.786 428.768 850.717 429.585C850.617 430.719 851.156 431.436 852.314 431.659C853.354 431.859 854.422 431.95 855.481 432.035C858.291 432.257 861.097 432.507 863.913 432.645C867.352 432.814 870.794 432.933 874.236 432.984C878.243 433.046 882.249 432.955 886.255 433.034C890.248 433.112 894.179 433.654 897.956 435.051C901.872 436.501 905.483 438.446 908.477 441.422C911.105 444.034 911.895 447.188 911.14 450.737C910.764 452.503 909.705 453.919 908.321 455.072C906.153 456.879 903.622 457.909 900.888 458.498C899.388 458.821 897.887 459.14 896.397 459.494C892.572 460.403 888.679 460.775 884.77 461.045C880.958 461.308 877.149 461.634 873.334 461.803C870.083 461.947 866.823 461.915 863.568 461.944C863.133 461.947 862.701 461.831 862.265 461.793C861.617 461.74 860.959 461.627 860.289 462.047C860.427 462.207 860.514 462.376 860.655 462.457C862.187 463.319 863.318 464.625 864.486 465.89C865.25 466.72 866.061 467.513 866.754 468.396C868.119 470.144 869.573 471.851 870.719 473.739C874.08 479.268 877.754 484.552 882.092 489.36C884.989 492.573 888.068 495.611 891.385 498.383C893.28 499.968 895.344 501.346 897.342 502.806C903.074 506.997 909.301 510.383 915.6 513.596C920.962 516.331 926.675 518.26 932.451 519.98C937.321 521.43 942.267 522.529 947.272 523.391C953.546 524.468 959.836 524.725 966.169 523.932C970.269 523.419 974.391 523.077 978.494 522.608C981.554 522.26 984.536 521.521 987.455 520.562C991.947 519.09 996.463 517.687 1000.88 516.017C1003.62 514.981 1006.18 513.468 1008.85 512.24C1013.02 510.326 1016.92 507.949 1020.84 505.6C1023.02 504.297 1025.32 503.213 1027.24 501.509C1028.57 500.325 1029.95 499.182 1031.28 497.995C1033.38 496.119 1035.57 494.327 1037.52 492.301C1040.66 489.028 1043.65 485.601 1046.67 482.215C1048.86 479.756 1050.74 477.056 1052.48 474.262C1052.8 473.758 1053.09 473.235 1053.33 472.693C1054.71 469.57 1056.07 466.441 1057.42 463.309C1057.6 462.89 1057.69 462.439 1057.88 461.818Z" fill="white"/>
<path d="M1057.54 400.602C1057.41 402.209 1056.42 402.626 1054.9 402.622C1053.28 402.622 1051.67 402.936 1050.05 403.089C1049.45 403.146 1048.86 403.133 1048.26 403.164C1045.51 403.302 1042.77 403.456 1040.02 403.578C1039.33 403.609 1038.65 403.546 1037.96 403.499C1034.77 403.28 1031.59 403.499 1028.4 403.697C1024.96 403.913 1021.52 404.051 1018.08 404.242C1016.52 404.329 1014.96 404.499 1013.4 404.574C1010.7 404.699 1008.02 404.536 1005.41 403.75C1005.11 403.659 1004.81 403.562 1004.52 403.437C1004.08 403.243 1003.85 402.892 1003.84 402.403C1003.82 401.946 1004.14 401.733 1004.48 401.57C1005.92 400.894 1007.37 400.217 1008.82 399.565C1010.76 398.695 1012.74 397.909 1014.65 396.975C1017.01 395.819 1019.3 394.523 1021.64 393.336C1023.73 392.277 1025.86 391.284 1027.97 390.26C1028.24 390.128 1028.5 389.975 1028.9 389.765C1028.23 388.941 1027.66 388.158 1027.01 387.453C1018.93 378.611 1009.25 372.193 997.881 368.335C986.818 364.579 975.439 363.013 963.784 363.207C949.025 363.452 934.915 366.609 921.462 372.657C912.748 376.575 904.98 381.884 898.243 388.681C897.983 388.941 897.739 389.217 897.429 389.546C898.66 390.247 899.922 390.601 901.197 390.849C904.686 391.528 908.031 392.656 911.301 394.025C911.674 394.181 912.065 394.303 912.46 394.401C914.039 394.789 915.617 395.171 917.199 395.534C917.531 395.61 917.882 395.641 918.223 395.638C921.127 395.628 923.83 396.552 926.539 397.426C927.097 397.605 927.673 397.874 928.105 398.256C928.547 398.648 928.879 399.199 929.142 399.741C929.23 399.923 929.026 400.339 928.838 400.543C928.669 400.728 928.35 400.828 928.083 400.872C926.079 401.204 924.08 401.579 922.063 401.814C918.768 402.196 915.464 402.507 912.162 402.804C910.261 402.973 908.351 403.039 906.446 403.186C905.861 403.233 905.287 403.415 904.705 403.515C903.659 403.694 902.609 403.866 901.563 404.029C900.082 404.261 898.585 404.405 897.122 404.721C895.064 405.166 893.009 405.535 890.898 405.529C887.472 405.513 884.098 405.996 880.728 406.556C879.215 406.81 877.702 407.111 876.177 407.217C874.977 407.302 873.753 407.167 872.547 407.042C871.319 406.917 870.796 405.933 870.395 404.947C870.154 404.351 870.091 403.678 869.972 403.036C869.913 402.707 869.906 402.369 869.859 401.874C868.628 402.074 867.473 402.175 866.367 402.463C862.471 403.474 858.53 403.738 854.534 403.349C851.824 403.086 849.118 402.817 846.412 402.525C845.262 402.4 844.401 401.817 844.013 400.696C843.64 399.616 843.909 398.663 844.711 397.855C844.799 397.768 844.88 397.674 845.002 397.542C844.602 396.49 844.789 395.409 844.93 394.325C845.172 392.496 845.551 390.667 845.604 388.832C845.648 387.316 845.801 385.837 846.127 384.371C846.888 380.948 847.8 377.568 848.974 374.254C850.239 370.681 851.646 367.173 853.284 363.752C855.996 358.086 859.301 352.78 863.041 347.737C867.31 341.977 872.19 336.778 877.505 331.992C882.52 327.475 887.988 323.57 893.755 320.058C902.813 314.546 912.375 310.167 922.502 307.016C930.93 304.394 939.535 302.687 948.311 301.763C954.866 301.071 961.432 300.88 968.009 301.068C972.673 301.2 977.324 301.591 981.95 302.227C992.321 303.655 1002.4 306.242 1012.16 309.998C1019.61 312.861 1026.68 316.456 1033.43 320.716C1039.52 324.559 1045.16 328.954 1050.42 333.856C1055.75 338.826 1060.52 344.289 1064.71 350.256C1065.81 351.816 1067.06 353.275 1068.07 354.888C1070.9 359.405 1073.36 364.112 1075.35 369.074C1076.96 373.092 1078.35 377.17 1079.46 381.349C1080.7 386.05 1081.51 390.827 1081.84 395.682C1081.87 396.086 1081.87 396.499 1081.81 396.9C1081.58 398.457 1080.31 399.509 1078.75 399.537C1078.14 399.547 1077.51 399.638 1076.92 399.807C1074.29 400.565 1071.6 400.962 1068.86 400.909C1065.14 400.837 1061.42 400.712 1057.54 400.602ZM1075.52 395.143C1075.51 394.924 1075.52 394.798 1075.5 394.676C1075.04 391.835 1074.62 388.985 1074.08 386.16C1073.12 381.136 1071.63 376.246 1069.67 371.529C1067.72 366.816 1065.35 362.296 1062.74 357.895C1061.06 355.064 1059.34 352.273 1057.32 349.673C1053.08 344.214 1048.3 339.271 1043.07 334.758C1036.3 328.919 1028.89 324.027 1020.94 319.974C1017.4 318.17 1013.73 316.632 1010.09 315.044C1005.23 312.923 1000.16 311.395 995.04 310.054C990.645 308.902 986.188 308.062 981.694 307.405C976.92 306.706 972.125 306.264 967.298 306.076C961.118 305.835 954.957 306.07 948.821 306.759C941.188 307.617 933.684 309.155 926.307 311.348C919.085 313.493 912.103 316.222 905.366 319.598C895.86 324.365 887.346 330.542 879.541 337.721C874.545 342.316 870.157 347.449 866.188 352.953C864.206 355.699 862.367 358.537 860.801 361.538C859.138 364.726 857.396 367.893 856.021 371.21C854.671 374.467 853.603 377.86 852.667 381.261C851.674 384.872 850.609 388.478 849.989 392.183C849.763 393.527 849.688 394.899 849.541 396.308C849.82 396.333 849.97 396.361 850.117 396.358C855.545 396.195 860.945 396.449 866.323 397.226C867.739 397.429 869.177 397.461 870.63 397.573C870.871 396.931 871.078 396.38 871.285 395.826C872.296 393.138 873.599 390.629 875.66 388.565C876.121 388.105 876.553 387.594 876.904 387.046C877.417 386.241 877.646 386.119 878.564 386.21C880.023 386.354 881.489 386.454 882.955 386.561C884.233 386.652 885.533 386.614 886.786 386.836C888.724 387.181 890.638 387.676 892.549 388.155C893.109 388.296 893.463 388.196 893.852 387.757C897.545 383.579 901.745 379.98 906.355 376.86C914.64 371.257 923.598 367.044 933.179 364.203C946.892 360.138 960.893 358.659 975.16 359.843C982.079 360.42 988.869 361.647 995.522 363.655C1003.52 366.073 1011.03 369.509 1017.89 374.333C1019.78 375.664 1021.72 376.929 1023.65 378.204C1025.05 379.128 1026.25 380.246 1027.26 381.593C1027.78 382.288 1028.37 382.952 1029.04 383.51C1030.48 384.728 1031.81 386.041 1032.81 387.657C1032.94 387.861 1033.12 388.03 1033.28 388.227C1033.69 388.092 1034.05 387.992 1034.39 387.851C1036.48 386.99 1038.55 386.107 1040.64 385.261C1042.35 384.569 1044.08 383.93 1045.79 383.234C1046.39 382.99 1046.98 382.699 1047.51 382.329C1048.49 381.64 1049.01 381.668 1049.73 382.617C1050.67 383.867 1051.58 385.136 1052.52 386.382C1053.91 388.218 1055.14 390.125 1055.76 392.374C1055.89 392.825 1056.14 393.238 1056.26 393.69C1056.46 394.41 1056.88 394.651 1057.62 394.667C1061.09 394.739 1064.57 394.861 1068.04 394.971C1069.54 395.018 1071.04 395.099 1072.55 395.14C1073.51 395.165 1074.47 395.143 1075.52 395.143Z" fill="white"/>
<path d="M956.621 514.751C952.314 514.758 948.079 514.078 943.848 513.364C942.091 513.066 940.286 513.029 938.539 512.697C935.407 512.102 932.209 511.788 929.177 510.733C927.758 510.241 926.389 509.599 924.961 509.148C922.749 508.449 920.851 507.2 918.9 506.009C916.551 504.578 914.064 503.369 911.715 501.935C910.443 501.158 909.325 500.13 908.166 499.181C907.27 498.448 906.45 497.625 905.541 496.911C903.477 495.297 901.723 493.39 900.138 491.32C899.13 490.001 898.162 488.654 897.144 487.342C895.255 484.908 894.053 482.127 893.022 479.261C892.847 478.769 892.806 478.221 892.762 477.695C892.668 476.567 893.232 475.706 894.341 475.477C896.204 475.089 898.068 474.772 900.007 474.869C901.495 474.945 902.998 474.691 904.495 474.591C906.838 474.434 909.181 474.287 911.524 474.133C913.115 474.027 914.715 473.758 916.3 473.83C923.094 474.127 929.878 473.488 936.666 473.72C938.57 473.786 940.481 473.842 942.373 474.049C945.599 474.403 948.815 474.133 952.038 474.08C953.031 474.064 954.03 474.218 955.023 474.293C955.396 474.321 955.769 474.381 956.142 474.368C960.492 474.227 964.84 474.043 969.19 473.939C974.292 473.817 979.398 473.717 984.503 473.698C988.979 473.685 993.458 473.786 997.934 473.867C999.566 473.898 1001.17 473.873 1002.8 473.592C1006.17 473.009 1009.59 472.99 1013 472.89C1015.25 472.824 1017.49 472.627 1019.74 472.552C1021.65 472.489 1023.56 472.508 1025.47 472.511C1026.16 472.511 1026.85 472.539 1027.53 472.599C1029.25 472.746 1030.03 474.043 1029.41 475.659C1028.18 478.885 1026.51 481.889 1024.88 484.924C1023.19 488.093 1020.88 490.831 1018.82 493.738C1018.73 493.866 1018.63 493.991 1018.51 494.095C1015.59 496.779 1013.04 499.877 1009.76 502.176C1008.99 502.711 1008.19 503.209 1007.36 503.632C1005.27 504.697 1003.19 505.806 1001.03 506.717C998.213 507.908 995.322 508.944 992.45 510.016C990.075 510.899 987.689 511.748 985.299 512.587C983.338 513.276 981.309 513.664 979.235 513.774C976.92 513.896 974.606 513.987 972.291 514.1C967.821 514.316 963.349 514.542 958.879 514.748C958.127 514.783 957.372 514.751 956.621 514.751ZM940.869 478.193C940.888 478.453 940.894 478.669 940.919 478.882C941.464 483.649 941.58 488.429 941.345 493.218C941.289 494.386 941.329 494.505 942.488 494.445C945.11 494.308 947.741 494.211 950.35 493.913C955.042 493.377 959.712 492.66 964.442 492.497C964.708 492.488 964.974 492.397 965.344 492.325C965.344 491.865 965.347 491.467 965.344 491.066C965.313 488.72 965.24 486.374 965.256 484.028C965.269 482.139 965.2 480.238 965.795 478.368C964.774 478.368 963.84 478.365 962.91 478.368C960.47 478.374 958.027 478.484 955.597 478.368C952.599 478.227 949.617 477.807 946.62 477.688C944.822 477.616 943.008 477.895 941.201 478.02C941.113 478.027 941.035 478.105 940.869 478.193ZM986.524 477.845C986.254 477.814 986.047 477.764 985.844 477.767C980.654 477.892 975.461 478.017 970.271 478.155C969.983 478.161 969.698 478.243 969.416 478.29C969.575 478.995 969.782 479.565 969.826 480.144C970.086 483.824 970.305 487.505 970.543 491.188C970.565 491.545 970.625 491.902 970.684 492.419C976.162 492.009 981.543 491.648 986.868 492.41C986.536 489.894 986.17 487.517 985.919 485.13C985.662 482.697 985.778 480.269 986.524 477.845Z" fill="white"/>
<path d="M943.758 435.053C943.607 435.842 943.516 436.647 943.294 437.418C942.824 439.037 942.339 440.653 941.756 442.235C941.405 443.181 940.741 443.958 939.905 444.559C937.857 446.031 935.294 445.893 933.321 444.202C932.093 443.15 931.122 441.875 930.317 440.494C929.027 438.276 927.809 436.015 926.565 433.772C926.343 433.368 926.136 432.954 925.744 432.569C925.663 433.327 925.547 434.082 925.51 434.84C925.218 440.625 924.93 446.41 924.67 452.195C924.614 453.476 924.727 454.767 924.645 456.045C924.589 456.906 924.435 457.796 924.128 458.598C923.696 459.728 922.813 460.427 921.535 460.424C920.273 460.42 919.336 459.75 918.898 458.635C918.503 457.633 918.284 456.53 918.161 455.453C917.56 450.144 917.723 444.825 918.005 439.504C918.321 433.499 918.572 427.495 918.857 421.488C918.951 419.486 918.992 417.478 919.189 415.486C919.402 413.353 921.125 411.956 923.195 412.107C924.551 412.204 925.55 412.909 926.23 414.055C926.515 414.537 926.715 415.07 926.922 415.593C929.202 421.328 931.683 426.969 934.662 432.381C934.768 432.572 934.884 432.757 935.006 432.939C935.038 432.986 935.107 433.008 935.285 433.124C935.392 432.394 935.486 431.727 935.583 431.056C936.137 427.276 936.71 423.495 938.035 419.887C938.42 418.835 938.903 417.807 939.454 416.833C940.096 415.699 941.133 414.988 942.379 414.612C944.155 414.077 945.718 414.472 947.053 415.762C948.083 416.758 948.609 418.03 948.919 419.386C949.414 421.553 949.85 423.733 950.326 425.904C951.196 429.863 952.628 433.644 954.106 437.402C955.619 441.248 957.254 445.045 958.801 448.875C959.528 450.673 960.236 452.487 960.844 454.328C961.263 455.6 961.611 456.919 961.777 458.24C961.887 459.108 961.777 460.076 961.498 460.909C960.624 463.521 957.671 464.286 955.556 462.522C954.567 461.695 953.956 460.602 953.492 459.428C952.54 457.01 951.622 454.579 950.667 452.164C948.813 447.478 946.93 442.802 945.076 438.116C944.675 437.105 944.337 436.065 943.971 435.037C943.902 435.047 943.83 435.05 943.758 435.053Z" fill="white"/>
<path d="M996.495 449.827C998.447 449.372 1000.25 448.846 1002.1 448.539C1007.04 447.722 1011.98 446.948 1016.94 446.275C1018.38 446.081 1019.88 446.196 1021.34 446.344C1022.15 446.425 1022.99 446.741 1023.7 447.158C1025.13 447.988 1025.78 449.325 1025.56 450.97C1025.34 452.614 1024.35 453.695 1022.77 454.174C1022.18 454.353 1021.54 454.434 1020.92 454.481C1017.92 454.697 1014.98 455.305 1012.03 455.875C1009.39 456.385 1006.72 456.793 1004.08 457.269C1000.95 457.829 997.92 458.684 995.177 460.366C993.911 461.14 992.549 461.547 991.052 461.209C989.163 460.786 987.951 459.627 987.487 457.754C987.324 457.093 987.268 456.389 987.287 455.706C987.434 450.137 987.587 444.568 987.782 438.999C987.876 436.34 987.995 433.68 988.223 431.03C988.684 425.743 989.579 420.541 991.559 415.579C991.769 415.056 991.972 414.527 992.245 414.035C992.978 412.701 994.234 412.071 995.502 412.356C996.749 412.638 997.72 413.778 997.798 415.235C997.858 416.356 997.817 417.49 997.717 418.608C997.325 423.003 996.736 427.385 996.517 431.785C996.301 436.127 996.439 440.483 996.429 444.834C996.426 446.212 996.445 447.587 996.458 448.965C996.458 449.241 996.48 449.517 996.495 449.827Z" fill="white"/>
<path d="M978.915 453.856C978.814 455.723 978.846 457.577 978.26 459.359C978.056 459.976 977.797 460.6 977.433 461.135C976.531 462.466 975.15 462.767 973.725 462.015C972.563 461.401 971.833 460.39 971.307 459.231C970.461 457.373 969.759 455.46 969.418 453.446C968.926 450.545 968.535 447.629 968.059 444.729C967.276 439.968 966.727 435.185 966.521 430.362C966.364 426.75 966.54 423.164 967.351 419.631C967.46 419.145 967.617 418.66 967.827 418.212C968.591 416.568 970.113 415.7 971.845 415.878C973.502 416.051 974.918 417.304 975.222 419.067C975.444 420.357 975.535 421.679 975.566 422.989C975.745 430.327 976.681 437.584 977.781 444.829C978.235 447.827 978.539 450.846 978.915 453.856Z" fill="white"/>
<path d="M959.06 396.749C961.033 396.464 962.906 396.195 964.914 395.906C964.885 395.33 964.87 394.685 964.82 394.043C964.672 392.069 964.676 390.096 965.098 388.157C965.236 387.531 965.518 386.914 965.85 386.36C966.17 385.827 966.718 385.526 967.375 385.664C968.058 385.808 968.328 386.353 968.418 386.967C968.503 387.522 968.509 388.088 968.534 388.649C968.722 392.555 968.907 396.461 969.095 400.367C969.142 401.334 969.22 402.299 969.223 403.267C969.227 403.696 969.126 404.141 968.992 404.551C968.716 405.409 968.155 405.829 967.432 405.785C966.668 405.741 966.069 405.221 965.819 404.435C965.377 403.051 965.195 401.632 965.149 400.188C965.139 399.881 965.098 399.574 965.061 399.17C963.235 399.252 961.568 399.865 959.746 400.179C959.93 400.977 960.099 401.67 960.253 402.365C960.397 403.004 960.591 403.643 960.638 404.291C960.676 404.805 960.626 405.369 960.447 405.851C959.955 407.188 958.59 407.473 957.609 406.446C957.255 406.073 956.952 405.588 956.801 405.096C955.818 401.895 954.985 398.663 954.747 395.292C954.606 393.322 954.44 391.374 954.706 389.401C954.878 388.12 955.479 387.096 956.353 386.215C957.002 385.561 957.54 385.752 957.898 386.591C958.646 388.345 958.477 390.215 958.659 392.041C958.784 393.316 958.825 394.6 958.915 395.881C958.95 396.216 959.025 396.542 959.06 396.749Z" fill="white"/>
<path d="M943.856 390.603C943.506 390.582 943.23 390.553 942.954 390.55C940.417 390.538 937.88 390.528 935.346 390.519C935.158 390.519 934.97 390.525 934.782 390.506C933.812 390.406 933.094 389.73 933.016 388.849C932.941 387.985 933.558 387.193 934.535 386.989C935.208 386.848 935.894 386.77 936.58 386.698C938.945 386.441 941.307 386.15 943.678 385.968C945.235 385.849 946.807 385.918 948.37 385.858C949.585 385.811 950.804 385.739 952.013 385.601C953.2 385.464 953.876 385.933 954.02 387.127C954.045 387.343 954.074 387.562 954.08 387.781C954.117 388.784 953.485 389.611 952.489 389.799C951.142 390.052 949.786 390.265 948.373 390.506C948.348 390.738 948.301 390.976 948.301 391.217C948.273 393.911 948.285 396.605 948.21 399.295C948.16 401.074 948.01 402.853 947.862 404.632C947.787 405.55 946.945 406.39 946.115 406.477C945.235 406.571 944.405 405.964 944.148 404.943C943.988 404.31 943.913 403.646 943.878 402.994C943.778 401.153 943.659 399.311 943.662 397.466C943.662 395.405 943.787 393.344 943.86 391.283C943.863 391.092 943.856 390.907 943.856 390.603Z" fill="white"/>
<path d="M977.005 399.183C976.792 399.935 976.62 400.63 976.394 401.307C976.156 402.018 975.89 402.719 975.583 403.402C975.445 403.706 975.22 403.997 974.966 404.216C974.308 404.793 973.519 404.555 973.312 403.696C973.206 403.252 973.203 402.76 973.25 402.3C973.566 399.277 974.051 396.286 974.932 393.367C975.257 392.289 975.589 391.212 975.865 390.122C976.369 388.123 977.321 386.329 978.358 384.578C978.878 383.698 979.495 383.591 980.325 384.183C980.673 384.431 981.03 384.756 981.212 385.129C981.963 386.67 982.624 388.239 983.078 389.918C983.689 392.176 984.557 394.366 985.265 396.602C985.772 398.212 986.22 399.841 986.655 401.47C986.918 402.45 986.781 403.402 986.176 404.245C985.609 405.034 984.848 405.172 984.059 404.614C983.32 404.091 982.8 403.396 982.562 402.516C982.298 401.551 982.026 400.586 981.813 399.609C981.681 399.004 981.368 398.754 980.767 398.817C979.552 398.936 978.336 399.051 977.005 399.183ZM980.917 396.063C980.463 394.616 980.043 393.269 979.62 391.92C979.555 391.923 979.492 391.929 979.426 391.932C978.953 393.204 978.48 394.472 977.992 395.781C979.01 395.882 979.893 395.966 980.917 396.063Z" fill="white"/>
<path d="M995.559 389.245C995.43 390.679 995.371 392.086 995.164 393.467C994.713 396.468 994.187 399.456 993.679 402.447C993.629 402.751 993.517 403.055 993.376 403.33C993.056 403.938 992.542 404.257 991.841 404.198C991.189 404.141 990.632 403.647 990.497 402.939C990.409 402.481 990.413 402.005 990.413 401.536C990.416 397.981 990.86 394.482 991.691 391.027C991.813 390.52 991.872 390 991.972 389.402C991.409 389.402 990.933 389.329 990.488 389.417C989.698 389.571 989 389.304 988.295 389.069C987.663 388.86 987.212 388.427 987.118 387.735C987.02 387.012 987.321 386.398 987.929 386.059C988.489 385.746 989.135 385.574 989.761 385.395C990.115 385.295 990.513 385.233 990.876 385.28C993.802 385.662 996.755 385.305 999.684 385.602C1001.18 385.753 1002.68 385.881 1004.17 386.028C1004.45 386.056 1004.73 386.106 1005 386.172C1005.89 386.388 1006.43 387.037 1006.4 387.81C1006.36 388.637 1005.74 389.257 1004.78 389.333C1004.13 389.383 1003.47 389.339 1002.81 389.323C1000.59 389.276 998.365 389.223 996.144 389.176C995.957 389.176 995.775 389.22 995.559 389.245Z" fill="white"/>
<path d="M1023.38 362.042C1023.2 362.371 1023.09 362.628 1022.94 362.86C1022.25 363.947 1021.11 364.103 1020.15 363.242C1019.49 362.65 1019.19 361.861 1019.02 361.021C1018.67 359.198 1018.6 357.356 1018.72 355.505C1018.73 355.258 1018.75 355.014 1018.77 354.647C1018.42 354.666 1018.13 354.669 1017.83 354.704C1015.23 354.995 1012.65 354.913 1010.1 354.237C1007.88 353.648 1006.13 352.43 1004.85 350.541C1002.86 347.619 1003.73 343.321 1006.79 341.226C1007.56 340.703 1008.42 340.327 1009.24 339.885C1008.57 338.592 1008.13 338.419 1006.8 338.639C1003.49 339.187 1001.68 341.398 1000.4 344.251C1000.19 344.737 1000.01 345.248 999.728 345.689C999.067 346.726 997.886 347.121 996.881 346.707C995.872 346.291 995.349 345.179 995.641 343.96C995.757 343.478 995.919 342.989 996.154 342.554C996.956 341.079 997.36 339.478 997.821 337.884C998.356 336.023 999.048 334.207 999.697 332.381C999.819 332.033 1000.03 331.704 1000.26 331.413C1000.73 330.808 1001.39 330.605 1002.01 330.814C1002.6 331.015 1003.03 331.607 1003.02 332.359C1003.01 332.885 1002.89 333.411 1002.8 333.934C1002.73 334.329 1002.63 334.714 1002.51 335.225C1002.82 335.14 1003.02 335.09 1003.21 335.037C1004.42 334.708 1005.61 334.304 1006.83 334.069C1010.15 333.43 1012.96 335.657 1013.18 339.036C1013.19 339.162 1013.21 339.284 1013.23 339.472C1017 340.173 1020.29 341.702 1022.46 345.119C1022.48 345.125 1022.54 345.166 1022.6 345.157C1024.48 344.843 1025.5 345.592 1025.81 347.481C1026.08 349.103 1025.7 350.547 1024.56 351.728C1023.96 352.351 1023.67 353.053 1023.51 353.874C1023.16 355.74 1023.22 357.607 1023.43 359.668C1023.6 359.358 1023.73 359.204 1023.79 359.026C1024.72 356.401 1025.63 353.77 1026.56 351.149C1026.78 350.531 1027.03 349.914 1027.34 349.341C1027.58 348.912 1027.9 348.496 1028.26 348.173C1028.98 347.54 1029.96 347.493 1030.71 347.966C1031.45 348.442 1031.8 349.332 1031.52 350.272C1031.29 351.039 1030.98 351.778 1030.66 352.658C1030.93 352.58 1031.08 352.552 1031.21 352.498C1034.55 351.177 1037.79 351.647 1040.95 353.094C1042.42 353.77 1043.41 354.935 1043.51 356.639C1043.54 357.147 1043.42 357.71 1043.21 358.174C1042.87 358.913 1042.24 359.057 1041.59 358.578C1041.09 358.212 1040.62 357.773 1040.22 357.306C1039.61 356.614 1038.88 356.157 1038 355.991C1036.96 355.794 1035.9 355.631 1034.84 355.577C1033.38 355.499 1032.18 356.094 1031.24 357.25C1030.04 358.735 1028.8 360.188 1027.58 361.654C1027.42 361.845 1027.25 362.033 1027.08 362.211C1025.79 363.549 1024.67 363.524 1023.38 362.042ZM1020.1 348.226C1019.91 347.954 1019.8 347.731 1019.63 347.562C1017.31 345.191 1014.48 344.377 1011.25 344.956C1010.68 345.056 1010.12 345.335 1009.64 345.658C1008.94 346.134 1008.87 346.695 1009.44 347.312C1009.84 347.734 1010.33 348.107 1010.84 348.367C1012.12 349.009 1013.52 349.191 1014.93 349.291C1016.69 349.413 1018.41 349.244 1020.1 348.226Z" fill="white"/>
<path d="M880.805 360.959C882.196 358.475 884.827 357.119 887.496 357.576C890.412 358.077 893.143 359.089 895.232 361.297C897.274 363.455 898.132 366.024 897.453 368.987C896.923 371.295 895.075 372.918 892.73 373.225C891.361 373.403 890.048 373.159 888.755 372.736C888.373 372.611 887.991 372.488 887.571 372.354C887.339 372.78 887.132 373.162 886.926 373.544C885.767 375.674 884.028 377.112 881.764 377.963C879.675 378.75 877.833 378.352 876.173 376.92C875.302 376.172 874.651 375.248 874.218 374.195C873.335 372.05 872.543 369.87 872.179 367.571C872.063 366.835 872.057 366.071 872.095 365.325C872.142 364.42 872.68 363.815 873.401 363.709C874.106 363.602 874.842 364.038 875.124 364.874C875.362 365.579 875.518 366.324 875.606 367.067C875.822 368.849 876.542 370.362 877.842 371.599C878.362 372.094 878.835 372.648 879.38 373.115C880.27 373.876 881.075 373.892 881.867 373.037C882.519 372.335 883.026 371.492 883.549 370.684C883.859 370.208 883.762 369.792 883.292 369.375C882.525 368.689 881.826 367.922 881.131 367.161C880.818 366.816 880.539 366.428 880.304 366.024C879.772 365.106 879.866 364.119 880.508 363.408C881.156 362.691 882.133 362.466 883.086 362.948C884.58 363.703 885.948 364.661 886.891 366.077C887.925 367.634 889.444 367.972 891.135 367.897C891.881 367.862 892.047 367.59 891.968 366.844C891.89 366.096 891.561 365.476 890.997 364.971C889.854 363.944 888.507 363.308 887.041 362.901C885.745 362.544 884.442 362.199 883.154 361.811C882.384 361.567 881.632 361.256 880.805 360.959Z" fill="white"/>
<path d="M921.69 343.478C921.599 343.807 921.527 344.035 921.47 344.267C921.148 345.58 920.741 346.861 919.973 347.991C918.451 350.228 915.535 350.914 913.167 349.595C912.021 348.956 911.021 348.104 910.461 346.929C909.696 345.329 909.048 343.663 908.475 341.981C908.253 341.326 908.306 340.556 908.35 339.845C908.378 339.397 908.56 338.921 908.798 338.538C908.951 338.291 909.349 338.031 909.609 338.056C909.859 338.081 910.176 338.426 910.285 338.704C910.765 339.891 911.15 341.116 911.623 342.306C912.105 343.519 912.901 344.53 913.872 345.388C914.194 345.673 914.57 345.927 914.965 346.099C915.732 346.431 916.396 346.215 916.816 345.492C917.709 343.954 917.884 342.237 917.922 340.509C917.928 340.283 917.693 340.004 917.499 339.832C917.076 339.462 916.597 339.159 916.155 338.811C914.84 337.768 914.548 336.283 915.391 334.993C916.208 333.743 917.918 333.32 919.306 334.047C920.502 334.673 921.207 335.738 921.423 337C921.618 338.131 922.216 338.861 923.065 339.491C925.511 341.298 927.863 343.215 929.805 345.576C930.497 346.419 931.205 347.277 931.728 348.226C933.138 350.773 932.756 352.946 930.582 354.888C928.624 356.639 926.353 357.93 923.917 358.847C922.081 359.536 920.161 360.025 918.25 360.489C916.34 360.952 914.473 360.698 912.685 359.746C913.505 358.233 914.739 357.231 916.337 356.696C917.195 356.407 918.084 356.21 918.965 356C922.056 355.267 924.844 353.889 927.412 352.051C928.443 351.311 928.508 350.967 927.835 349.874C927.572 349.451 927.29 349.025 926.945 348.668C925.445 347.114 923.923 345.586 922.401 344.054C922.216 343.857 921.984 343.71 921.69 343.478Z" fill="white"/>
<path d="M986.769 335.525C986.807 338.356 985.861 340.943 983.637 343.014C982.281 344.276 980.624 344.896 978.848 345.222C976.236 345.698 973.642 345.372 971.146 344.63C967.24 343.468 965.405 340.217 965.947 336.605C966.25 334.579 966.651 332.615 967.688 330.808C968.762 328.941 970.175 327.535 972.311 326.955C972.54 326.892 972.781 326.752 972.934 326.576C974.701 324.568 976.947 324.29 979.371 324.844C983.531 325.796 985.657 328.659 986.512 332.656C986.584 332.991 986.647 333.332 986.675 333.674C986.722 334.234 986.735 334.798 986.769 335.525ZM976.214 339.327C976.89 339.221 977.583 339.161 978.244 338.995C979.55 338.666 980.445 337.883 980.837 336.543C981.2 335.299 981.156 334.081 980.837 332.837C980.477 331.434 979.578 330.563 978.244 330.109C977.861 329.978 977.454 329.915 977.063 329.805C976.098 329.539 975.064 329.404 974.19 328.957C973 328.346 972.155 328.687 971.406 329.57C970.905 330.162 970.397 330.792 970.094 331.49C969.48 332.897 969.389 334.416 970.188 335.75C971.525 337.98 973.489 339.305 976.214 339.327Z" fill="white"/>
<path d="M893.955 351.439C893.93 351.041 893.914 350.741 893.886 350.44C893.733 348.651 893.996 346.944 894.885 345.36C896.235 342.957 898.409 342.133 900.934 343.23C902.274 343.812 903.605 344.511 904.761 345.397C906.794 346.954 908.711 348.667 910.621 350.374C911.119 350.816 911.502 351.439 911.793 352.047C912.219 352.939 911.993 353.91 911.348 354.458C910.609 355.085 909.769 355.094 908.986 354.634C908.347 354.261 907.74 353.788 907.22 353.256C905.181 351.17 902.728 349.666 900.248 348.204C899.931 348.016 899.574 347.893 899.123 347.69C898.979 348.088 898.763 348.42 898.754 348.758C898.732 349.5 898.694 350.28 898.876 350.988C899.411 353.074 900.423 354.866 902.337 356.034C902.948 356.407 903.54 356.836 904.063 357.321C905.059 358.242 905.225 359.517 904.558 360.554C903.906 361.572 902.6 362.06 901.425 361.515C900.473 361.074 899.543 360.488 898.772 359.78C897.003 358.154 894.983 356.933 892.925 355.73C891.202 354.725 889.517 353.619 887.957 352.379C886.949 351.577 886.137 350.493 885.342 349.456C884.784 348.733 885.104 348.222 886.028 348.191C887.061 348.153 887.998 348.507 888.9 348.955C890.328 349.666 891.744 350.402 893.169 351.12C893.391 351.239 893.626 351.311 893.955 351.439Z" fill="white"/>
<path d="M960.636 335.45C959.593 334.576 958.522 333.812 957.188 333.605C956.204 333.455 955.196 333.468 954.196 333.424C952.793 333.361 951.39 333.33 949.987 333.255C949.05 333.205 948.108 333.154 947.18 333.017C946.513 332.916 945.799 332.788 945.223 332.462C943.795 331.657 943.541 329.95 944.559 328.675C945.498 327.501 946.632 326.611 948.076 326.116C950.698 325.218 953.341 324.472 956.157 324.738C956.683 324.788 957.238 324.839 957.711 325.042C958.112 325.218 958.513 325.556 958.744 325.925C959.161 326.602 958.81 327.141 958.018 327.191C955.6 327.347 953.269 327.977 950.923 328.519C950.726 328.566 950.544 328.682 950.347 328.926C950.823 329.026 951.299 329.139 951.775 329.23C954.435 329.731 956.95 330.705 959.459 331.667C960.345 332.005 961.153 332.616 961.917 333.201C963.277 334.244 963.559 335.485 962.797 337.026C962.03 338.579 961.068 340.023 959.684 341.101C957.354 342.914 954.754 344.198 951.838 344.747C950.284 345.038 948.715 344.966 947.177 344.565C944.978 343.992 943.434 342.589 942.41 340.612C941.815 339.466 941.755 338.263 942.441 337.107C943.115 335.973 944.039 335.701 945.126 336.431C945.758 336.857 946.269 337.48 946.792 338.05C947.19 338.489 947.494 339.012 947.891 339.45C948.8 340.456 949.962 340.86 951.287 340.634C952.27 340.465 953.294 340.308 954.187 339.904C955.863 339.143 957.479 338.238 959.083 337.326C959.756 336.947 960.345 336.402 960.636 335.45Z" fill="white"/>
<path d="M1034.12 367.169C1034.05 367.786 1034.31 368.384 1034.77 368.854C1035.29 369.387 1035.85 369.907 1036.47 370.314C1037.44 370.943 1038.5 371.438 1039.47 372.058C1040.18 372.506 1040.92 372.976 1041.46 373.599C1042.56 374.884 1042.03 376.462 1040.39 376.857C1039.71 377.02 1038.93 377.029 1038.26 376.851C1035.26 376.055 1032.65 374.552 1030.61 372.168C1028.32 369.471 1028.38 365.34 1030.72 362.681C1031.26 362.07 1031.83 361.49 1032.43 360.933C1034.83 358.656 1037.85 358.211 1040.72 359.868C1043.69 361.584 1046.05 363.896 1047.26 367.222C1047.83 368.813 1046.85 370.154 1045.17 369.882C1042.42 369.437 1039.67 368.954 1036.95 368.366C1035.98 368.153 1035.08 367.586 1034.12 367.169ZM1042.61 365.781C1041.49 364.623 1040.45 363.655 1039.21 362.941C1038.76 362.681 1038.24 362.499 1037.73 362.396C1036.33 362.104 1034.72 363.11 1034.34 364.4C1036.86 365.894 1039.65 365.666 1042.61 365.781Z" fill="white"/>
</svg>
